/* XPM */
static char *result[] = {
/* columns rows colors chars-per-pixel */
"64 64 237 2 ",
"   c #0C170B",
".  c #111309",
"X  c #0F1910",
"o  c #141C14",
"O  c #171B1A",
"+  c #0D0B05",
"@  c #162417",
"#  c #173519",
"$  c #0E290F",
"%  c #172721",
"&  c #282B29",
"*  c #293529",
"=  c #313831",
"-  c #5A0000",
";  c #6C0000",
":  c #651A1A",
">  c #781A1A",
",  c #7B3737",
"<  c #164719",
"1  c #1D561D",
"2  c #1C601F",
"3  c #1E4520",
"4  c #1F5723",
"5  c #375B39",
"6  c #2C4D2C",
"7  c #1D6422",
"8  c #1F6924",
"9  c #206523",
"0  c #236C25",
"q  c #28692C",
"w  c #267629",
"e  c #356837",
"r  c #347536",
"t  c #2D7931",
"y  c #3D7E41",
"u  c #3F4D4D",
"i  c #435B43",
"p  c #5D5D5D",
"a  c #515151",
"s  c #424545",
"d  c #4A684B",
"f  c #596C59",
"g  c #557555",
"h  c #636363",
"j  c #6A6B6B",
"k  c #6C746C",
"l  c #6D7D6E",
"z  c #737373",
"x  c #7B7B7B",
"c  c #757C75",
"v  c #607070",
"b  c #6C5C59",
"n  c #BC0909",
"m  c #C70202",
"M  c #D50000",
"N  c #DC0000",
"B  c #CF1616",
"V  c #EB0000",
"C  c #E70505",
"Z  c #F61717",
"A  c #DA2929",
"S  c #D73030",
"D  c #EA2929",
"F  c #FA2A2A",
"G  c #FE3434",
"H  c #E73A3A",
"J  c #897070",
"K  c #AA6A6A",
"L  c #954B4B",
"P  c #FF4444",
"I  c #F75959",
"U  c #E86C6C",
"Y  c #FC6B6B",
"T  c #EB7272",
"R  c #F57373",
"E  c #DF6868",
"W  c #28852C",
"Q  c #289D2A",
"!  c #2F8932",
"~  c #368739",
"^  c #2D9432",
"/  c #2F9F31",
"(  c #369839",
")  c #32932D",
"_  c #26A52A",
"`  c #2BA42D",
"'  c #2BAA2D",
"]  c #20A123",
"[  c #2EA333",
"{  c #2DAC32",
"}  c #26A230",
"|  c #31A434",
" . c #33AC34",
".. c #34A439",
"X. c #34AC3A",
"o. c #39AD3C",
"O. c #3BA83A",
"+. c #33B235",
"@. c #3BBC37",
"#. c #35B43B",
"$. c #3AB53C",
"%. c #36BB3D",
"&. c #3ABC3E",
"*. c #39B836",
"=. c #2FB133",
"-. c #41BD3C",
";. c #41B83B",
":. c #37C13E",
">. c #3CC13D",
",. c #39C136",
"<. c #43C23E",
"1. c #48C53D",
"2. c #3D9842",
"3. c #3CAD43",
"4. c #3BA741",
"5. c #3BB442",
"6. c #37BD42",
"7. c #3CBD42",
"8. c #3EBD49",
"9. c #3BB745",
"0. c #448A48",
"q. c #45954A",
"w. c #4D9751",
"e. c #549657",
"r. c #59885A",
"t. c #42B544",
"y. c #41BD43",
"u. c #43BD4A",
"i. c #47B949",
"p. c #54B75A",
"a. c #4BAF50",
"s. c #658A67",
"d. c #778578",
"f. c #719573",
"g. c #5EB565",
"h. c #6FB272",
"j. c #3CC143",
"k. c #3EC149",
"l. c #36C142",
"z. c #42C244",
"x. c #49C546",
"c. c #4BCA44",
"v. c #44C349",
"b. c #4BC54B",
"n. c #46C94A",
"m. c #4BCB4D",
"M. c #42C841",
"N. c #52CE4C",
"B. c #53C94B",
"V. c #4DD14D",
"C. c #54D24C",
"Z. c #58D14E",
"A. c #4DCC52",
"S. c #4AC752",
"D. c #53CD53",
"F. c #56C858",
"G. c #4ED155",
"H. c #53D355",
"J. c #5BD453",
"K. c #5CD955",
"L. c #55D35A",
"P. c #5AD55A",
"I. c #5BDA5C",
"U. c #56DA5A",
"Y. c #62DA56",
"T. c #63DC5B",
"R. c #69DE5D",
"E. c #61D556",
"W. c #60CE5B",
"Q. c #67E25D",
"!. c #5DDC61",
"~. c #5CD763",
"^. c #5DC661",
"/. c #64D562",
"(. c #64DD63",
"). c #6BDD67",
"_. c #6DC172",
"`. c #75CC7A",
"'. c #60C865",
"]. c #66E367",
"[. c #7D8585",
"{. c #7DCD81",
"}. c #828482",
"|. c #8B8D8B",
" X c #879788",
".X c #8C9696",
"XX c #949494",
"oX c #999C9A",
"OX c #86A888",
"+X c #92AE93",
"@X c #9EA9A3",
"#X c #ABACAB",
"$X c #A4A7A4",
"%X c #A8B7A9",
"&X c #B3B3B3",
"*X c #BCBCBC",
"=X c #B6BCB6",
"-X c #FF9999",
";X c #FC8D8D",
":X c #F3ACAC",
">X c #EFAFAF",
",X c #D38F8F",
"<X c #89C48C",
"1X c #90CC94",
"2X c #A6C9A9",
"3X c #A3DAA6",
"4X c #B9C3B9",
"5X c #B7D3B9",
"6X c #B0E2B3",
"7X c #9FC9A2",
"8X c #BFC5C5",
"9X c #C3C3C3",
"0X c #CCCCCC",
"qX c #C6CEC6",
"wX c #CDD7CE",
"eX c #CDD3D2",
"rX c #D3D5D4",
"tX c #DBDBDB",
"yX c #D2DDD6",
"uX c #FFC6C6",
"iX c #F1DCDC",
"pX c #C7E5C8",
"aX c #DAE7DB",
"sX c #DCF3DD",
"dX c #D9E3E0",
"fX c #DFF4E1",
"gX c #E4E4E4",
"hX c #EBECEB",
"jX c #EBEAE6",
"kX c #FBE5E5",
"lX c #FFEDED",
"zX c #EBF4EC",
"xX c #E8F6F6",
"cX c #F3F4F4",
"vX c #F4FAF5",
"bX c #F5FDFD",
"nX c #FEFFFF",
/* pixels */
"%.&.y.&.&.z.&.%.%.-.z.z.j.&.&.&.j.7.l.7.j.l.6.7.%.8.%.n.~.L.y.$.9.8.7.k.U.G.6.6.&.6.j.&.%.j.>.%.&.-.&.-.-.$.&.9.y.y.7.5.8.8.8.7.",
"&.&.7.&.&.z.7.&.&.7.j.z.n.z.&.&.6.7.j.j.6.%.6.7.&.j.8.7.y.x.A.n.7.8.7.z.S.S.6.6.j.,.:.:.%.%.:.z.x.<.@.-.-.&.-.9.y.y.y.y.7.6.7.7.",
"z.7.&.<.z.&.&.7.j.&.&.n.H.n.%.&.6.%.j.6.%.%.7.6.7.j.7.#.[ 8.L.b.y.1.&.&.>.1.j.>.<.@.;.-.z.>.-.C.Y.1.-.-.<.1.;.@.&.-.<.j.&.&.6.&.",
"H.n.&.&.&.&.&.-.&.%.&.H.I.n.%.7.6.%.7.7.2.y r ~ 4.5.7.$.$.A.~.A.z.m.x.( r 5 3 0 / *.@.1.C.c.<.1.Q.K.1.<.c.C.1.-.&.;.&.<.>.&.&.j.",
"].H.7.%.&.&.&.&.&.z.j.z.m.z.&.j.j.6.#.3.w.s.s.r.q.( $.8.j.n.A.z.c.T.i.~ r.k f 5 q ) ;.-.J.K.B.B.Y.Q.E.1.J.Y.c.&.>.&.%.&.&.&.&.>.",
"!.H.z.&.&.z.j.&.&.z.&.+.+.%.j.&.j.6.3.2.f.wXyX8Xf.~ ( y.7. .' =.B.i.r g 4XtXrXc # 1 ) ;.B.Y.Y.T.Y.Q.Y.Z.Y.E.1.&.>.>.:.:.&.:.>.&.",
"j.z.>.&.z.m.n.&.&.z.&.+.' %.&.%.6.7.( e  XnXnXnX9Xd.t W W W w W ! r d $XnXnXnX9Xj 6 4 ~ ;.b.).).R.p.B.W.D.z.&.7.8.n.S.l.7.6.8.7.",
"] =.%.&.x.H.A.&.&.%.&.j.&.&.z.%.%.5.w # }.cXnXnXcX0Xf # # < < < # i &XhXnXnXnXvXtXc @ q Q | F./.W.;.;.F.i.`  .7.k.G.~.k.5.8.8.9.",
"*.+.$.-.j.z.z.v.&.&.&.&.&.&.&.&...^ d h #XaXgXjXnXnX&Xx k k k k j oXcXnXhXgXgXnXnXXXO 4 O.o.X.X.O./ Q | X.#.7.7.k.k.k.k.8.8.8.k.",
"y.y.y.&.%.&.z.z.&.%.&.7.z.&.%.$.~ q l 0XhX0X9X0XjXnXcXjXjXhXhXjXgXcXnXcXeX9X0XcXcX|.O 9 3.5.{ / / / / | X.8.8.8.6.6.8.6.6.8.8.8.",
"%.&.y.z.y.&.&.*.-.&.&.&.z.&.&.$.W < }.cXnX9X&X9XgXnXnXnXbXnXnXnXnXnXnXjX9X&X*XcXhX|.o 2 $.7.&.%.9.$.$.$.$.&.j.&.%.%.&.&.&.&.6.#.",
"-.$.&.z.-.$.n.m.z.y.&.&.&.y.7.;.w # x cXnXrX8XeXhXnXnXnXnXnXnXnXnXnXnXhXeX8X0XbXvX|.o 7 o.7.7.8.i.t.y.y.-.;.-.&.&.&.z.n.n.8.%.6.",
"z.-.$.&.&.y.N.H.z.z.7.&.&.7.&.$.W $ x cXnXxXxXxXbXbXnXnXnXnXnXnXnXnXnXbXxXxXxXbXbX.Xo 7 #.%.%.&.&.&.y.y.&.-.<.,.>.>.c.V.m.z.@.>.",
"-.&.-.$.z.H.v. .&.&.&.&.&.&.&.$.! < f 0XjXkXkXkXkXkXkXkXkXkXlXlXlXlXlXlXkXkXkXkXiXJ o 7 #.6.l.7.y.-.-.z.z.-.&.&.@.V.V.@.+.>.j.,.",
"y.y.m.y.m.T.z.` %.%.&.y.&.&.7.&...! e h K U R T U U U U U T ;X:X-X-X-X-X-X;XR R E , . 7 #.l.6.6.6.%.7.6.7.7.x.m.<.H.P.+._ &.j.&.",
"&.m.I.x.z.P.m.-.%.-.>.z.&.&.y.z.y.$.9   ; m V N N N N N N N F G P P P P P F C C m ; . 7 X.6.l.l.6.8.8.#.&.z.C.H.z.N.K.c.*.&.%.j.",
"7.&.7.6.$.#.7.7.7.j.A.G.m.j.&.j.j.7.0   - n V M M M N N M M N C F G G G G Z V C M ; + 9 #.&.&.%.7.7.7.7.7.9.&.y.5.7.&.7.7.*.&.7.",
"y. .' +.#.{ { 7.&.n.I.].U.M.&.j.8.7.9 . : A D A A A m n B S A H I Y Y Y Y H n B A > . 9 $.:.6.7.8.&.8.6.8.$. . .$.{ ` $.7.&.y.n.",
"y.#.+.#.&.$.%.&.%.m.!.].U.n.l.%.&.7.0   b >X:X:X:X,X, : K :X:X:X:XuXuXuXuXK : L ,XJ o 7 X.7.7.7.&.&.&.7.7.&.$.$.7.$.+.&.j.&.m.U.",
"&.z.v.7.7.j.8.&.j.j.V.H.G.j.%.%.&.y.0 X z cXnXnXnXeXu O .XnXnXnXnXnXnXnXnX[.O j eXoX@ 7 X.7.8.6.7.&.$.7.&.7.7.z.7.y.z.z.&.j.m.H.",
"$.7.j.7.%.&.7.7.j.%.:.j.j.j.&.%.%.%.0 X x bXnXnXnXdXu % .XnXnXnXnXnXnXnXnX[.% v yX@X% 9 5.6.8.8.&.&.%.7.j.&.&.7.%.&.7.&.%.>.j.j.",
"%.&.8.y.7.7.7.7.&.%.%.%.:.%.%.&.&.%.0 X x hXnXnXnXtXx h &XnXnXnXnXnXnXnXnX$Xh XXtXXXO 9 3.6.6.6.%.&.n.m.n.j.&.z.&.&.&.&.>.z.&.&.",
"&.7.7.7.7.7.j.6.:.%.%.l.&.7.%.:.&.&.0 X x hXnXnXnXvXtX0XhXnXnXnXnXnXnXnXnXgX0XgXhX|.O 7 3.6.6.%.%.v.A.G.m.7.%.7.z.7.:.j.j.&.%.:.",
"y.&.7.7.&.%.6.z.j.&.&.%.&.:.j.:.-.&.7 . }.nXnXnXnXnXnXnXnXnXnXnXnXnXnXnXnXnXnXnXcX}.X 7 5.6.6.6.&.&.7.v.v.7.&.%.7.%.:.%.#.j.&.:.",
"7.y.7.7.%.%.7.j.l.l.j.%.%.j.j.&.&.-.0 @ x cXnXnXnXnXnXnXnXnXnXnXnXnXnXnXnXnXnXnXcX|.o 7 5.j.j.j.6.7.7.7.6.7.9.6.7.6.6.7.6.6.7.6.",
"y.7.y.7.j.7.6.7.:.&.%.:.j.&.&.&.&.&.W 1 d #XjXnXnXnXnXnXnXnXnXcX0X=X*XrXcXnXnXnXnXXX& 0 X.6.j.j.7.7.6.6.7.6.6.6.6.7.6.6.7.%.%.j.",
"-.7.&.$.7.j.7.6.j.j.:.&.j.7.%.&.y.$.$...w d $XvXnXnXnXnXnXnXnXtX$Xz x #XjXnXnXnXvXoX5 ! #.%.j.7.$.8.8.5.9.8.8.7.8.6.8.k.7.6.7.7.",
"y.7.7.7.&.7.%.7.:.l.j.&.&.z.z.&.y.&.%.8.O.r g #XtXnXnXnXnXnXnXjX&X|.XX*XcXnXnXjX4Xs.r ..%.%.j.j.u.y.8.7.7.6.7.7.j.6.6.6.8.7.7.7.",
"y.9.&.y.8.&.6.6.%.%.&.%.j.H.H.&.&.&.&.x.L.t.q i $XcXbXvXvXnXnXnXhXjXjXzXvXbXvX4Xs.q.t.&.7.7.$.m.L.n.7.7.z.y.7.z.7.7.7.&.&.&.&.>.",
"y.$.$.&.7.7.j.j.:.%.%.%.z.U.I.j.$.-.z.D.!.A.^ w e.<X2X2X$X=XhXnXnXnXnXvXpX6X3Xh.w.3.j.7.A.A.$.A.(.P.n.y.&.7.7.7.&.%.7.&.%.&.&.7.",
"y.y.y.y.&.&.j.j.:.%.%.:.z.V.m.z.-.y.y.x.m.n.&.7.9.a.h.OXd. XqXnXnXnXbXpX{.F.S.u.8.#.7.y.D.F.b.F.(.T.D.-.$.%.&.%.%.&.&.&.&.z.z.&.",
"$.m.L.m.7.&.6.%.%.l.&.%.&.#.=.j.y.-.&.$.+.%.j.7.8.u.h.2X@XoXXX&XgXjX5X{.u.&.&.7.&.$.8.7.$.y.D./.I.x.+.$.-.y.&.j.7.&.&.>.n.G.c.@.",
"n.A.A.k.6.7.6.6.6.%.8.j.#.' { 6.7.8.7. .{ +.6.k.v.g.2XcXcX9Xj z qXaX1X_.F.6.6.j.j.n.m.y.`  .x.N.i.o.` &.z.7.%.:.j.j.1.,.c.K.C.1.",
"(.k.{ X.7.k.j.k.6.7.8.6.6.%.5.7.$.7.7.7.6.6.8.u._.7XgXnXnXrXp p *XhX5X2X3X`.S.F.<X3X3Xh.0.+._ Q | o.t.-.y.7.%.%.:.V.U.<.1.K.Q.Q.",
"].S.{ +.7.v.j.6.6.j.j.%.7.j.j.7.7.8.8.7.k.6.8.g.3XzXnXnXnX0Xh h 8XnXvXnXbX6X`.<XpXvXvXXXi &. . .' $.-.&.&.j.&.%.,.V.I.H.Z.R.Y.Y.",
"G.A.y.&.7.j.j.%.%.7.7.6.7.7.7.j.y.7.7.8.6.6.a.g.5XnXnXnXnX0Xh p 8XnXnXnXnXzXpXpXvXnXnXXX= &.z.y.;.-.&.y.<.&.-.&.z.c.K.T.Q.R.Y.E.",
"{ #.6.6.7.7.7.%.6.l.7.j.7.%.&.7.8.7.7.&.%.6.3.w.OXgXbXnXnX0Xj p 9XnXnXcXjXcXnXnXnXzX0Xk 3 7.7.%.&.<.j.&.&.&.y.y.$. .$.F.)./.i.;.",
"_ =.7.z.z.7.%.%.7.j.j.6.7.7.7.&.&.7.7.7.j.6.o.2.g oXtXnXnXrXz j 9XnXnXrX$X*XnXnXnX&Xp 5 t 7.&.7.%.j.7.7.&.&.7.y.y. . .y.F.B.;./ ",
"&.j.7.&.%.%.&.7.%.j.:.%.&.j.&.%.l.7.&.7.7.%.O.~ d x &X0X0X&X|.XXrXnXnX=Xj x 4XaXpXd.# w 5.7.j.7.j.7.6.7.8.&.9.t.t.t.5.../ } ..t.",
"7.j.&.&.&.&.&.&.:.%.7.j.:.%.%.j.7.l.%.j.j.&.! r d.#XoXj p }.#XtXcXnXnX=Xf i s.h.[.2.W X.&.n.G.m.7.6.8.8.8.9.t.y.y.i.9.3.[ ..3.t.",
"&.&.7.&.&.7.&.&.&.&.7.&.j.&.j.^ 4.p.^.p.8.&.! 5 oXjX#Xp a }.rXnXnXnXnX4Xr.2.q.p.p.3.6.j.6.k.G.L.7.&.7.y.z.i.;.;.y.y.-.-.&.%.7.6.",
"%.%.&.&.&.&.&.&.>.7.z.&.%.%.7.4 g +X5X2Xg.7.^ 6 XXcXgX*X*X0XvXnXnXnXnX5Xf.t.5.i.F.8.j.6.%.7.z.j.6.8.7.7.A.P.b.;.;.y.z.&.&.j.j.7.",
"&.&.&.&.&.&.j.&.&.7.j.&.j.%.&.3 6 }.&XrX3Xh.0.* }.cXnXnXnXnXnXnXnXnXnXwX<Xp.8.n.G.j.7.7.7.&.&.%.y.x.x.-.N.E.C.1.-.1.1.,.,.,.:.:.",
"7.z.>.z.z.&.&.&.&.z.j.7.j.&.&.W 4 & j 9XaX2Xd & d.nXnXnXnXnXnXnXnXnXnXvXaX<Xp.u.k.%.7.7.7.7.7.7.&.D.H.b.N.T.Y.J.1.B.Z.1.,.,.,.,.",
"z.&.7.S.D.y.&.7.H.A.8.#.7.j.8.#.W < 6 x oXx & @ }.nXnXcX0X&X#X&X#X0XbXnXnXwX<X`.`.^.t.$.$.7.y.y.z.J.T.J.J.R.R.T.C.Y.Y.x.M.V.j.,.",
"y.7.7.z.m.n.v.y.!.P.7.*.&.7.7.%.%.! 3 @ & & X *  XnXnXtXz & & & * z tXnXnXvXaXsXsX1Xg.$.&.8.7.y.z.x.Z.(.E.B.E.R.Q.K.N.<.M.U.n.,.",
"7.7.7.{ $.H.m.y.L.P.8.&.&.7.&.7.:.*.W < $   = k =XnXbXwX5 < < < < 5 [.wXnXnXnXnXnXrX+Xp.t.y.y.t.9.| t.P.B.;.B.).E.i.X.o.u.u.v.8.",
"7.&.7.{ &.(.L.y.H.I.z.7.7.%.7.7.j.6.%.| 8 $ k rXcXnXnX8X0./ [ ....^ ~ OXaXnXnXnXnXvXaX[.0.t.$.y.t. . .i.| Q ;.i.y.*.| $.u.8.8.8.",
"5.j.y.5.v.L.D.y.D.D.x.y.&.%.-.&.l.k.6.9.w # |.nXnXnXnXpXp.j.7.7.8.#.( w.OXwXnXnXnXnXcXXX5 %.%.j.7.y.#._ Q ] Q _ _  .$.y.y.7.y.9.",
"7.8.y.7.5.#.$.$.+.$.&.7.&.&.j.&.6.l.l.6.8 @ |.nXnXnXbXjX`.j.j.7.&.%.6.4.w.OXgXnXnXnXnX}.@ 6.7.7.z.7.7.#.#.o.+.X.$.$.t.y.7.t.t.y.",
"7.7.8.7.*.{  .y.' ' $.y.7.7.j.7.6.6.6.*.2 O .XnXnXnXnXzX<X,.7.y.7.j.j.7.5.e.OXwXnXnXnXx + 7.j.j.7.&.%.7.8.7.y.&.y.7.&.&.&.8.8.8.",
"&.&.&.&.$.$.7.y.$.*.y.z.&.7.7.7.l.l.6.%.7 X x gXcXzXcXpX`.&.%.-.8.j.7.&.j.2.d d.gXhXgXz @ 6.%.6.&.&.7.7.7.7.8.y.y.7.$.-.&.7.6.8.",
"%.&.&.&.&.&.&.-.y.$.8.7.5.7.9.7.j.%.:.%.0 X s c x x x d.g.m.&.$.&.<.&.7.n.u.( d z x x d e :.j.j.%.%.:.j.&.%.7.8.j.&.&.:.j.7.6.6.",
"%.%.&.>.&.&.&.<.y.7.7.8.8.8.8.8.:.j.%.%.W < X o o o o # ( D.z.-.&.7.&.z.H.m.7.t @ o @ e 4.l.:.%.:.&.&.7.7.7.7.7.&.&.%.j.j.7.6.l.",
",.,.>.>.@.@.&.z.&.y.7.S.G.8.9.8.j.&.,.%.:.>.l.&.7.6.6.#.o.y.N.b.%.&.7.&.x.n.&.&.&.7.7.%.:.l.l.l.&.%.@.&.7.7.&.&.&.&.&.%.%.:.j.6.",
"M.M.>.@.@.>.>.*.&.&.9.L.~.S.8.8.&.j.j.%.:.:.:.6.6.*.y.5.' x.E.m.<.n.z.%.%.j.j.z.j.&.:.%.:.l.:.:.&.@.:.>.7.&.&.&.&.:.:.%.j.j.l.:.",
"K.C.-.@.@.@.<.-.-.$.&.H.~.S.7.8.&.%.7.z.#.%.j.%.6.7.6.5.z.F.H.N.z.I.n.&.<.&.&.z.y.&.7.j.%.:.l.l.-.-.y.-.y.7.&.&.z.&.y.&.&.j.&.%.",
"Q.K.1.-.<.c.c.>.&.-.-.-.&.7.9.7.&.8.z.j.:.%.6.6.6.8.7.8.8.y.$.$.V.I.H.&.&.&.&.%.&.&.&.j.%.:.:.%.&.b.m.y.$.y.N.m.-.&.&.&.:.j.%.7.",
"T.]./.D.N.I.N.-.@.-.&.+._ +.8.6.7.j.7.7.z.j.7.v.8.9.9.8.8.+.'  .n.U.V.>.&.&.y.&.&.-.&.&.l.j.l.%.y.L.L.v.7.b.F.D.-.$.-.&.>.j.&.%.",
"(.(.T.P.K.T.B.;.-.-.&.%.+.7.j.8.7.7.j.m.H.n.7.6.6.8.7.7.6.5.#.&.j.j.j.:.&.&.-.z.&.y.&.&.l.j.l.l.-.D.H.v.S.D.y.X.&.-.y.-.7.&.&.&.",
"F.F./.).W.B.x.y.y.-.%.&.j.j.&.7.&.&.c.m.z.y.&.9.9.k.8.6.j.j.7.:.:.&.&.&.&.-.y.y.&.y.&.7.l.6.6.l.v.L.L.u.L.~.9. .$.&.-.&.%.&.&.&.",
") i.'.).F...o.-.-.-.&.%.7.7.%.j.&.j.H.z.' =.$.y.k.8.7.7.z.j.%.6.:.:.:.&.&.-.y.-.y.&.7.y.%.%.%.6.v.L.L.y.S.L.y.y.$.y.-.y.-.%.&.y.",
"^ 4.a.a.t.O.o.y.y.y.z.&.6.7.6.j.*.j.I.C.*.*.$.-.8.9.7.8.:.%.%.&.&.:.:.%.7.-.&.x.D.y.&.7.6.%.6.%.7.u.9.9.9.9.y.u.;.&.y.N.m.&.&.&.",
"W ^ / ^ / t.i.i.$.$.j.z.7.j.j.6.>.>.H.H.n.c.&.y.$.9.7.7.#.%.:.:.:.%.&.&.7.&.&.D.I.y.%.7.j.l.j.6.5.{ } 9.X.} 9.9.-.-.z.I.I.<.%.%."
};
