/* XPM */
static char *result[] = {
/* columns rows colors chars-per-pixel */
"22 32 74 1 ",
"  c black",
". c #010000",
"X c #000100",
"o c #010101",
"O c #030000",
"+ c #000300",
"@ c #000002",
"# c #000102",
"$ c #000303",
"% c #020202",
"& c gray1",
"* c #040000",
"= c #060000",
"- c #040203",
"; c #000403",
": c #000603",
"> c #000004",
", c #000104",
"< c #030207",
"1 c #010506",
"2 c #040404",
"3 c gray2",
"4 c #060606",
"5 c #070707",
"6 c #080000",
"7 c #0E0000",
"8 c #0F0000",
"9 c #0E0204",
"0 c #060709",
"q c #090909",
"w c #110000",
"e c #120000",
"r c #140000",
"t c #160000",
"y c #170000",
"u c #140200",
"i c #1B0000",
"p c #210000",
"a c #3B0000",
"s c #3C0000",
"d c #323232",
"f c #353535",
"g c gray24",
"h c #3F3F3F",
"j c #791F28",
"k c #6A2A2A",
"l c #75262B",
"z c #7E272D",
"x c #6B3130",
"c c gray25",
"v c #414141",
"b c #585858",
"n c #5D5D5D",
"m c gray38",
"M c #696B6D",
"N c #6A6A6C",
"B c #87141B",
"V c #861D21",
"C c #8B1E23",
"Z c #8A1F27",
"A c #8E272B",
"S c #83282F",
"D c #942327",
"F c #932228",
"G c #96222B",
"H c #90252F",
"J c #BE6060",
"K c #C0615F",
"L c #C46062",
"P c #C26464",
"I c #C46465",
"U c #CA6263",
"Y c #C96768",
"T c None",
/* pixels */
"TTTTTTTTTTTTTTTTTTTTTT",
"TTTTTTTTTTTTTTTTTTTTTT",
"TTTTTTTTTTTTTTTTTTTTTT",
"TTTTT69TTTTTTX TTTTTTT",
"TTTT TT;TTTT,TT<TTTTTT",
"TTTT0TTT:+$1TTTT@TTTTT",
"TTT>TTTTTTTTTTTT-TTTTT",
"TTTOTTTTTTTTTTTT=TTTTT",
"TTTuTTTTTTTTTTTT7TTTTT",
"TTTTpkSZBDUKPJAleTTTTT",
"TTTTixjHGFVYILCzrTTTTT",
"TTTTwTTTsTTTTTaT8TTTTT",
"TTTT*TTTtTTTTTyT=TTTTT",
"TTTT#TTTTTTTTTTT.TTTTT",
"TTTT.TTTTTTTTTTT TTTTT",
"TTTTT.TTTTTMNTTT TTTTT",
"TTTTTT TTTTTTTT TTTTTT",
"TTTTTTTovfTTT %&TTTTTT",
"TTTTTTTqTThT 2T  TTTTT",
"TTTTTT5TTTfTTT TT TTTT",
"TTTTTT TTTdTTTTTT TTTT",
"TTTT%&onTTmTTbTT TTTTT",
"TTT TT%TcgTTT%4 TTTTTT",
"TTTT TT%TTTTTTToTTTTTT",
"TTTTT oo%TT oTTT TTTTT",
"TTTTTTT TTT3T TTToTTTT",
"TTTTTT TTT%TTT TT TTTT",
"TTTTTT5TTToTTTqTT TTTT",
"TTTTTT   3TTTTT o TTTT",
"TTTTTTTTTTTTTTTTTTTTTT",
"TTTTTTTTTTTTTTTTTTTTTT",
"TTTTTTTTTTTTTTTTTTTTTT"
};
