/* XPM */
static char *result[] = {
/* columns rows colors chars-per-pixel */
"22 32 39 1 ",
"  c black",
". c #010101",
"X c gray1",
"o c gray2",
"O c #0B0B0B",
"+ c #101010",
"@ c #131313",
"# c gray9",
"$ c #181818",
"% c gray11",
"& c #1D1D1D",
"* c gray13",
"= c gray16",
"- c #2C2C2C",
"; c gray18",
": c #2F2F2F",
"> c #313131",
", c #323232",
"< c #353535",
"1 c gray21",
"2 c #373737",
"3 c #383636",
"4 c gray23",
"5 c #3F3F3F",
"6 c gray25",
"7 c #414141",
"8 c #585858",
"9 c gray42",
"0 c gray43",
"q c #D80000",
"w c #FF4949",
"e c #898989",
"r c gray77",
"t c #C5C5C5",
"y c gray80",
"u c #E7E7E7",
"i c gray96",
"p c white",
"a c None",
/* pixels */
"aaaaaaaaaaaaaaaaaaaaaa",
"aaaaaaaaaaaaaaaaaaaaaa",
"aaaaa=aaaaaaa5Xaaaaaaa",
"aaaa3pp1aaaa%pp aaaaaa",
"aaaa ppp#.. pppp aaaaa",
"aaa$prrpppppprrp aaaaa",
"aaa prrpppppprrp aaaaa",
"aaa.pppppppppppp aaaaa",
"aaaa qqqqqwwwwqq aaaaa",
"aaaa qqqqqqwwwqq aaaaa",
"aaaa ppp ppppp p aaaaa",
"aaaa ppp ppppp p aaaaa",
"aaaa ppppppppppp aaaaa",
"aaaa ppppppppppp aaaaa",
"aaaaa+ppppp99ppp>aaaaa",
"aaaaaaopppppppp0aaaaaa",
"aaaaaaaa44pppaaaaaaaaa",
"aaaaaaaapp4peaaaaaaaaa",
"aaaaaa7ppp2pppappp@aaa",
"aaaaaaOppp2ppppppp aaa",
"aaaaaaa8pp8pp8ppp aaaa",
"aaaaaa i55ppp,-=;aaaaa",
"aa*tua ppppppaaaaaaaaa",
"aaa ry pppppppaaaaaaaa",
"aaaa  a pp :pppaaaaaaa",
"aaaaaa pppaa6pppaaaaaa",
"aaaaaa pp aaa<pp&aaaaa",
"aaaaaa ppaaaaapp aaaaa",
"aaaaaa   aaaaa  aaaaaa",
"aaaaaaaaaaaaaaaaaaaaaa",
"aaaaaaaaaaaaaaaaaaaaaa",
"aaaaaaaaaaaaaaaaaaaaaa"
};
