/* XPM */
static char *result[] = {
/* columns rows colors chars-per-pixel */
"22 32 36 1 ",
"  c black",
". c #010101",
"X c #020202",
"o c gray1",
"O c #060606",
"+ c #0E0E0E",
"@ c #111111",
"# c #191919",
"$ c gray10",
"% c #1B1B1B",
"& c gray11",
"* c #252525",
"= c gray15",
"- c gray21",
"; c #373737",
": c gray22",
"> c #393939",
", c #3A3A3A",
"< c gray23",
"1 c #3C3C3C",
"2 c gray24",
"3 c #3F3F3F",
"4 c #434343",
"5 c #4C4C4C",
"6 c gray31",
"7 c gray33",
"8 c #585858",
"9 c #5F5F5F",
"0 c gray42",
"q c gray43",
"w c #D80000",
"e c #FF4949",
"r c gray77",
"t c gray96",
"y c white",
"u c None",
/* pixels */
"uuuuuuuuuuuuuuuuuuuuuu",
"uuuuuuuuuuuuuuuuuuuuuu",
"uuuuuuuuuuuuuuuuuuuuuu",
"uuuuu:uuuuuuu,Xuuuuuuu",
"uuuu>yy1uuuu*yy uuuuuu",
"uuuu yyy$ . yyyy uuuuu",
"uuu#yrryyyyyyrry uuuuu",
"uuu.yrryyyyyyrry uuuuu",
"uuu yyyyyyyyyyyy uuuuu",
"uuuu wwwwweeeeww uuuuu",
"uuuu wwwwwweeeww uuuuu",
"uuuu yyy yyyyy y uuuuu",
"uuuu yyy yyyyy y uuuuu",
"uuuu yyyyyyyyyyy uuuuu",
"uuuu yyyyyyyyyyy uuuuu",
"uuuuuXyyyyy00yyy&uuuuu",
"uuuuuu yyyyyyyy7uuuuuu",
"uuuuuuuu<<yyyuuuuuuuuu",
"uuuuuuuuyy<y-uuuuuuuuu",
"uuuuuu<yyy;yyyuyyuuuuu",
"uuuuuuXyyy;yyyyyyquuuu",
"uuuuuuo8yy8yy8yy2uuuuu",
"uuu rr t33yyy+%8uuuuuu",
"uuuu rr yyyyyyyuuuuuuu",
"uuuuu  u yy@4yyy9uuuuu",
"uuuuuuuuyyyuu6yyy5uuuu",
"uuuuuuOyyy uuu=yy uuuu",
"uuuuuu yyyuuuuuyy uuuu",
"uuuuuu    uuuuu  uuuuu",
"uuuuuuuuuuuuuuuuuuuuuu",
"uuuuuuuuuuuuuuuuuuuuuu",
"uuuuuuuuuuuuuuuuuuuuuu"
};
