/* XPM */
static char *result[] = {
/* columns rows colors chars-per-pixel */
"22 32 37 1 ",
"  c black",
". c #010101",
"X c #020202",
"o c gray1",
"O c #0B0B0B",
"+ c #0C0C0C",
"@ c gray6",
"# c #101010",
"$ c #181818",
"% c #191919",
"& c #1E1E1E",
"* c gray13",
"= c #232323",
"- c gray18",
"; c #343434",
": c #373737",
"> c gray22",
", c #393939",
"< c gray23",
"1 c gray24",
"2 c #3F3F3F",
"3 c #444444",
"4 c #464646",
"5 c gray31",
"6 c #555555",
"7 c #585858",
"8 c gray36",
"9 c #646464",
"0 c DimGray",
"q c gray42",
"w c #D80000",
"e c #FF4949",
"r c gray77",
"t c #DDDDDD",
"y c gray96",
"u c white",
"i c None",
/* pixels */
"iiiiiiiiiiiiiiiiiiiiii",
"iiiiiiiiiiiiiiiiiiiiii",
"iiiiii3iiiiiii>Xiiiiii",
"iiiiiiuu:iiii;uu iiiii",
"iiiii uuu@ ..uuuu iiii",
"iiii%urruuuuuurru iiii",
"iiii.urruuuuuurru iiii",
"iiii.uuuuuuuuuuuu iiii",
"iiiii wwwwweeeeww iiii",
"iiiii wwwwwweeeww iiii",
"iiiii uuu uuuuu u iiii",
"iiiii uuu uuuuu u iiii",
"iiiii uuuuuuuuuuu iiii",
"iiiii uuuuuuuuuuu iiii",
"iiiiii$uuuuuqquuu=iiii",
"iiiiiii+uuuuuuuu6iiiii",
"iiiiiiiii<<uuuiiiiiiii",
"iiiiiiiiiuu<u0iiiiiiii",
"iiiiiii-uuu:uuuiuuu>ii",
"iiiiiiiOuuu:uuuuuuu ii",
"iiiiiiii7uu7uu7uuu iii",
"iiiiiii#y22uuu#>14iiii",
"iii&rtiouuuuuu9iiiiiii",
"iiii rr uuuuuuuiiiiiii",
"iiiii  * uu ,uuuiiiiii",
"iiiiiii uuuii5uuu8iiii",
"iiiiiii uu iii;uu iiii",
"iiiiiii uuiiiiiuu iiii",
"iiiiiiiX  iiiii  iiiii",
"iiiiiiiiiiiiiiiiiiiiii",
"iiiiiiiiiiiiiiiiiiiiii",
"iiiiiiiiiiiiiiiiiiiiii"
};
