/* XPM */
static char *result[] = {
/* columns rows colors chars-per-pixel */
"22 32 78 1 ",
"  c black",
". c #010000",
"X c #000100",
"o c #010101",
"O c #030000",
"+ c #000200",
"@ c #020200",
"# c #000002",
"$ c #010002",
"% c #000102",
"& c #000202",
"* c #020202",
"= c gray1",
"- c #040000",
"; c #040001",
": c #050001",
"> c #050200",
", c #060203",
"< c #000400",
"1 c #030502",
"2 c #000703",
"3 c #010004",
"4 c #000105",
"5 c #000204",
"6 c #020204",
"7 c #050004",
"8 c #040404",
"9 c gray2",
"0 c #060606",
"q c #070707",
"w c #080000",
"e c #090000",
"r c #0A0000",
"t c #040A06",
"y c gray3",
"u c #1D0000",
"i c #190409",
"p c #210000",
"a c #220000",
"s c #250000",
"d c #270000",
"f c #323232",
"g c gray22",
"h c #3B3B3C",
"j c #3E3E3E",
"k c #3F3F3F",
"l c #792326",
"z c #7E292E",
"x c #3F3F41",
"c c #585858",
"v c gray35",
"b c gray36",
"n c #6E6E6C",
"m c #6E6F6E",
"M c #931715",
"N c #AB0C08",
"B c #AF0C1D",
"V c #B40610",
"C c #BA0913",
"Z c #B1091A",
"A c #BE0D1D",
"S c #AB1312",
"D c #BA1D18",
"F c #9E211F",
"G c #A01C2A",
"H c #A8202E",
"J c #C0091B",
"K c #D24D41",
"L c #DE584D",
"P c #E1544B",
"I c #E0554E",
"U c #EB5252",
"Y c #E95F54",
"T c #EB5F59",
"R c #FBFBFB",
"E c #FDFDFD",
"W c #FEFEFE",
"Q c None",
/* pixels */
"QQQQQQQQQQQQQQQQQQQQQQ",
"QQQQQQQQQQQQQQQQQQQQQQ",
"QQQQQ,OQQQQQQ&%QQQQQQQ",
"QQQQ@QQ.QQQQ5QQ4QQQQQQ",
"QQQQ+QQQ1+<2QQQQ$QQQQQ",
"QQQtQQQQQQQQQQQQ7QQQQQ",
"QQQXQQQQQQQQQQQQ#QQQQQ",
"QQQ-QQQQQQQQQQQQrQQQQQ",
"QQQQslHZJCUILPNFuQQQQQ",
"QQQQazGBAVSTKYDMpQQQQQ",
"QQQQiQQQdQQQQQaQwQQQQQ",
"QQQQ:QQQ+QQQQQ5Q#QQQQQ",
"QQQQ-QQQQQQQQQQQXQQQQQ",
"QQQQ>QQQQQQQQQQQ=QQQQQ",
"QQQQQ6QQQQQmnQQQOQQQQQ",
"QQQQQQ3QQQQQQQQeQQQQQQ",
"QQQQQQQ#hxQQQ.;OQQQQQQ",
"QQQQQQQ=QQjQ  Q9=QQQQQ",
"QQQQQQ8QQQfQQQ QQ QQQQ",
"QQQQQQ QQQgQQQQQQ QQQQ",
"QQQQQQ bQQcQQvQQqQQQQQ",
"QQQ 9Q=QjkQQQ 9oQQQQQQ",
"QQyQQ  QQQQQQ9QQQQQQQQ",
"QQQ QQoQQQQQQQooQQQQQQ",
"QQQQ8o QQ   QQQQ QQQQQ",
"QQQQQ9QQQ8QQ QQQQ QQQQ",
"QQQQQ QQQ QQQ QQW=QQQQ",
"QQQQQoQQQ QQQQ RE0QQQQ",
"QQQQQQ    QQQQQ* QQQQQ",
"QQQQQQQQQQQQQQQQQQQQQQ",
"QQQQQQQQQQQQQQQQQQQQQQ",
"QQQQQQQQQQQQQQQQQQQQQQ"
};
