/* XPM */
static char *result[] = {
/* columns rows colors chars-per-pixel */
"22 32 49 1 ",
"  c black",
". c #010101",
"X c #020202",
"o c gray1",
"O c #070707",
"+ c #090909",
"@ c #0B0B0B",
"# c gray5",
"$ c gray6",
"% c gray7",
"& c #131313",
"* c #181818",
"= c #191919",
"- c #1B1B1B",
"; c gray11",
": c gray13",
"> c #272727",
", c #2D2D2D",
"< c gray18",
"1 c #2F2F2F",
"2 c #353535",
"3 c gray21",
"4 c #373737",
"5 c gray22",
"6 c gray23",
"7 c #3C3C3C",
"8 c gray24",
"9 c #3F3F3F",
"0 c #434343",
"q c gray27",
"w c #484848",
"e c #494949",
"r c #656565",
"t c DimGray",
"y c gray42",
"u c #797979",
"i c #D80000",
"p c #FF4949",
"a c gray77",
"s c #CECECE",
"d c #D2D2D2",
"f c #E7E7E7",
"g c #F1F1F1",
"h c gray96",
"j c gray99",
"k c #FDFDFD",
"l c #FEFEFE",
"z c white",
"x c None",
/* pixels */
"xxxxxxxxxxxxxxxxxxxxxx",
"xxxxxxxxxxxxxxxxxxxxxx",
"xxxxxxqxxxxxxx5Xxxxxxx",
"xxxxxxzz7xxxx1zz xxxxx",
"xxxxx zzz$ ..zzzz xxxx",
"xxxx-zaazzzzzzaaz xxxx",
"xxxx.zaazzzzzzaaz xxxx",
"xxxx.zzzzzzzzzzzz xxxx",
"xxxxx iiiiippppii xxxx",
"xxxxx iiiiiipppii xxxx",
"xxxxx zzz zzzzz z xxxx",
"xxxxx zzz zzzzz z xxxx",
"xxxxx zzzzzzzzzzz xxxx",
"xxxxx zzzzzzzzzzz xxxx",
"xxxxxx=zzzzzyyzzzOxxxx",
"xxxxxxx,zzzzzzzz9xxxxx",
"xxxxxxxxxzzzzz3xxxxxxx",
"xxxxxxxxxg66z xxxxxxxx",
"xxxxxxxxz2zk0zexxzz;xx",
"xxxxxxxxzzzj4zzzzzz xx",
"xxxxxxx%hzl0hzzzz xxxx",
"xxxxxxxxt98hzz ><xxxxx",
"xxxxxxx-zzzzzzwxxxxxxx",
"xxxxxxxxzzzzzzexxxxxxx",
"xxxdxxx@zzzzzzrxxxxxxx",
"xxx asf#zzz zzzxxxxxxx",
"xxxx+@*@zz x zzuxxxxxx",
"xxxxxxx zzxxx&zzxxxxxx",
"xxxxxxxzz xxxxzz:xxxxx",
"xxxxxxozzxxxxxzz xxxxx",
"xxxxxxx  xxxxx  xxxxxx",
"xxxxxxxxxxxxxxxxxxxxxx"
};
