/* XPM */
static char *result[] = {
/* columns rows colors chars-per-pixel */
"22 32 66 1 ",
"  c black",
". c #010000",
"X c #000100",
"o c #010101",
"O c #030000",
"+ c #000200",
"@ c #000300",
"# c #030200",
"$ c #000002",
"% c #020202",
"& c gray1",
"* c #040000",
"= c #060000",
"- c #070000",
"; c #050402",
": c #010004",
"> c #030305",
", c #040404",
"< c gray2",
"1 c #060405",
"2 c #060604",
"3 c #060606",
"4 c #080202",
"5 c #0F0000",
"6 c #080806",
"7 c #07050A",
"8 c #110000",
"9 c #120000",
"0 c #140000",
"q c #150000",
"w c #180000",
"e c #1A0000",
"r c #3D0000",
"t c gray19",
"y c #313131",
"u c gray21",
"i c #3A3A3B",
"p c #3B3A3F",
"a c #3E3E3E",
"s c #400000",
"d c #662A2C",
"f c #7E2A2A",
"g c #6A2E30",
"h c #444444",
"j c #535353",
"k c #5A5A5A",
"l c #626262",
"z c #8F161D",
"x c #8E1824",
"c c #971E25",
"v c #991B26",
"b c #951F2B",
"n c #9B1D28",
"m c #8A2020",
"M c #882220",
"N c #8C2222",
"B c #82212A",
"V c #8B2A33",
"C c #B8615A",
"Z c #BC615D",
"A c #BC625D",
"S c #BD625E",
"D c #BF6860",
"F c #C35D5A",
"G c #C46963",
"H c None",
/* pixels */
"HHHHHHHHHHHHHHHHHHHHHH",
"HHHHH::HHHHHH*-HHHHHHH",
"HHHHOHH2HHHHoHH HHHHHH",
"HHHHOHHH@+XXHHHHoHHHHH",
"HHH HHHHHHHHHHHH$HHHHH",
"HHH#HHHHHHHHHHHH=HHHHH",
"HHH=HHHHHHHHHHHH5HHHHH",
"HHHHwdVxvcFGCANfqHHHHH",
"HHHHegBbnzMSDZmf0HHHHH",
"HHHH8HHHsHHHHHrH9HHHHH",
"HHHH4HHH0HHHHH0H=HHHHH",
"HHHH6HHHHHHHHHHH>HHHHH",
"HHHHOHHHHHHHHHHH%HHHHH",
"HHHHHOHHHHHHHHHH HHHHH",
"HHHHHH7HHHHHHHH-HHHHHH",
"HHHHHHH:piHHH*-=HHHHHH",
"HHHHHHH$HHuHo;H.1HHHHH",
"HHHHHH&HHHaHHHoHH&HHHH",
"HHHHHH%HHHyHHHHHH HHHH",
"HHHHHH kHHjHHlHH HHHHH",
"HHHH ooHhtHHHH ,oHHHHH",
"HHH HH oHHHHHHHH<HHHHH",
"HHHH&HHoHHHHHHHHH HHHH",
"HHHHH&  HHH% %oHH,HHHH",
"HHHHHHH HH HHH HH HHHH",
"HHHHHHH&HH HHHoHH HHHH",
"HHHHHHH HH HHHH%oHHHHH",
"HHHHHHH&HH HHHHHHHHHHH",
"HHHHHHH%HH3HHHHHHHHHHH",
"HHHHHHHHHHoHHHHHHHHHHH",
"HHHHHHHH3 HHHHHHHHHHHH",
"HHHHHHHHHHHHHHHHHHHHHH"
};
