/* XPM */
static char *result[] = {
/* columns rows colors chars-per-pixel */
"64 64 232 2 ",
"   c #100D04",
".  c #0D160B",
"X  c #0F1D10",
"o  c #141C14",
"O  c #141B18",
"+  c #0F0E09",
"@  c #182519",
"#  c #19391A",
"$  c #1D2725",
"%  c #232A24",
"&  c #273828",
"*  c #353C35",
"=  c #571010",
"-  c #6A0000",
";  c #532121",
":  c #742C2C",
">  c #1B451D",
",  c #1B5A1E",
"<  c #1E5A22",
"1  c #1F4D21",
"2  c #274528",
"3  c #375639",
"4  c #334B34",
"5  c #1E6422",
"6  c #1E6824",
"7  c #226525",
"8  c #236C24",
"9  c #2A682C",
"0  c #247426",
"q  c #28792B",
"w  c #2D6731",
"e  c #38673A",
"r  c #37753A",
"t  c #2C7530",
"y  c #3F7641",
"u  c #3C4848",
"i  c #4C4D4C",
"p  c #4A554A",
"a  c #5D5E5D",
"s  c #535353",
"d  c #465252",
"f  c #755D5D",
"g  c #446845",
"h  c #536754",
"j  c #5D755E",
"k  c #4A754C",
"l  c #6C6D6C",
"z  c #656665",
"x  c #657866",
"c  c #737473",
"v  c #7B7C7B",
"b  c #717972",
"n  c #667373",
"m  c #5E6B6B",
"M  c #AF1010",
"N  c #C90000",
"B  c #D50000",
"V  c #DB0000",
"C  c #C71D1D",
"Z  c #E50000",
"A  c #EA0303",
"S  c #F01818",
"D  c #D03636",
"F  c #FF3B3B",
"G  c #FF3636",
"H  c #F72828",
"J  c #925454",
"K  c #8A7373",
"L  c #A37474",
"P  c #DA4E4E",
"I  c #E54545",
"U  c #E85555",
"Y  c #F55757",
"T  c #FE7B7B",
"R  c #FA7676",
"E  c #F76B6B",
"W  c #28872B",
"Q  c #279D2A",
"!  c #2C8B31",
"~  c #368939",
"^  c #2E9F31",
"/  c #2C9433",
"(  c #359C3B",
")  c #359539",
"_  c #26A52A",
"`  c #2BA42D",
"'  c #2BAA2E",
"]  c #20A123",
"[  c #2DA431",
"{  c #2DAC32",
"}  c #26A230",
"|  c #31A435",
" . c #33AC34",
".. c #34AC3A",
"X. c #39AC3B",
"o. c #38A53A",
"O. c #33B235",
"+. c #3BBC37",
"@. c #35B43B",
"#. c #3AB53C",
"$. c #36BB3D",
"%. c #3ABC3E",
"&. c #38BB35",
"*. c #2FB133",
"=. c #41BD3C",
"-. c #41B93A",
";. c #3CC13D",
":. c #37C13A",
">. c #43C23E",
",. c #48C53D",
"<. c #3E8243",
"1. c #3F9344",
"2. c #3DA442",
"3. c #3BAF43",
"4. c #37B741",
"5. c #3BB542",
"6. c #37BD42",
"7. c #3CBD42",
"8. c #3EBD49",
"9. c #3FB749",
"0. c #46884A",
"q. c #459948",
"w. c #4D8C51",
"e. c #539856",
"r. c #5B815D",
"t. c #43A746",
"y. c #42B544",
"u. c #41BD43",
"i. c #42BD4A",
"p. c #49B949",
"a. c #57BE5C",
"s. c #4EAC52",
"d. c #679669",
"f. c #748475",
"g. c #79957A",
"h. c #678A6A",
"j. c #6EB171",
"k. c #3CC143",
"l. c #3EC149",
"z. c #36C142",
"x. c #42C244",
"c. c #49C546",
"v. c #4BCA44",
"b. c #44C34A",
"n. c #4BC44B",
"m. c #46C94B",
"M. c #4BCB4D",
"N. c #42C841",
"B. c #52CE4C",
"V. c #53C94B",
"C. c #4DD14D",
"Z. c #54D24C",
"A. c #58D14E",
"S. c #4BC452",
"D. c #4CCC52",
"F. c #49CA53",
"G. c #53CC54",
"H. c #56C957",
"J. c #4FD255",
"K. c #53D355",
"L. c #5BD453",
"P. c #5CD955",
"I. c #55D35A",
"U. c #5AD45A",
"Y. c #5CDA5C",
"T. c #56DA5A",
"R. c #62DA56",
"E. c #63DC5B",
"W. c #69DE5D",
"Q. c #61D556",
"!. c #60CE5B",
"~. c #67E25D",
"^. c #5EC562",
"/. c #5DDC61",
"(. c #5CD763",
"). c #64D562",
"_. c #64DD63",
"`. c #6BDD67",
"'. c #71C975",
"]. c #66E367",
"[. c #7C8482",
"{. c #7ED382",
"}. c #858585",
"|. c #858A85",
" X c #8B8C8C",
".X c #828C8C",
"XX c #869787",
"oX c #939493",
"OX c #9D9D9D",
"+X c #929B96",
"@X c #8A9494",
"#X c #86A688",
"$X c #9FBBA1",
"%X c #9EA4A4",
"&X c #A8A8A8",
"*X c #A5B5A6",
"=X c #B2B2B2",
"-X c #BCBCBC",
";X c #B7BDB8",
":X c #FF8787",
">X c #D3A2A2",
",X c #E6B7B7",
"<X c #8ACF8D",
"1X c #B8C6B9",
"2X c #AECFAF",
"3X c #B1E2B3",
"4X c #C4C4C4",
"5X c #CBCBCB",
"6X c #C3CDC9",
"7X c #CCD5CC",
"8X c #D3D3D3",
"9X c #D2DDDD",
"0X c #DCDDDC",
"qX c #D5DAD5",
"wX c #CFD8D8",
"eX c #F7C4C4",
"rX c #FBD3D3",
"tX c #FFDDDD",
"yX c #F6D2D2",
"uX c #E9CECE",
"iX c #D8E4D8",
"pX c #CAE5CB",
"aX c #E3E4E3",
"sX c #EBEBEB",
"dX c #E6ECE6",
"fX c #FFE1E1",
"gX c #ECF6EC",
"hX c #EBF7F7",
"jX c #F3F4F4",
"kX c #F4FAF5",
"lX c #F2FDFD",
"zX c #FEFEFE",
/* pixels */
"$.7.u.%.%.x.;.$.$.=.k.x.k.%.%.%.k.z.7.k.z.7.6.%.$.k.6.b.(.K.u.#.4.i.7.b.(.J.6.6.z.7.:.z.$.k.:.#.%.>.%.%.=.%.=.#.i.u.7.5.8.8.7.6.",
"%.%.%.%.%.u.7.%.%.7.k.x.m.x.%.%.6.7.k.k.6.$.$.7.7.k.8.7.x.n.G.b.7.8.7.7.F.m.6.6.k.%.k.$.%.$.%.N.c.>.+.=.=.#.5.7.u.u.u.u.7.7.9.7.",
"x.7.%.>.x.%.%.%.7.%.%.m.K.m.$.%.6.$.k.k.$.$.6.6.7.7.8.@.[ 8.I.n.x.>.=.%.%.x.k.;.;.%.+.;.,.;.=.Z.R.,.=.=.,.,.-.+.%.=.>.;.%.%.6.:.",
"K.m.%.%.%.%.%.x.%.%.%.K.Y.M.$.7.6.$.$.k.$.k.k.6.7.%.7.#.#.D.(.F.x.M.c.%.+.%.;.:.+.+.+.>.C.v.=.v.~.P.,.>.v.Z.,.%.%.-.%.x.;.%.7.k.",
"].K.u.$.$.%.%.%.%.x.k.x.M.x.%.k.z.$.6.$.6.k.k.$.%.$.%.7.u.m.D.c.c.Y.K.%.%.+.=.+.+.-.-.,.L.L.V.V.R.~.Q.,.Q.R.c.=.%.%.$.%.%.%.%.;.",
"/.K.x.%.%.x.7.%.%.x.;.O.*.$.%.7.k.k.7.6.k.k.6.k.7.k.%.7.7. .{ O.c.E.B.%.-.%.+.=.%.-.=.=.V.R.E.E.R.~.R.A.R.L.,.%.>.k.:.6.%.%.7.:.",
"k.x.;.%.x.D.m.%.7.u.%.O.' $.k.$.6.k.k.l.m.l.7.7.7.8.%.7.7. .{ @.m.D.b.7.7.$.c.7.u.u.=.p.-.n.`.`.W.a.p.!.G.u.7.7.k.m.F.z.4.7.8.7.",
"] *.$.%.c.K.M.%.%.$.%.k.%.7.=.$.$.7.$.l.s.0.y ~ o.7.@.7.l.7.%.7.7.8.$.2.y 3 2 9 | y.u.y.[ | H.).!.-.-.!.u.` O.7.l.J.(.b.4.8.8.7.",
"O.O.%.=.k.x.x.x.%.$.%.%.7.%.%.%.7.8.S.2.w.g.g.d.0.( #.7.7.7.7.%.7.4.( <.h.|.b 3 5 ! 7.9.9.X. ...X.^ ^ | ..5.7.7.8.l.l.l.8.8.8.l.",
"x.u.u.%.$.;.x.x.%.%.%.=.x.%.%.%.7.m.s.0.g.aXdX0XXXy ) #.4.%.@.$.4.( 9 h.5XsXsX X& < / 9.y.5. .} ^ ^ ^ [ ..8.8.7.6.6.6.k.8.6.8.8.",
"#.-.u.u.u.%.%.$.%.%.%.%.x.7.%.%.%.m.t.2 g.zXzXzX7Xg.r 0 0 0 0 q 0 7 j ;XzXzXzX5X}.p < / #.7.%.%.#.-.-.#.@.%.>.%.$.$.%.%.%.8.6.4.",
"=.%.%.x.=.#.x.D.c.7.%.%.%.%.u.x.7...w % }.sXzXzXzXqXb 4 # # > & # h 4XlXzXzXzXzXdXf.@ 7 #.7.7.8.u.y.u.u.=.#.%.%.$.%.x.m.m.k.@.6.",
"c.=.#.%.%.u.M.K.x.x.k.%.%.%.>.7.;.q e f.;X0X0XaXjXzX4XoX}.}.|.|.}.=XkXzXsX0XaXzXzXoXO , O.$.$.$.5.%.u.u.%.u.>.;.;.;.v.C.M.,.$.:.",
"%.%.%.#.c.K.c. .$.%.%.%.%.%.%.%.$.4 b 0XsX5X-X5XsXzXzXjXkXkXkXjXjXjXzXsX5X-X4XjXjX Xo 5 O.6.z.7.u.u.=.u.x.=.%.+.%.v.C.%.O.;.;.%.",
"u.u.M.u.M.E.x.` $.%.%.u.%.%.7.%.8.2 }.jXzX4X=X-XaXzXzXzXzXzXzXzXzXzXzXsX4X=X-XjXsX XO 5 4.6.z.z.6.4.7.8.=.7.x.M.>.L.P.O._ %.x.$.",
"=.M.Y.c.x.U.M.-.%.%.%.x.%.%.x.x.k.@ v jXzX0X5XwXhXzXzXzXzXzXzXzXzXzXzXhX9X6XwXlXlX X@ 5 ..6.6.z.6.7.7.$.%.x.G.K.N.C.P.c.+.%.$.k.",
"7.%.7.%.@.$.7.8.k.l.M.C.C.k.%.k.k.@ c jXzXlXhXlXlXzXzXzXzXzXzXzXzXzXzXlXhXhXhXzXlX.Xo 6 @.7.$.6.7.7.7.7.7.5.7.7.5.7.#.7.7.#.%.%.",
"7. .' O.@.{ { %.7.m.Y.].T.b.%.k.k.1 h -XuXyXrXyXyXyXyXyXyXrXfXfXfXtXtXfXtXtXrXrXuXK o 7 @.:.7.7.7.7.7.7.u.#.X.{ #. .' #.7.$.x.m.",
"u.@.O.@.7.$.@.7.%.m./.].T.m.:.$.k.! w p J U Y U U U U U U U T :X:X:X:X:X:XR Y U U : + 5 X.6.7.6.$.%.7.8.7.%.$.#.7.#.O.7.x.7.M.T.",
"%.x.b.7.7.u.k.%.:.l.C.K.C.l.6.$.7.%.8 + - N A B B B B Z B V S H F F F F G H A A N -   5  .7.7.8.7.%.@.7.7.%.u.x.%.u.x.k.$.%.m.P.",
"@.7.k.%.@.%.7.7.k.$.%.k.k.k.$.$.%.@.0   - N A B B B Z V B B B A H G G F G S A A N = . 5 3.6.l.8.7.%.$.%.k.%.%.%.$.%.7.%.$.%.x.k.",
"%.7.u.8.7.7.7.7.$.$.$.$.:.$.$.7.%. .0 . ; D I I I D M M C I I U E T T T R P M C D M . 5 3.6.6.6.@.%.m.D.m.k.%.k.%.%.%.%.;.x.:.$.",
"%.7.7.u.k.7.k.6.k.$.$.7.7.$.$.k.%.#.8 X f ,XeXeXeX>Xi ; L eXeXeXrXrXrXtXrXL ; J >XK O 5 3.6.4.6.%.l.J.K.M.7.$.8.x.%.k.z.7.:.%.%.",
"u.%.7.7.$.$.$.b.k.:.$.$.7.:.:.k.%. .7 X [.lXzXzXzX8Xi O @XzXzXzXzXzXzXzXlX[.O n 9X%X@ 5 4.7.6.7.%.%.7.x.b.7.$.%.7.%.$.$.$.7.7.:.",
"7.u.7.7.%.$.7.k.k.7.z.%.$.k.k.%.7.#.7 X [.lXzXzXzX9Xd $ +XzXzXzXzXzXzXzXzX.X$ n 9X&X@ 5 5.k.k.k.6.7.7.6.4.7.6.6.7.6.6.6.6.$.7.6.",
"7.u.7.7.k.7.6.$.z.:.6.:.%.k.%.%.%.#.8 X v sXzXzXzXaX Xc -XzXzXzXzXzXzXzXzX=Xc &XaXoXO 5 ..6.k.:.7.7.4.7.9.7.6.6.7.6.z.6.7.$.6.k.",
"%.7.%.7.7.7.z.7.k.k.6.%.k.%.$.%.%.X.7 X v sXzXzXzXkXaXaXsXzXzXzXzXzXzXzXzXsX0XaXsX}.o 5 ..$.l.%.#.7.8.7.6.8.8.7.8.8.6.l.7.6.%.7.",
"u.u.7.#.7.%.6.6.z.:.k.$.%.x.x.$.u.X.5 + }.zXzXzXzXzXzXzXzXzXzXzXzXzXzXzXzXzXzXzXkX}.o 5 O.$.k.k.i.i.8.7.7.6.7.7.6.6.6.8.8.7.7.k.",
"u.u.%.u.u.7.6.$.:.$.k.$.%.K.K.%.%.X.8 X c sXzXzXzXzXzXzXzXzXzXzXzXzXjXzXzXzXzXzXkX}.O 5 X.%.@.F.U.c.7.8.c.7.%.7.7.%.%.7.%.%.%.7.",
"u.#.#.%.7.7.k.k.$.$.$.$.b.T.Y.x.+.#.! 9 g  X8XzXzXzXzXzXzXzXzXsX4X&X&X5XjXzXzXzXzXoX% 7 n.D.%.M._.I.m.u.7.%.7.8.$.7.7.%.$.$.=.%.",
"u.u.x.7.%.7.7.k.z.$.$.:.x.C.F.x.%.u.u.y.9 &  XsXzXzXzXzXzXzXzXaXOXl c &XsXzXzXzXsX X2 q p.U.n.H._.E.B.=.#.%.%.$.$.%.%.%.;.x.x.%.",
"#.n.I.M.7.$.6.%.$.z.%.$.%.O.*.k.u.=.=.#.! , 3 |.5XzXzXzXzXzXzXsX4XOX&X4XkXzXzX0X*Xh t ) X.y.H._.Y.c.O.#.%.u.%.x.%.7.%.;.m.C.c.%.",
"b.F.D.b.7.7.7.$.6.6.7.k.@.' [ 7.u.7.7.{ { ^ < & XXdXdXsXsXjXzXzXjXjXkXkXjXgXgX2Xr.~ 5.#.`  .c.V.n. .| #.x.7.$.k.;.k.;.;.,.~.Z.,.",
"_.b.{ { 6.8.k.l.6.7.8.7.6.6.6.7.5.7.7.7.6.6./ 6 k #X+Xv v OXaXzXzXzXzXkX1X2X<Xj.q.y.u.7.u.O._ Q [ X.y.7.u.7.$.$.:.C.T.,.,.P.R.R.",
"].F.{ { 7.b.k.6.6.k.k.$.7.k.k.7.7.7.8.8.z.8.7.4.o.<.h i i l -XjXzXjXsX2Xj.^.b.k.7.8.7.7.u.%. . .' #.=.=.%.k.%.$.:.C./.K.A.W.~.W.",
"I.D.b.%.6.k.k.$.$.6.7.6.7.7.7.7.7.8.7.7.6.6.k.8.3.t x OXOXOX X&X0X8X+Xg.^.z.7.%.%.$.7.8.%.u.u.u.-.=.%.u.>.%.;.%.k.v.P.E.~.W.R.L.",
"{ @.6.k.7.7.7.6.7.7.k.z.7.$.%.7.8.7.%.7.$.6.7.4.~ k $XkXzX4Xl l 5X5Xv d.^.i.7.7.F.H.H.p.u.7.7.$.%.x.x.%.$.%.u.u.%.| 3.I.`.W.p.-.",
"_ { 7.k.x.%.$.$.6.k.k.7.7.8.7.$.7.7.7.7.7.7.o.1.d.$XiXzXzX8Xa a 4XaX;X2X3X{.a.a.'.3X3X'.a.7.%.%.$.;.7.7.%.%.u.y.u. . .y.H.n.-.^ ",
"$.k.k.%.$.$.k.7.$.k.$.$.:.k.k.%.7.z.%.k.%.$.! g *XzXzXzXzX5Xz a -XzXzXzXkX3X<X<X3XgXkX2Xj.k.7.7.8.6.6.7.7.9.5.u.y.y.5.| ^ ^ o.y.",
"k.7.7.%.%.%.$.%.$.:.k.k.$.$.$.:.k.$.$.k.k.@.0 4 &XzXzXzXzX5Xz a 4XzXzXzXzXjXpXpXgXzXzX1Xd.m.J.D.6.7.7.8.8.u.5.u.y.i.5.3.| | 3.y.",
"%.%.7.%.%.7.%.%.%.%.7.%.k.%.k.$.:.6.:.7.6.7.q # l 8XjXzXzX8Xz a 4XzXzXjXaXsXzXzXzXsX8X#Xe.b.J.I.7.7.8.u.x.p.#.-.u.u.=.u.%.$.$.k.",
"$.$.%.%.%.%.%.%.k.7.x.$.%.$.$.k.%.z.6.$.:.7.1.> *  X0XzXzX8Xv l 4XzXzX5XOX=XjXzXzX-Xf.w.3.7.l.7.7.7.7.%.M.U.n.-.-.u.=.+.%.8.k.6.",
"%.7.%.%.%.%.k.%.$.=.k.7.%.%.$.k.z.! 2.^.'.a.0.# 4  X;X-X=X&XoXOX0XzXzX=Xi i +X1X1Xg.r 2.7.%.7.@.7.x.x.x.V.E.A.,.,.,.,.;.:.:.:.:.",
"=.x.%.x.c.%.%.$.%.x.k.%.k.;.7.$.%.# h $XpX2Xp # l -XOXa s v -XaXjXzXzX&X* O 4 j h.w.o.5.7.7.7.7.%.G.L.v.V.E.R.L.,.v.L.,.:.:.:.:.",
"x.%.7.D.D.7.%.u.G.G.7.$.7.7.7.7.$.# 4 v -X4X Xa v &X+Xv z oX0XzXzXzXzX8Xc p h g ~ 2.7.$.%.8.x.u.x.L.E.L.A.W.`.R.A.R.E.v.,.C.k.:.",
"u.7.7.x.M.n.u.x.Y.Y.7.#.%.7.7.7.$.0 2 % c -X5XoXs i  X8X5XaXkXzXzXzXzXgX8X5X6Xg.0.5.7.%.%.7.u.%.c.c.A._.Q.A.Q.W.~.P.v.=.,.Z.C.:.",
"7.7.7.{ $.I.D.u.I.T.8.%.7.7.7.$.:.@.W # * c OXc * @ p =XaXzXzXsX-X&X*X0XzXzXzX1Xj.s.t.#.7.u.u.y.#.| y.U.n.-.V.`.Q.p...X.8.S.l.k.",
"7.%.7.[ %._.K.u.K.(.x.7.$.$.7.k.%.6. .q > $ % % 2 1 # s -XzXzX7Xz & p #XdXzXzXkXiX#Xw.t.u.%.%.u.u.| X.u.| Q -.c.y.#. .X.8.u.8.8.",
"4.u.8.%.n.I.G.7.G.G.c.u.%.$.>.%.z.6.l.3.q < < < 0 9 4 c 4XzXzX1Xg < q w.#X7XzXzXlXqX#Xe.2.$.6.7.u.7.@.' ] ] Q _ _ { #.y.u.u.7.5.",
"7.8.u.7.#.#.#.#.O.#.%.=.%.%.k.%.6.z.z.6.4.| | ( ! w [.aXjXzXjX*X) ..@.2.e.XXaXzXzXzXaXXX0.$.7.k.u.8.7.O.X.@.X...#.5.y.u.7.u.u.u.",
"7.7.7.u.#.'  .u.' { #.u.7.7.7.7.6.z.k.:.$.$.| W y g.7XzXzXsX&Xj o.b.k.7.2.w.XX4XkXzXzXoX3 7.7.k.7.%.6.7.y.l.7.%.u.7.%.%.%.7.8.8.",
"%.%.4.7.%.#.%.u.#.O.x.u.%.7.7.7.6.z.6.%.6.$.0 2 XXgXzXzXzX8Xh > / 8.7.$.7.( e XXkXzXzX[.@ 7.6.7.%.$.%.7.7.7.u.u.x.7.#.=.7.7.8.8.",
"%.%.%.;.%.%.=.%.u.%.8.8.4.7.5.9.k.z.$.z.:.@., @ &XzXzXzXzX6Xg 8 ..7.%.7.m.u.~ d.kXzXzXv + $.6.:.%.$.:.k.7.$.7.8.k.%.$.k.7.z.6.6.",
"$.$.;.;.$.+.$.u.u.7.%.9.8.8.7.8.:.k.$.:.k.@., @ }.sXsXsXdX*Xq.-.%.%.%.x.K.M.7.e.7XsX0Xc @ z.z.$.:.%.%.7.7.7.7.7.%.%.$.%.7.7.6.7.",
"%.:.;.:.+.+.%.x.%.7.7.S.I.8.9.8.k.%.%.%.:.@.6 X * l c c c h t.c.$.k.%.x.x.m.%.~ l l l p w k.:.z.%.%.+.%.7.7.%.%.$.%.%.$.7.:.z.z.",
">.;.>.:.+.>.;.+.%.%.4.I.(.F.6.l.%.k.k.:.$.@.0 # o o o O o # t.V.>.m.u.&.%.u.u.q @ o O w ~ z.z.z.$.%.:.%.7.%.%.%.%.;.z.7.:.z.k.6.",
"P.Z.=.+.+.+.>.=.=.#.=.G.(.F.7.8.%.$.7.x.$.@.k.$.6.7.7.6.b.G.L.M.x.T.m.%.x.%.%.>.u.$.%.k.$.:.z.z.=.u.=.%.u.u.=.%.x.%.x.$.%.k.$.%.",
"~.P.,.%.>.v.v.=.%.=.%.%.%.7.9.7.%.k.x.k.%.$.$.6.6.9.6.7.8.u.#.#.M.Y.K.%.$.%.%.%.7.%.7.k.$.:.:.$.%.M.M.u.@.u.M.M.=.%.%.%.%.k.$.6.",
"_._._.A.V.P.V.=.=.=.>.O._ O.7.7.7.8.%.7.l.l.%.l.8.8.9.9.7. .{  .m.T.C.:.%.%.u.%.=.%.%.%.k.6.z.6.u.L.U.b.u.n.G.G.=.#.%.=.x.k.%.%.",
"]._.E.U.Y.E.A.=.%.=.%.&.O.6.l.8.7.7.k.M.K.m.k.7.6.8.7.6.9.6.@.%.l.N.k.%.%.%.u.x.%.u.%.%.z.k.z.z.7.G.G.b.F.G.u.X.%.=.=.u.%.%.%.$.",
"H.!.).`.E.S.p.u.=.=.$.%.7.k.7.7.%.%.m.M.x.x.%.5.6.8.8.6.k.k.7.:.:.$.:.%.%.=.=.u.%.=.7.7.6.6.6.z.i.I.I.i.J.(.4.{ #.u.=.%.$.%.%.%.",
"/ y.^.`.H. . .=.=.u.%.%.k.%.$.z.%.>.K.x.'  .%.u.8.8.9.7.k.8.$.6.6.7.:.%.%.=.%.u.u.%.7.7.$.$.$.$.b.U.I.u.S.(.i.u.#.=.u.u.%.%.%.=.",
"! 2.t.s.t.X.y.u.u.u.k.%.$.7.7.k.$.x.P.K.+.+.-.#.7.9.7.7.%.$.$.:.:.:.k.%.%.=.=.n.G.u.7.7.z.$.6.6.7.i.9.4.4.5.u.b.%.%.=.B.m.%.%.%.",
"/ / ^ ^ | t.y.u.#.#.k.x.k.7.k.6.;.:.K.K.x.c.%.u.4.7.7.7.$.$.z.$.z.$.:.%.7.#.%.G.Y.u.$.7.k.6.k.6.4. .} 4.3.} 5.5.=.-.x.Y.Y.x.$.%."
};
