/* XPM */
static char *result[] = {
/* columns rows colors chars-per-pixel */
"22 32 72 1 ",
"  c black",
". c #010000",
"X c #000100",
"o c #010101",
"O c #030000",
"+ c #000200",
"@ c #020200",
"# c #000002",
"$ c #010002",
"% c #000102",
"& c #000202",
"* c #020202",
"= c gray1",
"- c #040000",
"; c #050001",
": c #050200",
"> c #060203",
", c #000400",
"< c #030502",
"1 c #000703",
"2 c #010004",
"3 c #000105",
"4 c #000204",
"5 c #020204",
"6 c #050004",
"7 c #040404",
"8 c gray2",
"9 c #060606",
"0 c #070707",
"q c #080000",
"w c #090000",
"e c #0A0000",
"r c #040A06",
"t c #1D0000",
"y c #190409",
"u c #210000",
"i c #220000",
"p c #250000",
"a c #270000",
"s c gray21",
"d c gray23",
"f c #3C3C3C",
"g c gray24",
"h c #792326",
"j c #7E292E",
"k c #414141",
"l c gray26",
"z c #4B4B4B",
"x c #686868",
"c c #6E6E6B",
"v c #6D6E6E",
"b c #931715",
"n c #AB0C08",
"m c #AF0C1D",
"M c #B40610",
"N c #BA0913",
"B c #B1091A",
"V c #BE0D1D",
"C c #AB1312",
"Z c #BA1D18",
"A c #9E211F",
"S c #A01C2A",
"D c #A8202E",
"F c #C0091B",
"G c #D24E42",
"H c #DE584D",
"J c #E1544A",
"K c #E0554E",
"L c #EC5252",
"P c #E95F54",
"I c #EB6059",
"U c None",
/* pixels */
"UUUUUUUUUUUUUUUUUUUUUU",
"UUUUUUUUUUUUUUUUUUUUUU",
"UUUUU>OUUUUUU&%UUUUUUU",
"UUUU@UU.UUUU4UU3UUUUUU",
"UUUU+UUU<+,1UUUU$UUUUU",
"UUUrUUUUUUUUUUUU6UUUUU",
"UUUXUUUUUUUUUUUU#UUUUU",
"UUU-UUUUUUUUUUUUeUUUUU",
"UUUUphDBFNLKHJnAtUUUUU",
"UUUUijSmVMCIGPZbuUUUUU",
"UUUUyUUUaUUUUUiUqUUUUU",
"UUUU;UUU+UUUUU4U#UUUUU",
"UUUU-UUUUUUUUUUUXUUUUU",
"UUUU:UUUUUUUUUUU=UUUUU",
"UUUUU5UUUUUvcUUUOUUUUU",
"UUUUUU2UUUUUUUUwUUUUUU",
"UUUUUUU5UUUUU.OUUUUUUU",
"UUUUUUU=UgfU UUU  UUUU",
"UUUUUU=UsUUkU9  UU7UUU",
"UUUUUU UUUUdUUUUUU8UUU",
"UUUUUU0UUUzUUUUU8oUUUU",
"UUUUUU xldUUU0 9UUUUUU",
"UUUUUU UUUUUUoUUUUUUUU",
"UU 7UU8UUUUUU UUUUUUUU",
"UoUU 9 UUUUUUoUUUUUUUU",
"UU UUU=UUU UUU=UUUUUUU",
"UUU 98 UU U UU UUUUUUU",
"UUUUUU UUoUU7UU UUUUUU",
"UUUUU UU7UUU UU UUUUUU",
"UUUUU UU UUU UU*UUUUUU",
"UUUUU o UUUUU  =UUUUUU",
"UUUUUUUUUUUUUUUUUUUUUU"
};
