/* XPM */
static char *result[] = {
/* columns rows colors chars-per-pixel */
"64 64 239 2 ",
"   c #0E170B",
".  c #0F1D10",
"X  c #141D14",
"o  c #141816",
"O  c #0C0E05",
"+  c #162616",
"@  c #19361A",
"#  c #0D230E",
"$  c #1A2626",
"%  c #1F3F20",
"&  c #273828",
"*  c #323D35",
"=  c #5B1F1F",
"-  c #670000",
";  c #721D1D",
":  c #5E2222",
">  c #6E2F2F",
",  c #1B471D",
"<  c #1A541C",
"1  c #1C601E",
"2  c #1C701F",
"3  c #1C5C20",
"4  c #244724",
"5  c #265528",
"6  c #2E5A30",
"7  c #355936",
"8  c #344935",
"9  c #1E6923",
"0  c #226524",
"q  c #226B25",
"w  c #246A28",
"e  c #2A6A2C",
"r  c #267728",
"t  c #376938",
"y  c #367839",
"u  c #2D7C32",
"i  c #407E3E",
"p  c #3D7E41",
"a  c #374444",
"s  c #484948",
"d  c #5B5D5C",
"f  c #565855",
"g  c #455A45",
"h  c #48674A",
"j  c #566657",
"k  c #557857",
"l  c #497D4C",
"z  c #6C6C6C",
"x  c #636663",
"c  c #697469",
"v  c #757575",
"b  c #7B7B7B",
"n  c #737B76",
"m  c #717474",
"M  c #B60C0C",
"N  c #C90000",
"B  c #D60000",
"V  c #DC0000",
"C  c #CF1A1A",
"Z  c #E90101",
"A  c #E80606",
"S  c #F11A1A",
"D  c #DA3737",
"F  c #CF2929",
"G  c #FE3838",
"H  c #EC3030",
"J  c #A65F5F",
"K  c #8A6464",
"L  c #A56767",
"P  c #FF4242",
"I  c #E65E5E",
"U  c #EC5353",
"Y  c #EB6464",
"T  c #FE7777",
"R  c #F96767",
"E  c #D75858",
"W  c #2A852F",
"Q  c #289D2B",
"!  c #2D8B31",
"~  c #2C8633",
"^  c #348839",
"/  c #2F9D31",
"(  c #2C9332",
")  c #349D3B",
"_  c #369839",
"`  c #26A52A",
"'  c #2AA42C",
"]  c #2BAA2E",
"[  c #20A123",
"{  c #2DA431",
"}  c #2DAC32",
"|  c #26A230",
" . c #31A435",
".. c #33AC34",
"X. c #33A23A",
"o. c #34AB3A",
"O. c #3AAC3C",
"+. c #3AA53B",
"@. c #32B235",
"#. c #3BBC37",
"$. c #35B53B",
"%. c #3AB53C",
"&. c #36BB3D",
"*. c #3ABC3E",
"=. c #38BB35",
"-. c #2FB133",
";. c #41BD3C",
":. c #41B93A",
">. c #3CC13D",
",. c #37C13A",
"<. c #43C23E",
"1. c #48C53D",
"2. c #3E9942",
"3. c #3C8D41",
"4. c #3EAA42",
"5. c #3BB542",
"6. c #36BC41",
"7. c #3CBD42",
"8. c #3EBD49",
"9. c #3AB744",
"0. c #458748",
"q. c #449747",
"w. c #518B55",
"e. c #539657",
"r. c #46A649",
"t. c #41B645",
"y. c #41BD43",
"u. c #43BD4A",
"i. c #48B84A",
"p. c #4EB754",
"a. c #54AC59",
"s. c #6B886D",
"d. c #629364",
"f. c #788779",
"g. c #769878",
"h. c #5DA962",
"j. c #5EB562",
"k. c #64AA67",
"l. c #6FA672",
"z. c #5F8F61",
"x. c #3CC143",
"c. c #3EC149",
"v. c #36C142",
"b. c #42C244",
"n. c #49C546",
"m. c #4BCA44",
"M. c #44C34A",
"N. c #4BC54B",
"B. c #46C94B",
"V. c #4BCB4D",
"C. c #42C841",
"Z. c #52CE4C",
"A. c #53C94B",
"S. c #4DD14D",
"D. c #54D24C",
"F. c #58D14E",
"G. c #4CC352",
"H. c #4DCC52",
"J. c #49CA53",
"K. c #53C554",
"L. c #52CC53",
"P. c #58CA5A",
"I. c #4ED255",
"U. c #53D355",
"Y. c #5BD453",
"T. c #5CD955",
"R. c #56D35B",
"E. c #5AD45A",
"W. c #5BDA5C",
"Q. c #56DA5A",
"!. c #62DA56",
"~. c #63DC5B",
"^. c #67DB5B",
"/. c #60CE5B",
"(. c #67E25D",
"). c #5DDC61",
"_. c #5CD763",
"`. c #5DC960",
"'. c #64D562",
"]. c #64DD63",
"[. c #6BDD67",
"{. c #6FC873",
"}. c #66E367",
"|. c #7D8383",
" X c #7ED381",
".X c #848484",
"XX c #8C8C8C",
"oX c #878D8D",
"OX c #899489",
"+X c #929393",
"@X c #9A9B9A",
"#X c #939993",
"$X c #9CA89C",
"%X c #95B897",
"&X c #8AA38B",
"*X c #9DAFA5",
"=X c #A3A3A3",
"-X c #ACADAC",
";X c #A5ADA5",
":X c #A8B5A8",
">X c gray70",
",X c #BCBDBC",
"<X c #B3BCB4",
"1X c #FE8B8B",
"2X c #FF9191",
"3X c #F5B8B8",
"4X c #EAB1B1",
"5X c #CF9595",
"6X c #8FCF91",
"7X c #9FCEA1",
"8X c #A9C7AB",
"9X c #B8C7B9",
"0X c #BADABB",
"qX c #AAD2AC",
"wX c #B5E5B7",
"eX c #C3C4C3",
"rX c #CBCCCB",
"tX c #C2CBC9",
"yX c #CAD2CA",
"uX c #CDD6D6",
"iX c #D4D4D4",
"pX c #DCDCDC",
"aX c #D3DBD6",
"sX c #FDCBCB",
"dX c #FADBDB",
"fX c #EAD4D4",
"gX c #DBE5DB",
"hX c #D1EFD2",
"jX c #DBE4E1",
"kX c #E5E5E5",
"lX c #ECECEC",
"zX c #FEE5E5",
"xX c #FFE8E8",
"cX c #EAF4EB",
"vX c #EAF7F7",
"bX c #F4F4F4",
"nX c #F6FFFF",
"mX c #FFFFFF",
"MX c #F5FAF5",
/* pixels */
"&.*.y.*.*.b.*.&.&.;.x.b.b.*.*.*.x.v.7.v.x.7.7.6.&.x.$.B._.R.y.%.5.c.7.b._.I.6.6.&.>.v.6.&.x.>.&.*.<.*.;.;.%.y.%.u.y.6.7.7.8.7.9.",
"*.*.7.*.*.y.x.*.*.7.x.b.B.x.*.*.6.7.x.x.6.&.&.7.*.c.7.8.u.B.K.M.7.8.*.8.J.J.6.6.x.>.*.,.*.&.*.C.n.;.#.*.;.*.%.7.y.y.y.y.7.8.8.9.",
"b.7.*.<.b.*.*.*.*.*.*.B.U.V.&.*.6.&.x.v.&.6.7.6.*.8.8.$.} y.R.B.<.<.*.*.*.<.x.>.<.=.#.:.C.*.;.Z.!.1.;.:.1.1.:.#.*.;.<.x.>.*.*.x.",
"U.B.*.*.*.*.*.b.7.*.*.U.W.V.&.7.x.&.&.7.&.v.v.7.7.*.6.*.$.H.'.G.b.V.m.*.&.*.>.>.#.=.,.1.D.m.<.m.(.T.1.1.m.D.1.#.*.:.*.<.>.*.*.x.",
"}.U.y.&.&.*.*.7.*.x.x.b.V.x.*.b.x.&.6.6.7.7.c.,.*.*.6.7.y.B.V.M.m.W.Z.*.#.:.:.#.:.:.:.1.F.T.A.A.!.(./.1.Y.^.n.;.>.&.*.*.*.*.*.>.",
").U.b.*.*.y.;.&.*.b.>.@.-.&.*.*.x.v.6.x.7.5.4.0.l ^ +.7.7...} $.n.~.L.;.*.+.i 7 4 e ..:.A.!.^.^.!.(.!.F.!.Y.n.*.>.>.>.v.&.*.*.>.",
"x.b.>.*.b.V.V.&.y.x.*.@.] &.x.&.6.x.v.c.M.t.a.g.s.z.0.+.6.@.} %.B.H.M.6. .0.s.m x 7 e _ O.N.].[.^.p.A./.L.y.7.7.7.J.c.c.6.8.8.9.",
"[ -.&.*.V.U.V.*.*.&.*.b.*.*.7.&.&.x.v.B.p.e.|.kXgXyXs.y _ 7.%.7.7.8.%./ y s.yXkXpXb + < 2 ( P.'./.:.:./.y.' @.7.v.I._.M.6.7.c.9.",
"=.@.*.*.b.b.b.M.*.*.*.*.7.*.*.*.7.c.H.b.! 6 +XmXmXmXeXs.e r r W W W r e s.<XmXmXmXeXv 8 , ~ o.o.O./ Q  .o.5.6.7.8.c.c.c.8.8.8.c.",
"y.y.y.:.$.*.b.b.*.&.*.;.y.*.*.*.7.B.Q.u.1 $ XXmXmXmXMXrXj @ @ @ @ , @ j eXbXmXmXmXbXpXz # w { { / / /  .o.7.u.8.6.7.8.v.6.8.8.8.",
"%.*.y.b.y.&.&.=.;.*.*.*.b.7.*.x.*.M.K.q.i v >XpXpXkXmXbX<X|.b b b f.n -XMXmXkXpXkXmXmX.X  0 %.*.%.%.%.%.=.%.*.*.$.*.*.&.*.x.6.$.",
"y.:.*.y.;.*.B.V.b.y.*.*.*.;.*.b.7.$.^ e b pXlXrX,XrXlXmXbXbXbXlXbXlXlXnXmXlXrX,XrXmXlX|.  w 7.x.i.;.y.y.y.y.7.>.x.&.b.V.B.c.$.6.",
"b.;.%.*.*.y.H.U.b.b.b.*.*.*.b.7.7...2 @ XXmXmXeX>XeXkXmXmXmXmXmXmXmXmXmXmXkXeX-XeXbXlX|.. 0 &.&.*.7.;.y.*.;.<.#.>.>.m.S.V.<.&.>.",
"*.*.;.%.n.U.n...&.*.*.*.*.*.*.*.7.*.r + .XbXmXiXtXiXvXmXmXmXmXmXmXmXmXmXmXlXuXtXiXnXlX|.. 9 6.7.y.;.y.b.y.y.>.*.*.m.D.*.@.>.>.>.",
"y.y.V.y.V.W.n.' =.*.*.y.*.*.*.*.7.7.r @ .XmXmXvXvXvXmXmXmXmXmXmXmXmXmXmXmXnXvXcXvXmXnXb . 9 6.v.8.6.*.8.*.;.n.N.<.U.T.@.` *.x.&.",
"*.V.W.n.b.E.N.*.*.*.*.b.*.*.b.b.y.%.! < c rXpXdXdXdXdXdXdXdXdXdXzXxXzXzXzXzXzXzXdXdXfXz . 9 6.x.6.7.7.$.&.B.Z.U.C.S.T.n.#.&.&.b.",
"*.*.6.*.%.$.7.8.x.x.V.I.V.x.>.x.8.*. .! t f J I R Y I I I I I R 1X2X2X1X1X2X2XT R I E >   9 &.6.6.7.7.7.7.5.7.8.*.5.%.y.8.$.*.7.",
"y...` $.$.} } *.&.V.W.}.Q.c.*.x.8.7.%.%.0 O - B A B B B V Z B V S G P G P P P S Z Z M -   q *.7.7.7.7.7.7.5.....%.} ] =.7.*.x.n.",
"y.$.$.*.7.$.&.*.&.V.).}.Q.B.,.&.*.b.*.&.0 O - N A B B B V V B B B A S G G G G S Z Z N - O q 6.7.*.$.9.c.y.%.%.=.7.%.@.*.b.*.V.Q.",
"*.b.b.9.*.y.c.*.>.c.S.U.S.c.v.&.*.b.*.%.0 O ; D H H D F M M F D D U R T T T T D M C F ;   q 9.8.7.*.*.*.7.7.7.b.7.y.b.b.*.*.V.Q.",
"=.7.y.7.$.*.7.7.x.&.,.x.x.x.&.&.&.*.;.5.0   K 4X3X3X3X5X> : L 3X4X3XsXsXsXsXsXK = J 5Xz o 9 8.8.7.*.&.x.x.*.*.*.&.*.x.$.&.>.x.x.",
"5.7.7.7.c.7.7.x.*.&.$.6.>.&.&.&.*.&.b.7.1 X oXnXmXmXmXtXa $ ;XmXMXmXmXmXmXmXnXn o n pX+X+ w 6.6.&.*.B.H.B.x.*.b.*.*.x.>.*.b.>.*.",
"*.6.7.b.x.7.x.&.,.&.&.&.&.v.&.x.*.*.x.%.1 X oXnXmXmXmXrXa $ *XmXmXmXmXmXmXmXnX|.$ n jX+X+ 9 $.&.*.M.I.I.V.7.$.c.x.*.x.x.>.v.&.&.",
"y.7.*.c.$.&.&.M.x.x.&.&.x.*.x.>.;.;.*.%.0 X .XbXmXmXmXpX|.v ,XmXmXmXmXmXmXmXbX=Xz =XpX.X. w 6.7.*.$.7.b.b.7.7.&.7.*.$.&.&.x.&.>.",
"y.y.7.7.*.$.6.x.x.&.x.,.*.x.x.*.7.x.*.=.0 + .XMXmXmXmXbXpXaXlXmXmXmXmXmXmXmXmXkXaXkXkXK + r 6.x.7.7.9.6.6.7.9.6.7.6.6.6.6.7.v.7.",
"7.7.7.y.x.7.x.6.,.v.,.6.*.x.*.*.*.*.7.%.0 + +XmXmXmXmXmXmXmXmXmXmXmXmXmXmXmXmXmXmXmXbXv . 9 8.6.7.7.6.7.7.7.6.6.7.7.6.8.6.6.6.x.",
"*.y.*.*.7.x.7.v.>.v.7.6.x.*.&.&.y.7.5.%.r @ .XbXmXmXmXmXmXmXmXmXmXmXmXmXmXmXmXmXmXmXbXv . 9 v.6.9.6.7.7.9.7.8.8.8.6.v.v.8.6.&.x.",
"y.7.5.7.7.7.&.7.v.x.x.&.*.b.b.&.y.*.6.y._ e h =XkXmXmXmXmXmXmXmXmXlXeX-X>XaXbXmXmXmXMX|.o 9 6.c.u.b.8.7.8.7.6.7.8.6.6.8.x.7.7.7.",
"y.y.5.y.y.7.&.6.&.&.x.&.*.I.U.*.%.*.*.n.L.t.w g =XMXmXmXmXmXmXmXmXpX@Xm v >XbXmXmXmXkXv + r $.V.E.B.6.y.b.8.*.c.7.*.&.*.*.*.*.y.",
"y.%.=.*.7.7.v.x.,.&.&.&.b.W.W.c.=.;.b.L.W.H./ e k ;XkXmXmXmXmXmXmXkX>X+X=XrXmXmXmXpX$Xh w 2.%.N.].E.B.y.7.y.7.7.6.7.7.*.&.&.*.*.",
";.y.b.7.7.7.x.x.v.&.&.,.b.S.V.b.t.y.y.n.V.B.6.O.u h :XMXmXmXmXmXmXMXbXlXbXbXbXbXcX:Xh y i.K.G.R.].~.K.;.=.%.*.*.*.*.*.*.>.b.b.*.",
"%.G.R.V.7.$.6.x.&.x.&.&.x.@.-.x.y.;.*.%.@.&.7.7.) ~ z.%XgXmXmXmXmXmXmXmXmXkX-X8X7Xk.3.r.=.t.K.].W.n.@.=.*.y.*.x.*.*.*.*.V.I.m.#.",
"M.H.J.M.7.8.7.&.6.&.7.c.$.} } 6.7.y.9.@.} @.6.v.6.6.4.h.9XmXbXkXkXbXmXmXlX#Xk k.K.t.y.7.' ..C.A.N...{ *.b.7.&.>.x.x.1.>.m.(.m.1.",
"].u.} -.7.c.v.c.6.7.8.7.6.*.6.6.5.6.7.7.6.7.6.6.6.6.7.a.8XlX>Xv v ,XbXiX.X8 ^ i.7.y.7.y.y.@.` Q  .+.:.y.*.c.*.&.,.S.Q.1.<.T.(.!.",
"}.J.-.-.7.b.x.&.6.x.x.&.6.y.c.*.7.7.7.c.c.c.7.7.6.6.t.h.:X9X|.s s XXiX>Xs 4 4.6.7.7.6.8.N.V.i.O./ %.y.*.*.<.*.&.,.D.W.U.F.^.(.^.",
"U.H.b.$.*.c.c.&.&.x.7.7.7.6.7.7.y.8.7.9.6.6.8.v.c.G.{.%XOXb XX@X@X@X+XXXoXk 2.t.7.*.7._.6XqX7Xd.y ;.*.y.7.;.>.*.x.C.Q.~.(.^.!.Y.",
"-.$.6.8.7.7.7.6.6.6.v.x.7.&.*.7.8.7.7.*.7.&.x.v.7.j.0XpXXXm ,XmXmX,Xd v rX8Xd.k.P.P.`.6XhXMXlXv & :.b.*.&.*.y.y.*.{ %.P.[./.i.:.",
"` } *.c.x.7.&.&.x.x.v.7.7.7.7.*.7.*.7.7.6.7.6.x.t.h.0XbXeX,XlXmXmX,Xf z pXbXtXqX0XwX0XhXMXmXkXz o *.x.*.*.*.7.t.;.....u.P.A.:. .",
"&.x.x.*.&.&.7.>.&.x.7.&.v.x.>.&.x.7.x.&.*.&.*.5._ w.:XmXmXmXmXmXpX=Xz .XpXmXmXmXmXmXmXkXiXaX9Xj % 7.6.7.8.5.7.y.t.t.5. .Q Q +.t.",
"x.7.*.*.*.*.*.*.&.6.>.x.&.&.&.x.v.6.,.x.x.7.*.=.^ p $XmXmXmXmXpX+Xv =XiXbXmXmXmXmXmXmX=Xx s.l.q.~ 9.8.8.7.y.5.i.i.u.9.4.o.o.4.t.",
"*.*.7.*.&.b.*.*.*.*.x.*.x.*.x.&.6.>.v.7.&.x.*.$.! t g.rXrXeXeX=Xv XXiXmXmXkXrX,XrXuX,Xj @ 3.p.L.7.6.8.y.M.b.:.:.y.;.;.;.*.&.&.v.",
"&.&.&.*.*.*.&.*.*.b.b.&.&.*.&.x.,.6.,.*.x.&.7.*./ y k .Xb x d v =XpXMXmXmX>Xf s d x j e W 4.u.8.8.7.7.*.V.E.i.:.:.i.b.#.*.8.v.7.",
"*.7.*.*.*.*.;.*.&.*.b.*.*.*.*.x.v.6.x.v.x.&.>.&.) y k .XK x x XXpXmXmXmXmX$X& + 5 6 e ! 7.*.*.&.<.b.n.;.A.^.D.1.<.1.1.>.,.,.,.>.",
";.b.7.b.b.7.*.*.*.b.7.*.x.*.>.&.7.,.,.6.&.x.x.$.( y OXiXuXrXtXpXbXmXmXmXmX;Xh e X.X.X.%.7.7.7.7.*.L.U.N.Z.~.^.Y.1.m.F.1.,.,.,.>.",
"b.*.y.H.L.8.*.7.U.L.8.&.*.7.7.x.7.,.,.6.>.7.6.$.W y $XmXmXmXmXmXmXmXmXmXmX<Xw.^ 6.6.7.*.%.7.y.y.b./.~.Y.Y.^.(.^.F.!.W.m.1.S.x.,.",
"M.6.7.b.V.n.y.b._.E.7.$.*.x.7.7.v.6.v.6.6.,.7.*.( t %XmXmXmXmXmXmXmXmXmXmX<Xk 3.6.x.7.*.6.y.8.:.b.n.Y.~./.A.!.^.(.Y.Z.<.1.D.S.,.",
"7.%.6.} *.R.H.y.R.Q.8.*.7.7.6.r.p.`._.G.,.6.v.7._ t &XmXmXmXmXmXmXmXmXmXmX:Xk 2.7.7.7.*.y.y.y.y.%...y.P.A.:.A.[.!.y...O.8.G.x.c.",
"7.6.7.] %.].U.y.U.W.b.7.*.&.9.r.h.%X7X XK.,.7.8.2.t +XmXmXmXmXmXmXmXmXmXmX9Xz.r.7.7.7.5.7.7.*.y.t...O.y...Q :.i.y.O...4.7.8.8.7.",
"5.b.8.5.N.R.L.7.K.U.n.y.*.*.;.r.w.n *XqX6X6X X{.w.8 XXmXmXmXmXlX-X-XbXmXmXaX$Xk.t.6.&.7.x.$.6.v.7.7.$.] Q [ Q ` ` ..%.y.y.7.y.5.",
"7.y.y.7.%.%.%.%...=.*.7.*.*.7.%.^ & f :XtX0X0X7Xk * +XmXmXmXMX>Xs f ,XMXmXMXcX6Xp.6.x.c.x.7.7.7.y.8.*.$.o.$.$...$.%.t.y.7.t.y.y.",
"7.6.7.7.%.] ..y.] ] %.y.7.y.8.7.) 3 & d m b .Xc & * #XmXmXkX-Xj 4 4 x >XMXmXmX8Xh.4.v.v.x.6.x.x.7.*.$.7.y.c.y.*.y.y.*.;.*.8.8.8.",
"7.*.*.7.*.%.*.y.%.%.y.b.*.*.6.7.6.X.w @ X + & & # & @XmXmXrXf & ^ ^ 4 d rXbXmX9Xl.r.7.x.x.6.6.6.*.&.*.8.8.5.7.y.y.7.%.*.*.9.7.8.",
"*.*.*.*.*.>.;.*.y.*.y.7.5.9.9.8.v.&./ r 1 0 e r < 4 +XmXmXyXi q +.+.r 5 c >XbXgX8Xk.8.6.v.7.,.,.>.&.>.x.6.$.7.c.x.*.6.7.x.v.6.6.",
"&.*.*.<.&.#.&.y.y.7.7.8.8.8.9.8.>.v.&.$.*.*.6.%.u 7 $XmXcX:X2.:.7.y.%.! 4 c gXMXMX%Xa.5.,.v.x.6.>.&.&.>.7.x.7.7.*.*.&.,.x.7.6.x.",
"#.,.>.,.#.#.*.b.y.*.9.J.I.c.7.8.>.7.7.,.,.>.6.5.e.&XrXkX@Xj r.n.*.x.7.%.! w.aXmXmX;Xl _ v.x.v.v.*.#.&.*.7.7.*.*.*.*.6.*.&.x.v.6.",
"C.>.<.,.#.>.<.=.%.*.9.R._.G.8.c.*.x.x.&.&.&.4.q.%XmXmXgXj @ r.m.b.n.b.@.*.h.gXmXmX@X& r $.v.,.v.&.*.>.*.7.*.*.*.*.>.,.7.,.x.v.v.",
"T.D.;.#.;.#.<.#.;.*.*.U.W.J.9.8.*.$.x.b.&.@.~ 7 -XmXmXaXl ^ p.N.b.Q.V.*.>.{.cXmXmXXXo 1 $.&.v.v.;.;.y.*.y.y.*.*.b.*.y.*.*.x.&.6.",
"(.Y.m.#.<.m.m.;.*.;.<.7.*.9.8.7.*.c.b.x.7.$.q @ b pXaX;Xq.y.*.=.V.W.I.7.*.{.yXiXrXv @ u &.&.,.&.*.V.V.y.%.y.V.Z.;.*.*.*.>.x.&.*.",
"~.].].L.Z.T.Z.;.:.;.<.@.` @.8.7.7.y.*.7.c.6.W , * f f g ^ $.} @.B.Q.V.>.%.q.f f f g y +.7.v.v.&.y.Y.R.M.7.N.L.L.*.%.;.*.>.x.*.&.",
"}.].^.Y.W.~.Z.;.*.;.*.@.@.*.c.8.7.6.x.V.U.B._ w @ X X @ ~ %.@.*.x.C.x.>.*.u @ + X t r.%.6.x.v.v.y.L.L.B.G.L.y...*.;.y.;.*.7.*.*.",
"K.P.'.[./.K.n.i.;.;.&.*.x.x.*.x.*.*.B.V.B.b.;.5.9.b.8.6.c.8.&.7.v.&.&.>.*.;.*.y.*.;.7.7.6.6.6.v.b.R.R.u.I._.5.} %.;.;.*.*.*.*.*.",
"( i.'.[.K.....;.;.y.*.*.7.*.$.v.*.<.U.b.] } *.y.b.8.9.8.b.v.&.>.&.,.>.*.*.<.;.y.b.*.*.7.6.&.&.,.M.R.R.u.G._.u.8.%.*.y.y.*.*.7.;.",
"! 4.r.p.t.+.t.y.y.y.7.*.*.*.x.x.&.b.T.H.=.=.*.%.t.7.6.8.x.&.&.&.,.v.>.&.*.y.;.n.K.y.6.7.v.&.6.6.9.u.5.9.9.9.y.u.*.;.y.Z.V.*.*.*.",
"( ( ( (  .r.t.y.%.%.b.b.x.c.v.6.*.>.U.T.n.b.;.7.%.*.8.7.$.&.,.v.,.&.*.*.7.*.*.K.W.y.*.7.x.x.v.v.9.} | 9.O.| 5.*.t.;.b.W.T.b.&.&."
};
