/* XPM */
static char *result[] = {
/* columns rows colors chars-per-pixel */
"64 64 233 2 ",
"   c #0D170B",
".  c #0F1B10",
"X  c #141D15",
"o  c #1A1C1A",
"O  c #141816",
"+  c #111007",
"@  c #1A281B",
"#  c #163718",
"$  c #202D1F",
"%  c #1A2923",
"&  c #232823",
"*  c #263726",
"=  c #373F38",
"-  c #5B0F0F",
";  c #6B0000",
":  c #6A1919",
">  c #5C2020",
",  c #782F2F",
"<  c #1A471C",
"1  c #1B581E",
"2  c #1E5721",
"3  c #255927",
"4  c #364937",
"5  c #2D4E2E",
"6  c #1D6322",
"7  c #206523",
"8  c #226B24",
"9  c #26682A",
"0  c #26782A",
"q  c #346836",
"w  c #367639",
"e  c #2F6733",
"r  c #3F5444",
"t  c #3F6540",
"y  c #464A49",
"u  c #475748",
"i  c #5C5C5C",
"p  c #575955",
"a  c #4F5F50",
"s  c #4A624B",
"d  c #457847",
"f  c #5A695A",
"g  c #577859",
"h  c #6B6C6B",
"j  c #636664",
"k  c #727272",
"l  c #7A7B7A",
"z  c #747B74",
"x  c #657469",
"c  c #745757",
"v  c #B70D0D",
"b  c #C90000",
"n  c #D50000",
"m  c #DC0000",
"M  c #CC1717",
"N  c #EA0101",
"B  c #E80505",
"V  c #F11A1A",
"C  c #CD2727",
"Z  c #DA3535",
"A  c #D72D2D",
"S  c #FE3434",
"D  c #FF3F3F",
"F  c #ED3030",
"G  c #A05E5E",
"H  c #976969",
"J  c #DC4E4E",
"K  c #E65E5E",
"L  c #F24C4C",
"P  c #E96363",
"I  c #F46464",
"U  c #FE7575",
"Y  c #2B842E",
"T  c #2A892E",
"R  c #289C2B",
"E  c #2D8831",
"W  c #36833A",
"Q  c #2F9D32",
"!  c #2C9332",
"~  c #359D3B",
"^  c #35983A",
"/  c #26A52A",
"(  c #2BA42D",
")  c #2BAA2E",
"_  c #20A123",
"`  c #2DAC32",
"'  c #2CA332",
"]  c #32A334",
"[  c #33AC34",
"{  c #34AB3A",
"}  c #3AAD3B",
"|  c #38A33B",
" . c #32B235",
".. c #3BBC37",
"X. c #35B53B",
"o. c #3AB53C",
"O. c #36BB3D",
"+. c #3ABC3E",
"@. c #38BB35",
"#. c #2FB133",
"$. c #41BD3C",
"%. c #41B93A",
"&. c #3CC13D",
"*. c #37C13B",
"=. c #43C23E",
"-. c #48C53D",
";. c #3E9443",
":. c #3F8843",
">. c #3CAD43",
",. c #3DA343",
"<. c #3BB542",
"1. c #36BC42",
"2. c #3CBD42",
"3. c #3EBD49",
"4. c #3AB744",
"5. c #428444",
"6. c #469A4B",
"7. c #548957",
"8. c #529456",
"9. c #43A747",
"0. c #42B544",
"q. c #41BD43",
"w. c #42BD49",
"e. c #48B84A",
"r. c #52AF58",
"t. c #5E8660",
"y. c #68896A",
"u. c #669969",
"i. c #778578",
"p. c #7C987D",
"a. c #5BB861",
"s. c #6EB372",
"d. c #3CC142",
"f. c #3EC149",
"g. c #36C142",
"h. c #42C244",
"j. c #49C546",
"k. c #4BCA44",
"l. c #44C34A",
"z. c #4BC54B",
"x. c #46C94A",
"c. c #4BCB4D",
"v. c #42C841",
"b. c #52CE4C",
"n. c #53C94B",
"m. c #4DD14D",
"M. c #54D24C",
"N. c #58D14E",
"B. c #4DCC52",
"V. c #4AC752",
"C. c #53C555",
"Z. c #53CD53",
"A. c #57CB59",
"S. c #4ED255",
"D. c #53D355",
"F. c #5BD453",
"G. c #5CD955",
"H. c #55D35A",
"J. c #5AD45A",
"K. c #5CDA5C",
"L. c #56DA5A",
"P. c #62DA56",
"I. c #63DC5B",
"U. c #69DE5D",
"Y. c #61D556",
"T. c #60CE5B",
"R. c #67E25D",
"E. c #5DDC61",
"W. c #5CD763",
"Q. c #5CC960",
"!. c #64D562",
"~. c #64DD63",
"^. c #6BDD67",
"/. c #78C97C",
"(. c #65CC6B",
"). c #66E367",
"_. c #7D8585",
"`. c #7E9A80",
"'. c #838383",
"]. c #8C8C8C",
"[. c #828A82",
"{. c #8C9696",
"}. c #949494",
"|. c #9B9B9B",
" X c #939993",
".X c #819682",
"XX c #93B595",
"oX c #9DA3A3",
"OX c #AAABAA",
"+X c #A2A2A2",
"@X c #A7BAA8",
"#X c #B2B3B2",
"$X c #BCBCBC",
"%X c #B5BCB5",
"&X c #D39898",
"*X c #FD8989",
"=X c #FF9191",
"-X c #F5B7B7",
";X c #E4ACAC",
":X c #91CE94",
">X c #A8D9AA",
",X c #B7C6B8",
"<X c #B1D2B3",
"1X c #B4E4B6",
"2X c #A7E0A9",
"3X c #BED2C0",
"4X c #BDE3C0",
"5X c #C3C3C2",
"6X c #CBCBCB",
"7X c #C1C9C6",
"8X c #C7D4C7",
"9X c #D4D4D4",
"0X c #D2DBDB",
"qX c #DCDCDC",
"wX c #D4DAD4",
"eX c #CED5D5",
"rX c #FECCCC",
"tX c #FADBDB",
"yX c #ECD7D7",
"uX c #CFE6D0",
"iX c #D8E5D9",
"pX c #CAEACB",
"aX c #E3E4E3",
"sX c #ECECEC",
"dX c #E3ECE3",
"fX c #FFE5E5",
"gX c #FFE8E8",
"hX c #EDF5ED",
"jX c #EAF7F6",
"kX c #F4F4F4",
"lX c #F3FCFC",
"zX c #FFFFFF",
"xX c #F4FAF5",
/* pixels */
"O.+.q.+.+.h.&.O.O.$.d.h.d.+.+.+.d.g.2.g.d.2.O.1.+.2.1.x.W.H.w.o.o.l.3.3.W.S.1.1.1.2.*.2.O.d.d.X...$...+.$.+.%.<.j.q.4.+.2.3.2.2.",
"+.+.2.+.2.d.2.+.+.2.d.h.x.h.+.+.2.1.d.d.1.O.1.d.2.d.2.2.l.z.B.l.2.2.2.2.V.x.1.g.d.*.g.*.O.O.&.h.k.h...$.%.+.2.<.q.q.q.w.2.3.3.4.",
"h.2.+.=.q.+.+.+.2.+.+.x.D.x.O.+.O.O.d.d.O.1.1.1.2.d.2.X.' 2.H.z.q.h.$.+.&.h.d.d.-.@.*.&.v.=...M.P.-.$.$.=.-.$...X.$.h.$.+.+.1.*.",
"D.x.+.+.$.+.+.h.+.+.+.D.K.c.O.2.2.O.1.g.O.d.d.O.2.4.2.<.o.B.E.C.h.c.k...O...&.&...@...=.b.k.$.k.R.P.-.=.k.N.v.$.+.%.&.&.&.+.2.d.",
").D.2.O.+.+.O.+.+.h.d.h.c.h.+.d.g.1.1.O.4.2.d.2.+.+.+.2.h.x.c.h.k.K.M.%...%.%.+.%.%.%.=.F.Y.n.n.P.R.F.k.N.P.k...*.+.+.*.+.+.*.&.",
"E.D.h.+.+.h.d.+.+.h.+. .#.O.+.2.d.2.2.<.^ w e w ~ 2.4.2.2.` `  .k.P.n.~ 5.q 5 7 ] +.%.-.n.P.P.I.P.R.P.F.P.Y.j...=.&.+.g.+.+.+.+.",
"d.h.&.+.h.c.x.+.2.h.+. .) O.d.O.1.d.4.,.8.y.y.7.:.,.o.2.2.[ ` O.l.B.| :.y.i.j e 8 ^ %.e.%.z.^.).U.r.n.T.Z.h.2.4.2.V.V.g.1.2.f.2.",
"_ #.O.+.j.H.c.+.+.@.+.d.+.d.$.O.O.2.| 5.p.qXaX8Xi.w ! 2.h.2.+.4.4.~ 9 g 5XaXqXl $ 3 | 0.( ] A.!.T.%.%.A.e./ [ 2.f.S.W.f.<.3.w.4.",
"X. .+.%.h.h.h.h.+.+.+.+.2.+.+.+.4.d.;.5 [.zXzXzX8Xi.q 0 0 Y Y Y 0 9 g OXzXzXzX6Xl 4 9 ^ <.} { { } Q R ] { <.2.2.f.f.f.f.3.1.3.f.",
"$.q.q.+.O.d.h.h.+.+.+.+.h.+.+.+.2.w.W @ '.kXzXzXxXwXx * # < < < # s $XkXzXzXzXxXaXl @ 9 0.<.{ R Q Q ] ' { 3.3.2.1.1.3.g.1.3.3.3.",
"+.+.q.h.$.+.+.X.+.+.+.+.d.$.+.+.| ^ d k #XqXqXaXzXzX$X'.i.i.i.z l OXkXzXsXqXaXzXzX}.O 1 o.2.+.4.o.o.%.o.X.+.=.+.O.+.+.+.2.d.3.X.",
"$.o.+.h.$.o.h.c.h.q.+.2.2.2.+.q.! 3 z 9XsX6X$X6XaXzXzXsXkXsXkXsXsXxXzXsX6X$X6XxXxX].X 2 o.2.d.2.e.0.q.q.q.o.+.2.O.O.h.x.x.d.X.1.",
"h.q.O.o.+.q.b.D.h.h.2.+.+.$.2.o.Y # '.xXzX5XOX3XaXzXzXzXzXzXzXzXzXzXzXsX5X#X$XsXsX].X 6 1.g.O.O.+.+.$.q.+.$.=.&...&.k.m.c.h.@.&.",
"%.2.%.+.l.D.x.[ +.+.+.+.+.+.+.o.0 # l sXzX0X7X0XsXzXzXzXzXzXzXzXzXzXzXjX9X7XeXlXlX].X 6 X.g.g.1.$.q.q.h.h.$.+...&.m.m.+. .&.&.+.",
"q.h.c.q.x.I.j./ O.+.+.h.+.+.2.o.E # k kXzXlXjXjXlXzXzXzXzXzXzXlXzXzXzXlXjXjXjXlXlX{.. 6 1.1.g.g.2.1.+.2.$.2.h.z.=.D.G. ./ +.d.+.",
"+.c.K.j.h.J.c.%.+.+.+.h.+.+.2.q.^ 2 f 3XyXtXtXtXtXtXtXtXtXtXfXfXfXfXfXfXfXfXtXtXyXH . 6 X.1.1.g.1.2.4.1.+.h.D.D.v.b.G.j...O.+.d.",
"+.o.4.+.O.X.2.2.2.d.m.S.x.d.*.h.>.! 9 p G P P P P K K K K P *X=X=X*X*X=X=XU I K K ,   7 O.O.+.1.1.2.2.2.2.<.q.q.<.2.+.q.+.X.+.h.",
"q.[ )  .X.` [ 2.2.x.K.).L.x.+.2.2.4.6 + ; b N m n n B m m m V S D D D L D F B N b ; + 7 o.d.*.2.2.2.3.2.2.o.[ ` X.[ ) X.2.o.q.x.",
"h.X. .O.4.o.X.+.+.x.E.).L.x.O.O.+.h.8   - b N n n n n n n n m B F S S S S V m N b ; + 6 X.2.2.1.O.+.4.2.2.+.o.X.2.o.X.2.d.+.c.L.",
"+.w.h.2.+.d.d.2.d.d.m.D.m.f.g.O.2.h.8   : Z F Z Z Z v v C Z Z L I U U U U Z v M C , + 6 X.4.2.3.2.+.+.2.2.2.q.h.2.q.h.2.+.+.m.D.",
"X.2.h.+.O.+.2.2.d.O.*.d.d.d.+.O...O.8   c ;X-X-X-X&X, > H -X-X-X-XrXrXrXrXH > G &XH X 6 <.4.f.3.+.+.O.+.d.+.+.+.O.+.2.+.+.&.h.d.",
"+.+.2.w.2.d.2.2.O.O.O.O.*.O.O.2.+.+.8 . l jXzXzXzX0Xr o }.zXzXzXzXzXzXzXzX_.o h 9X+X@ 7 <.3.1.1.X.+.x.B.x.d.2.h.+.+.+.2.&.d.*.O.",
"o.2.2.2.2.2.d.1.2.O.O.1.2.O.O.*.+.+.8 X _.lXzXzXzX0Xy % |.zXzXzXzXzXzXzXzX_.% x 0XoX% 6 1.1.1.O.+.d.S.D.c.2.O.2.h.+.*.d.2.*.O.+.",
"w.2.2.2.2.O.*.f.d.*.+.*.O.d.2.d.$.+.7 . z sXzXzXzXaX'.h %XzXzXzXzXzXzXzXzXOXh oXqX}.o 6 4.2.1.2.+.2.2.l.l.2.O.O.2.+.O.O.O.d.O.d.",
"2.q.2.2.+.O.2.d.d.2.g.*.O.d.d.+.2.+.8 . l sXzXzXzXxXqX9XsXzXzXzXzXzXzXzXzXsX9XaXsX].X 6 4.d.d.d.1.2.2.1.2.1.4.4.2.1.1.1.1.2.1.d.",
"+.q.q.2.d.2.1.O.g.*.2.O.d.*.+.+.+.+.7 + '.zXzXzXzXzXzXzXzXzXzXzXzXzXzXzXzXzXzXzXzX'.  3 X.O.d.g.2.2.4.2.3.1.1.1.1.2.2.1.1.O.O.d.",
"+.q.+.+.2.2.g.2.*.d.*.1.d.2.+.+.2.o.8 . l sXzXzXzXzXzXzXzXzXzXzXzXzXzXzXzXzXzXzXkX'.O 6 O.O.d.+.<.2.2.2.1.3.3.2.3.1.f.f.2.1.O.d.",
"q.2.+.4.2.+.1.g.d.g.d.+.+.h.d.O.q.2.T 2 s |.qXzXzXzXzXzXzXzXzXsX6X#X#X6XkXzXzXzXzX}.* 0 X.O.d.h.w.w.3.2.2.1.2.2.3.1.1.1.2.2.2.2.",
"q.q.%.w.d.2.O.1.O.O.*.O.2.D.D.+.+.o.o.9.w 4  XkXzXzXzXzXzXzXzXaX+Xk z OXsXzXzXzXhX X4 Y 2.4.X.c.J.j.4.d.h.2.2.h.2.2.O.+.2.+.2.2.",
"q.o.X.+.2.2.d.d.*.O.O.O.h.K.K.h.o.$.q.b.e.8 r }.9XzXzXzXzXzXzXaX$X}.|.5XkXzXzXaX#Xy.W | c.Z.+.B.~.H.x.w.2.$.2.2.O.2.2.+.+.O.+.+.",
"2.q.q.2.+.4.d.d.O.*.O.+.d.c.c.h.q.q.q.z.c.%.3 =  XdXkXsXsXkXzXzXkXsXhXkXxXxXxX,Xy.6.>.q.Z.A.z.A.~.I.b.$.X.+.+.O.O.+.+.+.d.h.h...",
"o.c.J.c.2.+.O.2.O.g.1.O.d.X.#.d.q.$.+.O. .O.! 8 8.XXXX'.'.OXsXzXzXzXzXxX1X>X2Xs.9.<.w.<.X.q.C.!.K.j.@.X.2.$.2.h.+.+.+.2.k.D.x...",
"l.B.B.l.2.2.1.O.1.1.2.d.O.` ` +.q.2.1.{ ` #.1.1.3.6.g y y k 5XkXzXzXkX1X/.C.w.w.d.+.q.+.( [ v.b.e.[ [ o.h.2.O.d.&.d.=.&.k.G.M.-.",
"~.3.` ` 4.f.d.f.1.3.2.2.O.O.4.4.<.2.2.2.1.<.1.1.1.6.y.}.].}.].#XqXaX<X/.V.2.1.2.2.2.2.q.q. ./ R ] } 0.2.2.d.+.O.*.m.L.-.-.G.R.P.",
").B.`  .d.l.d.1.1.d.d.O.4.d.d.2.4.2.2.3.3.f.3.<.,.8.@XxXkX6Xh k 6XwXXXs.Q.l.2.2.x.B.V.C.C.>.Q [ ) X.$.$.+.=.+.O.*.m.K.D.N.U.R.P.",
"S.S.h.O.2.d.d.O.O.1.d.1.2.2.2.2.l.2.2.1.1.1.>.6.t.>XqXzXzX9Xi i $XsX3X<X>X/.V.C.:X>X1X1X>Xu.q =.%.q.$.+.2.$.&.+.d.k.D.R.R.U.P.Y.",
"` X.1.2.d.2.2.1.d.1.d.d.2.O.+.2.2.2.2.+.2.O.^ d oXzXzXzXzX6Xj i $XzXzXzXzX1X/.:XpXxXzXzXkXl & O.+.h.d.+.O.+.w.q.o.[ o.A.^.T.e.%.",
"/ ` 2.f.d.2.+.O.1.d.d.1.2.d.2.1.2.2.2.2.2.X.E q @XzXzXzXzX6Xj i 5XzXzXzXzXxXpXpXkXzXzXzXxXl o 1.O.&.d.+.+.$.2.q.%.[ [ 0.C.n.%.] ",
"O.d.d.+.O.O.+.2.O.2.*.1.O.d.d.O.d.g.+.d.+.O.Y 3 i.qXxXzXzX9Xh i 5XzXzXkXaXsXzXzXzXzXzXsX$Xp # d.2.1.1.3.2.<.0.0.0.q.>.{ R R | 0.",
"2.2.+.2.+.+.+.O.d.*.+.d.+.O.O.*.2.1.O.d.+.O.! 3 u }.wXzXzXqXk h 5XzXzX9X+X#XzXzXzXzXzXOXy e W B.2.2.3.3.3.2.2.0.0.e.4.>.{ { >.w.",
"+.+.d.O.+.h.+.2.+.+.d.+.d.+.d.O.*.1.1.*.2.+.T 2 u l #X5X5X#X].|.wXzXzX%Xj j OX6XeX9X,Xf # T B.H.2.2.2.q.h.e.%.%.w.q.%.q.+.O.1.d.",
"O.O.O.+...+.O.+.d.2.h.O.O.+.O.2.d.*.*.O.1.X.0 # z #X|.j p l #XqXkXzXzX#Xa 4 s f j j f q T X.d.d.3.2.2.+.V.J.z.%.%.q.=...+.d.d.1.",
"+.2.+.+.+.2.2.+.O.$.d.+.+.+.+.| 9.a.(.V.*.+.9 & |.aX#Xj p ].qXzXzXzXzX%Xg q :.t e 3 9 ! 2.+.+.O.d.j.j.$.b.P.N.-.=.-.-.&.*.*.*.*.",
"$.h.2.h.h.+.$.O.+.h.2.2.d.2.*.w 7.XX1X:XC.w.w & ].zXaX7X5X9XlXzXzXzXzX,Xs.9.3.>.,.~ | <.2.2.2.+.+.Z.D.z.b.I.P.F.-.k.F.-.*.*.*.*.",
"w.+.2.B.Z.q.+.2.D.Z.2.O.+.d.d.e t l %X8X:X/.d & `.zXzXzXzXzXzXzXzXzXzXuXXXa.2.1.O.1.2.+.+.4.w.q.h.F.I.F.N.U.U.I.N.P.I.v.-.m.&.*.",
"h.+.2.x.x.z.q.h.E.J.2.X.O.d.d.~ 9 & h 5XiX<Xa @ H zXzXzXzXzXzXzXzXzXzXxXiX:Xr.2.1.d.2.+.+.d.q.+.h.j.N.~.Y.n.Y.U.R.F.b.=.-.M.m.*.",
"4.+.4.) +.D.B.w.H.J.2.+.2.2.2.4.T # * h }.k 4 * y  X9XzXzXsX$X+X+X6XzXzXzXuX:Xa.w.2.2.<.q.q.q.0.<.] 0.J.n.%.n.^.Y.e.[ } w.l.f.d.",
"4.+.2.) +.~.D.q.D.E.l.2.O.+.*.d.{ 6 @ O & o 5 3 # y OXzXzX9Xj & 4 i.wXzXzXzXiX:Xa.e.2.+.2.2.+.q.q.] } q.[ R %.e.q.X.[ >.w.3.3.3.",
"+.w.2.2.x.H.Z.q.b.Z.j.w.+.O.h...1.,.0 < 1 < 2 5 4 h ,XzXzX8Xt 1 6 d `.6XzXzXzXiX:Xa.3.2.1.O.O.d.q.2.X.) R _ R ' / ` o.q.q.q.<.q.",
"2.h.q.2.<.o.X.o.X.X.+.+...+.d.+.1.1.1.' >.' 6 % l 0XsXzXkX<XW } { ~ 5.p.9XzXzXzXsXXXr.w.d.O.2.2.w.2.4. .{ o. . .o.o.q.q.<.q.<.q.",
"+.4.2.2.X.` [ q.( [ X.$.2.2.2.2.1.g.d.g.O.*.6 X |.zXzXsX#Xx ^ h.d.2.,.5..X5XxXzXzX@X8.,.2.d.d.d.+.+.+.2.w.2.q.+.w.2.+.2.2.2.w.3.",
"2.+.2.<.o.+.%.q.o.o.q.h.4.2.2.2.g.g.O.2.1.X.2 X |.zXzXqXj # T $.2.d.+.^ d .XsXzXzX}.4 0 4.1.1.2.+.O.2.2.2.2.2.w.q.+.o.%.2.2.2.3.",
"+.*...+.+.+.2.+.q.+.2.3.4.2.2.3.2.g.O.*.*.X.1 X |.zXzXiXg 0 ] o.d.+.+.2.9.u.hXzXzX}.O 1 X.*.1.1.*.+.*.d.2.O.2.d.d.+.O.d.d.g.1.1.",
"O.+.&.&.+.+...q.q.<.2.3.2.w.4.3.*.d.*.O.*.X.1 @ '.sXaX%X6.c.q.+.+.q.+.h.C.r.8XaXaXl @ 8 O.g.d.*.d.O.+.+.2.2.2.2.+.2.O.*.2.2.1.2.",
"*.*.&.&.......h.q.+.2.V.H.f.3.3.2.&.*.+.d.X.6 . = k h f E q.b.n.O.=.2.+.j.6.j k k s w ~ 1.g.g.*.O.@.+.+.2.2.+.+.+.+.O.+.*.d.g.g.",
"=.v.&.@...&.=.O.+.+.4.S.W.V.4.3.+.d.d.O.O.X.0 # X X X # 0 j.P.z.h.x.h.X.+.0 # X X e | O.*.g.g.g.+.+.*.&.4.+.+.+.+.*.2.*.1.d.g.1.",
"G.M.$.......=.$.$.o.$.D.E.V.4.2.d.O.+.d.O.O.d.O.1.3.1.<.2.A.J.z.v.H.x.+.h.+.+.h.q.O.&.d.O.*.g.g.$.$.2.$.q.q.$.+.h.+.=.+.O.*.2.1.",
"R.G.k.%.=.k.k.$.%.$.+.q.+.4.2.3.4.2.h.h.+.O.1.1.4.3.2.2.2.q.+.o.c.E.D.+.O...+.O.2.+.2.d.*.O.*.O.+.c.c.q.X.w.c.c.$.+.+.+.2.d.1.O.",
"~.~.~.n.b.G.b.$...=.&. ./  .f.2.2.d.2.2.d.d.2.f.1.3.3.3.2.X.)  .x.L.m.*.O.+.q.%.+.%.2.+.g.d.g.1.q.J.J.h.q.x.A.Z.%.+.+.q.+.h.+.+.",
").I.~.J.G.I.N.$.$.+.+.X. .4.f.2.2.2.2.c.D.c.2.2.1.3.4.2.2.<.X.+.d.v.d.+.+.+.h.h.+.q.+.+.1.d.g.g.$.Z.A.h.V.Z.q.[ +.%.q.$.&.+.+.O.",
"C.A.!.^.!.z.e.q.q.$.+.+.d.d.+.d.+.+.k.c.h.h.+.<.4.f.3.1.d.3.1.2.*.O.+.+.+.$.q.q.+.$.2.2.1.1.g.g.l.H.H.w.H.W.1.` +.%.q.+.O.+.+.+.",
"! e.(.^.Z.|  .%.%.$.+.O.d.2.O.1.O.h.D.h.) [ +.q.3.3.3.2.d.2.O.*.g.*.d.+...q.+.$.q.+.2.2.1.O.O.O.l.H.A.q.V.Q.w.2.X.q.$.$.+.+.q.$.",
"! ;.9.e.>.} %.0.q.q.d.2.O.2.d.d.O.=.L.M...@.2.o.2.2.4.2.d.O.O.+.O.*.*.+.2.$.q.j.Z.q.+.2.g.O.1.1.2.3.3.4.<.2.w.h.%.2.h.c.c.+.+.+.",
"! ! Q ! ] 9.e.q.o.+.d.h.d.2.d.1.&.&.D.D.z.h.%.q.<.2.2.2.O.O.*.g.*.O.*.+.2.o.+.Z.K.q.+.2.2.g.g.1.<.` ' 4.{ ' <.<.q.%.h.K.K.$.O.O."
};
