/* XPM */
static char *result[] = {
/* columns rows colors chars-per-pixel */
"22 32 31 1 ",
"  c black",
". c #010101",
"X c gray2",
"o c gray4",
"O c #101010",
"+ c #151515",
"@ c gray11",
"# c #1D1D1D",
"$ c #2C2C2C",
"% c gray18",
"& c #313131",
"* c #343434",
"= c gray21",
"- c #373737",
"; c gray23",
": c #3F3F3F",
"> c #4E4E4E",
", c gray33",
"< c #585858",
"1 c #5A5A5A",
"2 c #606060",
"3 c gray42",
"4 c gray46",
"5 c #767676",
"6 c #D80000",
"7 c #FF4949",
"8 c #959595",
"9 c gray77",
"0 c gray96",
"q c white",
"w c None",
/* pixels */
"wwwwwwwwwwwwwwwwwwwwww",
"wwww*wwwwwwwwwwwwwwwww",
"www#qq%wwwww=q wwwwwww",
"www.q9qX    q9q wwwwww",
"www q99qqqqqq99q wwwww",
"www q99qqqqqq99q wwwww",
"www.qqqqqqqqqqqq wwwww",
"wwww 66666777766 wwwww",
"wwww 66666677766 wwwww",
"wwww qqq qqqqq q wwwww",
"wwww qqq qqqqq q wwwww",
"wwww qqqqqqqqqqq wwwww",
"wwww qqqqqqqqqqq wwwww",
"wwwwwOqqqqq33qqq&wwwww",
"wwwwwwXqqqqqqqq5wwwwww",
"wwwwwwww4;qqqwwwwwwwww",
"wwwwwwwwqq;q8wwwwwwwww",
"wwwwwwwqqq-qqqwqqwwwww",
"wwwwww@qqq-qqqqqqwwwww",
"wwwwwww<qq<qq<qq1wwwww",
"wwwwww+0::qqqq 2wwwwww",
"wwwwwww qqqqqqqq,wwwww",
"wwwwwww qqqqqqqqq>wwww",
"wwwwwww qqq   oqq$wwww",
"wwwwwww qq wwwwqq#wwww",
"wwwwwww.qqwwwwqqq+wwww",
"wwwwwww.qqwwww   wwwww",
"wwwwwww.qqwwwwwwwwwwww",
"wwwwwwwqqqwwwwwwwwwwww",
"wwwwww qqqwwwwwwwwwwww",
"wwwwwww   wwwwwwwwwwww",
"wwwwwwwwwwwwwwwwwwwwww"
};
