/* XPM */
static char *result[] = {
/* columns rows colors chars-per-pixel */
"64 64 231 2 ",
"   c #0C160B",
".  c #0F1C10",
"X  c #141C14",
"o  c #151A18",
"O  c #0F0D06",
"+  c #182418",
"@  c #153717",
"#  c #0E3010",
"$  c #1A2923",
"%  c #232823",
"&  c #273928",
"*  c #353A35",
"=  c #5B0F0F",
"-  c #6B0000",
";  c #6A1919",
":  c #5C2020",
">  c #782F2F",
",  c #19431B",
"<  c #1A541D",
"1  c #254926",
"2  c #235725",
"3  c #375738",
"4  c #315232",
"5  c #1D6322",
"6  c #1F6822",
"7  c #216623",
"8  c #226B25",
"9  c #256529",
"0  c #267A2A",
"q  c #346737",
"w  c #37773A",
"e  c #2D6E31",
"r  c #1E5120",
"t  c #3C7F40",
"y  c #3F4848",
"u  c #465C47",
"i  c #5C5C5C",
"p  c #575855",
"a  c #424F4F",
"s  c #486949",
"d  c #58765A",
"f  c #4C734D",
"g  c #686968",
"h  c #687568",
"j  c #697871",
"k  c #727272",
"l  c #7A7B7A",
"z  c #747A75",
"x  c #745757",
"c  c #B70D0D",
"v  c #C90000",
"b  c #D50000",
"n  c #DC0000",
"m  c #CC1717",
"M  c #EA0101",
"N  c #E80505",
"B  c #F11A1A",
"V  c #CD2727",
"C  c #DA3535",
"Z  c #D72D2D",
"A  c #FE3434",
"S  c #FF3F3F",
"D  c #ED3030",
"F  c #A05E5E",
"G  c #976969",
"H  c #DC4E4E",
"J  c #E65E5E",
"K  c #F24C4C",
"L  c #E96363",
"P  c #F46464",
"I  c #FE7575",
"U  c #2A842E",
"Y  c #279D2A",
"T  c #2C8A31",
"R  c #37823A",
"E  c #2D9332",
"W  c #2F9F31",
"Q  c #36993A",
"!  c #26A52A",
"~  c #2BA42D",
"^  c #2BAA2E",
"/  c #20A123",
"(  c #2DAC32",
")  c #2CA433",
"_  c #32A434",
"`  c #33AC34",
"'  c #34AC3A",
"]  c #39AD3C",
"[  c #36A539",
"{  c #32B235",
"}  c #3BBC37",
"|  c #35B43B",
" . c #3AB53C",
".. c #36BB3D",
"X. c #3BBC3E",
"o. c #38BB35",
"O. c #2FB133",
"+. c #40843F",
"@. c #41BD3C",
"#. c #41B93A",
"$. c #3CC13D",
"%. c #37C13A",
"&. c #43C23E",
"*. c #48C53D",
"=. c #3D9041",
"-. c #3DAD43",
";. c #3BB442",
":. c #36BC42",
">. c #3CBD42",
",. c #3EBD49",
"<. c #39B744",
"1. c #428646",
"2. c #459948",
"3. c #5C865E",
"4. c #519556",
"5. c #4D9951",
"6. c #44AC47",
"7. c #42B644",
"8. c #41BD43",
"9. c #42BC4A",
"0. c #47B84A",
"q. c #54BA58",
"w. c #50AA55",
"e. c #678769",
"r. c #768677",
"t. c #79967B",
"y. c #5DB862",
"u. c #5CAD61",
"i. c #6DB071",
"p. c #3CC142",
"a. c #3EC149",
"s. c #36C142",
"d. c #42C244",
"f. c #49C546",
"g. c #4BCA44",
"h. c #44C349",
"j. c #4BC54B",
"k. c #46C94A",
"l. c #4BCB4D",
"z. c #42C841",
"x. c #52CE4C",
"c. c #53C94B",
"v. c #4DD14D",
"b. c #54D24C",
"n. c #58D14E",
"m. c #4CCB52",
"M. c #4AC853",
"N. c #53C554",
"B. c #53CD53",
"V. c #57CB5A",
"C. c #4FD255",
"Z. c #53D355",
"A. c #5BD453",
"S. c #5CD955",
"D. c #55D35A",
"F. c #5AD45A",
"G. c #5CDA5C",
"H. c #56DA5A",
"J. c #62DA56",
"K. c #63DC5B",
"L. c #69DE5D",
"P. c #61D556",
"I. c #60CE5B",
"U. c #67E25D",
"Y. c #5EC563",
"T. c #5DDC61",
"R. c #5CD763",
"E. c #64D562",
"W. c #64DD63",
"Q. c #6BDD67",
"!. c #76C97B",
"~. c #6DC872",
"^. c #66E367",
"/. c #7D8585",
"(. c #7ECD83",
"). c #838483",
"_. c #8B8C8B",
"`. c #879588",
"'. c #8C9696",
"]. c #939493",
"[. c #9B9C9B",
"{. c #9CA49C",
"}. c #8DB48F",
"|. c #9DA3A3",
" X c #ACACAC",
".X c gray63",
"XX c #A7B7A7",
"oX c #B2B2B2",
"OX c #BCBCBC",
"+X c #B4BAB4",
"@X c #D39898",
"#X c #FD8989",
"$X c #FF9191",
"%X c #F5B7B7",
"&X c #E4ACAC",
"*X c #85D788",
"=X c #8EC592",
"-X c #97CA9A",
";X c #9EC3A1",
":X c #A3CCA5",
">X c #A7D9A9",
",X c #B8C3B9",
"<X c #B7D6B8",
"1X c #AEE2B1",
"2X c #BDE1C0",
"3X c #C3C3C3",
"4X c #CACBCA",
"5X c #C3CAC6",
"6X c #CAD6CA",
"7X c #CED4D3",
"8X c #D4D4D4",
"9X c #D2DBDB",
"0X c #DCDCDC",
"qX c #FECCCC",
"wX c #FADBDB",
"eX c #ECD7D7",
"rX c #CAE7CC",
"tX c #D9E6DA",
"yX c #D6EBD8",
"uX c #DFE8E0",
"iX c #E3E3E3",
"pX c #ECECEC",
"aX c #E3ECE4",
"sX c #FFE5E5",
"dX c #FFE8E8",
"fX c #E7F4E8",
"gX c #E9F7F7",
"hX c #F3F4F3",
"jX c #F4FAF4",
"kX c #F3FCFC",
"lX c #FFFFFF",
/* pixels */
"..X.8.X.X.d.&.....X.d.p.d.>.X.X.p.:.:.p.p.s.:...>.p.:.h.G.D.9. .<.,.<.h.R.C.:.:.>.:.p.s...p.p.| } &.X.X.@.X.@.;.h.9.>.X.,.,.>.<.",
"X.X.>.X.X.>.>.X.X.8.p.d.k.p.X.X.>.s.p.p.:...X.:.X.p.>.,.9.k.m.f.>.>.>.>.M.k.:.s.p.%.%.:.X...$.z.f.&...@.@. .#.;.8.8.9.>.>.<.,.>.",
"d.>.X.&.d.X.X.X.X.X.X.k.Z.k...X.:...p.p.....>.:.>.p.>.| ) 9.V.j.d.&.@.X.X.d.p.$.&.} o.&.*.$.@.x.J.*.@.#.&.*.@.} ..@.d.$.%.X.X.p.",
"Z.k.X.X.X.X.X.d.X.X.X.C.G.k...p.>.....:...p.p.:.>.X.>.;. .m.T.m.d.l.g.X.} X.$.$.} o.o.&.v.g.@.g.U.S.*.*.g.b.*.@.} #.X.&.$.X.X.p.",
"^.Z.>...X.X.X.X.X.d.p.d.l.d.X.p.p...:.....>.p...>... .>.d.k.l.h.g.G.b.@.X.$.} @.#.#.#.*.A.P.c.c.J.U.P.*.n.J.f.} $.X.....X.X.X.%.",
"T.Z.d.X.X.d.p.X.X.d.X.{ { ..p.X.s.p.>.<.Q w q w Q >.X.>.>.{ ( { g.G.c.Q +.3 1 7 _ #.@.&.x.J.J.J.J.U.P.P.J.J.f.X.$.p.%...X.X.X.p.",
"p.d.$.X.d.l.k.X.X.d.X.{ ^ ..X...:.>.>.-.4.e.e.3.=.=...>.>.` ( ..h.m.[ +.e.r.h 4 8 Q 7.8.#.j.Q.Q.L.q.c.I.B.9.X.>.>.k.k.a.<.,.,.<.",
"/ O...X.f.D.l.X.X.....d.X.X.d.....>.[ 1./.0X0X6Xr.w E >.>.>.;.>.>.Q 9 d 3XiXiXr.@ 2 Q 7.W _ V.E.I.#.#.N.8.~ { >.a.D.R.a.:.>.h.>.",
"o.{  .8.p.d.d.d.X.X...@.X.X.X.X.>.>.=.1 `.lXlXlX4Xr.q 0 0 U U U 0 9 d oXlXlXlX8Xl 3 2 Q ;.] ' ' ] W W _ ' | ,.>.:.a.a.a.,.,.,.a.",
"8.8.8.X...$.d.d.X...X.>.d.X.X.X.,.0.R $ ).hXlXlXjX7Xj & @ , , , @ u +XhXlXlXlXhXiXl + 9 ;.;._ ) W W W W ' ,.9.>.:.:.:.>.,.:.,.,.",
" .X.@.d.@.X.X. .@.X.X.X.>.8.X.X.[ Q f k oX0X0XpXlXlXOX).r.r.r.l l  XhXlXpX0XiXlXlX].o < ] >.>.X. . .#. . .X.X.X.....X.>.>.>.:.<.",
"@.X.X.d.8. .k.l.d.8.X.X.&.X.>.8.E 2 e.8XpX4XOX4XaXlXhXhXpXhXhXpXpXhXlXpX8XOX5XhXjX_.X < ] >.>.>.8.7.8.8.@.X.X.p.>.X.d.k.k.>.....",
"d.8. .X.X.8.B.Z.d.d.X.X.X.X.>. .U @ ).jXlX5XoXOXiXlXlXlXlXlXlXlXlXlXlXaX5XoXOXhXpX_.+ 5 | :.:.:.;.X.8.@.X.@.&.} $.$.g.v.k.d.%.$.",
"X.#.X.X.d.Z.d.` X.X.X.X.X.X.X. .0 @ l hXlX9X5X9XfXlXlXlXlXlXlXlXlXlXlXhX9X3X7XkXkX_.X 5 O.s.s.:.8.8.8.d.8.@.$.X.X.k.b.} { $.$.X.",
"8.d.j.@.k.K.f.~ ..X.X.d.X.X.>. .U @ z jXlXkXgXgXkXlXlXlXlXlXlXkXlXlXlXkXgXpXgXkXkX'.X 5 <.s.:.:.>.:.X.>.@.>.d.l.&.A.S.{ ! X.d...",
"@.l.G.f.d.F.l.@...X.X.d.X.X.8.>.Q < d 3XeXwXwXwXwXwXwXwXwXwXsXsXdXsXsXsXsXsXwXwXeXG . 5 ( :.s.s.:.<.>.:...f.Z.Z.z.l.S.f.} X...p.",
">. .>.X. ...>.>.p.a.l.C.k.p.p.p.] E e p F J P L L J J J J L #X$X$X#X#X$X$XI P J J > O 7 | ....:.<.>.>.>.>. .>.8.;.>.X.8.>.| X.>.",
">.` ! { | ( ( >...k.G.^.H.k.X.p.>.>.6 O - v M b b n n N n n B A S S S K S D N M v - O 7 | p.%.p.p.>.>.>.,. .' ( | ` !  .>.X.d.k.",
"d.| { ..>.| | >.X.l.T.^.H.k.%...>.d.8   = v M b b b n b b b n N D A A A A B M M v - O 7 ] >.<.>.X...<.>.8.X. .| 8. .{ $.d.X.k.H.",
"X.9.h.>.>.d.p.X.%.a.v.Z.v.a.....X.8.8   ; C D C C Z c c V C C K P I I I I C c m V > O 5 ' :.:.,.>.>.X.>.>.>.>.d.X.9.d.p.X.$.l.Z.",
"| >.>.>.| >.>.>.p...X.p.p.p.....X...8   x &X%X%X%X@X> : G %X%X%X%XqXqXqXqXG : F @XG X 7 ;.<.,.,.X.X...$.p.X.X.X...X.>.....X.p.p.",
"X.>.8.8.>.>.p.>.........%.X.....X...8 . z gXlXlXlX7Xa o ].lXlXlXlXlXlXlXlX/.o g 9X.X+ 7 -.:.:.:.| X.k.m.k.>.>.d.X.X.>.>.$.d.%.X.",
"X.>.>.>.>.>.>.:.p.....:.:.X.>.p.X.X.8 X /.kXlXlXlX9Xa $ [.lXlXlXlXlXlXlXlX/.$ j tX|.$ 7 ;.:.:...X.p.C.C.l.>...>.d.X.p.%.>.%.X.X.",
"9.X.>.>.>...%.a.p.%.X...>.%.%.p.@.X.6 X z pXlXlXlXiX_.g +XlXlXlXlXlXlXlXkX Xg [.0X].+ 2 ;.>.:.:.X.>.>.h.h.>...X.>.X.......p...p.",
">.8.>.>.>...:.p.p.%.p.:...p.p.X.X.@.7 . l pXlXlXlXhX0X8XpXlXlXlXlXlXlXlXlXpX8XiXhX_.X 7 | p.p.p.>.>.>.:.>.:.,.:.>.:.:.:.:.:.>.X.",
"X.8.>.>.p.>.>...s...:.%.X.p.X.X.X.X.7 O ).lXlXlXlXlXlXlXlXlXlXlXlXlXlXlXlXlXlXlXkX).  2 ' :.p.>.>.<.:.>.<.:.:.:.>.:.>.:.:...:.p.",
"8.>.X.X.>.p.p.>.s.p.X...p.X...X.X.X.8 X l pXlXlXlXlXlXlXlXlXlXlXlXlXkXlXlXlXlXlXjX).o 7 { :.d.X.| >.,.>.<.>.,.>.,.:.:.a.>.:...p.",
"8.8.X.>...>...:...p.p.%.>.d.p...>.X.T 2 s {.iXlXlXlXlXlXlXlXlXpX4XoXoX8XhXlXlXlXlX[.% 8 | ..p.p.h.h.>.>.,.>.>.<.,.:.:.a.p.>.>.>.",
"8. .X.8.>.>...:.s...%.>.>.C.Z.X.X.X.| #.w s {.hXlXlXlXlXlXlXlXiX.Xk z  XpXlXlXlXjX].4 0 ;.>.| l.D.j.>.>.9.>.X.d.>.>.X.X.>.X.X.>.",
"8. . .X.>.>.p.p.%.......d.G.G.d. .@.d.B.q.R f .X0XlXlXlXlXlXlXaX+X].[.3XhXlXlXiX+Xd w _ m.m.X.l.W.D.f.9.>.@.p.>...>.>.X...X.X.>.",
"8.9.8.8.>.X.p.p...%.....a.l.l.d.@.8.8.f.k.;.0 u {.fXjXfXhXjXlXlXhXpXhXhXjXjXjX+Xe.=.-.7.B.V.j.V.Q.K.B.X. ...X.....X.X.X.X.d.d.X.",
" .l.Z.l.>...:.>...p.:...X.o.O.p.8.8.X. .{ o.[ 0 4.}.;XXX{.+XpXlXlXlXlXjX1X>X>Xi.2.-.>.@.| 7.N.W.G.f.{ o.>.@.>.d.X.X.X.$.k.C.g.} ",
"h.m.M.a.>.>.:...:.:.>.p...! ( :.8.>.<.{ ( { :.<.,.0.i.t.r.`.3XhXlXlXjX<X!.N.h.,.9.>.>.>.~ ` f.c.j.` _  .d.>...p.$.p.$.$.g.U.b.*.",
"W.h.( { <.p.a.a.<.s.,.>.:.<.>.>.;.,.>.>.:.<.:.:.:.h.i.XXXX{.]. XiXaX<X!.M.p.:.p.>.>.8.>.8.{ ! Y _ ' #.8.X.>.X...%.v.S.*.*.S.J.S.",
"^.M.( { p.h.p.:.:.p.p...>.>.p.>.>.>.<.p.a.a.,.:.9.y.:XhXhX3Xk k 3XtX-Xi.Y.h.>.>.k.N.N.0.7.X.` ` ^  .8.X.>.d.X...%.v.T.Z.n.L.U.L.",
"C.m.d...>.p.p.....>.>.:.>.>.>.>.>.,.>.>.:.:.,.V.!.>XtXlXlX8Xi i OXpX6X>X1X!.9.N.*X>X>Xi.1.X.8.8.#.@.X.8.@.X.$.X.p.g.S.G.U.U.P.P.",
"( | :.>.>.>.>.:.s.:.p.p.>...X.>.>.>.>.X...:.p.Y.>XfXlXlXlX4Xg i 3XlXlXlXkX1X!.*XrXjXlX[.u >.>...X.d.d.X...X.8.8. .`  .V.Q.J.0.#.",
"! { >.p.p.X.X...>.p.p.:.>.>.>.X.>.>.>.>.p.:.9.y.<XkXlXlXlX4Xi i 3XlXlXlXlXgXrXyXjXlXlX_.* >.X.X.X.X.>.>.X.X.>.8.8.` ` 9.c.q.#._ ",
"..p.p.X.....p.>.>.%.%.:.:.p.X...s.p.X.p.X.X.6.w.}.0XjXlXlX8Xg i OXlXlXpXpXpXlXlXlXpX5Xh 1 X.>.>.p.:.:.>.>.<.7.7.7.7.-.) Y W [ 7.",
">.>.X.>.X.X.X.X...:.X.p.%.....p.>.:...p.p.X. .6.h ].8XlXlX0Xk g 3XlXlX8X[.+XjXlXlX Xp 4 0 d.C.l.>.:.,.,.>.8.,.7.7.9.<.-.' ) -.0.",
"X.X.@.X.X.>.X.X.X.X.p.X.p.X.>...%.:.%.:.X.X. .=.d l  X3XOX X].[.0XlXlX+Xg h +X6X6Xh # U | a.C.H.>.>.>.9.d.0.#.#.8.8.@.@.>...:.p.",
"......X.X.X.X.X.>.p.d...X...>.>.>.%.p.s.s.X.Q t t.oX[.g p l oX0XhXlXlX+Xi y d t.t.=.T ( ..p.a.p.>.>.X.7.l.F.0.#.#.8.@.X.X.>.p.:.",
"X.X.X...X.>.p.X...@.p.X.X.X.X.E -.Y.~.y.9.>.E q [.pXoXg p _.0XlXlXlXlX,X3.=.=.5.w.-...p.X.>.X.| p.d.z.@.x.K.b.*.*.*.*.&.%.%.%.%.",
">.d.d.d.d.X.X.X.>.d.>.>.p.X.%.2 s {.<X:Xy.7.Q 1 ].hXiX3X3X0XhXlXlXlXlX<Xu.w.0.9.9.>.:.>.>.>.p.>.X.Z.Z.c.x.K.U.n.*.g.n.*.%.%.%.%.",
"d.X.9.m.B.8. .>.Z.m.>.X.X.p.>.1 4 l  X8X<Xi.4.& ).lXlXlXlXlXlXlXlXlXlXrX}.y.>.:.| ..>.X.X.>.9.8.d.P.J.A.n.L.Q.J.b.J.J.g.*.v.p.%.",
"d.X.>.d.l.k.d.d.T.F.>.| ..>.>.U 1 % g +XuX:Xp % ).hXlXlXlXlXlXlXlXlXlXjXaX=Xq.p.:.p.>.X.>.>.8.X.d.f.A.W.P.c.P.L.U.J.l.&.*.b.v.%.",
">.X.>.( X.Z.m.8.D.F.>.X.>.>.>.' U # * k ].z % + r.lXlXpX3X.X.X.X.X3XkXlXlXrX=X(.(.Y.9.;.>.8.8.8. .` 7.F.c.#.c.Q.P.0.` ] 9.h.a.p.",
">.;.>.~ X.T.Z.9.Z.G.h.>.>...>.p.` 0 @ o % o   % ].lXlX0Xg % % % % g 8XlXlXlXaXaXfX:Xy.7.8.>. .8.7._ ] 7._ Y #.f.0.{ _ ;.9.,.,.,.",
">.9.>.>.h.F.B.>.B.B.f.8.X...&.X.s.-.0 < #   * r.3XlXlX5X3 r < < 2 2 r.6XlXlXlXlXlXrX}.u.6...>.>.>.>.| ~ Y / Y ! ! `  .8.8.8.<.7.",
">.>.8.>.>. . . .{  .X.X.X.X.p.X.:.s.:.) 6 # k tXhXlXlX<X2.] [ ' ' T w r.0XlXlXlXlXlXuX}.5...>.p.d.>.>.| ' | { ' |  .#.8.<.8.9.8.",
">.X.,.>.| ^ ` @.~ `  .>.>.>.p.>.:.:.p.%.0 $ '.lXlXlXlXrXq.8.p.8.X.>.Q 1./.6XlXlXlXlXkX[.s s.>.s.>.X.:.>.>.9.>.X.9.8.X.@.X.>.>.,.",
">.>.X. . . .>.9. .o.8.8.X.>.>.>.s.s.:.:.6 o _.lXlXlXlXaX!.X...$.>.>.X.Q 1.t.0XkXlXlXhX).+ >...>.X...X.>.,.>.8.9.d.X. .X.>.>.,.,.",
"..X.X.X.X.X.X.@.8.X.>.,.;.<.<.>.%.:.%.| 2 . ].lXlXlXlXfX*Xl.#. .8.X.X.>.6.1.r.3XlXlXlXl O :.%.s.X...%.>.>...>.>.p.X...p.p.p.:.:.",
"....$.$...} X.@.9.>.>.,.,.,.,.,.p.p.....5 o l 0XiXpXiXtX*XZ.d.@.X.p.X.d.Z.=.4 z 8XpX0Xk + s.s.:.%.X.X.p.>.>.>.>.X.X...p.>.:.:.:.",
"%.%.$.%.} } X.d.@.X.<.M.C.h.,.,.%.>.%.| 6   * k k k k h 2.&.x.j...>.>.X.f.7.U 3 g k k u e s.s.s.X.} X.X.>.>.X.X...X.X...s.%.s.s.",
"*.p.&.%.} &.$.}  .X.<.D.R.h.,.,.X.>.p.{ 0 #   . X X X @ 0 f.G.j.d.g.d...X.X.X.8 + X o q =.s.%.%...X.%.X.>.X.X.X.X.%.%.X.:.p.p.:.",
"S.b.@.} } } *.X.@.X.X.Z.T.M.<.a.>.X.>.d...{ p...:.>.>.<.9.B.A.l.z.F.l.X.p.X.X.d.8.X.p.p...%.s.s.@.8.@.X.8.8.>.@.d.@.@.X.X.p.....",
"U.A.g.} *.g.g.@.X.@.@.X. .<.,.>.>.>.p.d.p...%.:.a.,.<.>.>.8. . .l.G.Z.X.X.X.X...X. .X.p.:.%.s...X.l.l.8. .8.l.l.8.X.X.X.p.p...>.",
"W.W.K.B.x.F.c.@.#.&.X.{ ! { p.>.8.>.>.>.a.p.:.a.:.,.<.,.,.{ ( { k.C.v.$...@.@.X.8.X.X.X.s.p.s...8.A.F.h.>.j.B.B.X.X.@.X.X.d...X.",
"^.W.W.A.G.K.n.@.X.@.X.} { >.a.>.>.X.>.l.Z.l.>.>.:.,.<.<.,.:.{ X.p.k.p.%.X.X.8.d.X.@.>.X.:.p.s.s.8.B.B.h.M.B.8.' X.#.@.8.X.>.X...",
"N.I.E.Q.P.N.0.@.@.@...X.>.>.>.p.X.X.k.l.d.d.X.;.,.a.<.>.p.p.>.p.p.%...p.X.X.@.8.X.@.>.>.s.:.:.s.d.D.D.9.V.R. .(  .@.@.X.X.X.X.X.",
"E 0.Y.Q.N.' { @.@.8.X.X.p.>...s...p.Z.z.^ `  .8.,.,.<.>.a.>.........%.X.X.&.@.8.8.X.>.>.........h.D.V.9.M.R.9.>. .>.@.8.X.X.X.&.",
"E [ 6.0.6.] #.8.>.8.p.X.X.>.>.p.} d.S.Z.} o.X.@.>.>.>.>.X.....%.%.s.%.X.>.8.@.f.B.8.>.>.:.....s.<.,.,.<.<.<.9.9.X.@.8.x.k.X.X.X.",
"E E Q E Q 7.6.8.;. .p.d.p.>.p.:.p.%.Z.Z.g.d.X.7.>.<.,.>.....s.:.%...X.X.X.X. .B.G.8...>.p.s.a.s.<.( ! ;.| ~ ;.;.>.#.d.K.H.d....."
};
