/* XPM */
static char *result[] = {
/* columns rows colors chars-per-pixel */
"22 32 36 1 ",
"  c black",
". c #010101",
"X c #020202",
"o c gray1",
"O c gray2",
"+ c #060606",
"@ c gray4",
"# c gray6",
"$ c #101010",
"% c #131313",
"& c gray9",
"* c gray10",
"= c #1D1D1D",
"- c #282828",
"; c #343232",
": c #343434",
"> c gray21",
", c #373737",
"< c gray22",
"1 c gray23",
"2 c #3F3F3F",
"3 c gray25",
"4 c gray26",
"5 c gray30",
"6 c #4E4E4E",
"7 c #585858",
"8 c #5D5D5D",
"9 c #656565",
"0 c gray42",
"q c #D80000",
"w c #FF4949",
"e c #A2A2A2",
"r c gray77",
"t c gray96",
"y c white",
"u c None",
/* pixels */
"uuuuuuuuuuuuuuuuuuuuuu",
"uuuuu;uuuuuuu>ouuuuuuu",
"uuuuuyy3uuuu=yy uuuuuu",
"uuuu yyy%.. yyyy uuuuu",
"uuu&yrryyyyyyrry uuuuu",
"uuu yrryyyyyyrry uuuuu",
"uuu yyyyyyyyyyyy uuuuu",
"uuuu qqqqqwwwwqq uuuuu",
"uuuu qqqqqqwwwqq uuuuu",
"uuuu yyy yyyyy y uuuuu",
"uuuu yyy yyyyy y uuuuu",
"uuuu yyyyyyyyyyy uuuuu",
"uuuu yyyyyyyyyyy uuuuu",
"uuuuu-yyyyy00yyy>uuuuu",
"uuuuuu*yyyyyyyy9uuuuuu",
"uuuuuuuue8yyyuuuuuuuuu",
"uuuuuuuuyy1yuuuuuuuuuu",
"uuuuuuuyyy,yyyuyy<uuuu",
"uuuuuuuyyy,yyyyyy$uuuu",
"uuuuuuu7yy7yy7yy uuuuu",
"uuuuuu%t22yyy6uuuuuuuu",
"uu+rruXyyyyyyuuuuuuuuu",
"uuu rrOyyyyyyyuuuuuuuu",
"uuuu +#yy  @yyyyuuuuuu",
"uuuuu yyyuuu4yyyy5uuuu",
"uuuuu yyyuuuuuyyy uuuu",
"uuuuu yyyuuuuu:yy uuuu",
"uuuuu    uuuuuu  uuuuu",
"uuuuuuuuuuuuuuuuuuuuuu",
"uuuuuuuuuuuuuuuuuuuuuu",
"uuuuuuuuuuuuuuuuuuuuuu",
"uuuuuuuuuuuuuuuuuuuuuu"
};
