/* XPM */
static char *result[] = {
/* columns rows colors chars-per-pixel */
"64 64 238 2 ",
"   c #0E1C0E",
".  c #0B1309",
"X  c #111309",
"o  c #0F1B10",
"O  c #141C14",
"+  c #181C1A",
"@  c #110D04",
"#  c #0D210E",
"$  c #19271A",
"%  c #1A381C",
"&  c #132222",
"*  c #292C2A",
"=  c #263827",
"-  c #333A34",
";  c #5A0000",
":  c #6C0000",
">  c #651A1A",
",  c #781A1A",
"<  c #7B3737",
"1  c #164519",
"2  c #1B551E",
"3  c #1C611F",
"4  c #21631E",
"5  c #1E5D20",
"6  c #274528",
"7  c #245B26",
"8  c #334534",
"9  c #375539",
"0  c #1D6321",
"q  c #1D6C21",
"w  c #206523",
"e  c #226C25",
"r  c #256829",
"t  c #27762A",
"y  c #2D6B30",
"u  c #346A36",
"i  c #2D7932",
"p  c #367A39",
"a  c #3F5547",
"s  c #3F7C43",
"d  c #545454",
"f  c #5D5D5D",
"g  c #505D50",
"h  c #465348",
"j  c #4D6D4E",
"k  c #636363",
"l  c #696B6B",
"z  c #727272",
"x  c #7B7B7B",
"c  c #757975",
"v  c #62706A",
"b  c #6C5C59",
"n  c #BC0909",
"m  c #C70202",
"M  c #D50000",
"N  c #DC0000",
"B  c #CF1616",
"V  c #EB0000",
"C  c #E70505",
"Z  c #F61717",
"A  c #DA2929",
"S  c #D73030",
"D  c #EA2929",
"F  c #FA2A2A",
"G  c #FE3434",
"H  c #E73A3A",
"J  c #897070",
"K  c #AA6A6A",
"L  c #954B4B",
"P  c #FF4444",
"I  c #F75959",
"U  c #E86C6C",
"Y  c #FC6B6B",
"T  c #EB7272",
"R  c #F57373",
"E  c #DF6868",
"W  c #289C2B",
"Q  c #2E8632",
"!  c #2D9732",
"~  c #329C35",
"^  c #36993A",
"/  c #308933",
"(  c #26A52A",
")  c #2BA42D",
"_  c #29A92C",
"`  c #2DA332",
"'  c #2DAC32",
"]  c #2BA334",
"[  c #31A535",
"{  c #33AC34",
"}  c #35AC3B",
"|  c #39AD3B",
" . c #3AA739",
".. c #33B235",
"X. c #3BBC37",
"o. c #35B43B",
"O. c #3AB53C",
"+. c #36BB3D",
"@. c #3ABC3E",
"#. c #38BB35",
"$. c #2FB133",
"%. c #41BD3C",
"&. c #41B93A",
"*. c #41A83F",
"=. c #41903F",
"-. c #37C13E",
";. c #3CC13D",
":. c #39C136",
">. c #43C23E",
",. c #48C53D",
"<. c #3E8342",
"1. c #3CAB42",
"2. c #3BB343",
"3. c #37BD42",
"4. c #3CBD42",
"5. c #3EBD49",
"6. c #3CB746",
"7. c #468A48",
"8. c #469849",
"9. c #538857",
"0. c #539657",
"q. c #44AC4A",
"w. c #42B644",
"e. c #41BD43",
"r. c #43BD4A",
"t. c #48B94A",
"y. c #4DA653",
"u. c #4DB952",
"i. c #56AF5A",
"p. c #5E9161",
"a. c #648666",
"s. c #768777",
"d. c #78987A",
"f. c #6C916E",
"g. c #5DB861",
"h. c #66A868",
"j. c #71B675",
"k. c #3CC142",
"l. c #3DC149",
"z. c #36C142",
"x. c #42C244",
"c. c #49C546",
"v. c #4BCA44",
"b. c #44C349",
"n. c #4BC54B",
"m. c #46C94A",
"M. c #4BCB4D",
"N. c #42C841",
"B. c #52CE4C",
"V. c #53C94B",
"C. c #4DD14D",
"Z. c #55D24C",
"A. c #4DCC52",
"S. c #4AC752",
"D. c #53CC53",
"F. c #56C857",
"G. c #4FD255",
"H. c #53D355",
"J. c #5BD453",
"K. c #5CD955",
"L. c #55D35A",
"P. c #5AD45A",
"I. c #5BDA5C",
"U. c #56DA5A",
"Y. c #62DA56",
"T. c #63DC5B",
"R. c #67DB5B",
"E. c #60CE5B",
"W. c #67E25D",
"Q. c #5DDC61",
"!. c #5CD763",
"~. c #5ECB60",
"^. c #64D562",
"/. c #64DD63",
"(. c #6BDD67",
"). c #74CA77",
"_. c #72CC73",
"`. c #66E367",
"'. c #7D8484",
"]. c #7ED183",
"[. c #858585",
"{. c #8C8C8C",
"}. c #8D9595",
"|. c #939393",
" X c #9B9C9B",
".X c #969A96",
"XX c #8E988E",
"oX c #86A288",
"OX c #99A399",
"+X c #94BB97",
"@X c #A2A2A2",
"#X c #ADADAD",
"$X c #A2AEA2",
"%X c #AABBAB",
"&X c #B4B4B4",
"*X c #BBBBBB",
"=X c #B0B8B1",
"-X c #9EA5A5",
";X c #FF9999",
":X c #FC8D8D",
">X c #F3ACAC",
",X c #EFAFAF",
"<X c #D38F8F",
"1X c #87D289",
"2X c #9FD0A2",
"3X c #A7C4A8",
"4X c #A2D9A5",
"5X c #B8C9B9",
"6X c #B8D4BA",
"7X c #ADE3B0",
"8X c #8DE48C",
"9X c #BFCDC4",
"0X c #BEE6C0",
"qX c #C3C3C3",
"wX c #CCCCCC",
"eX c #C6CDC6",
"rX c #C7D4C7",
"tX c #D4D5D5",
"yX c #DCDCDC",
"uX c #D3DDDA",
"iX c #CCD2D2",
"pX c #FFC6C6",
"aX c #F1DCDC",
"sX c #C7E5C9",
"dX c #D9E6DA",
"fX c #DAF4DB",
"gX c #E4E4E4",
"hX c #EBEBEB",
"jX c #E9EAE6",
"kX c #FBE5E5",
"lX c #FFEDED",
"zX c #EDF5ED",
"xX c #E9F5F5",
"cX c #F4F4F4",
"vX c #F5FEFE",
"bX c #FFFFFF",
"nX c #F5FAF5",
"mX c #D2E0E0",
/* pixels */
"+.@.e.@.@.x.@.+.+.@.x.k.x.4.@.@.z.3.4.k.z.k.3.4.+.4.4.b.!.L.e.O.2.l.6.x.!.G.3.3.z.3.k.-.+.k.k.+.X.>.@.%.@.@.%.4.r.e.4.2.4.5.4.6.",
"@.@.4.@.@.x.e.@.@.%.k.x.m.k.@.@.3.3.k.k.3.+.3.4.@.4.4.6.e.M.D.b.4.4.4.4.m.m.l.3.k.@.-.+.@.+.-.x.c.%.+.%.%.O.&.2.e.e.e.4.4.5.3.4.",
"x.4.@.>.x.@.@.@.k.@.@.m.H.m.+.@.+.3.k.4.+.6.4.3.4.k.4.o.' 6.L.n.x.x.%.@.%.x.k.-.>.X.X.:.N.>.X.Z.Y.,.%.&.,.,.&.X.+.%.>.k.-.@.4.k.",
"H.m.@.@.@.@.@.e.@.@.@.G.I.m.+.4.3.1.^ p p / 1.o.4.@.6.4.O.A.!.A.x.M.c.*.8.^  .+.X.X.:.>.B.v.%.v.W.K.,.,.v.Z.,.%.@.&.@.>.@.@.@.k.",
"`.H.%.@.@.@.@.@.@.x.k.x.M.x.@.k.k.^ <.a.a.p.<.! o.3.+.e.x.m.A.x.c.Y.t.y.h.9.t ) &.X.&.,.J.K.V.V.Y.W.J.,.J.Y.c.@.;.@.+.+.;.@.@.;.",
"Q.H.x.@.@.x.4.@.@.x.@.....+.4.@.k.u a.eXtXiXd.u / 4.+.@.@.{ ' ..m.V.=.f.5XXX= 4  .&.&.,.V.Y.R.Y.Y.W.Y.J.Y.K.,.@.;.;.-.-.@.@.;.@.",
"k.;.k.@.x.M.m.@.@.x.@..._ +.;.@.3.6 s.cXbXbXqXs.y t t t t q q e i i 9.=XhXwXJ 9 r ^ w.w.%.n.(.(.R.V.V.E.D.e.4.3.4.m.S.l.3.4.5.4.",
"( ' +.@.m.H.M.@.@.+.@.x.@.4.4.+.2.% x hXbXgXjXwXv $ # # # # # #   h =XjXgXjXtX[.% 7 ^ w.) [ F.^.E.*.*.E.c.) } 4.k.L.!.l.2.4.5.6.",
"....O.e.x.x.x.b.@.@.+.@.%.@.@.@.4.$ z gXcXtXgXgX#Xc z z z z z z z @XhXbXtXyXhXqXx a 7 ^ 2.| } }  .) W [ } 2.6.4.3.l.b.l.5.5.5.5.",
"x.x.e.@.#.@.x.x.@.+.@.4.e.@.@.@.4.$ z gXcXwXqXiXgXgXgXhXjXgXgXhXgXcXbXhXwX*XiXcXyXx $ r 2.2.[ ) ~ ` ~ [ { 5.x.4.3.3.3.3.5.3.5.5.",
"O.@.%.e.e.O.+.#.%.@.+.%.;.e.4.@.@.$ z gXnXeX#XqXhXbXbXbXbXbXbXbXbXbXbXgXwX&XqXnXbX|.O 2 | 4.4.4.&.| O.O.o.@.@.@.3.+.@.@.4.4.3.2.",
"%.&.@.x.e.@.m.M.x.e.@.@.4.@.k.x.@.$ c hXbXtXqXtXxXbXbXbXbXbXbXbXbXbXbXcXiX9XwXvXvX|.O 5 | 4.4.4.t.e.e.e.%.4.@.>.4.@.x.m.m.4.+.3.",
"x.%.O.@.@.e.D.H.x.x.4.4.@.%.4.x.4.% c nXbXxXxXxXvXbXbXbXbXbXbXbXbXbXbXvXxXxXxXbXvX}.$ 0 o.+.+.+.O.@.e.e.%.e.;.X.;.:.v.C.M.N.+.;.",
"@.@.%.@.x.H.x.{ @.@.@.%.@.@.@.@.O.7 k rXjXkXkXkXkXkXkXkXkXkXlXlXlXlXlXlXkXkXkXkXaXJ O 0 o.+.z.3.e.e.%.x.e.%.;.@.@.M.Z.@.$.;.;.@.",
"e.x.n.e.M.T.c._ +.+.@.@.@.@.@.@.4.Q u k K U R T U U U U U T :X>X;X;X;X;X;X:XT R E < X 0 o.3.z.z.4.3.3.4.%.4.x.M.>.J.K...( @.x.+.",
"%.m.I.n.x.P.m.&.@.@.k.x.@.@.e.x.e.} e . : m V N N N N N N N F G P P P P P F C C m : @ 0 } 3.3.z.3.4.6.+.@.x.H.H.N.M.K.c.X.@.+.@.",
"@.O.4.O.+.o.4.4.-.x.M.G.M.k.4.k.x.o.e . ; n V M M M N N N M N C F F G G G Z C V m : @ w o.@.+.+.4.4.6.4.2.4.4.6.4.4.@.4.4.o.4.e.",
"e.{ _ o.o.' ' 4.@.m.I.`.U.b.@.4.4.2.e . > A D A A A m n B S A H I Y Y Y Y S B B A , X w o.k.-.k.4.4.4.4.4.O.{ { O.[ ) #.4.O.k.m.",
"k.o.o.o.4.o.+.4.@.M.Q.`.U.N.-.+.4.2.e X b ,X>X>X>X<X< > K >X>X>X,XpXpXpXpXK > L <XJ O 0 } 4.5.6.@.o.4.4.e.@.@.O.4.#.o.4.x.@.M.U.",
"@.x.x.4.4.x.4.@.-.l.C.H.G.l.-.+.@.O.e o z cXbXbXvXtXh + }.bXbXbXbXbXbXbXbX'.+ v tX.X$ 0 } 4.3.3.4.@.@.4.4.4.4.e.@.x.e.e.@.@.M.U.",
"o.4.x.4.o.4.4.4.k.+.+.k.k.k.@.+.@...e   x vXbXbXbXmXa & }.bXbXbXbXbXbXbXbX'.& v uX@X$ w 1.3.l.5.4.@.+.-.x.@.@.@.+.%.4.+.#.k.x.k.",
"O.4.4.4.4.4.4.k.+.+.+.+.-.+.+.+.@.} e   c hXbXbXbXyXx k &XbXbXbXbXbXbXbXbX@Xk .XyX|.+ w 2.3.3.3.+.@.m.A.m.4.4.k.@.@.@.@.;.k.@.+.",
"@.4.4.e.4.4.k.+.-.@.+.+.-.@.@.k.@.| e O x hXbXbXbXcXyXwXjXbXbXbXbXbXbXbXbXgXiXyXhX{.+ 0 1.3.3.+.+.l.A.H.M.4.+.4.x.4.-.k.4.-.+.-.",
"e.4.4.4.3.+.+.b.k.k.+.+.k.@.4.-.@.O.w . [.bXbXbXbXbXbXbXbXbXbXbXbXbXbXbXbXbXbXbXcX[.o 0 2.4.3.4.@.@.4.b.b.4.+.@.4.+.@.+.+.4.@.-.",
"4.e.4.4.3.+.@.k.z.z.k.+.@.k.k.@.@.O.e o c cXbXbXbXbXbXbXbXbXbXbXbXbXbXbXbXbXbXbXcX[.O 0 2.z.k.k.3.4.4.4.3.4.3.3.4.3.3.3.3.3.4.3.",
"4.e.4.4.k.4.3.4.@.-.-.+.4.-.@.@.@.O.Q 2 g #XyXbXbXbXbXbXbXbXbXcXwX*X*XtXcXbXbXbXbX.X* e } 3.k.4.6.4.3.4.4.6.3.3.4.4.4.4.3.+.3.k.",
"w.4.@.@.4.k.4.3.k.k.@.+.4.4.@.@.e.@.| ~ r 9 @XnXbXbXbXbXbXbXbXgX@Xz x #XhXbXbXbXcX.X9 Q o.+.l.@.o.6.5.4.3.3.5.6.3.5.3.l.4.3.@.4.",
"e.e.@.4.@.4.+.4.-.-.k.k.@.x.k.+.e.@.+.x.^ w h @XyXbXbXbXbXbXbXgX&X{.|.*XcXbXbXhX5Xa.p ~ +.+.-.x.b.x.4.4.6.5.5.4.3.3.3.5.4.4.4.4.",
"e.@.2.e.4.4.3.3.+.+.-.@.k.G.H.@.O.@.@.M.D.1.2 -  XcXvXcXcXvXbXbXcXgXgXcXcXbXnX5Xd.8.2.O.e.4.o.n.P.m.2.4.e.e.4.k.4.4.3.@.4.@.@.4.",
"e.O.#.@.4.4.k.k.-.+.+.+.x.U.I.x.O.%.e.D.I.H.! 3 7.+X3X$X X#XhXbXbXbXbXxXsX7X4X].y.2.4.4.A.A.@.A./.P.M.e.4.4.4.4.+.@.4.@.+.@.4.@.",
"e.e.e.e.4.@.k.k.+.-.+.@.x.C.M.x.%.e.e.n.M.x.4.2.2.y.h.f.f z qXcXbXbXnXsX].F.u.r.e.o.2.e.A.F.n.F.`.T.B.@.#.O.@.@.@.@.@.@.@.N.>.@.",
"O.M.L.M.4.@.3.+.+.z.+.+.@.o.$.k.e.%.@.#...+.k.k.k.q.d.OX|.{.|.&XgXjX5X1Xu.+.@.4.4.4.4.4.O.e.D./.P.c.| #.4.%.4.k.@.@.@.;.n.G.v.@.",
"b.A.A.b.4.4.3.3.4.6.4.k.+._ ' 3.e.4.o.o.' $.3.5.6.0.%XcXcXqXl z eXdX+Xj.F.l.3.k.m.m.A.r.[ ..x.B.n.| ) @.x.@.+.z.;.k.,.;.v.W.v.,.",
"/.l.' ' 4.l.4.l.3.3.3.4.3.+.2.4.4.6.4.5.3.3.6.u.h.2XdXbXbXtXb f *XjX5X4X4X_.u.F.).4X4X).i...( W `  .&.e.e.k.@.+.-.C.U.N.>.K.W.Y.",
"`.S.' o.4.l.k.3.3.k.k.+.4.4.k.4.4.6.4.3.5.3.1.0.%XbXbXbXbXwXk k qXbXnXbXvX6X].].6XnXnX3Xj.@...{ ) O.e.e.@.x.@.+.:.C.T.B.Z.R.W.R.",
"G.A.e.@.4.k.k.+.3.4.4.3.4.4.4.4.x.4.6.5.3.3. .j %XbXbXbXbXwXk f qXbXbXbXbXzX9XrXzXbXbX5Xh.>.e.e.%.%.%.@.@.@.>.@.k.v.H.`.W.R.Y.J.",
"} o.3.k.4.4.k.+.3.3.k.z.@.+.4.4.4.4.4.4.3.+.! u d.gXnXbXbXiXk k qXbXbXcXgXhXbXbXbXcXdX+Xh.4.4.+.@.e.x.@.@.@.e.e.@.[ O.F.(.R.t.*.",
"( ' 3.k.k.@.4.+.k.k.4.4.4.4.4.@.4.4.4.4.4.+.^ i g .XyXbXbXyXz l qXbXbXtX.X&XbXbXbXwXXXh.t.4.4.@.+.;.k.@.@.@.4.w.e.{  .e.F.V.*.[ ",
"+.4.k.@.+.+.@.k.+.k.-.+.-.k.k.+.z.k.+.k.@.@.~ y g {.*XwXwX&X{.|.tXbXbXqX{.[.&XqXeXoX9.q.6.4.4.k.k.4.3.5.6.4.e.e.w.w.2.[ W W | e.",
"x.k.@.@.@.@.@.@.+.+.k.k.+.+.+.k.4.3.+.k.4.+.! y f.&X@Xl f '.#XyXcXbXbXgXwX[.d g p.0.1.2.@.m.G.A.6.3.3.5.4.6.6.w.t.e.6.1.} [ 2.w.",
"+.@.4.@.@.4.@.@.@.@.4.@.k.@.@.+.-.+.k.+.-.-. .7.d.&X.Xf d [.tXbXbXbXbXbXbX#Xd h p.y.6.k.+.b.G.H.4.4.4.e.e.t.&.&.e.%.%.e.@.@.4.k.",
"+.+.@.@.@.@.@.@.k.4.x.+.+.@.-.k.-.k.-.+.4.@.6.q.j f |.*X*XwXcXbXbXbXbXbXbXgX&X#X3Xd.8.2.3.k.l.k.4.4.4.4.A.P.n.&.&.e.%.@.@.4.k.3.",
"@.4.@.@.@.%.k.@.+.%.k.@.@.+.@.k.+.4.4.4.e.u.u.u.u $ {.bXbXbXbXbXbXbXbXbXbXbXbXbXbX5Xf.8.1.4.@.o.4.n.c.%.B.R.Z.,.%.,.,.:.:.:.:.-.",
"%.x.@.x.x.@.@.+.@.x.k.4.k.k.@.@.k.6.4.4.u.g.~.h.9 + |.bXbXbXbXbXbXbXbXbXbXbXbXbXbXcXrXd.7.4.k.4.@.D.H.n.B.Y.Y.J.v.V.Z.,.:.:.:.-.",
"e.4.4.A.D.4.@.4.D.D.6.+.4.4.4.4.-.6.6.k.w.i.g.i.9 * XXbXbXbXbXbXqX#X#X#X#X#X@XwXnXbXbXOXj k.x.e.x.J.R.J.J.R.W.R.J.Y.T.v.k.C.k.:.",
"x.4.4.x.M.n.r.x.I.I.4.o.@.4.4.+.-.4.@.@.4.w.t.q.7 * |.bXbXbXbXiXk * * * * * - {.xXbXbX.Xh k.6.%.x.c.J./.E.V.Y.R.R.K.v.>.N.K.C.:.",
"4.4.4.' @.H.M.e.L.I.4.4.4.4.4.4.4.-.-.z.-.3.6.6.i = |.bXbXhX*Xc 6 1 1 1 1 2 s oXhXbXcX{.9 e.e.e.2.[ 2.P.V.&.V.(.P.t.{ } w.S.l.3.",
"4.O.4.) @./.L.e.H.I.b.4.+.+.4.k.@.-.@.z.@.@.3.4.i = |.bXbXtXk % t [ ] [ 1.2.t.1XzXbXcX{.6 @.@.e.e.{  .e.{ W &.t.%.O.{ 1.5.5.r.5.",
"3.x.4.2.n.L.D.4.B.D.n.e.@.+.>.@.z.z.3.3.3.3.4.O.i 6 .XbXbX5X7 e } @.+.3.k.b.).7XnXbXbX{.= +.@.4.4.4.o._ W W ( ( ( ' O.e.e.w.4.w.",
"6.4.r.e.2.#.O.O.| #.@.4.@.@.;.@.3.z.z.5.4.3.4.} r 6  XbXbX5X8.} 4.@.3.k.3._.fXzXnXcXgXx = +.4.k.e.e.3.o.} O.$.} O.O.e.e.w.4.6.e.",
"4.4.4.4.o.' { e.) ` @.e.4.4.4.4.3.4.-.k.4.+.4.o.t 6 OXbXbXrXi.N.4.k.k.4.4.h.{.[.[.{.'.j i 4.3.k.4.@.4.4.x.4.e.4.e.4.@.O.4.4.5.5.",
"+.@.4.@.O.O.@.e.O.#.e.e.4.4.4.4.z.3.-.@.4.k.4.o.t 6 .XbXbXsX_.>.4.k.6.3.z.Q % O O O $ r 1.4.4.4.@.+.@.4.6.4.6.e.e.4.@.%.4.4.5.4.",
"@.@.@.@.@.@.%.4.e.4.4.5.2.6.6.4.4.-.@.-.;.;.k.+.t 1 XXbXbXfX).@.4.e.@.@.m. .e 2 0 0 q ! @.z.-.-.@.+.-.k.@.+.4.4.k.@.+.-.k.z.3.3.",
"+.+.k.;.@.+.@.%.e.4.4.5.5.4.5.3.-.k.+.-.-.-.k.O.i 9 OXbXbXfX).&.@.k.k.x.H.A.4.o.o.o.o.4.-.z.k.+.-.+.@.4.4.4.4.4.4.@.@.k.4.4.3.4.",
":.@.:.:.X.X.@.x.%.4.3.S.G.5.5.5.4.;.-.@.-.k.4.q.p..XiXbXbXfX1Xm.+.k.@.@.m.x.k.@.4.@.+.+.-.z.z.-.@.X.X.@.4.4.@.@.+.@.@.+.+.k.z.3.",
"N.N.;.X.X.>.;.X.@.O.2.L.!.S.5.5.@.k.-.+.+.+.1.8.+XbXbXbXbXfX8Xv.x.c.x.+.@.k.@.x.@.4.-.+.-.z.z.-.+.@.;.@.4.@.@.@.@.@.-.@.-.k.z.-.",
"K.Z.&.X.X.X.,.%.%.O.@.D.!.S.4.5.4.+.4.k.+.o.Q a =XbXbXbXbXfX8Xn.N.P.m.@.>.@.@.x.e.@.4.k.+.-.z.z.%.e.%.@.e.e.@.@.x.@.%.@.@.k.+.3.",
"W.K.v.@.,.v.c.@.@.%.%.@.@.6.5.4.4.4.k.x.@.o.0 $ x tXtXtXtX6Xj.O.M.I.H.@.@.@.@.+.@.@.@.k.+.-.-.+.@.M.M.e.O.e.M.B.%.@.@.@.k.k.+.+.",
"T././.B.B.I.B.%.%.%.;...( o.4.4.4.e.4.4.k.6.t % - d d d d j ^ { m.U.C.-.+.%.%.@.%.@.4.@.z.k.3.+.e.J.P.b.4.n.F.D.%.@.@.e.@.x.@.@.",
"/./.R.P.I.Y.Z.%.@.%.@.X.$.4.l.4.4.@.4.M.H.m.~ w % O O O O % Q @.k.b.;.-.@.@.e.x.@.e.@.@.k.z.z.z.e.D.H.b.S.D.e...@.&.%.%.4.@.@.+.",
"F.~.^.(.^.n.t.%.%.%.@.@.k.k.+.k.@.@.m.M.x.k.@.4.4.x.3.5.k.l.@.-.-.+.@.-.@.%.e.e.@.%.4.4.3.+.z.z.r.L.L.r.G.!.6.' O.%.%.@.@.@.@.@.",
"W t.~._.V. .| &.%.e.@.+.4.4.+.4.@.e.H.N._ { O.e.4.5.6.6.k.4.+.4.-.@.-.@.@.%.4.%.e.@.4.4.3.+.+.3.x.L.L.w.S.L.5.6.O.@.e.e.@.+.@.>.",
"/ 1.w.q.w. .w.e.e.e.k.4.@.3.3.k.+.>.U.C.X.X.%.2.6.4.4.4.@.+.+.-.-.+.-.@.4.%.%.n.D.e.@.4.3.+.z.+.6.l.5.2.2.2.r.e.@.%.x.B.M.@.@.@.",
"! ! ~ ! ~ q.w.e.O.O.k.x.4.k.k.4.;.-.J.J.M.x.@.%.4.6.4.4.+.+.-.-.;.+.@.@.4.@.O.D.P.x.@.4.4.z.l.z.o.] _ 6.2.) 2.2.e.&.x.I.I.e.#.+."
};
