/* XPM */
static char *result[] = {
/* columns rows colors chars-per-pixel */
"64 64 234 2 ",
"   c #0F1A0E",
".  c #0B1309",
"X  c #111309",
"o  c #0F1A10",
"O  c #141C14",
"+  c #161A18",
"@  c #110D04",
"#  c #182619",
"$  c #19391A",
"%  c #172721",
"&  c #222422",
"*  c #2D2D2D",
"=  c #243725",
"-  c #343734",
";  c #5A0000",
":  c #6C0000",
">  c #651A1A",
",  c #781A1A",
"<  c #7B3737",
"1  c #164518",
"2  c #18471A",
"3  c #1A521D",
"4  c #1A561E",
"5  c #1E5922",
"6  c #1F4221",
"7  c #274727",
"8  c #225824",
"9  c #39473A",
"0  c #2F5831",
"q  c #365836",
"w  c #30592E",
"e  c #1D6321",
"r  c #1F6823",
"t  c #216424",
"y  c #236B25",
"u  c #246D29",
"i  c #267929",
"p  c #366338",
"a  c #357738",
"s  c #3F5447",
"d  c #3D7E41",
"f  c #475748",
"g  c #535353",
"h  c #5D5D5D",
"j  c #494C4C",
"k  c #596759",
"l  c #577458",
"z  c #4B724D",
"x  c #636363",
"c  c #696B6A",
"v  c #69776A",
"b  c #7A7B7B",
"n  c #747674",
"m  c #607070",
"M  c #6C5C59",
"N  c #BC0909",
"B  c #C70202",
"V  c #D50000",
"C  c #DC0000",
"Z  c #CF1616",
"A  c #EB0000",
"S  c #E70505",
"D  c #F61717",
"F  c #DA2929",
"G  c #D73030",
"H  c #EA2929",
"J  c #FA2A2A",
"K  c #FE3434",
"L  c #E73A3A",
"P  c #897070",
"I  c #AA6A6A",
"U  c #954B4B",
"Y  c #FF4444",
"T  c #F75959",
"R  c #E86C6C",
"E  c #FC6B6B",
"W  c #EB7272",
"Q  c #F57373",
"!  c #DF6868",
"~  c #2A852D",
"^  c #289D2A",
"/  c #2E8533",
"(  c #36863A",
")  c #2D9831",
"_  c #369939",
"`  c #31912D",
"'  c #26A52A",
"]  c #2AA42D",
"[  c #2BAA2E",
"{  c #20A123",
"}  c #2DA333",
"|  c #2DAC32",
" . c #2BA334",
".. c #31A434",
"X. c #33AC34",
"o. c #34A23A",
"O. c #34AC3A",
"+. c #39AC3C",
"@. c #3AA73C",
"#. c #33B235",
"$. c #3BBC37",
"%. c #35B43B",
"&. c #3AB53C",
"*. c #36BB3D",
"=. c #3ABC3E",
"-. c #39B735",
";. c #2FB133",
":. c #41BD3C",
">. c #41B73A",
",. c #37C13E",
"<. c #3CC13D",
"1. c #39C136",
"2. c #43C23E",
"3. c #48C53D",
"4. c #3C9843",
"5. c #3E8C41",
"6. c #3CAE42",
"7. c #38AA40",
"8. c #3BB442",
"9. c #37BD42",
"0. c #3CBD42",
"q. c #3EBD49",
"w. c #3CB746",
"e. c #449848",
"r. c #578959",
"t. c #4D9952",
"y. c #4B904F",
"u. c #42B544",
"i. c #41BD43",
"p. c #43BD49",
"a. c #48B94A",
"s. c #4EB251",
"d. c #678A6A",
"f. c #749B76",
"g. c #728A74",
"h. c #5FA162",
"j. c #65AA68",
"k. c #6EBB71",
"l. c #3CC142",
"z. c #3DC149",
"x. c #36C142",
"c. c #42C244",
"v. c #49C546",
"b. c #4BCA44",
"n. c #44C349",
"m. c #4BC54B",
"M. c #46C94A",
"N. c #4BCB4D",
"B. c #42C841",
"V. c #52CE4C",
"C. c #53C94B",
"Z. c #4DD14D",
"A. c #55D24C",
"S. c #4DCC52",
"D. c #4AC752",
"F. c #53CC53",
"G. c #56C858",
"H. c #4FD255",
"J. c #53D355",
"K. c #5BD453",
"L. c #5CD955",
"P. c #55D35A",
"I. c #5AD45A",
"U. c #5BDA5C",
"Y. c #56DA5A",
"T. c #62DA56",
"R. c #63DC5B",
"E. c #67DB5B",
"W. c #60CE5B",
"Q. c #67E25D",
"!. c #5DDC61",
"~. c #5CD763",
"^. c #5ECB60",
"/. c #64D562",
"(. c #64DD63",
"). c #6BDD67",
"_. c #76C679",
"`. c #72CA74",
"'. c #66E367",
"]. c #7D8585",
"[. c #7FC984",
"{. c #848484",
"}. c #8B8C8B",
"|. c #89998A",
" X c #8C9696",
".X c #949494",
"XX c #9C9C9C",
"oX c #969C97",
"OX c #95B796",
"+X c #8BA88D",
"@X c #9FADA3",
"#X c #ACACAC",
"$X c #A3A4A3",
"%X c #ACB7AD",
"&X c #B3B3B3",
"*X c #BBBCBB",
"=X c #FF9999",
"-X c #FC8D8D",
";X c #F3ACAC",
":X c #EFAFAF",
">X c #D38F8F",
",X c #8AD28C",
"<X c #9DDDA0",
"1X c #A1D9A4",
"2X c #B7C8B8",
"3X c #AFD3B1",
"4X c #AFE3B2",
"5X c #8DE48C",
"6X c #BFC8C3",
"7X c #BFDBC0",
"8X c #C3C3C3",
"9X c #CDCDCD",
"0X c #C5CCC6",
"qX c #CDD2D2",
"wX c #D4D5D5",
"eX c #DBDBDB",
"rX c #D4DDD9",
"tX c #C8DAC9",
"yX c #FFC6C6",
"uX c #F1DCDC",
"iX c #DAF4DB",
"pX c #CBE5CC",
"aX c #E4E4E4",
"sX c #EBEBEB",
"dX c #E5EAE4",
"fX c #FBE5E5",
"gX c #FFEDED",
"hX c #ECF5EC",
"jX c #E8F6F6",
"kX c #F4F4F4",
"lX c #F4FEFE",
"zX c #FFFFFF",
"xX c #F4FAF5",
"cX c #D2E0E0",
/* pixels */
"*.=.i.=.=.c.0.=.*.=.l.c.l.0.=.=.l.9.l.l.l.9.9.=.=.0.=.m.~.P.i.%.8.p.0.n.~.H.9.9.=.9.<.,.*.l.l.#.=.2.=.=.:.&.:.&.c.i.w.=.0.q.q.9.",
"=.=.0.=.=.c.=.=.=.i.l.c.b.z.=.=.9.9.l.l.*.*.9.l.9.c.0.0.p.m.S.m.0.0.0.0.D.M.x.9.l.=.<.9.=.*.<.v.b.<.=.:.:.=.0.w.i.i.i.i.0.w.0.9.",
"c.0.=.2.l.=.=.0.=.=.=.M.P.N.*.=.=.*.l.9.*.9.9.9.9.z.q.%.| 0.P.m.c.c.:.$.<.<.l.l.:.$.$.2.2.2.$.V.T.3.:.>.2.3.>.=.&.:.2.<.=.=.0.0.",
"J.M.=.=.:.=.=.l.=.=.=.J.Y.b.*.0.9.*.9.=.4.d a ( @.&.9.8.&.S.!.S.c.N.v._ a q 7 y ] -.$.3.Z.b.2.b.Q.L.3.2.b.A.3.:.=.:.=.c.<.=.=.l.",
"'.J.i.*.*.=.=.=.=.l.l.c.N.c.9.l.0.9.=.6.t.d.d.r.e._ &.z.c.M.N.c.v.T.a.( r.v k w i ` >.>.K.L.C.C.T.Q.K.v.K.T.b.$.<.=.=.*.=.=.<.<.",
"!.J.c.=.=.i.:.*.=.c.l.#.;.*.0.=.0.0.6.e.f.tXqX0Xf.a _ i.9.X.[ [ b.a.a l 2XeXwXb # 3 ` >.C.T.E.E.T.E.T.K.T.K.v.$.<.<.<.9.=.=.=.=.",
"l.c.<.=.c.N.M.=.0.c.=.#.[ *.<.=.9.9._ q |.zXzXzX8Xg.a i ~ ~ i ~ / a l $XzXzXzX8Xc 9 3 _ >.m.(.).E.C.s.E.F.i.=.0.0.M.D.x.8.9.q.9.",
"{ ;.*.=.b.P.S.=.=.*.=.:.=.l.l.%.9.%.i $ {.kXzXzXkX9Xl $ $ $ 1 1 $ f %XsXzXzXzXxXeXn # u ` ] G./.W.>.>.W.a.] X.9.z.H.~.n.9.q.p.0.",
"-.#.=.i.l.c.c.v.=.=.=.=.0.=.=.=.9./ p x #XeXeXsXzXzX&Xb c n v v c XXsXzXsXaXaXzXzX.X+ 8 @.+.X.O.+.) ^ ..O.8.0.0.z.z.z.z.q.9.q.q.",
"i.:.i.=.*.<.c.c.=.-.=.:.0.=.=.=.0.w g.wXsX9X8X9XaXzXkXsXdXaXsXsXdXkXzXkXqX8X9XkXkX}.+ t 6.w.X. .] ..) ..O.0.p.0.9.9.9.0.q.q.q.q.",
"&.=.:.i.:.=.*.%.=.=.=.=.=.c.:.0.=.7 {.kXzX8X&X8XaXzXzXzXzXzXzXzXzXzXzXsX8X&X*XsXsX}.O e +.0.9.=.>.>.&.&.-.w.l.=.*.=.9.=.9.0.9.8.",
":.=.=.c.i.&.M.N.v.0.=.0.<.=.0.c.0.# b kXzXwX6XqXsXzXzXzXzXzXzXzXzXzXzXsXqX6XqXlXxX}.+ e +.0.0.z.a.u.i.i.:.=.=.0.*.=.c.M.b.0.*.9.",
"c.i.=.=.=.i.S.J.c.c.0.0.=.i.=.c.0.# b kXzXjXjXjXlXzXzXzXzXzXzXzXzXzXzXlXjXjXjXzXlX X# e %.*.*.*.&.0.i.i.=.i.2.$.<.<.b.Z.N.l.=.<.",
"=.&.:.&.v.J.v.X.*.=.=.:.=.=.=.=.=.7 l 9XsXfXfXfXfXfXfXfXfXfXgXgXgXgXgXgXfXfXfXfXuXP O e #.9.x.9.i.0.:.c.c.:.$.<.<.b.Z.=.#.<.<.<.",
":.c.m.i.m.U.v.] *.=.=.=.=.=.=.=.=.i p x I R Q W R R R R R W -X;X=X=X=X=X=X-XQ Q ! < X e 8.9.9.9.0.9.9.0.0.=.v.N.2.J.L.#.' =.c.*.",
"=.N.U.m.n.Y.b.>.=.=.l.c.=.=.i.c.i.X.y . : B A C C C C C C C J K Y Y Y Y Y J S S B : @ e ;.9.x.x.9.q.0.%.*.v.V.J.c.V.L.v.$.=.*.=.",
"=.=.=.9.&.%.9.i.l.c.S.H.N.l.9.c.z.&.y . ; N A V V V C C V V C S D K K K K D A A B : @ t %.*.9.9.9.9.0.0.i.w.0.i.8.0.=.0.0.%.0.c.",
"i.X.] #.%.| | =.*.M.Y.'.Y.c.=.<.0.%.y X > F H F F F B N Z G F L T E E E E G Z Z F , X t %.l.=.0.0.0.0.0.0.&.X.| &.| ] -.0.&.0.M.",
"i.%.%.=.9.%.*.9.*.N.!.'.Y.M.,.*.0.8.y X M :X;X;X:X>X< > I ;X;X;XyXyXyXyXyXI > U >XP + t %.9.9.0.=.=.0.i.i.9.&.-.i.&.#.0.c.=.N.Y.",
"=.i.n.9.0.i.c.=.<.z.Z.J.H.z.*.*.=.&.y   n kXzXzXzXwXs +  XzXzXzXzXzXzXzXzX].+ m wXoX# e O.=.0.0.9.=.8.0.0.0.0.i.0.i.c.l.=.$.N.Y.",
"-.0.i.0.=.=.0.0.l.*.*.l.l.l.*.*.*.%.y   b lXzXzXzXrXs %  XzXzXzXzXzXzXzXzX].% m rX$X# 5 7.z.q.q.=.=.*.=.l.=.=.0.*.=.l.*.*.<.l.l.",
"&.0.l.0.0.0.0.0.*.*.*.*.<.*.*.=.=.#.y   n sXzXzXzXaXb x &XzXzXzXzXzXzXzXzX#Xh .XeX.X# t 8.9.9.9.%.=.M.S.M.l.=.c.=.=.=.=.=.c.<.=.",
"9.0.i.0.0.9.9.9.*.<.*.=.*.,.=.l.=.+.y O b sXzXzXzXkXwX9XsXzXzXzXzXzXzXzXzXaXqXeXsX}.+ e 7.9.*.*.=.n.S.J.N.0.=.0.c.9.<.l.9.<.*.*.",
"i.0.0.i.9.*.*.v.l.l.*.*.<.9.9.<.:.-.t . {.zXzXzXzXzXzXzXzXzXzXzXzXzXzXzXzXzXzXzXkX{.o e 8.0.0.9.=.=.9.n.n.9.=.*.0.=.,.%.*.l.*.l.",
"i.i.0.0.=.*.=.l.l.x.l.,.*.l.l.=.0.+.y   b kXzXzXzXzXzXzXzXzXzXzXzXzXzXzXzXzXzXzXxX{.O 8 %.z.l.l.0.0.0.9.9.9.9.0.9.9.9.9.9.9.9.9.",
"0.0.i.0.i.l.9.9.<.*.*.*.l.=.=.=.=.&.~ 3 f $XaXzXzXzXzXzXzXzXzXsX9X*X*XwXkXzXzXzXzX.X= u %.*.z.*.0.0.9.0.9.q.9.0.9.0.0.9.9.*.9.l.",
":.0.=.&.0.0.l.9.<.x.l.*.<.0.*.=.0.=.+._ t 9 XXxXzXzXzXzXzXzXzXaX$Xn b #XsXzXzXzXxXXXq / %.*.c.=.8.0.0.0.w.0.0.w.0.q.9.z.0.9.=.0.",
"i.0.0.0.9.9.=.9.,.l.l.*.=.z.c.=.i.=.=.l._ 4 f XXeXzXzXzXzXzXzXaX&X}..X*XkXzXzXsX6Xd.( _ *.*.l.z.p.p.q.0.w.9.0.9.q.0.9.0.0.0.0.0.",
"i.w.=.i.0.0.*.*.*.*.<.*.9.J.J.=.=.&.=.m.F.@.4 - XXkXzXxXkXzXzXzXhXaXsXkXkXxXzX2Xf.t.8.&.i.0.%.N.P.m.w.:.c.i.9.z.0.0.=.0.0.=.=.0.",
"i.&.&.=.0.0.l.l.,.*.*.*.c.U.U.l.&.:.c.F.U.J.` 5 y.OXOXXX.X#XsXzXzXzXzXhXpX4X4X_.s.8.0.0.S.S.=.N.(.Y.m.i.0.0.0.i.=.=.9.9.=.=.=.=.",
":.i.i.i.9.=.0.z.x.*.*.*.c.Z.N.c.:.i.i.v.N.v.9.&.7.t.d.k g n 8XzXzXzXlXtX,XG.p.p.i.%.0.i.F.G.m.G.'.R.F.=.-.&.=.*.=.=.=.=.0.c.c.$.",
"&.N.P.S.0.=.9.=.*.l.,.*.=.%.;.l.i.i.=.*.#.*.l.9.0.4.d. X{.}..X&XaXaX2X[.a.*.=.0.0.8.0.0.%.i.G./.U.v.#.-.=.i.=.c.=.=.=.9.b.J.b.$.",
"n.D.S.n.0.0.9.*.0.9.0.z.%.| X.9.0.i.8.%.| | 9.9.@.t.%XsXsX8Xc n 9XrX+Xk.G.q.9.0.M.m.D.a.X.X.v.F.m.+.] :.c.=.*.l.<.l.2.<.b.L.A.3.",
"(.n.| | 9.0.z.z.9.0.0.0.9.9.&.9.8.9.0.0.9.8.7.( y.OXrXzXzXwXx h 8XdX2X1X1X_.s.G._.<X1X_.s.X.' ^ ^ +.>.u.0.0.=.*.,.Z.Y.3.3.L.Q.T.",
"'.S.| #.0.M.z.*.9.9.l.=.=.0.c.=.0.0.0.0.z.9.( q oXzXzXzXzX9Xx h 2XzXkXzXzX3X[.[.4XxXhX3Xk.&.X.X.[ -.0.:.=.c.0.-.<.Z.U.J.A.E.Q.E.",
"H.H.i.=.9.i.l.*.9.9.9.0.9.9.0.0.n.w.9.8.9.w.i 7 #XzXzXzXzX9Xc h 8XzXzXzXzXjX7XtXhXzXzX2Xk.=.i.i.i.:.=.i.<.0.=.0.<.b.J.Q.Q.E.T.K.",
"| %.9.0.0.0.9.9.0.=.l.l.=.=.=.0.9.0.0.=.9.%.i 6 g.aXkXzXzXwXx h 8XzXzXkXaXsXzXzXzXxXaXOXj.0.0.=.=.:.c.=.*.=.i.i.=.X.&.G.).E.a.>.",
"' | 9.z.c.9.=.*.9.l.l.9.0.9.0.9.0.0.0.0.9.%.~ 1 j oXeXzXzXwXn c 8XzXzXwXXX&XzXzXzXqX+Xj.s.0.=.=.=.0.i.0.=.=.i.i.:.O...i.G.C.>._ ",
"*.0.0.=.*.*.=.l.*.l.l.*.,.l.l.*.l.l.=.l.=.=.~ $ 9 }.*XqX9X&X}..XwXzXzX8X}.}.&X8X0X+Xy.u.0.0.9.0.z.9.9.0.0.0.w.i.u.u.8...^  .o.u.",
"c.l.0.=.=.=.=.=.*.*.<.l.*.*.*.l.9.9.*.l.i.=.( & c &X$Xc h {.#XeXsXzXzXaX0X{.g j l y.4.8.=.M.H.S.9.9.0.q.0.u.w.u.u.a.q.7...o.8.u.",
"*.=.i.=.*.c.=.=.=.=.l.=.l.=.l.*.,.8.s.s.^.D.t.0 c #XoXh g {.wXzXzXzXzXzXzX&Xj 9 l y.O.9.9.M.F.J.0.9.0.i.p.i.>.>.i.i.i.:.9.*.=.l.",
"*.*.*.=.=.*.*.=.0.0.c.*.=.=.*.l.<.e.h.,X<X`.s.5.0 h .X*X*X9XkXzXzXzXzXzXzXaX*X#X%Xd.a o.9.0.z.0.0.0.0.0.S.I.m.>.>.i.c.$.&.z.l.*.",
"=.0.=.=.=.0.:.0.*.:.c.=.=.=.*.l.*.e.r.|.2X1X`.t.0 + .XzXzXzXzXzXzXzXzXzXzXzXzXzXzX*Xd.d _ 0.9.*.i.m.v.:.C.E.A.3.3.3.3.1.1.1.,.1.",
":.c.=.c.c.=.:.*.=.c.l.9.l.=.<.*.,.6.5.z {.6X3X[.q + }.zXzXzXzXzXzXzXzXzXzXzXzXzXzXsX8Xg.a 0.0.0.=.F.J.v.V.R.E.K.3.C.A.3.1.1.1.<.",
"i.=.i.S.F.0.9.i.F.J.0.%.0.l.0.9.l.*.@.a z |.%X+X9 & .XzXzXzXzXxX8X#X#X#X#X#X&XwXzXzXzX}.9 9.i.i.c.K.E.K.K.E.Q.E.K.T.R.b.l.Z.l.1.",
"n.9.0.c.b.m.n.i.~.Y.0.&.=.0.0.=.*.9.*.O.( z r.z = & .XzXzXzXzX9Xx * * * * * - }.sXzXzX{.# l.0.:.c.v.K.(.W.C.T.E.Q.L.b.:.B.Y.Z.1.",
"0.&.0.| &.J.S.i.P.U.i.=.0.0.=.9.,.l.9.<.O._ 4.( $ & XXzXzXsX*Xn 7 2 1 1 2 1 1 l dXzXkXn o i.i.u.>.[ w.I.C.>.C.).I.a.X.+.p.D.z.q.",
"=.9.0.[ 9.(.J.i.F.U.n.9.=.=.=.z.,.*.=.9.9.%.8.7.3 & oXzXzXwXx = i  . ...7.O. .t.dXzXxXb o u.=.i.u.X.+.u.X.^ >.a.>.-.X.6.w.0.q.q.",
"w.n.0.w.m.P.F.0.F.F.m.:.=.*.2.=.9.z.9.9.9.q.0.&.8 & XXzXzX2Xq y +.=.*.0.z.9.*.k.hXzXzX{.X =.=.l.0.i.8.] { ^ ^ ' ' | &.i.i.0.i.w.",
"0.i.i.0.&.&.&.&.#.-.*.i.=.=.l.=.x.9.x.9.9.0.=.O.3 & XXzXzX2Xe.O.=.9.=.9.<.9.*.,XdXkXdXn + 9.9.9.i.0.9.%.+.%.%.O.&.&.u.i.0.u.u.i.",
"9.=.0.0.#.| X.i.[ [ &.i.0.i.0.0.9.x.x.=.9.*.=.O.3 & XXzXzX4Xs.<.9.c.c.9.9.l.0.j.}.{.b s t 0.l.l.=.=.*.9.i.i.0.w.i.0.=.=.9.0.q.q.",
"=.=.w.=.w.-.=.i.&.&.i.c.=.0.0.9.x.9.<.x.<.9.l.O.3 & XXzXzXiX`.c.0.z.9.=.9.l.9.i # # # t O.9.*.9.=.=.0.9.0.9.i.i.i.0.&.:.0.0.q.0.",
"=.=.=.=.=.=.:.i.i.0.i.w.8.9.w.0.x.*.*.<.,.l.l.O.3 & XXzXzXiX`.<.=.<.=.0.M.M.9.) r e e ) ,.9.<.l.=.=.=.l.9.=.9.c.l.=.*.9.l.l.9.9.",
"*.=.l.2.=.*.=.:.i.0.i.p.q.q.w.w.<.l.,.*.<.<.,.X.3 + XXzXzXiX_.=.=.i.=.c.H.Z.l.*.*.%.%.,.=.x.x.*.<.*.*.<.0.9.0.i.=.=.=.<.0.9.9.9.",
"1.1.<.1.$.$.$.c.=.0.0.D.H.q.q.q.<.0.<.=.,.,.l.O.3 & XXzXzXiX,Xb.*.0.0.=.v.n.=.=.0.9.=.*.,.x.,.x.=.$.*.=.0.0.=.=.*.=.*.*.,.x.l.x.",
"c.2.<.1.$.<.<.*.:.&.9.H.~.D.q.z.0.9.<.*.,.*.x.O.3 & $XzXzXiX5Xb.c.b.c.*.=.l.l.v.=.<.*.*.,.x.x.,.*.=.<.=.=.=.=.=.=.<.l.<.*.l.l.*.",
"L.A.2.$.$.$.2.:.:.&.=.G.U.D.9.q.9.=.0.c.*.%.l. .3 & #XzXzXiX5XC.c.L.N.=.<.=.=.c.i.=.0.l.*.,.x.x.=.i.:.0.i.0.=.=.c.=.i.=.=.l.*.9.",
"Q.K.b.>.2.b.b.:.:.=.:.=.=.0.q.w.=.0.c.l.=.*.9.O.3 + {.wXwX2Xk.&.N.!.H.=.=.=.=.*.=.=.=.l.*.,.,.*.:.N.N.i.&.i.V.N.:.=.=.=.<.l.9.*.",
"U.'.(.V.V.U.V.:.$.2.:.#.' O.z.9.0.c.=.9.z.l.9.6.5   - g g k _ +.M.Y.Z.<.*.:.:.=.=.:.0.=.x.l.x.*.i.J.I.n.0.m.G.F.:.&.=.:.:.l.=.=.",
"(.(.E.I.I.R.V.:.:.=.=.*.#.9.c.0.0.0.0.M.J.N.0.%.r $   O O $ ~ *.l.l.l.<.=.=.i.c.=.i.=.=.l.x.x.x.i.F.F.n.S.F.i.O.=.:.:.i.=.=.=.*.",
"G.G./.).W.C.a.i.:.:.=.=.l.l.=.l.=.=.M.N.v.c.=.w.9.n.9.w.l.0.=.l.<.,.*.<.=.:.i.i.&.i.0.=.9.9.x.x.i.I.P.p.P.~.8.| -.:.:.=.=.$.0.=.",
") a.^.).G.X.-.>.:.i.=.*.l.=.*.l.=.c.J.v.[ | &.i.0.q.0.9.z.l.*.9.*.*.,.=.=.:.0.:.i.:.0.0.*.*.*.*.n.I.P.w.D.P.0.i.&.i.:.c.=.*.=.i.",
") 4.s.s.6.@.u.i.i.i.0.=.9.=.9.l.-.<.U.Z.-.-.&.0.w.0.0.w.9.*.*.*.,.,.<.=.=.:.:.m.S.i.9.0.9.*.9.9.9.p.w.8.8.w.a.i.&.i.i.N.N.$.=.=.",
"~ ) ) ` _ u.u.i.&.&.l.v.l.=.z.9.<.<.J.Y.b.c.:.:.w.i.0.0.*.*.,.,.,.*.=.=.0.=.&.F.R.i.=.9.l.x.l.9.8.|  .0.%. .8.w.:.=.c.U.U.c.*.=."
};
