/* XPM */
static char *result[] = {
/* columns rows colors chars-per-pixel */
"22 32 73 1 ",
"  c black",
". c #010000",
"X c #000100",
"o c #010101",
"O c #030000",
"+ c #000300",
"@ c #000002",
"# c #000102",
"$ c #000303",
"% c #020202",
"& c gray1",
"* c #040000",
"= c #060000",
"- c #040203",
"; c #000403",
": c #000603",
"> c #000004",
", c #000104",
"< c #030207",
"1 c #010506",
"2 c #040404",
"3 c gray2",
"4 c #060606",
"5 c #080000",
"6 c #0E0000",
"7 c #0F0000",
"8 c #0E0204",
"9 c #060709",
"0 c gray3",
"q c #0B0B0B",
"w c #110000",
"e c #120000",
"r c #140000",
"t c #160000",
"y c #170000",
"u c #140200",
"i c #1B0000",
"p c #210000",
"a c #3B0000",
"s c #3C0000",
"d c gray19",
"f c gray21",
"g c gray24",
"h c #3F3F3F",
"j c #791F28",
"k c #6A2A2A",
"l c #75262B",
"z c #7E272D",
"x c #6B3130",
"c c #414141",
"v c #515151",
"b c #535353",
"n c gray36",
"m c #6A6A6B",
"M c #696B6D",
"N c #87141B",
"B c #861D21",
"V c #8B1E23",
"C c #8A1F27",
"Z c #8E272B",
"A c #83282F",
"S c #942327",
"D c #932228",
"F c #96222B",
"G c #90252F",
"H c #BE6060",
"J c #C0615F",
"K c #C46062",
"L c #C26464",
"P c #C46465",
"I c #CA6263",
"U c #C96768",
"Y c None",
/* pixels */
"YYYYYYYYYYYYYYYYYYYYYY",
"YYYYYYYYYYYYYYYYYYYYYY",
"YYYYYYYYYYYYYYYYYYYYYY",
"YYYYY58YYYYYYX YYYYYYY",
"YYYY YY;YYYY,YY<YYYYYY",
"YYYY9YYY:+$1YYYY@YYYYY",
"YYY>YYYYYYYYYYYY-YYYYY",
"YYYOYYYYYYYYYYYY=YYYYY",
"YYYuYYYYYYYYYYYY6YYYYY",
"YYYYpkACNSIJLHZleYYYYY",
"YYYYixjGFDBUPKVzrYYYYY",
"YYYYwYYYsYYYYYaY7YYYYY",
"YYYY*YYYtYYYYYyY=YYYYY",
"YYYY#YYYYYYYYYYY.YYYYY",
"YYYY.YYYYYYYYYYY YYYYY",
"YYYYY.YYYYYMmYYY YYYYY",
"YYYYYY YYYYYYYY YYYYYY",
"YYYYYYY ggYYY& &YYYYYY",
"YYYYYYY2YYfY&2Yo 0YYYY",
"YYYYYY YYYcYYY YYYoYYY",
"YYYYYY&YYYdYYYYYYY%YYY",
"YYYYYY&vYYbYYnYYY&YYYY",
"YYY oY YhhYYY &&oYYYYY",
"YY%YY% YYYYYY YYYYYYYY",
"YYYoYYoYYYYYYY YYYYYYY",
"YYYY oq YY 2YYY YYYYYY",
"YYYYYY YYY Y YYYoYYYYY",
"YYYYYY4YY YYY4YY YYYYY",
"YYYYYY YY3YYY YY YYYYY",
"YYYYYY4 3YYYYY %oYYYYY",
"YYYYYYYYYYYYYYYYYYYYYY",
"YYYYYYYYYYYYYYYYYYYYYY"
};
