/* XPM */
static char *result[] = {
/* columns rows colors chars-per-pixel */
"22 32 73 1 ",
"  c black",
". c #010000",
"X c #000100",
"o c #010101",
"O c #030000",
"+ c #000300",
"@ c #000002",
"# c #000102",
"$ c #000303",
"% c #020202",
"& c gray1",
"* c #040000",
"= c #060000",
"- c #040203",
"; c #000403",
": c #000603",
"> c #000004",
", c #000104",
"< c #030207",
"1 c #010506",
"2 c #040404",
"3 c gray2",
"4 c #070707",
"5 c #080000",
"6 c #0E0000",
"7 c #0F0000",
"8 c #0E0204",
"9 c #060709",
"0 c #110000",
"q c #120000",
"w c #140000",
"e c #160000",
"r c #170000",
"t c #140200",
"y c #1B0000",
"u c #210000",
"i c #3B0000",
"p c #3C0000",
"a c gray19",
"s c gray21",
"d c #3C3C3C",
"f c gray24",
"g c #3F3F3F",
"h c #791F28",
"j c #6A2A2A",
"k c #75262B",
"l c #7E272D",
"z c #6B3130",
"x c #414141",
"c c #515151",
"v c #535353",
"b c gray36",
"n c #6A6A6B",
"m c #6A6B6D",
"M c #87141B",
"N c #861D21",
"B c #8B1E23",
"V c #8A1F27",
"C c #8E272B",
"Z c #83282F",
"A c #942327",
"S c #932228",
"D c #96222B",
"F c #90252F",
"G c #BE6060",
"H c #C0615E",
"J c #C46062",
"K c #C26464",
"L c #C36465",
"P c #CA6263",
"I c #CA6768",
"U c white",
"Y c None",
/* pixels */
"YYYYYYYYYYYYYYYYYYYYYY",
"YYYYYYYYYYYYYYYYYYYYYY",
"YYYYYYYYYYYYYYYYYYYYYY",
"YYYYY58YYYYYYX YYYYYYY",
"YYYY YY;YYYY,YY<YYYYYY",
"YYYY9YYY:+$1YYYY@YYYYY",
"YYY>YYYYYYYYYYYY-YYYYY",
"YYYOYYYYYYYYYYYY=YYYYY",
"YYYtYYYYYYYYYYYY6YYYYY",
"YYYYujZVMAPHKGCkqYYYYY",
"YYYYyzhFDSNILJBlwYYYYY",
"YYYY0YYYpYYYYYiY7YYYYY",
"YYYY*YYYeYYYYYrY=YYYYY",
"YYYY#YYYYYYYYYYY.YYYYY",
"YYYY.YYYYYYYYYYY YYYYY",
"YYYYY.YYYYYmnYYY YYYYY",
"YYYYYY YYYYYYYY YYYYYY",
"YYYYYYY fdYYY& &YYYYYY",
"YYYYYYY2YYsY&2Yo YYYYY",
"YYYYYY YYYxYYY YY YYYY",
"YYYYYY&YYYaYYYYYY YYYY",
"YYYYYY&cYYvYYbYY YYYYY",
"YYY oY YggYYY &&YYYYYY",
"YY%YY% YYYYYY YYYYYYYY",
"YYY%YY YYYYYYY &YYYYYY",
"YYYY   YY 3 YYYY%YYYYY",
"YYYYYoYYY&YY%YYYY3YYYY",
"YYYYY4YYY YYY2YYU YYYY",
"YYYYY YYY YYYY%UU YYYY",
"YYYYYY   %YYYYY& YYYYY",
"YYYYYYYYYYYYYYYYYYYYYY",
"YYYYYYYYYYYYYYYYYYYYYY"
};
