/* XPM */
static char *result[] = {
/* columns rows colors chars-per-pixel */
"64 64 233 2 ",
"   c #070A03",
".  c #0E160B",
"X  c #0F1D10",
"o  c #131C13",
"O  c #181C1B",
"+  c #110F07",
"@  c #162717",
"#  c #19371A",
"$  c #1A2626",
"%  c #1F3121",
"&  c #242725",
"*  c #263827",
"=  c #333B36",
"-  c #5B1F1F",
";  c #670000",
":  c #721D1D",
">  c #5E2222",
",  c #6E2F2F",
"<  c #1A451C",
"1  c #1A551D",
"2  c #1C671E",
"3  c #1E5220",
"4  c #264827",
"5  c #255A27",
"6  c #375838",
"7  c #384A3A",
"8  c #1E6722",
"9  c #226523",
"0  c #226C25",
"q  c #276A2B",
"w  c #267A29",
"e  c #346636",
"r  c #357738",
"t  c #2E6B32",
"y  c #417F3F",
"u  c #374444",
"i  c #494A49",
"p  c #475847",
"a  c #5B5C5B",
"s  c #5F5C57",
"d  c #486948",
"f  c #556956",
"g  c #58785A",
"h  c #437746",
"j  c #5E7D60",
"k  c #6D6D6D",
"l  c #636563",
"z  c #737373",
"x  c #7C7D7C",
"c  c #727B77",
"v  c #6C766F",
"b  c #B60C0C",
"n  c #C90000",
"m  c #D60000",
"M  c #DC0000",
"N  c #CF1A1A",
"B  c #E90101",
"V  c #E80606",
"C  c #F11A1A",
"Z  c #DA3737",
"A  c #CF2929",
"S  c #FF3D3D",
"D  c #FD3434",
"F  c #EC3030",
"G  c #A65F5F",
"H  c #8A6464",
"J  c #A56767",
"K  c #FF4242",
"L  c #E65E5E",
"P  c #EC5353",
"I  c #EB6464",
"U  c #F96767",
"Y  c #FE7777",
"T  c #D75858",
"R  c #29862E",
"E  c #289D2B",
"W  c #2D8931",
"Q  c #37893B",
"!  c #2F9D31",
"~  c #2C9432",
"^  c #359E3A",
"/  c #349738",
"(  c #26A52A",
")  c #2AA42C",
"_  c #2BAA2E",
"`  c #20A123",
"'  c #2DA431",
"]  c #2DAC32",
"[  c #26A230",
"{  c #32A436",
"}  c #33AC34",
"|  c #34AB3A",
" . c #3AAC3C",
".. c #38A33B",
"X. c #32B235",
"o. c #3BBC37",
"O. c #35B43B",
"+. c #3AB53C",
"@. c #36BB3D",
"#. c #3ABC3E",
"$. c #38BB35",
"%. c #30AA31",
"&. c #41BD3C",
"*. c #41B93A",
"=. c #3CC13D",
"-. c #37C13A",
";. c #43C23E",
":. c #48C53D",
">. c #3E8A41",
",. c #3C9841",
"<. c #3CAC42",
"1. c #3CA643",
"2. c #36B640",
"3. c #3AB541",
"4. c #36BC42",
"5. c #3CBD42",
"6. c #3EBD49",
"7. c #3FB749",
"8. c #448947",
"9. c #459649",
"0. c #579A5B",
"q. c #508F54",
"w. c #43A847",
"e. c #42B645",
"r. c #41BD43",
"t. c #42BD4A",
"y. c #47B749",
"u. c #4DBF53",
"i. c #55A859",
"p. c #5E8E60",
"a. c #6A886B",
"s. c #689B6A",
"d. c #778277",
"f. c #749175",
"g. c #6FB673",
"h. c #3CC143",
"j. c #3EC149",
"k. c #36C142",
"l. c #42C244",
"z. c #49C546",
"x. c #4BCA44",
"c. c #44C349",
"v. c #4BC54B",
"b. c #46C94B",
"n. c #4BCB4D",
"m. c #42C841",
"M. c #52CE4C",
"N. c #53C94B",
"B. c #4DD14D",
"V. c #54D24C",
"C. c #58D14E",
"Z. c #4DCC52",
"A. c #4AC652",
"S. c #53CC53",
"D. c #56C758",
"F. c #4ED255",
"G. c #53D355",
"H. c #5BD453",
"J. c #5CD955",
"K. c #56D35B",
"L. c #5AD45A",
"P. c #5BDA5C",
"I. c #56DA5A",
"U. c #62DA56",
"Y. c #63DC5B",
"T. c #69DE5D",
"R. c #61D556",
"E. c #60CE5B",
"W. c #67E25D",
"Q. c #5FC662",
"!. c #5DDC61",
"~. c #5CD763",
"^. c #64D562",
"/. c #64DD63",
"(. c #6BDD67",
"). c #6ECC72",
"_. c #77C87C",
"`. c #66E367",
"'. c #7D8383",
"]. c #7DCF81",
"[. c #848584",
"{. c #8D8D8D",
"}. c #868C8A",
"|. c #859886",
" X c #929393",
".X c #9C9D9C",
"XX c #929B93",
"oX c #86A788",
"OX c #89B78C",
"+X c #98B19A",
"@X c #9DA7A5",
"#X c #A3A3A3",
"$X c #ACACAC",
"%X c #A4AAA4",
"&X c #A6B7A7",
"*X c #B3B4B3",
"=X c #BCBDBC",
"-X c #B4B9B4",
";X c #FE8B8B",
":X c #FF9191",
">X c #F5B8B8",
",X c #EAB1B1",
"<X c #CF9595",
"1X c #93D595",
"2X c #A5DBA7",
"3X c #B3CBB4",
"4X c #AEE3B0",
"5X c #C3C4C3",
"6X c #CBCBCB",
"7X c #C4CAC9",
"8X c #CAD6CA",
"9X c #CDD6D6",
"0X c #D4D5D4",
"qX c #DCDDDC",
"wX c #D2DBD6",
"eX c #FDCBCB",
"rX c #FADBDB",
"tX c #EAD4D4",
"yX c #DCE5DD",
"uX c #D1E1D2",
"iX c #C6EAC8",
"pX c #E4E5E4",
"aX c #ECECEC",
"sX c #E4EEE4",
"dX c #FEE5E5",
"fX c #FFE8E8",
"gX c #EAF7F6",
"hX c #F4F5F4",
"jX c #F6FFFF",
"kX c #FFFFFF",
"lX c #F3FAF4",
"zX c #EBF8EB",
"xX c #D6E2E2",
/* pixels */
"@.#.r.#.#.l.5.#.@.#.j.j.h.#.#.#.h.h.4.h.k.5.@.h.@.5.4.v.~.K.r.O.3.j.5.c.~.F.4.4.#.h.-.k.@.h.h.$.@.&.#.&.&.#.*.+.c.r.5.3.5.6.5.5.",
"#.#.5.#.#.l.&.#.#.5.5.l.b.m.#.#.@.h.h.h.4.@.4.5.#.h.5.7.t.v.Z.v.5.6.5.5.A.b.j.4.h.-.k.#.#.@.=.l.z.;.#.&.*.#.#.3.r.r.r.r.5.6.6.5.",
"l.5.#.;.5.#.#.#.h.#.#.x.K.x.@.#.@.4.h.h.@.4.4.4.5.5.j.O.] r.K.v.r.;.;.#.=.;.k.=.;.$.*.;.;.;.o.M.U.:.*.;.;.z.&.o.#.&.;.#.#.#.4.5.",
"G.b.#.#.&.#.#.l.#.#.#.F.P.n.@.5.4.@.4.4.@.h.h.@.5.@.5.@.O.Z.^.A.l.n.z.o.@.#.=.#.o.$.o.:.B.x.;.x.W.J.:.;.x.V.:.&.#.*.#.l.=.#.#.h.",
"`.G.r.@.#.@.@.#.#.5.h.m.b.j.#.h.h.4.@.@.4.h.h.=.#.#.+.5.l.v.Z.l.z.P.G.&.#.*.o.o.*.*.*.&.H.R.N.N.U.W.R.:.C.U.x.o.=.#.@.-.#.@.-.=.",
"!.G.l.#.#.r.h.#.#.l.5.X.X.@.#.#.h.4.4.h.h.7.1.8.h Q ..7.5.X.] O.x.P.M.o.o.,.y 6 4 q %.*.N.U.U.Y.U.W.R.C.U.U.l.#.=.h.#.4.#.#.#.#.",
"h.m.h.#.l.n.b.#.h.l.#.X._ $.h.@.5.h.5.j.c.e.i.f.a.p.>.^ 3.] ] O.b.Z.b.3...9.a.v l e q /  .v.(.`.T.u.u.E.C.r.5.5.5.b.A.k.4.4.l.5.",
"` ] @.#.x.K.n.#.#.$.#.5.5.l.#.@.@.4.k.b.A.q.'.pXyX8Xa.r ^ 5.+.5.5.t.+.^ r a.8XpXqXx @ 3 w ! D.^.E.*.*.E.y.) } 5.h.K.~.c.2.6.6.7.",
"O.X.#.*.5.l.l.b.#.#.#.#.5.#.#.#.5.5.F.l.R 6  XkXkXkX5Xa.t 0 w R R R w t a.3XkXkXkX5Xz 7 1 R | |  .! E { | +.5.7.j.j.j.j.6.6.6.j.",
"r.r.r.#.@.5.l.m.#.+.#.#.l.#.#.#.5.A.I.t.1 % {.kXkXkXhX6Xf # # # # < # f 5XhXkXkXkXhX0Xk o q ' ! ! ! ! { | 5.j.5.4.4.4.5.6.5.6.6.",
"#.#.&.l.*.#.#.O.5.#.#.#.l.5.#.&.#.l.D.,.e c *XqXqXaXkXlX*XH x x d.d.c $XhXkXpXqXpXkXkX[.. 8 3.#.#.+.+.+.O.#.h.#.@.@.5.#.5.5.4.O.",
"*.#.#.r.r.#.z.n.l.l.#.#.#.#.5.l.5.O.W 5 d.pXaX6X=X6XaXkXjXgXhXaXhXaXaXjXkXaX9X=X6XhXhX[.X 0 5.5.y.e.r.r.r.*.#.h.@.#.j.b.x.5.@.4.",
"l.r.+.#.#.r.S.G.l.l.#.#.#.#.r.h.5.{ 2 # {.kXjX5X*X5XpXkXkXkXkXkXkXkXkXkXkXpX5X$X5XhXaXx X 8 @.@.o.#.*.r.#.r.;.o.o.-.x.B.b.m.@.=.",
"*.#.*.#.l.G.l.X.#.#.#.#.#.#.#.#.#.+.w @ [.hXkXwX7X9XgXkXkXkXkXkXkXkXkXkXkXaX9X5X9XjXaX[.X 0 4.h.l.r.r.l.r.&.=.o.=.B.V.o.X.h.=.#.",
"r.r.n.r.n.Y.l.) @.#.#.l.#.#.#.&.#.e.w @ [.kXkXgXgXgXjXkXkXkXkXkXkXkXkXkXkXjXgXgXgXkXjXx X 8 k.4.4.2.5.5.&.5.z.n.;.G.L.X.( #.l.@.",
"#.n.P.z.l.L.n.*.#.#.#.l.5.#.h.l.l.O.W 1 k 6XtXrXrXrXrXrXrXrXrXdXdXfXdXdXdXdXdXdXrXrXtXk X 8 4.h.4.6.5.@.@.l.G.G.l.M.J.z.o.@.#.=.",
"#.#.5.#.#.O.5.5.h.h.n.F.b.h.#.h.j.+.{ W e s G L U I L L L L L I ;X:X:X;X;X:X;X;XI L T , . 8 @.5.5.5.5.5.5.3.r.r.3.5.#.r.5.O.#.5.",
"r.} [ X.O.] ] 5.#.b.P.`.I.b.5.=.5.5.+.+.9 + ; n V m m m M B m M C D S K K K S C V V n ; . 0 @.4.5.5.5.5.5.+.} ] 3.] ) O.5.#.r.x.",
"r.O.X.#.#.O.O.5.@.n.!.`.I.b.-.@.5.l.#.@.9   ; n V m m m M M m m m V C D D S D C B B n ; + 8 2.6.#.@.5.5.5.5.#.O.5.+.X.5.l.5.n.I.",
"#.j.l.5.5.l.j.#.h.h.B.G.F.h.4.@.#.l.#.+.9 + : Z F F Z A b b A Z Z P U Y Y Y U Z b N A : . 8 5.6.5.5.2.5.#.5.r.r.+.l.l.l.#.#.b.I.",
"O.5.r.5.O.#.5.h.h.@.@.h.h.h.-.@.#.@.r.3.9 o H ,X>X>X>X<X, > J >X,X>XeXeXeXeXeXJ > G <Xk X 8 6.6.#.#.@.5.5.5.#.5.@.#.5.@.@.=.l.h.",
"#.5.5.5.5.5.5.5.@.@.@.@.5.@.@.@.#.@.l.#.2 o [.jXkXkXkX7Xu $ %XkXkXkXkXkXkXkXjXc O v qX X@ q 4.4.O.#.b.n.b.h.#.l.#.#.h.#.=.h.#.@.",
"#.5.5.5.j.5.h.4.k.#.@.@.-.4.@.h.#.o.5.+.2 O }.jXkXkXjX9Xu $ @XkXkXkXkXkXkXkXjXc $ c xX Xo 8 O.@.#.j.F.K.b.5.@.5.5.#.=.h.4.=.@.#.",
"r.5.5.5.#.O.4.m.h.=.@.@.h.#.5.=.r.&.#.+.9 o [.hXkXkXkXqX[.z =XkXkXkXkXkXkXkXjX#Xk #XqX}.@ 8 4.5.#.5.#.m.c.5.@.#.5.#.@.@.@.h.@.=.",
"r.r.5.5.@.@.5.j.=.=.k.k.@.h.h.#.#.h.#.O.9 o {.hXkXkXkXhXqX0XaXkXkXkXkXkXkXkXkXpX0XpXaXx o 0 4.h.5.5.5.4.5.4.4.4.5.4.4.4.4.4.5.@.",
"5.5.r.5.h.5.4.@.k.@.@.#.h.#.#.#.#.#.#.+.9 o {.kXkXkXkXkXkXkXkXkXkXkXkXkXkXkXkXkXkXkXaXz . 0 5.5.5.5.2.5.5.4.7.4.5.5.k.4.5.@.4.h.",
"#.5.#.#.5.5.h.4.h.k.=.@.5.5.#.@.r.+.#.3.0 @ [.hXkXkXkXkXkXkXkXkXkXkXkXkXkXkXkXkXkXkXaXx X 0 m.#.2.7.6.5.2.6.6.5.6.4.4.j.5.4.#.5.",
"r.r.3.#.5.5.@.5.-.=.h.4.5.m.h.#.r.5.#.r./ 5 d %XpXkXkXkXkXkXkXkXkXaX5X$X*X0XhXkXkXkXkX[.@ 0 5.h.l.r.5.5.6.4.5.5.j.4.4.6.5.5.5.h.",
"r.r.#.r.r.5.@.4.4.@.=.@.5.F.G.#.#.#.#.z.S.<.9 p #XhXjXkXkXkXkXkXkX0X.Xz x *XaXkXkXkXaX'.4 w O.n.K.v.5.5.l.5.5.l.5.5.@.#.5.#.#.5.",
"r.+.+.#.5.5.-.h.-.@.@.@.m.P.P.h.+.*.r.G.P.F.~ q d #XqXkXkXkXkXkXkXpX*X X.X7XhXkXkXyX%Xg r w.5.n./.K.n.r.#.r.5.5.@.5.5.#.@.#.#.5.",
"r.r.l.5.5.#.5.j.4.@.@.@.j.n.n.l.*.r.r.v.n.l.5.| 5 7 %XhXhXaXhXhXkXkXhXaXaXhXlXhXlX&Xp.>.A.D.v.D.`.Y.S.#.O.#.#.@.@.#.#.#.5.m.l.o.",
"+.v.K.n.5.@.4.5.@.k.=.@.#.O.X.h.l.5.&.O.X.@.j.=.~ q 0.OXXX[.[.$XhXkXkXkXkXzXiX2X1Xs.9.w.O.e.D./.R.z.X.O.&.r.#.h.5.#.#.h.z.V.b.#.",
"c.Z.Z.c.5.5.4.@.4.4.5.h.O._ ] 5.5.7.4.X.] X.4.h.4.2.3.0.j i i x 5XhXkXkXaX3X_.~.v.5.r.5.) } z.N.u.} ' +.l.5.@.k.=.h.:.-.x.U.V.:.",
"/.j.] ] 4.j.j.j.4.4.6.5.4.5.2.#.+.5.5.7.4.4.4.4.4.4.h.w.f. X{.{. X*XpXqX&Xg.A.5.5.r.5.r.r.} ( E )  .e.r.5.5.#.@.-.B.I.:.:.J.W.U.",
"`.A.] X.5.l.h.@.4.h.h.@.4.j.j.#.5.7.5.5.6.j.4.4.4.2.,.0.3XhXhX=Xl z 0X0XoXg.D.t.5.5.t.A.D.D.y...! $.&.&.#.;.#.@.=.B.P.G.C.T.W.U.",
"K.Z.r.#.#.j.j.@.@.5.5.5.#.#.5.5.5.h.5.5.4.4.6.5.1.>.0.3XsXkXkX7Xa l 7XpX3X3X2X).r.c.1X2X4X4X2Xs.8.r.&.#.5.;.#.5.h.x.J.P.T.W.R.R.",
"] O.4.h.5.5.=.@.4.4.h.h.5.@.#.5.h.5.5.#.4.#.k.5.W h %XkXkXkXkX5Xa l 6XkXkXkXkX2X).].iXzXkXkXaX[.6 l.l.#.@.#.l.r.+.} +.D.(.E.y.*.",
"( ] @.j.j.#.@.4.h.h.h.4.5.5.5.4.5.5.5.5.h.@.5.O.R 6 -XkXkXkXkX5Xa l 6XkXkXkXkXzXiXiXlXkXkXkXaXz & &.5.@.#.#.5.*.5.} } r.D.N.*.{ ",
"@.h.h.#.@.@.#.h.@.5.@.@.-.h.k.@.h.5.h.#.#.#.#.+.~ t f.qXhXkXkX6Xl l 6XkXkXhXpXhXkXkXkXkXkXaX*Xp # 6.4.6.5.5.3.e.e.e.<.{ ! ! ..e.",
"h.h.#.5.#.#.#.#.4.-.h.h.#.@.@.h.4.4.-.h.h.#.#.@.{ r f .XqXkXkX6Xk z 6XkXkX6X.X=XkXkXkXkXhX.Xi t w 4.6.5.6.7.r.e.e.t.7.2.' { 3.7.",
"#.#.5.#.#.5.#.#.#.#.h.#.h.#.h.@.-.4.5.-.4.-.5.5.{ r f [.*X5X=X$X{.#XqXkXkX$Xa k -X6X0X0X=Xf < ,.5.5.5.r.l.r.*.*.r.r.&.&.#.@.5.h.",
"@.@.#.#.#.#.#.#.#.l.l.@.#.@.@.h.-.h.4.5.#.5.#.+.R r f.-X Xl a [.=XqXhXkXkX.X= * g j j d.j r ~ 2.7.5.5.#.S.K.u.*.*.r.l.o.+.j.h.@.",
"#.5.#.#.#.#.h.#.@.#.h.5.#.#.#.h.4.! w.Q.).u.5.4.W 6 %XpX$Xl s {.qXkXkXkXkX#X7 q 8.>.r h r ..5.O.h.l.z.&.N.U.C.:.:.:.:.-.-.-.-.-.",
"&.l.#.l.l.#.#.@.#.l.5.5.h.#.=.@.k.r p.+X8X2XD.5.Q 4 .XkXpX5X5XqXkXkXkXkXkX$Xq.,.7.<. .1. .5.5.5.o.G.G.v.M.Y.U.H.:.N.C.:.-.-.-.-.",
"r.#.5.Z.S.r.#.5.G.S.5.#.5.h.5.5.h.t p d.=XuX2Xg.h * XXkXkXkXkXkXkXkXkXkXkX8XOXi.3.@.5.#.#.5.l.r.l.R.Y.H.C.T.T.Y.C.U.Y.x.:.B.h.-.",
"l.5.5.l.n.v.l.l.P.K.5.O.@.5.5.#.-.' 9 & z 5XuX&Xp & {.kXkXkXkXkXkXkXkXkXkXhXyXOXi.7.5.#.5.5.5.r.l.z.H.^.R.C.R.T.W.J.x.=.:.V.B.-.",
"5.3.5.] #.K.Z.r.K.P.5.#.5.5.5.4.k.4.R < = z XXk = & p .X0XkXkXpX*X#X$X0XkXkXkXwXOXi.r.5.5.e.r.*.+.} e.K.v.*.N.(.E.z.}  .t.c.j.h.",
"5.5.5._ #.^.G.r.S.!.c.5.#.@.5.h.@.=.} R < O & O < 4 & i *XkXkX6Xa & 6 |.yXkXkXhXyXOXi.<.5.5.#.r.e.{  .r.{ E *.z.e. .} <.t.6.6.6.",
"2.l.6.3.v.K.D.5.N.S.z.r.#.@.;.#.k.4.k.2.w 1 1 < 3 4 7 c 5XkXkX3Xe 3 q 8.oX8XkXkXkXwXOXi.w.O.4.5.5.r.O.) E ` ( [ ( } +.r.r.5.r.3.",
"5.5.r.5.+.+.O.#.$.O.#.#.#.#.h.#.6.k.4.6.2.| | ! q 4 [.pXhXkXkX+XQ | O...q.oXyXkXkXjXpXoXq.1.5.h.l.5.4.O.| O.| X.+.+.e.r.5.e.e.r.",
"5.5.5.r.+._ } r.) } O.r.5.5.5.5.4.k.=.k.@.@.5.#.0 * %XkXkXpX$Xg ^ j.j.#.1.q.|.7XhXkXkXXXe Q 5.5.5.#.#.5.r.t.5.7.r.5.#.#.5.5.6.6.",
"@.#.5.5.#.+.#.r.+.+.r.l.#.5.5.5.4.k.4.4.4.@.5.O.9 * #XkXkX0Xs < ~ j.5.@.h.,.h XXhXkXkX'.@ 0 @.k.#.@.5.5.5.5.5.r.r.5.#.*.5.5.6.5.",
"#.@.#.#.#.#.#.#.r.5.r.6.3.5.3.6.4.-.@.=.-.=.=.| 1 & $XkXkX8Xy 9 } #.#.h.b.t./ s.lXkXkXx   3 @.@.@.#.5.-.5.@.#.5.h.#.@.h.h.4.4.4.",
"@.#.=.;.#.o.#.&.r.5.5.7.6.6.5.6.=.k.-.4.k.=.h.| 1 & {.pXaX&X9.*.#.r.5.m.F.Z.5.0.wXaXqXk @ w k.k.=.@.#.=.5.5.5.5.#.#.@.=.h.5.4.k.",
"@.-.=.=.o.o.#.l.#.5.5.A.F.6.6.6.=.5.5.-.-.h.k.O.8 # i k k f w.v.@.5.5.#.x.v.#.>.k k k p t ^ k.k.@.$.#.#.5.5.#.#.@.#.@.@.-.h.h.k.",
":.=.=.-.o.=.=.o.*.#.4.F.~.A.7.6.#.h.h.@.@.@.@.@.W 1 @ X o # w.v.l.x.l.O.#.5.*.w @ o @ e ,.2.-.-.#.#.-.#.5.5.#.#.#.=.h.@.4.h.k.@.",
"J.V.&.o.*.o.;.&.&.+.#.G.!.A.3.6.#.@.5.l.@.@.h.@.4.4.3.2.l.S.G.N.l.I.b.#.l.#.#.l.5.#.h.h.@.-.k.k.#.r.r.*.r.5.*.#.l.#.r.#.#.h.@.4.",
"W.J.x.o.;.b.x.&.&.#.&.5.#.5.5.6.#.5.l.h.@.@.4.4.6.6.6.5.6.r.+.+.n.P.F.#.#.o.#.#.5.#.#.h.@.-.k.@.o.n.n.r.O.r.Z.n.&.#.#.#.=.h.4.@.",
"Y./.^.S.V.J.M.&.#.&.l.X.( X.6.5.5.j.5.#.l.j.#.j.4.6.6.6.5.O.] X.b.I.B.=.#.#.r.#.*.5.#.#.k.h.k.4.r.L.K.c.r.v.G.S.&.+.&.&.=.l.#.@.",
"/.`.Y.L.J.Y.C.&.&.o.o.O.X.4.j.5.5.5.5.A.G.b.5.5.2.6.6.3.5.2.X.@.h.m.h.#.#.o.r.l.#.&.5.#.5.k.k.k.*.G.S.c.Z.S.r.| #.#.&.r.#.#.#.@.",
"D.Q.^.(.^.N.r.&.&.&.@.#.j.h.5.h.#.#.x.Z.l.l.#.3.4.c.6.4.j.h.@.h.=.@.@.=.#.#.r.r.#.r.#.5.4.4.k.k.l.K.~.t.K.~.3.' #.5.&.#.@.#.#.#.",
"E y.Q.(.D.} X.e.*.r.#.#.#.#.@.5.#.#.G.m._ } +.r.6.6.5.5.j.5.@.#.-.4.-.#.#.&.r.&.r.5.5.5.@.@.@.4.c.K.D.7.A.K.t.r.+.*.r.r.&.@.#.r.",
"~ ..w.y.w. .*.e.r.5.5.5.#.5.4.h.o.l.I.G.o.o.#.#.5.7.3.6.#.@.@.-.k.@.=.@.#.r.*.z.N.r.5.5.k.@.4.@.4.t.5.5.3.6.t.l.#.*.r.M.n.#.#.#.",
"~ ~ / / ! w.y.r.5.+.5.m.h.5.h.k.=.=.G.G.x.l.*.5.3.5.5.5.@.@.k.k.-.@.#.#.5.#.#.S.P.r.#.5.k.4.j.5.2.] [ 3.| [ 3.3.r.*.l.P.J.l.@.@."
};
