/* XPM */
static char *result[] = {
/* columns rows colors chars-per-pixel */
"22 32 35 1 ",
"  c black",
". c #010101",
"X c gray1",
"o c #060606",
"O c gray3",
"+ c gray8",
"@ c #161616",
"# c gray12",
"$ c #232323",
"% c #2A2A2A",
"& c #2C2C2C",
"* c #313131",
"= c #323232",
"- c #343434",
"; c gray21",
": c #373737",
"> c gray22",
", c gray23",
"< c #3F3F3F",
"1 c gray28",
"2 c #494949",
"3 c #515151",
"4 c #585858",
"5 c gray39",
"6 c gray42",
"7 c #7C7C7C",
"8 c #D80000",
"9 c #FF4949",
"0 c #838383",
"q c gray77",
"w c #CBCBCB",
"e c gray86",
"r c gray96",
"t c white",
"y c None",
/* pixels */
"yyyyyyyyyyyyyyyyyyyyyy",
"yyyyy=yyyyyyy-Xyyyyyyy",
"yyyyytt<yyyy#tt yyyyyy",
"yyyy ttt+ . tttt yyyyy",
"yyy@tqqttttttqqt yyyyy",
"yyy tqqttttttqqt yyyyy",
"yyy tttttttttttt yyyyy",
"yyyy 88888999988 yyyyy",
"yyyy 88888899988 yyyyy",
"yyyy ttt ttttt t yyyyy",
"yyyy ttt ttttt t yyyyy",
"yyyy ttttttttttt yyyyy",
"yyyy ttttttttttt yyyyy",
"yyyyyottttt66ttt;yyyyy",
"yyyyyy tttttttt7yyyyyy",
"yyyyyyyy3,tttyyyyyyyyy",
"yyyyyyyytt,t0yyyyyyyyy",
"yyyyyy$ttt:tttyttyyyyy",
"yyyyyyXttt:ttttttyyyyy",
"yyyyyyX4tt4tt4tt5yyyyy",
"yyyyyy r<<tttt 1yyyyyy",
"yyyywyy tttttttt*yyyyy",
"yyyy%qe ttttttttt&yyyy",
"yyyyy>2 ttt   Ott yyyy",
"yyyyyyy tt yyyytt yyyy",
"yyyyyyy ttyyyyytt yyyy",
"yyyyyyy ttyyyyy  yyyyy",
"yyyyyyy ttyyyyyyyyyyyy",
"yyyyyyy ttyyyyyyyyyyyy",
"yyyyyyy ttyyyyyyyyyyyy",
"yyyyyyy   yyyyyyyyyyyy",
"yyyyyyyyyyyyyyyyyyyyyy"
};
