/* XPM */
static char *result[] = {
/* columns rows colors chars-per-pixel */
"22 32 39 1 ",
"  c black",
". c #010101",
"X c gray1",
"o c #040404",
"O c gray2",
"+ c gray3",
"@ c #0B0B0B",
"# c #111111",
"$ c gray9",
"% c #181818",
"& c #191919",
"* c gray11",
"= c gray12",
"- c gray14",
"; c gray16",
": c gray17",
"> c #323232",
", c #343434",
"< c #373737",
"1 c gray22",
"2 c #393939",
"3 c gray23",
"4 c #3C3C3C",
"5 c gray24",
"6 c #3E3E3E",
"7 c #3F3F3F",
"8 c gray27",
"9 c #585858",
"0 c #606060",
"q c #626262",
"w c gray42",
"e c #D80000",
"r c #FF4949",
"t c #8E8E8E",
"y c gray63",
"u c gray77",
"i c gray96",
"p c white",
"a c None",
/* pixels */
"aaaaaaaaaaaaaaaaaaaaaa",
"aaaaaaaaaaaaaaaaaaaaaa",
"aaaaa;aaaaaaa5Xaaaaaaa",
"aaaa1pp,aaaa*pp aaaaaa",
"aaaa ppp$.. pppp aaaaa",
"aaa%puuppppppuup aaaaa",
"aaa.puuppppppuup aaaaa",
"aaa.pppppppppppp aaaaa",
"aaaa eeeeerrrree aaaaa",
"aaaa eeeeeerrree aaaaa",
"aaaa ppp ppppp p aaaaa",
"aaaa ppp ppppp p aaaaa",
"aaaa ppppppppppp aaaaa",
"aaaa ppppppppppp aaaaa",
"aaaaa-pppppwwppp:aaaaa",
"aaaaaa=pppppppp0aaaaaa",
"aaaaaaaatqpppaaaaaaaaa",
"aaaaaaaapp3pyaaaaaaaaa",
"aaaaaaappp<pppapp2aaaa",
"aaaaaaappp<pppppp#aaaa",
"aaaaaaa9pp9pp9pp aaaaa",
"aaaaaa=i77ppp84waaaaaa",
"aa+uuaoppppppaaaaaaaaa",
"aaa uuOpppppppaaaaaaaa",
"aaaa  @pp  +ppppaaaaaa",
"aaaaa pppaaa>ppppaaaaa",
"aaaaa pppaaaa6ppp aaaa",
"aaaaa pppaaaaa&pp aaaa",
"aaaaa    aaaaaa  aaaaa",
"aaaaaaaaaaaaaaaaaaaaaa",
"aaaaaaaaaaaaaaaaaaaaaa",
"aaaaaaaaaaaaaaaaaaaaaa"
};
