/* XPM */
static char *result[] = {
/* columns rows colors chars-per-pixel */
"24 47 136 2 ",
"   c #050201",
".  c #0C0202",
"X  c #0D0904",
"o  c #130403",
"O  c #190603",
"+  c #140905",
"@  c #1A0904",
"#  c #130A0A",
"$  c #1B0C0B",
"%  c #1B110D",
"&  c #171411",
"*  c #1E1212",
"=  c #230E07",
"-  c #220D0C",
";  c #280F0A",
":  c #320F0A",
">  c #25120D",
",  c #2B130E",
"<  c #34140E",
"1  c #240F10",
"2  c #231513",
"3  c #2B1612",
"4  c #231814",
"5  c #2D1A15",
"6  c #251518",
"7  c #231A19",
"8  c #2C1D1C",
"9  c #341513",
"0  c #381615",
"q  c #331A15",
"w  c #3B1B15",
"e  c #331E1C",
"r  c #3D1F1B",
"t  c #27221F",
"y  c #2E201E",
"u  c #34221D",
"i  c #3C241C",
"p  c #332422",
"a  c #3B2522",
"s  c #372826",
"d  c #3F2B26",
"f  c #362A2A",
"g  c #3D2B2A",
"h  c #421C13",
"j  c #401C1C",
"k  c #412016",
"l  c #45241C",
"z  c #4A241C",
"x  c #47281D",
"c  c #442723",
"v  c #492620",
"b  c #442B24",
"n  c #4D2C25",
"m  c #432729",
"M  c #4A2528",
"N  c #432E2A",
"B  c #492F2A",
"V  c #502B27",
"C  c #4C3427",
"Z  c #43322D",
"A  c #4A332D",
"S  c #533127",
"D  c #53332D",
"F  c #5A362E",
"G  c #443332",
"H  c #4B3632",
"J  c #493930",
"K  c #4D3D3B",
"L  c #553432",
"P  c #583732",
"I  c #523A32",
"U  c #5C3C35",
"Y  c #543B3A",
"T  c #5C3C39",
"R  c #633229",
"E  c #633D34",
"W  c #6A3C32",
"Q  c #643E39",
"!  c #6A3E39",
"~  c #514037",
"^  c #5F4036",
"/  c #56403F",
"(  c #5D413B",
")  c #644037",
"_  c #6C4036",
"`  c #64433B",
"'  c #6C443C",
"]  c #65483D",
"[  c #6B493E",
"{  c #72453C",
"}  c #75483D",
"|  c #78483F",
" . c #4E4140",
".. c #564643",
"X. c #5D4344",
"o. c #5B4B47",
"O. c #5A4A4A",
"+. c #634541",
"@. c #6D4741",
"#. c #654B44",
"$. c #6D4B43",
"%. c #624D4A",
"&. c #6C4C4A",
"*. c #734641",
"=. c #7A4743",
"-. c #744C44",
";. c #794B43",
":. c #744E4A",
">. c #7C4E4A",
",. c #68534E",
"<. c #735045",
"1. c #7C524B",
"2. c #755650",
"3. c #7F5450",
"4. c #725956",
"5. c #7B5A51",
"6. c #7E5559",
"7. c #755A58",
"8. c #7D655E",
"9. c #82534D",
"0. c #855C54",
"q. c #8A5F55",
"w. c #845D5C",
"e. c #8E5E59",
"r. c #8D6B5B",
"t. c #93635C",
"y. c #8C6365",
"u. c #896960",
"i. c #84726E",
"p. c #977767",
"a. c #987162",
"s. c #9C746D",
"d. c #977B78",
"f. c #A28272",
"g. c #B0857E",
"h. c None",
/* pixels */
"h.h.h.h.h.h.h.h.h.h.h.  h.h.h.h.h.h.h.h.h.h.h.h.",
"h.h.h.h.h.h.h.h.h.h.h.#   h.h.h.h.h.h.h.h.h.h.h.",
"h.h.h.h.h.h.h.h.h.h.h.7 # h.h.h.h.h.h.h.h.h.h.h.",
"h.h.h.h.h.h.h.h.h.h.. 8 f . h.h.h.h.h.h.h.h.h.h.",
"h.h.h.h.h.h.h.h.h.h.h.6 X.- h.h.h.h.h.h.h.h.h.h.",
"h.h.h.h.h.h.h.h.h.h.h.$ 6.M o h.h.h.h.h.h.h.h.h.",
"h.h.h.h.h.h.h.h.h.h.h.$ y.6.# h.h.h.h.h.h.h.h.h.",
"h.h.h.h.h.h.h.h.h.h.h.2 y.&.$ h.h.h.h.h.h.h.h.h.",
"h.h.h.h.h.h.h.h.h.h.. g #.q h.h.h.h.h.h.h.h.h.h.",
"h.h.h.h.h.h.h.h.h.. > b i @ h.h.h.h.h.h.h.h.h.h.",
"h.h.h.h.h.h.h.. 2 e P #.U i 3 o h.h.h.h.h.h.h.h.",
"h.h.h.h.h.h.. u T ` ! 1.+.T ( m # h.h.h.h.h.h.h.",
"h.h.h.h.h.. 5 $.&.) _ t.-.E *.>.m . h.h.h.h.h.h.",
"h.h.h.h.h.$ I r.t.E } | { W 9.t.@.4 h.h.h.h.h.h.",
"h.h.h.h.o 3 U 1.t._ _ } _ _ t.9.` a o h.h.h.h.h.",
"h.h.h.h.o L U V } } _ ' Q ' <.F F ( @ h.h.h.h.h.",
"h.h.h.h.2 +.` z R } ) } ) } E x F &.e . h.h.h.h.",
"h.h.h.h.a w.( h W } ) [ ) _ ' i S w.Y . h.h.h.h.",
"h.h.h.h.e w.F l | { _ } [ ' <.C z w.G . h.h.h.h.",
"h.h.h.h.- L , F | W [ <.[ E $.( < L - h.h.h.h.h.",
"h.h.h.h.h.q , E { W ) [ ` E ] @.0 q + h.h.h.h.h.",
"h.h.h.h.X @ 3 ` ' F F ' P D ` $.i o X h.h.h.h.h.",
"h.h.h.h.& $ , ] ` S n ) P n T *.c + & h.h.h.h.h.",
"h.h.h.  * $ 5 ` S x F ) U n v ! i X t . h.h.h.h.",
"h.h.h.# ..e = q h F Q E ^ U z h > $ O.2 h.h.h.h.",
"h.h.h.* i.G O 0 U -.{ [ -.' ! l @ 1 d.8 h.h.h.h.",
"h.h.h.f 8.5 < ) :._ 0.>.q.' -.' i $ 8...h.h.h.h.",
"h.h.h.h.* o r :.@.) >.=.9.' ` :.D O $ y h.h.h.h.",
"h.h.h.h.X + q L Q @.-.=.=.*.Q U r @ o h.h.h.h.h.",
"h.h.h.  * * H +.V n ! >.-.V c T X.$ 3 . h.h.h.h.",
"h.h.h.. s 8 %.+.` l < E w 0 ! ` ,.8 N + h.h.h.h.",
"h.h.h.* G - a , b 2.b N i &.T < p 6 Y y h.h.h.h.",
"h.h.h.* O.u @ - , U I u C ( r = + % &.8 h.h.h.h.",
"h.h.h.# O.Y o 3 N I q @ % I v u . g 7.$ h.h.h.h.",
"h.h.h.. ..f 3 , b A 3 O = b A 3 6 6 %.+ h.h.h.h.",
"h.h.h.  7 $ a e > 5 5 > 3 u % 0 g 1 y . h.h.h.h.",
"h.h.h.h.o u 3 4.G O.8 q q ..g 7.a y $ h.h.h.h.h.",
"h.h.h.h.. N > e o.f > A e y o.a 1 G + h.h.h.h.h.",
"h.h.h.h.h.g a > 2 H Z D N J u @ e G # h.h.h.h.h.",
"h.h.h.h.h.y J $ # H D U C Y % X N g . h.h.h.h.h.",
"h.h.h.h.. + u 5 # I r < q J % % p - o h.h.h.h.h.",
"h.h.h.h.+ > x 5 . 6 e o 5 8   4 c 9 $ h.h.h.h.h.",
"h.h.h.. > ] <., h.- 6 * 6 4 h.$ ( 1.r @ h.h.h.h.",
"h.h.h.% #.f.a., h.h.h.h.h.h.h.@ 5.g.5.4 h.h.h.h.",
"h.h.h.y r.p.r.A h.h.h.h.h.h.h.4 u.s.u.G h.h.h.h.",
"h.h.h.h.2 H 5 s h.h.h.h.h.h.h.h.5 H 5 4 h.h.h.h.",
"h.h.h.h.h.h.h.h.h.h.h.h.h.h.h.h.h.h.h.h.h.h.h.h."
};
