/* XPM */
static char *result[] = {
/* columns rows colors chars-per-pixel */
"24 47 139 2 ",
"   c #050301",
".  c #0C0302",
"X  c #0D0B07",
"o  c #130403",
"O  c #1C0605",
"+  c #140906",
"@  c #1B0905",
"#  c #170709",
"$  c #1C0608",
"%  c #140B0A",
"&  c #1B0C0A",
"*  c #16120C",
"=  c #1B130D",
"-  c #171211",
";  c #1D1413",
":  c #220E0D",
">  c #2C0E0B",
",  c #22110E",
"<  c #2C110D",
"1  c #241312",
"2  c #2C1512",
"3  c #241915",
"4  c #2D1A16",
"5  c #2D1619",
"6  c #251C1A",
"7  c #2D1C19",
"8  c #331A16",
"9  c #3D1E14",
"0  c #341D1A",
"q  c #3C1D1B",
"w  c #2A211C",
"e  c #33211D",
"r  c #3C231D",
"t  c #2F2221",
"y  c #322322",
"u  c #3C2623",
"i  c #342C25",
"p  c #3A2925",
"a  c #3F2528",
"s  c #3C2C2C",
"d  c #451C15",
"f  c #421D1A",
"g  c #432211",
"h  c #43211D",
"j  c #48271F",
"k  c #482818",
"l  c #50231F",
"z  c #512B1C",
"x  c #452321",
"c  c #442B25",
"v  c #4D2B25",
"b  c #442C2A",
"n  c #4B2C2B",
"m  c #512D27",
"M  c #562F29",
"N  c #45312E",
"B  c #4E362F",
"V  c #533027",
"C  c #53322C",
"Z  c #5A352B",
"A  c #443532",
"S  c #4C3434",
"D  c #403A35",
"F  c #4B3834",
"G  c #433E3A",
"H  c #4C3B39",
"J  c #523533",
"K  c #543B35",
"L  c #5D3B34",
"P  c #54373A",
"I  c #573E39",
"U  c #5B3D3A",
"Y  c #693731",
"T  c #653D33",
"R  c #6A3D34",
"E  c #633E38",
"W  c #6B3E38",
"Q  c #48443E",
"!  c #5D4037",
"~  c #5C423D",
"^  c #6A4135",
"/  c #64423B",
"(  c #6C443C",
")  c #6E493E",
"_  c #72463B",
"`  c #73493E",
"'  c #4F4140",
"]  c #5D4542",
"[  c #564949",
"{  c #585250",
"}  c #624041",
"|  c #6B4741",
" . c #654B45",
".. c #6D4A42",
"X. c #604D4A",
"o. c #714640",
"O. c #754B42",
"+. c #7F4E49",
"@. c #63514E",
"#. c #6E534E",
"$. c #7B5247",
"%. c #77524E",
"&. c #7C554F",
"*. c #645551",
"=. c #6F5957",
"-. c #665F5B",
";. c #6E5E5B",
":. c #765557",
">. c #7F5451",
",. c #7D5E55",
"<. c #705D58",
"1. c #7B5B59",
"2. c #7B635C",
"3. c #84544B",
"4. c #815751",
"5. c #895752",
"6. c #815956",
"7. c #8B5B55",
"8. c #845B58",
"9. c #935E5A",
"0. c #806159",
"q. c #8D645B",
"w. c #806663",
"e. c #896661",
"r. c #846A66",
"t. c #8C6864",
"y. c #976562",
"u. c #92736B",
"i. c #997069",
"p. c #8E7373",
"a. c #9F7170",
"s. c #9E7870",
"d. c #9C7E7D",
"f. c #A17D77",
"g. c #B17E7D",
"h. c #94827F",
"j. c #B38E8C",
"k. c #BA8B89",
"l. c None",
/* pixels */
"l.l.l.l.l.l.l.l.l.l.l.  l.l.l.l.l.l.l.l.l.l.l.l.",
"l.l.l.l.l.l.l.l.l.l.l.  X l.l.l.l.l.l.l.l.l.l.l.",
"l.l.l.l.l.l.l.l.l.l.l.  l.l.l.l.l.l.l.l.l.l.l.l.",
"l.l.l.l.l.l.l.l.l.l.l.l.l.l.l.l.l.l.l.l.l.l.l.l.",
"l.l.l.l.l.l.l.l.l.l.l.l.l.l.l.l.l.l.l.l.l.l.l.l.",
"l.l.l.l.l.l.l.l.l.l.l.l.O l.l.l.l.l.l.l.l.l.l.l.",
"l.l.l.l.l.l.l.l.l.l.l.l.2 p.@.l.l.l.l.l.l.l.l.l.",
"l.l.l.l.l.l.l.l.l.l.l.. n r.H . l.l.l.l.l.l.l.l.",
"l.l.l.l.l.l.l.l.l.l.+ @ n c : l.l.l.l.l.l.l.l.l.",
"l.l.l.l.l.l.l.l.. & 2 B / m < & . l.l.l.l.l.l.l.",
"l.l.l.l.l.l.. 1 u ! L ) $.T W L 0 # l.l.l.l.l.l.",
"l.l.l.l.l.l.# I 2.O.T ` 3._ R 5.1.A o l.l.l.l.l.",
"l.l.l.l.l.. 8 ) q.7.R ) o.( W y.8.U 1 l.l.l.l.l.",
"l.l.l.l.l.o M Z _ 7.( / ( T ` 7.W L u o l.l.l.l.",
"l.l.l.l.  & ..Z z ^ ( ^ _ T _ Y v ! U @ l.l.l.l.",
"l.l.l.l.. A :.Z g ^ _ ^ _ ^ _ Y d / #.y l.l.l.l.",
"l.l.l.l.X K e.v k ) ( R _ ^ ` W d L r.i l.l.l.l.",
"l.l.l.l.l.e  .9 ! ) ^ ) O.( ( O.m h  ., l.l.l.l.",
"l.l.l.l.l.% u 8 ) / V L ..Z Z ( / 2 p . l.l.l.l.",
"l.l.l.l.l.. @ u | v j L / Z v C  .8 & . l.l.l.l.",
"l.l.l.l.  % o 8 x f L E W U C f r 3 + % l.l.l.l.",
"l.l.l.l.. 6 X O q L / ` ( ( | J < @ & 1 l.l.l.l.",
"l.l.l.l.& N # O n ..( 7.$.4.....r o , i X l.l.l.",
"l.l.l.l.3 w.u <.] C o.9.3.7.( V  .@.N 2.% l.l.l.",
"l.l.l.l.A d.S 2.! ! V 7.5.3.v / } 2.s j.; l.l.l.",
"l.l.l.l.H b 2 b > I B v o.q ~ x < b & s ; l.l.l.",
"l.l.l.l.. . 1 S < r c 8 C 9 c e e J $ . l.l.l.l.",
"l.l.l.l.. # # u r 3 N q 4 u b = i t $ # l.l.l.l.",
"l.l.l.l.. s & O @ * e 2 O e w * % . 5 y   l.l.l.",
"l.l.l.l.; a & 4 3 w H 0 < w Q - 4 8 - s % l.l.l.",
"l.l.l.l.t P & N r.*.p 8 v 2 s 2.1.a , ' ; l.l.l.",
"l.l.l.l.1 :.1 : x ~ N N C c A ] q $ b X.+ l.l.l.",
"l.l.l.l.$ :.b o o 2 K c b n C , o o E ] . l.l.l.",
"l.l.l.l.o P S & o o w 1 @ 4 2 . . 2 U b . l.l.l.",
"l.l.l.l.. 5 P , @ . 3 e % y * . # 8 F & l.l.l.l.",
"l.l.l.l.l.+ A y 6 % . [ s Q   * w p b . l.l.l.l.",
"l.l.l.l.l.  s s % X X { -.G X X = A w l.l.l.l.l.",
"l.l.l.l.l.. # 7 =       - . . . * w .   l.l.l.l.",
"l.l.l.l.l.  # 5 #   l.l.l.l.l.. 1 3 . l.l.l.l.l.",
"l.l.l.l.l.. , 5 . l.l.l.l.l.l.l.% 8 & l.l.l.l.l.",
"l.l.l.l.l.# J u l.l.l.l.l.l.l.l.# l.r o l.l.l.l.",
"l.l.l.l.l.8 j.b l.l.l.l.l.l.l.l.l.l.f.@ l.l.l.l.",
"l.l.l.l.# h k.J l.l.l.l.l.l.l.l.l.l.i.2 . l.l.l.",
"l.l.l.l.1 6.g.%.& l.l.l.l.l.l.l.l.l.i.,.. l.l.l.",
"l.l.l.l.s e.a.t.y l.l.l.l.l.l.l.l.,.u.2.3 l.l.l.",
"l.l.l.l.X 1 J u t l.l.l.l.l.l.l.l.l.l.l.l.l.l.l.",
"l.l.l.l.l.l.l.l.l.l.l.l.l.l.l.l.l.l.l.l.l.l.l.l."
};
