/* XPM */
static char *result[] = {
/* columns rows colors chars-per-pixel */
"24 47 146 2 ",
"   c #040200",
".  c #0C0302",
"X  c #0E0B08",
"o  c #130403",
"O  c #1A0705",
"+  c #140A07",
"@  c #1A0905",
"#  c #1C0608",
"$  c #140B09",
"%  c #1B0C0A",
"&  c #17100E",
"*  c #1D110E",
"=  c #1B1513",
"-  c #1E1813",
";  c #220906",
":  c #2C0E07",
">  c #230D0A",
",  c #2A0F0C",
"<  c #25120D",
"1  c #2E130E",
"2  c #30100F",
"3  c #36180F",
"4  c #241412",
"5  c #2B1513",
"6  c #251811",
"7  c #2B1A15",
"8  c #231B1A",
"9  c #2B1D1A",
"0  c #321513",
"q  c #391511",
"w  c #321B16",
"e  c #3D1C13",
"r  c #341D1A",
"t  c #3A1E1B",
"y  c #3C200F",
"u  c #2F221E",
"i  c #3D2214",
"p  c #33221C",
"a  c #3B221D",
"s  c #261F21",
"d  c #2D2321",
"f  c #2C2826",
"g  c #342321",
"h  c #3D2423",
"j  c #352B27",
"k  c #3B2924",
"l  c #362E29",
"z  c #3D2B29",
"x  c #39302C",
"c  c #441E1D",
"v  c #452115",
"b  c #43231E",
"n  c #4B261C",
"m  c #47291E",
"M  c #492C1F",
"N  c #442522",
"B  c #4C2721",
"V  c #412C27",
"C  c #4C2B24",
"Z  c #442D2B",
"A  c #4A2E2B",
"S  c #512B22",
"D  c #532E2D",
"F  c #4A3027",
"G  c #45332D",
"H  c #4C332C",
"J  c #523124",
"K  c #52342D",
"L  c #5D342D",
"P  c #5E3A2E",
"I  c #443331",
"U  c #4F3735",
"Y  c #443835",
"T  c #4B3B34",
"R  c #4B3C3A",
"E  c #513533",
"W  c #5C3530",
"Q  c #533C35",
"!  c #5C3B35",
"~  c #563D3A",
"^  c #5D3C3B",
"/  c #623D33",
"(  c #6A3D34",
")  c #623E3A",
"_  c #6B3F3A",
"`  c #713E36",
"'  c #5E4034",
"]  c #5B423B",
"[  c #634235",
"{  c #684335",
"}  c #64433A",
"|  c #6C443B",
" . c #6E493E",
".. c #724436",
"X. c #72453C",
"o. c #734A3D",
"O. c #533F40",
"+. c #4F4340",
"@. c #574642",
"#. c #5C4444",
"$. c #554C46",
"%. c #5D4D47",
"&. c #5F4C4D",
"*. c #654441",
"=. c #6B4641",
"-. c #654B45",
";. c #6C4B44",
":. c #6A4F4E",
">. c #724642",
",. c #744B44",
"<. c #7A4A44",
"1. c #7C4E4C",
"2. c #61534F",
"3. c #69574F",
"4. c #71504F",
"5. c #79514C",
"6. c #745255",
"7. c #7E5654",
"8. c #7C5954",
"9. c #755C59",
"0. c #7A5C5A",
"q. c #855449",
"w. c #875553",
"e. c #845B56",
"r. c #8C5B55",
"t. c #875A58",
"y. c #8C5D59",
"u. c #8C6157",
"i. c #84655F",
"p. c #8F635E",
"a. c #856363",
"s. c #8E6461",
"d. c #866A64",
"f. c #8E676A",
"g. c #866A69",
"h. c #956560",
"j. c #976B64",
"k. c #96736E",
"l. c #9B746C",
"z. c #9C7D73",
"x. c #A77C75",
"c. c #A27C7F",
"v. c #96807D",
"b. c #B68985",
"n. c #B48C89",
"m. c None",
/* pixels */
"m.m.m.m.m.m.m.m.m.m.m.  m.m.m.m.m.m.m.m.m.m.m.m.",
"m.m.m.m.m.m.m.m.m.m.m.X   m.m.m.m.m.m.m.m.m.m.m.",
"m.m.m.m.m.m.m.m.m.m.m.m.$ m.m.m.m.m.m.m.m.m.m.m.",
"m.m.m.m.m.m.m.m.m.m.m.m.Y m.m.m.m.m.m.m.m.m.m.m.",
"m.m.m.m.m.m.m.m.m.m.m.m.6.m.m.m.m.m.m.m.m.m.m.m.",
"m.m.m.m.m.m.m.m.m.m.m.* a.m.m.m.m.m.m.m.m.m.m.m.",
"m.m.m.m.m.m.m.m.m.m.m.4 f.a.m.m.m.m.m.m.m.m.m.m.",
"m.m.m.m.m.m.m.m.m.m.. r *.r m.m.m.m.m.m.m.m.m.m.",
"m.m.m.m.m.m.m.m.m.m.k Q F < . m.m.m.m.m.m.m.m.m.",
"m.m.m.m.m.m.m.m.] ^ ! ,.' Q T < . m.m.m.m.m.m.m.",
"m.m.m.m.m.m.% ] =.) { u.| / | ^ 5   m.m.m.m.m.m.",
"m.m.m.m.m.o G 0.5.( X.q.o.( <.r.^ % m.m.m.m.m.m.",
"m.m.m.m.m.4 ) t.h.} ..>. .( r.p.=.t . m.m.m.m.m.",
"m.m.m.m.o N W ( r.o./ ..[ ..r. .W D O m.m.m.m.m.",
"m.m.m.m.O ) ) n / o.( o.[ X.` S L =.*   m.m.m.m.",
"m.m.m.m.t 4.) c P ..( ..[ X.` c L 4.I   m.m.m.m.",
"m.m.m.m.h s.[ y { o.( >.{ | X.n S i.T . m.m.m.m.",
"m.m.m.m.5 ;.a J o.| ..<.;.} ,./ e -.g m.m.m.m.m.",
"m.m.m.m.o h : W ,.' } ,.=./ ,.} 2 h > m.m.m.m.m.",
"m.m.m.m.  @ 0 | { F K | ! D ) ;.a @ o m.m.m.m.m.",
"m.m.m.m.X % ! _ S M L } ! B B ' ' 5 @   m.m.m.m.",
"m.m.m.m.- 7 ,.q v P [ ) ) / n q ] a 5   m.m.m.m.",
"m.m.m.X k 1 : e / | ,.=.,.>.{ b : > F % m.m.m.m.",
"m.m.m.$ 9.Z i [ ,.} w.q.y.| o.X.M 5 a.6 m.m.m.m.",
"m.m.m.8 v.Z 7 h B { y.w.s.=.K b t 5 c.A m.m.m.m.",
"m.m.m.f @.% 9.0.Z 0 ,.w.7.t p 0.g.9 A R m.m.m.m.",
"m.m.m.m.  O I w Q i q _ c 2 ~ r z 5 .   m.m.m.m.",
"m.m.m.m.O % A < 7 Z h D c A w 5 z * %   m.m.m.m.",
"m.m.m.. 9 5 > > < ] T e H ] 7 < % $ j . m.m.m.m.",
"m.m.m.& z w o 4 k T p ; 2 Q z u . 4 R = m.m.m.m.",
"m.m.m.= O.5 > 5 p k 6 ; < a g 7 > < #.d m.m.m.m.",
"m.m.m.$ &.N N 0 @ k p 0 w k % , z 9 6.4 m.m.m.m.",
"m.m.m.X #.U w -.@.2.5 b 0 Y $.6.c g 6.# m.m.m.m.",
"m.m.m.  Z 3.r I 3.r N ] F 7 %.~ w O.O.# m.m.m.m.",
"m.m.m.m.@ H 1 o * ~ K } K ~ 7 o > U 5 . m.m.m.m.",
"m.m.m.m.  G k p % I F C N ~ * 6 p I $ m.m.m.m.m.",
"m.m.m.m.m.9 G % % u 5 @ < g 6 + l x . m.m.m.m.m.",
"m.m.m.m.m.o u 6 X 8 l + g d X * u $   m.m.m.m.m.",
"m.m.m.m.m.. 6 * . s % = = 8 * + 7 o   m.m.m.m.m.",
"m.m.m.m.m.% 7 + m.m.m.+ m.m.m.. 5 , o m.m.m.m.m.",
"m.m.m.m.o k Q o m.m.m.m.m.m.m.m.z E # m.m.m.m.m.",
"m.m.m.m.@ z.-.m.m.m.m.m.m.m.m.m.r n.0 m.m.m.m.m.",
"m.m.m.. 1 l.7.m.m.m.m.m.m.m.m.m.m.b.b O m.m.m.m.",
"m.m.m.+ ;.x.j.1 m.m.m.m.m.m.m.m.m.x.0.4 m.m.m.m.",
"m.m.m.u i.l.s.z m.m.m.m.m.m.m.m.m.k.d.Y m.m.m.m.",
"m.m.m.m.4 U w 9 m.m.m.m.m.m.m.m.m.] 9 8 m.m.m.m.",
"m.m.m.m.m.m.m.m.m.m.m.m.m.m.m.m.m.m.m.m.m.m.m.m."
};
