/* XPM */
static char *result[] = {
/* columns rows colors chars-per-pixel */
"64 64 228 2 ",
"   c #050000",
".  c #0B0100",
"X  c #0B0804",
"o  c #0E0D09",
"O  c #130100",
"+  c #1C0300",
"@  c #140A02",
"#  c #1A0A03",
"$  c #1A0A0A",
"%  c #1D130A",
"&  c #1E1413",
"*  c #230501",
"=  c #240B05",
"-  c #2C0C03",
";  c #240E0A",
":  c #2A0D0B",
">  c #2A0701",
",  c #330E08",
"<  c #2D1106",
"1  c #24130C",
"2  c #2B130C",
"3  c #241408",
"4  c #32130C",
"5  c #38110A",
"6  c #260F11",
"7  c #310E12",
"8  c #241613",
"9  c #2D1312",
"0  c #261A12",
"q  c #2C1B15",
"w  c #2E181A",
"e  c #321413",
"r  c #341914",
"t  c #3A1C1A",
"y  c #2C2117",
"u  c #33231D",
"i  c #3D231C",
"p  c #39261B",
"a  c #3D1E23",
"s  c #2D2524",
"d  c #3B2522",
"f  c #372B24",
"g  c #3D2A23",
"h  c #3C2C2A",
"j  c #332A26",
"k  c #3B352B",
"l  c #411E1A",
"z  c #461E16",
"x  c #432116",
"c  c #43241B",
"v  c #49211B",
"b  c #411F20",
"n  c #432726",
"m  c #4B2B22",
"M  c #452A28",
"N  c #532A23",
"B  c #493229",
"V  c #5A352C",
"C  c #4A3B39",
"Z  c #533B34",
"A  c #5C3C34",
"S  c #543C3B",
"D  c #5C3D3B",
"F  c #5B3633",
"G  c #643B2D",
"H  c #653A2F",
"J  c #633C33",
"K  c #6A3D33",
"L  c #623E39",
"P  c #683934",
"I  c #4D4139",
"U  c #5C4136",
"Y  c #55423D",
"T  c #5C423C",
"R  c #56453B",
"E  c #644035",
"W  c #694135",
"Q  c #64423A",
"!  c #6B443B",
"~  c #6B483D",
"^  c #73453D",
"/  c #744A3E",
"(  c #79443D",
")  c #4E633C",
"_  c #544442",
"`  c #5B4543",
"'  c #5B4942",
"]  c #5D4F4E",
"[  c #5D5244",
"{  c #614642",
"}  c #6C4641",
"|  c #6C4A44",
" . c #6D4D4B",
".. c #664A47",
"X. c #7B4543",
"o. c #734C43",
"O. c #7A4C44",
"+. c #734D4A",
"@. c #7C4E4A",
"#. c #764541",
"$. c #6E504B",
"%. c #66544B",
"&. c #725047",
"*. c #755249",
"=. c #7B534C",
"-. c #7D5345",
";. c #754F51",
":. c #665451",
">. c #6D5552",
",. c #6D5857",
"<. c #745553",
"1. c #84544A",
"2. c #8C6E6A",
"3. c #936D6C",
"4. c #9B6B66",
"5. c #89716D",
"6. c #9D716A",
"7. c #91736F",
"8. c #8D7373",
"9. c #847575",
"0. c #947474",
"q. c #977876",
"w. c #A56D6C",
"e. c #A6726D",
"r. c #A37B79",
"t. c #229C26",
"y. c #2B9D2E",
"u. c #299F27",
"i. c #2B9432",
"p. c #2F9F31",
"a. c #349D3A",
"s. c #26A52A",
"d. c #2BA42D",
"f. c #2AA92E",
"g. c #20A123",
"h. c #2DA431",
"j. c #2DAC32",
"k. c #26A230",
"l. c #31A535",
"z. c #33AC34",
"x. c #34AB3A",
"c. c #3AAD3B",
"v. c #3CAA37",
"b. c #32B235",
"n. c #3BBC37",
"m. c #35B53B",
"M. c #3AB53C",
"N. c #36BC3D",
"B. c #3ABC3E",
"V. c #36BA36",
"C. c #2FB133",
"Z. c #41BD3C",
"A. c #41B93A",
"S. c #37C13E",
"D. c #3BC13D",
"F. c #39C136",
"G. c #43C23E",
"H. c #49C33D",
"J. c #44C83E",
"K. c #3AB542",
"L. c #36BD42",
"P. c #3CBD42",
"I. c #3FB749",
"U. c #3EBD49",
"Y. c #36B740",
"T. c #3FAE45",
"R. c #42B644",
"E. c #41BD43",
"W. c #42BD4A",
"Q. c #49B949",
"!. c #42AC47",
"~. c #36C141",
"^. c #3CC142",
"/. c #3DC149",
"(. c #42C244",
"). c #49C546",
"_. c #4BCA44",
"`. c #44C34A",
"'. c #4BC54B",
"]. c #46C94B",
"[. c #4BCB4D",
"{. c #42C841",
"}. c #52CE4C",
"|. c #53C94B",
" X c #4DD04D",
".X c #54D24C",
"XX c #59D14E",
"oX c #4CCC52",
"OX c #49C953",
"+X c #55C653",
"@X c #53CC53",
"#X c #5BCE5B",
"$X c #54CC57",
"%X c #4ED153",
"&X c #4FD359",
"*X c #53D355",
"=X c #5BD453",
"-X c #5CD955",
";X c #55D45A",
":X c #5AD45A",
">X c #54DA5C",
",X c #5BDA5C",
"<X c #55DB54",
"1X c #60CE5B",
"2X c #62DA56",
"3X c #63DC5B",
"4X c #69DE5D",
"5X c #61D556",
"6X c #67E25D",
"7X c #5DDC61",
"8X c #5CD763",
"9X c #5ECB60",
"0X c #64D562",
"qX c #64DD63",
"wX c #6BDD67",
"eX c #63E365",
"rX c #68E468",
"tX c #96857E",
"yX c #A7867B",
"uX c #A3A37E",
"iX c #A98884",
"pX c #B09F8B",
"aX c #BBA29E",
"sX c #BBA8A4",
"dX c #988E8C",
"fX c #D1B7B4",
"gX c #C8B4B2",
"hX c #E4D5CD",
/* pixels */
"N.B.E.B.B.(.B.N.N.B.^.(.^.B.B.B.^.P.L.^.^.L.P.L.B./.B.`.8X;XE.M.Y.W.P.W.8X&XL.L.L.P.~.S.N.^.^.N.B.G.B.Z.Z.B.B.P.W.E.P.K.P.U.P.P.",
"B.B.P.B.B.(.E.B.B.Z.P.(.].(.B.B.L.P.^.^.L.N.N.L.N.P.P.P.W.'.oX'.P.U.P.P.OX].P.L.^.~.S.B.B.N.D.{.).Z.n.B.A.B.A.K.E.R.E.P.P.U.P.I.",
"(.P.B.Z.P.P.B.P.^.B.B.[.*X].N.B.L.N.^.^.N.N.P.L.P.P.E.m.j.E.$X'.P.G.B.B.D.G.^.D.G.n.n.D.(.D.Z..X2XH.Z.A.G.H.Z.n.B.Z.G.D.D.B.L.P.",
";X].B.B.Z.B.B.^.B.B.B.%X,X[.B.P.L.N.N.P.N.^.^.L.P.P.P.Y.M.oX8XoX(.}._.B.N.B.D.B.n.n.n.G..X_.Z.H.6X-XH.H._..XH.Z.B.Z.B.G.D.B.B.^.",
"rX*XE.N.N.B.B.B.B.P.P.{.[./.B.^.^.N.N.L.L.^./.N.P.N.M.P.E.].[.`.(.,X@XZ.n.Z.n.B.B.n.A.H.=X5X|.|.2X6X5X_.XX2X_.Z.B.N.N.S.B.B.B.D.",
"7X*X(.B.B.E.Z.N.P.{.P.b.C.N.D.B.^.L.P.~.^.P.B.P.P.P.P.P.P.z.j.b.[.    B.A.B.Z.Z.A.Z.A.G.}.2X2X2X2X6X5XXX2X=X(.B.G.D.D.N.B.B.D.B.",
"D.(.D.B.(.[.].B.Z.P.B.b.f.N.P.N.^.^.~./.]./.B.P.P.P.P.P.P.z.j.N.  X `.P.P.P.(.E.P.R.Z.Q.A.'.wXwX4XQ.1X1X$XE.P.L.^.].OX/.L.P.U.P.",
"g.C.N.B.].=XoXB.B.N.B.(.B.B.E.N.N.^.~./.>X[.B.N.B.P.N.P./.P.N.  o   Y.P.P.M.`.E.P.E.R.E.p.l.$X0X1XA.A.+XQ.f.z.P.P.&X8X/.Y.I.U.P.",
"m.b.M.Z.(.(.(.(.B.B.B.B.P.B.B.B.P.P.%X/.m.N.^./.P.P.P.P.P.P.  o j   ~./.~./.L.U.L.K.L.I.K.c.x.x.v.p.y.l.x.K.P.P.U./././.U.L.U.U.",
"E.(.E.B.N.D.(.(.B.B.B.B.E.B.B.B.P.[.7X`.f.m.P./.B.B.P.^.P.P.. _ s   L.L./.~.Y.`.`.U.Y.I.R.K.z.h.p.p.p.h.x.U.W.P.L.L.U.Y.L.U.U.U.",
"B.B.Z.(.Z.M.B.N.Z.B.B.B.^.E.B.Z.N.`.7X*XN.B.E.M.B.B.B.B.P.O = ..j   N.N.~.S.S. X<X].L.Y.P.P.B.B.M.M.M.M.m.B.^.B.N.B.B.P.B.^.P.Y.",
"Z.M.B.E.E.B.(.[.(.E.B.P.B.B.^.(.P.P.P.^.N.P.P.P.B.P.P.B.P.O D 8.. ~.N.N.~.S.S./.]./.L.Y.P.P.P./.Q.R.E.E.E.A.Z.B.P.N.{.].]./.Y.Y.",
").Z.B.B.B.E.}.;X(.(.(.B.B.Z.^.E.P.b.h.j.B.E.M.E.B.E.B.B.X ; =.0.. S.S.F.B.F.S.S.S.S.S.S.N.N.N.N.B.B.E.E.B.Z.G.n.B.D.{. X[.J.B.D.",
"B.M.Z.M.(.*X`.z.N.B.B.B.B.B.B.B.B.B.m.m.E.E.B.B.Z.B.P.B.O ) 3.0.O . S.S.V.S.S.S.^.~.S.S.S.~.S.P.E.P.E.E.(.Z.B.D.n. X.XB.C.D.D.B.",
"E.(.'.E.[.3X).d.M.N.B.B.B.B.B.B.P.E.E.B.B.E.E.Z.B.B.).].. k D 7.j   N.N.S.S.~.S.~.S.~.~.~.~.~.L.P.Y.B.P.Z.P.(.].H.*X-Xb.s.B.(.N.",
"B.[.,X).(.:X].Z.B.B.P.(.B.P.E.{.E.M.P.(.M.E.E.A.B.(.*X;X(.. i T :.  S.D.S.S.N.N.~.~.~.~.N.N.L./.L.U.P.N.B.(.*X=X(. X-X).n.B.B.B.",
"B.B.Y.B.N.m.P.E.B.{.oX%X[./.P.(.P.P.M.P.P.B.(.}.).A.XX2XXXO + * i # # . _. XB.N.B.D.^.~.D.B.N.L.P.P.P.P.E.K.P.E.Y.P.N.E.P.m.B.P.",
"E.z.f.m.m.j.j.P.B.].,XeX;X{.B.D.P.P.M.B.E.Z.(.;X*XZ.5XX . + n D | Q t + .   S.N.N.D.^.^.^.~.^.P.P.P.P.P.P.M.x.j.M.z.d.M.B.B.(.).",
"E.m.m.m.B.m.m.P.N.].7XrX>X].S.N.P.(.B.N.B.M.).,X3X:XX @ ' U A L +.K A A T #   P.B.B.P.P.Y.B.P.P.N.M.P.P.P.B.M.M.P.M.b.P.^.B.[.>X",
"B.E.(.P.B././.B.D./.%X*X%X/.N.N.B.(.B.B.E.P.Z.`.*X@ q <.U A Q E 6.P L E A $.8 . B.B.L.N.B.L.P.P.P.P.Y.P.P.P.P.E.B.E.(.(.B.P.[.<X",
"m.P.P.P.M.B.P.^.^.N.N.^./.^.N.N.B.N.D.E.(.(.M.f.X @  .*. .Q A ~ 6./ ! Q X.;...O   P.P.P.U.U.U./.B.B.N.B.^.B.B.P.N.B.P.N.N.D.(.^.",
"B.P.E.E.P.P.P.P.N.N.N.N.S.B.N.N.B.N.(.(.N.Z.P.j.. [ | 4.@.J J =.O.o.J H X.w.>.` . P.P.P.P.U.L.Y.N.B.].oX].^.B.(.B.B.B.B.B.(.B.B.",
"B.P.P.P.^.P.^.L.D.N.N.S.N.B.N.^.B.A.(.B.m.N.E.. 0 { o.4.e.F J ~ W 1.F W w.w.+.S w . P.L.L.L.N.N.B./.oX*X[.P.N.P.(.B.B.^.^.S.N.S.",
"P.P.P.P.B.N.B./.^.P.N.B.N.D.P.D.Z.B.B.B.Z.P.P.. d L J ^ w.O.W E -.H G ^ w.X.P ` d . P.L.U.P.L.L.B.B.P.`.`.P.B.N.P.B.N.N.N.^.B.B.",
"E.P.P.E.B.N.L.^.^.^.S.N.N.^.^.B.P.^.B.B.(.(.. #  .J z ^ #.( J G / G W -.( K N G  .$ . P.~./.^.^.P.P.P.Y.P.Y.L.L.P.Y.Y.L.L.L.P.L.",
"P.E.P.P.^.P.P.N.~.N.B.~.P.D.B.B.B.B.B.B.B.B.  0 +.O.z z K -.J K / W W / H z l / +.e   P.N.N./.B.P.P.L.P.P.U.L.Y.~.P.L.P.P.N.L.^.",
"B.E.B.M.P.P.^.L.~.^.B.N.^.P.B.B.P.B.B.E.B.P.X :.+.@.c x W o.E G / W G ( W x x |  .... L.N.N.{.B.Y.P.P.P.L.U.I.P.U.L.U./.^.Y.B.^.",
"E.P.P.P.P.B.L.P.S.^.^.S.B.(.^.B.E.P.B.E.`.E.@ ' 4.@.< c ~ o.E J / W G / ~ i 4 $.q.$.. D.L.N.P./.`.W.U.P.L.I.P.P./.L.L.L./.P.P.P.",
"E.R.M.E.(.P.N.N.N.N.B.N.^.%X*XB.M.B.B.).;X].  ' r.V - U / &.J +./ / E &.*.U < Z 3.D . L.E.P.b.[.:X'.P.P.(.E.P.(.P.B.N.P.B.B.B.E.",
"E.M.M.B.P.P.^.^.N.N.N.N.{.,X,X^.M.Z.(.@X,X%X. 1 } - c *.~ ! A &./ &.G G / *.i -  .2 . P.oXoXP.[.qX;X'.E.B.P.P.P.B.P.P.B.N.N.B.B.",
"Z.E.E.P.B.P.P./.S.S.N.B./.[.[.(.Z.Z.E.).[.].. 3 2 O K | J U E E &.W ! F J o.A O : 1 . W.oX#X'.#XeX3X@XB.M.N.B.N.N.B.B.B.P.{.(.B.",
"M.[.;XoXP.N.L.N.N.^.N.N.B.m.b.^.E.E.P.M.b.X 0 M # O #.#.J Q A U / U A ! K #.Q * ; y 0   b.R.+X0X,X).b.M.Z.E.B.^.P.B.B.P.).%X_.n.",
"'.oXOX`.P.P.P.N.L.Y.P.^.N.k.j.P.P.E.Y.m.C.  C 7.X + H =.J U n A U U c J H 1.A + O tXh   f.z.(.@X'.c.f.M.(.B.N.^.D.~.J.B._.2X.XH.",
"8X(.j.j.L.U.^./.L.~.U.P.Y.P.Y.B.K.P.P.P.P.  n aX  @ D +.T U c U U U x A L +.L + . sXj   P.b.d.t.p.c.A.E.E.P.B.N.D. X<XJ.J.-X2X2X",
"rXOXj.b.P.`.^.N.L./.^.N.P././.B.P.K.P.P.P.. 8.aX. @ U ! T c i A R I c c L | D = + aX9.  E.M.z.z.d.M.E.B.P.^.B.N.S..X,X*XXX4X6X4X",
"&X&X(.N.B././.N.N.B.P.P.B.B.P.P.P.W.P.P.L.  dX:   3 Z ~ 2 c U E V ~ E x 4 L F ; . q dX  B.E.E.E.Z.Z.E.Z.Z.P.D.B.D._.;X6X4X4X5X5X",
"j.m.P.P.P.B.P.L.P.P.L.^.P.N.N.P.P.P.P.P.L.B.. O X = = - x U Q A Q F L K v > > 9 O . . P.P.P.P.N.B.D.(.B.N.B.E.E.B.l.c.#XrX0XQ.A.",
"s.j.B././.P.N.N.~.^.~.P.P.^.P.P.P.P.P.P.P.~.P.. . + * x U ~ V 1.J =.K o.L l * + .   B.N.P.P.B.B.N.^.^.B.B.B.E.E.E.z.j.R.+XQ.A.v.",
"N.P.P.N.N.N.B.^.N.P.^.N.B.^.D.N.^.P.^.B.B.N.B.P.. + d +.o.=.W 4.H 6.K } =.*.t + . P.^.P.P.P.P.^./.Y.Y.P.P.K.R.R.R.R.T.x.y.y.l.R.",
"(.^.B.B.B.B.B.B.B.S.B.^.N.N.N.^.L.L.S.^.^.B.B.  O : <.| &.G ( e.^ 4.+.A &.*...9 .   L.P.B.`.%XoXP.P./.U.W.P.K.E.R.Q.K.Y.l.x.K.!.",
"N.B.E.N.B.E.B.B.B.B.B.B.^.D.^.N.S.B.~.B.D.D.  X w 6 +. .J J 1.( X.X.} ~ F } <.3 % @   P.L./.*X*XP.P.P.E.W.E.A.A.E.E.A.B.B.N.P.^.",
"B.N.N.B.B.N.B.B.^.E.(.B.B.N.N.^.^.S.B.~.L.B.    O O + D A Q O.4.+.+.L A + O . O _ 8   ~.N.P./.^.P.P.P.P.}.:X'.M.A.E.).D.B.P.^.L.",
"B.P.B.B.B.P.^.B.N.B./.B.P.N.B.^.N.B.S.S.N.      8.fX2.> * + / O.J * > * 2.gXq.. _ _ . . P.B.P.m.P.).(.H.|.3XXXH.Z.H.H.F.F.F.S.F.",
"Z.(.B.(.(.Z.B.N.B.(.B.P.^.B.B.N.S.~.^.N.L.  s   S w : 2.Q * , #., * J 0.r 3 I . ` ` 8 . P.P.P.P.B.@X*X'.|.3X3X=XH.|.XXJ.F.F.F.D.",
"E.B.P.oX@XE.B.E.*X@XP.B.P.P.P.P.D.~.L.D.B.  C X Y ; e 7 q.T , A 2 ` 3., ; 1 ' . D 6 ` X K.I.(.E.(.:X2X=X=X4X4X2XXX2X2X_.^. X^.S.",
"(.P.E.(.].).W.(.,X:XP.m.N.P.P.P.N.B.S.L.^.  ` . @ 0 : = U Z { 2 R Z L 7 2 q . O D <.S X P.U.P.R.(.).=XqX5X+X2X4XeX-X_.G.{.<X XF.",
"P.P.P.j.B.*X[.E.;X,XP.B.P.P.P.B.~.D.B.S.P.  d 0.. @ r e U ` 2 : 1 ' A : : @ . 3 7 3.b X P.E.E.Z.M.l.R.:X'.A.|.4X5XQ.x.c.W.W./.U.",
"P.M.P.d.P.7X;XE.*X8X`.P.N.B.P.P.S.L.~.S.P.  9 0.  . Z A ' d O # @ t +.L ` .   0 7 r.7 X P.K.B.E.R.z.c.R.z.u.A.Q.Q.m.l.K.Q.P.U.U.",
"Y.(.P.K.'.:X@XP.}.$X).E.B.B.G.B.~.L.~.L.L.  6 O 8 0 + D B y # @ # g M D + q % . D 0.9 . P.N.B.P.P.E.m.f.t.t.s.s.s.z.M.E.R.P.E.K.",
"P.U.W.P.M.M.M.M.b.M.B.Z.B.B.^.B.L./.L.L.L.X . . _ d 0 1 f u @ 3 O p d 9 7 u Y O D ` .   P.L.P.^.(.P.Y.m.c.m.m.x.b.M.Z.R.P.R.E.W.",
"P.P.P.E.m.f.x.E.d.f.B.E.P.P.P.P.~.L.^.S.L.B.  . 6 n u . . f p 2 p p . O g d q O D w   ^.^.L.~.P.P.B.P.P.W.U.P.P.E.E.B.Z.P.P.U.U.",
"B.B.B.P.N.M.B.E.M.m.E.E.B.P.P.P.L.~.N.S.P.~.    . :.fX. hX. w 7 i . hX. gX,.. 0 :..   ^.^.~.L.P.B.N.B.P.P.K.E.E.W.P.B.B.P.P.U.P.",
"N.B.B.B.B.B.Z.P.E.M.E.I.Y.P.K.U.^.N.S.B.D.~.P.. Y O + 5.. # b } i + O ,.$ . q 1 ` . N.P.N.^.S.S.B.N.D.^.N.N.B.E.^.B.N.^.P.L.L.L.",
"N.N.B.D.B.B.B.Z.E.P.P.W.U.U.P.U.S.^.N.S.D.D.D.  ` 2 . u %.2 } t T 9 ,.s   8 1 3 I . S.N.S.^.^.N.D.N.N.B.P.P.P.P.B.B.N.B.P.P.L.^.",
"B.F.D.D.n.n.n.(.P.P.P.OX&XW.I.U.D.P.B.N.D.~.^.  R U 2 O I Z c ;.M D _ .   O 2 U R . B.N.S.~.~.~.B.n.B.B.P.P.B.B.B.B.N.N.S.^.~.L.",
"J.D.J.V.n.G.D.N.B.B.K.&X8XOXL.U.B.^.^.D.N.N.. . m Q < . p >.b ;.w ,.h . X % 2 U B X   N.S.~.S.S.N.B.B.D.P.B.B.P.B.D.^.B.S.~.^.N.",
"-X.XZ.Z.Z.n.G.B.Z.M.B.*X8X'.P.I.B.B.P.(.N.b.. 3 r c m + %.d 7 6 e h ] . X . c V < 0 O ^.S.S.~.~.Z.E.Z.B.E.E.B.B.(.B.P.B.B.^.N.P.",
"6X-XH.n.G._._.Z.B.Z.Z.B.B.P.I.U.B./.(.^.D.  # 2 5 m m O . h . # O f . B.B.. N N < 2 3   S.S.S.N.B.[.[.E.M.P.}.}.Z.B.B.B.D.^.L.N.",
"eX3X0X@X}.-X}.Z.A.G.B.b.s.m.^.P.P.P.P.P./.  q i iXpX4 U.. I j O w _   D.N.B.5 uXyXi : X ~.L.~.N.E.:X;X`.P.'.$X@XZ.M.Z.Z.G.P.B.B.",
"eXqX3X=X,X3X}.A.Z.B.B.n.b.Y./.^.P.P.P.[.*X. s q.yXiXd . P.    & @   /.D.B.O l yXiX7.h   ~.^.~.~.Z.@X$X`.'.$XE.x.B.B.Z.E.B.B.B.N.",
"+X9X0XwX3X+XE.E.Z.Z.N.B.^.^.L.P.B.B._.[.].  h ; m e n   /.P.B.^.D.N.N.D.B.. M 4 t 2 M   L.N.L.~.(.;X;XW.;X8XY.j.M.P.E.B.B.B.B.B.",
"i.Q.9XwX+Xz.c.Z.Z.E.B.B.^.B.N.^.N.(.*X(.f.j.  . . O . P./.P.N.B.S.N.D.B.B.Z.. O . .   /.L.N.N.L.(.:X$XW.OX9XW.E.M.Z.Z.Z.B.N.B.E.",
"i.a.!.Q.!.v.R.R.E.E.P.P.P.B.L.^.n.^.,XoXV.M.B.A.E.K.P.P.B.N.N.S.S.N.D.B.B.E.B.).@XE.B.P.L.N.L.L.L.U.U.K.K.K.W.E.A.B.).[.[.B.B.B.",
"i.i.a.i.a.R.R.R.M.M.P.{.^.P.^.L.D.D.*X<X_.(.Z.P.K.P.U.P.N.N.S.S.S.N.B.B.P.B.B.@X,XE.B.P.~.P.~.U.Y.j.h.K.m.k.K.K.E.Z.(.,X,XZ.N.N."
};
