/* XPM */
static char *result[] = {
/* columns rows colors chars-per-pixel */
"64 64 226 2 ",
"   c #050100",
".  c #0B0100",
"X  c #050A04",
"o  c #0C0A03",
"O  c #0F0408",
"+  c #130201",
"@  c #1B0301",
"#  c #1B0B04",
"$  c #140D09",
"%  c #170B07",
"&  c #1C140C",
"*  c #19150A",
"=  c #1B1816",
"-  c #0D1F0B",
";  c #220401",
":  c #230D05",
">  c #2A0C06",
",  c #240D0B",
"<  c #2C0E0B",
"1  c #2B0600",
"2  c #24120C",
"3  c #2A120E",
"4  c #35130A",
"5  c #270E10",
"6  c #241211",
"7  c #2A1513",
"8  c #221B13",
"9  c #2A1915",
"0  c #251A1A",
"q  c #331911",
"w  c #3C1E1B",
"e  c #361916",
"r  c #310D0D",
"t  c #12250D",
"y  c #142A12",
"u  c #113413",
"i  c #2B2818",
"p  c #34241C",
"a  c #3B221D",
"s  c #392618",
"d  c #323917",
"f  c #2D2624",
"g  c #332422",
"h  c #3C2623",
"j  c #332B24",
"k  c #3C2B25",
"l  c #3E2D29",
"z  c #3B3629",
"x  c #441D17",
"c  c #48251D",
"v  c #452418",
"b  c #4A2016",
"n  c #432523",
"m  c #4A2621",
"M  c #412925",
"N  c #4A2A25",
"B  c #422C2A",
"V  c #462629",
"C  c #423329",
"Z  c #5B362C",
"A  c #493835",
"S  c #573B35",
"D  c #5D3C34",
"F  c #5C3D3A",
"G  c #543B38",
"H  c #62372D",
"J  c #633C34",
"K  c #693D34",
"L  c #623E39",
"P  c #6C3934",
"I  c #693531",
"U  c #1E511A",
"Y  c #2E5221",
"T  c #56423D",
"R  c #5B413C",
"E  c #4C453D",
"W  c #64433C",
"Q  c #69423B",
"!  c #694437",
"~  c #73443B",
"^  c #72493E",
"/  c #48683E",
"(  c #573E42",
")  c #534444",
"_  c #5B4343",
"`  c #5D4942",
"'  c #4E4540",
"]  c #624442",
"[  c #6D4B45",
"{  c #654D4B",
"}  c #6B4E4B",
"|  c #674A45",
" . c #744D43",
".. c #7A4B43",
"X. c #714E4A",
"o. c #7A4B47",
"O. c #64534C",
"+. c #6C514C",
"@. c #765149",
"#. c #6C5251",
"$. c #745351",
"%. c #7A7F66",
"&. c #82534C",
"*. c #824D49",
"=. c #976B5E",
"-. c #896C69",
";. c #9C6C66",
":. c #9D6F6B",
">. c #936C67",
",. c #8C746D",
"<. c #94736C",
"1. c #877B74",
"2. c #927473",
"3. c #967C74",
"4. c #987A78",
"5. c #916F70",
"6. c #A26E6B",
"7. c #A16A65",
"8. c #A67471",
"9. c #2B9D2E",
"0. c #249D26",
"q. c #2F9E31",
"w. c #2B9432",
"e. c #339938",
"r. c #328B2F",
"t. c #26A52A",
"y. c #2BA42D",
"u. c #2BAA2E",
"i. c #20A123",
"p. c #2DA431",
"a. c #2DAC32",
"s. c #26A230",
"d. c #31A535",
"f. c #33AC34",
"g. c #34AB3A",
"h. c #3AAD3B",
"j. c #3CAA37",
"k. c #32B235",
"l. c #3BBC37",
"z. c #35B53A",
"x. c #3AB53C",
"c. c #36BC3D",
"v. c #3ABC3E",
"b. c #38BB35",
"n. c #2FB133",
"m. c #42953D",
"M. c #41BD3C",
"N. c #41B93A",
"B. c #37C13E",
"V. c #3CC13D",
"C. c #39C136",
"Z. c #43C23D",
"A. c #48C53D",
"S. c #3FAD44",
"D. c #3AB542",
"F. c #36BD42",
"G. c #3CBD42",
"H. c #3EBD49",
"J. c #3BB745",
"K. c #418B42",
"L. c #659759",
"P. c #42A846",
"I. c #42B644",
"U. c #41BD43",
"Y. c #49BC46",
"T. c #42BD4A",
"R. c #48B54A",
"E. c #58B258",
"W. c #739F67",
"Q. c #36C142",
"!. c #3CC142",
"~. c #3DC149",
"^. c #42C244",
"/. c #49C546",
"(. c #4BCA44",
"). c #44C34A",
"_. c #4BC54B",
"`. c #46C94B",
"'. c #4BCB4D",
"]. c #42C841",
"[. c #52CE4C",
"{. c #53C94B",
"}. c #4DD14D",
"|. c #54D24C",
" X c #58D14E",
".X c #4CCC52",
"XX c #49C953",
"oX c #55C653",
"OX c #52CD53",
"+X c #5BCE5B",
"@X c #54CC57",
"#X c #4ED153",
"$X c #4FD359",
"%X c #53D355",
"&X c #5BD453",
"*X c #5CD955",
"=X c #55D35A",
"-X c #5AD45A",
";X c #55DA5B",
":X c #5CDA5D",
">X c #55DB54",
",X c #62DA56",
"<X c #63DC5B",
"1X c #69DE5D",
"2X c #61D556",
"3X c #60CE5B",
"4X c #67E25D",
"5X c #5DDC61",
"6X c #5CD763",
"7X c #5ECB60",
"8X c #64D562",
"9X c #64DD63",
"0X c #6BDD67",
"qX c #66E367",
"wX c #86826D",
"eX c #AC837B",
"rX c #82AE70",
"tX c #B48381",
"yX c #A28A87",
"uX c #BAA5A2",
"iX c #C79F9C",
"pX c #C6A7A3",
"aX c #CCB2AE",
"sX c #D4B9B2",
"dX c #D7D4C9",
"fX c #F8EFEC",
/* pixels */
"c.v.U.v.v.^.U.v.c.v.^.!.^.v.v.v.!.Q.G.Q.G.!.c.G.c.G.F.).5X=XU.z.J.G.G.).6X$Xc.F.F.F.B.c.c.!.!.c.l.M.v.M.M.v.N.x.).U.G.D.G.H.H.J.",
"v.v.G.v.v.!.v.v.v.!.!.^.`.!.v.v.G.F.!.!.F.c.F.G.G.!.G.U.T._.X X J.T.G.G.XXXXF.F.!.!.B.!.v.c.B.^./.Z.c.M.N.v.G.D.U.U.G.U.H.G.G.G.",
"^.G.v.M.^.v.v.v.v.v.v.`.=X`.v.v.F.c.!.!.c.F.F.F.G.G.G.z.p.G.=Xt X U.M.v.V.Z.B.V.V.l.b.Z.A.Z.l.|.,XA.M.N.Z.A.M.l.l.M.^.G.B.v.G.!.",
"=X`.v.v.M.v.v.U.v.v.v.%X:X'.c.G.G.c.c.F.c.G.!.c.G.G.G.J.J..X6Xo u t /.v.c.v.Z.v.l.l.l.Z.}.(.M.(.4X*XA.A.(.|.A.M.v.N.v.Z.V.c.v.!.",
"qX%XU.c.v.v.c.v.v.^.!.^.`.^.v.!.!.c.F.v.F.!.G.c.v.c.z.G.^.)..Xu Y.m.%XN.l.v.v.M.l.l.N./. X,X{.{.,X4X&X(. X,X/.v.V.v.v.B.v.v.v.V.",
"5X%X^.l.v.^.U.v.v.^.v.k.n.c.v.v.!.!.F.F.G.!.F.G.G.G.J.G.G.k.a.U `.<X'.l.l.N.l.M.N.N.M.M.[.,X<X,X,X4X,X X,X*X/.l.V.V.v.Q.v.v.V.v.",
"V.^.!.v.^.'.`.v.v.^.v.k.u.c.!.c.F.!.Q.~.`.~.v.G.G.!.G.G.G.f.a.q.P.E.).G.G.G.^.U.G.U.N.Y.N._.0X0X1X X{.3X@XU.G.F.G.`.~.~.F.G.G.H.",
"i.n.c.v.`.%X'.v.c.c.v.^.v.G.M.c.c.Q.!.`.$X.XG.v.c.G.v.G.^.G.c.G.* Y.S.G.J.J.).U.H.U.U.I.q.d.@X8X3Xm.N.+XY.y.g.G.G.=X6X).J.G.H.J.",
"z.k.v.N.!.^.^.^.v.l.l.G.U.v.v.v.G.!..X).z.c.!.~.G.G.G.G.G.G.G.c.* H.O.w.F.G.J.H.J.J.J.H.J.h.g.g.h.q.9.d.g.D.J.G.~.~.~.~.H.F.H.~.",
"U.U.U.v.c.!.^.^.v.v.c.v.G.v.v.v.G.XX5X).u.n.G.G.G.v.G.G.G.G.G.v.@ L.4.K.u F.F.).).J.F.H.I.D.d.p.q.9.d.p.g.H.^.G.F.F.F.G.H.J.H.H.",
"l.v.U.^.M.v.v.x.G.v.v.U.G.Z.v.M.c.).5X%Xc.G.U.v.c.v.v.v.v.v.v.o # 4.-./ X c.B.`.;X`.F.z.G.G.G.v.x.x.x.x.z.v.U.v.c.c.v.v.G.G.H.F.",
"U.N.v.^.M.x.^.'.^.U.v.v.G.G.G.^.G.v.!.G.c.G.G.G.v.v.G.v.v.v.v.. C -._ l X B.B.`.'.!.c.F.G.G.G.!.Y.I.Y.U.N.v.v.V.G.v.^.`.`.G.F.z.",
"^.U.l.v.v.U.[.%X^.^.v.v.v.v.^.v.G.z.y.a.G.U.l.U.U.M.v.v.B.o * + c a @ + c.c.B.B.Q.B.B.B.B.c.c.v.v.x.U.U.v.M.Z.l.V.V.(.}.`.V.v.V.",
"v.x.N.x.^.%X`.f.c.v.G.G.v.v.v.v.v.v.z.z.U.U.v.v.v.v.G.+ + @ p R  .W m @ + . !.c.!.B.c.B.c.Q.Q.G.U.U.M.^.^.M.v.v.l.`.|.v.k.Z.V.v.",
"U.U.'.U.'.<X/.y.x.v.v.Z.v.v.M.G.G.U.G.U.x.U.U.N.c.o . @ R R D Q ^ ! Z L F @ . . Q.Q.B.Q.Q.Q.Q.F.H.F.G.G.U.G.^.`.Z.&X*Xk.t.v.^.v.",
"M.'.:X`.^.-X`.M.c.v.G.^.v.v.!.^.U.x.U.U.v.G.^.x.. @ +.} [ ! J ^ =...^ K $.X.{ @   Q.Q.F.F.c.F.Q.F.G.J.c.l.^.%X%X/.}.*X/.l.c.c.V.",
"G.x.F.x.v.z.G.G.v.^.}.%X}.!.v.^.G.G.x.G.G.v.^.'.o R [ <. .J K  ...^ K Z @.:.X.( . B.!.!.!.c.G.F.F.G.G.J.D.v.G.U.G.J.c.U.G.z.v.G.",
"G.f.u.z.z.a.a.G.v.`.:X5X;X).v.V.G.G.x.v.U.M.^.. 2 W  .;.;.K W ^ ^ o.K P ;.6.} ] 7 . !.!.!.!.c.G.G.G.G.G.H.x.f.d.x.a.y.x.v.v.^.`.",
"^.z.z.z.G.z.z.G.v.`.5XqX;X`.B.c.G.^.v.c.v.v./.. c Z ! &.6.~ ^ L  .J K ..6.*.J S v . !.F.c.v.G.F.v.z.G.G.U.v.v.x.G.x.z.v.^.v.`.:X",
"v.U.^.G.G.^.!.G.B.~.#X%X#X~.c.c.G.^.v.v.U.v.  + ! ! b Z ..^ J J  .H I o.o.I m W } # . c.v.F.G.G.G.v.v.G.G.G.G.U.v.U.^.^.c.V.`.=X",
"x.G.G.G.z.G.G.G.B.v.c.!.~.!.c.c.l.c.v.^.U.^.. 7 @.@.v v H ..K Q ..! K ^ P b b [ } 2   G.J.~.H.H.G.v.c.G.!.v.v.v.c.v.!.c.l.V.^.!.",
"v.G.G.U.G.G.G.G.v.c.c.c.B.c.c.v.v.c.^.^.c.v.  #. . .x b ! ^ Q H ^ K P ~ ~ x b o.} #.. G.H.H.G.F.c.v.`..X`.G.G.!.v.v.v.v.v.^.B.c.",
"v.G.G.G.!.G.!.F.G.c.c.c.v.B.v.G.v.N.^.v.z.v.+ { ;.^ > v ~ ^ J K ~ ! H ^ ..x 4 +.,.{ . G.F.F.F.c.v.^..X%X'.G.c.G.^.v.v.!.!.v.c.v.",
"G.G.G.G.v.c.v.~.!.B.v.v.B.v.B.G.^.v.v.v.v.G.  T wXR 4 ! ^  .J  .^ ^ ! &...H 4 S ,._   F.G.G.F.F.v.c.G.).).G.c.v.G.v.c.c.c.!.v.B.",
"U.U.G.G.v.c.G.!.!.Q.B.v.c.!.!.v.v.G.v.v.^.v.. 9 | > s  .[ L J  .^ ^ ! Z .. .a # { 3   !.Q.!.!.!.G.F.G.F.F.F.J.F.G.F.F.F.c.F.G.F.",
"G.G.G.U.!.G.F.c.Q.v.c.B.B.!.v.v.v.v.v.v.v.^.G.. T + Z @.J D c D  .! w ! !  .F + T + G.F.c.c.!.G.J.G.G.G.J.H.F.F.G.J.H.F.F.c.F.!.",
"G.N.v.x.G.G.Q.G.!.!.!.c.G.v.c.v.G.v.G.U.G.v.G.. & @ R [ J x v L ! D c c Z X.T # 9 . c.Q.c.F.^.v.z.G.H.G.F.G.H.G.Q.H.F.~.G.F.v.G.",
"U.G.G.G.G.v.F.G.B.Q.!.v.G.^.^.c.U.v.v.U.^.G.  o . 9 G L < m L F ! W D w 4 R R 2 . %   v.c.c.!.!.T.).H.G.G.J.G.J.H.F.F.G.G.G.G.G.",
"U.U.v.U.G.G.F.c.c.c.B.v.v.%X%Xv.x.v.l._.=X`.. 0   2 ; e x Q J L J J W W N < + 2 . 7   G.U.G.z.'.-X).G.U.^.G.G.^.G.G.v.v.G.v.v.G.",
"U.x.x.v.G.G.G.!.B.c.c.c.^.:X:X^.v.N.^.OX:X%X. z   + ; x F [ J o.P  .L Q L w : @ . A . G..X.XD..X9X-X'.U.G.N.G.G.v.F.G.v.c.v.G.v.",
"G.U.U.G.G.v.G.!.c.B.c.c.~.'.'.^.U.U.U.`.'.  6 l . # w $.X.o.P ;.P :.Q @.o.X.s @ + h $   OX@X_.@XqX<X'.U.x.c.v.v.c.v.v.v.!.^.Z.v.",
"x._.-X.XG.v.F.F.c.Q.v.c.v.b.n.!.U.N.v.x.k.  B 2.. + + @ [ J o.;.P >. .L [ @ + . + 1.l . z.U.oX9X2X/.k.z.G.M.G.!.v.v.v.V.`.|./.v.",
")..XXX).G.G.F.F.F.F.G.~.D.t.a.F.U.G.v.a.a.  V uX+ aXaX3.;  ...6.*.6. .[ 1 >.sXaX+ uXl   y.f./.OX_.j.p.J.^.v.c.!.B.!.].V.(.,X|.A.",
"9X^.a.a.G.~.G.~.F.G.G.G.F.c.J.G.x.G.H.G.F.. 2.pX@ ,.3 M <.1 J :.o.;.Q @ <.m 3 ,.+ uXW.  G.k.y.0.y.j.N.G.U.G.v.c.B.}.>XA.A.*X,X*X",
"qXXXa.z.G.^.!.F.F.G.!.c.v.!.!.G.J.G.H.H.H.  yX< + _ 3 : N -.1 L o.I @ 3.w < q F + 7 E.  U.x.f.f.u.x.U.v.v.^.v.c.B.}.:X%X X1X1X1X",
"=XXXU.c.G.~.!.c.F.G.G.F.G.G.G.G.T.G.G.G.F.G.. . + R 3 > a R ; 3 X.r ; F k , < ] + . . H.G.G.U.U.M.N.v.U.v.!.M.v.Z.(.>X<X4X1X2X2X",
"a.z.F.!.G.G.G.c.G.F.!.!.G.c.v.G.G.G.G.v.c.G.. . . G _ , 7 M A e R > ] p 2 8 _ T + + . G.G.G.G.c.l.^.!.v.c.M.U.U.x.f.h.@X0X8XY.N.",
"t.a.G.~.!.v.G.c.F.!.G.F.G.!.G.v.G.G.G.G.F.F.. 6 + + G e & i ] > 2 : R M 8 * ' . + 5 . F.G.G.v.v.c.G.!.G.c.G.G.U.U.f.f.J.oX{.N.q.",
"c.G.G.v.c.c.G.G.c.v.B.v.c.!.!.c.!.Q.c.!.G.X . ( , . % @ = f w ; # # h p 8 o % . 5 ( . X G.G.G.G.!.F.F.G.H.D.D.I.I.I.S.g.9.9.S.S.",
"^.!.v.v.v.v.v.v.B.G.B.!.v.c.c.B.G.G.c.!.G.X 5 _ + + # &     V n @ a j   . 6 , + . ( 0   x.`.%X.XJ.G.H.H.G.U.U.I.I.I.J.D.d.g.S.J.",
"v.v.G.v.v.G.v.v.v.v.G.v.!.V.!.c.B.c.B.c.!.  ) < . G h B   dX+ w r h   dXo w h ( . = ) . F.~.#X%XG.G.G.U.^.Y.x.N.U.Y.M.M.G.c.G.G.",
"c.c.v.v.v.v.v.v.!.G.^.c.v.c.c.!.B.Q.!.v.c.  _ #.. 2 #.aX,.+ # a W a %   ,.aX} < + O.)   c.G.~.!.G.G.G.G..X+X_.N.M.U.^.v.x.!.!.F.",
"l.G.v.v.G.M.!.v.c.M.!.G.v.c.v.!.v.c.Q.B.G.  V 4..   < < O.O.3 F w ] # O.+.3 q @ + 4.g . G.G.G.z.U.`./.M.{.<X|.A.A.A.A.C.C.C.B.C.",
"G.^.v.^.^.v.v.c.v.^.!.G.!.G.v.v.!.B.v.Q.F.. r 5.O.+ + @ < T O.M | m +.F 7 . + + $.-.6 . G.G.!.G.v.OX%X/.[.<X1X&XA.(. XA.C.C.C.V.",
"^.x.G..XOXU.x.G.OX%XG.z.G.G.G.G.c.B.B.!.G.o > 4.5 + + + @ h p 7 7 3 n n @ . @ + < 2.0   v.G.U.U.^.&X<X&X&X1X1X,X X,X<X(.!.}.].B.",
"^.G.G.^.'.`.U.^.:X6XG.z.c.G.G.G.Q.!.c.v.F.  @ F } h . +   . A + @ . B . .   + n #.( .   G.G.U.G.U./.&X9X2X{.2X1X4X,X(.v.].>X`.B.",
"G.G.G.a.G.%X.XU.=X-XG.v.G.G.G.v.v.Q.Q.B.B.G.O p _ 6 % $ o   A B + h A o o + + 5 _ 6   G.U.U.U.N.x.d.I.+X_.N.{.0X2XY.h.h.T.T.^.H.",
"v.D.G.a.x.9X%XU.%X5X^.G.v.c.G.!.v.B.v.B.F.c.  . _ 6 g g $ o . g % f X   $ j C , G + + G.G.x.G.U.U.d.f.Y.f.9.N.Y.I.z.f.h.T.H.H.H.",
"G.^.H.J._.@XOXG.OXOX`.U.l.l.U.v.F.Q.F.F.F.H.G.  ) _ & $ $ X   fX  fX  X $ O 2 ) ) . G.F.F.c.G.!.G.U.D.t.0.0.t.t.9.a.x.U.U.G.I.D.",
"J.G.U.G.G.x.x.v.k.x.v.v.v.v.!.v.Q.F.~.F.F.G.G.  9 _ 5 % X =   f %.j   & o $ 8 E & o !.!.G.c.G.G.^.G.F.z.g.z.z.g.z.x.U.U.D.U.U.U.",
"G.G.G.G.z.u.f.U.y.f.x.M.G.G.G.G.F.Q.B.!.v.B.v.  O 5 h $     X     O . O . . i 0     Q.!.!.G.!.Q.G.v.G.G.U.U.U.D.U.U.v.G.v.H.H.H.",
"v.v.v.G.x.x.v.U.x.z.U.^.G.G.G.G.Q.F.F.B.!.c.G.  . = z +   v.c.U.  H.G.c.  O j 8 .   F.!.!.F.c.G.v.v.c.G.G.G.H.U.^.G.x.N.G.G.G.H.",
"v.c.v.v.v.v.M.G.U.x.U.J.J.G.J.J.B.v.B.v.V.B.!.  + e i   .X`.l.x.G.G.v.!.`.. i 2 @ . c.c.Q.B.G.G.c.v.B.B.G.v.G.G.!.v.c.!.!.F.F.F.",
"c.c.V.V.v.v.v.M.U.G.G.T.H.H.J.H.!.B.v.B.B.B.v.. 6 l &   OXOX^.M.G.G.v.^.%Xo i C 7 o B.c.c.B.B.B.B.c.v.v.G.G.G.G.v.v.v.B.G.G.F.F.",
"v.C.V.V.l.l.v.^.M.G.G.XX$X).J.~.v.G.B.v.B.!.V.+ V L.+ D.k.U.[._.c.M.v.v.`.^.# U.a + v.c.Q.!.Q.B.v.l.v.v.G.G.v.v.c.v.c.c.v.B.!.Q.",
"Z.Z.V.C.l.V.V.l.v.G.J.$X6XXXJ.H.v.^.B.c.v.B.. i iXL.. z.u.^.<X_.^.`.^.c.v.!.r.^.pXd o c.B.B.Q.B.c.v.v.V.G.v.v.v.v.V.!.v.B.!.Q.F.",
"*X|.M.l.l.l.Z.Z.M.x.v.%X5XXXJ.H.G.c.G.^.c.z.+ q pXW.+ G.^.@X-X_.^.>X`.v.^.v.v.^.iXd + !.B.B.Q.Q.M.U.N.v.U.U.v.v.^.v.!.v.v.B.v.G.",
"4X*X(.l.A./.(.v.l.M.M.v.v.G.H.J.v.!.^.!.v.  i m eXrX> H.G.U.x.v.'.5X%Xv.l.v.v.c.eXc Y o B.c.B.c.v.'.'.U.z.G.{.[.U.l.v.v.G.!.c.F.",
"9X9X9X{.[.*X{.M.v.M.V.k.t.z.G.G.G.U.v.G.!.o z 8.8.tXa . G.z.u.f.`.;X'.V.c.v.U.R.eX<.v.o Q.Q.Q.c.U.-X-X).U._.@XOXN.l.U.M.v.!.v.v.",
"9X9X9X-X*X<X|.M.M.M.v.x.n.G.~.G.G.G.G.'.=X  wX<.8.8.<.  J.D.z.v.!.].!.B.l.v.^.;.<.,.%.t G.!.Q.Q.M.OX@X)._.$XU.f.v.v.N.U.M.v.v.c.",
"oX7X8X0X8X_.Y.U.M.M.c.v.G.!.G.!.v.v.`.'.).. Y.< pX4 yX. G.~.v.B.B.c.v.V.v.M.M.q pX> G.- F.c.F.Q.^.=X+XT.$X6XJ.a.x.v.M.v.v.c.v.v.",
"9.R.7X0X@Xf.j.M.M.U.v.v.G.v.c.G.v.V.%X^.u.a.. + @ + + H.^.G.c.G.B.v.B.v.v.U.N.U.U.v.U v.F.c.c.F.).=X=XH.XX7XU.H.x.U.M.U.v.v.v.^.",
"w.e.P.R.S.j.S.U.U.U.!.v.G.v.F.!.l.^.:X'.b.c.v.x.G.G.G.H.v.c.c.B.B.c.B.v.v.G.G.`.OXU.v.G.F.c.F.c.J.T.H.D.J.J.T.T.N.v.^.[.`.v.v.v.",
"w.w.e.e.e.I.I.Y.x.x.!.^.G.!.!.F.V.V.%X>X/./.U.N.D.D.G.G.c.c.B.B.B.c.v.v.G.G.N.{.:XU.v.G.!.Q.!.Q.F.p.s.J.g.y.D.G.U.N.^.:X*X^.x.c."
};
