/* XPM */
static char *result[] = {
/* columns rows colors chars-per-pixel */
"64 64 237 2 ",
"   c #050100",
".  c #0B0100",
"X  c #0D0802",
"o  c #130201",
"O  c #1B0200",
"+  c #1B0B05",
"@  c #1E0E0A",
"#  c #140B04",
"$  c #0B1407",
"%  c #1B120B",
"&  c #230401",
"*  c #240A03",
"=  c #220E09",
"-  c #2B0D0B",
";  c #2A0A04",
":  c #330E0C",
">  c #340E05",
",  c #25130D",
"<  c #2B120D",
"1  c #2C1105",
"2  c #33150A",
"3  c #2D0D10",
"4  c #330F13",
"5  c #2C1412",
"6  c #261913",
"7  c #2C1A14",
"8  c #261917",
"9  c #321514",
"0  c #351B14",
"q  c #3B1F1C",
"w  c #391D17",
"e  c #14240E",
"r  c #1D2D13",
"t  c #193714",
"y  c #3E210F",
"u  c #292816",
"i  c #36231C",
"p  c #3D231D",
"a  c #372615",
"s  c #2A3817",
"d  c #332621",
"f  c #3B2620",
"g  c #3C2A23",
"h  c #372A24",
"j  c #373326",
"k  c #411D15",
"l  c #451E19",
"z  c #432117",
"x  c #44241B",
"c  c #4A251B",
"v  c #48281A",
"b  c #432B24",
"n  c #432D28",
"m  c #452423",
"M  c #463528",
"N  c #5B3A2D",
"B  c #59332B",
"V  c #4A3F39",
"C  c #5C3C34",
"Z  c #5C3D39",
"A  c #563935",
"S  c #623A2E",
"D  c #66342B",
"F  c #633D34",
"G  c #6B3C33",
"H  c #633E3B",
"J  c #673936",
"K  c #713F36",
"L  c #1B4115",
"P  c #22531C",
"I  c #265823",
"U  c #3B542B",
"Y  c #266324",
"T  c #2C7225",
"R  c #5C4035",
"E  c #54423C",
"W  c #5B433C",
"Q  c #57473B",
"!  c #42492C",
"~  c #644236",
"^  c #63423D",
"/  c #6A423B",
"(  c #6D4A3C",
")  c #74463E",
"_  c #734B3D",
"`  c #7A4B3F",
"'  c #714334",
"]  c #56633F",
"[  c #613F40",
"{  c #524442",
"}  c #5A4242",
"|  c #574B47",
" . c #5C5751",
".. c #634442",
"X. c #6C4542",
"o. c #6D4C44",
"O. c #6B4D4B",
"+. c #634D47",
"@. c #744C43",
"#. c #7A4C43",
"$. c #734C49",
"%. c #794945",
"&. c #6D524C",
"*. c #675349",
"=. c #795144",
"-. c #7B524C",
";. c #755348",
":. c #6C5152",
">. c #6D5B52",
",. c #754F51",
"<. c #546D4C",
"1. c #607852",
"2. c #9E6D6A",
"3. c #986B66",
"4. c #8D736A",
"5. c #85756D",
"6. c #94726C",
"7. c #9B726D",
"8. c #966D72",
"9. c #8B7775",
"0. c #927373",
"q. c #9B7472",
"w. c #957978",
"e. c #8E6963",
"r. c #A16F6B",
"t. c #A1706A",
"y. c #A47A77",
"u. c #83504C",
"i. c #2A9D2E",
"p. c #249D26",
"a. c #3E8439",
"s. c #2F9F31",
"d. c #2B9432",
"f. c #349D3A",
"g. c #31842C",
"h. c #26A52A",
"j. c #2BA42D",
"k. c #2BAA2E",
"l. c #20A123",
"z. c #2DA431",
"x. c #2DAC32",
"c. c #26A230",
"v. c #31A535",
"b. c #33AC34",
"n. c #34AC3A",
"m. c #3AAD3B",
"M. c #3CAA37",
"N. c #33B235",
"B. c #3BBC37",
"V. c #35B53A",
"C. c #3AB53C",
"Z. c #36BC3D",
"A. c #3ABC3E",
"S. c #38BB35",
"D. c #2FB133",
"F. c #41BD3C",
"G. c #41B93A",
"H. c #36C13E",
"J. c #3CC13D",
"K. c #39C136",
"L. c #43C23D",
"P. c #48C53D",
"I. c #3AB542",
"U. c #36BD42",
"Y. c #3CBD42",
"T. c #3EBD49",
"R. c #3BB745",
"E. c #3FAE45",
"W. c #428E41",
"Q. c #6C935B",
"!. c #42B644",
"~. c #41BD43",
"^. c #42BD4A",
"/. c #49B949",
"(. c #53B751",
"). c #50AE4D",
"_. c #71A45D",
"`. c #768D63",
"'. c #71B267",
"]. c #36C142",
"[. c #3CC142",
"{. c #3DC149",
"}. c #42C244",
"|. c #49C546",
" X c #4BCA44",
".X c #44C34A",
"XX c #4BC54B",
"oX c #46CA4B",
"OX c #4BCB4D",
"+X c #42C841",
"@X c #52CE4C",
"#X c #53C94B",
"$X c #4DD14D",
"%X c #54D24C",
"&X c #58D14E",
"*X c #4CCC52",
"=X c #49C953",
"-X c #55C653",
";X c #53CD53",
":X c #5BCE5B",
">X c #54CC57",
",X c #4ED153",
"<X c #4FD359",
"1X c #53D355",
"2X c #5BD453",
"3X c #5CD955",
"4X c #55D45A",
"5X c #5AD45A",
"6X c #55DA5B",
"7X c #5BDA5D",
"8X c #55DB54",
"9X c #62DA56",
"0X c #63DC5B",
"qX c #69DE5D",
"wX c #61D556",
"eX c #60CE5B",
"rX c #67E25D",
"tX c #5DDD61",
"yX c #5CD763",
"uX c #5ECB60",
"iX c #64D562",
"pX c #64DD63",
"aX c #6BDD67",
"sX c #66E367",
"dX c #B1837C",
"fX c #AE8279",
"gX c #90946E",
"hX c #B18F8F",
"jX c #BCA2A1",
"kX c #938A85",
"lX c #C59F96",
"zX c #C7A39E",
"xX c #C79EA2",
"cX c #C6A7A2",
"vX c #CFB2AF",
"bX c #D1CDC1",
"nX c #E4D6CD",
/* pixels */
"Z.A.~.A.A.}.Y.A.V.A.[.}.[.Y.A.A.[.[.U.[.[.U.Y.Z.A.Y.Y..X7X>X~.Y.Y.^.Y..XyX<XU.U.Y.Y.H.H.Z.Y.[.S.Z.F.A.F.F.A.F.I..X~.Y.I.T.T.T.R.",
"A.A.Y.A.Y.F.J.A.A.}.[.}.oX}.Z.A.Z.Y.[.[.U.Z.U.U.U.[.T.Y.T.=XI $ Y.T.Y.~.=X{.T.].[.H.H.Y.A.Z.A.+X|.L.A.A.F.C.G.I.~.~.~.~.Y.Y.Y.U.",
"}.Y.A.F.}.A.A.A.A.A.A.OX4XoXZ.A.Z.U.[.[.Z.Z.Y.U.Y.Y.T.V.k.T.r I $ [.A.B.A.L.H.J.J.B.B.L.P.J.F.%X9XP.F.G.L.P.F.B.A.G.}.F.H.A.Y.[.",
"4XoXA.A.A.A.A.}.A.A.A.,X7XOXZ.Y.U.Z.Z.U.U.Y.[.Z.Y.Z.Y.A.I.=Xe W.$ OX|.A.Z.Z.L.J.A.S.B.L.$X XF. XrX3XP.P. X%XP.F.A.B.F.J.A.A.A.[.",
"sX1XF.Z.A.A.A.A.A.}.[.}.OX}.A.[.].U.Z.Y.U.[.[.Z.A.A.A.Y.~.oXP a.Y t %XF.G.B.B.F.A.B.G.P.&X3X#X#X9XrXwX|.&X9X|.A.J.A.A.H.J.A.A.J.",
"tX1X}.A.A.}.Y.A.A.}.A.N.D.S.A.Y.[.[.Y.U.Y.U.Y.Y.A.T.C.Y.Y.b.i.N.<.a.OXA.A.F.F.A.G.G.F.F.&X9X0X9X9XrXwX&X9X3X|.Z.J.A.J.U.A.A.H.A.",
"J.}.[.A.}.OXoXA.Y.[.A.N.k.Z.Y.S.H.[.[.{.oX{.A.Y.A.[.Y.Y.Y.x.x.C.1.*X.XY.Y.I.}.~.Y.~.F./.G.XXaXaXqX(.#XeX;X~.A.Y.Y.oX=X].U.Y.~.Y.",
"l.D.Z.A.|.4XOXA.A.Z.A.}.A.Y.[.Z.Z.[.].{.6X*XA.A.Z.T.Z.A..XY.A.t `.] I.Y.Y.A..X~.Y.!.~.!.s.v.>XiXeXG.G.eX/.j.N.Y.[.4XyX{.I.T.T.R.",
"V.N.A.F.[.}.}..XA.A.A.A.~.A.A.A.A.[.*X.XV.Z.[.[.Y.Y.Y.[.[.Y.H.t `.q.R.T.{.T.U.T.R.R.U.T.I.m.n.n.M.s.i.v.n.I.Y.T.T.{.{.{.T.U.T.{.",
"~.~.~.A.Z.[.}.}.A.A.A.A.A.A.A.A.T.oXtX.Xk.V.T.Y.A.A.Y.Y.A.H.Y r 8.8.R.Y.].U.R..X{.T.R.Y.~.E.x.s.i.s.s.v.n.Y.T.Y.U.U.T.Y.U.T.T.T.",
"A.A.F.~.F.A.A.S.A.A.A.A.J.~.F.Y.Z..XtX,XZ.A.T.A.A.A.Y.A.A.A.e j w.Z U L ].H.H.$X6XoXU.C.Y.Y.Y.Y.C.G.C.C.V.A.Y.A.Z.A.Y.A.Y.Y.Y.I.",
"F.G.A..XF.C.}.OX}.~.A.F.Y.A.[.}.Y.A.[.T.Z.Y.Y.A.A.Y.F.Y.A.L % p q O   H.].H.H.oXoX[.U.Z.Y.Y.Y.[./.!.~.!.~.F.A.L.A.Z.[.oXoX[.C.U.",
".XF.C.A.A.~.OX4X}.}.J.A.A.A.~.}.Y.N.k.x.A.~.C.~.F.F.A.A.P n W &.Z p + .   H.H.H.].H.H.H.H.Z.Z.A.A.A.~.F.F.~.J.B.J.J. X%XoXJ.A.J.",
"C.A.F.A..X1X|.b.Z.A.Y.A.A.A.A.A.A.A.C.V.~.~.A.A.Y.A.C.| ^ A ~ o.^ R W Q + . ].Z.[.H.H.Z.U.H.].Y.Y.~.~.}.F.~.J.A.B.OX$XB.N.J.L.H.",
"A..XXX~.oX0X|.j.V.A.A.~.A.A.A.A.~.~.~.~.A.~.F.A.P u &.C / F J 7.N R N R O., o ].].H.].].].].U.U.U.U.Z.T.Y.A.}.OXL.4X3XN.h.A.[.Z.",
"F.OX7X|.}.5XOXF.Z.F.A.}.A.A.}.}.~.V.Y.~.C.Y..XX O +.$.$.G G ) t.=.S _ %./ $.o . ].].].].Z.Z.].].U.Y.Y.C.A.|.@X1X+X@X3X|.S.Z.Z.}.",
"A.C.Y.A.C.C.U.T.A.}.*X,XoX{.A.[.}.Y.A.Y.A.A..Xo Z :.6.%.J G #.` #.D D %.2.-.Z . A.A.[.[.[.Z.Z.Y.Y.Y.Y.Y.I.Y.~.Y.I.I.Z.~.Y.C.A.[.",
"~.b.h.N.V.x.x.A.A.oX7XsX6X+XA.Y.Y.Y.C.A.~.F.. 5 H @.r.3.R F =.) o.K G r.3.$...3 . H.[.[.[.H.[.].Y.Y.Y.T.Y.C.b.x.C.b.k.V.A.C.~.oX",
"}.V.N.A.A.C.S.Y.A.oXtXsX6XoXZ.Z.Y.}.A.Z.Y.Y.. q F J u.2.( ~ S #.H / K r.-.H J m . A.Y.Y.A.Z.Y.R.A.Z.Y.Y.~.A.A.V.~.C.N.[.}.A.OX7X",
"A.T..XY.Y.[.T.U.H.{.$X1X,X+XU.Z.A.~.Y.A.~.  & $.~ v B ` =.S D ` C S ` u.N x J X.X   U.Z.Z.Y.Y.Y.Y.A.A.I.Y.Y.~.~.Y.~.}.[.A.A.oX8X",
"V.Y.~.A.Z.A.Y.Y.H.A.A.[.{.[.A.Z.A.Z.Y.}.~.  - $._ v v R ` G ' ` ~ ~ #.D c z u.$.6   Y.U.Y.T.{.T.Y.A.Z.A.[.A.A.A.S.Y.[.Z.S.[.[.[.",
"A.Y.Y.T.Y.Y.Y.Y.Z.Z.Z.Z.H.Z.Z.A.B.Z.}.}.Z.o ,.%.*.y y ( ' G G ` S ~ ` K z k @.@.*.  Y.Y.T.T.Y.U.V.A.oX*XoX[.Y.[.Y.A.A.A.[.[.H.A.",
"A.Y.Y.~.[.Y.Y.U.[.A.Z.A.A.A.A.H.A.A.~.A.V.o $.8._ 2 y _ ` D G ) F F u.) c > o.3.+.X U.T.U.U.V.Z.Z.{.*X1XOXY.A.Y.[.Y.[.Y.[.A.Z.A.",
"~.Y.Y.Y.Z.Z.Z..X[.H.Z.Z.A.H.Y.H.A.F.A.A.A.o [ 8.M y R _ ` ~ #.#.@.F @.) F 2 C w.E   U.U.U.T.].[.A.A.Y..X}.Y.Z.Y.Y.A.Z.Z.S.[.A.H.",
"Y.~.A.Y.Z.Z.Y.[.].Z.[.H.A.[.[.A.Y.}.A.A.}.. < o.& p _ #.N R ` #.@.R F $.#.z * ..5 . U.U.[.[.[.[.I.Y.Y.U.R.U.U.U.Y.U.R.U.U.Z.Y.].",
"Y.~.Y.Y.[.Y.U.Y.H.Y.H.Z.Y.H.A.A.A.A.A.A.A.Y.. W O z @.=.N R ;.$.@.C / $.@.p O Q o ].U.[.Z.Z.{.A.Y.U.Y.Y.Y.R.U.R.U.Y.U.Y.U.U.U.[.",
"Y.F.Y.A.Y.[.Y.Y.].[.A.Z.[.Y.A.A.Y.Y.A.~.[.A.. 5 O J #.J C b / / ^ m F C ;.R O = o [.Z.[.Z.Z.{.A.I.Y.T.Y.U.T.T.Y.T.U.Y.{.Y.Y.A.Y.",
"~.~.I.A.A.Y.Z.U.H.H.[.Y.A.}.[.Z.~.A.A.~..X  # . : / @.F z x A X.^ w x X.o.A < O o   [.U.U.Z.H.}..X^.T.Y.Y.U.Y.Y.T.U.U.U.Y.Y.Y.Y.",
"~.Y.F.~.T.Y.U.U.A.Z.H.A.A.1X1XA.C.A.A.XX4X  8 o e.J S > v R Z Z H H l ; R R 4.X 7 . [.Y.Y.A.V.OX4X|.Y.~.~.Y.Y.}.Y.Y.Y.A.Y.A.A.Y.",
"~.C.V.A.Y.Y.Y.[.H.Z.Z.Z.{.7X7X}.V.F.}.@XtX  M O y.O > v C H / F H N G c 2 O 4.O n . Y.Y.*X;XA.*XpX4XXX~.Y.~.Y.Y.Z.A.Y.A.Z.A.A.Y.",
"~.~.~.Y.A.A.[.[.H.Z.Z.Z.}.OXOX}.F.F.~.XX  % f O ; & v S _ / @./ $./ $.S z O ; o b ,   ~.;X>XXX>XsX0XOXF.V.A.A.S.Z.A.A.A.J.}.}.A.",
"C.XX5X*XY.Z.U.A.Z.[.Z.Z.H.V.N.J.~.~.~.V.  j 0.O 1 v ( _ @.F 2.J 3.G #._ =.v * o 6.n . ~.V.!.-XiX7X|.V.V.F.Y.Y.}.Y.A.A.A.oX,X XB.",
"XX=X=X.XY.Y.R.Z.U.R.Y.{.V.k.x.Y.~.Y.Y.x.  h cXO M *.o.;.F @.r.J r.%.C @.$._ M O xXm . Y.k.b.|.;XXXb.v.A..XA.S.[.H.[.+XJ. X9X%XP.",
"tX.Xx.x.U.{.[.{.U.U.[.Y.U.U.I.Y.I.Y.T.Y.  9.jXO o o O p @.%.r.%.q.X.&.x O O o o xX8.. Y.Y.b.j.p.i.M.!.~.A.[.Y.Z.H.$X8XL.P.3XrX9X",
"sX=XD.N.Y..X[.U.U.[.[.Z.U.T.[.A.Y.Y.Y.T.  kX8 o w.cXw.O & J r.%.q.H O O q.vX0.o 4 kX. Y.~.A.b.b.j.C.A.F.A.}.Y.S.H.%XtX1X&XqXqX9X",
"4X*X~.Z.Y.[.[.Z.Z.U.Y.Y.A.A.Y.Y.~.Y.Y.U.R.  . . A 9 w 4.* & J %.H & & 0.f = } o o . Y.Y.~.A.~.~.F.F.Y.F.Y.A.[.A.P.}.8X0XrXqXwXwX",
"x.V.U.T.T.Y.[.U.Y.[.U.[.Y.Z.Z.Y.T.Y.A.Y.U.  . o W 5 5 p A O w X.: & Z a 6 6 A o     U.U.Y.Y.Y.Z.A.}.}.A.Z.A.~.~.Y.b.m.:XaXeX/.G.",
"h.x.A.[.[.Y.Z.Z.U.[.[.U.Y.[.Y.Y.Y.Y.Y.Y.T.. , . Q * , 6 g W : [ : H b , 7 , {   6   Y.C.Y.Y.A.Y.A.A.[.Z.A.A.F.!.~.b.z.^.-X#XG.v.",
"Z.Y.[.A.S.Z.A.[.Z.Y.[.Z.A.[.H.Z.Y.[.Z.[.X . V O + 7 , < E W Z - H A | = = , # X E X   Y.Y.Y.Y.Y.[.R.U.Y.T.I.!.~.!.!.R.v.i.i.n.!.",
"[.[.Y.A.A.A.A.A.Z.H.A.[.Z.Z.A.[.].Z.Z.[.  , } - o + % , E Z , 5 - ..Q , 7 # . + | %   Y.A..X,X*XU.Y.T.T.T.Y.Y.!.R./.E.I.v.v.E.!.",
"A.A.Y.A.Z.Y.A.A.A.A.Y.A.[.A.H.A.Z.[.A.[.  { 5 3 o o E E M i * O & p n E E . . 7 { {   U.U..X,X4XY.Y.Y.~.}./.G.G.!.~.F.~.A.S.Y.[.",
"Z.Z.A.A.A.A.A.A.J.Y.}.A.Z.Z.Z.[.Z.H.H.].  { :.O 4 9 O @ g d O < O w g , O 5 , o O.}   Y.Z.[.[.[.Y.Y.Y.~.OX4X/.G.G.~.F.A.A.T.[.U.",
"A.Y.A.A.A.F.}.A.A.Y.[.A.A.Z.A.[.[.].H.A.. 8 9.o [ q 9 o   g f < i g X   - f } o w.n   Y.Y.A.A.V.Y.|.}.F.@X0X%XP.P.P.P.K.K.K.H.H.",
"F.}.A.}.}.A.A.Z.A.}.Y.Y.[.[.A.A.H.Z.Y.H.. d 9.o 9 f w . nX. m < p O bX. m m = . 8.4   Y.Y.Y.Y.Y.A.;X1X#X@X0XqX2XP. X2XP.K.K.K.K.",
"}.A.Y.,X;X~.A.Y.;X*XY.C.Y.Y.Y.Y.H.].[.Z.. @ w.:.O &.vX5.o , p A p O   5.vX,.O +.y.& . Y.A.Y.}.~.}.2X0X2X2XqXpX9X&X9X0X|.[.$X[.H.",
".XA.Y..XXXoX.X~.7X7XY.C.A.Y.Y.A.A.Z.H.H.  # } :.b . X >.p 0 ^ &.W i f >.o o w :.} O   U.A.~.Y.!.}.|.2XpXwX#XwXqXrX9X XF. X8XoXK.",
"Y.C.Y.z.V.4XOX~.4X7XT.A.Y.Y.U.Y.[.H.H.Y.U.. @ } , O . X +.R w ;.p W } o . o 9 ..4 . T.I.Y.~.Y.~.I.z.!.:X#XG.-XqX5X/.b.C.^.XX.XY.",
"Y.A.~.k.A.tX4X~.1XtX}.Y.Z.Z.A.[.[.Z.A.].A.  o } < h b o p &.w $.w &.b . f h , V .   Y.Y.Y.~.C.~.~.b.b./.v.p.G.|./.V.z.E.T.T.T.T.",
"I.[.~.Y.XX>X>X~.@X;X|.~.A.A.F.A.{.U.].U.U.T.X E E , o . :.d 9 1 9 m :.. # 8 V |   Z.U.U.Y.Z.Z.Y.T.~.C.h.p.p.h.c.h.b.C.~.~.Y.!.Y.",
"Y.T.^.Y.Y.C.V.A.V.V.A.A.A.A.[.A.U.].U.U.U.Y.o @ E , # 8   d o X . g   8 O , { 8   Z.[.[.Y.U.Y.[.~.Y.U.V.N.m.n.b.V.Y.F.!.I.~.!.^.",
"Y.Y.Y.Y.V.k.b.~.j.b.C.~.Y.Y.[.Y.U.].H.[.Y.H.X . 8 h o . .  .u . d { . . # h ,     ].Y.[.[.U.Y.[.Y.A.Z.Y.^.^.Y.Y.~.~.A.F.Y.Y.T.T.",
"A.A.Y.C.C.C.A.~.C.V.F.}.A.Y.Y.Y.U.].A.H.[.Z.. . , j . . <.  d . d .  .  . h 8 .   U.U.[.[.].U.[.A.A.Y.Y.Y.Y.Y.~.~.Y.C.A.Y.Y.Y.T.",
"A.A.A.A.A.J.A.F.~.C.~.R.I.Y.R.Y.H.A.H.H.H.J.. # , u   [..   # u X .   Y.X @ , +   Z.H.[.Y.H.Z.Z.Z.Z.Y.[.Z.Z.Y.~.[.A.A.[.Y.Y.U.U.",
"Z.Z.J.J.A.Z.A.~.~.Y.Y.T.T.T.T.T.[.H.A.Z.J.H.. < d u X {.1X*X}.. Y.Y.A.}.. u f 5 . A.Z.Z.H.H.[.H.H.A.A.J.Y.Y.Y.Y.A.A.Z.H.[.U.U.U.",
"A.K.J.J.B.S.A.}.~.A.Y.=X<XT.R.T.}.A.Z.A.H.[.X a Q.. Y.C.N.~.@XXXZ.Y.Y.A.|.. Q.x o [.Z.H.].[.].H.A.A.B.A.Y.Y.A.A.A.Z.A.Z.H.].[.].",
"L.J.J.K.B.L.L.S.F.A.I.<XyX=XT.T.A.[.H.Z.Z.X u zXQ.+ Y.C.k..X0XXX}. X}.Z.I.+ ).lXu o Z.A.H.H.].H.S.A.H.A.Y.A.A.A.A.J.Y.H.A.[.].Z.",
"3X%XF.B.B.B.L.F.F.V.F.1XtX=XY.T.Y.S.Y.}.Z.. 0 lX(.o R.Y.[.>X2XXX+X5XoXA.}.+ (.zXa O Y.[.Z.Z.].].A.F.~.F.~.~.F.A.}.A.~.A.A.H.A.U.",
"rX3XP.F.L. X XF.A.F.A.~.C.Y.R.T.A.[.}.[.X u c fX'.a R.T.T.~.C.A.OX7X1XA.Z.Y (.dXc s X A.H.H.].Z.F.OXOXF.C.~.OXOXF.A.A.A.Y.[.U.A.",
"0XsXpX-X@X3X@XA.G.L.A.N.h.N.Y.Y.Y.T.Y.Y.  ! 7.dXgXM o T.T.N.z.V.oX6XOXJ.T J._.y.q.U X A.U.].].Z.~.4X4X.XY.XX>X;XF.A.F.F.A.}.A.Z.",
"pXpX0X7X5X0X&XF.F.A.A.S.N.U.[.T.Y.Y.Y.XXX 5.6.3.7.Q.. R.Y.C.N.Z.[.+X[.H.S.A.y.t.6.9.  A.].[.].].F.;X>X.X=X>X~.n.C.F.F.Y.A.A.A.Z.",
"-XuXiXaXiX-X~.F.F.G.A.Z.[.[.A.[.A.A.oX@X  '.- cX2 '.. R.Y.{.U.[.H.Z.A.J.V.F.2 cX< '.  Y.U.U.U.]..X4X:X^.>XyXI.x.C.F.F.A.A.A.A.A.",
"i./.uXaX-Xb.M.F.F.~.A.Z.T.A.Z.U.A.A.1X+Xk.X . o O . Y.Y.{.[.Z.A.A.H.H.A.A.F.g.t X X [.Y.U.Z.Z.Z..X4X:XY.=XyX~.Y.C.Y.F.~.A.A.F.F.",
"d.f.).).E.n.m.~.~.~.}.A.U.Y.Y.[.Z.}.3X$XS.S.C.F.~.Y.R.Y.Y.Z.Z.A.H.H.H.A.A.Y.F.XX;X~.A.Y.U.Z.U.U.Y.T.T.I.R.R.^.^.A.F.}.@XOXA.A.Y.",
"d.d.d.d.f.!././.C.C.[.}.Y.[.[.U.J.J.1X8XOX}.F.Y.I.I.^.Y.S.S.H.H.H.Z.A.A.Y.C.A.;X7X~.A.Y.].[.].U.I.x.c.R.n.j.I.I.~.G.}.7X7XY.Z.S."
};
