/* XPM */
static char *result[] = {
/* columns rows colors chars-per-pixel */
"64 64 230 2 ",
"   c #040201",
".  c #0B0101",
"X  c #050A04",
"o  c #0C0B04",
"O  c #080609",
"+  c #130201",
"@  c #1B0201",
"#  c #140A04",
"$  c #1B0A03",
"%  c #140D0C",
"&  c #180A0A",
"*  c #0B1106",
"=  c #0E1D0A",
"-  c #0C1608",
";  c #18160B",
":  c #161614",
">  c #220201",
",  c #260C05",
"<  c #2B0D0B",
"1  c #280B07",
"2  c #340C0C",
"3  c #330503",
"4  c #23130C",
"5  c #2A150E",
"6  c #26140B",
"7  c #260F10",
"8  c #241412",
"9  c #2B1413",
"0  c #2B1A14",
"q  c #261817",
"w  c #321412",
"e  c #331C16",
"r  c #3B1C13",
"t  c #311D1B",
"y  c #3C1B1A",
"u  c #3A1A0F",
"i  c #12230C",
"p  c #153713",
"a  c #13270F",
"s  c #2B211B",
"d  c #3C221D",
"f  c #33221C",
"g  c #203618",
"h  c #391F22",
"j  c #342323",
"k  c #3C2523",
"l  c #3B2B23",
"z  c #3B2F2A",
"x  c #3D332C",
"c  c #2E2721",
"v  c #441A17",
"b  c #50191C",
"n  c #43231D",
"m  c #48261D",
"M  c #50251F",
"N  c #432522",
"B  c #492723",
"V  c #5F382B",
"C  c #5F322D",
"Z  c #4A3B35",
"A  c #5D3D33",
"S  c #563D3B",
"D  c #5A3E3B",
"F  c #583733",
"G  c #64382D",
"H  c #633633",
"J  c #633C33",
"K  c #6B3B34",
"L  c #643B39",
"P  c #6B3E3B",
"I  c #6E3432",
"U  c #70393E",
"Y  c #1B4D1B",
"T  c #184518",
"R  c #23541E",
"E  c #295F23",
"W  c #266D26",
"Q  c #47542B",
"!  c #4E433C",
"~  c #53423C",
"^  c #5C433C",
"/  c #524036",
"(  c #654236",
")  c #63433A",
"_  c #6A433C",
"`  c #6D473B",
"'  c #7A493E",
"]  c #744A3E",
"[  c #5B3E40",
"{  c #663E43",
"}  c #5B4341",
"|  c #594844",
" . c #5F504B",
".. c #654A45",
"X. c #6C4C44",
"o. c #654E4A",
"O. c #6D4C4A",
"+. c #654243",
"@. c #744C43",
"#. c #7A4B42",
"$. c #744D49",
"%. c #754846",
"&. c #6E524D",
"*. c #68514A",
"=. c #745044",
"-. c #7B514B",
";. c #75524C",
":. c #6C5451",
">. c #745353",
",. c #7F5153",
"<. c #5E6648",
"1. c #824945",
"2. c #814A50",
"3. c #886E67",
"4. c #9A6D65",
"5. c #946D66",
"6. c #8D716E",
"7. c #94716B",
"8. c #9B716B",
"9. c #976E71",
"0. c #8A7A75",
"q. c #947473",
"w. c #967776",
"e. c #8D6D70",
"r. c #A46A6C",
"t. c #A3726D",
"y. c #2A822C",
"u. c #32862E",
"i. c #2B9D2E",
"p. c #249D26",
"a. c #2B9432",
"s. c #2F9F31",
"d. c #339C36",
"f. c #26A52A",
"g. c #2BA42D",
"h. c #2BAA2E",
"j. c #20A123",
"k. c #2DA431",
"l. c #2DAC32",
"z. c #26A230",
"x. c #32A535",
"c. c #33AC34",
"v. c #34AB3A",
"b. c #3AAD3B",
"n. c #3AA638",
"m. c #33B235",
"M. c #3BBC37",
"N. c #35B53A",
"B. c #3AB53C",
"V. c #36BC3D",
"C. c #3ABC3E",
"Z. c #38BB35",
"A. c #2FB133",
"S. c #41823B",
"D. c #41BD3C",
"F. c #41B93A",
"G. c #36C13E",
"H. c #3CC13D",
"J. c #39C136",
"K. c #43C23E",
"L. c #48C53D",
"P. c #3AB542",
"I. c #36BD42",
"U. c #3CBD42",
"Y. c #3EBD49",
"T. c #3BB745",
"R. c #3FAE45",
"E. c #42B644",
"W. c #41BD43",
"Q. c #42BD4A",
"!. c #49B949",
"~. c #42AC47",
"^. c #36C142",
"/. c #3CC143",
"(. c #3DC149",
"). c #42C244",
"_. c #49C546",
"`. c #4BCA44",
"'. c #44C34A",
"]. c #4BC54B",
"[. c #46CA4B",
"{. c #4BCB4D",
"}. c #42C841",
"|. c #52CE4C",
" X c #53C94B",
".X c #4DD14D",
"XX c #54D24C",
"oX c #58D14E",
"OX c #4CCC52",
"+X c #49C953",
"@X c #55C653",
"#X c #52CD53",
"$X c #5BCE5B",
"%X c #54CC57",
"&X c #4ED153",
"*X c #4FD359",
"=X c #53D355",
"-X c #5BD453",
";X c #5CD955",
":X c #55D35A",
">X c #5AD45A",
",X c #55DA5B",
"<X c #5CDA5C",
"1X c #55DB54",
"2X c #62DA56",
"3X c #63DC5B",
"4X c #69DE5D",
"5X c #61D556",
"6X c #60CE5B",
"7X c #67E25D",
"8X c #5DDC61",
"9X c #5CD763",
"0X c #5ECB60",
"qX c #64D562",
"wX c #64DD63",
"eX c #6BDD67",
"rX c #66E367",
"tX c #9E807E",
"yX c #9B8585",
"uX c #A88583",
"iX c #BE9F9E",
"pX c #BFA19F",
"aX c #BFA6A2",
"sX c #D5989D",
"dX c #DC9BA3",
"fX c #C2A4A4",
"gX c #C1A9A9",
"hX c #D7B1AC",
"jX c #D3B5B3",
"kX c #D8D7CB",
/* pixels */
"V.C.W.C.C.).U.B.C.H.).)./.C.C.C./.I.U.^./.U.C.I.C.Y.C.'.8X:XW.B.P.Y.Y.(.,X*XV.I.V.^././.V./.G.B.V.K.B.K.D.B.D.P.'.W.U.P.Y.Y.Y.I.",
"C.C.U.C.C.).C.C.C.U.U.).[.).C.C.U.^././.I.V.I.U.V./.U.Y.Q.].OX].U.Y.U.Y.OX+XU.I./.U.G.V.V.V.G._.`.D.M.M.D.B.F.U.W.W.W.W.U.U.U.T.",
").U.C.K./.C.U.C./.C.C.[.=X[.V.C.V.I./.U.V.I.^.I.Y./.Y.N.k.Y.:X'.C.K.H.M.C.}.C.H.K.M.M.H.L.K.M.XX2XL.D.D.K.L.D.M.V.D.K.H.G.C.U./.",
"=X[.C.C.D.C.C.H.C.V.C.=X<X[.V.U.U.V.V.^.N././.V.C.N.U.C.B.OX8XOX_.{._.C.V.B.H.H.J.Z.M.K..X`.D.`.7X-X`.K.`.XX_.M.B.D.C.K.C.V.C./.",
"rX=X).V.B.C.C.C.C././.).{.).C./.^.I.V.U.I././.N.C.C.B.U.O   X /.`.<X=XM.F.M.M.D.M.F.F.K.oX;X X X2X7X5X_.oX2X`.B.M.C.C.G.H.C.C./.",
"8X=XW.C.C.).).B.C.).C.m.m.V.C.C./.U.U.I.I././.U.U./.U.U.U.  * * ].<XXXC.M.D.D.M.B.F.K.K. X2X3X3X2X7X5X-X2X-X`.V.).H.G.V.M.C.H.C.",
"/.).H.C.).{.[.C.W.H.C.m.h.V./.V.G././.(.[.(.I.U.I./.U.U.U.m.O W T #X'.T.U.P.'.W.W.W.W.!.W.].eXeX4X!.@X6X%X).C.U./.[.+X^.I.Y.Y.U.",
"j.A.V.C.[.=X{.C.C.V.C.).C.U.D.V.V./.^.(.,XOXC.C.C.U.N.U./.U.X Y v./.U.T.U.U.'.W.E.W.W.F.k.s.@XqX6XF.F.6X!.g.c.U.U.*X9X(.P.U.Q.T.",
"N.m.C.F./.).).).C.C.V.C.D.C.C.C.U./.&X'.N.V././.U.U.U./.U.U.X p Y Y.I.Y.(.I.Y.Y.I.P.T.Y.P.b.v.v.b.s.i.x.v.N.U.Y.(.(.(.(.Y.I.Y.(.",
"D.W.W.C.V.U.).).C.B.C.C./.C.C.C.Y.[.<X'.h.N./.Y.C.C.U.U.U.I.U.  Y p - I.(.^.I.'.'.Y.T.T.E.P.c.k.s.s.i.s.c.Y.Q.U.I.I.I./.Y.Y.Y.Y.",
"C.C.W.).D.C.V.V.C.C.C.W.U.K.W.C.N.[.8X=XN.U./.C.C.C.C.C.C.C.C.  p 0.T o ^.G.G..X1X[.I.N.U.U.U.U.B.F.F.B.B.C.U.C.N.C.C.C.C./.T.N.",
"D.B.C.).D.B._.{._./.C.C./.C.U.).C.C.U.Y.N./.Y.C.C.U.U.C.C.C.  o 0.q.p   ^.G.G.(.[.(.I.N.U.U.U./.!.E.W.W.W.C.C./.U.C.(.[.{.(.N.I.",
").W.B.C.C.W.|.=X).).D.C.C.C.W.H.U.m.h.l.C.W.B.W.C.W.C.C.. o # 4 d @ . + V.J.G.G.^.G.G.G.G.V.V.C.B.U.U.W.C.W.K.M.H.H.`..X{.K.J.H.",
"F.U.C.B.).=X].c.C.C.U.C.C.C.C.C.C.U.N.N.W.W.C.U.D.C.. @ + n ^ X.) N @ + . G.G.G./.^.G.G.I.G.I./.W.U.D.).W.D.H.M.M.{.XXJ.A.H.H.C.",
"W.).{.D.[.<X_.g.V.V.U.U.C.C.W.C.C.W.W.U.C.W.W.F.. . $ D ^ A J =.( J ) F , . . V.^.G.^.^.^.^.^.I.(.N.U.Y.C.D.).{.K.=X>Xm.f.C./.C.",
"C.{.<X]._.>X{.F.V.C.D.).C.C./.).W.B.W.).B.U.).. + :.o.@.` K ' t.@.( L ;...o.# . ^.^.^.^.V.V.I.^.I.Y.U.N.V._.=X=X).XX;X_.M.V.C./.",
"C.C.I.B.C.N.U.Y.C.).{.&X.X/.C././.U.B.U.U.C.).+ ~ :.5.@.K K ' ' #.K I #.9.&.~ . C.G./././.V.V.U.I.U.U.U.U.B.U.W.P.U.C.W.U.N.C.U.",
"W.c.h.m.N.l.l.C.C.[.<XrX,X).U.H.Y.U.B.C.W.D.  4 / X.8.8.G K #.' X.L I r.r.%.| ; . G././././.^.I.U.U.T.U.Y.B.c.l.B.c.f.B.U.C.).[.",
"W.N.m.B.U.N.N.U.C.[.8XrX,X[.G.V.C.).C.V.F.B.. l ^ ^ =.4.1.K K ] A ` 1.r.,.{ A l + C./.I.C.N.U.U.C.N.U.U.W.C.B.B.Y.B.m.U.).C.[.>X",
"C.).'.U.U.)./.C.G.(.&X=X&X(.V.V.C.).C.C.W.. $ o.) d V -.] G K ' V J 1.2.F n ) X.@ + U.V.V.U.U.U./.C.C.U.U.U.U.).C.W.)./.C.C.{.1X",
"N.U.U.U.N.C./.U./.C.V./././.V.V.M.B.C.).).. e X.;.v m G ] G ` ] ` J ] J B d =.=.2 + U.U.T.(.Y.Y.C.C.V.C./.C.C.C.V.C./.C.V.H././.",
"C.U.W.W.U.Y.U.U.G.V.N.G.C.V.V./.C.V.).).V.. >.%.] M u ( ] ( V ] J V @.( f B =.@.O.> U.Y.Y.Y.U.I.V.C.[.OX[./.U./.C.C.C.C.H.).C.C.",
"C.U.U.U./././.V.C.V.V.V.G.V.C.C.C.C./.C.N.. ..9.=.3 B ] ] ^ G =.( ( ] X.d , ;.5.;.> I.U.I.I.I.V.C.(.OX=X{.U.C./.).C.G././.G.V.G.",
"Y.U.U.U.U.N.G.(./.G.C.C.U.G./.G.).C.C.C.U.. D q.` 6 ^ ^ ] ` @.@.` ^ ] =.) , ^ q.S @ I.I.U.I.U.^.C.C.U.'.).U.N.U.U.C.V.N.V./.V.C.",
"C.W.U.W.V.N./././.U.G./.C././.C.C.).M.C.).. + S + ^ X.( ( u ( X.( n ` A ..^ + / + @ U.U.^./././.U.U.U.U.I.I.I.I.U.I.I.I.I.I.U.I.",
"W.C.U.U./.U.I.I.G.G.V.V.U.G.C.C.C.C.C.C.C.U.  4 + | X.^ n m H _ G m y ^ *./ $ 5 @ ^.U.I.V.I./.C.T.U.I.U.T.U.T.I.U.T.I.U.U.I.V./.",
"W.C.C.C.U.U./.U./.^.G.C./.U.N.C.W.B.U.U.C.U.  . ; ^ ^ < v L _ C I P r 5 Z | 8 + @ /.V.G.V.V.).C.N.Y./.U.T.(.Y.U.(.I.Y.(.U.I.C.U.",
"W.W.P.U.U.C.I.^.G././.V.G.).).C.W.U.C.W._./.    ; + < B P { F P K H +.m 0 $ 4 . . /./.U.V.V./.(.'.W.Y.T.I.U.U.T.U.I.I.I.Y.U.U.U.",
"W.C.B.W./.U.V.V.V.V.G.C.H.=X=XC.C.C.B.[.;X  o   # # d L $.H %.P %.P %.L d @ $ . $   ).C.W.U.N.{.>X].U.U.).W.U.).U.U.U.C.C.C.G.).",
"W.B.B.C.U.U././.G.V.V.V.).,X<X/.B.C.).#X<X  x . $ l ..$.-.P t.C 4.L ,.$.X.n + + d + U.U.OXOXC.OXwX:X].W.C.U.U.U.V.C.U.U.N.C.U.C.",
"W.W.W.W.U.U./.(.G.V.V.V.).{.{.).F.W.)._.. & l + + @ @ ` P ` t.K 4.-.H %.> @ . + B 1   W.#X@X].@XrX3XOXD.B.V.C.V.N.G.M.C.C.).K.C.",
"B.{.:X{.U.N.I.C.V./.V.V.U.N.m./.W.W.C.B.. Z q.+ hXhX4.3 @.#.t.%.t._ >.> 5.hXjX@ 8.m o Y.B.W.#XqX<X_.m.B.D.W.C.).C.U.C.C.[.=X`.V.",
"'.+X+X'.U.U./.V.I.I.U./.N.h.l.U.Y.W.I.A.  k fX@ 8.3 m 5.1 K 4.#.8.L > q.n 1 w.+ sXb $ U.g.c._.#X].c.x.C.).U.V./.H./.}.M.`.2XXXL.",
"wX'.l.A.I.(./.(.I.U.(.U.I.P.I.U.B.C.Y.U.. w.fX@ +., w y 7.> L @.^ $ q.d 5 0 ! @ dXQ + W.U.m.g.p.g.n.E.U.C.U.C.V.G..X1X}.L.;X7X2X",
"rX+Xl.A.U.'./.V.I.U.U.V.U././.U.U.U.T.Y.. yX< + ~ 9 6 l A , 2 *., $ ..n 7 8 ! + 3 W.. U.W.B.c.c.h.B.F.C.C.).C.V.J..X<X=XoX4X4X4X",
":XOX'.N.U./.(.N.I.I.U.I.U.U.U.U.Y.Y.U.U.U.    + D ^ 6 5 ^ S 5 6 6 ^ Z 2 w { ! . @ @ U.U.U.W.W.W.D.F.D.W.U.D.H.C./.`.;X3X7X4X5X-X",
"l.N.I./.U.U.U.I.U.I././.U.V.C.U.C.U.U.C.V.  q . + d . ; l 0 $ > > k l 0 > v . . w + C.U.U.U.U.C.C./.).C.V.C.).W.B.c.b.%XeXqX!.F.",
"f.l.C.(./.U.C.V.U././.V.U.U.U.V.U.C.U.U.  . Z q + , 0 .   z d @ n k     < t . 9 b v r N.U.U.C.C.V.H./.U.C.C.W.W.W.c.c.W.@X XF.d.",
"V.U./.C.V.V.C./.V./.I.V.C./.G.V.U./.C./.. 8 | + + f f   kX  k 2 y @ kX  z f . + U v e U.U.U.I.U./.I.I.U.Y.U.P.E.E.E.R.x.i.i.v.R.",
").U.U.C.C.C.C.V.C.C.G./.V.V.C././.I.V./.. z q . } :.kX,.  % [ v ^ @ . 3.jXo.~ + 2 P 0 U.B.[.&XOXT.U.Y.Y.U.E.P.E.Y.!.T.P.x.x.R.Y.",
"V.C./.V.C.W.C.C.C.C.U.C./.C./.V.V.G.V.^.. j *.+ w 1 N :. .8 h w k 9 O.>.d 5 8 . $.{ @ U.I.(.&X:XU.U.Y.W._.!.B.F.W.W.D.W.C.N././.",
"V.V.C.C.C.V.C.C./.U.).V.C.C.V./.I.G.G./.. 8 0.< + @ + 5 0.N q 9 7 B 9.w .   o 4 7.B + U.V./.)./.T.U.U.C.OX>X!.F.F.W.).M.C.U./.I.",
"B.U.C.C.C.C./.C.V.D./.U.C.C.V./.G.G.C.V.. q e.,.> + + + 9 h @ + + N 9 + .     :.9.> & U.U.C.U.N./._.).L.|.2XXXL.D.L.L.J.J.J.J.G.",
"K.).C.).).D.C.V.C.)./.U./.C.G.C.C.^./.G.. & w.1 @ .     .  .j . s p o     $ @ 2 9.0 . U.U.U./.U.C.|.=X].|.3X4XoXL. XoXL.J.J.J.H.",
"W.C.Y.OX#XU.C.U.#X=XU.N.U.U.U.U.G./.^.V.  . +.o.l #     %   U.. I.      . $ N $.[ # . V.C.U.W.W.).>X3X-XoX3X4X3XoX2X3X`./..X/.J.",
").C.U.).{.].'.W.8X>XU.N.C.U.U.C.V.C.G.G.U.  # } & + 8           . & o . $ + 9 | *   U.U.C.Y.W.C.)._.%X3X5XoX2X4X7X;X`.D.}.1X.XG.",
"U.U.U.l.B.=X{.W.:X<XY.U.U.U.C.U./.G.V./.U.    | t f s s O       . O . q k d w ~   X C.C.U.W.W.E.B.c.W.6X XB. XeX5X!.c.b.!.'.(.Y.",
"U.B.U.h.U.wX:XW.=X<X)./.N.V.U./.^.V.G.U.G.U.. S S t . o O X y.: W * % O # 9 F q . U.U.C.W.C.C.W.E.c.b.E.x.i.F.!.W.B.x.B.Y.Y.Y.Y.",
"U.Y.U.B.].:X#XU.#X#X].W.V.C.).V.Y.^.^.I.I.Y.. 8 [ 7 %   :   = W =   :   % q [ 9 . V.I.I.V.V.C.Y.U.W.N.h.p.p.f.f.f.c.B.W.E.E.U.T.",
"U.Y.W.Y.B.B.B.B.m.B.C.D.M.C.H.C.^.I.I.I.I.U.+ . q j o     .       X   X O c 8 @ . I./././.I.C./.W.U.I.m.N.v.v.v.B.P.W.W.C.W.E.W.",
"U.U.U.U.N.h.c.W.h.h.C.W.U.U.Y.U.I.^./.G.U.C.  + 8 :   O C.C./.  ^././.    = 9 .   I.^././.U.U.^.U.U.U.U.W.W.Y.C.W.U.C.U.C.U.Y.Y.",
"C.U.C.C.B.C.C.W.B.B.W.W.C.C.U.U.^.^.V.C./.V.. O 8 o   Y.U.C.V.K.Y./.U.I.  - q # O I.I././.I.C.I.C.N.U.U.U.U.U.W.W.C.C.F.C.U.Y.Y.",
"C.C.C.C.C.C.F.U.W.C.W.T.P.T.T.Y.U.G.V.G.H./.  q O O O Y.|.[.B.B.H.U.C.C.X * o t   V.V.G.C.G./.G.C.V.G./.C.C.U.Y./.C.C././.I.I.I.",
"V.V.H.H.B.V.V.W.W.W.U.W.Y.Y.U.Y.G./.C.G.G./.  j E . U.[.=X#X).D.C.U.C._.&X  E f . /.V.G.G.^.G.U.G.G.C.C.U.U.U.U.C.C.V.G./.U.I./.",
"M.J.H.J.M.M.H.).C.U.U.+X*XY.T.Y.U.H.G.V.G.G.. k E o T.N.m.W.|.].V.U.U.C.[.# u.k . G.U.V.^.^.^.G.C.M.C.C.U.U.C.C.C.C.C.V.G.G.^.I.",
"}./.K.J.M.K.H.M.B.U.P.*X9X+XY.(.C././.C.V.  = gXE . Y.B.f._.3X].).`.).V.C.. n.gXa o V.V.G.G.^.G.M.C.C.G.U.C.C.C.C.G.G.C.U./.^.I.",
";XXXK.M.M.M.K.D.D.B.C.%X<XOXI.T.U.N./.).V.  # pXu.. T.B.).%X%X|.}.:X{.C.H.# C.pXi   H./.V.V.^.^.F.D.W.C.W.W.C.D.).B.).V.C./.V.C.",
"7X;XL.F.K.`.`.D.M.D.D.W.C.T.Y.Y.C.U.)./.  i y uXS.< U.Y.Y.W.B.B.{.8X=XC.C.Y C.uX. p o U.G.G.G.V.U.{.{.W.B.U.|.{.).M.C.C.C./.V.I.",
"3XrXwX@X|.<X|.D.D.K.C.m.f.v./.U.U.).C.U.  a tXuXQ 0   Y.U.m.h.m.[.1X.XH.y.H.u.uX0.y.o C././.^.V.W.-X>X).U.].%X#XD.B.D.D.K.).C.C.",
"wXwX3X>X;X3X|.D.D.C.M.V.m.U.(.U.U.U.U.{.  o 6.q.w.<.. P.Y.I.N.C./././.G.s.C.6.q.0.  * C.I./.^.^.W.#X%X'.+X#XW.c.B.D.).C.C.U.G.N.",
"@X0XqXeXqX X!.W.D.D.V.C././.V./.C.C.[.{.  d.< fXy yX  T.(.Y.C.G.G.V.G.C.B.F.+ fX& d.= U.I.I.I.^.'.:X:XQ.%X9XP.l.B.W.K.B.V.M.U.C.",
"a.!.0XeX@Xc.c.D.F.W.C.C./.C.N./.C.U.=X).h.  . + + . U.Y././.V.C.G.C.H.C.C.C.F.B.B.* W.U.V.V.V.V.'.:X:XW.+X9XW.Y.B.C.D.).C.B.C.).",
"a.d.~.!.~.b.E.E.W.W./.C.U.I.^./.M.}.<XXXM.B.C.P.W.U.U.Y.C.V.V.V.C.G.G.C.U.D.U.].OXW.U.U.^.V.I.I.T.Q.Y.P.T.T.Q.W.B.D./.{.{.C.C.C.",
"a.a.d.a.d.E.E.E.B.C./.).U.U././.H.G.=X=X`.).F.U.B.P.U.U.V.V.G.G.G.V.G.C.C.B.C.#X<XW.C.U./.I./.I.I.k.z.P.v.k.P.U.U.F._.<X>XK.V.V."
};
