/* XPM */
static char *result[] = {
/* columns rows colors chars-per-pixel */
"24 47 148 2 ",
"   c #040201",
".  c #0B0201",
"X  c #0D0806",
"o  c #0E0B08",
"O  c #130403",
"+  c #1D0604",
"@  c #140906",
"#  c #1B0B06",
"$  c #190708",
"%  c #140B0A",
"&  c #1B0C0B",
"*  c #16100F",
"=  c #1D110D",
"-  c #1D1413",
";  c #220D07",
":  c #230E0B",
">  c #2A0F0D",
",  c #300F0B",
"<  c #24120C",
"1  c #2B130E",
"2  c #31120D",
"3  c #38160F",
"4  c #231412",
"5  c #2B1511",
"6  c #271811",
"7  c #2C1A14",
"8  c #261D1B",
"9  c #2B1B19",
"0  c #311713",
"q  c #331A13",
"w  c #3B1B13",
"e  c #321D1A",
"r  c #3A1E1B",
"t  c #29211F",
"y  c #312014",
"u  c #3F2117",
"i  c #33221D",
"p  c #3C221C",
"a  c #3A291D",
"s  c #2C2322",
"d  c #342422",
"f  c #3A2422",
"g  c #342823",
"h  c #3A2A23",
"j  c #362C2A",
"k  c #3A2C2A",
"l  c #3E3030",
"z  c #421D17",
"x  c #441F1E",
"c  c #412316",
"v  c #43231E",
"b  c #4A251D",
"n  c #44281F",
"m  c #482B1E",
"M  c #432622",
"N  c #452A23",
"B  c #492B23",
"V  c #432C2B",
"C  c #4C2C2C",
"Z  c #532C25",
"A  c #532F2A",
"S  c #473127",
"D  c #42322C",
"F  c #4D312C",
"G  c #503127",
"H  c #54342C",
"J  c #5C352E",
"K  c #57382D",
"L  c #5B3A2F",
"P  c #472E30",
"I  c #512D31",
"U  c #443333",
"Y  c #4C3433",
"T  c #4C3A35",
"R  c #4D3C3A",
"E  c #533431",
"W  c #543932",
"Q  c #5B3B34",
"!  c #533638",
"~  c #5C373B",
"^  c #553E3B",
"/  c #5C3C3B",
"(  c #663C2E",
")  c #693D2F",
"_  c #633532",
"`  c #643D34",
"'  c #623F39",
"]  c #6D3E39",
"[  c #5A4237",
"{  c #54413D",
"}  c #5B4338",
"|  c #644036",
" . c #6B4236",
".. c #64423B",
"X. c #6C443B",
"o. c #6B493E",
"O. c #71463A",
"+. c #73493D",
"@. c #5D3F40",
"#. c #544140",
"$. c #574945",
"%. c #5A4B4A",
"&. c #634542",
"*. c #6C4642",
"=. c #664944",
"-. c #6C4A42",
";. c #68444A",
":. c #654D4B",
">. c #6C4E4C",
",. c #734741",
"<. c #714C44",
"1. c #7A4C45",
"2. c #744E48",
"3. c #7C4E49",
"4. c #6F514D",
"5. c #7C5246",
"6. c #70514A",
"7. c #7C534C",
"8. c #615450",
"9. c #685350",
"0. c #6E5A5B",
"q. c #795755",
"w. c #715852",
"e. c #7E5D53",
"r. c #735D5F",
"t. c #7E5F60",
"y. c #796A66",
"u. c #864F4B",
"i. c #83534C",
"p. c #89574F",
"a. c #835452",
"s. c #865C55",
"d. c #8A5B54",
"f. c #845B5A",
"g. c #8A5F5A",
"h. c #8C6159",
"j. c #92635D",
"k. c #846564",
"l. c #8E6462",
"z. c #846B67",
"x. c #896961",
"c. c #8D6C69",
"v. c #926E69",
"b. c #8B726F",
"n. c #8F7573",
"m. c #8D7D7A",
"M. c #A16666",
"N. c None",
/* pixels */
"N.N.N.N.N.N.N.N.N.N.N.N.N.N.N.N.N.N.N.N.N.N.N.N.",
"N.N.N.N.N.N.N.N.N.N.N.N.N.N.N.N.N.N.N.N.N.N.N.N.",
"N.N.N.N.N.N.N.N.N.N.N.N.N.N.N.N.N.N.N.N.N.N.N.N.",
"N.N.N.N.N.N.N.N.N.N.N.N.N.  N.N.N.N.N.N.N.N.N.N.",
"N.N.N.N.N.N.N.N.N.N.N.N.    N.N.N.N.N.N.N.N.N.N.",
"N.N.N.N.N.N.N.N.N.N.N.% - N.N.N.N.N.N.N.N.N.N.N.",
"N.N.N.N.N.N.N.N.N.N.. k s   N.N.N.N.N.N.N.N.N.N.",
"N.N.N.N.N.N.N.N.N.N.> :.8 N.N.N.N.N.N.N.N.N.N.N.",
"N.N.N.N.N.N.N.N.N.O C r.& N.N.N.N.N.N.N.N.N.N.N.",
"N.N.N.N.N.N.N.N.N.$ >.c.= N.N.N.N.N.N.N.N.N.N.N.",
"N.N.N.N.N.N.N.N.N.$ M 4.k N.N.N.N.N.N.N.N.N.N.N.",
"N.N.N.N.N.N.N.N.N.N.+ r h @ . N.N.N.N.N.N.N.N.N.",
"N.N.N.N.N.N.N.N.. $ q A ' B < $ N.N.N.N.N.N.N.N.",
"N.N.N.N.N.N.N.O 9 ^ Q ..7.` ~ E 4 N.N.N.N.N.N.N.",
"N.N.N.N.N.N.. e -.....-.g. ...,.$.< N.N.N.N.N.N.",
"N.N.N.N.N.N.- ..h.7.Q <.5.X.` p.f.T @ N.N.N.N.N.",
"N.N.N.N.N.. e *.d.j.` X.+. .O.M.a./ 5 N.N.N.N.N.",
"N.N.N.N.N.+ ! J ] i.O.) O.( +.i._ ~ V O N.N.N.N.",
"N.N.N.N.. 4 ,.L b X.O.` O.) O.) b ' ..& N.N.N.N.",
"N.N.N.N.N.R a.L c  .X.) O.) O.L w &.q.f N.N.N.N.",
"N.N.N.N.N.T l.b m -.X.X.+. .+.o.u Q x.d N.N.N.N.",
"N.N.N.N.N.9 Q w ..o...o.<.X.| <.K r / & N.N.N.N.",
"N.N.N.N.O : ; v *.| | ..o. .` ] ..1 1 & N.N.N.N.",
"N.N.N.N.- ^ # p ,. .Q W ..K ~ ] *.2 7 T o N.N.N.",
"N.N.N.N.9 n.% p ,...F K [ F H X.*.> V y.% N.N.N.",
"N.N.N.N.R n.% a =.G n W [ K b L ..5 f m.s N.N.N.",
"N.N.N.N.l 7 O 7 m u K ..[ / H z M 1 O k s N.N.N.",
"N.N.N.N.N.. O + 3 Q ..X. .X.X.A , + .   N.N.N.N.",
"N.N.N.N.N.N.O 0 ..-.+.d.1.a.X.2.Q : . N.N.N.N.N.",
"N.N.N.N.N.  & A 2...X.p.3.q. .-.>.p O . N.N.N.N.",
"N.N.N.N.    : 0 Q Q O.p.1.X.Q r f 4 g % N.N.N.N.",
"N.N.N.N.  o t.k.C , b 1.A , v w.z.9 T d . N.N.N.",
"N.N.N.N.- - P 0 / &.3 H w W -.7 k 7 T k & N.N.N.",
"N.N.N.N.s 8 4 5 1 =.K n F =.c < 7 & ! @.4 N.N.N.",
"N.N.N.N.4 >.% 4 r ^ N < i / x 5 . # I ;.$ N.N.N.",
"N.N.N.N.$ T & 6 W ! 4 O # Y _ f O & ~ ;.. N.N.N.",
"N.N.N.N.X $ h 5 y h 6 + < a r > f < #.P . N.N.N.",
"N.N.N.N.  . 9 Y 4 i t 1 y g 4 Y h = Y & N.N.N.N.",
"N.N.N.N.N.. 9 9.$.8.5 M 5 #.%.0.i 6 D . N.N.N.N.",
"N.N.N.N.N.% V $ D g p E M e U $ < 7 k N.N.N.N.N.",
"N.N.N.N.N.% W p # T C ~ E @.*   # S D . N.N.N.N.",
"N.N.N.N.N.O N N ; T Y A N @.-   < G a . N.N.N.N.",
"N.N.N.N.. < w B < i 7 & 5 g -   1 Z 2 ; . N.N.N.",
"N.N.N.N.& N v.-.+ = g $ 9 8 N.N.2 s.s.i % N.N.N.",
"N.N.N.N.- :.c.=.$ N.o % % N.N.N.5 q.j.{ % N.N.N.",
"N.N.N.N.* & < : % N.N.N.N.N.N.N.& : & = % N.N.N.",
"N.N.N.N.N.N.N.N.N.N.N.N.N.N.N.N.N.N.N.N.N.N.N.N."
};
