/* XPM */
static char *result[] = {
/* columns rows colors chars-per-pixel */
"24 47 142 2 ",
"   c #040201",
".  c #0B0202",
"X  c #0E0906",
"o  c #0C0A09",
"O  c #130403",
"+  c #1D0403",
"@  c #130B05",
"#  c #1A0A07",
"$  c #140708",
"%  c #150A0A",
"&  c #1B0B0B",
"*  c #14110B",
"=  c #1E100E",
"-  c #1F0F14",
";  c #1D1312",
":  c #240B06",
">  c #220D0A",
",  c #2B0E0D",
"<  c #390A0F",
"1  c #23120D",
"2  c #2E100A",
"3  c #32140F",
"4  c #230E10",
"5  c #241413",
"6  c #2B1413",
"7  c #251A15",
"8  c #2B1913",
"9  c #241C18",
"0  c #2C1D1A",
"q  c #361617",
"w  c #3D1316",
"e  c #331915",
"r  c #331D1B",
"t  c #3B1D1A",
"y  c #2F201C",
"u  c #34231D",
"i  c #3D241E",
"p  c #351F21",
"a  c #352323",
"s  c #3A2422",
"d  c #372926",
"f  c #3D2A26",
"g  c #372728",
"h  c #3C2B2A",
"j  c #3E322E",
"k  c #431015",
"l  c #441D15",
"z  c #40201B",
"x  c #4A251E",
"c  c #42281F",
"v  c #432524",
"b  c #4B2622",
"n  c #432824",
"m  c #492D25",
"M  c #442728",
"N  c #412E2A",
"B  c #4B2C2A",
"V  c #542025",
"C  c #542C27",
"Z  c #532D2C",
"A  c #45322C",
"S  c #4B322D",
"D  c #53322C",
"F  c #58302D",
"G  c #5C392E",
"H  c #4C3433",
"J  c #4D3A35",
"K  c #4E3D39",
"L  c #543633",
"P  c #5B3533",
"I  c #553933",
"U  c #5B3C36",
"Y  c #553B3B",
"T  c #5C3E3A",
"R  c #633D2F",
"E  c #613530",
"W  c #633E35",
"Q  c #693C34",
"!  c #633C38",
"~  c #6A3E3C",
"^  c #713E37",
"/  c #46423E",
"(  c #56413A",
")  c #5C423B",
"_  c #654236",
"`  c #6A4437",
"'  c #64443B",
"]  c #6C443C",
"[  c #6C4B3E",
"{  c #734137",
"}  c #72443C",
"|  c #734A3E",
" . c #564140",
".. c #5C4342",
"X. c #554A46",
"o. c #584945",
"O. c #5A4E4A",
"+. c #5D504B",
"@. c #5F5C56",
"#. c #634344",
"$. c #6D4742",
"%. c #634C45",
"&. c #6E4D44",
"*. c #694749",
"=. c #714443",
"-. c #744A44",
";. c #784840",
":. c #744D4A",
">. c #65504E",
",. c #77524C",
"<. c #7D534C",
"1. c #754E50",
"2. c #675853",
"3. c #725653",
"4. c #795153",
"5. c #7C5E57",
"6. c #745D59",
"7. c #7A625D",
"8. c #7B6662",
"9. c #84544B",
"0. c #815650",
"q. c #865A52",
"w. c #8A5B55",
"e. c #825F5E",
"r. c #8F595C",
"t. c #925554",
"y. c #955A5A",
"u. c #8E615A",
"i. c #8A6765",
"p. c #8A6960",
"a. c #8C6C6B",
"s. c #926064",
"d. c #936861",
"f. c #8D736F",
"g. c #897271",
"h. c #947774",
"j. c #9A7474",
"k. c #9C7B7B",
"l. c #A86B71",
"z. c #A38684",
"x. c #A98F8E",
"c. c None",
/* pixels */
"c.c.c.c.c.c.c.c.c.c.c.c.c.c.c.c.c.c.c.c.c.c.c.c.",
"c.c.c.c.c.c.c.c.c.c.c.c.c.c.c.c.c.c.c.c.c.c.c.c.",
"c.c.c.c.c.c.c.c.c.    c.c.c.c.c.c.c.c.c.c.c.c.c.",
"c.c.c.c.c.c.c.c.c.c.    c.c.c.c.c.c.c.c.c.c.c.c.",
"c.c.c.c.c.c.c.c.c.c.c.  c.c.c.c.c.c.c.c.c.c.c.c.",
"c.c.c.c.c.c.c.c.c.c.c.  c.c.c.c.c.c.c.c.c.c.c.c.",
"c.c.c.c.c.c.c.c.c.c.c.  X ; c.c.c.c.c.c.c.c.c.c.",
"c.c.c.c.c.c.c.c.c.c.c.. O.X.  c.c.c.c.c.c.c.c.c.",
"c.c.c.c.c.c.c.c.c.. O = I 8 . c.c.c.c.c.c.c.c.c.",
"c.c.c.c.c.c.c.. & 1 m ' I e # O c.c.c.c.c.c.c.c.",
"c.c.c.c.c.c.% u U W W <.] ! U s ; . c.c.c.c.c.c.",
"c.c.c.c.c.O A 3.,.` { 9.;.Q -.e.Y % c.c.c.c.c.c.",
"c.c.c.c.c.= ( u.d.^ { | } ` y.s.*.0 . c.c.c.c.c.",
"c.c.c.c.. f ( ! q.;.Q } _ } t.=.U S + c.c.c.c.c.",
"c.c.c.c.# ) ! x W } Q | _ { { B P ] , O c.c.c.c.",
"c.c.c.c.s :.~ l G [ R ` _ ` _ i I ,.Z + c.c.c.c.",
"c.c.c.c.s i.W l ` [ _ [ ` ` &.c m p.U + c.c.c.c.",
"c.c.c.c.& ) c I ' ) G -._ G ] ) i ) e c.c.c.c.c.",
"c.c.c.c.. & 8 %.( x C ` P x I %.i 1 + c.c.c.c.c.",
"c.c.c.c.c.. 7 A z C ! ! Q F t N u O O c.c.c.c.c.",
"c.c.c.c.    % 1 Z ] ~ ~ ] ] P e # O O c.c.c.c.c.",
"c.c.c.c.; % # c $.-.<.-.9.=.:.B : O > . c.c.c.c.",
"c.c.c.@ h 8 B S F ] r.9.u.=.P B H 5 b + c.c.c.c.",
"c.c.c.% 6.L j.<.W C q.q.u.P U -.k.Y y., c.c.c.c.",
"c.c.c.0 k.H Z 2 D U C -.U S ) 6 N v l., c.c.c.c.",
"c.c.c.g  .& H e u I 3 S 8 A v 6 A 6 < O c.c.c.c.",
"c.c.c.c.X O s r 1 A r : 3 S e w M % + c.c.c.c.c.",
"c.c.c.  9 7 O 1 @ 9 u : e u @ 1 & # w < c.c.c.c.",
"c.c.c.X g 5 6 J j @.9 t q o./ K 0 & V k c.c.c.c.",
"c.c.c.% N 5 v 3.8.a r v v 6 3.7.A 4 Z v c.c.c.c.",
"c.c.c.O  .v + + s >.r 6 e #.L $ O 6 1.q c.c.c.c.",
"c.c.c.. ..*.+ O O p r O > p # .   H 1.: c.c.c.c.",
"c.c.c.. H Y > .   & g $ & X     : B #.O c.c.c.c.",
"c.c.c.  & J 8 % o       . . . O , Y 5   c.c.c.c.",
"c.c.c.c.. h p 0 ; X     . . & r r h . c.c.c.c.c.",
"c.c.c.c.. a H - o o   .   o o # n p . c.c.c.c.c.",
"c.c.c.c.c.# p - X o       o   * a > . c.c.c.c.c.",
"c.c.c.c.. . - o   c.c.  c.c.    ; O   c.c.c.c.c.",
"c.c.c.c.  % %   c.c.c.c.c.c.c.  % & . c.c.c.c.c.",
"c.c.c.c.c.5 $   c.c.c.c.c.c.c.  . 5 o c.c.c.c.c.",
"c.c.c.c.  g & c.c.c.c.c.c.c.c.c.. M % c.c.c.c.c.",
"c.c.c.c.  g.a c.c.c.c.c.c.c.c.c.. x.; c.c.c.c.c.",
"c.c.c.  # a.B + c.c.c.c.c.c.c.c.c.z.-   c.c.c.c.",
"c.c.c.  Y k.Z & c.c.c.c.c.c.c.c.c.h.2.  c.c.c.c.",
"c.c.c.  J h.e.g c.c.c.c.c.c.c.c.c.g.>.  c.c.c.c.",
"c.c.c.c.O H a h c.c.c.c.c.c.c.c.c.8.9 c.c.c.c.c.",
"c.c.c.c.c.c.c.c.c.c.c.c.c.c.c.c.c.c.c.c.c.c.c.c."
};
