/* XPM */
static char *result[] = {
/* columns rows colors chars-per-pixel */
"64 64 231 2 ",
"   c #050100",
".  c #0B0100",
"X  c #0C0A03",
"o  c #130100",
"O  c #1B0401",
"+  c #140B04",
"@  c #1B0A04",
"#  c #1B0C0B",
"$  c #0B1107",
"%  c #1D130B",
"&  c #141309",
"*  c #1D1412",
"=  c #230300",
"-  c #240C05",
";  c #2C0C05",
":  c #270A08",
">  c #310C09",
",  c #24130B",
"<  c #2B120D",
"1  c #281609",
"2  c #321206",
"3  c #32140A",
"4  c #361A0F",
"5  c #251512",
"6  c #2B1513",
"7  c #2D1914",
"8  c #251B16",
"9  c #321615",
"0  c #331A15",
"q  c #3B1C13",
"w  c #371B18",
"e  c #1C3914",
"r  c #2C2816",
"t  c #3D2116",
"y  c #35221B",
"u  c #3C231D",
"i  c #3C2F1D",
"p  c #283118",
"a  c #362424",
"s  c #3D2522",
"d  c #3D2B23",
"f  c #382C28",
"g  c #393728",
"h  c #3A3934",
"j  c #441F16",
"k  c #43241C",
"l  c #4B241C",
"z  c #452A1E",
"x  c #47261B",
"c  c #51251C",
"v  c #422522",
"b  c #442922",
"n  c #472E28",
"m  c #522E27",
"M  c #47362B",
"N  c #5C352D",
"B  c #5D3A2F",
"V  c #4C3B36",
"C  c #533D34",
"Z  c #5C3C34",
"A  c #553E39",
"S  c #5B3D39",
"D  c #5C3731",
"F  c #633A2E",
"G  c #62332B",
"H  c #643732",
"J  c #633B33",
"K  c #6C3D34",
"L  c #623E3A",
"P  c #6A3B36",
"I  c #34422B",
"U  c #364731",
"Y  c #41482C",
"T  c #5B4236",
"R  c #54413C",
"E  c #5C433B",
"W  c #5C4B3E",
"Q  c #4F4335",
"!  c #664035",
"~  c #64423B",
"^  c #6B433B",
"/  c #6A4438",
"(  c #74453D",
")  c #76483E",
"_  c #4E683C",
"`  c #4E4342",
"'  c #544241",
"]  c #5B4541",
"[  c #544843",
"{  c #5A4A46",
"}  c #5D5645",
"|  c #4F5E44",
" . c #624442",
".. c #6E4642",
"X. c #6C4B43",
"o. c #6C4C4A",
"O. c #654C4A",
"+. c #734743",
"@. c #744C44",
"#. c #7B4C44",
"$. c #744D4A",
"%. c #7B4D49",
"&. c #784647",
"*. c #6C514A",
"=. c #665348",
"-. c #725147",
";. c #7A534B",
":. c #775149",
">. c #6F4F50",
",. c #6A5453",
"<. c #735051",
"1. c #586C4A",
"2. c #656F51",
"3. c #815049",
"4. c #98695F",
"5. c #9B6B64",
"6. c #9A6B6A",
"7. c #8A7568",
"8. c #94716C",
"9. c #9D736B",
"0. c #9A7567",
"q. c #8D7572",
"w. c #8A7775",
"e. c #9A7372",
"r. c #927874",
"t. c #9B6F70",
"y. c #A16F6B",
"u. c #A4776F",
"i. c #A37874",
"p. c #2B9D2E",
"a. c #249D26",
"s. c #2B9432",
"d. c #2F9F31",
"f. c #349D3A",
"g. c #26A52A",
"h. c #2BA42D",
"j. c #2AAA2E",
"k. c #20A123",
"l. c #2DA431",
"z. c #2DAC32",
"x. c #26A230",
"c. c #31A535",
"v. c #33AC34",
"b. c #34AB3A",
"n. c #3AAD3B",
"m. c #3CAA37",
"M. c #32B235",
"N. c #3BBC37",
"B. c #35B53A",
"V. c #3AB53C",
"C. c #36BC3D",
"Z. c #3ABC3E",
"A. c #36BA36",
"S. c #2FB133",
"D. c #41BD3C",
"F. c #41B93A",
"G. c #37C13E",
"H. c #3CC13D",
"J. c #39C136",
"K. c #43C23D",
"L. c #48C53D",
"P. c #3AB542",
"I. c #36BD42",
"U. c #3CBD42",
"Y. c #3EBD49",
"T. c #3BB745",
"R. c #3FAE45",
"E. c #748A5D",
"W. c #42B644",
"Q. c #41BD43",
"!. c #42BD4A",
"~. c #49B949",
"^. c #42AC47",
"/. c #6AA55D",
"(. c #738F61",
"). c #6BB863",
"_. c #36C141",
"`. c #3CC142",
"'. c #3DC149",
"]. c #42C244",
"[. c #49C546",
"{. c #4BCA44",
"}. c #44C34A",
"|. c #4BC44B",
" X c #46CA4B",
".X c #4BCB4D",
"XX c #42C841",
"oX c #52CE4C",
"OX c #53C94B",
"+X c #4DD14D",
"@X c #54D24C",
"#X c #58D14E",
"$X c #4CCC52",
"%X c #49C953",
"&X c #55C653",
"*X c #53CC53",
"=X c #5BCE5B",
"-X c #54CC57",
";X c #4ED153",
":X c #4FD359",
">X c #53D355",
",X c #5BD453",
"<X c #5CD955",
"1X c #55D45A",
"2X c #5AD45A",
"3X c #54DA5C",
"4X c #5BDA5C",
"5X c #55DB54",
"6X c #62DA56",
"7X c #63DC5B",
"8X c #69DE5D",
"9X c #61D556",
"0X c #60CE5B",
"qX c #67E25D",
"wX c #5DDD61",
"eX c #5CD763",
"rX c #5ECB60",
"tX c #64D562",
"yX c #64DD63",
"uX c #6BDD67",
"iX c #66E367",
"pX c #838767",
"aX c #A78776",
"sX c #9A8B86",
"dX c #B9928C",
"fX c #B2A38D",
"gX c #BBA6A3",
"hX c #C4A69E",
"jX c #D0B4AF",
"kX c #E4D5D0",
"lX c #D7CCC8",
/* pixels */
"C.Z.Q.Z.Z.].Z.C.V.Z.`.].].U.Z.Z.`.I.U._.`.U.C.U.C.U.U.}.eX1XQ.B.T.'.U.!.eX:XI.I.G.U.G.G.C.`.`.B.Z.K.Z.D.D.V.D.V.}.W.U.P.Y.Y.Y.T.",
"Z.Z.U.Z.U.U.].C.Z.K.`.]. X`.Z.Z.I.U.`.`.I.C.I.U.U.U.Y.U.W.%X&   I.Y.U.U.%X XI.I.'.Z.G.U.C.C.H.].{.D.N.Z.D.V.U.P.Q.Q.Q.U.U.U.I.I.",
"].U.Z.D.].Z.Z.Z.U.Z.Z. X2X XC.Z.C.C.`.`.C.I.I.I.U.U.Y.B.z.U.  $   ].Z.Z.Z.K.H.H.H.N.N.H.L.K.N.@X6XL.D.D.L.L.D.N.Z.D.K.H.J.Z.U.U.",
"1X XZ.Z.D.Z.Z.].Z.Z.Z.;X4X XC.U.U.C.I._.C.`.`.C.U.Z.U.C.P.$X. U   +X{.Z.Z.Z.H.H.N.N.N.K.+X{.D.{.qX6XL.K.{.@XL.Z.Z.D.Z.K.U.Z.Z.].",
"iX>XD.C.Z.Z.Z.Z.Z.].`.]..X].Z.`.`.C.I.Z.I.`.`.C.Z.Z.Z.U.Q.}.. U &   oXD.Z.D.N.N.F.N.F.L.#X9XOXOX6XqX9X[.#X6X[.D.Z.Z.C.Z.Z.Z.J.`.",
"wX>X].Z.Z.Q.Z.C.Z.].Z.M.S.C.Z.Z.`.U.I.I.`.U.U.I.Z.Y.P.U.U.M.  I | . *XZ.F.Z.D.D.Z.K.D.K.@X6X7X6X6XqX9X#X9X9XL.Z.K.H.G.C.Z.Z.Z.Z.",
"H.].`.Z.]..X{.Z.Z.].Z.M.j.C.H.Z.I.`._.'. X'.U.U.C.`.U.Z.U.v.X U 1.,   U.U.P.].Q.U.W.Q.W.F.|.uXuX8X~.&X0X>XQ.U.U.`. X%X_.P.Y.!.T.",
"k.S.C.Z. X1X$XZ.Z.C.Z.].Z.U.`.B.C.I.`. X3X XZ.Z.U.U.C.U.].U.P.. (.} o U.U.Z.}.Q.D.W.Q.W.d.c.-XtX0XF.F.0X~.g.M.U.Y.:XeX}.I.I.}.I.",
"B.M.V.D.`.].].].Z.Z.Z.Z.U.Z.Z.Z.U.`.;X'.B.Z.Y.`.U.Z.U.`.U.U.Z.. (.&.: . '.Y.I.Y.I.T.T.T.T.n.b.b.m.d.p.c.b.V.U.Y.'.'.'.'.Y.Y.Y.Y.",
"[.Q.Q.Z.C.Z.].].Z.C.Z.Z.Q.Z.Z.Z.U..XwX}.j.B.`.`.U.Z.U.U.U.U.`.X E.t.1.. _._.I.}.}.Y.T.Y.W.P.v.d.h.d.d.c.b.U.!.U.I.I.I.I.Y.Y.Y.Y.",
"B.Z.Q.].D.Z.Z.C.Z.Z.Z.Z.].`.Z.D.B.}.wX>XC.Z.Y.V.Z.Z.Z.Z.Z.C.$ & e.i.| X _.G.G.+X3X XI.B.U.U.U.Z.F.n.V.V.V.Z.Z.Z.C.C.Z.Z.Z.Z.I.B.",
"D.Z.Z.Q.D.Z.[..X[.D.Z.U.Z.Z.U.].U.C.].Y.C.U.U.Z.Z.U.`.Z.Z.Z.X g 8.T U   _.G.G.'. X`.C.I.U.U.U.`.~.W.Q.W.Q.Z.Z.].Z.Z.]. X.XY.C.I.",
"Q.D.V.Z.Z.Q..X1X].].Q.Z.Z.Z.Q.K.U.M.j.z.Z.Q.V.Q.Z.Q.Z.Z.Z.Z.. 2.~ i . G.C.J.G.G._.G.G.G.I.C.C.Z.Z.Z.Q.Q.Z.D.H.N.J.H.{.+X.X].N.G.",
"D.Z.D.Z.[.>X[.v.Z.Z.Z.Z.Z.Z.Z.Z.Z.U.B.B.Q.Q.Z.Z.D.Z.Z.Z.X & , y u - o J.C.G.G.G.`.G.G.C.G.G.I.`.Q.U.D.].[.D.Z.Z.Z..X+XZ.S.H.H.H.",
"Q.].|.Q..X4X[.g.C.C.Z.Z.Z.Z.U.Z.U.Q.Q.U.Z.Q.Q.D.Z.Z.e + + v  .X.E < @ o . C._.G._._.G._._.I._.I.I.C.U.I.U.Z.[. XK.,X<XM.g.Z.].C.",
"Z..X4X[.].2X.XF.Z.Z.].].Z.Z.U.].Q.V.U.Q.V.D.Q.D.Z.X & { S ~ J $.E W E R o . C.G._._._._.I.C.I._.I.Y.T.Z.Z.].oX>X[.+X<X[.N.Z.Z.Z.",
"Z.V.U.Z.B.C.U.Y.Z.]..X;X.X'.Z.'.`.Z.Z.U.D.Z.].OXX r *.Z ~ ~ H y.T Z S  .>.7   A.Z.G.`.`.`.C.Z.G.U.U.U.U.U.T.W.Q.U.P.Z.Q.U.B.Z.U.",
"Q.v.g.B.B.z.z.Z.Z. X4XiX3XXXZ.U.Y.U.V.Z.Q.U.].. @ =.-.-.F L #.y.%.! F %.&.+.+   Z.G.`.`.`.`.Z.Z.Y.U.U.I.U.V.v.z.P.z.g.V.U.Z.Q. X",
"].B.B.B.U.C.B.U.Z. XwXiX3X XG.C.Z.].Z.C.Z.Z.[.. T / y.;.B F #.) +.K / ( 5.%.W   C.Z.U.I.C.C.U.U.Z.Z.U.U.U.Z.Z.V.Q.V.M.`.`.Z..X4X",
"Z.Q.}.U.U.Q.`.Z.G.'.+X>X;X].C.C.Z.].Z.Z.D.Z.. 6 W ) 0.4.! F 3.) %.F G u.y.+.E % . Z.U.C.C.U.Y.I.U.Z.V.U.Z.U.Q.Q.Z.Q.].`.Z.Z..X5X",
"B.U.U.U.B.U.U.U.`.C.G.`.`.`.C.C.Z.Z.Z.].Q.].o u C ! #.y.) F K ;.J / %.5.+.L ! s . U.U.I.Y.Y.Y.Y.U.Z.C.Z.`.Z.Z.Z.C.U.`.C.C.Z.].H.",
"Z.U.Q.].U.U.U.U.C.C.C.C.G.Z.C.C.C.C.].].Z.. O o.~ q F #.) K F ) L G :.#.H k ~ o.O . U.Y.Y.Y.U.I.B.Z. X$X X`.U.`.Z.Z.Z.Z.H.].G.C.",
"V.U.U.U.U.U.`.U.C.Z.C.Z.Z.C.C.`.Z.F.].Z.B.. < <.) k c G 3./ F -.J / ( F l x +.o.6 . I.U.I.I.P.I.Z.}.$X;X.XU.Z.U.Q.Z.Z.`.G.U.Z.Z.",
"Q.U.U.U.Z.C.C.'.`.`.C.C.G.`.`.Z.D.Z.Z.Z.Z.. >.o.-.c j K #.G F -.J ! @.F z q $.$.O.. I.I.I.`.I.I.Z.C.U.}.}.U.C.Z.U.Z.Z.C.C.G.C.`.",
"U.Q.U.U.C.C.U.`.`.`.G.Z.Z.`.`.Z.U.].Z.C.].. o.e.o.= c ) ) K ! ) / B :.) t 2 +.9.>.  I.`.`.`.`.`.I.U.U.U.I.U.I.U.I.U.I.I.U.U.I.U.",
"U.Q.U.U.`.U.I.I.C.G._.C.G.`.Z.Z.Z.Z.Z.Z.U.. L e.S 3 F 3.) F ;./ -.J $.@.W 1 L 6.]   U.I.C.I.`.G.U.U.I.U.U.T.I.I.I.U.I.I.I.C.I.`.",
"Q.U.Z.Z.U.U.`.U._.`.Z.C.U.Z.Z.C.U.U.Z.Q.Z.. 9 o.= t #.#.J ! -.-.X.~ J @.=.q > +.- + C.`.C.C.'.Z.V.U.Y.U.P.I.Y.Y.Y.I.I.'.U.U.C.U.",
"Q.Q.Z.U.U.Z.I.U.C.`.`.G.Z.].].C.Q.Z.Z.Q.}.Q.o S o x :.) F / ( @.-.T J ;.X.k O S . `.`.U.C.C.`.`.~.!.Q.Y.I.T.I.T.'.I.T.`.I.U.U.U.",
"Q.V.Z.Q.Y.Z.I.C.G.C.Z.C.`.;X>XZ.V.Z.C.|.1X Xo 9 O Z X.J / B J -.B S / B -.~ o 9 . I.].U.Q.U.B..X1X}.Z.Q.].U.U.].U.Z.Z.Z.U.Z.Z.U.",
"Q.V.V.Z.U.U.I.`.C.C.C.C.].4X4X].V.D.].*X4X  # o @ C -./ B l ^ L / q S  .X.Z O o X   U.I.$X$XV.$XiX1X.XQ.Z.Q.U.U.Z.U.U.Z.Z.Z.Z.Z.",
"Q.Q.Q.Q.Z.U.`.`.G.G.C.Z.]..X.X].D.D.Q.[..X  * @ O ~ @.J T t N L Z b Z ~ +.L @ + *   U.Q.*X-X|.-XyX7X$XD.V.C.Z.C.C.Z.Z.Z.`.].].Z.",
"V..X1X.XU.C.C.U.C.`.C.C.G.B.M.`.Q.Q.U.V.M.  g . O C -.Z z k D ^  .w u Z &.~ +   h   Y.P.V.Q.&XyX4X[.M.V.Z.Q.D.`.U.Z.Z.Z. X;X{.N.",
"}.$X%X}.U.Y.I.C.U.I.U.Y.B.j.z.U.U.W.U.M.  * f . 1 E Z 2 q E ~ J ~ S l > P L %   a *   Z.j.v.[.*X~.n.h.Z.].Z.C.`.H.`.H.H.{.qX@XL.",
"yX!.z.z.U.Y.`.'.I.I.`.U.I.C.P.U.P.U.U.U.. f r.o - @ ; x L N ! T T J H j 3 = % . q.n . Y.U.v.g.a.l.n.F.Q.Q.`.C.C.G.+X5X[.L.<X6X<X",
"iX%Xz.B.U.].`.I.I.U.`.I.I.`.`.U.U.U.Y.U.. f gXo O = k N ;.( ( ! ) ~ %.J t O + . hXv . Z.Q.Z.v.v.l.V.Q.Z.Z.].Z.C.J.+X4X>X#X8XqX8X",
"1X%X].C.U.`.`.C.C.U.U.I.U.U.U.U.Q.Y.Y.I.. w.gXo = t X.;.+.F 5.P 0.! ^ $.;.k o o gXq.. U.U.Q.Q.Q.D.D.Z.D.Z.Z.K.Z.`.{.<X7XqX8X9X9X",
"S.B.I.`.U.U.U.I.I.I.`.`.U.C.Z.U.U.U.U.Z.. sX# . < X.;...L #.u.G 5.+.L ;./ @.7 . 6 sX. U.Z.U.Y.Z.Z.].].Z.C.Z.].Q.U.v.V.=XuX0X~.F.",
"g.z.U.`.Q.U.C.C.U.`.U.I.U.U.U.Z.U.U.U.U.U.    + 3 o.$.^ Z $.( ( 3.#.Z ^ %.+.6 O o . Z.C.U.U.C.Z.Z.Z.`.Z.Z.Z.U.Q.Q.v.l.W.&XOXF.c.",
"C.U.U.Z.C.C.G.U.C.`.`.C.C.`.`.Z.`._.G.U.U.  + O > $.L J ! @.K +.P &.L S %...7 # @ . `.U.U.U.U.U.`.I.I.T.Y.P.P.W.W.W.T.c.p.d.b.^.",
"].`.Z.Z.Z.Z.Z.Z.C.Z.G.`.Z.C.C.G.U.U.C.`.`.  % . o O O ..$.+.9.#.5.%...L O = . . @ . I.`.Z.}.;X$XU.I.Y.Y.U.Q.W.W.T.~.R.P.c.c.P.W.",
"Z.Z.U.Z.Z.].Z.Z.Z.Z.`.Z.`.Z.`.C.G.C.`.G.  . ' . q.jX8.= = = J +.L = = = 8.jXq.. ] .   U.I.'.>X>XU.U.U.Y.].~.V.F.W.Q.D.Z.Z.C.C.`.",
"C.C.C.Z.Z.C.C.Z.U.U.].C.Z.Z.C.`.`.G.Z.G.  5 ' . ] - b 8.J = ; -.2 = P e.q < { . E < . U.C.U.'.`.I.U.U.U.$X2X|.F.F.Q.K.Z.Z.Y.`.I.",
"Z.Z.Z.Z.Z.U.Z.Z.C.D.].Z.Z.Z.C.`.C.C.G._.  { 7 o R < 7 u r.~ < W 1 S e.v 9 < [ .  .]   Y.U.Z.U.C.Q.].[.D.OX6X#XL.L.L.L.K.J.G.J.H.",
"Z.].Q.].].D.Z.Z.Z.].U.Z.`.Z.G.Z.G.`._.Z.. ' O.o @ , < ; ~ Z R , Q R P 9 : , X .  . .  U.U.Z.Y.I.Z.*X,X|.oX7X7X,XL.{.#XL.J.J.J.H.",
"Q.Z.Y.$X*XY.Z.U.>X*XI.C.U.U.U.U.G.`.`.C.X f q.9 . o 1 0 E S 7 1 7 Q S > 6 #   8 r.v   U.V.U.Q.Q.[.,X7X>X#X8X8X6X#X6X7X{.H.+X`.J.",
"].Z.U.]..X[.Q.].wX2XY.B.C.U.U.Z.G.C.G._.  8 w.' . o ] d C u + o . d  .w E . . ` q.9 . I.Z.Y.Q.F.[.[.*X8X9XOX9X8XqX9X{.Z.XX5X+XJ.",
"U.U.U.z.Z.>X$XQ.1X2XU.U.U.U.U.U.C.`.`.U.  * w.. 6 < o A M d + - - y n ] o 1 * . q.5 . U.U.Q.Q.Q.V.v.Q.=XOXF.OXuX2X[.n.n.!.!.'.Y.",
"U.V.U.h.U.yX>XQ.>X4X}.U.Z.C.U.`.C.G.I.I.  . ` . A s , 0 d w : - O u n @ q v V . ' o . T.U.Z.Z.Q.W.v.n.W.c.p.F.[.W.n.v.P.W.Y.Y.Y.",
"U.`.Q.U.}.2X*XU.*X*X[.Q.Z.C.K.Z._.I._.I.I.  # o < s b o . f u < v u . . s v 8 . 5   I.I.I.C.Z.U.U.U.B.j.a.a.g.h.a.v.V.Q.Q.Q.P.Q.",
"T.Y.W.U.Z.V.V.V.M.V.Z.D.Z.Z.H.Z.Y._.I.Y.I.  o O.. O.jXo lX. d : s . kX. jXo.o O..   U.`.`.C.U.`.Q.Y.I.B.n.B.B.z.V.P.W.Q.U.W.U.W.",
"U.Z.U.U.V.j.v.Q.j.l.Z.Q.Z.U.Y.U.I.I.`.G.U.Z.. W , o O r.X . w R s O . w.o o 6 S . U.`.`.`.I.I.`.U.Z.Z.U.Y.`.U.Z.Q.U.Z.Z.Z.U.Y.Y.",
"U.U.Z.U.V.V.Z.Q.V.B.Q.Q.Z.U.U.U._._.C.G.`.G.+ A , f o # ,.8  .k A 7 ,., o w 5 '   I.I._.`.U.U.U.Z.C.Z.U.Y.U.W.Q.].Z.V.D.U.U.Y.Y.",
"C.Z.Z.Z.Z.Z.D.U.Q.U.Q.Y.P.T.T.I.`.Z.G.Z.H.`.  R ] , + O A A q -.v R V + . 7 ' '   Z.G.I.Z._.G.G.Z.C.G.U.U.Z.U.Y.`.Z.C.`.`.I.I.I.",
"C.C.U.H.Z.Z.Z.D.Q.Z.U.W.Y.Y.Y.Y.G.`.C.G.G.H.  r A 5 # . n O.z X.k =.d . . 8 R 6   Z.G.C.G._.`.C.Z.Z.Z.Z.U.U.U.U.Z.Z.Z.G.`.U.I.I.",
"N.J.H.J.N.N.N.].Z.Q.U.%X:X!.T.'.G.U.Z.G.G.H.  . < s # . ,.v : 0 ; s } X + y 9 o o U.Z.C.G._._.G.Z.N.A.U.U.U.Z.Z.C.Z.C.Z.G.`.`._.",
"XXXXH.N.N.K.H.C.Z.Z.P.:XeX%XY.Y.Z.`.`.C.G.  p 1 m s % . . v o O o n     8 s s w 7   Z.C.G._._.G.C.Z.G.H.Z.Z.Z.Z.Z.G.U.G.C.`._.C.",
"<X@XF.N.N.Z.L.N.D.V.D.*XeX%XT.Y.U.C.U.].C.  1 1 m M   P.. ] a . a [   Z.. M m > < . `.`.C.G._._.D.D.Q.Z.Q.Q.Z.Z.[.Z.U.Z.Z.`.Z.Z.",
"qX<X{.N.K.{.{.D.Z.F.Z.U.Z.U.I.T.Z.U.].`.X r z aXaX2 T.Q.!..   8 . . >XZ.Z.- fXdXx 7   U.G.C.G.C.Z..X.XQ.V.U.oX.XD.Z.Z.Z.G.`.C.I.",
"yXyXyX#XoX<XOXD.N.K.K.M.g.B.}.U.U.].Z.U.. Y 8.aXaXz . Y.Y.B.j.M. X3X.XH.  z aXu.9.u . Z.`.`._.C.Q.,X2X].U.[.-X*XD.Z.F.D.Z.].Z.Z.",
"yXyX7X2X2X7X#XD.D.Z.Z.A.S.P.}.I.U.U.`..X. 7.7.0.aXpX. T.I.B.B.Z.`.].`.G.. E.i.9.8.r.  Z.I.`._._.D.-X-X}.%X-XW.V.V.Z.D.Q.Z.Z.Z.C.",
"&XrXtXuXtX&XQ.Q.D.D.C.Z.`.U.Z.`.Z.Z.}..XX ).; hX1 pX+ U.`.Y.Z.Z.G.Z.G.Z.  /.q dX< ).. U.I.I.I._.}.1X1X!.-XeXP.l.V.D.D.Z.Z.Z.Z.Z.",
"p.~.rXuX&Xv.v.D.D.Q.Z.C.`.Z.C.`.Z.K.>X].j.. . o + o I.U.`.U.C.`.G.Z.G.Z.Z.. o o . . U.U.C.C.C.C.}.1X1XW.%X1X!.U.V.Z.Q.Q.Z.Z.U.D.",
"s.f.^.^.R.n.F.Q.Q.Q.U.U.Z.U.I.`.C.].4X@XA.A.Z.F.Q.P.U.Y.Z.Z.C.G.G.C.G.Z.Z.Q.U.[.OXQ.U.U._.C.I.I.T.!.Y.P.T.T.!.~.Z.D.Z.oX.XZ.Z.Z.",
"s.s.f.f.f.^.~.W.V.V.`.].`.U.`.I.H.J.>X1X[.].D.Z.P.Q.U.U.C.C.G.G.G.C.Z.Z.Z.Z.U.>X4XQ.C.U.`.U._._.P.z.x.T.P.g.P.P.U.F.[.4X4XK.C.C."
};
