/* XPM */
static char *result[] = {
/* columns rows colors chars-per-pixel */
"64 64 230 2 ",
"   c #040100",
".  c #0B0100",
"X  c #0B0A0A",
"o  c #130100",
"O  c #1B0301",
"+  c #140906",
"@  c #1B0A04",
"#  c #140C0A",
"$  c #1B0D0A",
"%  c #16050A",
"&  c #1D130C",
"*  c #1D1713",
"=  c #071105",
"-  c #230200",
";  c #220C06",
":  c #2A0D03",
">  c #220E0C",
",  c #2C0E0A",
"<  c #330D08",
"1  c #24130C",
"2  c #2B130E",
"3  c #331109",
"4  c #241513",
"5  c #2A1512",
"6  c #2C1914",
"7  c #271815",
"8  c #3B1E19",
"9  c #3B1A15",
"0  c #2B2318",
"q  c #3D2115",
"w  c #3C231C",
"e  c #35251C",
"r  c #361D20",
"t  c #2D2221",
"y  c #3D2623",
"u  c #372A23",
"i  c #3A2A22",
"p  c #382827",
"a  c #3F332A",
"s  c #441F1B",
"d  c #461D15",
"f  c #531812",
"g  c #45231C",
"h  c #45241B",
"j  c #442523",
"k  c #422B25",
"l  c #4B2824",
"z  c #442D2A",
"x  c #44312D",
"c  c #4C332C",
"v  c #5B362D",
"b  c #543E35",
"n  c #5D3C33",
"m  c #523E3A",
"M  c #5C3C3B",
"N  c #5C3636",
"B  c #4B3A39",
"V  c #643A2D",
"C  c #693B2E",
"Z  c #69372B",
"A  c #643C34",
"S  c #6B3D33",
"D  c #633E39",
"F  c #693B38",
"G  c #723E31",
"H  c #1F4519",
"J  c #5C4136",
"K  c #54413A",
"L  c #5C433C",
"P  c #5D4A3E",
"I  c #554335",
"U  c #54573F",
"Y  c #624037",
"T  c #6A4335",
"R  c #63423A",
"E  c #6B433B",
"W  c #694839",
"Q  c #74453C",
"!  c #7C453C",
"~  c #75493D",
"^  c #7B4A3D",
"/  c #714237",
"(  c #673F40",
")  c #5B4542",
"_  c #5C4A45",
"`  c #574A48",
"'  c #5B5948",
"]  c #624241",
"[  c #664B44",
"{  c #6D4B44",
"}  c #634C49",
"|  c #6D4642",
" . c #7C4640",
".. c #734B43",
"X. c #7C4C43",
"o. c #724E4A",
"O. c #7B4D4A",
"+. c #744644",
"@. c #6E5247",
"#. c #6D514C",
"$. c #64534E",
"%. c #745145",
"&. c #7C5143",
"*. c #75524B",
"=. c #7A524B",
"-. c #645752",
";. c #4F7042",
":. c #566044",
">. c #80463C",
",. c #814A3E",
"<. c #824B43",
"1. c #844945",
"2. c #855149",
"3. c #9B695E",
"4. c #936E67",
"5. c #9B6D6C",
"6. c #996A66",
"7. c #88776E",
"8. c #9B736C",
"9. c #93726B",
"0. c #8A7671",
"q. c #93726F",
"w. c #A36B64",
"e. c #A96968",
"r. c #A6726A",
"t. c #A27673",
"y. c #B1706A",
"u. c #229B26",
"i. c #2A9E2E",
"p. c #299F27",
"a. c #2B9432",
"s. c #2F9F31",
"d. c #349D3A",
"f. c #26A52A",
"g. c #2AA32D",
"h. c #2AAA2E",
"j. c #20A123",
"k. c #2CA331",
"l. c #2DAC32",
"z. c #26A230",
"x. c #31A535",
"c. c #33AC34",
"v. c #34AB3A",
"b. c #3BAD3C",
"n. c #3CAA37",
"m. c #33B235",
"M. c #3BBB36",
"N. c #35B53A",
"B. c #3BB53C",
"V. c #36BC3D",
"C. c #3BBC3E",
"Z. c #36BA36",
"A. c #2FB133",
"S. c #41BD3C",
"D. c #42B939",
"F. c #37C13E",
"G. c #3BC13D",
"H. c #39C136",
"J. c #43C23E",
"K. c #49C33D",
"L. c #44C83E",
"P. c #37B740",
"I. c #3BB542",
"U. c #36BD41",
"Y. c #3CBD42",
"T. c #3EBD49",
"R. c #3FB749",
"E. c #3FAE45",
"W. c #42B645",
"Q. c #41BD43",
"!. c #42BD4A",
"~. c #49B949",
"^. c #4EA650",
"/. c #749F69",
"(. c #70B86B",
"). c #36C141",
"_. c #3CC142",
"`. c #3DC149",
"'. c #42C244",
"]. c #49C645",
"[. c #4BCA44",
"{. c #44C44A",
"}. c #4BC54B",
"|. c #46CA4B",
" X c #4BCB4D",
".X c #42C841",
"XX c #52CE4C",
"oX c #53C949",
"OX c #4DD04D",
"+X c #54D24C",
"@X c #5AD24E",
"#X c #4CCC51",
"$X c #49C953",
"%X c #55C653",
"&X c #52CD53",
"*X c #5BCE5B",
"=X c #54CC57",
"-X c #4ED153",
";X c #4FD359",
":X c #53D355",
">X c #5BD453",
",X c #5CD955",
"<X c #55D45A",
"1X c #5BD55B",
"2X c #55DA5B",
"3X c #5CDA5C",
"4X c #56DA55",
"5X c #62DA56",
"6X c #64DC5B",
"7X c #69DE5D",
"8X c #61D558",
"9X c #60CE5B",
"0X c #67E25D",
"qX c #5DDC62",
"wX c #5CD763",
"eX c #5ECB60",
"rX c #63D562",
"tX c #64DD63",
"yX c #69DD62",
"uX c #6CDC6B",
"iX c #6AE164",
"pX c #66E468",
"aX c #8C9774",
"sX c #9C8A83",
"dX c #A48A85",
"fX c #AEA692",
"gX c #BBB2A2",
"hX c #C4A19D",
"jX c #D3ACAD",
"kX c #DDCCC4",
/* pixels */
"V.Y.Q.V.C.'.C.C.V.C.'._.'.C.C.C._.Y.U._._.U.Y.U.C.Y.P.|.wX<XQ.B.I.T.T.`.wX;XU.U.).Y.).F.V.Y._.N.M.'.M.C.C.C.S.I.{.Q.Y.I.Y.T.T.P.",
"C.C.S.C.C.'.C.C.C.Q.Y.'.|._.C.C.U.Y._._.V.U.V.U.C._.Y.T.Q.$X&X{.Y.T.Y.Y.$X|.U.U._._.F.Y.C.V.G.'.].J.C.S.S.C.D.I.Q.Q.Q.Q.T.Y.T.Y.",
"'.S.C.Y._.C.C.C.G.C.C.|.:X|.C.C.V.V._._.V.V.Y.U.Y.Y.Y.N.k.Q.<X}.'.J.S.M.C.J._.G.G.M.M.J.L.J.M.+X5XL.D.J.K.K.S.M.B.S.J.G.C.C.V.Y.",
"<X|.C.C.Q.C.C.Y.Y.V.C.:X3X XV.Y.U.V.U.U.U.Y._.U.Y.Y.Y.I.B.#XwX#X'. X].C.C.C.G.G.M.Z.M.J. X[.J.[.0X5XL.D.[.+X'.S.C.C.C.J.G.C.G._.",
"pX:XY.C.C.C.C.Y.Y.Y._.'. X`.C._.).U.V.Y.U._._.V.Y.V.N.Y.{.|.#X'.|.3X+XC.C.M.M.S.M.C.D.J.@X8XoXoX5X0X8X].@X5X].G._.M.V.V.C.V.C.G.",
"qX-X'.C.C.'.S.V.C.'.G.m.A.V.C.C._._.Y.U.Y.U.Y.Y.Y.Y.C.Y.Y.c.l.m.[.6X XY.D.M.M.S.S.M.D.J.XX5X6X6X5X0X8X@X5X>X].M.G.G.G.F.C.C.C.G.",
"_..XY.C.'. X|.C.C.'.C.m.h.V._.V.V._._.`.|.`.V.Y.C.`.C.Y.Y.c.l.N.{.&X{.Y.Y.I.{.Q.Q.~.Q.Q.W.}.tXuX7X~.%X9X=X'.Y.P.Y.$X$X`.I.Y.T.Y.",
"j.m.Z.C.|.:X#XC.C.V.C.'.C.Y.S.V.F.)._.`.2X#XC.C.Y.Y.V.C.Y.Y.Y.Y.Y.T.I.Y.Y.Y.{.Q.S.W.W.Q.g.s.=XrX9XD.D.9X~.g.c.Y._.;XwX`.P.T.T.Y.",
"Z.m.B.Q.J.{.'.{.C.C.V.C.Q.C.C.C.Y.Y.#X{.N.V.Y.'.Y.C.C._._.Y.Y.C.Y.U.U.T.`.`.).`.Y.P.I.R.I.b.c.v.b.s.p.x.v.N.Y.T.`.`.`.`.T.U.T.T.",
"Q.Q.'.C.Z.C.'.'.C.V.C.C.J.C.C.C.Y.|.qX|.h.N._.`.Y.Y.Y.Y.Y.C.Y.Y.U.T.U.U.`.).).{.{.T.P.T.~.I.l.s.s.s.s.x.v.T.Q.Y.P.U.U.Y.T.T.T.T.",
"B.C.S.Q.Y.B.V.Z.S.C.C.Y.Q._.Y.C.V.|.qX:XN.Y.Y.I.V.C.Y.C.C.V.C.Y.F._.U.N.).).F.`.2X|.U.V.Y.Y.Y.Y.B.B.B.B.B.C._.C.N.C.G.Y.C._.U.P.",
"S.C.C.'.Q.C.{. X'.Q.C.C.C.C.Y.'.Y.P.'.Y.V.Y.Y.Y.C.Y.C.Y.C.C.C.C.V.).V.U.).F.F.`.OX_.P.V.Y.Y.Y.Y.~.W.Q.W.Q.C.C.Y.).C._.|.|.`.P.P.",
"Q.S.B.C.C.Q.XX:X'.'._.C.C.G.Q._.Y.m.h.l.C.Q.B.Q.S.S.C.Y.C.C.Y._.G.G.G.G.Z.F.F.F.F.F.F.F.F.V.V.C.C.C.Q.Q.C.Q.J.M.G.G.[.OX XG.M.G.",
"C.S.C.B.'.:X|.c.C.C.C.C.C.C.C.C.C.C.N.N.Q.Q.C.C.Y.C.C.C.C.V.Y.C.F.H.H.F.Z.F.F.V.).).F.V.F.U.)._.Q.C.S.Q.'.S.M.G.M.OX+XM.A.L.G.C.",
"Q.'. XQ.}.qX].g.Z.C.C.Q.C.C.C.S.Y.Q.Q.Y.C.Y.Q.S.C.C.]. XC.C.C.V.V.V.V.V.F.F.F.F.).V.).).).U.).U.`.P.Y.Y.Y.C.]. XJ.:X1Xm.f.C.'.C.",
"C. X3X].'.1X XC.C.C.C.'.C.Y._.'.Q.B.Y.Q.B.Q.!.D.C.'.-X<X'.C.S.M.F.C.F.G.F.F.V.F.).).).).U.V.U.).U.Y.Y.P.M.{.&X4X'. X4X].M.V.C.Y.",
"Y.B.Y.Y.N.V.Y.Y.Y.'. X-X|._.C.'.Y.Y.C.Y.Y.C.Q. X].D.@X6X@XK.D.oX[.D.M.M.[. XG.Z.V.C._._._.V.C.V.P.C.Y.Y.Y.T.Y.T.B.Y.C.Q.Y.B.C.C.",
"Q.c.f.N.N.l.l.Y.C.|.3XpX2X|.C._.Y.Y.B.C.Q.S.].1X>XQ.>X7X,X@XoX@X@XS.M.K.4X4XV.V.V.G._._.G.U._.C.`.  . Y.    c.l.I.l.g.N.Y.V.'.|.",
"'.N.N.N.C.N.N.Y.V.|.qXpX2X|.F.V.Y._.C.C.S.B.'.3XtX:X3XyX7XrX8X7X4X'.V.'.3X1XY.C.C.C.Y.U.Y.V.T.Y.  (..   .   V.B.Y.B.m.Y._._.|.1X",
"C.Q.'.Y.Y.Q.`.C._._.OX:X-X_.V.V.Y.'.C.C.Q.C.Y.].:XiX%XoX6XyXiX%XQ.S.S.C.'.].C.C.C.C.Y.V.V.Y.Y.o gX7.o % .   C.`.B.'.'.'.V.C. X4X",
"B.Y.Q.Y.V.Y.Y.Y._.V.C._._._.V.V.C.V.Y.'.'.'.C.g.I.1XI.v.=XtXrXb.c.B.~.Y.l.c.P.. .       T.Y.o ( jX) $ . .   G.G.Z.Y._.Z.V.G._._.",
"C.Y.Y.Y.Y.Y.Y.Y.V.V.V.V.G.V.C.V.C.V.'.Q.    +       g.u.b.~.b.b.B.B.Q.W.. . o o ) 0.$.& . . 8 5.6.5 y . . #   _.Y.C.Y.Y.S.'.G.C.",
"C.Y.Y.Y.Y.Y._.V.G.V.V.F.U.V.C.G.C.. o o . @ 1 7 4 . .   i.g.g.W.Q.I.  . % 0.q.j s *.[ w P q h 8.E , 8 o i @     Y.Y.Y._._.U.V.C.",
"Y.Y.Y.Y.Y.V.V.{._.Y.V.C.V._._.. . O 2 8 ) L m K K ) e o o . . . . . @ i y M =.5.F Q =.%.q A g 8.A g D g i $ 4 .   V.Z.V.V.G.V._.",
"Q.Q.Y.Y.V.V.Y._.).U._.V.V._.. o L { =.4.4.9.*.n J n L m w @ o ; w @.@.@.q h ~ ~ G >.2.+.V Y ..D D F A L #.0.$.u   Y.U.U.V.U.Y._.",
"Y.Y.Q.Y._.Y.Y.V.Y.F.V.F.  . 2 ) *.| ~ &.X.&.E n Y Y Y Y J n Y [ o...Q ^ W T &.^ Z ^ Q X.Q v =.Y A n A h : . e u . . _._.U.P.V._.",
"Q.Y.C.B.Y._._.U._._.G.  . O w @.E X.!  .! ~ / S S A A A V Y E { X.1.! ^ ^ T T ^ ^ 2.Q X.D ..{ N F Y W L [ O kX. . . .   Y.V.V.`.",
"Q.Y.Y.Y.Y.Y.V.Y.F.).Y.. O ; M *.%.<.,.! ,.^ ! ^ G C S T S V V T ~ >.>.,.^ ^ W ^ C / 2.~ V E ..O.F A v J W w 0.K 2 u 4 #   X C.Y.",
"Q.B.C.Q.`.C.V.V.V.V.  4 @ 8 A ~ ! ^ >.! ^ ! ^ ^ ^ Q ^ ^ ^ ~ ^ ^ ! G r.3.^ ~ ^ ^ V S T Y Y Y s 5...F / 8.4.o.M l y j } % . .   Y.",
"Q.B.B.C.Y.Y.Y._.F.V.* 5 O R A X.^ ,.,.! >.^ ^ ^ ^ ^ %.^ ^ ^ ^ ^ ^ r.r.X.~ &.^ ~ <.S D n n Y g 9 t.....+.=.o.A { o.j j } @ . . Y.",
"Q.'.Q.Y.C.Y._.`.  X t B , A S ! >.^ ^ ,.! ^ ^ S ^ ~ ~ ~ ^ ^ ~ ^ X.....{ d &.~ 2. .! V J L I 8 l | ..X.R d d 3 - j M M $.-.  '.M.",
"B.    $XY.    . . p -.` , l V 1.>.,.>.>.! ^ X.A X.X.X.~ X.^ ^ / Z g 3 , g X.2.^ >.,.d n I P J g g Y J n R 8 j z O O ; t   -X|.M.",
"{.      . o @ w $.} ' e . 9 N D 1.e.e.1. .O.+.A ] D n F S ^ ,.! ^ E Y 3 : %.~ X.>.1.f ..J I P w D y K e $ @ . +     X   [.5X+XK.",
"pX  . ` m #.R R P U u . C.. x N O.G y.w.5.+.l O O O ; L %.~ ^ w.^ 2.n J h - %.Q 1.e.1. .q W O #.k m + . Y.Y.C.V.F.OX4X'.J.,X0X5X",
"pX$X    6 y } -.:.    N.Y.    x o. .w.3.O.s o z p 1 + . K @.......A M M : - %.X.e.e.e.O.I ; 6 #.O -.. C.C.'.C.V.V.+X3X:XoX7X7X5X",
";X$X{.# . . . . . C.Y.Y.Y.C..   e O.8.X.{ g z 0 + .     # 1 b L n ] ] w 1 3 E O.w.e.e.| e ; > y o %   S.C.J.C.Y.G.].4X6X0X7X5X5X",
"A.N.V._.Y.Y.Y.U._.Y._._.Y.V.V.  i V Z ..*.8 m $ +       . . & u ) ] r + . ; ..o. .e.5.M 6 o . % . . '.C.V.C.Q.Q.Y.c.b.*XuXrX~.D.",
"f.l.C.`.`.Y.V.V.U._.).U.Y.Y.  . O T Q E R L o . * X   Y.C.'.  . . . %   . + } ..O.t.o.j $         Y._.U.C.C.Y.S.Q.x.l.Q.%XoXD.x.",
"V.Y._.C.Z.C.Y.G.V._.C.V.F.. . q g A q.4.2 o 4 * .   Y.Q.C.oX1X}.Y.Y.Y.Y.U.  i | < o . O o   X Y.`.U.U.Y.T.I.I.W.W.W.E.x.i.i.v.E.",
"_._.C.C.C.C.V.C.C.V._._.. x aX3 ..o.9.O o o > #   `.]. X'.&XtX].Y.Y.Y.Y.Y.  0 =...o . % 7   ;X$XP.T.T.T.Y.T.Q.W.R.~.R.P.x.x.E.R.",
"C.C.Y.C.V.Q.C.C.C.C._.C.. (.hX8...o . o 7 .     C.'.:X<X'.].>XQ.Y.Y.B.Y._.  * [ *..   5 4   -X<XY.Y.Y.Q.'.~.B.D.S.W.S.Q.C.V.Y._.",
"V.V.V.C.C.C.C.C.Y._.'.V.o O fX8.O o . . t *   Y.V.'.1X3X].m.c.B.Y.Y.Y.Y.Y.  & [ dX1   @ x   '.Y.Y.Y.Y.Q. X1X}.B.D.Q.Q.C.C.Y._.U.",
"C.Y.C.C.Y.S._.C.V.S.`.C.C.. 2 c k . . * ` ` .   C.C.Y.|.Q.x.h.V.Y.Y.Y.Y.U.V.. k [ j O O ) >   N.Y.|.'.J.oX6X+XK.K.K.L.H.H.H.F.H.",
"S.'.Y.'.'.C.C.V.C.'.C.Y.Q.C.  . _ a $ . X . B a . . h.h.Y.Y.B.'.`.N.Y.'._.Y.. o 1 c P o o ) _ . C.%X:X}.XX6X0X@XK.[.@XL.H.F.H.H.",
"Q.C.Y.#X#XQ.Y.Y.:X#XY.V.Y._.Y.Y.. -._ i > o . ) } x x . Z.`.Y.Y.Y.V.V._.U.U._.V.. z ) L 6 o $.c . 1X6X4X@X7XyX5X@X5X5X[..XOX_.F.",
"{.C.Y.{. X].{.Q.wX1XY.B.C.Y.Y.C.  % } L ) z o c ) _ ) ` . V.C.Y.Y.)._.U.V.V.U.U.. z t.dXsX0.. L '   &X7X8X@X8X7X0X>XXXS..X4X.XG.",
"Y.B.Y.l.B.:X XQ.<X3XY.C.Y.Y.C.U.  0 7.gX; gX. . 6 0.> ^.  U.U.U.)._.).U.U.U.U.)._.. /.) sX_ . P ;.. Q.1XoXb.%XyX1X~.c.N.!.{.{.T.",
"Y.Y.Y.h.Y.qX<XQ.&X3X|.Y.P.V.Y.Y.F.. . . o . o o . . .   = U.V._.U.U.V.)._._.V.U.Y.  . . . . . . H x.c.~.c.p.D.~.S.B.x.E.!.T.T.R.",
"I.{.T.B.}.<X&XY.&X&X].Q.C.V.J.C.).U.).U.U.T.Y.C.Y.I.Y.!.Y.Y.Y.Y._.V.N.Y._._.U.U.U.V.U.U.U.V.C._.Y.Y.N.k.u.u.f.f.f.c.B.W.Q.Q.T.I.",
"Y.Y.Q.Y.B.B.B.B.m.B.C.C.C.C.G.C.U.`.U.U.U.Y.Y.Y.Q.T.Y.Y.I.Y.`.C.Y.Y.).F.Y.).V.V.U.U._._.Y.U.Y.Y.'.Y.P.N.N.b.v.v.N.B.S.W.Q.Y.W.Q.",
"Y.Y.Y.Y.N.h.c.Q.h.l.B.Q.Y.Y.Y.Y.U.U._.F.U.G.Y.C.Y.Y.T.T.C.Y.Q.C.Y.`.`.Y._.U.Y.Y.V.U._._._.U.Y._.Y.C.Y.Y.Y.Q.Q.T.Q.Q.C.C.Y.Y.Y.T.",
"C.B.Y.Y.B.B.Y.Q.B.N.Q.'.C.T.Y.Y.).).V._._.V.Y.C.Y.Y.Y.Y.Y.C.V.Q.C._.Y.P._._.V.U.V.U.U.)._.Y.U.U.C.C.V._.T.Y.Y.Q.'.Y.B.C.Y.Y.T.T.",
"V.C.C.C.C.G.C.S.Q.B.Y.R.I.Y.I.T.).V.F.V.G.G._.F.C.Y.Y.!.&X XS.B.Y.'.V.C.|.|.G.V.Y.V.F.G.C.).F.G.F.V.Y._.V.V.C.Y._.C.V.G._.).U.U.",
"V.V.G.G.C.V.C.Q.Q.Y.Y.!.T.T.Y.T.G._.C.F.F._.G.C.C.Y.Y.|.#X&X'.C.C.C.C.{.:X X_.C._.V.V.U.F.)._.V.G.C.F.C.Y.Y.Y.Y.C.C.U.Y.Y.Y.U.U.",
"G.H.G.H.M.M.M.'.Q.C.Y.$X;XT.R.T._.C.V.G.F.G._.F.C.Y.Y.N.m.Q.XX}.Z.J.C.G.|.{._.C.Y.Y.C.F.F._.F.).M.V.M.C.Y.Y.C.C.M.C.V.V.C.F._.U.",
"L._.J.Z.M.J.G.C.C.Y.I.;XwX$XU.T.C._._.V.V.V.F.).Y.V.Y.N.h.].6X].'.|.'.B.C.Y.G.'.C.C.V.V.F.).).F.V.C.G.Y.Y.C.C.Y.C._.G.C.)._.).).",
",X+XD.M.M.M.J.J.S.B.C.:XwX$XY.R.C.V.Y._.Z.V._.N.U.T.I.I.Q.=X>X}.'.2X XC._.C.C.'.Q.V.C._.V.F.).).C.Q.S.Y.Q.Q.C.C._.C.Q.C.C._.V.U.",
"0X,X[.C.K. X].S.M.D.S.C.C.Y.T.Y.C.`.'.'.Y.V.U.U.`.T.P.Y.Y.T.C.B. X3X-XC.C.C.C.V.Y.C.Y._.F.V.F.V.S. X XQ.B.Y.XX XS.C.C.C.G._.V.U.",
"6XtXtXXXXX1XoXM.C.J.J.m.f.N.T.Y.Y.Q.Y.C.`.`.C.T.U.U.T.T.Y.N.l.m.|.4XOXG.V.C.S.C.C.S.C.C._.).).V.Q.:X:X].Y.}.<X%XS.B.S.S.'.Y.C.C.",
"tXtX7X4X1X6X@XS.S.C.C.N.A.P.`.Y.Y.C._.|.:X|.Y.Y.P.T.Y.I.T.P.m.C._.`._.G.C.S.Q.'.C.Q.C.C.U._.).).S.=X=X{.$X=XQ.v.C.S.Q.Y.C.C.C.V.",
"%XeXrXuX9X%X'.Q.S.S.V.C._._.Y.Y.C.C.|. X{.'.C.I.T.`.T.P.`._.V._.).V.V.G.C.D.C.Q.C.S.Y.Y.U.V.).).{.<X*X!.=XwXI.l.B.S.S.C.V.C.C.C.",
"s.~.eXuX%Xn.c.S.S.Q.C.C._.C.V._.C.Q.:X{.h.l.C.Q.T.T.Y.T.`.Y.V.C.G.V.G.C.C.'.S.Q.'.C.Y.Y.U.V.V.U.{.<X=XT.{.wX!.Y.B.Y.S.'.M.C.C.Q.",
"a.d.E.^.E.v.b.Q.I.Q.G.C.C.Y.U._.V.J.4X+XM.Z.S.I.T.I.Y.Y.Y.V.V.F.F.F.G.C.C.Q.S.].%XQ.Y.Y.U.V.U.V.Y.T.R.Y.I.T.~.{.C.S.'. X XC.C.C.",
"a.a.s.a.d.W.~.~.B.C.`.'._.Y._.U.G.G.:X:X].].C.Y.B.Y.T.Y.V.Z.F.V.F.V.V.C.Y.B.Y.&X3XQ.V.Y._.U.`.U.P.l.z.I.v.z.B.I.Q.B.'.3X1X'.Z.C."
};
