/* XPM */
static char *result[] = {
/* columns rows colors chars-per-pixel */
"47 24 139 2 ",
"   c #050201",
".  c #0B0202",
"X  c #0C0807",
"o  c #120504",
"O  c #190504",
"+  c #130906",
"@  c #1D0A06",
"#  c #1B0708",
"$  c #140B0A",
"%  c #1B0C0B",
"&  c #13100F",
"*  c #1C100D",
"=  c #1D1311",
"-  c #1E1B1B",
";  c #200707",
":  c #230B05",
">  c #220D0B",
",  c #2A0F0C",
"<  c #26130E",
"1  c #2F140B",
"2  c #37140A",
"3  c #241412",
"4  c #2B1613",
"5  c #251817",
"6  c #2E1A15",
"7  c #251B19",
"8  c #2C1D1A",
"9  c #301717",
"0  c #331A15",
"q  c #3A1B17",
"w  c #321D1B",
"e  c #391D1A",
"r  c #24211E",
"t  c #2D211D",
"y  c #3E2016",
"u  c #33211C",
"i  c #3C221C",
"p  c #391D21",
"a  c #2D2621",
"s  c #352523",
"d  c #3C2622",
"f  c #342B26",
"g  c #3C2A25",
"h  c #3D2D2B",
"j  c #43221C",
"k  c #4A241C",
"l  c #422521",
"z  c #432B25",
"x  c #4D2B24",
"c  c #422D29",
"v  c #4A2C2A",
"b  c #502721",
"n  c #512C26",
"m  c #582D23",
"M  c #522D28",
"N  c #43322D",
"B  c #4C332D",
"V  c #54332B",
"C  c #5C342D",
"Z  c #403130",
"A  c #4C3533",
"S  c #453A36",
"D  c #4C3A31",
"F  c #523531",
"G  c #5F3731",
"H  c #543A33",
"J  c #5B3B34",
"K  c #503D3B",
"L  c #5B3D3A",
"P  c #65352B",
"I  c #603A2F",
"U  c #633B33",
"Y  c #6B3E35",
"T  c #623F3A",
"R  c #693F38",
"E  c #4E413B",
"W  c #51413B",
"Q  c #5C423B",
"!  c #644136",
"~  c #6A4236",
"^  c #65433B",
"/  c #6C443B",
"(  c #69493C",
")  c #754236",
"_  c #794737",
"`  c #75453C",
"'  c #7D463D",
"]  c #76493C",
"[  c #7B493D",
"{  c #5B3C40",
"}  c #574241",
"|  c #5D4542",
" . c #594842",
".. c #634442",
"X. c #6B4542",
"o. c #634A41",
"O. c #6F4B42",
"+. c #674B49",
"@. c #6C4D4B",
"#. c #754B43",
"$. c #7B4B42",
"%. c #744E4A",
"&. c #64504C",
"*. c #6A524C",
"=. c #7F5043",
"-. c #71524D",
";. c #7B514A",
":. c #6B5352",
">. c #685E57",
",. c #7B5956",
"<. c #765559",
"1. c #775A5C",
"2. c #785B58",
"3. c #786258",
"4. c #81463B",
"5. c #80493C",
"6. c #834C43",
"7. c #8A4F47",
"8. c #804E4C",
"9. c #845246",
"0. c #895046",
"q. c #84554B",
"w. c #8B544D",
"e. c #865653",
"r. c #855A55",
"t. c #8C5C55",
"y. c #945A53",
"u. c #8D665E",
"i. c #95635C",
"p. c #9E645E",
"a. c #A06B5E",
"s. c #816662",
"d. c #9F6661",
"f. c #9F706B",
"g. c #A16661",
"h. c #A26C67",
"j. c #A86B66",
"k. c #978278",
"l. c None",
/* pixels */
"l.l.l.l.l.l.l.l.l.l.l.l.l.l.l.l.l.l.l.l.l.l.l.l.l.l.l.l.l.l.l.l.l.l.l.4 %       l.l.l.l.l.l.l.",
"l.l.l.l.l.l.l.l.l.l.l.l.l.l.l.. l.. l.l.l.l.l.l.l.l.l.l.l.l.l.l.l.l.s :.5 .     l.l.l.l.l.l.l.",
"l.l.l.l.l.l.l.l.l.l.l.l.. . + # 3 3 + . l.l.l.l.l.l.l.$ o % + . l.# } 0 3 O X X   l.l.l.l.l.l.",
"l.l.l.l.l.l.l.l.l.l.. % 6 l T X.T L F 3 o . . * o . @ L q ..@.9 o g Q < 9 + % = X   l.l.l.l.l.",
"l.l.l.l.l.l.l.l.l.. 3 J #.;.t.r.` T Q Q j i v ^ V x b ^ ~ U %.^ q F J 0 y u s f = . l.l.l.l.l.",
"l.l.l.l.l.l.l.l.  O V %.$.' [ [ ~ U Q J Q O.%.$.$.$.] _ 6.` #.#.J C U k n Q N N S & . . l.l.l.",
"l.l.l.l.+ 9 c 3 o 6 ! #.4.4.' [ [ / ~ ! ( ) ` 5.$.$.[ 4._ _ #.#./ ! #.U J j 6 >.f 8 5 .     l.",
"l.l.l.% z ..+.B @ z ( [ 4.4.5.[ $.] ] ] [ [ [ 0.y.y.0.[ _ ] ] #.^ / %.~ Y ( u...e e d Z N 5 . ",
"l.l.a W @.| ..{ 5 B ( [ ' 6.` [ ` ` 6.` $.[ 5.5.y.g.6._ ` ! ! ( M b r.e.` #.i.8.X.F H 1.<.{ p ",
"l.& S E w # # 3 5 g ^ ] 6.6.[ $.` R #.` $.6.) P P R m Y [ ) ! ~ V M j V r.;.X.i e d g h = & $ ",
"l.- a & . l.l.l.X < V ` g.g.t.#./ M j C ~ d.9.[ F j 2 Y $.$.I I T L v 1 l J z O O 5 . l.l.l.l.",
"l.  l.l.l.l.l.l.l.o z ` w.j.h.#.j , % H O.;.i.[ ^ L y I ] $.m U T T Q F B p > O s .   . l.l.l.",
"l.l.l.l.l.l.l.l.l.  % F $.a.w.b 1 u * 3 H X.#.^ Q J 2 C 6.6.` ^ F U C T A 8 + . . X $ 7 X l.l.",
"l.l.l.l.l.l.l.l.l.l.. 4 ( 9.$.b d %   . + z D Q Q z @ G y.d.;.J x n M F h = . l.l.  X X l.l.l.",
"l.l.l.l.l.l.l.l.l.. + 4 C / X.F % $ X l.l.% % 3 u * @ J t.f.*.w 3 6 A d t l.l.l.l.l.l.l.l.l.l.",
"l.l.l.l.l.l.l.l.l.+ 4 B -.,.l 3 = &   l.l.l.l.l.  . % Q %.O.g +   . X . l.l.l.l.l.l.l.l.l.l.l.",
"l.l.l.l.l.l.l.o w w F &.| z % % o   l.l.l.l.l.l.l.  8 A w o . .     l.l.l.l.l.l.l.l.l.l.l.l.l.",
"l.l.l.l.l.l.l.t s.o.H w o o $ .   l.l.l.l.l.l.l.  . 6 g + . . .   l.l.l.l.l.l.l.l.l.l.l.l.l.l.",
"l.l.l.l.l.l.l.> 2.@.: O % $     l.l.l.l.l.l.l.l.o < N 5 l.l.. o o l.l.l.l.l.l.l.l.l.l.l.l.l.l.",
"l.l.l.l.l.l.. 6 v ; o < %   l.l.l.l.l.l.l.l.l.l.6 B g * l.l.$ > $ l.l.l.l.l.l.l.l.l.l.l.l.l.l.",
"l.l.l.l.l.X h A i O > d % . l.l.l.l.l.l.l.l.l.$ z V % l.l.l.o 3 $ . l.l.l.l.l.l.l.l.l.l.l.l.l.",
"l.l.l.l.l.= S ..z % 6  .S t l.l.l.l.l.l.l.l.l.3 ( *.< l.l.l.. = 3 * l.l.l.l.l.l.l.l.l.l.l.l.l.",
"l.l.l.l.l.t :.:.*.N %  .K h l.l.l.l.l.l.l.l.l.5 3.k.s l.l.l.  = 7 f $ l.l.l.l.l.l.l.l.l.l.l.l.",
"l.l.l.l.l.o s w 8 = . 5 % $ l.l.l.l.l.l.l.l.l.o 5 t + l.l.l.l.$ % l.l.l.l.l.l.l.l.l.l.l.l.l.l."
};
