/* XPM */
static char *result[] = {
/* columns rows colors chars-per-pixel */
"47 24 137 2 ",
"   c #050201",
".  c #0C0302",
"X  c #0C0805",
"o  c #090808",
"O  c #120403",
"+  c #1B0505",
"@  c #130907",
"#  c #1A0A06",
"$  c #130B0A",
"%  c #1C0C0B",
"&  c #17120E",
"*  c #1D110E",
"=  c #1D1312",
"-  c #200A04",
";  c #220E0B",
":  c #2A0D0B",
">  c #320E0B",
",  c #22110D",
"<  c #2B110D",
"1  c #231412",
"2  c #2A1512",
"3  c #241915",
"4  c #2C1A15",
"5  c #241C19",
"6  c #2D1D1A",
"7  c #331413",
"8  c #331B15",
"9  c #3B1B14",
"0  c #341C1A",
"q  c #3A1E18",
"w  c #2D211D",
"e  c #33221E",
"r  c #3B221C",
"t  c #352522",
"y  c #3C2421",
"u  c #302824",
"i  c #3B2925",
"p  c #3A2C2A",
"a  c #421D19",
"s  c #44251E",
"d  c #49281E",
"f  c #442523",
"g  c #492626",
"h  c #462C26",
"j  c #4C2B23",
"k  c #432D29",
"l  c #482C29",
"z  c #532A23",
"x  c #582F2D",
"c  c #46312A",
"v  c #4B332C",
"b  c #53342D",
"n  c #5B342C",
"m  c #5A382E",
"M  c #423533",
"N  c #4C3532",
"B  c #473835",
"V  c #4C3934",
"C  c #4D3738",
"Z  c #533631",
"A  c #5A3533",
"S  c #543A35",
"D  c #5C3C35",
"F  c #543D3A",
"G  c #5B3E3A",
"H  c #633D35",
"J  c #6A3D35",
"K  c #603C38",
"L  c #6C3F3C",
"P  c #713F36",
"I  c #564037",
"U  c #5C4036",
"Y  c #56413C",
"T  c #5B423C",
"R  c #634035",
"E  c #6B4236",
"W  c #63423A",
"Q  c #6B433C",
"!  c #6C483B",
"~  c #734337",
"^  c #74443C",
"/  c #7A453B",
"(  c #75493E",
")  c #7B493E",
"_  c #534443",
"`  c #5F4544",
"'  c #5D4B42",
"]  c #644343",
"[  c #6C4542",
"{  c #634A43",
"}  c #6B4A43",
"|  c #634E4D",
" . c #6B4C4A",
".. c #714641",
"X. c #7C4642",
"o. c #754B43",
"O. c #7B4B42",
"+. c #734C4C",
"@. c #7B4E49",
"#. c #6E574C",
"$. c #7F5046",
"%. c #73524A",
"&. c #7C524D",
"*. c #6A5753",
"=. c #745B5B",
"-. c #7D5E5D",
";. c #72625C",
":. c #796059",
">. c #786C5F",
",. c #82443F",
"<. c #83493E",
"1. c #834441",
"2. c #814B45",
"3. c #86544C",
"4. c #8B554D",
"5. c #8F584F",
"6. c #825754",
"7. c #825957",
"8. c #8C5A53",
"9. c #8B5F59",
"0. c #955857",
"q. c #905F5F",
"w. c #83635D",
"e. c #8E665A",
"r. c #9A6357",
"t. c #936259",
"y. c #9A625E",
"u. c #8F6C66",
"i. c #836668",
"p. c #976C64",
"a. c #986D63",
"s. c #8A786B",
"d. c #92746F",
"f. c #8A7071",
"g. c #A26C69",
"h. c #A86B69",
"j. c None",
/* pixels */
"j.j.j.j.j.j.j.j.j.j.j.j.j.j.j.j.j.j.j.j.j.j.j.j.j.j.j.j.j.j.j.j.j.j.j.j.j.j.j.j.j.j.j.j.j.j.j.",
"j.j.j.j.j.j.j.j.j.j.j.j.j.j.j.j.. j.  j.j.j.j.j.j.j.j.j.j.j.j.j.j.j.j.4 M =     o j.j.j.j.j.j.",
"j.j.j.j.j.j.j.j.j.j.j.j.j.. . O % 1 ; O j.j.j.j.j.j.j.. % O % @ j.j., i.=.% . o     j.j.j.j.j.",
"j.j.j.j.j.j.j.j.j.j.j.  * 0 h ] ] G G v ; . . X = O O , Y 0  ._ ; O y  .6 1 . o     j.j.j.j.j.",
"j.j.j.j..   j.j.j.j.X 5 W o.&.e.3.Q W D S r r v W j v j b H Q %.b q G A : 6 O & $   j.j.j.j.j.",
"j.j.X = 6 * 3 . j.. % G o.) ) ) ( H R R R W L o.2.<.$.R E ( ( o.! m m j 9 f h y 3 $   j.j.j.j.",
"j.. u T { { I 2 ; + f [ X.<.<./ O.) E E E E ~ / 1.1./ ( ~ ~ / O.O.! R H j D S N y 4 X j.j.j.j.",
"j.& 1 4 i F { T A 7 n ^ ) ) / ) ) ) ) ) / ) ) X.4.8.t.$.) ~ / O.( b E ^ H D h 1 ;.B 2 X . j.j.",
"j.j.j.j.j.1 t ] S 7 K [ O.) ) <.) ~ ) ( O.) ) ) 2.a.e.) / ~ ~ J ! d @.@.L H %.:.F 1 w w $     ",
"j.j.j.j.j.j.j.@ ; 2 c W O.3.X.O.O.Q ^ ( ( ( <.) n H H z ( ) ~ R U d z q.8.Q +.p. .C g Y | + O ",
"j.j.j.j.j.j.j.j.j.O 6 D X.h.q.8.o.H d d m ( 4.8.X.z 9 9 ! o.( n W U 9 d &.@.o.D A l A =.f.C 5 ",
"j.j.j.j.j.j.j.j.j.  # b X.0.h.p.H q - , U ( 2.2.X.L n 7 d o.) z U T N 2 q b s 7 ; ; % % 2 w 1 ",
"j.j.j.j.j.j.j.j.j.j.. 1 H 3.p.+.q 8 4 # q D Q ..W H b > H 2.<./ D S S Z S c 2 # . . . X o   j.",
"j.j.j.j.j.j.j.j.j.j.j.. a O.@.[ l y O O . # 6 Z T F 0 : o.r.r.( A k p v S t * j.j.    o & o j.",
"j.j.j.j.j.j.j.j.j.j.. % a J [ [ k % $ X j.j.. * 1 e # : [ e.a.W 2 2 * , % j.j.j.j.j.j.j.j.j.j.",
"j.j.j.j.j.j.j.j.j.j.@ 0 A 7.+.0 % * X   j.j.j.j.j.. . + ] 7.} 6 X       j.j.j.j.j.j.j.j.j.j.j.",
"j.j.j.j.j.j.j.j.j.6 N l  .-.0 O 1 o   j.j.j.j.j.j.j.  ; ] g %         j.j.j.j.j.j.j.j.j.j.j.j.",
"j.j.j.j.j.j.j.j.. *.d.G i 1 O @ X   j.j.j.j.j.j.j.j.. y ` 0 .       j.j.j.j.j.j.j.j.j.j.j.j.j.",
"j.j.j.j.j.j.j.j.  r w.q . O $ .   j.j.j.j.j.j.j.j.j.1 F F + . . X   j.j.j.j.j.j.j.j.j.j.j.j.j.",
"j.j.j.j.j.j.j.j.. , j : . & , X j.j.j.j.j.j.j.j.j.@ h l 6 . . $ & X j.j.j.j.j.j.j.j.j.j.j.j.j.",
"j.j.j.j.j.j.j.j.u c f + # i 1 . j.j.j.j.j.j.j.j.. 4 Z r O j.. % * X   j.j.j.j.j.j.j.j.j.j.j.j.",
"j.j.j.j.j.j.j.j.p ' v ; % Y F p . j.j.j.j.j.j.j.O c #.N . j.j.X , 3 $ j.j.j.j.j.j.j.j.j.j.j.j.",
"j.j.j.j.j.j.j.j.c ;.W { # B _ _ @ j.j.j.j.j.j.j.O Y s.>.X j.j.. 3 8 w   j.j.j.j.j.j.j.j.j.j.j.",
"j.j.j.j.j.j.j.j.= u 3 e . = = 3 X j.j.j.j.j.j.j.O , w = . j.j.j.# # @ o j.j.j.j.j.j.j.j.j.j.j."
};
