/* XPM */
static char *result[] = {
/* columns rows colors chars-per-pixel */
"64 64 224 2 ",
"   c #050100",
".  c #0B0100",
"X  c #0C0904",
"o  c #0A0B06",
"O  c #130200",
"+  c #1B0400",
"@  c #140905",
"#  c #1B0A03",
"$  c #120B0A",
"%  c #1C0D0A",
"&  c #1F0508",
"*  c #0B1205",
"=  c #1D130C",
"-  c #1B1312",
";  c #210300",
":  c #220A00",
">  c #230C0A",
",  c #2A0D0B",
"<  c #2D0E06",
"1  c #340D06",
"2  c #2E110B",
"3  c #27130A",
"4  c #38130B",
"5  c #210E10",
"6  c #231411",
"7  c #2B1512",
"8  c #231816",
"9  c #2B1A15",
"0  c #341411",
"q  c #391D16",
"w  c #292519",
"e  c #33241D",
"r  c #3C231D",
"t  c #342522",
"y  c #3C2522",
"u  c #342B22",
"i  c #3B2A23",
"p  c #382F28",
"a  c #3C3129",
"s  c #332D28",
"d  c #461D17",
"f  c #43231B",
"g  c #47251B",
"h  c #412421",
"j  c #442926",
"k  c #4C2A23",
"l  c #42332C",
"z  c #49312D",
"x  c #5D392E",
"c  c #5D362D",
"v  c #483B36",
"b  c #563E33",
"n  c #5C3B34",
"m  c #5C3E3A",
"M  c #563A36",
"N  c #4C2F2D",
"B  c #633A2D",
"V  c #6C392C",
"C  c #633D33",
"Z  c #6C3D34",
"A  c #653B38",
"S  c #723E39",
"D  c #1D4E1A",
"F  c #4D413B",
"G  c #5C423C",
"H  c #56443C",
"J  c #6B4236",
"K  c #63433B",
"L  c #6B443C",
"P  c #68463A",
"I  c #734235",
"U  c #76453B",
"Y  c #7C453A",
"T  c #75493D",
"R  c #7B4A3D",
"E  c #7F4434",
"W  c #613F40",
"Q  c #594442",
"!  c #564A44",
"~  c #5D4E4B",
"^  c #574A44",
"/  c #5C514A",
"(  c #575046",
")  c #634441",
"_  c #6D4B44",
"`  c #6C4D4B",
"'  c #674946",
"]  c #734643",
"[  c #7A4641",
"{  c #734B43",
"}  c #7B4C43",
"|  c #744D4B",
" . c #7C4E4A",
".. c #6D5247",
"X. c #6B514A",
"o. c #65524C",
"O. c #73524B",
"+. c #7E534C",
"@. c #765243",
"#. c #685552",
"$. c #735350",
"%. c #7A5751",
"&. c #7C4E50",
"*. c #7D7467",
"=. c #82463B",
"-. c #824B3E",
";. c #814536",
":. c #824E42",
">. c #814A44",
",. c #865248",
"<. c #9E685C",
"1. c #A4655E",
"2. c #966C69",
"3. c #8C726C",
"4. c #97716C",
"5. c #887776",
"6. c #9C7473",
"7. c #947774",
"8. c #8B6E6A",
"9. c #A36A63",
"0. c #A96A63",
"q. c #A66A66",
"w. c #A6736A",
"e. c #A87371",
"r. c #2A9E2E",
"t. c #249C27",
"y. c #2B9432",
"u. c #2F9F31",
"i. c #349D3A",
"p. c #26A42A",
"a. c #2AA32D",
"s. c #2AAA2E",
"d. c #20A123",
"f. c #2CA331",
"g. c #2DAC32",
"h. c #26A230",
"j. c #31A535",
"k. c #33AB34",
"l. c #34AB3A",
"z. c #3BAD3C",
"x. c #3CAA37",
"c. c #2FB134",
"v. c #33B235",
"b. c #3BBB36",
"n. c #35B53A",
"m. c #3BB53C",
"M. c #36BC3D",
"N. c #3BBC3E",
"B. c #36BA36",
"V. c #41BD3C",
"C. c #42B939",
"Z. c #37C13E",
"A. c #3BC13D",
"S. c #39C136",
"D. c #43C23E",
"F. c #49C33D",
"G. c #44C83E",
"H. c #3BB542",
"J. c #36BD41",
"K. c #3CBD42",
"L. c #3EBD49",
"P. c #3BB745",
"I. c #3FAE45",
"U. c #42B645",
"Y. c #41BD43",
"T. c #42BD4A",
"R. c #49B949",
"E. c #4BAA4E",
"W. c #76A96B",
"Q. c #718C67",
"!. c #36C141",
"~. c #3CC143",
"^. c #3DC149",
"/. c #42C244",
"(. c #49C546",
"). c #4BCA44",
"_. c #44C34A",
"`. c #4BC54B",
"'. c #46CA4B",
"]. c #4BCB4C",
"[. c #42C841",
"{. c #52CD4C",
"}. c #53C949",
"|. c #4ED04D",
" X c #54D24C",
".X c #5AD24E",
"XX c #4CCC51",
"oX c #49C953",
"OX c #54C552",
"+X c #52CD53",
"@X c #5BCE5B",
"#X c #54CC57",
"$X c #4ED153",
"%X c #4FD359",
"&X c #53D355",
"*X c #5BD453",
"=X c #5CD955",
"-X c #55D45A",
";X c #5BD55B",
":X c #55DA5B",
">X c #5CDA5C",
",X c #57D955",
"<X c #62DA56",
"1X c #64DC5B",
"2X c #69DE5D",
"3X c #61D558",
"4X c #60CE5B",
"5X c #67E25D",
"6X c #5DDC62",
"7X c #5CD763",
"8X c #5ECB60",
"9X c #63D562",
"0X c #64DD63",
"qX c #69DD62",
"wX c #6CDC6B",
"eX c #7BCD75",
"rX c #6AE164",
"tX c #66E468",
"yX c #988982",
"uX c #A68782",
"iX c #BCA6A4",
"pX c #C4A6A7",
"aX c #CABAAF",
"sX c #DFCDC3",
/* pixels */
"M.K.Y.M.N./.N.N.M.N.~././.N.N.N.~.J.K.~.!.K.J.N.N.K.K._.7X-XY.m.H.L.L.^.6X%XJ.J.M.~.Z.!.M.~.~.m.b.V.N.V.V.m.K.H._.U.K.H.K.L.K.J.",
"N.N.V.N.N./.N.N.N.Y.K./.'.~.N.N.J.K.~.~.J.M.J.K.J.K.K.K.T.`.+X_.P.L.P.K.XX'.J.J.^.Z.Z.N.N.M.~./.).A.M.V.V.V.V.H.Y.Y.Y.Y.K.L.P.L.",
"/.V.N.K.~.N.N.N.A.N.N.'.&X'.M.N.M.J.~.~.M.M.J.J.K.K.T.n.g.K.@X'./.D.V.b.N./.~.A.D.N.b.S.G.D.C. X<XF.C.D.D.D.V.b.N.V./.~.Z.N.N.~.",
"-X'.N.N.Y.N.N.K.K.M.N.&X>X].N.K.J.M.J.K.M.~.~.J.K.M.K.H.m.XX7X].[.].(.N.M.b.A.N.b.N.b.D.].).S.).5X=XF.D.). XF.V.b.b.N.D.N.N.N.~.",
"tX&XK.N.N.N.N.K.N.~.~./.].~.K.~.~.M.J.M.J.~.K.J.K.M.m.K./._.XX_.).;X&XN.N.b.V.b.N.b.C.F..X*X}.}.<X5X3X(..X<X(.b.N.N.N.Z.A.N.N.A.",
"6X$X/.N.N./.V.N.K./.A.v.c.M.~.N.~.!.J.K.~.J.K.K.N.^.K.K.K.c.g.k.'.1X{.N.C.b.b.V.C.V.V.V.{.<X1X1X<X5X3X*X<X*X(.N.A.A.A.M.N.N.Z.N.",
"~.[.K.N./.].'.M.N./.N.v.s.M.N.M.K.~.!.^.'.^.N.K.N.^.N.N.K.k.g.N._.XX/.P.K.H._.Y.K.Y.Y.R.U.}.qXwX2XR.OX4X#XY.N.K.^.'.oX!.J.L.T.K.",
"d.v.B.N.'.&XXXN.N.M.N.Y.N.A.Y.M.M.Z.~.'.%XXXM.N.N.K.M.K.T.K.M.K.K./.K.K.K.K._.T.N.Y.U.U.a.u.#X9X4XC.C.4XT.a.v.K.K.%X7X^.H.K.L.P.",
"m.v.N.N.~./././.N.N.M.N.V.N.N.N.K.K.$X_.n.J.K./.K.N.N.~.K.K.K.N.P.J.J.L.^.!.L.L.J.P.P.L.H.z.l.l.x.u.r.j.l.H.K.K.^.^.^.^.L.L.L.L.",
"V.V.Y.m.M.K./.[.M.m.N.N./.N.N.N.K.'.6X_.s.n.^.K.K.K.K.K.K.K.N.K.K.^.J.J.!.!.J._.T.L.P.L.T.m.k.a.u.u.u.j.l.K.T.K.J.J.J.K.K.L.L.L.",
"N.N.V._.V.N.M.m.V.N.N.K./.K.K.N.M._.6X&Xn.K.K.N.M.N.N.N.N.M.N.K.M.~.J.M.!.Z.Z.|.%X'.M.n.K.U.N.M.m.m.m.m.m.N.~.N.B.N.K.N.K.K.J.n.",
"V.N.N./.Y.m.'.]././.N.N.N.N.K./.K.K.K.K.M.K.K.K.N.K.~.K.N.N.N.N.Z.!.M.M.!.Z.Z.^.|.~.J.J.K.K.K.^.T.U.V.T.Y.m.N.Y.K.N.^.'.].K.M.J.",
"T.Y.M.N.N.Y.].&X/./.~.N.N.N./.N.K.v.s.g.N.U.N.Y.V.V.N.N.N.N.K.~.Z.Z.S.S.N.Z.Z.Z.!.Z.Z.Z.!.M.M.M.N.K.U.V.N.Y.D.N.D.S.).|.'.[.M.b.",
"N.C.V.m._.&X(.k.M.N.N.N.N.N.N.N.N.K.n.n.Y.Y.N.N.K.N.N.K.M.K.~.N.A.B.Z.Z.B.Z.Z.Z.!.Z.Z.M.M.Z.Z.K.Y.V.Y././.V.b.S.b.'. XS.v.A.D.N.",
"Y./.`.Y.].1X/.a.M.N.N.Y.N.N.Y.N.K.Y.U.N.N.V.Y.C.N.N.(.'.N.B.N.N.Z.B.M.N.Z.Z.!.Z.!.!.M.!.!.!.!.J.J.H.N.K.K.N._.]./.&X;Xv.p.N.^.N.",
"N.].>X(./.;X].C.N.N.N./.K.N.K.[.Y.N.V.T.N.K.T.N.V.Y.&X-X/.N./.C.N.Z.Z.Z.Z.Z.M.M.!.!.!.!.J.M.J.^.J.L.K.M.N./. X&X/. X=X(.b.M.M.A.",
"N.m.K.n.K.n.K.K.N./.XX%X|.~.N.~.^.N.K.K.N.N._.].(.C.*X1X.XF.C.F.).b.b.V.).|.Z.B.N.Z.~.~.~.N.N.N.J.K.P.K.K.P.P.K.P.K.M.Y.K.n.N.~.",
"Y.k.s.n.n.g.g.K.N.'.>X6X:X[.N.K.K.K.n.N.U.V./.*X XT.*X2X<X.X}.*X.XD.b.D.,X,XN.M.B.Z.~.~.~.M.K.    K.K.K.L.    k.m.k.s.m.N.m.Y.'.",
"/.n.n.n.N.N.n.K.M.'.6XtX:X'.M.M.K./.N.N.V.m./.1X0X*X;X0X1X1X4X2X*X/.m./.>X:XN.N.N.N.K.K.M.K.. o.Q.X   K.      n.K.m.v.K./.K.'.>X",
"M././.K.K.K.^.N.~.~.|.&X$X_.Z.M.N./.N.N.U.N.K.'.&XqX+X}.1XqXrXOXY.V.V.V././.N.N.N.K.J.M.N.. 5.aXy       X o o   H././.~.M.A.'.,X",
"m.K./.K.n.K.K.K.~.M.N.~.~.~.N.M.M.N.K.K.~./.N.s.K.;XH.l.#X9X8XC.k.m.T.V.g.k.H.  . .   . O O 8.0 > -     X $     B.K.K.B.M.A.~.~.",
"n.K.K.K.K.K.K.K.Z.M.M.M.Z.M.M.Z.M.N.. . . .     k.m.r.t.z.U.U.z.m.m.Y.U.. . . O Q 3.Q H O G _ < 0 y O   @ X $   K.N.K.K.V./.N.N.",
"N.K.K.K.K.K.~.M.N.M.M.M.N.Z.N.. . . O % > 5 % X     a.t.f.r.a.H.Y.H.  . & 5.7.h h | O.n B K ..< 2 h O O t O @   ^.N.~.!.~.N.B.~.",
"Y.K.K.K.K.M.M._.~.~.M.M.K.. O O 2 h H m G Q G Q y O . .   .       . @ j h n | 2.S { } { f K f f f y m y y 6 6 .   N.B.M.M.~.M.!.",
"K.Y.K.K.M.M.K.~.!.!.~.M.. + G _ | 4.4.2.%.m n Q b H y + + + O # + X.....g g U R J T } { C J O.q f G ` X.o.6 = X   J.J.J.J.J.K.J.",
"Y.K.K.K.K.K.K.J.Z.N.Z.. = ) _  .T [ } { S C C P K P G M G G K X.....P R I I :.-.V R :.} c n P L n < O O H #.=     K.L.!.J.M.M.~.",
"U.N.N.K.K.~.K.J.~.      i L T -.>.R [ } I J B C B x C J J C C { { R T Y ,.V I R R R T T 4 { O.A n K ..O sXe u u       ~.K.J.K.K.",
"/.U.K.N.K.K.M.K.    X 6 K @.R ;.;.=.R :.I Y I J B C Z C C B B J Z R Y -.Y :.I -.J T T T 1 2.{ | A n 3.7.O X 9 e t =   .   K.K.K.",
"Y.N.K.Y.^.K.M.. . - . e K T R ;.;.;.Y R Y R R T T T T T @.} T } Y I w.<.-.Y -.R B B P x 4 d e.6.| B e.2.| G q h j $.+ . 5 . N.K.",
"Y.m.B.Z.K.. O 6 H 9 + K C { -.E ;.-.-.R R R R R R } T R R R Y -.Y w.w.} R :.R J } C J K A 0 q 4.6.+.] _ | m P ` 7.pX#.& . . N.K.",
"N.*     O + + y ` M , m c +.J -.=.Y R Y R I T R R T R R R Y R :.R [ [ [ d } T ,.T } c n A d ; 0 _ ' n j r , y y Q Q #.~ w   /.N.",
"m.o s H v X.m Q ` Q > r A { R -.=.Y R U  .B T @.@.T R R R R -.;.V d 1 1 g { @.T } U d k n K d ; h q q : O O eXO R.  Y.. . $X).b.",
"_.    . 8 t o.#.5   . @ r n } 9.0.9.9.} J n : & r r J { >.=.=.0.0.[ Z L < : @.R >.W S d A B ) n m 5 7 . . . . 5.  5.. b.).<X XF.",
"0XT.g.  . . .     L.K.  p m  .R 0.q.w.[ f + % O # H _ ] } [ Y ,.9.>.C x r # P } [ q.,.[ _ g A 7 ` i F % . @ . @ $ t   G.G.<X5X<X",
"tXoXg.n.K._.~.J.J.~.~.  . h _ T q.q.[ d ; y t - . O Q $.{ { +.L } n K b 3 : ..R 0.1.2.] ) 2 , #.@ / X . . .         >X&X}.2X2X<X",
"%XXX/.n.K./.K.M.J.K.K.K.. O f P w. .| d y y X $   . # > q m G n ) G G u + : +.} e.e.e.$.f + 9 t   .   K.K.N.A.Z.~.'.,X1XrX2X3X<X",
"g.n.J.K.K.K.~.J.K.J.~.~.K.O f K n L O.j m X $         . O @ + e e F u . # 0 {  .W 2.6.) > X .   o X ~.N.M.N./.U.H.k.z.@XwX9XR.C.",
"p.c.N.^.K.K.K.M.J.~.~.J.O + H x O.K m + . 8 $   N.N.n.N.          X   .   X.] &.4.$.d O O       M.K.~.K.N.N.Y.U.U.k.g.P.+X}.C.u.",
"M.~.~.N.B.M.K.K.M.K.. O 7 h ) n 3.G y O 8 -   K.K.K.Y./.N.`.>X`.N.K.K.K.. ` | ' K + . O O     ~.L.P.J.K.K.P.U.U.U.U.I.j.r.r.l.U.",
"Y.~.N.N.N.N.N.N.M.. N W., ` ` 3.: O O 9 . X N.N.N.K.(.]./.#X1X`.K.~.K.P.. h | | O . @ @ 8   %X].J.J.L.L.T.K.H.Y.Y.T.P.H.l.j.I.I.",
"N.N.K.N.N.K.N.N.N.. W.iXA O.+ O O 3 . . X Z.N.K.N./.&X&X_.). XY.K.Y.N.N.. , | $.O . @ = =   %X&XK.K.K.Y._.T.V.C.U.V.V.V.K.M.J.~.",
"N.B.N.K.N.M.N.N.K.O 6 pX8., O O # ^ a . N.N.N.N.M./.;X>X(.k.v.m.K.K.K.K.  7 ) uX, O X # a . ~.^.K.K.K.K.].;XR.m.C.Y._.b.m.~.~.J.",
"N.~.N.b.N.K.~.N.M.N.O 9 h z O O # H / @ . N.~.M.N.K.^././.k.a.m.~.K.K.Y.K.O N K k O # O /   N.n.Y._.(.V.}.1X.XF.F.F.F.S.S.S.Z.S.",
"K.~.K././.N.N.N.K./.. O l i . O # ( = X   . K.Z.~.B.s.s.K.K.m./.K.n.K./.K.X j k ; O # ^ l     K.N.+X&X).{.1X1X*X(.)..XG.S.S.S.A.",
"Y.K.K.XX+XY.K.K.&XXXK.X H o.l % . . ! ^ l a o J.~.J.v.c.M.K.K.K.~.M.J.~.J.J.. _ ) 2 O / ! p   T./.*X1X@X.X1XqX<X.X<X1X).~.|.~.Z.",
"/.N.K.T.'.(.T._.>X;XK.. = ^ ~ Q z . a ~ ! ~ !   M.K.~.K.K.N.N.J.~.J.!.J.M.M.o 3.uXuX3.. ! / ~   /.(.*X2X3XOX<X2X5X=X).V.[.,X).Z.",
"K.K.K.g.N.&X].Y.-X>XK.  w *.iX& iX. . 9 5.$ E.o J.M.J.~.J.M.J.~.!.!.~.!.J.M.  yX' uXo.  ( ! ^ . m.j.U.;X}.C.}.qX3XT.k.l.T._.^.^.",
"K.m.K.s.N.0X&XY.#X>X'.N.D @ O + O O . . .   $ P.~.J.J.J.K.J.M.K.J.J.M.J.^.~.    O O .     . . . U.k.k.U.k.r.C.R.U.m.k.I.T.T.T.K.",
"K.T.K.H.(.-X#XK.+X+X(.Y.b.N.~.N.L.!.J.J.J.J.K.N.K.K.T.L.K.K.K.K.K.N.M.J.~.K.J.M.J.M.J.J.K.M.K.~.K.Y.n.s.t.t.t.s.t.g.N.Y.U.U.Y.K.",
"K.K.Y.Y.H.m.m.m.v.m.N.N.N.N.A.N.!.J.!.L.J.K.K.K.Y.K.P.P.H.K.^.N.K.N.J.K.~.!.M.M.J.J.~.~.K.J.M.K./.K.H.n.n.z.n.l.m.H.U.U.N.K.K.Y.",
"K.K.K.K.n.s.k.U.s.s.N.Y.K.K.K.K.J.!.Z.~.J.M.~.N.K.K./.^.N.K.N.Y.K.^.^.N.!.K.K.~.J.M.~.~.~.J.~.~.N.N.J.K.T.L.Y.K.Y.K.N.V.K.K.L.L.",
"N.N.K.K.m.N.N.Y.m.m.Y.Y.K.K.K.K.!.!.N.N.K.K.N.N.K.K.K.K.K.N.N.N.K.K.K.J.~.~.J.M.J.J.J.!.~.K.M.J.N.N.J.K.K.K.K.Y./.N.m.N.K.K.K.L.",
"M.N.N.N.N.A.V.V.Y.N.Y.K.H.P.P.K.~.Z.N.Z.Z.A.Z.Z.N.K.K.T.+X'.N.b.N.N.N.~.'.'.~.M.N.M.Z.~.M.Z.~.~.N.M.Z.~.K.N.N.K.K.K.M.N.K.K.J.J.",
"M.M.A.D.M.M.N.Y.Y.U.K.L.L.L.K.L.Z.~.M.Z.A.A.~.N.N.N.K._.&X+X_.C.N.~.N./.&X].~.N.~.M.Z.M.~.Z.Z.M.~.M.N.N.K.K.K.K.N.N.Z.Z.K.K.J.J.",
"N.Z.A.S.b.b.N./.N.K.H.oX%XL.L.L.~.N.N.Z.~.Z.~.!.K.K.K.n.v.Y.{.`.M.K.K.N./.'.N.N.~.K.M.N.!.!.!.Z.N.B.Z.K.K.K.N.N.N.N.M.N.J.!.!.!.",
"G.A.D.B.b.D.S.M.N.N.P.%X7XoXL.L.N.~.Z.N.M.M.M.!.J.M.K.m.s./.1X`./.)./.M.N.~.~./.N.N.M.M.Z.Z.!.Z.B.N.S.K.N.N.N.K.N.Z.~.N.Z.~.~.J.",
"=X XC.b.b.b.D.V.V.m.V.#X6XoXP.L.K.M.K./.B.n.~.M.J.P.P.K.^.@X*X`./.=X'.N.D.N.N./.Y.N.K.~.M.Z.!.!.V.D.N.U./.Y.V.N./.b.Y.N.N.~.M.K.",
"5X=X).b.D.).).V.b.V.N.V.N.K.K.P.N.K./.~.N.J.M.J.^.L.J.P.K.K.m.N.'.6X&XN.N.N.N.M.N.N.N.~.M.Z.!.M.N.].].V.n.U.].].Y.N.N.N.Z.~.M.M.",
"0X0X1X+X{.>X{.V.V.D.N.v.p.l.^.K.K./.N.K.~.^.K.^.J.L.P.L.K.n.g.k.'.:X|.N.N.N.Y.N.N.V.K.N.!.K.!.M.U.*X-X_.K.`.#X+XV.m.V.V.V.~.N.N.",
"0X0X0X*X>X1X{.V.N.V.N.M.v.J.^.K.K.K.K.].-X'.K.K.J.L.L.J.P.H.n.B.~.[.~.Z.N.N.V./.N.Y.N.N.!.~.!.!.K.&X#X_.].#XY.l.N.V.Y.N.K.K.N.M.",
"OX8X9XwX9XOX(.Y.V.V.M.N.~.~.N.~.N.N.'.]././.N.N.J.T.P.P.^.^.B.~.Z.N.N.Z.N.N.U.D.N.V.K.K.J.J.J.!./.;X-XT.#X7XH.g.M.U.V.N.N.b.N.N.",
"y.R.8XwXOXj.k.C.V.Y.N.M.~.N.M.~.M.^.&X/.s.k.N.U.L.L.K.K.^.K.M.K.Z.Z.Z.N.N.D.N.Y.Y.K.K.K.M.M.M.J._.-X-XP.oX7XL.K.m.V.Y./.N.M.N./.",
"y.i.E.U.I.z.C.U.U.Y.~.N.K.K.J.~.B.[.;X Xb.b.N.m.K.K.K.K.K.M.B.Z.M.Z.Z.N.K.V.V.`.{.Y.K.K.J.M.J.J.L.L.U.P.H.P.T.R.N.C.D.].'.N.N.N.",
"y.y.i.y.i.U.U.U.m.N.~./.~.K.~.J.A.A.&X&X)./.U.K.H.K.L.K.B.M.~.Z.!.B.N.N.K.m.N.+X;X_.n.K.~.!.!.J.H.f.s.P.n.a.H.H.V.N./.>X>X/.n.N."
};
