/* XPM */
static char *result[] = {
/* columns rows colors chars-per-pixel */
"47 24 132 2 ",
"   c #050101",
".  c #0B0302",
"X  c #0C0805",
"o  c #0E0809",
"O  c #130403",
"+  c #1A0604",
"@  c #130806",
"#  c #1F0B07",
"$  c #100608",
"%  c #140B0A",
"&  c #1A0D0B",
"*  c #16120C",
"=  c #1C110E",
"-  c #171312",
";  c #1C1211",
":  c #210E0C",
">  c #280F09",
",  c #24130E",
"<  c #2C110E",
"1  c #31120A",
"2  c #241513",
"3  c #2B1512",
"4  c #261916",
"5  c #2B1916",
"6  c #2B1C1A",
"7  c #341614",
"8  c #301913",
"9  c #3C1B15",
"0  c #331E1A",
"q  c #3A1D19",
"w  c #2C211D",
"e  c #33221D",
"r  c #39221D",
"t  c #2C2222",
"y  c #342421",
"u  c #3A2621",
"i  c #302921",
"p  c #3A2B26",
"a  c #3C2C29",
"s  c #3E302A",
"d  c #3E3131",
"f  c #441B14",
"g  c #451F18",
"h  c #40241D",
"j  c #48221B",
"k  c #492620",
"l  c #432A25",
"z  c #4B2C25",
"x  c #422D29",
"c  c #4B2E2A",
"v  c #562A22",
"b  c #542D29",
"n  c #42312C",
"m  c #4B322C",
"M  c #4B3A2F",
"N  c #563126",
"B  c #5C3127",
"V  c #52342C",
"C  c #5B352C",
"Z  c #473431",
"A  c #4B3531",
"S  c #473A35",
"D  c #4C3A33",
"F  c #4C3D3A",
"G  c #523634",
"H  c #5D3732",
"J  c #523D36",
"K  c #5D3B34",
"L  c #533D39",
"P  c #5D3C39",
"I  c #69352B",
"U  c #633D33",
"Y  c #6A3E34",
"T  c #653F3B",
"R  c #693E38",
"E  c #584137",
"W  c #56453F",
"Q  c #5E4239",
"!  c #644033",
"~  c #6B4036",
"^  c #64433B",
"/  c #6C433B",
"(  c #724235",
")  c #73453B",
"_  c #7B463B",
"`  c #75493B",
"'  c #7B493D",
"]  c #544442",
"[  c #5A4240",
"{  c #5E4944",
"}  c #644743",
"|  c #6B4341",
" . c #604B46",
".. c #6C4C44",
"X. c #624E4A",
"o. c #6A4E4B",
"O. c #724743",
"+. c #784640",
"@. c #744C43",
"#. c #7A4B43",
"$. c #665446",
"%. c #6E544F",
"&. c #755045",
"*. c #7C524B",
"=. c #695453",
"-. c #6F5952",
";. c #7D5552",
":. c #796463",
">. c #7E6A66",
",. c #824C3E",
"<. c #814C44",
"1. c #845146",
"2. c #845249",
"3. c #8B564A",
"4. c #87584F",
"5. c #8A5B54",
"6. c #815C58",
"7. c #885E5D",
"8. c #935D54",
"9. c #9A5F56",
"0. c #955F59",
"q. c #85635B",
"w. c #8A645D",
"e. c #95655D",
"r. c #9C665B",
"t. c #9E695E",
"y. c #896B66",
"u. c #876D6D",
"i. c #8E7769",
"p. c #A66B63",
"a. c #958074",
"s. c None",
/* pixels */
"s.s.s.s.s.s.s.s.s.s.s.s.s.s.s.s.s.s.s.s.s.s.s.s.s.s.s.s.s.s.s.s.s.s.s.s.s.s.s.s.s.s.s.s.s.s.s.",
"s.s.s.s.s.s.s.s.s.s.s.s.s.s.s.s.s.s.s.s.s.s.s.s.s.s.s.s.s.s.s.s.s.s.& d t       s.s.s.s.s.s.s.",
"s.s.s.s.s.s.s.s.s.s.s.s.s.s.s.s.s.s.s.s.s.s.s.s.s.s.s.s.s.s.s.s.s.O =.i.4   o   o s.s.s.s.s.s.",
"s.s.s.s.s.s.s.s.s.s.s.s.s.s.s.s.s.s.s.s.s.s.s.s.s.s.s.s.s.% w 2 O : o.9 3 $ X X   s.s.s.s.s.s.",
"s.s.s.s.s.s.s.s.s.s.s.s.s.s.. . & % . . s.s.s.s.s.s.. a Z q %.} q V ^ 1 q @ & %   s.s.s.s.s.s.",
"s.s.s.s.s.s.s.s.s.s.s.O # 7 l G A A x 5 + . . . % : q P 6.O.| @.H C m 9 u c u 6 & . s.s.s.s.s.",
"s.s.s.s.s.s.s.s.s.s.& n ^ *.w.w...K Q E m 8 < r L ..U v +._ _ #.) U ~ z z G L m 2 .   s.s.s.s.",
"s.s.s.s.s.s.s.s.  O l ..@.#.#.+.~ U ! ! K K ^ &.@.` ' Y _ _ +.#.U K ..^ b q m -.t &     s.s.s.",
"s.s.s.s.s.s.s.s.. 3 P &.' ,._ _ ) ( Y ~ Y U ~ ` ' ,.,.,._ ` ( ` N ^ ;.| T q.o.u 5 6 %     s.s.",
"s.s.s.s.s.s.s.. + l / ' _ _ ,._ ' ' ` ` ' _ @.` 1.t.3.' ' ( ! ! N j ;.7.T w.6.P c [ F . X s.s.",
"s.s.s.s.s.s.X y 8 H / ' _ ,.,.#._ _ ' ' ' ' ' ' 4.4.~ ) ' #.` ! U j 9 | @./ K c c o.:.a % s.s.",
"      s.s.. ; ] r k ~ ' ,.<._ +.` / @.@.` @._ ~ B j f Y #.' ` B U P 9 7 c q > O 5 ; 6 s.% s.s.",
"s.  % 2 3 6 n n , < P O.0.9.2.#.K N m V / ` #.1.` N 9 b @.' ,.I Y P V V r 3 + . .   % X   s.s.",
"s.  - y Z ] F % s.O 6 ^ <.p.e.H 8 < # , m ..2.2./ ^ k 1 / 2.r.8./ G x m J a . .   X     s.s.s.",
"s.s.s.. $ - - s.s.s.. r #.0.*.k r 5 O . & r K ^ ^ J 6 3 ..2.r.e.V < 5 x a s o s.s.s.s.s.s.s.s.",
"s.s.s.s.s.s.s.s.s.s.  , U R O.G e % .   . . = i a 6 $ $ A &.5.| < . . 4 * @ s.s.s.s.s.s.s.s.s.",
"s.s.s.s.s.s.s.s.s.. @ 3 P 6.P 0 % % X s.s.s.s.. .   s.  & ^ U 9 O     . .   s.s.s.s.s.s.s.s.s.",
"s.s.s.s.s.s.s.s.s.6 x m o.%.: O * X s.s.s.s.s.s.s.s.s.s.s.7 H c .     @ . s.s.s.s.s.s.s.s.s.s.",
"s.s.s.s.s.s.s.s.O X.y.Q > + 2 = . s.s.s.s.s.s.s.s.s.s.s.s.+ P o.@ X * . s.s.s.s.s.s.s.s.s.s.s.",
"s.s.s.s.s.s.s.s.s.2 %.c O O s S X s.s.s.s.s.s.s.s.s.s.s.s.+ l -.4 X e = s.s.s.s.s.s.s.s.s.s.s.",
"s.s.s.s.s.s.s.s.s.s.O x a & * 5 e 4 X s.s.s.s.s.s.s.s.s.s.s.% r e O , 4 s.s.s.s.s.s.s.s.s.s.s.",
"s.s.s.s.s.s.s.s.s.s.s.% d L e & 6 W S s - s.s.s.s.s.s.s.s.s.s.O M $.n 4 s.s.s.s.s.s.s.s.s.s.s.",
"s.s.s.s.s.s.s.s.s.s.s.  4 >. . .& r { S t s.s.s.s.s.s.s.s.s.s.  D i.a.F s.s.s.s.s.s.s.s.s.s.s.",
"s.s.s.s.s.s.s.s.s.s.s.s.+ a 3 e + + 4 & s.s.s.s.s.s.s.s.s.s.s.s.2 0 y & s.s.s.s.s.s.s.s.s.s.s."
};
