/* XPM */
static char *result[] = {
/* columns rows colors chars-per-pixel */
"64 64 231 2 ",
"   c #040100",
".  c #0B0101",
"X  c #0B0B05",
"o  c #0D0E0B",
"O  c #050902",
"+  c #130201",
"@  c #1B0301",
"#  c #140B05",
"$  c #1B0A03",
"%  c #130B0A",
"&  c #1C0C0A",
"*  c #16140A",
"=  c #1E1413",
"-  c #1C1817",
";  c #0B1407",
":  c #220601",
">  c #230A04",
",  c #250C0A",
"<  c #2D0D08",
"1  c #330E07",
"2  c #2C1106",
"3  c #24120C",
"4  c #2A130D",
"5  c #34130D",
"6  c #3A150C",
"7  c #260F10",
"8  c #251412",
"9  c #2A1513",
"0  c #261812",
"q  c #2A1B17",
"w  c #381D18",
"e  c #35231E",
"r  c #3C231D",
"t  c #3B2015",
"y  c #232819",
"u  c #3C2622",
"i  c #342822",
"p  c #3D2A24",
"a  c #392826",
"s  c #3D3429",
"d  c #362D29",
"f  c #132F10",
"g  c #441B14",
"h  c #441F1B",
"j  c #4A1E15",
"k  c #44180D",
"l  c #432119",
"z  c #4A221A",
"x  c #46281F",
"c  c #432925",
"v  c #492B23",
"b  c #462C28",
"n  c #452726",
"m  c #44322C",
"M  c #4B352B",
"N  c #56382E",
"B  c #553D35",
"V  c #5C3C34",
"C  c #5D3D3A",
"Z  c #553C39",
"A  c #63392D",
"S  c #6A3A2E",
"D  c #633C34",
"F  c #6C3D35",
"G  c #643D39",
"H  c #6B3C37",
"J  c #703E35",
"K  c #1E521C",
"L  c #3A472D",
"P  c #375233",
"I  c #41412D",
"U  c #47483F",
"Y  c #5B4136",
"T  c #55423B",
"R  c #5B433B",
"E  c #46573B",
"W  c #634234",
"Q  c #6A4135",
"!  c #63433B",
"~  c #6B443B",
"^  c #6D4C3B",
"/  c #754336",
"(  c #74453C",
")  c #7C453B",
"_  c #74493D",
"`  c #7B4A3D",
"'  c #7D4234",
"]  c #534742",
"[  c #5B4441",
"{  c #5D4C47",
"}  c #5E5849",
"|  c #4E4741",
" . c #634342",
".. c #6C4643",
"X. c #644B45",
"o. c #6A4A45",
"O. c #6C4D4D",
"+. c #624E4A",
"@. c #734542",
"#. c #744C44",
"$. c #7B4B43",
"%. c #714E49",
"&. c #7D4A46",
"*. c #64524C",
"=. c #6B524C",
"-. c #7D5045",
";. c #74524A",
":. c #785049",
">. c #725755",
",. c #694F50",
"<. c #5D664B",
"1. c #536F47",
"2. c #656450",
"3. c #81463C",
"4. c #814B3E",
"5. c #824C42",
"6. c #824A44",
"7. c #835247",
"8. c #9B695E",
"9. c #A16C5E",
"0. c #9A6C66",
"q. c #8D736E",
"w. c #8B786A",
"e. c #98716B",
"r. c #8B7873",
"t. c #997773",
"y. c #8D6B6A",
"u. c #A36A64",
"i. c #A66B67",
"p. c #A5746A",
"a. c #A57370",
"s. c #B0716C",
"d. c #2B9D2E",
"f. c #239D27",
"g. c #2F9F31",
"h. c #2B9432",
"j. c #349D3A",
"k. c #308A30",
"l. c #26A52A",
"z. c #2BA42D",
"x. c #2AAA2E",
"c. c #20A123",
"v. c #2CA331",
"b. c #2DAC32",
"n. c #26A230",
"m. c #31A535",
"M. c #33AC34",
"N. c #34AB3A",
"B. c #3AAD3B",
"V. c #3CAA37",
"C. c #2FB134",
"Z. c #33B235",
"A. c #3BBB36",
"S. c #35B53A",
"D. c #3BB53C",
"F. c #36BC3D",
"G. c #3BBC3E",
"H. c #36BA36",
"J. c #41BD3C",
"K. c #42B939",
"L. c #37C13E",
"P. c #3BC13D",
"I. c #39C136",
"U. c #43C23E",
"Y. c #49C33D",
"T. c #44C83E",
"R. c #3AB542",
"E. c #36BD41",
"W. c #3CBD42",
"Q. c #3EBD49",
"!. c #3BB745",
"~. c #3FAE45",
"^. c #5B9E58",
"/. c #63985C",
"(. c #678E5C",
"). c #42B645",
"_. c #41BD43",
"`. c #42BD4A",
"'. c #49B94A",
"]. c #4DAE4D",
"[. c #6AAF65",
"{. c #36C141",
"}. c #3CC143",
"|. c #3DC149",
" X c #42C244",
".X c #49C546",
"XX c #4BCA44",
"oX c #44C44A",
"OX c #4BC54B",
"+X c #46C94B",
"@X c #4BCB4D",
"#X c #42C841",
"$X c #52CE4C",
"%X c #53C949",
"&X c #4ED04D",
"*X c #54D24C",
"=X c #5AD24E",
"-X c #4CCC52",
";X c #49C953",
":X c #55C653",
">X c #52CD53",
",X c #5BCE5B",
"<X c #54CC57",
"1X c #4ED153",
"2X c #4FD359",
"3X c #53D355",
"4X c #5BD453",
"5X c #5CD955",
"6X c #55D45A",
"7X c #5BD55A",
"8X c #55DA5B",
"9X c #5CDA5C",
"0X c #57D955",
"qX c #62DA56",
"wX c #64DC5B",
"eX c #69DE5D",
"rX c #61D558",
"tX c #60CE5B",
"yX c #67E25D",
"uX c #5DDC62",
"iX c #5CD763",
"pX c #5ECB60",
"aX c #64D562",
"sX c #65DD63",
"dX c #6BDD67",
"fX c #67E367",
"gX c #988479",
"hX c #B0948E",
"jX c #B6A39D",
"kX c #C1A9A7",
"lX c #DDD7C9",
/* pixels */
"F.W._.F.G. X XF.F.G. X}. XG.G.G.}.E.}.E.}.}.E.E.G.W.E.OXiX6X_.D.R.|.Q. XiX2XE.E.E.E.}.L.F.}.}.S.A.J.A.J.J.D.G.R.oX_.W.R.W.Q.Q.W.",
"G.G.J.G.G.W.G.G.W.J.W. X+X XF.G.G.E.}.}.E.F.F.}.G.}.W.!._.;X>XoX!.Q.!.W.;X+XE.E.}.}.L.G.F.F.P. XXX XA.G.J.J.J.R._.)._.W.!.W.W.!.",
" XJ.G.W. XG.G.G.W.G.G.+X3X+XF.G.G.E.}.}.F.F.E.G.W.}.}.S.v.W.<XOX XU.J.A.G.U.}.P.P.A.A.U.#XU.A.*XqXXXJ.J.U.U.J.A.A.J. X XG.L.}.E.",
"6X+XG.G.G.G.G. XG.F.G.3X9X@XF.W.E.F.E.E.E.E.}.!.W.!.E.!.D.>XiX-X#X@X.XG.G.G.P.P.A.H.A.U.$XXXJ.XXyX=XXXU.XX=X XJ.A.G.G.U.P.G.G.}.",
"fX3X XF.A.G.G.G.G. X}. X@X XG.}.}.F.E.F.F.}.}.F.G.G.G.W._.OX@XoX@X9X*XJ.A.A.A.J.A.A.J..X=X4X%X%XqXyX4X%X=X5XXXA.A.G.G.L.G.G.G.P.",
"uX1X_.G.G._.W.G.G. XW.C.C.F.G.W.}.}.E.E.E.}.E.}.E.}.G.W.!.Z.b.Z..X9X$XG.G.J.J.A.J.A.J.J.$XqXwXwXqXeXrX=XqX4X.XA. XP.L.F.G.G.G.P.",
"}.#X}.G. X@X+XG.G. XG.Z.x.F.}.F.E.}.{.|.+XoXE.!.G. X!.E.E.Z.b.F.oX>XoXW.E.!.oX_._.).J.'.).OXdXdXeX'.:XtX<X_.W.W.}.+X+X|.E.Q.`.!.",
"c.C.F.G.+X6X@XG.F.F.G. XG.W.J.F.F.G.{.+X8X;XG.G.G.W.F.G. XW.G.!.W.}.W.W.!.R.oX_.J._.).).v.v.<XaXtXK.K.tX`.z.N.E.W.2XiX|.R.W.`.E.",
"Z.Z.D.J. X X X XG.A.G.W.W.G.G.G.E. X-XoXS.F.W. XW.W.W.W.W.W.E.G.Q.E.E.Q.|.{.E.Q.!.!.E.Q.W.B.N.N.V.g.d.m.N.R.!.W.|.|.|.|.Q.Q.Q.Q.",
"_. X_.G.F.G. X XG.G.A.W._.G.G.G.W.+XuXoXx.S.}.W.G.G.W.W.W.G.W.W.E.Q.E.E.|.{.E.oX|.Q.R.Q.).).b.g.g.g.z.m.N.Q. XW.E.E.E.}.Q.E.Q.Q.",
"G.G._. XJ.G.G.F.G.G.G.G. XW.G.P.F.+XuX3XS.W. XG.G.G.W.G.G.G.G.G.F.}.E.S.{.L.L.&X8X|.R.F.W.W.G.!.D.D.D.D.A.R.G.G.F.F.G.G.E.}.E.R.",
"J.G.A. X_.D. X-XoX_.G.G.G.J.W. XG.!.W.}.F.E.W.!.G.W.P.W.G.G.G.G.L.{.L.F.{.L.L.|.&X|.F.R.W.W.W.W.'.)._.)._.G.G. X!.G. X+X@X}.S.E.",
"`.J.D.G.F.J.$X3X X XW.G.G.W.G. XW.Z.x.b.G._.A._.J.J.W.G.G.W.G.}.L.P.L.L.F.I.L.L.L.L.L.L.F.F.F.G.G.G.J._.J._.P.A.P.P.+X&X+X#XF.A.",
"J.G.G.D.oX3XoXM.G.G.G.G.G.G.G.G.G.!.S.S._.`.D.J.W.G.W.G.S.G.}.W.P.H.I.I.H.L.L.L.{.L.L.L.L.{.{.W._.W.J.oX_.J.P.A.A.&X*XA.Z.P.U.G.",
"J._.@X_.OXwX.Xz.F.A.G.W.G.G.G.W.W._._.G.G.W._.D.A.G..X+XG.G.G.A.L.F.F.P.F.L.{.L.{.{.L.{.{.E.{.E.W.E.!.W. XG.oXOXU.3X5XZ.z.W.}.G.",
"_.@X9XOXoX7X+XG.G.W.U.W. XG.G. X).A._.oXD.W..XD.W. X3X6X XG.W.A.G.L.F.L.{.L.H.{.{.{.{.{.E.F.{.{.E.W.!.F.F. X>X3X#X*X5X XH.A.F.}.",
"G.G.!.G.G.S.G.W.W. X@X1X+X}.W. XW.!.D.E._.G. X$X.XK.=XwX=XY.K.%XXXK.A.J.XX&XL.H.G.L.}.}.}.F.G.# . !.      !.W.Q.R.!.D.W.W.S.!.}.",
"W.M.l.S.S.b.b.W.G.+X9XfX8X+XG.}.W.E.D.G._.G..X6X3X_.4XyXqX=X%X=X=XJ.A.U.0X0XG.F.F.G.}. X}.}.. <./..   X     Z.b.D.b.z.A.W.G. X+X",
"_.S.S.F.!.S.F.!.F.+XuXfX8X+XL.F. X XG.F.. . . . .   9XsXeXwXrXeX3X XA._.9X8XG.G.G.G.E.E.G.. ^.'.s . %   o   R.S.W.A.S.W. XG.+X5X",
"G. X X!.G. X}.G.}.}.&X3X1X}.F.F.G..   . @ + 7 w 7 +   >XrXdXfX:XJ._.J.F.. . . . . . . F.F.+ /.< q 8 + . %     _.W. X_.W.G.W.+X0X",
"D.W._.E.F.G.W.}.}.F.L.}.}.E.G.. + > > c C G  .C R [ @ . . .   . . . . . + q.: o.y.>.+ + + B +.9 8 u + & q % X   F.G.P.G.F.W.}.}.",
"G.W.W._.W.W.W.W.G.F.F.F.G.F.. +  .o.#.t.e.t.@.G V B R r + $ + u *.@ : w x #.g g :.%...5 + C =.3 3 u + . s = = X   G.W.}.G.#XL.G.",
"G.!._.W.W.E.}.E.L.G.F.G.L.. 0 o...$.` ) $.~ ( ! W ! Y R Y X.%...:...#.#.k -.e.Q #.#.%.h V ~ x l l r R r +.8 8     G.{.}.}.G.F.G.",
" XG.W.W.G.F.F.oX}.K   G.  + r ~ $.$.) 3.5.` F F W Y Y V W #.#.&.$.&.$.` 7.` ` S _ #...;.l V #.z l Y +.*.$ Z } = . .   H.S.}.G.L.",
"W.W.W._.G.G.F.# $ a 8 . + 3 Y #.$.3.3.3.` ` ` _ W W N S F A J 3.6.5.( ) 3.) 4.S ` _ -.^ W D :.D D G 2 . . lXX e i .     O   E.{.",
"W._.W.W.E.k.# b >.O.Z 9 . x Y _ $.3.' ' 4.` ` -._ ^ _ -.( $.6.3.3.) 6.) 3.5.' 3.` -._ #.~ ~ #.! V D D =.w.. . , p e = *   o O }.",
"_.W.G.G.f + Z C C  .O.9 @ B ~ -./ 4.4.4.` / 5.$.( $._ ` 7.5.) 3.i.i.u.i.` ' ` Q _ ^ #.:.1 e.-.H ( H H i.i.@.G n u r >.[.2.@ + W.",
"_._.W.O | } >.O.O.,.,.[ + T Y _ ` ` 4.` / ` $.F $.$.$.) 6./ 5.4.) i.i.3.4.` _ A W W W ! < z 0.a.( H H i.7.&.%.G T <.(.<.<.2.n W.",
"_.D.f o | ] T + + + . a q u ! _ ` ` ) ) 5.7.( D _ $.&.) ( ) F S j ( :._ k ` ^ 7.A D ~ ! 1 G 5 h e.e.&.;.N r c > I m 1.E.# E.. }.",
"_.D.; U | i . + E.S.F.  = & V Q ` u.i.6.( #.#.F H V D H -.p./ / ` 2 1 6 j ` 4.Q -.F V D C C w @ 5 #.O.=.& . . /.# G..   D.  G.}.",
"_._.P       }.}.L.F.F.L.  . r D 4.i.i.u.a.~ ~ ! @ : x V ~ p.8.` $.! Y 2 1 #.^ -.@.j D C o.Z o.r @ w l c $ $ $ .   . G.G.P. X XG.",
"D.@Xo   E.F.E.E.F.}.F.F.G.  u ! @.3.s.u.i.#.w : @ @ Y ;.#.#.p.$._ Y R Y 6 #.` -.$.j G G V ! C R R R u + 3 . /..         +X1XXXA.",
"oX-X-XoXW.E.E.S.!.E.W.|.S.  . e #.` 9.u.6.h : e i 8 . C ;.%.#.#.D V ! t > _ ) 3.5._ ~ V G S S ! Z u 0 # + . . * {.X ].X XXqX$XY.",
"sX`.b.b.E.|.|.|.E.W.W.W.E.!.  + r ^ p.` @.h r s #   X # 7 Y Y ! V ! R 2 @ $.5.i.` #.V v h @.1 N Y ] i   . .   . ; P ; X Y.qXyXqX",
"fX;XZ.C.W.oX}.E.E.}.}.F.G.}.. . u D F $.&.h Z % .     . . c r T T T w $ 2 #.8.s.u.#.T u C < %.b T +     G. XG.F.  X O 3X=XeXeXqX",
"2X-X}.G.!. X}.F.E.E.}.W.E.  . 9 > ~ V &.G  .@   -   }.F.!.. . + . i & # 4 #.5.0.e.Y q   8 9 ,.+ <.  W.J.W.J.P.G.T. X3XwXyXeXrXrX",
"b.S.E.}.}.W.E.G.E.W.}.}.E.. 8 e [ C e.C n . 8 8 o   E.G.G._._.D.G.  X . + ;...t.;.p .     . . . . }. XG.F.G. X_.D.M.B.<XdXaX'.K.",
"l.b.E.}.}.!.G.F.E.}.E.. $ 3 9 c T q.t., + 9 &     E.F.R.G.OX$X_.!.E.  + ,.O. .@ . # %   o   F.W.G.W.}.E.G.G.W._.W.M.M.Q.:X%XK.g.",
"F.W. XG.F.G.P.E.G.E.. 3 ,., >.*.r.& . . 9 + X   G.G._._.A.OX7XOXG.W.  . p 4 + . . .       E.E.W.}.W.E.W.!.!.!.).).).~.m.d.d.~.~.",
" X_.E.G.G.G.G.G.G.F.  q.t.! o.5 . . # & % .   G.J.W.OX+X X>XsX.X}.  . & p 1.. W.  . X     oX1X-X!.E.Q.Q.W.)._.).).'.!.R.m.m.~.!.",
"F.G.W.G.G.W.G.G.W.G.. : jXt.> @ @ = 8       G.W.G. X6X6X.X.X>XoXG.  $ 3 <.. G.oX  . . X   }.3X6XW.E.W.). X'.D.K._._.J._.G.F.E.}.",
"F.F.G.G.G.F.G.G.E.. 3 b M @ + + $ =     E.G.G.G.F. X6X9X.XM.N.A.. 4 T b <.  E.+X  & & & % E.|.W.W.W.W.G.@X7X'.K.K._._.A.G.W.}.E.",
"A.W.G.G.G.W.}.G.D.. @ b b @ + : q * . L.L.G.}.L.G.G. X+X XM.z.D.. c M M . !.}.+X  8 7 & . E.!.A. X.X.XJ.$XwX*XY.U.Y.Y.I.I.L.I.P.",
"_. XG. X XG.G.G.  } b +.@ @ : p p .   L.E.}.G.G.G.F.x.x.G.G.A.. 8 M ! > . }.}.}.  + 9 7 + . W.E.G.>X3X@X$XwXyX=XY.XX5XT.I.I.I.P.",
" XW.W.-X>X_.G.W.. { C  .4 + . X.{ d s   G.G.}.G.W.G.Z.C.F.}.E.. b R ^ 9 . }.E.F.E.  8 & 8 . _._. X4XwX4X=XaXdXqX=XqXqXXXP.&X}.I.",
" XG.W.oX+XOXoXX ] 9 { +.Z m . m { *.]   L.E.G.L.E.E.}.E.G.!.G.. M w.gX[.. F.E.E.!.  y 3 m P   _. X.X=XsX4X=XqXeXyX5X@XU.#X0X+XL.",
"!.G.G.b.D.3X@X  8 r.kX@ jXm . & r.& /.X }.L.}.E.E.F.}.}.E.F.E.+ '.+.gX1.  E.F.}.}.  y L * P X _.D.M.).,X%XD.%XdX7X'.M.B.`.OXoXQ.",
"!.G.W.x.!.sX3X_.. . + + . . . . . + . X F.F.}.E.}.E.F.E.E.E.G.K ; . + . . }.F.{.E.E.; f k.W.W.).).m.N.`.M.d.K.'.K.D.m.R.`.!.Q.Q.",
"G. XQ.R.oX6X>X_.>X>XOX_.G.F. XG.E.{.E.E.E.Q.W.W.W.W.W.`.}.W.E.G.}.!.G.E.}.}.E.E.E.F.E.E.E.F.E.W._.W.S.l.f.f.l.l.l.M.D.)._._.!._.",
"W.W.oX!.R.D.D.D.M.A.A.W.G.G.P.G.|.E.{.E.E.W.W.G.)._.!.W.!.!. XE.G.G.E.E.E.E.F.F.F.E.}.}.E.G.W.}. XW.!.S.N.S.S.N.D.D.)._.G._.!.).",
"G.!.W.W.S.b.N.J.x.b.D.W.W._.W.W.E.{.}.G.E.G.W.G.W.W. X|.G.G._.W.E. X XW.}.}.E.}.E.E.E.}.}.W.E.}.E.G.E.W. XQ.).W._._.G.G.E.!.}. X",
"E.G.G.G.D.A.D.`.D.D._._.G.W.W.E.{.E.L.L.E.L.W.G.W.W.W.!.W.G.F.J.W.}.E.G.E.}.E.F.G.E.E.}.}.}.G.E.G.G.G.W.W.!.W._._.W.D.G.W.W.Q.Q.",
"G.G.G.G.G.G.J.W._.W._.W.R.!.!.W.}.L.F.L.P.P.}.F.G.W.!. X-X@XJ.D.W._.G.P.+X+X}.F.L.F.L.E.F.L.}.{.G.G.L.}.W.G.G.W.}.G.F.}.}.E.E.E.",
"F.G.W.P.A.G.A. X_.W.W._.Q.Q.!.Q.L.}.L.G.L.P.}.G.G.W.W.OX3X>X XG.G.G.W. X1X&X}.G.}.G.L.G.}.L.L.G.L.G.G.E.W.E.W.W.G.G.F.G.}.E.E.}.",
"I.P.I.I.G.H.A. XJ.W.!.;X2XQ.Q.Q.W.G.E.L.L.}.}.L.E.E.W.S.Z._.$XOXF._.G.W..XoX}.G.E.}.F.G.{.{.{.L.G.A.A.G.W.W.G.G.G.F.F.F.L.{.}.E.",
"#X#XU.H.A.U.P.F.D.W.R.2XiX;XQ.Q.W.P.}.F.H.L.{.}.G.G.}.D.x. XwXOXU.+X XH.F. XG. XG.G.F.F.L.L.{.L.F.G.L.P.G.G.G._.G.P.}.G.L.}.}.F.",
"5X*XK.A.A.A.U.J.J.A.G.3XiX;X!.}.G.F.}. XF.S.E.S.E.W.!.R. X>X4XOX X8X+XA.}.G.G. XW.G.}.}.F.L.{.{.G.J._.J._._.W.G. XG.W.G.G.}.G.G.",
"yX5XXXA.U.XXXXJ.A.W.J.W.G.!.!.Q.!.}. X}.L.F.E.E.Q.!.E.Q.Q.).G.D.+XuX3XG.G.G.G.F.W.G.G.}.L.F.{.F.G.@X@X_.A._.OX$X_.A.W.G.L.}.F.E.",
"wXsXsX>X$X9X$XA.J.J.J.Z.l.S.}.W.W._.E.E. X}.E.oXQ.E.E.Q.W.S.b.Z.+X8X&XL.F.G.J.J.G.J.!.G.{.}.{.F.).6X6XoX!.OX>X>XJ.D.G.J.W.}.G.G.",
"sXsXwX7X9XwX$XU.J.G.G.S.Z.!.}.|._.G.}.@X3X+XW.W.E.Q.Q.!.E.R.Z.G.#X X}.G.A.G._.oXG.J.G.G.E.}.{.{.J.4X>XoX;X<X`.Z.G.J._.J.J.G.G.F.",
":XpXaXdXaX'.OX).J.J.F.G.}.}.G.}.G.G.OX@X X XG.W.Q.Q.W.E.}.Q.F.}.L.F.L.G.G.J.J._.G.J.W.W.E.E.E.{.`.6X6X`.<XiXR.b.D.W._.G.G.A.W.G.",
"h.'.pXdX:XV.V.J.J._.G.F.}.G.F.E.G.}.3X Xx.M.D._.Q.Q.!.Q.}.}.F.E.L.G.P.G.G._.G._. XG.W._.E.F.F.F. X6X<X`.;XiX_.).D.J.J.U.G.F.G._.",
"h.j.].].).m.K.)._.).G.G.E.W.E.}.F.U.5X*XH.H.D.R._.W.!.W.}.F.H.}.G.L.L.G.G._._..X$X).G.W.E.F.F.L.!.Q.Q.R.!.!.`.`.G.J._.@X@XG.G.G.",
"h.h.j.h.j.).).`.D.G. X X XW.}.E.L.}.3X3XXX.XJ.W.W.!.W.W.S.F.{.L.{.H.L.G.G.G.D.>X7XoXG.E.E.{.|.{.R.b.v.!.N.z.R.R.W.K.oX9X5X}.F.G."
};
