/* XPM */
static char *result[] = {
/* columns rows colors chars-per-pixel */
"64 64 229 2 ",
"   c #050101",
".  c #0B0100",
"X  c #080A06",
"o  c #130201",
"O  c #1B0301",
"+  c #130A04",
"@  c #1A0B03",
"#  c #140C0B",
"$  c #1A0C0A",
"%  c #14140E",
"&  c #1A110A",
"*  c #1D1713",
"=  c #1A1D10",
"-  c #240401",
";  c #2C0600",
":  c #240A04",
">  c #2C0C03",
",  c #230F0A",
"<  c #2B0C09",
"1  c #24120C",
"2  c #2C120D",
"3  c #2B190F",
"4  c #34140C",
"5  c #39120C",
"6  c #231412",
"7  c #2A1411",
"8  c #221B13",
"9  c #2B1A14",
"0  c #241918",
"q  c #2B181A",
"w  c #381B17",
"e  c #300A09",
"r  c #34221B",
"t  c #3C241E",
"y  c #26371C",
"u  c #2C241A",
"i  c #3D1D20",
"p  c #3C2522",
"a  c #3B2A24",
"s  c #3D2D2A",
"d  c #342621",
"f  c #3C3727",
"g  c #2F3022",
"h  c #431C16",
"j  c #43241C",
"k  c #49211B",
"l  c #422017",
"z  c #422925",
"x  c #4B2D25",
"c  c #482926",
"v  c #4A322C",
"b  c #5C362D",
"n  c #59372E",
"m  c #543C34",
"M  c #5C3D34",
"N  c #5D3D3A",
"B  c #5C3734",
"V  c #4C3A35",
"C  c #6B392E",
"Z  c #62392E",
"A  c #633D34",
"S  c #6B3C32",
"D  c #623E3A",
"F  c #6B3D39",
"G  c #653733",
"H  c #773E36",
"J  c #3A4D30",
"K  c #55423C",
"L  c #5C433C",
"P  c #5C443A",
"I  c #455033",
"U  c #654135",
"Y  c #63433C",
"T  c #6B443C",
"R  c #63483E",
"E  c #6A463B",
"W  c #73453B",
"Q  c #7B463C",
"!  c #754A3E",
"~  c #7B493D",
"^  c #764236",
"/  c #4E693E",
"(  c #5D4542",
")  c #5C4B44",
"_  c #584845",
"`  c #5F5349",
"'  c #654441",
"]  c #6B4442",
"[  c #6E4A43",
"{  c #654D4A",
"}  c #6C4D4B",
"|  c #654E46",
" . c #744541",
".. c #7B4642",
"X. c #744B43",
"o. c #7C4C43",
"O. c #7A4E49",
"+. c #734F4A",
"@. c #66514B",
"#. c #6C524B",
"$. c #655E4D",
"%. c #745147",
"&. c #7C5044",
"*. c #72524B",
"=. c #7B514A",
"-. c #6B5352",
";. c #785454",
":. c #59744C",
">. c #4E6A41",
",. c #626850",
"<. c #81453C",
"1. c #804B3E",
"2. c #824643",
"3. c #814C43",
"4. c #864B48",
"5. c #825246",
"6. c #A05E5F",
"7. c #9E675D",
"8. c #8F695E",
"9. c #9B6D65",
"0. c #9C6D6A",
"q. c #956A65",
"w. c #8D766E",
"e. c #9B726B",
"r. c #93766E",
"t. c #897775",
"y. c #947473",
"u. c #9C7473",
"i. c #866F67",
"p. c #A16C67",
"a. c #A7736A",
"s. c #A97171",
"d. c #2B9D2E",
"f. c #239D27",
"g. c #2F9F31",
"h. c #2B9432",
"j. c #349D3A",
"k. c #26A52A",
"l. c #2BA42D",
"z. c #2AAA2E",
"x. c #20A123",
"c. c #2CA331",
"v. c #2DAC32",
"b. c #26A230",
"n. c #31A535",
"m. c #33AB34",
"M. c #34AB3A",
"N. c #3AAD3B",
"B. c #3CAA37",
"V. c #2FB134",
"C. c #33B235",
"Z. c #3BBB36",
"A. c #35B53A",
"S. c #3BB53C",
"D. c #36BC3D",
"F. c #3BBC3E",
"G. c #36BA36",
"H. c #41BD3C",
"J. c #42B939",
"K. c #37C13E",
"L. c #3BC13D",
"P. c #39C136",
"I. c #43C13E",
"U. c #49C33D",
"Y. c #44C83E",
"T. c #3AB542",
"R. c #36BD41",
"E. c #3CBD42",
"W. c #3EBD49",
"Q. c #3BB745",
"!. c #3FAE45",
"~. c #66975E",
"^. c #42B645",
"/. c #41BD43",
"(. c #42BD4A",
"). c #49B949",
"_. c #55AE54",
"`. c #6AA060",
"'. c #36C141",
"]. c #3CC143",
"[. c #3DC149",
"{. c #42C244",
"}. c #49C546",
"|. c #4BCA45",
" X c #44C34A",
".X c #4BC54B",
"XX c #46CA4B",
"oX c #4BCB4D",
"OX c #42C841",
"+X c #52CE4B",
"@X c #53C949",
"#X c #4ED04D",
"$X c #54D24C",
"%X c #5AD24E",
"&X c #4CCC52",
"*X c #49C953",
"=X c #55C653",
"-X c #52CD53",
";X c #5BCE5B",
":X c #54CC57",
">X c #4DD154",
",X c #4FD359",
"<X c #53D355",
"1X c #5BD453",
"2X c #5BD955",
"3X c #55D45A",
"4X c #5AD55A",
"5X c #55DA5B",
"6X c #5BDA5C",
"7X c #57D955",
"8X c #62D956",
"9X c #64DC5B",
"0X c #69DE5D",
"qX c #61D558",
"wX c #60CE5B",
"eX c #67E25D",
"rX c #5DDC62",
"tX c #5CD763",
"yX c #5ECB60",
"uX c #64D562",
"iX c #65DD63",
"pX c #69DD62",
"aX c #6CDC6B",
"sX c #67E367",
"dX c #938A78",
"fX c #B0988E",
"gX c #B2AB9E",
"hX c #CCAEAC",
"jX c #DECDC6",
/* pixels */
"D.E./.D.F.{.F.D.D.F.{.].{.F.F.F.].R.].].R.].R.F.F.{.T.XX6X3X(.S.A.(.E.(.tX,XR.R.'.R.K.K.F.].].A.F.H.F.H.H.F.H.T.).(.E.T.E.W.W.Q.",
"F.F.H.F.F.{.].F.E.H.E.{.XX{.F.D.R.R.].].R.D.R.R.R.E.E.E.(..X&X.XE.W.E.E.&XXXR.R.].F.].D.D.D.K.{.|.I.F.F.H.F.S.E././.(.E.E.E.E.E.",
"{.H.F.E.{.F.F.F.E.F.F.XX<XXXD.F.F.D.].].D.R.R.R.].].E.A.c.(.3X.X{.I.F.F.L.I.].L.I.Z.Z.I.Y.I.Z.$X8XU.J.I.I.U.H.Z.Z.H.I.I.L.F.R.R.",
"3XXXF.F.F.F.F./.F.D.F.<X6XoXD.E.R.D.R.R.D.E.].F.R.T.E.T.S.&XtX&X{.oX|.F.D.F.L.F.K.G.Z.I.+X|.H.|.eX%XU.I.|.$XI.J.D.F.F.I.L.D.F.{.",
"sX<X/.D.F.D.F.F.E.E.].{.oX{.F.].].D.R.F.R.].].F.F.F.S.E.{..XoX X|.6X$XF.J.H.Z.F.F.Z.J.U.%X8X@X@XeXeXqX}.%X8X|.F.L.F.D.F.F.D.F.L.",
"rX>X{.F.F.H.E.F.F.{.L.V.V.D.F.E.].R.R.R.R.].R.].E.E.F.E.T.C.v.m.|.6X+XH.F.Z.F.J.J.J.F.H.+X8X9X9X8XeXqX%X8X1X}.H.I.L.K.R.F.F.F.L.",
"].OX].F.{.oXXXF.F.{.F.C.z.D.].D.'.].].[.XX{.R.R.T.].R.E.R.C.v.D. X:XXXR.E.T.{./.E./.H.).^..XpXaX0X).=XwX-X/.T.R.E.XX*X'.R.E.(.Q.",
"x.V.D.F.XX4XoXF.F.D.F.{.F.E.H.D.D.].'.[.5X&XF.T.F.].F.R.{.E.T.].E.W.T.].T.F. X/./.^./.^.l.c.:XuXwXJ.J.;X).z.C.R.E.,XtX[.Q.E. XQ.",
"G.C.S.H.].{.}. XF.F.D.H.E.F.F.F.E.{.&X XA.D.E.{.E.R.E.E.E.E.R.F.R.R.R.W.[.'.W.W.Q.Q.R.Q.T.N.M.M.N.g.d.n.M.T.E.E.[.[.[.[.W.R.W.W.",
"/././.F.D.F.{.{.F.D.F.F./.F.F.F.R.XX6XXXz.C.].E.F.F.E.E.E.F.E.E.W.W.R.R.'.'.R. X[.W.Q.W.(.S.m.d.g.g.d.n.M.W.(.E.R.R.W.E.R.W.W.W.",
"S.F./.{.H.D.D.A.H.F.F.E.E.I.F.].F.XXrX<XA.E.(.F.F.F.E.F.F.F.F.E.K.].D.D.'.K.K.#X5XXXR.A.E./.R.T.S.S.S.S.A.F.L.F.D.D.K.F.R.E.R.T.",
"H.F.F.{.H.S.XXoX{./.F.F.F.E.F.{.T.D.(.E.R.R.E.F.F./.L.E.F.F.F.F.D.'.D.D.'.K.K.[.XX].R.R.E.E.].].).^./././.J.E.F.T.F.{.oXoXE.D.R.",
"{./.F.F.F./.+X<X{.{.H.F.F.E.{.F.E.C.z.v.F./.S.H.F./.F.F.F.F.E.].K.K.L.K.G.K.K.K.K.K.K.'.K.D.D.D.F.S././.F.H.I.Z.P.K.|.$XoXI.D.L.",
"H.S.F.S.{.<X Xm.F.F.E.F.F.F.F.F.F.E.A.A./.(.F.H.H.F.E.F.D.F.E.F.K.P.P.L.G.K.K.K.].'.D.K.'.K.D.]./.E.H.{.{.H.F.L.F.#X#XD.C.L.I.D.",
"/.{..X/.XX9X}.k.D.D.F.].F.F.E.H.E././.F.S.E./.F.F.F.XX}.F.F.F.F.D.D.D.D.K.K.'.K.K.'.'.'.'.R.'.R.'.T.T.].F.E. X|.I.1X1XC.k.F.].D.",
"H.oX6X}. X4X.XH.F.F.E.{.F.F.].{./.S.E./.F./.}.S.F.{.<X3X{.F.H.G.D.L.K.K.L.K.D.D.'.'.'.D.D.D.R.[.R.W.E.D.D.{.1X<X}.oX2X}.Z.D.D.{.",
"F.S.F.T.D.D.F.E.].OXoX>XoX].F.{.E.T.S.E.E.H.{.oX}.J.%X9X%XU.J.@X|.Z.Z.J.|.#XL.G.F.K.].].K.F.F.R.T.F.T.E.T.T.E.E.E.Q.F./.E.A.F.{.",
"E.m.z.C.A.v.m.E.F.XX5XsX5X XF.L.].E.S.F./.F. X4X1X/.1XeX1X%X@X%X%XI.Z.U.7X7XF.D.D.F.].OX].].R.R.  X E.E.      v.S.m.z.A.E.A.].}.",
"{.D.C.D.F.D.A.R.F.XXrXsX5XXXK.D.E.{.D.D.F.. o   .     iXpX9XqXiX2X{.A./.6X6XR.F.D.F.R.R.F.F.W.. -.t.. .   X X F.E.A.C.F.{.R.oX5X",
"T.{. XT.E.(.].F.K.[.#X<X>X[.D.D.E.{.. . . . O 7 6 , o   9XpXaX@X/.H.H.F.{.    o . . .   F.T.. y.hXp # . #       E.(. XI.F.F.oX7X",
"A.E.(.E.A.F.E.E.K.F.F.].{.R.R.R.  . O 2 j N N D N ( ( O .       .   . . . @ r.O Y t.{ o . E.o q.q 6 6     &     D.F.].F.D.F.].].",
"F.F.E.].E.E.E.E.F.D.D.D.F.D.D.  + K *.*.q.u.u.[ U Y m N t O o 1 r #.- O t t P j h ' *.-.: O Y O.e q r . # X   X H.F.F.F.L.{.L.D.",
"F.E.].E.].  . .     D.D.D.F.  * K [ o.W o.~ O.F E E M m R P Y Y O.O.W O.[ j j 8.W =.=.E l Y M [ 5 < p o o a #     T.K.E.E.K.D.F.",
"/.E.T.  . + a r + d . . R.  o p } O.Q 3.~ ~ o.A Z Z U U A A F W O.2.2.o.! X.U o.G ~ W O.%.j M j h i z N p r 6 6 .   D.D.D.].F.K.",
"E./.  . _ @.L | } | 9 O o o 4 D O.o.Q <.1.^ ~ o.^ U C U Z S S S 2.2.4.<.~ ! Z ~ C ~ ~ ! X.U A %.j h N { { { 6 6 . . R.R.R.T.].D.",
"/.F.  0 & t -.#.P P m t N - h ] W ~ 1.Q Q 1.1.~ &.^ ~ W ~ o...3.<.<.H ~ 5.~ ~ ~ 1.~ 3.~ ! U N X.D T U 4 o o K ` 9 + . W.R.R.R.].",
"E./.E.y y + . . { { ;.} ' - B A %.^ ~ 1.Q 1.Q Q o.o.5.~ ~ ~ Q 3...p.p.9.8.W &.^ C Q &.! ! > &.5.S b M M #.o jXa d g   .   T.F.].",
"/.E.F.T.T.F.R.'.. . -.N N O D [ ! &.~ 1.3.~ Q ~ C ~ ^ &.o.1.~ ~ Q ..9.r.&.&.~ ~ ^ C Z A %.4 0.W ..F Y U y.i.o o , s f =       R.",
"/.F.F./.E.E.D.D.D.D.. . 7 2 t m | &.H <.Q 3.....^ o.~ ! W ~ ^ 3.S k [ %.! h ~ ~ ~ S E n N ; c s.0. .] b u.r.} L p w p -.@ . $ E.",
"/.F.S.F.E.E.].].D.D.D.F.  1 1 P M ~ s.s.Q ..o.X.b A U Z U ~ 1.p.Q X.; 4 4 j &.! ! o.A E Y M ; x 0.0.O.O.[ [ *.N ( -.y.gX,.@ o F.",
"/./././.F.T.].[.K.D.D.K.{.. o t A 2.6.s.p.p.O.N Y O : j A ! 3.7.<...W b > 4 R ! =.X.k n P P t @ > =.W [ U j z < f f / >.:.:.p D.",
"S..X3X&XE.D.F.R.D.].D.D.F.  . r N ..4.9.0.0.[ j O @ o P | X...o.4...F Y U > 4 ! ~ ..h D Y m ( w : w x w < 2 . }.. O o F.o <X. F.",
" X*X&X XE.E.R.D.R.R.E.].D.z.  . t =.W 0.e.X.w < r a , o P +.[  .O.b M D k -  ...1.<.1.Z Y P m P M m z 1 1 + + . ].  ].X X   $XU.",
"iX Xv.v.Q. XE.[.Q.E.W.E.R.D.T.  o l O.a.O.E z i a O . O o 2 c D N Y m ( : ; X.^ a.<.<.F z r ) 2 P K _ r O . .   X % % J X   eX8X",
"sX*Xm.V.R. X].R.R.].].D.T.].{.  o h G F [ ;.i K o o +   . . . r L m K p : < ;.a.7.a.W D p _ @ @.r K O   F.{.F.D.          0XeX8X",
",X&X{.F.R.].].D.D.R.].R.E.R.  o 7 5 F G  .' B $ . 0 X D.T.F.  .   . f + O 7 ] ..e.8.Y 1 o 6 . o . . F.F.F.I.F.F.L.}.5X6XsX0XqX8X",
"v.A.E.].E.E.R.R.].R.].].E.F.. $ p B D u.D i o 6 0 X   D.F./.^.F.R.E.    . O } O.e.#.r &     X     {.].F.D.F././.E.m.N.:XaX9X).J.",
"k.v.R.[.{.R.F.D.R.].R.R.E.. 7 a w ] u.u.7 o q $     A.F.F.}.+X/.F.E.E.Q.  o } ;.B o + X   .     F.F.].F.F.F././.E.m.m.W.=X@XJ.g.",
"F.E.E.F.D.D.F.].D.].L.F.. s dX4 } { w.O o . 0 #     (./.F..X4X.XE.E.E.    s -.- O .     X   ].R.].R.R.W.E.Q.^.^.^.^.!.n.d.d.!.!.",
"].].F.F.F.F.F.D.F.F.R.].  _.hXM *.6 . . + # X     H.XXXXE.1XiX}.E.E.W.  o z } ,..   X X     >XoXR.Q.W.W.(.E.T./.^.).Q.T.n.n.T.!.",
"F.F.].F.D.E.F.R.F.F.{.F.. O fXY - .   # +       F.I.1X3X{.}.1X/.E.E.E.. 9 { ` o  X.         >X5XE.E.E.(././.S.J./.^.H.H.E.D.R.].",
"D.D.F.F.F.F.F.F.F.E.].D.. , x x o . & & 6 .   F.D. X4X6XXXm.m.S./.F.. , ' v $.  >X  % % *   [.].E.E.R./.-X4X.XJ.H.H.{.F.S.].].R.",
"F.F.F.F.F.F.E.F.F.E.].E.. @ n j O . @ & 1 . F.R.D.F.{. X/.m.k.F.].F.. v x t . . >X. 8 8 X   D.D./.}.{./.@X9X$XU.H.U.Y.P.P.K.P.L.",
"E.{.H.{.{.F.F.F.F.OX].  ` z P O o O v s . . K.F.L.D.z.z.E./.A.{.].  7 x ' 2 o ].[.. * 8 $     F.F.-X<X|.@X9X0X1XU.@X%XY.P.P.P.L.",
"{.T.E.-X-X(.D.H.-X<XR.. ` ) P ; o o { _ V s . E.R.D.A.V.D.].E.E.R.o v | P 3 . D.D.D.  8 u , X {.{.1X9X1X%X9XeX8X%X8X8X|.L.#X].P.",
"{.E.E./.oX.X{.{.tX4XE.>.@ ` ) | c . s _ _ _ . R.R.].R.E.F.T.F.R.R.. z w.dX`.  R.R.].  u : J J   {.}.%XiX8X=XqX0XeX1X+XL.OX7X#XP.",
"T.F.E.v.F.<X&X/.3X6X{.y ~.gX@ fXv o 0 t.# t.  R.F.D.R.].R.D.F.].].o _.@.dX>.  ].].E.  8 I : I   S.n.^.4X@XS.=XpX4X).m.N.(. X[.W.",
"R.F.E.z.F.tX<X(.<X6XXX  . . . O o .   . . . . R.].R.R.R.].R.R.R.'.+ O . o .   ].R.E.F.o o o   X ^.m.M.^.m.d.J.).H.S.n.!.(.W.W.W.",
"E.(.E.F..X3X:X/.-X-X}.(.F.Z.].F.'.R.'.R.R.W.E.F.E.E.E.(.E.E.E.E.].F.D.R.].].F.R.R.D.R.R.F.F.F.].(.E.A.k.f.f.f.k.k.m.S./.^.F./.Q.",
"E.(././.S.S.A.S.S.A.F.F.F.F.L.F.W.'.'.W.R.R.E.E.(./.E.E.R.E.{.R.R.T.R.E.].R.D.D.R.R.].].R.R.R.E.{.E.T.A.A.N.A.M.S.T././.E.^.^./.",
"E.R.E.E.S.z.m./.l.z.S./.E.E.E.E.R.R.].K.D.F.E.F.E.E.(.W.F.T.E.H.E.{.].E.R.].R.].F.R.R.].].R.R.].F.F.F.R.(.E./.F.(.E.F.S.R.E.W.W.",
"F.F.T.T.F.A.F./.G.S././.E.E.E.E.'.'.F.K.R.K.F.F.E.E.E.T.E.F.F./.E.].R.D.].].R.D.D.R.R.].].].R.R.F.F.R.].E.E.E././.F.F.H.E.E.W.E.",
"K.F.F.F.F.F.F././.F.(.Q.T.W.Q.E.].F.K.D.L.].].F.F.E.E. X-XXXJ.D.E.H.F.].XXXXK.F.].F.K.R.D.].K.K.F.F.R.].F.F.E.(.].F.F.R.].].R.R.",
"D.F.E.L.F.F.F.H./.F.F.(.W.E.Q.W.K.].D.K.L.L.K.K.F.E.E. X-X-X/.H.F.E.R.{.<XoX].F.K.F.K.D.K.].].D.].K.F.L.E.R.E.E.F.F.F.K.E.R.R.R.",
"P.K.P.P.Z.Z.D.{.H.E.E.*X,XW.W.W.L.E.K.D.K.K.].D.R.R.E.A.C./.+X.XD.E.F.E.XX X].F.].F.F.D.K.'.K.'.D.D.Z.F.E.E.F.F.D.F.F.F.D.K.].'.",
"OXOXI.Z.Z.I.L.Z.H.T.T.,XtX*XW.W.F.E.].F.K.D.'.R.F.F.].S.z.}.6X.XI.XX{.Z.F.].F.{.F.R.F.D.K.'.'.K.Z.D.L.F.E.F.F.F.F.K.K.F.'.].].R.",
"2X$XJ.Z.Z.Z.I.H.H.A.H.-XtX*XQ.[.R.F.E.{.D.A.].D.R.E.Q.T.W.:X3X.X X2XXXF.{.F.F.{.E.F.E.].D.D.'.'.H./.H.E././.F.F.{.H./.F.F.].F.D.",
"eX2X|.J.I.|.|.H.F.H.H.F.F.T.W.E.F.E.{.].D.D.R.R.[.Q.R.W.E./.J.H.oX6X<XL.D.F.F.D.E.F.F.].K.K.K.D.F.oXoXE.S.E.+X-XH.F.F.F.K.].F.R.",
"9XiXiX-X+X2X+XH.H.H.I.C.k.A.E.E.E.{.R.F.{.].E.[.W.R.R.W.E.A.z.m.XX7X#XK.D.H.H.H.F.H.F.F.'.].'.D./.:X4X.XE..X-X-XH.S.H.E.F.{.F.D.",
"iXiX9X4X6X9X+XH.H.F.D.D.C.T.[.E./.E.E.XX<XXXE.E.Q.W.W.Q.E.T.A.F.].[.].K.F.F././.F./.F.F.R.].'.'.F.1X-X/.*X:X/.m.F.F./.H.F.F.F.D.",
"=XyXuXaXwX=X)./.H.H.D.F.].].R.].F.F.XXoXXX].H.T.R.[.W.Q.E.[.F.K.K.D.K.F.F.H.F./.F.H.E.E.R.D.R.'.(.4X:X(.:XtXT.v.A./.H.F.F.F.F.F.",
"h.(.yXaX=XB.C.H.H./.F.D.].F.D.].F.].<X}.z.m.S.E.W.W.Q.E.{.R.D.R.K.F.K.F.F././.H./.F.E./.R.D.D.R. X3X3X(.*X3X(.(.S.H.E./.F.F.F.{.",
"h.j.^._.^.n.^.^././.H.E.F.E.R.].D.I.2X<XG.G.S.H.E.E.E.E.F.F.D.K.K.F.K.F.F./.H..X-X/.E.E.R.D.R.R.Q.(.E.T.Q.Q.(.{.H.H.I.+XoXF.D.F.",
"h.h.h.h.j.^.^./.S.S.]. X].R.].R.F.L.<X<X}.}.F./.E.T.W.E.D.D.K.K.K.D.K.F.F.S.F.-X6X/.F.E.R.'.].'.T.v.b.Q.N.b.T.T./.S. X6X2X{.A.D."
};
