/* XPM */
static char *result[] = {
/* columns rows colors chars-per-pixel */
"64 64 225 2 ",
"   c #050101",
".  c #0B0100",
"X  c #0B0906",
"o  c #0B0909",
"O  c #130200",
"+  c #1A0300",
"@  c #140905",
"#  c #1C0B05",
"$  c #140B0B",
"%  c #1C0E0B",
"&  c #1A1309",
"*  c #1B1512",
"=  c #0B1109",
"-  c #230B05",
";  c #2A0D09",
":  c #260904",
">  c #330C04",
",  c #330F0B",
"<  c #23130C",
"1  c #2B110D",
"2  c #221004",
"3  c #31130D",
"4  c #38120B",
"5  c #241412",
"6  c #2A1814",
"7  c #391C17",
"8  c #1A3915",
"9  c #2F211E",
"0  c #34231D",
"q  c #3C221D",
"w  c #3F2217",
"e  c #3C2323",
"r  c #352923",
"t  c #3C2A25",
"y  c #362725",
"u  c #3A342A",
"i  c #3F3131",
"p  c #431E1A",
"a  c #451D16",
"s  c #511D12",
"d  c #43241C",
"f  c #4C2118",
"g  c #432522",
"h  c #442B25",
"j  c #462A23",
"k  c #43322C",
"l  c #48302E",
"z  c #5D392E",
"x  c #483833",
"c  c #5B3C34",
"v  c #553E3B",
"b  c #5C3D39",
"n  c #543B35",
"m  c #643A2D",
"M  c #6A3A2C",
"N  c #6C362C",
"B  c #633C34",
"V  c #6C3D33",
"C  c #613F3A",
"Z  c #6A3936",
"A  c #713E33",
"S  c #34462D",
"D  c #55423C",
"F  c #5C423C",
"G  c #594336",
"H  c #4F443A",
"J  c #654236",
"K  c #6B4136",
"L  c #64423B",
"P  c #6B433B",
"I  c #68483D",
"U  c #744235",
"Y  c #75453B",
"T  c #7B463C",
"R  c #74493D",
"E  c #7B4A3D",
"W  c #554641",
"Q  c #5A4541",
"!  c #5C4C46",
"~  c #5C4E4B",
"^  c #5E5351",
"/  c #6D4542",
"(  c #634D43",
")  c #6B4C44",
"_  c #624E4A",
"`  c #6B4F4B",
"'  c #624441",
"]  c #734641",
"[  c #794740",
"{  c #734B43",
"}  c #7C4C43",
"|  c #714E4A",
" . c #794F4B",
".. c #6D5247",
"X. c #65524C",
"o. c #6F514B",
"O. c #7A5144",
"+. c #73524B",
"@. c #7C514B",
"#. c #765045",
"$. c #6A5654",
"%. c #795B55",
"&. c #55764B",
"*. c #5A664E",
"=. c #814A3D",
"-. c #80473D",
";. c #824E42",
":. c #835247",
">. c #9E685C",
",. c #A56A5F",
"<. c #8B6E69",
"1. c #9E6C64",
"2. c #966E68",
"3. c #95756D",
"4. c #8C7472",
"5. c #8C7873",
"6. c #867375",
"7. c #997370",
"8. c #977973",
"9. c #8C706C",
"0. c #A36C63",
"q. c #A47268",
"w. c #A17876",
"e. c #B07168",
"r. c #229B26",
"t. c #2A9E2E",
"y. c #299F27",
"u. c #2B9432",
"i. c #2F9F31",
"p. c #349D3A",
"a. c #26A52A",
"s. c #2AA32D",
"d. c #2AAA2E",
"f. c #20A123",
"g. c #2CA331",
"h. c #2EAC32",
"j. c #26A230",
"k. c #31A535",
"l. c #33AC34",
"z. c #34AB3A",
"x. c #3BAD3C",
"c. c #3CAA37",
"v. c #33B235",
"b. c #3BBB36",
"n. c #35B53A",
"m. c #3BB53C",
"M. c #36BC3D",
"N. c #3BBC3E",
"B. c #36BA36",
"V. c #2FB133",
"C. c #41BD3C",
"Z. c #42B939",
"A. c #37C13E",
"S. c #3BC13D",
"D. c #39C136",
"F. c #43C23E",
"G. c #49C33D",
"H. c #44C83E",
"J. c #37B740",
"K. c #3BB542",
"L. c #36BD41",
"P. c #3CBD42",
"I. c #3EBD49",
"U. c #3FB749",
"Y. c #3FAE45",
"T. c #42B645",
"R. c #41BD43",
"E. c #42BD4A",
"W. c #49B949",
"Q. c #4BA94D",
"!. c #36C141",
"~. c #3CC143",
"^. c #3EC14A",
"/. c #42C244",
"(. c #49C546",
"). c #4BCA44",
"_. c #44C34A",
"`. c #4BC54B",
"'. c #46C94B",
"]. c #4BCB4C",
"[. c #42C841",
"{. c #52CD4C",
"}. c #53C949",
"|. c #4ED04D",
" X c #54D24C",
".X c #5AD24E",
"XX c #4CCC52",
"oX c #49C953",
"OX c #55C653",
"+X c #52CD53",
"@X c #5BCE5B",
"#X c #54CC57",
"$X c #4ED152",
"%X c #4FD359",
"&X c #53D355",
"*X c #5BD453",
"=X c #5CD955",
"-X c #56D45A",
";X c #5BD55B",
":X c #55DA5B",
">X c #5CDA5C",
",X c #57D955",
"<X c #62DA56",
"1X c #64DC5B",
"2X c #69DE5D",
"3X c #61D558",
"4X c #60CE5B",
"5X c #67E25D",
"6X c #5DDC62",
"7X c #5CD763",
"8X c #5ECB60",
"9X c #63D562",
"0X c #64DD63",
"qX c #69DD62",
"wX c #6CDC6B",
"eX c #6AE164",
"rX c #66E468",
"tX c #9A8479",
"yX c #A48E81",
"uX c #A79184",
"iX c #B9A29B",
"pX c #B2B19D",
"aX c #BBA6A1",
"sX c #CCB0AF",
"dX c #E3CCC6",
/* pixels */
"M.P.R.M.N./.~.M.M.C.~./.~.N.N.N.~.P.L.~.~.L.M.L.N.~.J._.7X-XR.m.J.E.I.E.7X%XM.L.M.~.A.L.M.~.~.n.N.F.N.N.C.m.C.K._.R.P.K.I.I.I.L.",
"N.N.C.N.P.C.N.N.N.P.~./.'./.N.N.M.L.~.~.M.L.L.P.P.P.P.P.R.oX+X_.P.I.P.P.oXoXL.L.^.L.A.S.M.M.S./.(.F.b.N.C.N.R.m.R.R.R.P.P.P.I.P.",
"/.C.N.P./.N.N.P.P.N.N.'.-X'.M.N.M.L.~.~.M.M.P.L.P././.n.g.R.-X`.P.F.N.b.N.F.S.S.F.b.b.S.H.F.b. X<XG.Z.F.F.G.C.b.b.C.R.F.A.N.J.P.",
"-X'.N.N.P.N.N.C.N.N.N.&X>X'.N.P.P.M.L.L.L.P.~.L.P.J.P.J.m.XX7XXX(.].).N.M.N.S.S.b.B.b.F.{.).C.).5X=XG.F.). XF.N.N.N.N.F.S.N.N.~.",
"rX&XP.N.N.N.M.N.N./.~./.].^.N.~.!.M.L.N.L.~.~.P.J.P.N.P./.`.]./.`.>X XN.b.N.C.b.b.Z.b.(..X*X}.}.<X5X3X(..X<X).F.N.N.M.N.N.N.N.S.",
"6X$X/.N.N./.R.M.N./.S.V.V.B.N.P.~.~.P.L.P.P.L.~.N.^.N.P.P.l.l.v.).>X XK.C.b.N.C.N.C.Z.F. X1X1X<X<X5X3X.X<X*XG.N.S.S.S.L.N.N.S.N.",
"~.[.P.N./.].'.N.P.P.N.v.d.M.~.M.~.~.!.^.'.^.N.J.M.^.N.P.P.v.h.M./.%X`.P.P.J.R.R.R.R.R.W.Z.`.wXwX2XW.OX4X#XR.K.J.^.'.oX!.J.P.P.P.",
"f.v.B.N.'.&XXXN.N.M.N./.N.P.C.M.M.!.S.^.:XXXN.N.N.P.M.J.^.P.M.K.P.P.P.P.P.J.`.R.K.T.R.Z.i.k.#X9X4XZ.Z.4X/.s.n.P.P.%X7X_.J.I.I.I.",
"n.v.m.C.~././._.N.N.N.N.R.N.N.N.P.^.$X_.n.M.^.~.P.P.P.P.P.P.P.M.I.L.L.I.^.!.I.I.L.J.U.I.K.m.z.z.c.i.t.k.z.J.K.^.^.^.^.^.I.I.I.^.",
"/.R.R.N.B.P././.N.b.N.N.S.N.N.N.P.'.>X_.d.n.P.P.N.N.P.P.P.N.P.P.P.I.L.L.!.!.L._.E.I.J.I.E.m.k.s.i.i.t.k.z.P./.K.J.L.L.P.I.L.I.I.",
"b.N.R./.R.N.M.B.P.N.N.N.N./.P.R.M._.6X&Xn.P.^.N.M.N.P.N.N.N.N.P.A.~.J.M.!.A.A.|.%X'.J.M.R.P.N.M.m.m.m.m.m.N.P.N.M.M.P.N.N.^.L.J.",
"C.m.N.R.C.M.(.]./.R.N.P.S.N.N./.P.J./.P.M.P.P.N.N.P.S.P.N.N.N.N.M.!.M.M.!.A.A.^.'.^.L.J.K.P.P.^.W.T.R.R.R.C.S.N.N.N./.'.'.P.M.J.",
"/.R.b.N.N.R.+X-X/./.N.N.N.N.R.~.P.v.d.h.N.R.M./.R.C.N.N.N.N.P.~.A.S.A.A.b.A.A.A.A.A.A.A.!.M.M.N.N.N.R.R.N.C.F.b.D.S.). X].F.N.A.",
"C.K.N.m./.&X/.l.N.N.P.N.N.P.N.N.N.P.n.n.R.R.b.K.N.N.N.P.N.N.~.N.A.D.D.A.B.A.A.M.~.A.A.A.M.A.M.^.R.P.C././.R.S.N.N.].|.N.v.S.S.N.",
"C./.].R.].1X(.s.B.N.N./.N.N.N.C.P.R.R.C.K.R.C.C.N.b.`.'.N.N.C.N.M.M.M.M.A.A.A.A.A.!.!.!.!.!.!.L.^.J.J.P.P.N.(.'.F.*X,Xv.a.N./.M.",
"K.].>X`./.;X'.N.N.N.N./.P.N.P./.R.N.K.R.N.P.W.N.N./.&X-X/.N.P.b.N.A.A.S.A.A.M.A.!.!.!.A.L.M.L.!.L.P.P.J.N./. X&X(.].=X(.M.N.B.F.",
"N.N.M.J.N.n.K./.~.[.'.$X'.^.P.~.P.J.N.K.N.N./.{.(.Z..X1X.XG.Z.}.).Z.b.C.).|.S.B.M.~.~.~.~.M.N.N.P.P.P.P.P.K.P.P.K.P.M.R.N.n.N./.",
"R.l.d.n.n.h.h.P.N.'.6XrX,X/.N.~.P.R.m.N./.C./.-X&XF.*X5X<X.XG.3X.XF.B.F.,X,XM.M.B.S.S.~.~.~.N.  . P.L.o   J.z.h.J.l.d.m.K.N.~.(.",
"/.n.n.n.J.n.B.J.M.'.6XrX:X'.A.M.~./.N.M.N.N.(.>X0X#X3XqX2X0X3X9X*X(.m./.>X:XN.N.M.P.~.L.M.M.. $.6.        o N.n.R.m.v.P.^.S.].:X",
"N.R./.P.P./.^.P.N.^.|.&X$X/.M.M.P./.N.N.C.K.C._.-XqX+X{.3XqXqX{.C.N.C.C././.N.N.P.N.P.J.M.O 4.sXh .   * .   o R.K././.~.M.N.].,X",
"n.P.R.P.N.N.P.P.~.M.A.~.^.~.M.M.b.M.P./././.N.s.J.;XK.z.#XwX9Xx.l.J.W.K.h.z.J.  .   . O + . 9., 1 5 . X X X   P.M.N.~.M.M.S.~.~.",
"N.P.P.R.P.P.P.~.N.M.B.L.A.M.M.N.N.M./.^..   @       t.r.x.T.x.x.m.m.R.R.. O . O W 5.X.- . b ) 7 ; y   . $     /.N.N.N.N.C./.S.N.",
"N.J.P.P.^.P.~.L.M.M.M.M.N.M.N.P.N.. O O . @ < 5 5 . . . s.t.s.T.R.K.. . + 6.7.g d | | d J c ..: 3 g . + 0 @ @ P./.N.M.~.~.N.B.L.",
"/.P.P.P.N.B.M.^.~.~.N.M.S.S.S.. . + 3 7 F F v Q v Q 0 @ . . . . . . @ t g b  .7.Z ]  .{ a J d d d q ' e t 5 $ .   N.M.M.M.~.M.~.",
"R.P.P.R.N.M.M.~.~.!.S.L.M.P.. @ F ) @.2.2.2.+.c G c F n q # O 2 0 ......f f Y } A } [ { L z +.d d b ` ` ` 6 5 X   J.J.L.L.L.P.L.",
"K.R.P.P.^.P.P.L.A.N.A.M.    6 D ) { Y @.}  .I z J L J L B G L ' ..{ I E K U ;.-.M =.E Y K P / L b , + + n _ <   .   P.!.L.L.M.~.",
"R.K.N.N.P.P.!.P.~.~.P.  . O q ..#.} T E T E U K V B B B B B I ) #.O.U E =.A U =.E E R R , J  .L c B ) + dX0 y y   X   ~.~.J.P.~.",
"/.R.N.P.M.P.N.P.M.S.~.  . 1 c %.R } -.T =.E Y E V V V V V m M K R E =.=.=.=.U E J R #.#.> w./ ] P C 3.<.O O < 9 6   X   ~.P.P.P.",
"R.N.N.R.P.P.M.L.A.M.  . # q J P } E -.T T T E E Y E R E E E E E E U q.,.=.T =.E m J m J > a 7.w.B Z 7.7./ b h e X.@ . *   P.N.P.",
"R.m.N.J.P.P.S.~.A.  $ 5 + C B :.U E =.-.=.E =.E E E E E E E E Y T q.q.} E ;.E R O.B z J Z : p 7./ |  .) +.C b %.pX$.. . . N.N.~.",
"R./.R.P.P.J.^.^.M.  y ~ ; L V U ;.E =.E E T E M Y E E R E E R T [ { [ ] s } R :.R } K z c j : , +.) c d 7 ; q e W &.&.S   /./.N.",
"m.        M.M.  . $ ~ W ; p C E E =.T =.T E { B #.{ R #.#.#.E U m f , > d { } R [ Y f Z C C 7 : q d 3 - O + `.. N.. N.  '.$X).b.",
"E.%X    . . . + 6 r D r O ; C P } e.0.T T } / c / G c P B } } -.E O.z > 4 P  .} =.T s { B I b G d ; < # . O . .   S   X [.5X XF.",
"0XI.  . i v v $.n D r . J.O e F / A e.0.1.] j + + + + G ` ] } q.E R J b j : ] E E ,.;.} p L ; G G Q r O . .   o =     [.H.=X5X<X",
"rXoXh.    . 6 y *.&.    J.  . r | [ 0.0.@.d + h r < @ . b +.#.{ { z F F - ; | } 0.0.1.] o.e Q 1 _ 0 W @   N.  X     6X X.X2X2X<X",
"&XXX/.N.M..         ~.P.P.P.. . e  .q.} ] g k 7 O O . . % - n L c I G 0 % 6 +.{ [ 0.q.C ; O % < $.@ ^   /.N.N.N.~.(.,X1X2X2X<X*X",
"h.n.L.^.~.P.P.L.L.L.P.~.P.M.N.  g B Z ] +.q D % @         . < 0 W n t % . . _ {  .1.{ g @   @ 6 y . @ . M.P./.R.m.l.x.#XwX9XW.Z.",
"a.h.M.^.^.P.M.M.P.~.~.L.P.P.  . + P ] / ' F O . * =   J.b._.      .     o   @  .{ :.B + . .   . . .   J.N.N.K.R.R.l.l.R.OX}.Z.i.",
"N.~.~.N.B.M.N.P.M.S.!.P.M.. . 0 p C 7.<.1 . * *     /.~.N.}.;X].K.P.P.P.J.P.. 7  ., + . .       .   L.P.P.P.K.T.T.T.Y.k.j.t.z.Y.",
"~.P.N.N.N.N.N.N.L.P.M.~.. 6 X.; ` ` 4.+ O O * $   S.`.].R.&X1X`.P.P.P.J.P.P.P.+ p { +..       $ $   I.I.I.K.R.T.T.E.U.K.k.k.Y.U.",
"N.N.~.N.N.P.N.N.N.N.~.N.. 5.4.B o.+ O . < .   X N./.-X-X/.`..XR.P.R.N.N.P.P.P.. 1 | ` O . X = O . P.P.R._.T.m.T.R.R.C.R.N.M.L.~.",
"N.B.N.N.N.N.N.N.R.~.~.M.. - iX8.; . @ # ~ k . P.M./.-X=X(.v.l.m.P.P.K.P.P.M.P.O ; ' tX< . & u   P.P.P.N.].*X`.b.Z.W.F.N.N.P.~.L.",
"J.P.N.N.N.N.P.N.M.N./.N.P.O - h g . . @ D ! . @ N.S.~./.R.v.d.M.^.J.~./.L.J.~.'.@ l X.q O   u r . './.C..X3X.XG.F.G.G.D.D.D.A.S.",
"~./.N././.N.N.N.N./.~.P.P.N.O . X.k < . . @ x r . . d.d.P.K.m.R.~.M.N./.~.L.~.~.. . 2 k # . @ k . +X&X`.{.2X2X.XG.)..XH.D.D.D.D.",
"/.P.P.XX+XR.N.R.XX+XP.J.P.~.P.P.. W ! k # . O ! _ k i   M.P.P.P.P.M.L.!.L.L.~.L.M.M.. k I H 2 @   ;X3X*XOX2X5X<X.X<X5X(.~.|.~.D.",
"/.K.P./.'.'.E./.6X;XP.n.M.P.P.N.. 5 _ Q _ k O k F ! W ~ . M.P.P.!.P.~.L.M.M.M.P.L.P.. # tXtXtX5.. (.*X0X3X.X<X2X5X=X).S.[.,X'.A.",
"P.N.P.h.m.&X].R.-X>XR.N.P.P.M.P.  % 5.aX+ iX+ . 6 5.- Q.. L.L.!.!.!.~.L.L.M.L.!.~.P.P.O tXJ uX! . k.T.;X}.m.OXqX;XW.l.x.E._._.^.",
"P.J.~.d.J.0X-XR.&X>X_.P.J.M.P.~.~.. . . + O O O . O . L.L.L.M.P.P.M.M.!.^.~.M.L.L.P.K.. @ + O X 8 k.l.R.k.y.Z.(.R.c.k.Y.E.R.I.I.",
"J.I.P.K.`.-X+XK.+X&X`.R.N.M.S.N.!.I.!.L.L.I.P.N.K.P.E.E.^.P.P.N.^.M.M.P.~.~.L.L.L.M.L.L.L.M.P.P.P.P.n.j.r.r.a.s.a.l.m.R.R.K.R.K.",
"R./.R.R.m.m.m.m.v.m.b.N.N.N./.N.L.!.L.L.L.P.P.P./.P.P.P.J.P./.P.M.P.M.P.!.P.M.M.L.L.~.~.P.M.P.~./.P.J.n.z.n.n.z.n.m.T.R.K.R.R.R.",
"P.P.P.P.n.d.l.R.d.k.m.R.J.P.P.P.L.!.~.!.L.M.P.N.P.P.I.P.N.N.R.P.P.~.^.S.P.~.P.!.L.M.P.~.~.L.P.~.P.N.P.P.E.E.R.K.R.R.N.C.K.P.I.^.",
"N.N.J.P.N.m.N.R.b.n./.R.N.P.P.P.L.!.M.A.P.S.P.N.P.P.P.P.K.N.M.R.P.P.P.J.L.~.~.M.L.L.L.!.~.~.M.L.N.N.N.~.P.P.P.P./.N.m.N.~.P.P.I.",
"N.S.N.N.N.N.N.R.R.N.E.K.J.P.P.I.~.M.M.S.A.S.~.S.K.P.J./.+X].N.b.~.N.N.~.'.'.N.M.N.N.M.!.L.A.~.~.N.A.P.~.N.M.N./.~.N.M.~.~.L.L.L.",
"M.M.S.F.N.M.N.C.R.R.P.I.E.I.U.I.A.~.A.M.S.S.~.M.N.P.P.'.+X+X/.C.N.R.N./.&XXX~.M.~.A.A.M.S.!.A.M.S.M.M.S.P.P.P.~.N.N.M.S.~.P.L.P.",
"A.A.S.D.b.b.N./.N.K.P.oX%XI.P.I.S.P.N.A.!.S.~.A.P.P.P.n.v.R.{.`.M./.N.~.'./.S.N.N.~.N.M.A.!.!.!.N.N.B.N.P.J.N.N.N.N.M.M.M.!.!.!.",
"H.F.S.b.b.S.F.B.N.C.J.%X7XoXU.I.N.~.~.M.M.M.M.!.P.B.^.n.d./.1X`.C.'.R.B.N.~.P./.P.N.N.M.A.!.A.A.B.N.S.P.P.N.N.P.N.S.~.N.A.~.~.L.",
"=X XZ.b.b.b.F.C.C.b.N.&X6XoXP.I.P.M.P./.M.n.~.M.L.P.L.K.R.-X*X`./.=X'.N.F.N.N.~.R.N.~.~.M.A.!.!.N.C.R.N.R.R.C.N./.N./.N.N.~.M.L.",
"eX=X).b.F.].).C.C.K.C.C.N.J.K.I.N.P./.~.M.M.N.L.I.I.K.I.P.R.m.M.|.6X&XS.N.N.N.M.N.N.N.~.M.A.A.M.N.].].R.m.R.].].R.b.N.N.N.~.L.M.",
"1X0X0X{.{.=X}.C.N.F.S.v.a.n.^.P.N./.P.P./.^.N.^.L.I.P.I.I.n.h.l.'.:X'.S.M.N.R.C.N.C.P.N.!.~.L.M.R.*X*X_.K.`.#X+XN.b.K.C.P.~.N.N.",
"qX0X0X;X=X1X{.C.C.N.N.n.v.J.^.P.^.J.~.'.%X'.P.P.J.I.U.J.P.J.n.M.~.^.~.S.b.N.R./.N.R.N.N.!.~.!.!.C.#X#X_.oX&XR.z.b.R.R.C.N.N.P.B.",
"OX8X9XwX4XOX(.R.C.C.M.N.~.~.N.~.N.N.(.|././.C.N.L.^.I.L.^.P.N.S.~.M.A.N.N.C.R.R.N.C.K.P.L.L.L.!./.-X@XE.#X7XK.h.m.C.C.N.N.N.N.N.",
"u.W.8XwXOXz.l.C.C.R.N.M.P.N.M.~.N.R.&X/.d.l.N.K.I.I.P.I.^.P.M.N.A.M.S.N.N.R.C.C.R.C.P.P.L.M.M.M._.-X-XI.oX7XE.R.m.R.C.R.N.N.P.F.",
"u.p.Y.Q.Y.z.Z.T.R.R.~.N.P.P.P.~.M.F.:X Xb.B.N.T.P.K.K.I.P.M.M.A.A.M.S.M.N.R.K.`.+XR.J.P.L.M.L.L.I.E.U.J.K.P.E.R.N.N./.].].N.N.N.",
"u.u.p.i.p.T.W.T.m.m.~./.P.P.~.L.S.S.&X*X'./.N.R.K.P.P.P.M.B.A.A.A.M.S.N.P.b.N.+X>X/.N.P.L.!.~.L.J.h.j.K.z.j.K.K.R.C./.>X=X/.n.M."
};
