/* XPM */
static char *result[] = {
/* columns rows colors chars-per-pixel */
"47 24 144 2 ",
"   c #050201",
".  c #0C0302",
"X  c #0D0906",
"o  c #0D0A09",
"O  c #130403",
"+  c #1B0604",
"@  c #130905",
"#  c #1A0806",
"$  c #140B0A",
"%  c #1B0C0B",
"&  c #14100C",
"*  c #1B100D",
"=  c #1D1211",
"-  c #260E06",
";  c #230E0B",
":  c #281407",
">  c #23140F",
",  c #2E150D",
"<  c #30110A",
"1  c #221513",
"2  c #2A1511",
"3  c #221A16",
"4  c #2B1A15",
"5  c #201718",
"6  c #241C1B",
"7  c #2C1E1C",
"8  c #3A1513",
"9  c #331916",
"0  c #391B14",
"q  c #331D1B",
"w  c #3C1D1A",
"e  c #2B221C",
"r  c #34221E",
"t  c #3A211D",
"y  c #2E2421",
"u  c #352422",
"i  c #3C2522",
"p  c #362B25",
"a  c #3C2A26",
"s  c #3F2729",
"d  c #362C2C",
"f  c #3B2B29",
"g  c #3F302F",
"h  c #3D3332",
"j  c #471E17",
"k  c #441E1A",
"l  c #44221C",
"z  c #4A241D",
"x  c #432421",
"c  c #442C24",
"v  c #4A2C24",
"b  c #452728",
"n  c #442D2A",
"m  c #4C2E28",
"M  c #562B23",
"N  c #46332E",
"B  c #4E322C",
"V  c #44382F",
"C  c #553126",
"Z  c #54342C",
"A  c #59362C",
"S  c #5B392F",
"D  c #453631",
"F  c #4C3431",
"G  c #443B34",
"H  c #4A3C36",
"J  c #4E3739",
"K  c #493B3A",
"L  c #523532",
"P  c #533B34",
"I  c #5C3B35",
"U  c #533E39",
"Y  c #5D3D39",
"T  c #603029",
"R  c #633D34",
"E  c #6A3D34",
"W  c #623E3A",
"Q  c #4E4136",
"!  c #4D413A",
"~  c #54453E",
"^  c #5D423C",
"/  c #654337",
"(  c #6A4236",
")  c #63423A",
"_  c #6C433B",
"`  c #6D483C",
"'  c #724335",
"]  c #74453C",
"[  c #7B463B",
"{  c #75493C",
"}  c #7B4A3D",
"|  c #5B4E4A",
" . c #634642",
".. c #6E4642",
"X. c #664943",
"o. c #6D4B42",
"O. c #624C4B",
"+. c #6B4E49",
"@. c #734745",
"#. c #7A4740",
"$. c #744C43",
"%. c #7A4A42",
"&. c #724B4A",
"*. c #66534C",
"=. c #6D514D",
"-. c #705549",
";. c #7B534F",
":. c #6C5453",
">. c #6A5B53",
",. c #7C5551",
"<. c #7C5857",
"1. c #705758",
"2. c #6F6057",
"3. c #834637",
"4. c #81463A",
"5. c #814A3D",
"6. c #834C46",
"7. c #884B43",
"8. c #834E4B",
"9. c #845046",
"0. c #86534C",
"q. c #8A574D",
"w. c #8F5554",
"e. c #845C57",
"r. c #8A5C54",
"t. c #815A58",
"y. c #8C5E5E",
"u. c #965E57",
"i. c #80625B",
"p. c #8C635E",
"a. c #9E695E",
"s. c #A2635B",
"d. c #856C69",
"f. c #8A6D6D",
"g. c #916666",
"h. c #9F6360",
"j. c #996B69",
"k. c #88716B",
"l. c #997C76",
"z. c #A56760",
"x. c #A66B66",
"c. c #A76E6E",
"v. c #9B7D80",
"b. c None",
/* pixels */
"b.b.b.b.b.b.b.b.b.b.b.b.b.b.b.b.b.b.b.b.b.b.b.b.b.b.b.b.b.b.b.b.b.b.b.b.b.b.b.b.b.b.b.b.b.b.b.",
"b.b.b.b.b.b.b.b.b.b.b.b.b.b.b.b.b.b.b.b.b.b.b.b.b.b.b.b.b.b.b.b.b.b.* d 6 b.b.    b.b.b.b.b.b.",
"b.b.b.b.b.b.b.b.b.b.b.b.b.b.b.b.b.b.b.b.b.b.b.b.b.b.b.b.b.b.b.b.b.@ :.f.1     .     b.b.b.b.b.",
"b.b.b.b.b.b.b.b.b.b.b.b.b.b.b.b.b.b.b.b.b.b.b.b.b.b.b.b.b.$ e 1 # % +.w 1 . . o     b.b.b.b.b.",
"b.b.b.b.b.b.b.b.b.b.b.. . O @ $ . . b.b.b.b.b.b.b.b.. s F w :.+.B Z / < q # @ % o   b.b.b.b.b.",
"b.b.b.b.b.b.b.b.b.. # > t F L F D u % .   . .   O * q Y t.@._ $.R I Z 0 l n i 4 % . b.b.b.b.b.",
"b.b.b.b.b.b.b.b.. 4 ) @.e.p.,.) ) ^ P t , , 2 2 P X.R M #.[ ] %.( R ) v m F ~ N =   b.b.b.b.b.",
"b.b.b.b.b.b.b.  > ^ #.%.#.#.] E R / W W Y Y ) -.$.{ } E [ [ #.%.R S ../ Z q N 2.e &   b.b.b.b.",
"b.b.b.b.b.    @ n $.} 3.4.6.[ ' E R R / ( R E ( } } 5.5.[ { { { C W ,.@.W <.=.r 4 r =   . b.b.",
"b.b.b.b.. % % 1 P { [ 3.4.} } [ } } } { [ #.[ [ 0.s.q.[ } ' ( ( M l t.g.$.p.e.W m F :.s O O b.",
"b.b.. O ; J i w ) { [ 3.5.} %.] } } { } } [ } 6.q.r.E { } } ` / R z 8 &.;.( I m B ^ d.1.u $ b.",
"X e f F L  .F 9 Z $.5.5.5.} #.E ` ` { { } } 5.4.A z z T $.} ' M A I w 8 m t ; + H u s h 1 o b.",
"  X % u J 7 @ . q Y 0.s.z.u.E v - , v ` %.} 7.s.9.R z , ` %.7.E A R I L a 7 O . = h h 6 b.b.b.",
"b.b.. . . b.b.b.% B { u.x.8.k 2 > @ r X.$.%.%.0.$./ v : / 9.z.r...v x n D y . . . . $ X b.b.b.",
"b.b.b.b.b.b.b.b.  ; A p.r.W w q % . . 4 l P ^ ) ^ P 4 - ..w.c.j.) 2 2 6 % X b.b.b.b.b.b.b.b.b.",
"b.b.b.b.b.b.b.b.b.# Z ) ` I i 1 X     . . @ # e p 3 O q ..8.y.<.i O . X   b.b.b.b.b.b.b.b.b.b.",
"b.b.b.b.b.b.b.b.# 9 Y -.X.t @ = o b.b.b.b.      . b.. F &.,.I 1 O .   b.b.b.b.b.b.b.b.b.b.b.b.",
"b.b.b.b.b.b.% J b Y +.Z : % % X b.b.b.b.b.b.b.b.b.b.b.t &.F O . $ X b.b.b.b.b.b.b.b.b.b.b.b.b.",
"b.b.b.b.b.b.# v.f.L ; O 4 $ . b.b.b.b.b.b.b.b.b.b.b.b.: &.L . O = o b.b.b.b.b.b.b.b.b.b.b.b.b.",
"b.b.b.b.b.b.. f :.w O # Q p . b.b.b.b.b.b.b.b.b.b.b.b.% Y ` # O e e b.b.b.b.b.b.b.b.b.b.b.b.b.",
"b.b.b.b.b.b.b.O r f O @ D e O . b.b.b.b.b.b.b.b.b.b.b.O b x + ; H =   b.b.b.b.b.b.b.b.b.b.b.b.",
"b.b.b.b.b.b.b.b.r ~ a * * K H g 5 b.b.b.b.b.b.b.b.b.b.b.3 +.I i ! G = b.b.b.b.b.b.b.b.b.b.b.b.",
"b.b.b.b.b.b.b.b.& >.:.+.3 7 | K d b.b.b.b.b.b.b.b.b.b.b.e k.l.*.e | K . b.b.b.b.b.b.b.b.b.b.b.",
"b.b.b.b.b.b.b.b.$ u q q % . 5 % $ b.b.b.b.b.b.b.b.b.b.b.o e q 1 $ 1 1 . b.b.b.b.b.b.b.b.b.b.b."
};
