/* XPM */
static char *result[] = {
/* columns rows colors chars-per-pixel */
"47 24 134 2 ",
"   c #050201",
".  c #0C0202",
"X  c #0A0708",
"o  c #0C0908",
"O  c #120504",
"+  c #120907",
"@  c #1D0A07",
"#  c #140B0A",
"$  c #1C0C0A",
"%  c #1E110D",
"&  c #1D1412",
"*  c #230E0C",
"=  c #2B0E09",
"-  c #23120E",
";  c #2A130E",
":  c #391A0E",
">  c #241513",
",  c #2C1512",
"<  c #261915",
"1  c #2D1A15",
"2  c #2C1719",
"3  c #251A19",
"4  c #2A1C1A",
"5  c #311614",
"6  c #321A14",
"7  c #331D1B",
"8  c #3B1F1D",
"9  c #2D211B",
"0  c #34221C",
"q  c #3C241E",
"w  c #2E2221",
"e  c #332523",
"r  c #3A2623",
"t  c #372924",
"y  c #3A2A25",
"u  c #362E2C",
"i  c #3D2C2A",
"p  c #411C15",
"a  c #44241D",
"s  c #432623",
"d  c #492722",
"f  c #432B26",
"g  c #4C2B23",
"h  c #442E2B",
"j  c #4D2D28",
"k  c #512B25",
"l  c #5B2E25",
"z  c #502D2B",
"x  c #43302D",
"c  c #4D332C",
"v  c #4C382D",
"b  c #523027",
"n  c #53332C",
"m  c #5A352D",
"M  c #5E392E",
"N  c #463532",
"B  c #4B3532",
"V  c #4D3933",
"C  c #4F3C3A",
"Z  c #533633",
"A  c #5C3634",
"S  c #573B35",
"D  c #5C3D34",
"F  c #543C39",
"G  c #593E39",
"H  c #6A312B",
"J  c #633D35",
"K  c #6B3E34",
"L  c #633D39",
"P  c #6E3F3C",
"I  c #4F4039",
"U  c #564133",
"Y  c #5B4236",
"T  c #57423F",
"R  c #5D423C",
"E  c #634135",
"W  c #6B4135",
"Q  c #64423B",
"!  c #6B433B",
"~  c #724235",
"^  c #74453B",
"/  c #7B463D",
"(  c #754A3C",
")  c #7B4A3D",
"_  c #564443",
"`  c #5B4641",
"'  c #5F4A43",
"]  c #664441",
"[  c #6B4441",
"{  c #624B45",
"}  c #6C4B43",
"|  c #624F49",
" . c #6C4E4A",
".. c #734544",
"X. c #734B43",
"o. c #7C4A42",
"O. c #7B4C49",
"+. c #63534D",
"@. c #6E524D",
"#. c #7C544C",
"$. c #6C5251",
"%. c #765551",
"&. c #7F5351",
"*. c #7F6765",
"=. c #7D6B64",
"-. c #824A3F",
";. c #804742",
":. c #824A40",
">. c #884944",
",. c #854E4A",
"<. c #875047",
"1. c #84544A",
"2. c #855A52",
"3. c #8B5954",
"4. c #805B58",
"5. c #975856",
"6. c #9B5C59",
"7. c #87635B",
"8. c #8B615B",
"9. c #926157",
"0. c #94635D",
"q. c #816362",
"w. c #8D6667",
"e. c #806A62",
"r. c #926663",
"t. c #9A6462",
"y. c #9F6860",
"u. c #8C7872",
"i. c #8F7979",
"p. c #A36463",
"a. c #A56B64",
"s. c #A96968",
"d. c #B48E89",
"f. c None",
/* pixels */
"f.f.f.f.f.f.f.f.f.f.f.f.f.f.f.f.f.f.f.f.f.f.f.f.f.f.f.f.f.f.f.f.f.f.f.f.f.f.f.f.f.f.f.f.f.f.f.",
"f.f.f.f.f.f.f.f.f.f.f.f.f.f.f.f.f.f.f.f.f.f.f.f.f.f.f.f.f.f.f.f.f.f.f.f.3 #     f.f.f.f.f.f.f.",
"f.f.f.f.f.f.f.f.f.f.f.f.f.f.f.f.f.f.f.f.f.f.f.f.f.f.f.f.f.f.f.f.f.f.f.C i.> .   f.f.f.f.f.f.f.",
"f.f.f.f.f.f.f.f.f.f.f.f.f.f.f.f.f.f.f.f.f.f.f.f.f.f.f.f.f.# w & . f., w.e.> . . f.f.f.f.f.f.f.",
"f.f.f.f.f.f.f.f.f.f.f.f.f.f.. O $ # . . f.f.f.f.f.f.. y B 8 @.{ 0 < g r.k 1 @ %   f.f.f.f.f.f.",
"f.f.f.f.f.f.f.f.f.f.f.O @ , f V B B x < O . . . + - 7 Y 4...P X.M n m 2.k j q 0 & . f.f.f.f.f.",
"f.f.f.f.f.f.f.f.f.f.$ h ! #.8.7.! Y R D j 6 ; q D } Y g X.^ P :.! J ! L J J Z R U 3   f.f.f.f.",
"f.f.f.f.f.f.f.f.. O f } X.o.o.o.! E J J J Y Q X.o./ ( W ( / / o.X.! X.L J E k < +.> . . f.f.f.",
"f.f.f.f.f.f.f.f.O = R X.) -./ ) ^ ~ K W K J W ^ -.-.:.( ( ( ~ ) ! Q } ..J J } v e.r > > o   f.",
"f.f.f.f.f.f.f.# $ d ! o.-./ / / / ) ( ) ( ) ( ) <.y.1.( ( ( K W J J n ,.X.! 8.#.] Z f B , . . ",
"f.f.f.f.f.f.# w 5 m ~ ) -./ ) ) ) ( ) ) ) ) / ) 2.2.K ^ o.o.^ J Y Y a J ,.X.! M k z Z F _ >   ",
"  f.f.  . # e _ 8 g W -.:.:./ o.^ ~ X.( ( ) ( ~ m a p K o.:./ l Y Y n a D Q F a 5 , * 2 e & f.",
"  o > , 7 F ' x $ 5 A ..6.6.,.O.D z n n ! ) :.-.^ n : b ( o.>.H E U v c c f 1 % O # . .   f.f.",
"  & i F { ' 0 # f.. 7 ] ,.a.0.A 5 , $ * v } #.1.! Q g = ! <.p.5.Q s 0 Z N & f.f.f.f.f.f.f.f.f.",
"f.X O $ > > f.f.f.f.. 0 X.9.X.g 0 < + . # 0 G Q ] F 6 = [ 3.s.p.L , , 7 % + f.f.f.f.f.f.f.f.f.",
"f.f.f.f.f.f.f.f.f.f.  - A ~ X.v 0 #       . % t h 2 O * ] O.t.3.f # . . . f.f.f.f.f.f.f.f.f.f.",
"f.f.f.f.f.f.f.f.f.. O , L 2.L 7 $ # X f.f.f.f.. . O f.o V L Z s * . .   f.f.f.f.f.f.f.f.f.f.f.",
"f.f.f.f.f.f.f.f.f.i L n }  .* O % X f.f.f.f.f.f.f.f.f.  q } * . @ o f.f.f.f.f.f.f.f.f.f.f.f.f.",
"f.f.f.f.f.f.f.f.. $.d.X.; O # #   f.f.f.f.f.f.f.f.f.f.  4 %.r . < # f.f.f.f.f.f.f.f.f.f.f.f.f.",
"f.f.f.f.f.f.f.f.f.*  .j O . e u o f.f.f.f.f.f.f.f.f.f.f.-  .v O 1 4 f.f.f.f.f.f.f.f.f.f.f.f.f.",
"f.f.f.f.f.f.f.f.f.f.O i t % & < e > X f.f.f.f.f.f.f.f.f.O ; f f $ r i f.f.f.f.f.f.f.f.f.f.f.f.",
"f.f.f.f.f.f.f.f.f.f.f.# N F w @ 2 T V i & f.f.f.f.f.f.f.f.f.0  .' i V y # f.f.f.f.f.f.f.f.f.f.",
"f.f.f.f.f.f.f.f.f.f.f.  < =.' { $ r | V w f.f.f.f.f.f.f.f.f.< *.u.=.4 ` 3 f.f.f.f.f.f.f.f.f.f.",
"f.f.f.f.f.f.f.f.f.f.f.f.# t < e O O < # o f.f.f.f.f.f.f.f.f.  > 4 4 + > f.f.f.f.f.f.f.f.f.f.f."
};
