/* XPM */
static char *c5c6e2c059904dade28f32c841f9e74bULRxvOE4WobG0qW4[] = {
/* columns rows colors chars-per-pixel */
"64 32 177 2 ",
"   c None",
".  c #040201",
"X  c #0A0402",
"o  c #070905",
"O  c #0C0905",
"+  c #060508",
"@  c #0C0608",
"#  c #0D0A09",
"$  c #120503",
"%  c #130A06",
"&  c #180904",
"*  c #130C0A",
"=  c #1A0C0A",
"-  c #171308",
";  c #1B110C",
":  c #161710",
">  c #1D1412",
",  c #1E1A12",
"<  c #220706",
"1  c #240E08",
"2  c #25140D",
"3  c #2B140F",
"4  c #31180F",
"5  c #231513",
"6  c #2C1612",
"7  c #241B14",
"8  c #2A1B15",
"9  c #221C1A",
"0  c #2C1C18",
"q  c #331E14",
"w  c #3C1F15",
"e  c #351E1A",
"r  c #27221C",
"t  c #2C241C",
"y  c #34231D",
"u  c #3D261E",
"i  c #272320",
"p  c #2E2621",
"a  c #2C2923",
"s  c #342621",
"d  c #3C2522",
"f  c #352923",
"g  c #3B2B23",
"h  c #342C29",
"j  c #3D2E2A",
"k  c #3D3324",
"l  c #3D332C",
"z  c #3C3534",
"x  c #41231F",
"c  c #40281F",
"v  c #442321",
"b  c #422F26",
"n  c #492F25",
"m  c #452C29",
"M  c #522C29",
"N  c #443027",
"B  c #44352C",
"V  c #4B352C",
"C  c #4D382E",
"Z  c #52352D",
"A  c #5A372C",
"S  c #54392E",
"D  c #5A3A2D",
"F  c #443632",
"G  c #4C3631",
"H  c #443A34",
"J  c #4C3A33",
"K  c #473F3A",
"L  c #4D3B39",
"P  c #513530",
"I  c #543C33",
"U  c #5C3D33",
"Y  c #553F3A",
"T  c #5A3E3A",
"R  c #603C2E",
"E  c #613E34",
"W  c #46423B",
"Q  c #4C423B",
"!  c #564036",
"~  c #5C4136",
"^  c #54423B",
"/  c #5E463C",
"(  c #5C423A",
")  c #524B39",
"_  c #654133",
"`  c #604136",
"'  c #634336",
"]  c #624134",
"[  c #664335",
"{  c #644237",
"}  c #634537",
"|  c #634135",
" . c #60433B",
".. c #64433A",
"X. c #61453A",
"o. c #654439",
"O. c #63453F",
"+. c #634339",
"@. c #69453A",
"#. c #63483B",
"$. c #6B493C",
"%. c #68533F",
"&. c #4C4441",
"*. c #4F4442",
"=. c #574641",
"-. c #524642",
";. c #564B42",
":. c #5C4B43",
">. c #5E4A44",
",. c #5A4F42",
"<. c #584A4A",
"1. c #5F5246",
"2. c #515048",
"3. c #5F594D",
"4. c #5E5A51",
"5. c #614743",
"6. c #654B44",
"7. c #6E4943",
"8. c #614B4B",
"9. c #644C48",
"0. c #654C4A",
"q. c #6B4F4B",
"w. c #665447",
"e. c #61514E",
"r. c #67534D",
"t. c #69524C",
"y. c #6A564E",
"u. c #665B4B",
"i. c #6C584F",
"p. c #765047",
"a. c #75524C",
"s. c #7C554C",
"d. c #7E5B4F",
"f. c #665656",
"g. c #6E5550",
"h. c #665E53",
"j. c #6E5953",
"k. c #685B56",
"l. c #6A5B52",
"z. c #775552",
"x. c #7E5E51",
"c. c #705E58",
"v. c #6E624F",
"b. c #6E6554",
"n. c #6B635A",
"m. c #726553",
"M. c #7B6A56",
"N. c #73655B",
"B. c #7B635D",
"V. c #7C655E",
"C. c #73685D",
"Z. c #726463",
"A. c #746761",
"S. c #805C4E",
"D. c #805955",
"F. c #8A5E59",
"G. c #816154",
"H. c #8C6457",
"J. c #876158",
"K. c #8A625B",
"L. c #90665C",
"P. c #846A66",
"I. c #876F68",
"U. c #886D6C",
"Y. c #916560",
"T. c #837364",
"R. c #8A716F",
"E. c #837C72",
"W. c #917C74",
"Q. c #A2927F",
"!. c #9D8686",
"~. c #968D86",
"^. c #9E8883",
"/. c #AF9C8C",
"(. c #B19C88",
"). c #B9A69D",
"_. c #B1A89F",
/* pixels */
"                                                                                                = O   . .                       ",
"                                                                                                f.<.. + .                       ",
"                                                                                              8.!.j X X .                       ",
"                                                                              X X O X .     5 U.R.y $ X X                       ",
"                                        X . X . . .                     . O O ; Q k.g = X % J P.I 2 = $ X .                     ",
"                                  . . X $ % > > > * . .             X X 5 Z.e.6 s :.H y j 2 Y g.e 2 = 5 ; X .                   ",
"                                . X ; 8 j G B F l F r > # . . X X O = 0 0 J >.j.G ( ( N y g I t.u g s , , : + .                 ",
"                              X 0 J ^ t.B.B.9.J G H H l 7 ; % & y L Y Y 6 u ~ U I / / I V S ! V N C l H 4.2.a #                 ",
"                            @ p J ! / ~ +.O.( P V V B B B B B ^ ~ ! ~ ~ U S ~ U U ~ ! ! V I I V V V g 7 % 9 a # .               ",
"                          . * l ! ~ U | +.E A S Z V V V B B V ~ D | | [ E A o.| U +.~ I C ( ( Z V J B J 5 ~.&.X * X .           ",
"                        . % t J ~ } } | E E [ U S V V C V V Z D [ [ R _ _ A o.U S U U V V Y T U Z V G J J c.=.5 5 5 % X .       ",
"                        X ; h J ~ ] ] [ [ E | +.~ U U U ! ! ~ D [ [ H.S.@.[ U U Z Z S V B g T z.T Z q.V.r.J d e 0 L > X O .     ",
"                      O $ 7 F I | E [ [ [ E E U ~ ~ ~ ~ +.+.+.o.| G.x.| U | ~ ~ I V V C H g 3 T q.T ( ^ ( J J J L L -.> X .     ",
"                    # 7 ; 8 G ! | [ [ E U | +.S U / ~ ~ +.| U ~ ~ ~ ~ S w ~ +./ / I b H H j 6 m 5.Y Y g 8 2 2 8 j H &.z #       ",
"                  # > F s ; y I U E @.E U o.~ S I ! ~ ! U +.+.Z V q 1 4 q ~ ! ( ( J g H F B y 8 g H F B t 7 8 % X % > X       . ",
". . .       . . X * p H f = y V U p.J.p.+.o.~ V B B B V Z U +.~ ( ( V 1 q / ( ~ / G d J F H g g g f s - X X . X . . .       . . ",
"  + . . X X % * p Q h * .   * g U | s.F.K.7.x = % % O l Y ~ +.d.| ( F F 0 ( ~ 7.K.z.T G y y g j s 0 X                           ",
"  . @ 9 h H Q l H l > X     . 0 U E s.Y.F.M < 5 9 : O X l ^ ~ | ~ J H l t J @.K.F.D.P 6 7 2 g s s t                             ",
"    . X * 7 t K Q a .         = n | p.K.a.v 6 0 * @ o # $ 5 m V J F z 9 8 I @.H.L.a.d 8 > # ; * O X                             ",
"        X . X O . X           = u U U a.a.e j > X o . . X X & 0 j z 9 * 5 V $.H.s.Z 0 = # + # * X .                             ",
"                              = c I ( 6.5.d % X X + . .     . . . + . X & q #.x.S 3 5 @ . . . . .                               ",
"                          X % 0 N ~ ( y.^ ; X X . + +                   $ u #.I 2 $ . . + + + . +                               ",
"                          .   ^.V.( i.J % X X # .                       * ^ l.j X       + * * X .                               ",
"                          X -.).V.Y g % X O . .                       . ; H ^ > .       . % - O X                               ",
"                            * B.9.$ $ X X O .                         X h A.n.X           X B Q -                               ",
"                            % r.I.g $ X - t , X                       # ;.l.8 X           X s u.k %                             ",
"                              t W.w.; X % 7 t # O                     # ;.w.q $             t m.m.f                             ",
"                              X N N.1.t % , r r i #                   # ,.M.%.q %           t v.m.u.r                           ",
"                              . ; ) C.h.3.9 . , # .                   X k Q.(./.N..         * ) b.h.n.9                         ",
"                                * h._.;.E.W . . @ .                     *   T.).H .         . p l W W #                         ",
"                                . O * O % X                             . X % * X .           X O @ +                           ",
"                                                                                                                                "
};
