/* XPM */
static char *_40671b8ebb6406c959ff23b54105fa61hNHf2x3eO97sZnz[] = {
/* columns rows colors chars-per-pixel */
"63 32 171 2 ",
"   c None",
".  c #040101",
"X  c #0B0402",
"o  c #0E0907",
"O  c #070709",
"+  c #070A0D",
"@  c #0C0909",
"#  c #120503",
"$  c #130906",
"%  c #1B0B06",
"&  c #140B0A",
"*  c #1A0E0B",
"=  c #15100E",
"-  c #1B110E",
";  c #0C0D10",
":  c #150F10",
">  c #151111",
",  c #1B1412",
"<  c #210D0B",
"1  c #280F08",
"2  c #24130D",
"3  c #30160E",
"4  c #30180E",
"5  c #231513",
"6  c #291613",
"7  c #251914",
"8  c #2B1A15",
"9  c #241C19",
"0  c #2B1D1A",
"q  c #301710",
"w  c #331D15",
"e  c #331E1A",
"r  c #2F2215",
"t  c #2E211C",
"y  c #34241D",
"u  c #3D251C",
"i  c #39281E",
"p  c #2C2421",
"a  c #2F2A2A",
"s  c #352622",
"d  c #3A2622",
"f  c #342A23",
"g  c #3C2B23",
"h  c #352C2A",
"j  c #3B2E2B",
"k  c #3A3026",
"l  c #3C322D",
"z  c #3C3331",
"x  c #3C3A36",
"c  c #43241C",
"v  c #472B1F",
"b  c #422C25",
"n  c #492B21",
"m  c #412E2A",
"M  c #4A2F28",
"N  c #423027",
"B  c #4E3227",
"V  c #44332C",
"C  c #4B352C",
"Z  c #4C392E",
"A  c #52362B",
"S  c #543A2F",
"D  c #593A2E",
"F  c #453633",
"G  c #4B3631",
"H  c #453935",
"J  c #4C3A32",
"K  c #463C39",
"L  c #493D3B",
"P  c #523631",
"I  c #543B33",
"U  c #5C3E33",
"Y  c #543F39",
"T  c #593F3A",
"R  c #623F33",
"E  c #4B4037",
"W  c #4B423E",
"Q  c #554236",
"!  c #5D4135",
"~  c #54433B",
"^  c #5E473F",
"/  c #5E453D",
"(  c #5B443B",
")  c #55483A",
"_  c #5C483F",
"`  c #614134",
"'  c #634137",
"]  c #604237",
"[  c #634236",
"{  c #624136",
"}  c #654136",
"|  c #624135",
" . c #684437",
".. c #604238",
"X. c #634239",
"o. c #644339",
"O. c #654439",
"+. c #62443A",
"@. c #69473F",
"#. c #67493E",
"$. c #464340",
"%. c #564542",
"&. c #584540",
"*. c #5B4D43",
"=. c #554E4C",
"-. c #5C4C4A",
";. c #5B5247",
":. c #59554E",
">. c #5D5952",
",. c #624740",
"<. c #624840",
"1. c #614842",
"2. c #654D45",
"3. c #694E44",
"4. c #684D45",
"5. c #694C42",
"6. c #634F4B",
"7. c #644E4A",
"8. c #674F48",
"9. c #714F43",
"0. c #675048",
"q. c #61504C",
"w. c #64564A",
"e. c #68544E",
"r. c #6E574F",
"t. c #695D4F",
"y. c #765044",
"u. c #755549",
"i. c #73554C",
"p. c #74574E",
"a. c #72554A",
"s. c #7C574A",
"d. c #79594E",
"f. c #7D5A4E",
"g. c #655553",
"h. c #625654",
"j. c #645D55",
"k. c #6F5850",
"l. c #6F5B53",
"z. c #6C5F53",
"x. c #695C5A",
"c. c #685F58",
"v. c #745B57",
"b. c #7F5F56",
"n. c #725D59",
"m. c #6D6051",
"M. c #6A625F",
"N. c #75655B",
"B. c #7B645A",
"V. c #74695E",
"C. c #796B5E",
"Z. c #766F64",
"A. c #7A6D65",
"S. c #7C6C69",
"D. c #7F7668",
"F. c #815F56",
"G. c #866256",
"H. c #84655B",
"J. c #8B655A",
"K. c #827467",
"L. c #867B69",
"P. c #8A7D72",
"I. c #827978",
"U. c #8E8473",
"Y. c #948775",
"T. c #9B907F",
"R. c #968582",
"E. c #9C9188",
"W. c #A89B88",
"Q. c #A19593",
"!. c #C8BBB2",
/* pixels */
"                                                                                                                              ",
"                                                                                                > .   . .                     ",
"                                                                                              p I.X . . .                     ",
"                                                                                            5 Q.h.$ X X .                     ",
"                                                                            . & 9 9 &     $ %.R.F * X X .                     ",
"                                        X X X X X . .                 X * f 5 8 -.g.y - % 0 n.6.6 5 # * X .                   ",
"                                  . X # * 6 8 t p 9 & X .         . X $ s n.8.b V &.V g s e v.G 6 e 2 5 # X .                 ",
"                                X 9 s b ^ 0.( J J H j p : . . X & 0 i g q M 3.<.I ( ) N V b <.G b G d F H 0 X                 ",
"                            . * 0 ~ ( ,.i.i.3.I Z J F H j t t i Z ( ! U n B ` D I ! Q J Z ( C G G V d m l f , X               ",
"                          . X 7 J ( ! ..U U U A C C Z G J J Z ^ ^ ! ..U U D ` D ! ! Q Z J ( C C C C b e j c.X X X .           ",
"                        . X * g ( ! ..` R } U D A A C C C C B I I ..` R R U ` U U Q Q Z J ^ I C C G G N q.S.7 * & o . .       ",
"                      . > X 7 Z ! ! ` U ` } ` O.U D U I U U ! I ..o.d.u.` O.` D A S C V Z u k.P C I k.e.~ F 0 5 j 9 . X X     ",
"                      . * * f C ! ! ! ` ` ` ` U ! ! +.! ! ! U +.#.b.b.#.! U ! U S Z Z Z Z w b r.( ( *.7.Y J J H L K , . .     ",
"    .               . , h 5 V C ! ! ! o.U U ..U U ! ! ! U ` +.U U 5.+.A v +.! ! ! J G J G w 8 _ ( Q Z y w 6 0 j F W K -       ",
"    . . .     . . X , z K 5 0 Z ! U ..o.R ....I D ! ! ! ! ! ! A B w 3 4 u ! ! ! ! n b G G V w y V J V g 7 7 - $ * 9 ,         ",
"      . . X # $ * j W L p $ - l J +.F.s.R  .` A V V Z J C ! ` ` U I g 2 w U ! ` } c A P C V t l y l 7 $ X X X . . .         . ",
"      . * z F F F L H 9 X   X 0 F T @.J.G.y.n 2 % $ # s ~ ! ` f.+.Y F j < w ` R s.y.U c m 0 H 0 z X X                         ",
"        X * > h K K 9 .     . X 8 T #.G.f.A 1 2 7 - & # s J U ! T F K j % w +.9.G.G.5.P 5 5 H - l X                           ",
"          . . . X X           X $ e +.i...B w 0 * X . X $ * g V J F h > $ y ! a.H.H.8.e $ $ 9 X X X                           ",
"                                # 6 J C / C s , @ O O . . X X 5 h a , X X s ^ ! i.B.~ 5 X X X . .                             ",
"                              X # < J ^ ( d 9 @ ; + .       X . . . . . . 7 Q Z Q Y 0 # X X . .                               ",
"                            X 2 2 g ( N.Z # $ > + .                       $ b C * X X * X .                                   ",
"                          . z A.g Q j m # X X @ O                         $ g ( 0 X # * X                                     ",
"                          X W !.N.g X # 5 V , .                           $ N C.J # % t @                                     ",
"                            & j.C.g X # i V.V .                           X g K.z.- # *.7 .                                   ",
"                              $ t w.f % * d N k , .                         * k ) ~ - t J H X                                 ",
"                                  h w.) y X $ E ;.l K >                       # f t.*.7 9 >.x .                               ",
"                                  $ J N.w.Q 5 y m.z.c.=.>                     . f D.T.Y.C.f >.$.X                             ",
"                                  X l E.P.w.z.# r V.W M.,                       o Z.U.W.L.- :.j.X                             ",
"                                    & 9 7 - 5 X X , & = X                       . , , 9 , X - = .                             ",
"                                                                                                                              ",
"                                                                                                                              "
};
