/* XPM */
static char *result[] = {
/* columns rows colors chars-per-pixel */
"24 47 140 2 ",
"   c #050000",
".  c #0C0101",
"X  c #0B0806",
"o  c #0D0709",
"O  c #0F0808",
"+  c #120403",
"@  c #1B0402",
"#  c #140A07",
"$  c #1B0B06",
"%  c #140A0A",
"&  c #1B0D0C",
"*  c #1D110F",
"=  c #1D1413",
"-  c #220703",
";  c #250B05",
":  c #220D0A",
">  c #24130D",
",  c #2C130C",
"<  c #35190E",
"1  c #250E11",
"2  c #241311",
"3  c #2B1513",
"4  c #261813",
"5  c #2B1915",
"6  c #2B1618",
"7  c #241C1B",
"8  c #2C1B1A",
"9  c #371714",
"0  c #341A13",
"q  c #3D1A16",
"w  c #321D1B",
"e  c #3A1D1A",
"r  c #36211C",
"t  c #3B221D",
"y  c #351F20",
"u  c #2C2125",
"i  c #352321",
"p  c #3D2622",
"a  c #332825",
"s  c #3E2A24",
"d  c #352C2C",
"f  c #3A292A",
"g  c #3F3432",
"h  c #411B19",
"j  c #402014",
"k  c #43231C",
"l  c #49241D",
"z  c #4C291C",
"x  c #512A1E",
"c  c #422623",
"v  c #412925",
"b  c #4B2B23",
"n  c #442C2A",
"m  c #4D2E2B",
"M  c #562724",
"N  c #532C25",
"B  c #4B3224",
"V  c #47322F",
"C  c #563125",
"Z  c #5B3126",
"A  c #54322B",
"S  c #5B342C",
"D  c #5C3B2C",
"F  c #422F30",
"G  c #4C3432",
"H  c #4D3A35",
"J  c #523433",
"K  c #5C3632",
"L  c #533933",
"P  c #5C3933",
"I  c #533D39",
"U  c #5C3C39",
"Y  c #643D2D",
"T  c #643C33",
"R  c #6A3C32",
"E  c #643C3B",
"W  c #6B3E3B",
"Q  c #5B413D",
"!  c #63422F",
"~  c #644235",
"^  c #6C4336",
"/  c #6C4937",
"(  c #64423B",
")  c #6C453C",
"_  c #6C493B",
"`  c #714134",
"'  c #73453D",
"]  c #7B453C",
"[  c #734A3C",
"{  c #79493E",
"}  c #5B3C40",
"|  c #6C3F41",
" . c #4F4241",
".. c #574445",
"X. c #5A4B4B",
"o. c #5F514D",
"O. c #634443",
"+. c #6B4542",
"@. c #6C4B45",
"#. c #744642",
"$. c #7A4542",
"%. c #734B44",
"&. c #7A4C43",
"*. c #714F4B",
"=. c #7C4D4C",
"-. c #755144",
";. c #795147",
":. c #76504B",
">. c #7A544A",
",. c #685655",
"<. c #7A5755",
"1. c #7A5A55",
"2. c #78605D",
"3. c #7D6965",
"4. c #844D45",
"5. c #83524B",
"6. c #845B4B",
"7. c #835352",
"8. c #8C5451",
"9. c #815B55",
"0. c #8A5953",
"q. c #8F5C58",
"w. c #915D5C",
"e. c #91604C",
"r. c #8B6155",
"t. c #8C665E",
"y. c #8C685F",
"u. c #94625F",
"i. c #9E735D",
"p. c #876767",
"a. c #906261",
"s. c #9D6D6D",
"d. c #8B706E",
"f. c #9D736D",
"g. c #8F7773",
"h. c #917B77",
"j. c #AC806C",
"k. c #B1897C",
"l. c #A48E89",
"z. c None",
/* pixels */
"z.z.z.z.z.z.z.z.z.z.z.z.z.z.z.z.z.z.z.z.z.z.z.z.",
"z.z.z.z.z.z.z.z.z.z..   . z.z.z.z.z.z.z.z.z.z.z.",
"z.z.z.z.z.z.z.z.z.= = . .   z.z.z.z.z.z.z.z.z.z.",
"z.z.z.z.z.z.z.z.z.7 g * 8 u z.z.z.z.z.z.z.z.z.z.",
"z.z.z.z.z.z.z.z.  a o.> H  .  z.z.z.z.z.z.z.z.z.",
"z.z.z.z.z.z.z.z.= & r n i 2 * . z.z.z.z.z.z.z.z.",
"z.z.z.z.z.z.z.+ 6 Q s ; w Q t # z.z.z.z.z.z.z.z.",
"z.z.z.z.z.z.+ 6 I U 0 @ ; L ..w % z.z.z.z.z.z.z.",
"z.z.z.z.z.  & 3 e U k ; < P b 3 &   z.z.z.z.z.z.",
"z.z.z.z.z.o ,.d.<.( P k L ( :.p.,.  z.z.z.z.z.z.",
"z.z.z.z.z.z.1 J O.+.~ _ ~ ( +.U 6   z.z.z.z.z.z.",
"z.z.z.z.z.z.@ 9 K %.T _ T ) W h @ z.z.z.z.z.z.z.",
"z.z.z.z.z.$ +.R Z &.{ ] ] &.W N ( @ z.z.z.z.z.z.",
"z.z.z.z.z.i w.8.^ r.4.4.4.8.%.&.t.5   z.z.z.z.z.",
"z.z.z.z.o s a.=.[ _ 9.5.0.' %.:.y.v   z.z.z.z.z.",
"z.z.z.z.o 4 l S / / >.;.9._ +.D l 3 . z.z.z.z.z.",
"z.z.z.z.X * t A q D ~ ^ ( P N N z > . z.z.z.z.z.",
"z.z.z.z.. 5 k @.C x C >.P b T ) C 0 O z.z.z.z.z.",
"z.z.z.z.. > t :.^ R R r.) T ' &.N , + z.z.z.z.z.",
"z.z.z.z.z.w t *.&.#.W &.{ ' &.&.C , + z.z.z.z.z.",
"z.z.z.z.8 r 3 P %.$.R ] ^ ` &.~ q 0 t z.z.z.z.z.",
"z.z.z.z.i r # e | $.R ' R ' ' c ; , z @ z.z.z.z.",
"z.z.z.z.I r + 5 W #.Y / Y ^ E y % > D l z.z.z.z.",
"z.z.z.g 3.> . 2 T ' Y / ~ / ( y . & [ -.z.z.z.z.",
"z.z.z.d X.X   t @.[ R [ ! / %.V . . b / z.z.z.z.",
"z.z.z.% = . . k ' ^ ^ { / ^ #.J @   * > z.z.z.z.",
"z.z.z.z.  . v :.) S ) 5.{ R W =.L #   z.z.z.z.z.",
"z.z.z.z.  $ @.f.&.l K 7.W M #.s.<.4   z.z.z.z.z.",
"z.z.z.z.. s %.q.7., k | T q #.u.:.G + z.z.z.z.z.",
"z.z.z.z.$ v +.8.w.: : | e @ =.w.%.J 1 . z.z.z.z.",
"z.z.z.z., H K $.0.& 2 O.F @ %.;.T K w @ z.z.z.z.",
"z.z.z.z.* v E =.E o @ } O.- A &.| m 6 . z.z.z.z.",
"z.z.z.z.X r ) E e . . n 7.+.y E +.p . z.z.z.z.z.",
"z.z.z.z.z.8 G m @ + z.@ | 9.2 c J *   z.z.z.z.z.",
"z.z.z.z.X * t r # z.z.: | p . 2 f &   z.z.z.z.z.",
"z.z.z.z.z.# r 4 + z.. 8 p +   o u &   z.z.z.z.z.",
"z.z.z.z.z., B >   z.  7 % z.z.  u =   z.z.z.z.z.",
"z.z.z.z.z.z 6.> z.z.z.X z.z.z.  X.f . z.z.z.z.z.",
"z.z.z.z.z.Y i.> z.z.z.z.z.z.z.  ..n . z.z.z.z.z.",
"z.z.z.z.@ [ 6.@ z.z.z.z.z.z.z.. . @ . z.z.z.z.z.",
"z.z.z.  , e.{ @ z.z.z.z.z.z.z.z.+ 1.7   z.z.z.z.",
"z.z.z.. ~ j.R ; z.z.z.z.z.z.z.z.z.g.3.. z.z.z.z.",
"z.z.z.. 1.k.N @ z.z.z.z.z.z.z.z.z.h.l.z.z.z.z.z.",
"z.z.z.z.z.z.@ z.z.z.z.z.z.z.z.z.z.z.z.z.z.z.z.z.",
"z.z.z.z.z.z.z.z.z.z.z.z.z.z.z.z.z.z.z.z.z.z.z.z.",
"z.z.z.z.z.z.z.z.z.z.z.z.z.z.z.z.z.z.z.z.z.z.z.z.",
"z.z.z.z.z.z.z.z.z.z.z.z.z.z.z.z.z.z.z.z.z.z.z.z."
};
