/* XPM */
static char *result[] = {
/* columns rows colors chars-per-pixel */
"24 47 139 2 ",
"   c #050101",
".  c #0C0201",
"X  c #0E0907",
"o  c #130504",
"O  c #1B0300",
"+  c #120806",
"@  c #1B0B07",
"#  c #140C0B",
"$  c #1B0C0A",
"%  c #1A110C",
"&  c #1E1212",
"*  c #210603",
"=  c #210C06",
"-  c #2B0D06",
";  c #220D0B",
":  c #280A08",
">  c #24120D",
",  c #2A120F",
"<  c #241413",
"1  c #2D1613",
"2  c #251815",
"3  c #291B17",
"4  c #251B19",
"5  c #2B1C1B",
"6  c #341612",
"7  c #351A16",
"8  c #3C1B16",
"9  c #351C1A",
"0  c #3C1E1A",
"q  c #34211C",
"w  c #3D241C",
"e  c #342420",
"r  c #3B2522",
"t  c #362B27",
"y  c #3E2B25",
"u  c #362928",
"i  c #3D2E2B",
"p  c #37332E",
"a  c #421C15",
"s  c #42231B",
"d  c #4C221B",
"f  c #422523",
"g  c #4C2420",
"h  c #442B23",
"j  c #492B25",
"k  c #442C29",
"l  c #4C2D2A",
"z  c #512D26",
"x  c #552D28",
"c  c #4C3226",
"v  c #433329",
"b  c #4C312F",
"n  c #4E382F",
"m  c #53312A",
"M  c #5B342C",
"N  c #563829",
"B  c #453231",
"V  c #4B3632",
"C  c #4F3D3A",
"Z  c #533533",
"A  c #543A33",
"S  c #5B3A34",
"D  c #5B3E39",
"F  c #663D2D",
"G  c #623632",
"H  c #6A3534",
"J  c #643D35",
"K  c #693D34",
"L  c #633A3C",
"P  c #5D4032",
"I  c #56413E",
"U  c #5C443C",
"Y  c #654236",
"T  c #6D4336",
"R  c #65433B",
"E  c #6C443C",
"W  c #64493A",
"Q  c #6D493C",
"!  c #714037",
"~  c #73443D",
"^  c #734B3A",
"/  c #79483F",
"(  c #5A4440",
")  c #654440",
"_  c #694743",
"`  c #674A42",
"'  c #6B4A44",
"]  c #6D4D49",
"[  c #754542",
"{  c #7A4642",
"}  c #744B43",
"|  c #7A4A44",
" . c #764B49",
".. c #7D4A4A",
"X. c #6B524A",
"o. c #77544C",
"O. c #7C534C",
"+. c #6B5552",
"@. c #765C53",
"#. c #7B5953",
"$. c #7D5B58",
"%. c #73655D",
"&. c #7E6258",
"*. c #7D6763",
"=. c #824945",
"-. c #814E49",
";. c #815047",
":. c #84534D",
">. c #8B564F",
",. c #87594F",
"<. c #815651",
"1. c #8A5550",
"2. c #875953",
"3. c #8D5E55",
"4. c #875E58",
"5. c #8E5D59",
"6. c #925253",
"7. c #826358",
"8. c #906056",
"9. c #92635D",
"0. c #9C5F61",
"q. c #8E6666",
"w. c #866A65",
"e. c #8B6963",
"r. c #936763",
"t. c #956D65",
"y. c #9F6C6E",
"u. c #91716E",
"i. c #9D766D",
"p. c #957773",
"a. c #A17E7B",
"s. c #93857F",
"d. c #A2867B",
"f. c #AA8279",
"g. c #978982",
"h. c #AD8A80",
"j. c #AE9083",
"k. c #B19087",
"l. c None",
/* pixels */
"l.l.l.l.l.l.l.l.l.l.l.l.l.l.l.l.l.l.l.l.l.l.l.l.",
"l.l.l.l.l.l.l.l.l.l.l.l.l.l.l.l.l.l.l.l.l.l.l.l.",
"l.l.l.l.l.l.l.l.l.l.l.l.l.l.l.l.l.l.l.l.l.l.l.l.",
"l.l.l.l.l.l.l.l.l.l.l.l.l.l.l.l.l.l.l.l.l.l.l.l.",
"l.l.l.l.l.l.l.l.l.l.# o # l.l.l.l.l.l.l.l.l.l.l.",
"l.l.l.l.l.l.l.l.l.# 4 # $ l.l.l.l.l.l.l.l.l.l.l.",
"l.l.l.l.l.l.l.l.l.2 B > 5 l.l.l.l.l.l.l.l.l.l.l.",
"l.l.l.l.l.l.l.l.l.4 I 1 B B   l.l.l.l.l.l.l.l.l.",
"l.l.l.l.l.l.l.l.+ < V 9 k r . l.l.l.l.l.l.l.l.l.",
"l.l.l.l.l.l.l.. u $ 9 k 0 ; 2 X l.l.l.l.l.l.l.l.",
"l.l.l.l.l.l.l.o 5 k r * 7 k e % l.l.l.l.l.l.l.l.",
"l.l.l.l.l.l.+ 4 C I 1 O : Z ( 5 # l.l.l.l.l.l.l.",
"l.l.l.l.l.  4 0 r D h - 0 D l w 5 . l.l.l.l.l.l.",
"l.l.l.l.l.X +.u.#.R Y z S Y o.w.*.+ l.l.l.l.l.l.",
"l.l.l.l.l.l.= 9 M E K [ K E D 7 $ . l.l.l.l.l.l.",
"l.l.l.l.l.o Z g G K ! 1./ T G s Z < l.l.l.l.l.l.",
"l.l.l.l.l.2 ] ../ -.| { / ;.| ~ o.r . l.l.l.l.l.",
"l.l.l.l.. I e.2.K 3.-.:.>.>.{ -.r.] # l.l.l.l.l.",
"l.l.l.l.X e $.} | ~ :.:.5.K | | 4.l $ . l.l.l.l.",
"l.l.l.l.X > 8 x J Q O.| <.[ Y m w < $ l.l.l.l.l.",
"l.l.l.l.X # 6 M a M Y R R D s j r o X l.l.l.l.l.",
"l.l.l.l.. @ w Q M s Z E A s z ' j ; . l.l.l.l.l.",
"l.l.l.l.l.@ w } E M M 4.J N Y [ l ; . l.l.l.l.l.",
"l.l.l.l.% @ 6  .} J ~ 9.| K ~ o.j = > l.l.l.l.l.",
"l.l.l.l.e 1 = m ^ T T ;.~ ! } A 1 @ i . l.l.l.l.",
"l.l.l.& +.r . 1 Y ^ Y ^ K E ^ r o # %.2 l.l.l.l.",
"l.l.l.4 s.i . , G T Y ~ K E Y 9 . # g.t l.l.l.l.",
"l.l.l.l.p % . 9 E Q K ~ L Q ^ h . o e 2 l.l.l.l.",
"l.l.l.l.    1 L E Q Y / E Y E ` r o . l.l.l.l.l.",
"l.l.l.l.l.+ _ y.| Y T [ ^ J E t.#.> . l.l.l.l.l.",
"l.l.l.l.  9  .0.1.c W ,.} M ^ r. .l o l.l.l.l.l.",
"l.l.l.l.+ f [ 6.9.s N | T d ,.8.| l @ . l.l.l.l.",
"l.l.l.l.& Z H =.5.w s ~ m a <.-.K S 9   l.l.l.l.",
"l.l.l.l.& l G { } < f | 8 < ) | K z 4   l.l.l.l.",
"l.l.l.l.X 9 ` Q 0 o x [ $ # 9 E } f # l.l.l.l.l.",
"l.l.l.l.. q n h > 4 q...o   $ w M f . l.l.l.l.l.",
"l.l.l.l.l.5 w > . & $. .@ l.. ; a 0 X l.l.l.l.l.",
"l.l.l.l.l.v U > l.  f ' $ l.l.= D D X l.l.l.l.l.",
"l.l.l.l.l.] j.q l.l.o y 5   l.< p.p.$ l.l.l.l.l.",
"l.l.l.l.o #.7.O l.l.l.# 4 l.l.o ' a.$ l.l.l.l.l.",
"l.l.l.. 6 r.W O l.l.l.  X l.l.l.A i.h   l.l.l.l.",
"l.l.l.+ ' f.7.> l.l.l.  l.l.l.+ ` f.&.% l.l.l.l.",
"l.l.l.# p.j.@.% l.l.l.l.l.l.l.# U h.d.4 l.l.l.l.",
"l.l.l.l.u A % . l.l.l.l.l.l.l.l.$ c V l.l.l.l.l.",
"l.l.l.l.l..   l.l.l.l.l.l.l.l.l.l.. l.l.l.l.l.l.",
"l.l.l.l.l.l.l.l.l.l.l.l.l.l.l.l.l.l.l.l.l.l.l.l.",
"l.l.l.l.l.l.l.l.l.l.l.l.l.l.l.l.l.l.l.l.l.l.l.l."
};
