/* XPM */
static char *result[] = {
/* columns rows colors chars-per-pixel */
"24 47 144 2 ",
"   c #040201",
".  c #0B0302",
"X  c #0F0C07",
"o  c #0A040A",
"O  c #120403",
"+  c #1B0402",
"@  c #130905",
"#  c #190801",
"$  c #140C0B",
"%  c #1C0C0A",
"&  c #1C110D",
"*  c #1C1411",
"=  c #1F1A18",
"-  c #220905",
";  c #230E0C",
":  c #2A0C0A",
">  c #22120E",
",  c #2C140D",
"<  c #31150F",
"1  c #200F10",
"2  c #241614",
"3  c #2A1513",
"4  c #231912",
"5  c #22171C",
"6  c #2B1618",
"7  c #211A1C",
"8  c #2B1C1A",
"9  c #311312",
"0  c #331A14",
"q  c #341E1B",
"w  c #3B1D19",
"e  c #2F231E",
"r  c #36231D",
"t  c #3A221D",
"y  c #371F20",
"u  c #352623",
"i  c #3B2423",
"p  c #3C2A24",
"a  c #3F2929",
"s  c #411E19",
"d  c #412317",
"f  c #43231D",
"g  c #482218",
"h  c #44281E",
"j  c #482A1F",
"k  c #422221",
"l  c #452827",
"z  c #4D2B24",
"x  c #4A2629",
"c  c #442F28",
"v  c #4B2C2B",
"b  c #532F27",
"n  c #5A2D26",
"m  c #512C28",
"M  c #44312C",
"N  c #4B332C",
"B  c #563125",
"V  c #583026",
"C  c #53322C",
"Z  c #5A342C",
"A  c #56382D",
"S  c #463332",
"D  c #4C3332",
"F  c #4C3A36",
"G  c #523733",
"H  c #593631",
"J  c #563B32",
"K  c #5C3B33",
"L  c #543B3C",
"P  c #5C3B3A",
"I  c #61312B",
"U  c #60392D",
"Y  c #633B33",
"T  c #6B3C35",
"R  c #673E39",
"E  c #6C3F39",
"W  c #54423D",
"Q  c #5E423C",
"!  c #634136",
"~  c #6A4135",
"^  c #66423B",
"/  c #6C443C",
"(  c #6B4B3E",
")  c #72433C",
"_  c #784438",
"`  c #724A3E",
"'  c #7A4A3D",
"]  c #513F40",
"[  c #594B4B",
"{  c #6B4542",
"}  c #634944",
"|  c #6E4C44",
" . c #664E49",
".. c #6B4E4C",
"X. c #734742",
"o. c #794742",
"O. c #744A43",
"+. c #7A4A45",
"@. c #734C4B",
"#. c #7C4F4B",
"$. c #62524F",
"%. c #6E514D",
"&. c #705046",
"*. c #7C5247",
"=. c #76534C",
"-. c #7C524B",
";. c #7F594E",
":. c #6E5351",
">. c #705050",
",. c #7D5450",
"<. c #775956",
"1. c #7C5A55",
"2. c #7D5C58",
"3. c #864B44",
"4. c #805045",
"5. c #83554C",
"6. c #885A4F",
"7. c #805756",
"8. c #895653",
"9. c #855C56",
"0. c #8C5B55",
"q. c #825D5F",
"w. c #8B5E5A",
"e. c #925B54",
"r. c #836157",
"t. c #82625E",
"y. c #8F625A",
"u. c #896565",
"i. c #876863",
"p. c #996462",
"a. c #916867",
"s. c #9F6C63",
"d. c #956E6B",
"f. c #9D6B68",
"g. c #8C756B",
"h. c #997A6D",
"j. c #966F71",
"k. c #A3746F",
"l. c #AD7D78",
"z. c #A28274",
"x. c #A4867C",
"c. c #AC8F82",
"v. c #B38C84",
"b. c None",
/* pixels */
"b.b.b.b.b.b.b.b.b.b.b.b.b.b.b.b.b.b.b.b.b.b.b.b.",
"b.b.b.b.b.b.b.b.b.b.b.b.b.b.b.b.b.b.b.b.b.b.b.b.",
"b.b.b.b.b.b.b.b.b.b.b.b.b.b.b.b.b.b.b.b.b.b.b.b.",
"b.b.b.b.b.b.b.b.b.b.b.b.b.b.b.b.b.b.b.b.b.b.b.b.",
"b.b.b.b.b.b.b.b.b.b.b.% % 8 $ b.b.b.b.b.b.b.b.b.",
"b.b.b.b.b.b.b.b.b.  ] D 1 $.u   b.b.b.b.b.b.b.b.",
"b.b.b.b.b.b.b.b.b.O y v q S 2 @ b.b.b.b.b.b.b.b.",
"b.b.b.b.b.b.b.b.  2 i w r r u % . b.b.b.b.b.b.b.",
"b.b.b.b.b.b.b.. * F Q 9 # r [ M % b.b.b.b.b.b.b.",
"b.b.b.b.b.b.b.% 3 J A , # < K z 3 @ b.b.b.b.b.b.",
"b.b.b.b.b.b.% L K H K j , b Y P P S O b.b.b.b.b.",
"b.b.b.b.b.b.% ..2.&.~ Q A Q { =.q.L @ b.b.b.b.b.",
"b.b.b.b.b.b.O 9 3 Y / ^ ( ~ ) C 9 1 O b.b.b.b.b.",
"b.b.b.b.b.  3 2.Z / -.X.` ` 5.Z { >.% b.b.b.b.b.",
"b.b.b.b.b.. P a.#.O.8.8.5.4.e.) 7.u.a . b.b.b.b.",
"b.b.b.b.b.$ D 7.O.X.E 0.;.5._ ` @.1.i O b.b.b.b.",
"b.b.b.b.  $ : s C ^ / 5.' *.) Y m w ; $ b.b.b.b.",
"b.b.b.b.b.@ 3 z b d Z Y ~ Z n b H i 2 . b.b.b.b.",
"b.b.b.b.b.. , N O.A z U ;.B B ( | t >   b.b.b.b.",
"b.b.b.b.b.X t m O.! A ~ y.Z Z / &.f > . b.b.b.b.",
"b.b.b.b.. 6 0 z +.) / X.5.) ) X.O.w q ; b.b.b.b.",
"b.b.b.b.$ F , f O.+.X./ o.) ` +.| 9 0 t O b.b.b.",
"b.b.b.b.[ =.& - n o./ R ) ~ ` / z - 0 W O b.b.b.",
"b.b.b.b.[ F . # g X./ ! ) ! ( Y < O @ F 5 b.b.b.",
"b.b.b.b.5 =   . s ^ / ~ _ Y ( K ,   . 5 $ b.b.b.",
"b.b.b.b.b.o   # C @./ ~ _ T ( &.p . . o b.b.b.b.",
"b.b.b.b.b.b.  ; C / ^ ` ' ` / / h O   b.b.b.b.b.",
"b.b.b.b.b.  % ^ w.Y Z X.6.~ K ) r.N . b.b.b.b.b.",
"b.b.b.b.b.  0 ,.f.E s Y *.K j 4.s.( >   b.b.b.b.",
"b.b.b.b.b.@ G +.p.{ : f / h 0 8.e.' a . b.b.b.b.",
"b.b.b.b.b.2 H X.8.@.+ m ^ : ; y.3.E M $ b.b.b.b.",
"b.b.b.b.b.8 C T #. .+ P P + ; 5.3.I F * b.b.b.b.",
"b.b.b.b.  * v @.| a O P @.; @ H O./ i $ b.b.b.b.",
"b.b.b.b.b.@ l ^ D $ O P j.S   3 J ^ q . b.b.b.b.",
"b.b.b.b.b.. q D u   . P q.6 b.@ c c 8 b.b.b.b.b.",
"b.b.b.b.b.. 6 u %   @ Q x + b.  4 r 1 . b.b.b.b.",
"b.b.b.b.b.. D } $   * a + b.b.  e  .i b.b.b.b.b.",
"b.b.b.b.b.@ q.<.$ b.* 1 b.b.b.b.2 i.} b.b.b.b.b.",
"b.b.b.b.b.+ d.G . b.b.. b.b.b.b.% t...O b.b.b.b.",
"b.b.b.b.. 0 k.k b.b.b.b.b.b.b.b.b.{ r.% . b.b.b.",
"b.b.b.b.@ 1.l.C O b.b.b.b.b.b.b.+ =.z.W . b.b.b.",
"b.b.b.b.b.x.v.b.O b.b.b.b.b.b.b.b.h.c.g.X b.b.b.",
"b.b.b.b.b.b.b.b.b.b.b.b.b.b.b.b.b.b.b.W b.b.b.b.",
"b.b.b.b.b.b.b.b.b.b.b.b.b.b.b.b.b.b.b.b.b.b.b.b.",
"b.b.b.b.b.b.b.b.b.b.b.b.b.b.b.b.b.b.b.b.b.b.b.b.",
"b.b.b.b.b.b.b.b.b.b.b.b.b.b.b.b.b.b.b.b.b.b.b.b.",
"b.b.b.b.b.b.b.b.b.b.b.b.b.b.b.b.b.b.b.b.b.b.b.b."
};
