/* XPM */
static char *result[] = {
/* columns rows colors chars-per-pixel */
"64 64 225 2 ",
"   c #050100",
".  c #0B0100",
"X  c #0D0906",
"o  c #130201",
"O  c #1B0201",
"+  c #140A04",
"@  c #190B05",
"#  c #180808",
"$  c #1C110A",
"%  c #161606",
"&  c #1E1412",
"*  c #230401",
"=  c #220B05",
"-  c #260D0A",
";  c #2C0A05",
":  c #24140D",
">  c #2B130D",
",  c #27190A",
"<  c #32110D",
"1  c #341108",
"2  c #241612",
"3  c #2C1612",
"4  c #281B17",
"5  c #361611",
"6  c #391D15",
"7  c #320D04",
"8  c #2B231A",
"9  c #34241B",
"0  c #3B231D",
"q  c #36271A",
"w  c #272009",
"e  c #3C1F21",
"r  c #2D2722",
"t  c #3B2522",
"y  c #372825",
"u  c #363D29",
"i  c #441E16",
"p  c #442215",
"a  c #41231C",
"s  c #48281D",
"d  c #502616",
"f  c #422523",
"g  c #482D28",
"h  c #4A3627",
"j  c #5E3A2E",
"k  c #5B362F",
"l  c #5C3B35",
"z  c #5B3D3A",
"x  c #553B37",
"c  c #502922",
"v  c #63352E",
"b  c #653B2E",
"n  c #653631",
"m  c #643C34",
"M  c #6A3B34",
"N  c #633E3A",
"B  c #6B3E38",
"V  c #7A3F3B",
"C  c #5F4237",
"Z  c #55423B",
"A  c #5B413B",
"S  c #474931",
"D  c #624236",
"F  c #64433B",
"G  c #6B423B",
"H  c #6A473A",
"J  c #714436",
"K  c #73443D",
"L  c #754A3F",
"P  c #79493E",
"I  c #7B453B",
"U  c #4F683B",
"Y  c #5B4B44",
"T  c #5D4948",
"R  c #634541",
"E  c #6C4B42",
"W  c #634E49",
"Q  c #6B4B4A",
"!  c #6D4641",
"~  c #744641",
"^  c #794742",
"/  c #744C44",
"(  c #7B4B45",
")  c #734E49",
"_  c #7B4D49",
"`  c #7A454B",
"'  c #6B524E",
"]  c #65534F",
"[  c #745146",
"{  c #74514B",
"}  c #7D514B",
"|  c #7D5143",
" . c #7A5257",
".. c #5A6546",
"X. c #81443E",
"o. c #834A42",
"O. c #834844",
"+. c #80514B",
"@. c #A3645F",
"#. c #8A6B64",
"$. c #9D6C65",
"%. c #976C67",
"&. c #8B7368",
"*. c #94736D",
"=. c #9B726C",
"-. c #997468",
";. c #8D7774",
":. c #967571",
">. c #9C7772",
",. c #9D6A71",
"<. c #A26C6A",
"1. c #A66B66",
"2. c #A3736C",
"3. c #A06E71",
"4. c #A37872",
"5. c #229C26",
"6. c #2B9D2E",
"7. c #299F27",
"8. c #2B9432",
"9. c #2F9F31",
"0. c #329C37",
"q. c #26A52A",
"w. c #2BA42D",
"e. c #2AA92E",
"r. c #20A123",
"t. c #2DA431",
"y. c #2DAC32",
"u. c #26A230",
"i. c #31A535",
"p. c #33AC34",
"a. c #34AB3A",
"s. c #3AAD3B",
"d. c #3CAA37",
"f. c #2FB133",
"g. c #32B235",
"h. c #3BBC37",
"j. c #35B53A",
"k. c #3AB53C",
"l. c #36BC3D",
"z. c #3ABC3E",
"x. c #36BA36",
"c. c #41BD3C",
"v. c #41B93A",
"b. c #37C13E",
"n. c #3CC13D",
"m. c #39C136",
"M. c #43C23E",
"N. c #49C33D",
"B. c #44C83E",
"V. c #37B740",
"C. c #3AB542",
"Z. c #36BD42",
"A. c #3CBD42",
"S. c #3FB749",
"D. c #3EBD49",
"F. c #3FAE45",
"G. c #5F9E5A",
"H. c #65975A",
"J. c #42B644",
"K. c #41BD43",
"L. c #42BD4A",
"P. c #49B949",
"I. c #51B551",
"U. c #62B45F",
"Y. c #7B8D6C",
"T. c #6D9261",
"R. c #77B36C",
"E. c #69BC65",
"W. c #36C141",
"Q. c #3CC142",
"!. c #3DC149",
"~. c #42C244",
"^. c #49C546",
"/. c #4BCA44",
"(. c #44C34A",
"). c #4BC54B",
"_. c #46C94B",
"`. c #4BCB4D",
"'. c #42C841",
"]. c #52CE4C",
"[. c #53C94B",
"{. c #4DD14D",
"}. c #54D24C",
"|. c #59D24F",
" X c #4CCC52",
".X c #49C953",
"XX c #55C653",
"oX c #52CD53",
"OX c #5BCE5B",
"+X c #54CC57",
"@X c #4ED153",
"#X c #4FD359",
"$X c #53D355",
"%X c #5BD453",
"&X c #5CD955",
"*X c #55D45A",
"=X c #5AD45A",
"-X c #55DA5B",
";X c #5CDA5C",
":X c #55DB54",
">X c #60CE5B",
",X c #62DA56",
"<X c #63DC5B",
"1X c #69DE5D",
"2X c #61D556",
"3X c #67E25D",
"4X c #5ECB60",
"5X c #5DDC61",
"6X c #5CD763",
"7X c #64D562",
"8X c #64DD63",
"9X c #6BDD67",
"0X c #63E365",
"qX c #68E468",
"wX c #818E61",
"eX c #9D8979",
"rX c #A6877B",
"tX c #B1897D",
"yX c #AB8E80",
"uX c #BFA598",
"iX c #C29D96",
"pX c #C9A89F",
"aX c #C7AAA4",
"sX c #CFB3AF",
"dX c #D1B8B3",
/* pixels */
"l.z.K.z.z.~.M.l.l.z.Q.~.Q.z.z.z.Q.A.Z.Q.Q.W.A.l.A.Q.z.(.6X*XK.k.V.D.A.L.-X#XZ.l.Z.W.b.z.l.Q.b.l.h.M.z.c.c.z.z.A.L.J.z.C.D.D.A.V.",
"z.z.A.z.z.A.A.z.z.K.Q.~._.~.z.z.l.Q.Q.Q.V.l.l.Z.l.!.D.A.K.). X).D.D.A.D..X.XD.Z.Q.Q.A.b.l.l.n.~.^.M.h.z.v.z.v.C.K.K.K.D.A.D.A.D.",
"~.A.z.c.~.z.z.A.z.z.z._.*X_.l.z.l.Z.Q.Q.l.l.A.Z.z.!.A.g.t.D.*X).n.~.z.h.z.M.b.n.n.h.h.n.~.M.h.].3XN.c.v.N.M.c.h.z.c.M.M.z.z.l.b.",
"*X_.z.z.z.z.z.M.z.z.z.$X;X`.l.A.Z.l.l.Z.Z.Q.Q.Z.A.A.C.A.k. X6XoX~.]./.z.h.l.M.z.h.h.h.M.}./.M./.3X&XN.N./.}.N.c.z.z.z.M.b.z.z.~.",
"qX$XK.l.l.z.z.z.z.~.Q.'.`.~.z.Q.Q.Z.l.A.Z.Q.Q.l.z.z.k.A.~._. XK./.;XoXz.z.z.v.h.h.v.c.N.%X2X[.[.,X,X%X/.|.,X/.c.z.l.z.b.z.l.n.n.",
"5X$X~.z.z.~.K.l.z.~.A.f.f.l.z.z.Q.A.Z.Z.A.A.Z.A.z.D.A.A.A.y.y.g.).;X].z.c.h.m.c.z.c.v.M.].,X,X,X,X3X,X2X,X&X~.h.M.n.b.A.z.z.z.z.",
"n.~.n.z.~.`._.z.z.~.z.g.e.l.A.l.Z.Q.W.!._.!.A.A.l.Q.z.z.A.g.y.j.(.oX(.A.A.A.K.K.K.K.v.P.v.).9X9X1XI.XX>X+X~.z.A.!._..XW.V.A.L.A.",
"r.f.l.z.^.*X`.z.z.j.z.K.z.Q.c.l.l.W.Q._.#X{.z.z.z.D.l.A.L.A.z.A.A.!.A.A.C.A.).K.C.K.K.J.9.i.+X7X>Xv.v.XXP.q.a.A.D.#X6X!.V.D.L.A.",
"j.g.z.v.~.~.~.~.z.z.l.c.A.z.z.z.A.D.@X(.j.l.Q.Q.A.A.A.Q.A.A.A.l.A.Z.Z.D.!.W.D.D.Z.V.Z.S.C.s.a.a.s.9.7.i.k.j.D.C.Q.!.!.!.D.D.D.D.",
"c.K.K.z.l.z.~.~.z.l.z.z.K.z.z.z.A.`.-X(.e.j.A.!.z.z.A.A.A.A.A.A.D.Z.Z.Z.W.W.Z.(.(.S.Z.S.J.J.y.t.9.9.9.i.a.C.(.A.V.Z.Z.Q.D.Z.D.D.",
"z.z.K.~.c.z.l.l.c.z.z.A.Q.A.z.K.z.(.5X$Xl.z.K.k.z.z.z.z.z.l.z.z.b.Q.l.l.W.b.b.{.-X_.Z.V.A.A.z.z.k.k.z.k.k.z.Q.z.l.z.z.z.z.n.Z.V.",
"c.k.z.~.c.k.(.`.~.~.z.z.z.z.M.Q.z.l.!.D.l.A.A.A.z.A.Q.z.z.z.z.A.9.Q.l.l.W.b.b.!._.Q.Z.V.A.A.A.D.P.J.J.K.K.k.z.c.z.z.Q.`._.!.V.V.",
"~.K.z.k.z.K.].*X~.~.n.z.z.K.z.~.A.g.y.y.z.J.z.K.c.v.A.z.z.z.z.o o   z.z.l.b.b.b.W.b.b.b.b.l.l.l.z.z.K.K.c.c.n.h.l.n./.{.`.~.x.n.",
"v.A.z.z.~.$X^.p.l.z.A.z.z.z.z.z.z.z.g.j.K.K.z.z.A.z.A.z.l.X E.> 3 2 OX% x.b.b.l.Q.b.l.b.l.W.W.A.J.z.c.~.~.K.z.n.m.{.}.h.g.n.n.n.",
"K.~.).c._.<X^.w.k.z.z.K.z.z.z.z.A.K.K.A.z.K.K.v.z.z.~._.X . ' t 0 9 ] . . b.b.b.W.b.W.W.W.W.W.W.D.V.A.D.z.z.~./.M.%X%Xg.q.z.~.l.",
"v.`.;X^.~.=X`.c.l.z.z.~.z.z.~.~.K.k.A.K.A.v.~.z.v.~.$X=X  # z f 3 9 Y o . b.l.b.W.W.W.W.Z.l.Z.Q.Z.A.A.l.l.(.%X*X~.`.=X/.h.z.l.Q.",
"A.A.V.z.z.j.A.D.Q.(.`.@X`.Q.z.Q.~.A.z.A.z.A.~.`.~.v.|.. Y.. O 0 Z t O . T.  b.x.z.b.Q.Q.Q.l.z.l.V.A.A.A.A.C.J.J.A.A.z.K.A.j.z.Q.",
"A.p.w.j.j.y.y.z.z._.-X0X-X'.z.Q.A.A.k.z.K.v.~.=X%XK.  + . o ' > + : ' o . o X l.l.b.Q.Q.Q.Q.b.A.Q.A.A.D.A.k.g.y.k.y.q.k.A.k.K._.",
"K.j.j.j.z.l.l.z.z._.5X0X;X_.b.l.A.~.z.l.v.z.^.;X8X%XX 8 W ' 0 * + O 6 ' ' 0   A.l.z.Q.A.z.l.A.Z.z.l.z.A.A.A.k.k.A.k.g.z.~.z.`.-X",
"z.~.~.A.z.A.D.A.Q.Q.{.$X@X!.l.l.z.K.A.z.K.z.K.~.$X  8 : W x f O o = t k Y > u   z.z.V.l.l.A.A.D.A.z.k.A.z.A.K.~.A.K.~.~.z.z.`.:X",
"j.A.K.A.k.A.A.A.Q.l.l.Q.Q.Q.l.l.z.l.z.~.~.~.z.w.C.  . > - R l < > = F F < > . . A.A.D.A.Z.D.!.!.z.z.l.A.Q.z.z.z.l.z.z.l.l.n.Q.Q.",
"z.A.A.A.A.A.A.A.z.l.l.l.b.l.l.z.h.l.~.~.l.z.v.y.. . o O :.l B G < C m N %.O = . X A.A.Q.A.D.A.V.l.z._. X_.A.z.Q.c.z.Q.A.z.~.b.z.",
"k.A.A.~.Q.A.Q.l.A.l.l.l.z.b.l.Q.z.v.~.z.k.l.K.A.. ;.dX*.l ` n B ! m B ` G %.sXG.  V.Z.A.D.Z.j.l.l.(. X@X`.z.l.D.A.A.n.A.A.b.l.z.",
"K.A.A.A.V.l.l.(.Q.b.z.l.Q.z.Q.z.K.z.z.z.z.Q.A.K.. . O O G _ v B } m v } v * o o . D.Z.Z.Z.D.W.D.z.z.A.(.(.A.z.l.A.z.l.l.l.Q.z.b.",
"A.K.A.A.z.l.Z.Q.Q.Q.b.l.z.Q.Q.z.z.~.z.l.~.~.z.. O ' ) / ^ ~ _ ^ ~ +.^ ^ ( ~ ) ' $   Q.W.Q.!.b.Q.A.A.A.V.V.Z.A.Z.D.l.Z.V.Z.A.W.z.",
"A.K.A.A.Q.A.A.l.W.l.Z.b.b.Q.z.z.z.z.z.z.z.Q.z.. ' Q *.B M <.^ ^ ( ( P 2.M v 4.Q ... Z.Q.l.Z.!.z.D.A.V.A.D.D.V.Z.D.A.Z.D.Z.l.Z.Q.",
"K.z.z.z.A.A.Q.Z.b.W.z.z.A.z.z.l.A.z.z.K.z.z.  # W :.=.( M $.B $.^ $.M $.B _ =.:.W $   W.l.l.Q.l.j.A.D.A.V.D.D.A.Z.Z.D.!.Q.V.z.Q.",
"K.J.A.A.A.z.Z.A.z.Q.Q.b.z.~.~.l.J.A.k.~.(.K.  2 5 *.E ~ +.M n =.K %.M M / ^ ! :.- 8   Q.l.l.Q.(.L.(.D.A.A.Z.A.A.Q.Z.V.W.D.A.A.A.",
"K.z.z.K.Q.A.l.l.b.l.z.l.Q.@X$Xz.z.z.l.).*X/.  : - < i B ~ _ B -.v 4.l L [ B c * 5 2   l.A.A.j.`.=X(.z.K.K.K.z.Q.A.z.z.z.z.z.z.Q.",
"K.k.k.z.A.A.Q.Q.l.l.l.z.(.;X;X~.l.v.~.oX;X@X. 2 @ ; G ; p ) F ~ m [ D L s 7 j 5 o 4   D. XoXk. X8X*X`.K.A.z.D.Q.A.A.A.z.l.z.z.z.",
"J.K.K.J.z.z.Q.!.b.l.l.b.Q.`.`.~.v.K.~.^.`.~.. + o ; k N 5 i k F D N l 0 7 D m * @ o . K.oX+X).+X8X<X].A.k.z.z.l.l.z.z.l.z.(.~.z.",
"z.`.$X XA.z.Z.l.l.Q.l.l.b.j.g.Q.K.K.z.k.g.l.  2 3 < ! ) M f f l R l s 6 C E { ; = 4   A.k.J.XX8X;X^.g.k.z.K.z.~.z.z.l.Q./.@X/.h.",
"(. X X(.Z.D.A.l.V.Z.A.D.l.u.y.z.K.A.l.f.f.f.. Y g O ) [ j b a C %.F p C l [ E * g T   D.e.p.^.XX).d.t.k.~.z.l.Q.n.Q.B.n./.,X}.N.",
"8XL.y.y.V.Q.D.!.Z.A.Q.D.V.A.V.A.C.D.C.A.Z.  g >.5 O ) [ L D D H -.L B n ( } ~ * 5 #.S . z.g.q.7.w.s.J.A.K.A.z.l.b.{.:X~.B.&X3X,X",
"qX.Xy.g.Q.(.Q.Z.l.Q.Q.l.A.!.!.z.A.A.A.D.Q.  F iX; * ' L J J j [ $.| b J K B } * * aXU + K.z.p.p.e.k.c.A.A.Q.n.l.b.{.;X$X|.1X1X,X",
"#X X!.z.z.Q.Q.l.Z.Z.W.A.z.z.A.Q.K.D.D.Z.Z.  &.aXo . > F | J m L P P b / _ F 5 o o R.T.  A.A.K.K.K.v.z.c.c.n.z.z.n./.&X<X3X1X2X2X",
"y.j.A.Q.A.A.A.Z.Q.z.Q.Q.A.l.z.A.A.z.A.A.Z.z.. > . . : 0 H P G M P v m [ ) a > .   $ . A.z.A.D.l.z.M.~.l.l.c.K.K.z.p.s.*X9X>XP.v.",
"q.y.l.!.~.A.l.l.Z.Q.Q.Z.A.A.A.l.A.A.A.Q.A.W.Z.A.    o 0 B } B M | M j [ m f o .   A.z.l.A.A.z.z.z.n.Q.z.z.z.~.J.v.p.i.S.XX[.v.i.",
"l.Q.Q.z.l.l.z.Q.l.A.l.l.z.Q.Q.z.W.Q.z.b.z.l.z.A.  X . C ^ ( n B P B F E H R .     Z.Q.Q.A.A.z.A.!.D.V.D.C.A.A.J.J.J.F.i.6.6.a.J.",
"~.A.z.z.z.z.z.z.l.b.Q.Q.l.l.l.b.A.Z.z.Q.Q.b.z.l.    Z z / ^ M G ( v F E { z z .   l.Z.A.z.(.#X`.V.Z.W.D.!.J.C.J.J.L.S.C.i.i.F.J.",
"l.z.A.z.z.Q.z.z.z.z.A.z.Q.n.Q.l.b.l.b.z.Q.A.z.    . t ! n ) D L ( L m [ B m f o     D.W.l.!.#X$XD.A.D.K.~.P.k.v.J.K.c.c.z.l.l.D.",
"l.k.z.z.z.l.z.z.Q.A.~.l.z.l.l.Q.b.Q.A.b.l.b.z.  . z 4.$.M G l H P L H j M <.%.R .   Q.A.l.A.(.Q.A.A.z.A.`.=X).v.c.P.~.c.z.!.Q.l.",
"z.Q.z.z.z.A.A.z.l.c.Q.z.A.z.z.Q.l.l.Q.W.b.Z.l.. + l <.1.^ i C [ =.| j b I 1.<.l o . V.Q.A.A.z.l.n.~.~.c.[.<X|.N.M.N.N.m.m.m.m.b.",
"z.~.c.~.~.c.z.l.z.~.A.z.Q.z.l.z.Q.b.b.l.A.Q.  . z _ O.1.{ i a E ~ G s p O.1.+.} z .   A.z.A.A.A.z.oX%X`.[.<X,X2XN./.|.B.m.m.m.n.",
"K.z.A. XoXD.z.A.$X XD.z.A.Q.A.A.A.b.b.Q.z.z.  # p J I 1.%.* O f { s O p 1.1.I ~ t + . l.z.A.D.K.~.2X<X%X%X1X1X,X|.,X,X/.Q.{.Q.m.",
"(.z.A.(.`.^.~.K.;X=XA.j.l.A.A.z.b.W.l.l.b.A.  y D b o.o.=.O O ` ) a o p $.X.o.J Z y   l.z.D.~.A.~.^.|.8X2XXX2X3X3X&X/.M.'.:X{.b.",
"A.k.A.y.k.$X XK.*X;XA.A.A.A.z.A.z.W.Q.b.W.Z.X t C d I ( :.O * _ Q = . 9 $.X.P p Z y   A.A.~.K.v.k.i.J.=X).v.[.9X>X^.a.s.L.).!.D.",
"A.A.A.e.A.8X$XK.+X;X(.A.z.l.z.!.z.b.l.b.A.Z.  e p D J ~ x o ` ,. .. . y D I X.D q r X l.J.z.z.J.J.p.s.J.p.7.v.P.J.j.i.k.L.C.D.D.",
"C.!.A.z.(.*X+XA.oXoX^.K.z.z.c.z.Z.!.Z.Z.Z.D.  # 0 H [ [ . ;.3.` o . X , > L [ Q q +   Z.Z.l.l.D.A.A.j.q.5.5.5.w.q.y.C.K.J.J.K.A.",
"A.D.K.J.k.k.k.k.g.k.z.z.z.z.Q.z.W.Z.W.Z.Z.D.A.. f z Z y . 9 <._ o Z.l.  & t A l 9 . A.Q.Q.Z.z.Q.~.D.A.j.k.g.k.a.j.k.v.J.A.A.C.J.",
"A.A.A.A.g.p.p.K.e.e.v.K.A.A.Q.A.Z.W.Q.b.l.b.A.. e t 4 .   + ) ^ O   !.z.  + - g t o Q.Q.Q.Z.A.Q.z.z.z.A.(.D.J.A.K.K.z.A.z.A.(.!.",
"z.z.A.z.z.k.z.K.k.j.K.~.z.A.A.A.W.Z.b.z.b.z.z.. :.>.T . A.. O { f   A.Z.Q.  Q #.*.o Z.W.Q.A.l.Q.z.l.A.A.C.A.A.K.K.A.z.v.A.A.D.D.",
"z.l.z.z.z.z.z.v.K.z.K.D.C.A.C.D.A.b.l.b.n.n.X o yXiX. ~.oX`.O - y   A.A._._.o pXrXo . z.W.b.A.l.z.l.z.Q.z.l.A.Q.Q.z.z.Q.Q.A.Z.Z.",
"l.z.n.n.z.l.z.K.K.A.A.L.D.D.A.D.b.Q.z.b.n.X . h 2.,.o (.oX X~.. r . z.(.@X`.O #.*.h .   l.b.Q.b.Q.z.z.Q.A.A.A.A.z.z.l.b.A.Z.Z.W.",
"h.b.m.m.h.h.z.~.J.z.C..X#XD.S.D.K.n.b.z.l.  w wX4.wX=   g.K.[.)..   A.z._.. , >.rX#.@   W.Q.W.b.l.l.h.z.A.A.z.z.l.l.l.l.z.W.Q.W.",
"'.Q.B.h.h.M.n.h.z.z.C.#X6X.XZ.D.z.Q.b.l.b.. U rXtXeX..  e.~.<X`.  _.~.j.z.. C rXtXeXY   b.b.W.b.x.l.n.z.A.z.z.z.z.n.Q.z.b.Q.W.l.",
"&X}.c.h.h.h.N.z.c.z.z.$X;X.XC.D.A.l.A.~.l.. H.rXiX..8   ~.*X%X  (.:X`.z.n.. > D uXeXY.  l.l.W.W.c.c.J.z.K.K.A.v.~.v.n.z.z.b.z.A.",
"3X&X/.h.M./.^.M.z.v.c.c.z.A.A.D.z.Q.~.Q.z.l.. U., :   D.D.C.k.z._.;X$Xz.z.z.o % ; R.  A.b.b.W.l.z.`.`.K.k.K.`.`.c.z.z.z.A.Q.l.Z.",
"<X8X8XXX}.;X].c.c.c.n.g.q.j.D.D.A.K.A.A.!.!.z.. . . C.D.C.j.y.p._.:X{.Q.l.z.~.X . + A.z.Z.W.W.l.K.%X=X(.A.).+XoXc.k.c.K.z.~.z.z.",
"0X8X<X=X&X<X[.c.z.c.z.j.g.l.D.A.A.A.Q.`.$X_.A.D.A.D.A.A.D.V.g.z.Q.!.Q.b.z.z.c.K.z.K.z.z.W.Q.W.W.J.$X$X~..X+XK.g.z.z.K.c.z.z.z.l.",
"XX4X7X9X7XXXK.K.c.v.l.z.Q.Q.z.Q.z.z.^.`.~.M.z.D.A.(.D.V.D.!.l.b.b.l.b.z.z.z.v.K.z.c.A.A.Z.l.W.W.~.*X*XL.+X6XC.y.l.J.c.z.l.z.z.z.",
"8.P.4X9XXXi.s.v.c.K.z.l.A.z.l.A.l.Q.$X~.e.p.z.C.D.C.A.D.~.A.l.z.b.z.b.z.z.N.z.K.K.z.A.A.Z.l.l.Z.(.*X*XJ..X*X(.J.k.v.c.~.c.l.z.K.",
"8.0.J.I.J.d.v.J.J.~.n.A.z.A.Z.Q.h.~.&X{.h.h.z.v.A.C.A.D.b.l.l.b.z.b.n.z.z.c.J.^.oXK.z.A.Z.l.Z.l.A.L.D.C.C.S.L.L.z.v.~.`.`.z.z.z.",
"8.8.8.8.0.J.J.J.k.z.Q.(.A.Q.Q.Z.n.n.$X=X_.~.A.v.C.A.A.A.l.l.z.b.b.l.b.z.A.z.z.oX=X~.z.A.A.W.!.Z.V.y.u.C.a.w.C.A.A.v.~.;X=XN.l.l."
};
