/* XPM */
static char *result[] = {
/* columns rows colors chars-per-pixel */
"24 47 132 2 ",
"   c #040100",
".  c #0C0302",
"X  c #0C0308",
"o  c #0D0908",
"O  c #140504",
"+  c #1D0503",
"@  c #120B05",
"#  c #1A0907",
"$  c #140B09",
"%  c #1B0D0C",
"&  c #14120C",
"*  c #1C1412",
"=  c #240505",
"-  c #220905",
";  c #210D0A",
":  c #2F0F0D",
">  c #22120D",
",  c #2C100E",
"<  c #33150E",
"1  c #241514",
"2  c #2B1613",
"3  c #251915",
"4  c #2B1C16",
"5  c #2E1E1C",
"6  c #331412",
"7  c #391712",
"8  c #331B16",
"9  c #3B1B17",
"0  c #341E19",
"q  c #391E1A",
"w  c #352117",
"e  c #3D2016",
"r  c #34211B",
"t  c #3B211D",
"y  c #332A1E",
"u  c #2F2222",
"i  c #3B2523",
"p  c #352926",
"a  c #3C2A24",
"s  c #3D2C2C",
"d  c #45231D",
"f  c #4A241B",
"g  c #46281D",
"h  c #472520",
"j  c #492724",
"k  c #412925",
"l  c #4C2B23",
"z  c #462C2B",
"x  c #4B2C29",
"c  c #542E29",
"v  c #44322D",
"b  c #4C322E",
"n  c #513025",
"m  c #55352B",
"M  c #5B352A",
"N  c #5F3A2E",
"B  c #4E3433",
"V  c #473A35",
"C  c #4B3A32",
"Z  c #533632",
"A  c #5B3732",
"S  c #543B33",
"D  c #5C3B35",
"F  c #573F3C",
"G  c #5C3E39",
"H  c #68392B",
"J  c #653D33",
"K  c #6A3C36",
"L  c #633F3A",
"P  c #6A3F39",
"I  c #53413F",
"U  c #5F423C",
"Y  c #664136",
"T  c #6B4236",
"R  c #64433B",
"E  c #6D433B",
"W  c #6B493E",
"Q  c #73433C",
"!  c #74493C",
"~  c #7E493F",
"^  c #5F3D40",
"/  c #5D4944",
"(  c #634242",
")  c #6D4542",
"_  c #634945",
"`  c #6C4B43",
"'  c #6B4C48",
"]  c #734641",
"[  c #734B43",
"{  c #7A4A44",
"}  c #744F48",
"|  c #7A4E4A",
" . c #67504B",
".. c #6F534D",
"X. c #75524C",
"o. c #7D514A",
"O. c #75584A",
"+. c #695C55",
"@. c #735754",
"#. c #7C5B56",
"$. c #725C5A",
"%. c #7D5C59",
"&. c #766054",
"*. c #7E6059",
"=. c #824F46",
"-. c #894E47",
";. c #82534C",
":. c #885B4F",
">. c #825651",
",. c #8C5751",
"<. c #855A55",
"1. c #8A5D55",
"2. c #8B585E",
"3. c #945953",
"4. c #85645D",
"5. c #8D655A",
"6. c #84685C",
"7. c #966257",
"8. c #9D605D",
"9. c #816D64",
"0. c #896B66",
"q. c #916E6A",
"w. c #9D7E72",
"e. c #A16A67",
"r. c #A37B73",
"t. c #A87F73",
"y. c #9F8374",
"u. c #9B837C",
"i. c #A48179",
"p. c #B28D82",
"a. c #AE9386",
"s. c None",
/* pixels */
"s.s.s.s.s.s.s.s.s.s.s.s.s.s.s.s.s.s.s.s.s.s.s.s.",
"s.s.s.s.s.s.s.s.s.s.s.s.s.s.s.s.s.s.s.s.s.s.s.s.",
"s.s.s.s.s.s.s.s.s.s.s.s.s.s.s.s.s.s.s.s.s.s.s.s.",
"s.s.s.s.s.s.s.s.s.s.s.s.s.s.s.s.s.s.s.s.s.s.s.s.",
"s.s.s.s.s.s.s.s.s.s.s.s.s.s.s.s.s.s.s.s.s.s.s.s.",
"s.s.s.s.s.s.s.s.s.s.s.s.s.s.s.s.s.s.s.s.s.s.s.s.",
"s.s.s.s.s.s.s.s.s.s.s.s.s.s.s.s.s.s.s.s.s.s.s.s.",
"s.s.s.s.s.s.s.s.s.s.s.s.s.s.s.s.s.s.s.s.s.s.s.s.",
"s.s.s.s.s.s.s.s.s.s.s.s.O s.s.s.s.s.s.s.s.s.s.s.",
"s.s.s.s.s.s.s.s.s.s.s i 1 v 3 s.s.s.s.s.s.s.s.s.",
"s.s.s.s.s.s.s.s.s.. p b r C 1   s.s.s.s.s.s.s.s.",
"s.s.s.s.s.s.s.s.s.p ; i a t ; r s.s.s.s.s.s.s.s.",
"s.s.s.s.s.s.s.s.@ 3 i q > i 5 1 O s.s.s.s.s.s.s.",
"s.s.s.s.s.s.s.$ 4 / Z ; O , F F 1 s.s.s.s.s.s.s.",
"s.s.s.s.s.s.s.O > z S 7 - t D d ; o s.s.s.s.s.s.",
"s.s.s.s.s.s.o 1 t ' L A d A W R q * . s.s.s.s.s.",
"s.s.s.s.s.s.1 $.' ) E K E K ! P @.F . s.s.s.s.s.",
"s.s.s.s.s.s.; z x ] ] ] { Q ] K x k O s.s.s.s.s.",
"s.s.s.s.s.$ F <.| { ,.{ { | 1.Q <.%.z   s.s.s.s.",
"s.s.s.s.s.% _ q.{ { =.,.>.;.;.{ <.q.B o s.s.s.s.",
"s.s.s.s.. % q A P { P 1.o.;.Y ] J A 2 $ s.s.s.s.",
"s.s.s.s.  % - d h c ) [ W [ Y l j 7 - @ s.s.s.s.",
"s.s.s.s.  @ + h J f x D L N g g Y 7 + o s.s.s.s.",
"s.s.s.s.s.5 q j } D l A X.m l R ` 9 t 3 s.s.s.s.",
"s.s.s.s.> ..q j } ! N W 5.Y J ] } 7 b / $ s.s.s.",
"s.s.s.s.a i.6 t ` ! Y ! :.T P ! E : x u.1 s.s.s.",
"s.s.s.s.p  .# # l ! Q P ! T ! ) d O % V % s.s.s.",
"s.s.s.s.s.s.  . q E Q K ! J W L 2 . . s.s.s.s.s.",
"s.s.s.s.s.s.  @ b [ Q K Q J W ) k .   s.s.s.s.s.",
"s.s.s.s.s.s.  4 G ] E Q ! Y ` ] Z ;   s.s.s.s.s.",
"s.s.s.s.s.  & / 1.P Y W { ! L ] <.Z .   s.s.s.s.",
"s.s.s.s.s.. 0 o.e.E n ` 1.T M =.e.' ;   s.s.s.s.",
"s.s.s.s.s.O Z { 8.] < m ) j f 3.3.{ a . s.s.s.s.",
"s.s.s.s.  1 m Q 3.o.+ c ( : 9 7.-.! b % s.s.s.s.",
"s.s.s.s.. u m H =.' = ) L O w :.~ M C * s.s.s.s.",
"s.s.s.s.  1 l T ` k ( 2.z . 3 M ! R y & s.s.s.s.",
"s.s.s.s.s.o k ( B 1 %.| # s.$ 4 F D w . s.s.s.s.",
"s.s.s.s.s.O z v %   k ] - s.s.o 2 n i s.s.s.s.s.",
"s.s.s.s.s.% q.@.% s.O j 0   s.s.5 0.@.. s.s.s.s.",
"s.s.s.s.. 2 r.R s.s.s.% 3   s.s.O 4.6.>   s.s.s.",
"s.s.s.s.O O.t.D . s.s.s.o s.s.s.; 4.w.I . s.s.s.",
"s.s.s.s.4 y.p...$ s.s.s.s.s.s.s.2 6.i.9.* s.s.s.",
"s.s.s.s.3 9.` 1 o s.s.s.s.s.s.s.O r &.+.* s.s.s.",
"s.s.s.s.s.$ O . s.s.s.s.s.s.s.s.s.. O s.s.s.s.s.",
"s.s.s.s.s.s.s.s.s.s.s.s.s.s.s.s.s.s.s.s.s.s.s.s.",
"s.s.s.s.s.s.s.s.s.s.s.s.s.s.s.s.s.s.s.s.s.s.s.s.",
"s.s.s.s.s.s.s.s.s.s.s.s.s.s.s.s.s.s.s.s.s.s.s.s."
};
