/* XPM */
static char *result[] = {
/* columns rows colors chars-per-pixel */
"64 64 226 2 ",
"   c #040201",
".  c #0B0100",
"X  c #0B0902",
"o  c #060706",
"O  c #130201",
"+  c #1A0201",
"@  c #120A03",
"#  c #1B0A02",
"$  c #150C0A",
"%  c #1C140B",
"&  c #210301",
"*  c #210B05",
"=  c #230F09",
"-  c #2A0C07",
";  c #310D06",
":  c #2B1006",
">  c #25130A",
",  c #2A120D",
"<  c #2A1B0E",
"1  c #251307",
"2  c #34110D",
"3  c #301B0F",
"4  c #231412",
"5  c #2C1513",
"6  c #271B15",
"7  c #3A1C13",
"8  c #12230D",
"9  c #182E10",
"0  c #2A2616",
"q  c #3C231C",
"w  c #392419",
"e  c #252A13",
"r  c #3B2521",
"t  c #3E2922",
"y  c #322723",
"u  c #383828",
"i  c #451F15",
"p  c #432117",
"a  c #44231C",
"s  c #4A231B",
"d  c #452522",
"f  c #492A23",
"g  c #44362B",
"h  c #5C342A",
"j  c #5D392E",
"k  c #55372D",
"l  c #4C3A35",
"z  c #5C3D34",
"x  c #553C36",
"c  c #63392E",
"v  c #63342B",
"b  c #643C34",
"n  c #693D35",
"m  c #653E39",
"M  c #673731",
"N  c #763E3D",
"B  c #364A2D",
"V  c #474226",
"C  c #5D413C",
"Z  c #57423A",
"A  c #5C5B3F",
"S  c #414732",
"D  c #634035",
"F  c #6B4136",
"G  c #65433B",
"H  c #6B433B",
"J  c #6C493D",
"K  c #734136",
"L  c #73443C",
"P  c #7B433D",
"I  c #7B493E",
"U  c #73483F",
"Y  c #5C613F",
"T  c #4C6337",
"R  c #5C4542",
"E  c #594843",
"W  c #5F5C48",
"Q  c #644A42",
"!  c #6E4A42",
"~  c #6D4C4C",
"^  c #6A4943",
"/  c #734742",
"(  c #794643",
")  c #744C44",
"_  c #7B4C45",
"`  c #734D49",
"'  c #794C4B",
"]  c #714748",
"[  c #67544B",
"{  c #755144",
"}  c #7A524C",
"|  c #77504B",
" . c #6A5453",
".. c #6C5F50",
"X. c #7D5450",
"o. c #596C45",
"O. c #517942",
"+. c #814B44",
"@. c #824E4A",
"#. c #814745",
"$. c #83544C",
"%. c #94655B",
"&. c #8E6C68",
"*. c #9B6B64",
"=. c #956B67",
"-. c #8D726B",
";. c #8B7961",
":. c #937166",
">. c #94726D",
",. c #9A746A",
"<. c #9C7572",
"1. c #957773",
"2. c #8F7574",
"3. c #A36B67",
"4. c #A4736D",
"5. c #A6716A",
"6. c #A57B76",
"7. c #229C26",
"8. c #2B9D2E",
"9. c #2B982B",
"0. c #2B9432",
"q. c #2F9F31",
"w. c #349D3A",
"e. c #318C2E",
"r. c #26A52A",
"t. c #2BA42D",
"y. c #2AA92E",
"u. c #20A123",
"i. c #2DA431",
"p. c #2DAC32",
"a. c #26A230",
"s. c #31A535",
"d. c #33AC34",
"f. c #34AB3A",
"g. c #3AAD3B",
"h. c #3CAA37",
"j. c #2FB133",
"k. c #32B235",
"l. c #3BBC37",
"z. c #35B53A",
"x. c #3AB53C",
"c. c #36BC3D",
"v. c #3ABC3E",
"b. c #36BA36",
"n. c #41BD3C",
"m. c #41B93A",
"M. c #37C13E",
"N. c #3BC13D",
"B. c #39C136",
"V. c #43C23E",
"C. c #49C33D",
"Z. c #44C83E",
"A. c #37B740",
"S. c #3AB542",
"D. c #36BD42",
"F. c #3CBD42",
"G. c #3FB749",
"H. c #3EBD49",
"J. c #3FAE45",
"K. c #5F9F4F",
"L. c #669B5A",
"P. c #74955A",
"I. c #48AD4A",
"U. c #42B644",
"Y. c #41BD43",
"T. c #42BD4A",
"R. c #49B949",
"E. c #5DAF53",
"W. c #64B85B",
"Q. c #7A886C",
"!. c #36C141",
"~. c #3CC143",
"^. c #3DC149",
"/. c #42C244",
"(. c #49C546",
"). c #4BCA44",
"_. c #44C34A",
"`. c #4BC54B",
"'. c #46C94B",
"]. c #4BCB4D",
"[. c #42C841",
"{. c #52CE4C",
"}. c #53C94B",
"|. c #4DD04D",
" X c #54D24C",
".X c #59D14E",
"XX c #4CCC52",
"oX c #49C953",
"OX c #55C653",
"+X c #53CD53",
"@X c #5BCE5B",
"#X c #54CC57",
"$X c #4ED153",
"%X c #4FD359",
"&X c #53D355",
"*X c #5BD453",
"=X c #5CD955",
"-X c #55D45A",
";X c #5AD55B",
":X c #54DA5C",
">X c #5CDA5C",
",X c #56DA55",
"<X c #60CE5B",
"1X c #62DA56",
"2X c #63DC5B",
"3X c #69DE5D",
"4X c #61D556",
"5X c #67E25D",
"6X c #5DDC61",
"7X c #5CD763",
"8X c #5ECB60",
"9X c #64D562",
"0X c #64DD63",
"qX c #6BDD67",
"wX c #63E365",
"eX c #68E367",
"rX c #8A8069",
"tX c #A7867A",
"yX c #B1918B",
"uX c #BEA296",
"iX c #BBA1A2",
"pX c #C09994",
"aX c #C5A39A",
"sX c #CEB1AD",
"dX c #D0B3AF",
"fX c #CAA8A6",
/* pixels */
"c.v.Y.v.v./.Y.v.c.v././.~.v.v.v.~.~.D.~.!.F.F.c.F.F.F._.7X-XY.x.S.H.F._.7X%XD.D.D.~.M.M.c.F.~.c.v.n.v.n.n.v.m.x._.U.F.F.H.H.F.S.",
"v.v.F.v.v.~.v.v.v.F.F./.'./.c.v.c.F.~.~.D.c.c.D.c.~.F.H.Y.`.+X_.F.H.F.F.oX'.D.D.~.F.M.F.v.c.N./.(.V.l.n.n.v.F.S.Y.Y.Y.F.H.F.F.F.",
"/.F.v.n./.v.v.n.N.v.v.'.,X'.c.v.c.D.~.F.z.c.~.D.F.F.F.x.p.Y.-X`./.V.n.v.n.V.N.N.N.l.l.V.Z.V.m. X1XC.m.V.V.C.n.l.v.n.V.Y.v.v.F.F.",
",X'.v.v.v.v.v.Y.F.c.v.&X>X'.c.Y.D.c.D.~.D.~.~.D.F.F.F.A.x.oX7XoX/.].(.v.c.v.N.v.l.l.B.V.].).B.).5X=XC.V.)..XV.n.v.m.N.N.N.c.v.~.",
"eX&XY.c.c.v.c.v.v./.~./.]./.v.~.~.c.A.c.D.~.~.c.c.v.c.H.Y._.]._.(.>X{.v.v.l.m.l.v.l.m.V..X*X}.}.1X5X*X(..X1X(.N.v.v.c.M.v.v.v.N.",
"6X$X/.v.v./.F.c.v./.N.j.d.c.F.v.~.~.~.D.F.F.F.D.F.F.x.F.F.k.p.k.).2X{.v.n.v.v.n.m.m.m.V.{.1X2X1X1X5X1X*X=X=XC.v.V.N.M.c.v.v.v.M.",
"~./.v.v./.].`.v.F./.v.k.y.c.v.c.M.~.!.^.'.^.F.F.F.~.F.F.F.p.p.x._.XX_.H.F.F./.Y.F.Y.m.R.U.}.qXqX3XE.}.9X#XY.F.F.~.'.oX^.A.H.Y.F.",
"u.k.c.v.(.,XXXv.v.z.v./.v.v.Y.c.v.!.!.^.:XXXv.F.c.F.v.F./.F.F.F.F._.F.F.S.v._.Y.H.Y.Y.U.t.q.#X9X<Xm.h.*XY.t.f.F.F.%X7X^.A.H.H.F.",
"b.k.v.F././././.v.v.v.v.F.v.v.v.F.~.$X_.z.D.F.~.F.F.F.~.F.F.F.v.D.D.D.H.^.!.D.H.S.S.D.G.S.g.f.f.g.q.9.s.f.z.H.F.^.^.^.^.H.D.H.H.",
"Y.Y.Y.m.c.F.[./.v.c.v.v.Y.v.v.v.F.'.6X_.y.k.Y.F.v.v.F.F.F.v.F.F.F.H.D.D.^.!.D._.^.H.H.G.U.S.d.i.q.q.t.s.f.H.H.F.D.D.H.D.D.H.H.H.",
"x.v.Y.Y.v.v.c.z.v.v.v.v.v./.v.n.c._.6X$Xz.F.~.F.v.v.v.v.v.v.v.v.M.!.D.z.!.M.M.|.:X'.D.z.F.Y.F.v.x.x.x.x.x.v.F.v.c.v.v.v.v.F.H.A.",
"n.m.v./.n.x.`.]././.v.n.F.v.F./.F.A./.~.c.F.F.F.v.F.~.v.v.v.v.v.v.!.c.c.!.M.M.^.'.~.D.c.F.F.F.~.R.U.Y.Y.Y.m.v.V.v.v.~.].'.~.c.A.",
"/.Y.x.v.m.Y.XX&X/./.Y.v.v.n.~./.F.k.t.p.v.Y.v.Y.v.Y.v.v.v.F.F.~.N.M.M.M.B.c.M.M.!.M.M.M.M.c.c.c.v.v.m.Y.v.n.V.l.B.M.(. X]./.b.N.",
"v.v.m.v./.&X(.k.c.v.v.v.v.v.v.v.v.F.z.x.Y.Y.v.v.n.v.F.v.z.v.~.v.M.B.B.B.c.M.M.M.~.M.c.M.M.!.D.~.Y.Y.Y././.n.v.v.v.|. Xv.k.N.V.M.",
"Y.Y.].Y.].>X(.r.c.v.v.F.v.v.v.v.F.Y.Y.Y.x.Y.Y.m.v.v.(.'.v.v.F.c.0.c.c.v.B.M.!.M.!.M.!.!.!.D.!.D.^.A.A.~.Y.v./.'.V.*X,Xk.r.v.~.v.",
"v.].>X(./.;X].m.v.v./.~.n.v.F./.Y.x.v.Y.v.F.Y.m.v./.&X-XF.e.F.. O O M.M.!.c.c.M.!.!.!.!.D.c.D.!.D.F.F.A.v./.&X*X[.].*X(.l.v.c.~.",
"v.v.A.F.c.x.F.F.F.[.XX$X'.~.v./.F.F.x.F.Y.n./.].(.m..X2X.X. W.5 6 > W.V.].|.v.b.v.N.~.~.~.c.c.D.A.F.F.F.S.F.F.U.F.S.v.F.F.z.v./.",
"Y.d.y.k.z.p.p.F.v.'.>XwX:X_.v.F.F.F.x.v.Y.v.`.*X*XY.*X5X. .  .r r y  .e.,X&XB.c.c.M.~.!.~.~.v.F.~.F.F.F.H.x.d.p.x.d.t.x.F.x.Y.'.",
"Y.z.k.x.F.x.z.F.c.'.6XeX:X'.c.c.F./.c.c.v.v./.>X0X&X>X0X. O R q , t l % >X,XF.v.v.v.~.F.c.v.F.D.v.c.F.F.Y.v.v.x.F.x.k.F.~.v.].:X",
"v./._.F.F./.~.c.~.~.|.&X$X[.D.c.F./.v.v.m.v.Y./.&XqX}.$ Q.. & r R r # # /.(.v.F.v.v.D.A.c.v.F.H.F.v.x.H.v.F.F.Y.v.Y.[.~.v.v.].,X",
"x.F.~.F.x.c.F.F.~.c.M.~.~.~.c.c.v.v.~.~././.v.t.F.-Xo   . O Q , # > [ . . f.D.F.F.F.F.F.F.H.H.H.v.v.c.F.~.v.v.F.c.v.~.v.c.N./.~.",
"v.F.F.Y.D.F.F.F.c.c.c.c.v.c.c.M.l.c././.v.F.F.p.d.z.  4 l E t + O + r R E e F.H.F.F.F.F.H.H.D.D.c.v.'.XX'.F.F.~.v.v.v.v.N./.v.c.",
"x.F.F.F.F.F.~.D.c.v.c.v.M.v.c.~.v.v.Y.v.b.c.Y.Y.f.    4 5 G x < - < R l 5 5 8 F.D.D.D.H.F.D.D.D.c._.XX$X].F.F.F./.v.v.~.F.M.c.v.",
"F.F.F.F.v.c.c._.~.~.c.c.M.F.v.~.n.v.v.F.m.v.Y.F.F.. 6 = 2 z J k : z C G , 4 0 9 F.F.D.D.D.F.D.F.v.v.F._.[.F.x.c.F.c.c.c.c.~.v.M.",
"Y.F.F.F.v.c.D.~.~.M.~.c.c.~.~.v.F.Y.v.v./.F.v.v.. . + + 1.) b n ) b G ) :.& + @ 8 ~.~.~.!.~.F.~.F.F.F.c.D.F.D.D.F.A.D.D.A.D.F.F.",
"F.Y.F.Y.~.F.F.c.!.c.c.M.v.~.v.v.v.v.v.v.v./.v.v.. 2.sX<.b _ H n I v F U G >.sXL.. ~.D.D.z.D.~.D.F.F.A.F.H.D.S.D.F.F.F.D.!.c.D.~.",
"x.Y.F.v.F.F.~.D.M.~.~.c.~.v.c.v.F.v.v.Y.F.v.F.. + O + + n ( N #.I +.I I M + + O O . c.F.c.v.~.v.A.S.H.F.A.H.H.F.^.H.D.^.~.A.c.~.",
"Y.F.F.v.F.v.D.~.M.!.~.v.v././.c.Y.F.x././.F.v..  .] 6.M n 4.#.P +.K I 5.H v 6.Q o.. !.!.!.c.~.[._.T.H.H.D.F.F.F.D.D.D.H.F.F.F.F.",
"Y.Y.x.Y./.F.c.A.v.c.~.c.v.$X&Xv.x.v.v.(.-X'.. @  .>.<.] M *.M 5.P 5.K 5.v _ &.1.[ @ . v.Y.v.x.oX;X(.F.F.Y.Y.F./.F.v.v.v.F.v.v.F.",
"Y.x.x.v.F.F.~.~.M.c.c.v.[.>X>X/.v.m./.XX>X&X  % 5 &.~ ' / / n *.K %.n n ( ` ) >.> 4 . ~.XXoXv.oX0X-X`.Y.F.v.F.F.c.F.F.v.c.v.v.F.",
"Y.Y.Y.F.F.v.F.~.c.M.c.c.^.$X]./.v.m./.(.]./.  6 4 5 d M X.N m ,.F *.c ' ) b d , , y . Y.+X#X`.#XwX2X+Xv.x.v.v.c.c.v.v.v.N././.v.",
"x.].-X].F.c.D.D.c.~.c.c.F.k.j.F.Y.Y.Y.x.k.c.. 4 $ & m - a ' z ! j } b ~ i 2 z , + % . S.x.Y.+X9X1X(.k.x.v.Y.v./.v.F.v.N.'.&X(.l.",
"_.XXoX_.F.F.!.A.D.A.F.~.z.p.p.F.H.H.A.f.p.k.. R O + C H ; i D C C D z i ; z C + O l   v.t.d.(.+X`.d.s.v./.F.c.~.N.!.Z.M.).1X XC.",
"0X^.p.p.F.~.^.^.D.D.H.F.A.A.A.F.x.F.F.F.F.. f <.* 3 ! ( n p p D D D q 7 G { J 2 2 Q O F.Y.k.r.7.q.h.m.F.n.F.c.c.N.|.,X/.V.=X1X1X",
"eXoXp.z.F._.~.!.D.~.~.c.F.~.~.F.F.F.F.F.H.. ) uX< * } / n F i H ,.m i G h } { 2 2 1.g   Y.x.d.d.y.x.Y.m.v./.v.c.M. X>X&X.X3X5X5X",
"-XXX/.A.F.~.~.z.D.F.~.D.F.F.F.F.H.H.F.F.F.  2.fX< O ` ' J b b J *./ H G ) J U & , iX... F.Y.Y.Y.n.m.Y.F.F.n.N.v./.[.*X5X5X3X4X4X",
"p.z.D.F.F.F.F.F.F.F.!.~.F.c.c.F.v.F.v.F.c.F.. , O # ~ ) | H b { 4._ b j U } ! & & iXQ.O v.F.F.c.v.~./.v.v.v.Y.Y.v.d.x.@XqX<XR.m.",
"r.p.F.~.~.F.c.c.!.~.D.F.F.~.F.v.F.F.F.F.~.D.F.D.O @ - G / ) D ) U U b ) _ z : # O 4 O c.F.H.v.F.c.N.~.A.v.v.Y.Y.F.d.s.U.OX}.m.s.",
"v.~.~.v.c.c.v.~.c.F.M.v.v.~.F.v.F.~.v.~.v.c.v.F.. . 5 d { / D c $.v F { / s 1 O   D.~.F.F.F.F.F.Y.F.D.F.H.S.S.U.U.U.J.s.8.8.g.I.",
"F.F.v.v.v.v.v.v.v.M.v.~.c.c.c.M.~.c.c.~.~.v.v.v.  O O a F _ c c L n D J b s . .   c.D.F.v._.$XXXF.D.H.H.F.H.F.U.U.R.S.A.s.s.S.G.",
"v.v.F.v.v.F.v.v.v.v.~.v.~.v.~.c.c.!.v.M.F.c.v.~.v.. + G / U F F I F j U ) b O   ~.!.~.~.c.^.$X&XF.F.F.U./.R.m.m.U.Y.n.n.F.c.D.~.",
"c.c.v.v.v.v.v.v.F.~./.c.v.c.M.~.c.M.M.F.c.~.v.v.. * 7 G D _ c F _ F D J m b t X   ^.!.~.c.F._.~.F.F.F.Y.].;X`.x.m.Y.Y.m.v.F.~.D.",
"v.v.v.v.v.F.F.v.v.v.~.v.v.v.v.~.~.~.M.M.c.~.~.  . Q :.:.F F D L I K D D N =.-.E     F.F.F.F.v.c.~.(.[.n.}.1X.XC.C.C.C.B.B.N.B.M.",
"F./.F.[./.v.n.c.v./.~.D.~.v.v.c.M.c.D.M.M.v.v.  + z ,.,.H D v +.+.I F D ( 4.&.R X o c.F.F.F.F.F.F.+X&X`.{.2X5X.XC.).,XZ.B.B.B.N.",
"Y.v.F.oX+XY.F.Y.XX#XF.x.F.~.F.F.M.F.c.M.F.F.  . R ! / *.{ p / / *.+.h s +.3.$.] Z   . c.x.F.Y.Y./.*X2X*X.X3X5X1X.X1X2X).N.|.~.B.",
"_.F.F./.'.(./.Y.>X>XF.x.v.F.F.v.v.M.!.~.v.M.. O w ) @.*.:.a 7 ] +._ p s 3.3.N ' t X   F.F.F.Y.v./.(..X0X4XOX1X3X5X1X).n.[.,X|.B.",
"F.x.F.p.x.&XoXY.-X>XF.v.F.F.v.F.!.M.M.c.~.c.. r z D P _ 1.+ d a _ / a + 5.P #.n x u . F.Y.Y.Y.U.S.d.U.;X`.m.}.qX>XR.f.g.T.T.^.H.",
"v.F.F.y.F.0X&X/.+X6X_.F.v.c.F.F.!.v.~.c.M.D.O r f b P } j # O d ] } w # b +.P n t 0   H.F.F.v.Y.U.s.d.R.d.8.m.R.Y.h.d.S.U.H.H.H.",
"F.F.Y.S.(.@XXXY.+X+X(.Y.v.c.V.v.^.D.!.D.D.H.  + a ^ } / r # O d } G g O 7 | { ) q X   D.D.c.F.~.F.F.x.y.7.7.r.r.r.d.x.U.Y.Y.S.U.",
"H.H.Y.F.F.x.x.x.k.x.v.v.v.v.N.v.D.!.D.D.D.F.F.. > r r 6 X . + ' ( | +   $ 6 q q 1   ~.~.F.c.F.F.Y.Y.A.z.f.S.z.f.x.x.Y.Y.Y.F.F.U.",
"F.F.F.F.z.y.d.Y.y.y.v.Y.H.F.F.F.D.!.~.M.c.v.F.X g R y     F.+ ( 4.` . F.o   w Z q O !.~.~.F.~.!.v.v.A.F.Y.F.U.F.Y.F.v.v.F.F.H.^.",
"v.v.v.F.x.x.F.Y.x.x.Y.Y.v.F.F.F.D.!.v.M.~.M.F.. A 1.S   F.  -.<./ O F.A.H.  g 1.J O D.~.~.D.c.F.v.v.D.~.F.F.H.Y.Y.F.x.m.F.F.F.H.",
"v.v.v.v.v.v.n.v.Y.v.U.H.S.H.S.H.~.c.c.M.N.N.. O ;.L.O . &X  q -.{ . v.F.'.'.O :.:.+ . M.M.c.~.v.v.c.M.~.v.c.v.F.~.v.c.~.~.F.D.D.",
"c.c.N.N.v.v.v.n.Y.F.F.H.H.F.F.H.M.~.M.v.M.  . V <.K.O `. Xo @ ..[ O . [.&X].+ ;.,.V . . F.M.M.!.M.M.v.v.F.F.F.F.v.v.v.M.F.F.D.!.",
"v.M.N.B.l.l.l./.v.Y.F.oX%XH.H.H.N.F.v.v.M.. % >.6.K.0 . k.Y.O @ [ B   F.'.. - P.tX:.> . !.!.!.M.v.l.l.F.F.F.v.v.c.v.c.v.M.M.~.D.",
"Z.N.V.l.l.V.N.c.x.v.S.%X7XoXS.H.F.~.M.v.v.. T tXyX6.O.@ y./.>X. e B   k.M.. Y tXtXtXO.. M.M.!.M.c.v.N.v.F.v.v.F.v.M.v.M.F.~.!.D.",
"=X Xm.l.n.B.C.l.n.v.v.&X7XoXS.H.F.c.F./.c.  L.yXaXo.0   Y.#X*X`.. B   F.F.. 0 A uXyXI.. M.c.!.!.m.n.Y.v.Y.Y.n.v./.n.N.v.v.v.c.F.",
"5X=X).v.V.).(.n.v.m.n.v.v.F.F.H.v.F./.~.v.v.. W.o.< . H.F.Y.v.x.|.  o N.c.v.X < O.v.. M.M.M.!.c.v.].].Y.z.Y.].].n.v.v.v.~.~.c.D.",
"2X0X0X}.{.=X}.n.v.N.n.k.r.f.F.F.F./.v.F.~.~.F.  O . D.H.H.z.p.k.'.o |.M.c.v.n.X . . F.v.D.~.!.c.Y.*X-X_.Y.`.#X+Xm.x.n.Y.v./.v.v.",
"wX0X2X;X>X2X Xn.m.V.v.b.j.F.^.H.F.F.F.].-X'.F.F.A.H.H.S.F.A.k.c.o ~.!.N.v.v././.v.Y.v.v.!.~.!.!.F.#X+X_.XX+XY.f.v.v.Y.n.v.v.v.c.",
"OX8X9XqX9XOXR.Y.n.n.v.v.~.~.v.~.v.v.'.]././.v.S.F._.F.A.~.H.v.~.M.v.M.v.v.n.m./.v.m.F.F.D.c.D.!./.-X-XT.#X7XA.d.x.F.n.v.v.v.v.v.",
"0.R.8XqXOXs.k.m.n.Y.v.c.~.v.z.~.v.N.&X/.y.d.v.H.H.H.F.H.~.~.c.F.M.v.M.v.v.n.m.Y.Y.v.F.Y.D.c.c.D._.-X-XU.oX7XT.F.x.m.F./.v.v.v.V.",
"0.J.I.I.U.g.g.Y.Y.Y.F.F.F.D.!.~.v./.,X Xl.b.v.m.S.F.F.F.v.c.c.c.v.M.M.v.v.Y.F.(.+XY.v.F.D.c.D.c.H.T.U.S.S.S.T.T.v.m./.}.].v.v.v.",
"e.0.w.0.w.U.U.R.x.x.F.[.F.~.~.F.v.v.,X&X(.(.n.S.F.S.H.F.c.c.M.M.M.c.v.v.v.v.v.+X>XY.v.F.!.!.^.D.A.p.a.F.f.t.S.F.Y.m./.>X,X/.z.v."
};
