/* XPM */
static char *result[] = {
/* columns rows colors chars-per-pixel */
"64 64 229 2 ",
"   c #040201",
".  c #0B0100",
"X  c #050900",
"o  c #0E0B04",
"O  c #0A050C",
"+  c #140201",
"@  c #1C0200",
"#  c #120C04",
"$  c #1D0A02",
"%  c #17090B",
"&  c #141409",
"*  c #161409",
"=  c #1B1614",
"-  c #220301",
";  c #240C03",
":  c #2C0D03",
">  c #250D0B",
",  c #2A090C",
"<  c #310B09",
"1  c #25120B",
"2  c #2C120C",
"3  c #25180A",
"4  c #32140C",
"5  c #351007",
"6  c #290F10",
"7  c #2B1413",
"8  c #271915",
"9  c #361815",
"0  c #142C0F",
"q  c #2B251A",
"w  c #34231B",
"e  c #3C221C",
"r  c #382418",
"t  c #2A2F10",
"y  c #342522",
"u  c #3C2422",
"i  c #3B2B24",
"p  c #372A25",
"a  c #363323",
"s  c #431F1A",
"d  c #471D15",
"f  c #45231B",
"g  c #49241C",
"h  c #472319",
"j  c #51261D",
"k  c #442524",
"l  c #442C28",
"z  c #443229",
"x  c #57352C",
"c  c #5D392E",
"v  c #5C3B32",
"b  c #583A36",
"n  c #633A2E",
"m  c #64362D",
"M  c #643D35",
"N  c #6B3B34",
"B  c #663E39",
"V  c #683B36",
"C  c #713E3A",
"Z  c #1C511B",
"A  c #3C452B",
"S  c #216A22",
"D  c #5D4036",
"F  c #5C413C",
"G  c #544238",
"H  c #485431",
"J  c #634135",
"K  c #6A4136",
"L  c #64423A",
"P  c #6B433B",
"I  c #6D4A3E",
"U  c #67493E",
"Y  c #73453E",
"T  c #794A3D",
"R  c #76483B",
"E  c #4A773F",
"W  c #5C3F41",
"Q  c #5C4641",
"!  c #574541",
"~  c #5B5642",
"^  c #644342",
"/  c #6C4543",
"(  c #6D4A43",
")  c #654D49",
"_  c #6C4D4B",
"`  c #614B44",
"'  c #744641",
"]  c #7B4643",
"[  c #744B43",
"{  c #7B4B45",
"}  c #724D4A",
"|  c #7A4E49",
" . c #69544E",
".. c #6B5649",
"X. c #75534A",
"o. c #7A524B",
"O. c #755248",
"+. c #785152",
"@. c #6A5250",
"#. c #506F44",
"$. c #6A604C",
"%. c #81453D",
"&. c #814C44",
"*. c #815049",
"=. c #9C675F",
"-. c #8B6E6A",
";. c #9C6C65",
":. c #946E6D",
">. c #9D6D69",
",. c #916B62",
"<. c #8E786C",
"1. c #9D7165",
"2. c #97736A",
"3. c #9B7473",
"4. c #957673",
"5. c #947273",
"6. c #A46C66",
"7. c #A2726B",
"8. c #A77974",
"9. c #229C26",
"0. c #2B9D2E",
"q. c #299F27",
"w. c #328F30",
"e. c #2B9432",
"r. c #2F9F31",
"t. c #349C38",
"y. c #2D8830",
"u. c #26A52A",
"i. c #2BA42D",
"p. c #2BAA2E",
"a. c #20A123",
"s. c #2DA431",
"d. c #2DAC32",
"f. c #26A230",
"g. c #31A535",
"h. c #33AC34",
"j. c #34AB3A",
"k. c #3AAC3B",
"l. c #39A639",
"z. c #33B235",
"x. c #3BBC37",
"c. c #35B53A",
"v. c #3AB53C",
"b. c #36BB3D",
"n. c #3ABC3E",
"m. c #38BB35",
"M. c #2FB133",
"N. c #41BD3C",
"B. c #41B93A",
"V. c #37C13E",
"C. c #3CC13D",
"Z. c #39C136",
"A. c #43C23E",
"S. c #49C33D",
"D. c #44C83E",
"F. c #37B740",
"G. c #3AB542",
"H. c #36BD42",
"J. c #3CBD42",
"K. c #3EBD49",
"L. c #3FB749",
"P. c #3FAE45",
"I. c #4C9A44",
"U. c #689B54",
"Y. c #70925A",
"T. c #43A944",
"R. c #42B644",
"E. c #41BD43",
"W. c #42BD4A",
"Q. c #49B849",
"!. c #53BA56",
"~. c #63B459",
"^. c #63A75E",
"/. c #778E61",
"(. c #7E9A66",
"). c #6EB366",
"_. c #36C142",
"`. c #3CC143",
"'. c #3EC149",
"]. c #42C244",
"[. c #49C546",
"{. c #4BCA44",
"}. c #44C34A",
"|. c #4BC54B",
" X c #46C94B",
".X c #4BCB4D",
"XX c #42C841",
"oX c #52CE4C",
"OX c #53C94B",
"+X c #4DD14D",
"@X c #54D24C",
"#X c #58D14E",
"$X c #4CCC52",
"%X c #49C953",
"&X c #55C653",
"*X c #52CD53",
"=X c #5BCE5B",
"-X c #54CC57",
";X c #4ED153",
":X c #4FD359",
">X c #53D355",
",X c #5BD453",
"<X c #5CD955",
"1X c #55D35A",
"2X c #5AD45A",
"3X c #55DA5B",
"4X c #5CDA5C",
"5X c #55DB54",
"6X c #62DA56",
"7X c #63DC5B",
"8X c #69DE5D",
"9X c #61D556",
"0X c #60CE5B",
"qX c #67E25D",
"wX c #5DDC61",
"eX c #5CD763",
"rX c #5ECB60",
"tX c #64D562",
"yX c #64DD63",
"uX c #6BDD67",
"iX c #66E367",
"pX c #928E70",
"aX c #A6887C",
"sX c #81B070",
"dX c #9B888A",
"fX c #AF908A",
"gX c #B7B1A4",
"hX c #C4A59A",
"jX c #D2B3B2",
/* pixels */
"b.n.E.n.n.].E.b.b.n.].`.].n.n.n.`._.J._.`.J.H.H.n.`.J.}.wX1XE.v.F.K.J.}.eX:XH.H.b._.`.`.b.V.C.b.x.].n.N.N.v.N.J.E.E.n.G.K.W.K.J.",
"n.n.J.n.n.].n.n.n.A.`.]. X].b.n.J.H.`.`.H.b.b.J.n.J.K.J.E.|.$X|.J.K.J.J.%X XH.H.`.`.V.b.b.n.V.].[.N.x.N.N.n.N.G.W.E.E.K.J.H.J.J.",
"].J.n.A.J.n.n.n.J.n.n. X>X Xn.n.H.b.`.`.b.b.`.H.J.J.K.c.s.K.1X|.E.A.A.n.n.A.n.C.C.x.x.A.].A.x.oX6XS.N.B.A.S.B.x.v.N.A.C.n.n.J.n.",
">X Xn.n.N.n.n.].n.n.n.;X4X Xn.J.J.b.b._.b.H.`.H.J.J.J.c.v.$XeX%X]..X[.n.b.n.C.C.x.m.x.A.@X{.A.{.qX<XS.A.{.@X].N.n.N.n.A.C.b.n.`.",
"iX>X].b.b.v.b.n.J.C.`.]..X].n.`.`.b.H.b.H.`.`.H.n.n.v.J.].}.$X[.|.4X@XN.v.N.x.N.x.B.N.A.#X<XOXOX6XqX9X{.#X6X{.N.C.n.b.V.n.n.V.C.",
"wX>X].v.n.].`.n.n.].`.z.M.b.n.J.`.J.H.J.J.J.H.J.n.K.J.J.J.z.d.j.{.7X+X].N.n.N.x.x.N.N.A.OX6X7X6X6XqX9X#X6X9XD.v.A.C.V.b.n.n.n.n.",
"`.].C.n.]..X Xn.n.].n.z.p.b.J.b.H.`._.'. X'.n.J.b.`.J.n.J.d.t.. % . T.0 J.J.].E.R.E.N.Q.E.|.uXuX8X!.OXtX*XE.J.J.H.%X%X'.F.J.W.J.",
"a.M.b.n.{.1X.Xn.v.b.n.J.n.A.J.b.b._.`. X:X+Xn.n.J.J.b.J.E.o R.> > 8 !.  G.n.}.E.R.E.E.R.s.r.-XtX0XB.B.&XE.i.j.J.H.:XeX'.F.K.K.J.",
"m.z.n.N.`.].].].n.n.b.n.N.n.n.n.J.`.$X}.c.b.J.`.J.n.J.J.. + gX7 8 > gX.   H.J.K.G.F.K.L.G.k.j.j.l.r.0.g.j.G.J.J.'.'.'.'.K.K.K.'.",
"E.E.E.v.b.C.].].v.b.n.J.].n.n.n.J. XwX}.p.c.`.K.J.n.J.J.. + Q k 7 i ! % . H.J.}.}.L.H.L.E.G.h.s.r.r.s.g.j.J.K.K.H.H.J.H.L.H.K.K.",
"v.v.E.].E.v.n.b.A.n.n.n.].J.n.J.n.}.wX>Xc.J.`.n.b.n.n.. y . - e b y $ . y + V. X5X XH.c.J.R.J.n.B.v.v.v.v.n.N.n.b.b.n.n.J.J.H.F.",
"N.n.n.].A.v.]..X].].n.n.n.J.N.].J.n.J.K.b.J.J.J.n.J.  . . ) _ 2 $ 1  . .. +    X X'.H.b.J.J.J.`.R.R.E.R.N.n.n.C.n.n.[. X{.`.c.H.",
"].N.n.n.n.E.oX>X].].].n.n.n.N.`.J.z.p.d.n.E.n.N.N.J.. y ....k ; $ + r ) ..l . `._.V.V.V.V.b.b.b.J.n.N.E.n.E.A.n.C.C.{.+X.X`.n.C.",
"n.n.N.v.}.>X|.h.b.n.n.n.n.n.n.n.n.J.c.c.E.E.n.R.J.+ p 1 F F f + - $ e ` x 6 i . _.V.V.b.H.V.H.`.E.R.J.[.].N.C.x.x.+X@Xx.z.C.C.C.",
"N.].|.E.{.wX[.i.m.n.n.E.n.n.J.n.n.E.R.n.n.J.E.N.. . + - 2 c J 4 : ; U b 9 @ + . . _._._._._._.H.K.F.n.H.N.n.[..XC.,X2Xz.u.n.`.b.",
"J..X4X|.].2X|.n.n.n.n.].n.n.].].].v.J.].n.R.E.n.+ <.jX3.,.U D v : F D L 3.5.jX5.. _._._.b.b.H.`.H.J.J.J.b.].>X>X]..X<X{.m.v.b.].",
"n.v.J.F.n.F.J.K.n.]..X;X.X`.C.`.E.J.n.J.N.n.[..X. - ^ v B [ v J ( D L [ B ^ W @ . V.`.`.`.n.b.n.H.J.J.J.J.G.R.J.G.J.b.E.J.v.n.J.",
"E.h.p.z.z.d.d.n.n. X4XiX3X Xn.`.K.J.v.n.R.n.].2X+ + + @ c [ K M I J M [ B - @ + + V.`.`.`.J.V.H.H.J.J.J.J.v.z.d.v.h.i.c.n.n.K.{.",
"].c.z.c.J.c.c.J.n. XwXiX3XXX_.b.n.].n.b.N.n.].  + _ 3.: P { / O.I I R { v - 8.@.. . J.H.b.b.J.J.n.n.J.J.E.n.v.c.J.v.z.J.].n..X3X",
"n.].}.J.J.].`.n.V.'.+X>X;X'.b.b.n.`.J.n.R.n.n.. 6 } :.B V >.] Y T T ] 6.V / :._ > . J.b.b.J.J.K.n.n.G.J.J.J.J.].J.E.].].n.n..X5X",
"v.J.].n.c.n.J.J.`.b.n.`.`.`.b.b.n.v.n.].].].n.. @.3.>.} V 6.C 7.T 1.K 6.C / :.3.@.. J.H.H.K.'.W.J.n.b.n.`.n.n.J.b.n.n.b.b.C.`.`.",
"b.n.J.K.J.K.J.`.V.b.b.b.V.b.b.n.n.b.].].b.n.  = < :.| / | m N =.K 1.N K ' o.' 5.7 8   K.K.K.H.J.c.n. X$X X`.n.].n.n.E.J.n.].V.n.",
"v.J.J.E.`.J.`.b.n.b.b.`.n.n.n.`.n.n.].n.c.n.  = 6 < s K / [ N 8.n 1.K %.[ V k 4 7 q   `.H.H.H.c.n.'.$X>X XJ.n.J.].n.`.V.n.V.b.n.",
"E.J.J.J.n.b.b.'.`.V.b.b.n.V.V.`.A.n.n.n.n.J.  * $ < M 4 h X.B P J R J R d : U 1 + = X H.H.K.H._.n.n.J.}. XJ.b.v.J.n.b.b.b.`.n.V.",
"J.E.J.J.n.b.H.`.`.V.`.b.b.`.`.n.n.].v.n.].`.  o w 4 X.x 4 r g B n K d d J L ( 7 p #   `.`.`.`.`.J.G.J.J.J.H.H.K.J.H.H.H.n.H.J.H.",
"J.E.J.J.`.J.J.b._.n.b.V.n.`.n.n.n.n.n.n.n.].n.  1 4 / X.D v h V 1.J h J J O...1 8 . X J.b.H.`.J.J.J.H.J.J.H.F.H.H.J.K.H.J.b.b.`.",
"E.n.J.n.J.`.J.`.`.`.`.b.`.n.b.b.R.n.n.J.J.n.J.. z 4 O./ v J d V 1.J h c P ( ..2 2 . . b.b.b.'.n.F.J.H.J.F.L.K.J.K.K.H.'.J.H.J.J.",
"E.R.J.n.H.J.b.H.V.V.`.b.n.].].b.E.n.n.].].E.. . l 4 [ [ P K B [ 1.R K K P | P 4 z . # J.b.b.V.].W.W.K.J.H.K.J.J.H.H.H.H.`.J.J.J.",
"E.n.n.E.J.J.b.b.b.b.n.b.`.;X>Xn.n.v.n.|.>X{.. ) 2 @ o.{ Y ' B T ] &.M T { [ O.- 9 #.+ n.E.J.v..X2X}.J.E.].J.n.].J.J.b.n.n.n.J.J.",
"E.n.v.n.J.J.`.`.V.b.b.b.].4X4X].v.n.].*XwX. + W 2 + P { ] *.B [ ' { n O.o.[ ( @ ; ~ + + $X$Xn..XyX2X XE.E.n.`.J.b.J.J.n.b.n.n.n.",
"R.E.E.E.n.J.J.'.V.b.b.V.]..X.X].N.R.].{.$X  gX) ; . 5 V ] ' B L { N P [ P K 4 + > Q J.. *X-X|.-XiX7X*Xn.b.v.b.b.b.n.n.n.J.].].n.",
"v..X1X.XJ.n.b.H.b._.n.b.V.c.z.`.].N.n.v.M.  hX, 3   : j Y o.x J [ N J X.P g < + 1 8 ).. c.R.&XtX4X[.z.v.R.N.n.].J.n.n.`.{.;X{.x.",
"}.$X%X}.J.K.J.H.J.H.H.`.b.f.d.J.J.W.F.M.d.  dX=   . : g [ [ J D { n J U J r ; . . = ^.. s.h. X&X|.l.i.n.[.J.c.`.V.`.D.A.{.6X@XS.",
"yX}.d.d.n.'.H.'.H.H.K.J.H.H.F.J.G.J.J.J.H.O = =     + k c O.J n %.m J O.J r +     = 8   J.z.u.q.i.k.R.R.J.J.V.b.V.+X5X].A.<XqX<X",
"iX%Xd.z.J.}.`.H.H.J.`.b.n.K.`.n.G.J.J.K.K.H.  X   & + / O.[ M K R R m I X.... o   O   n.E.v.h.h.p.v.N.n.n.A.C.n.C.+X4X>XOX8XqX8X",
"1X%X].b.J.`.`.b.b.J.J.J.J.n.J.J.K.E.J.J.H.K.'.`.  . @ B [ O.M T T %.K R [ v ;     n.J.K.J.J.E.E.N.N.J.N.`.n.n.n.C.{.5X7XqX8X9X9X",
"d.c.H.`.J.n.`.b.J.J._.`.J.b.n.J.J.J.J.n.b.H.`.J.  $ f B c x / [ T R L J M K 4 #   n.n.J.n.J.K.n.n.].].b.b.N.E.E.n.g.v.=XuX7XQ.B.",
"u.d.J.`.K.J.b.b._.`.H.J.J.`.J.J.J.J.`.J.`.H.b.  + b 3.7.B h L P 1.T c D M 1.8.v .   n.c.J.J.n.n.n.n.J.H.n.n.J.R.R.h.h.R.#X!.B.r.",
"b.J.`.n.b.b.C.J.b.`.`.b.b.`.V.b._.`.n.`.n.n.n.  + B >.>.' g s [ [ O.h f { =.1.D %   `.J.J.J.H.J.`.J.H.J.J.G.J.W.R.R.P.g.f.0.l.R.",
"].J.J.n.n.n.n.n.b.n.V.`.n.b.n.`.J.b.b.`.`.n.  . Q } ] 8./ - k g O.P e f { 7.&.Y ! .   `.c. X;X$XJ.H.K.K.J.R.R.R.W.E.G.G.g.g.P.L.",
"n.n.].b.b.].n.n.n.n.J.n.`.n.V.n.V._.V._.n.b.  # s | ] >.3.- @ s [ h $ $ >.6.%.{ e o   H.H.'.;X1XH.J.`.E.[.E.v.N.E.B.N.R.n.b.H.`.",
"b.b.b.n.n.v.n.n.C.J.].n.b.b.b.`._.n.b.`.n.`.  p ^ V ] ] :.@ + _ | s + + >.&.%.N F p   H.b.`.].`.K.J.J.R.|.=X|.B.B.E.S.n.n.`.`.H.",
"v.J.n.n.n.J.C.n.n.J.].J.n.n.b.`.n.b.V.V.V.n.X q L d *.[ 4.+ @ } ' : . ; ,.&.&.d G y . K.J.n.J.c.`.[.].N.oX7X#XS.N.S.S.Z.Z.Z.Z.V.",
"C.].n.].].n.n.n.n.].C.n.`.J.V.n.V.`._.n.J.J.X a 9 } ' / G . - } +.+ . + B Y T M u y   n.J.J.J.J.n.oX,X|.oX7X6X,X{.OX#XD.Z.Z.Z.C.",
"E.n.E.$X*XK.n.J.$X>XK.c.J.`.J.J.V.b.n._.b.n.  * l ' +.$.y . + } 5._ .   u X.O.} u %   H.v.J.].E.].,X7X=X#X8XuX6X#X6X6X[.C.+X`.V.",
"}.n.K.E.{.|.E.[.wX2XJ.c.n.J.J.J._.`.V.V.V.J.V.. i B b w   J.+ } 3.5.. . . r c F y % J.J.n.K.`.N.].[.,X7X9X#X9X8XqX<XoXN.XX5X XZ.",
"J.b.J.d.n.1X%XE.1X4XK.n.n.J.J.b.n.V.`.b.V.b.J.  a k Q A   b.+ _ 3.k   H.. r ) w i . J.F.J.E.E.R.v.g.R.2X|.B.OXuX4XQ.j.v.W.}.}.K.",
"J.n.J.p.n.wX>XE.*X4X].J.J.b.J.`.b.`.V.b.`._.J.o q u q o X   + +./ , . H.. . q p 7 . J.J.J.n.n.R.W.h.k.R.h.q.B.Q.N.k.g.k.W.W.K.K.",
"G.E.K.n.|.1X*XJ.OX>X{.].n.b.N.n.H._.H.H.H.K.J.  q k A *     a .., + b.H.  # i y 7 . H.H.H.b.J.`.J.E.c.u.9.9.u.u.u.h.n.R.N.J.W.G.",
"J.K.W.J.G.v.v.v.z.v.v.J.n.n.`.n._.H.'.H.J.H.J.. H 4.#.  H.  A 8 . n.H.J.`.  ) <.b . `.`.J.H.n.`.E.J.J.c.c.k.j.j.v.G.E.R.J.R.R.W.",
"J.n.J.J.c.p.h.E.i.p.n.E.J.J.`.J.H._.`.V.b.b.`.# U.3.H o n.  #.. J.`.`.J.H.  l 2./.+ _.`.`.J.`.H.J.n.b.J.W.E.J.J.J.E.n.N.n.J.K.`.",
"J.J.v.n.n.v.n.E.v.v.E.E.n.J.J.J._.H.V.n.`.n.n.o Y.).3   J.J.# . J.K.J.b.`.. r sX/.+ H.`.`.H.b.`.n.b.J.J.J.J.J.E.E.J.v.n.J.n.K.K.",
"n.n.n.n.n.n.A.n.E.J.W.J.G.J.G.L.`.V.b.V.V.C.X $ pX~.@ ].>X.Xn.& n.J.n.J. X X+ ~.(.+ . n.V.`.V.b.n.b.J.`.n.b.J.E.`.n.n.`.`._.H.H.",
"b.b.C.C.v.b.v.E.E.n.R.J.K.K.H.K.V.`.V.n.V.0 # H 7.U.+ }.*X*X[.N.n.A.n.].>X.X+ U.2.H . . b._.V.J.V.n.n.V.J.J.J.J.n.n.b.V.J.J.H.J.",
"Z.Z.C.Z.x.x.C.].n.R.J.%X:X'.L.K.`.n.V.n.V.Z t pXaXU.4 + z.E.oX|.b.`.C.J.[.& t U.aXpX* . V._._.V.n.n.x.n.J.J.n.n.n.b.b.b.b.`._._.",
"XX].C.x.x.A.C.m.v.n.G.:XeX%XL.'.n.E.V.n.n.S l.aXaXpXT.* p.].6X|.].{.].c.m.w.l.pXaXaX#.. _.V._.V.m.n.V.n.J.n.n.n.n.C.`.n.V.V.`.H.",
"<X@XN.x.x.x.A.N.A.m.n.>XwX%XG.K.n.b.J.].b.c.`.dXhXT.t.y.E.-X,X.X].3X{.J.J.n.n.I.hXaXW.  b.b._._.N.E.N.n.E.E.n.N.].n.].n.n.V.n.H.",
"qX<X{.x.A.{.{.A.n.N.N.n.v.J.J.K.n.K.].`.V.b.J.H.K.K.J.K.K.J.v.v..X4X>Xn.n.n.n.v.J.n.o J.V.V.V.b.n..X.XJ.v.E..X.XA.v.n.n.n.`.b.n.",
"7XyXyX&XoX4XOXN.n.A.n.z.u.z.K.H.J.`.J.J.].`.J.}.H.K.K.K.K.z.d.z. X5X$XC.b.n.A.n.N.n.n.n.J.`._.b.R.2X2X[.J.|.-X*XN.v.N.J.C.`.n.n.",
"iXyX7X,X4X7XoXN.N.N.n.m.z.J.`.K.J.J.J..X>X XJ.H.H.K.G.J.H.F.z.n.`.XX`.V.n.n.E.[.n.E.n.n._.`._._.N.>X-X}.%X*XE.j.v.n.A.N.n.J.n.b.",
"&XrXtXuXtX&XE.E.N.N.v.n.`.`.J.J.n.n.{..X].].n.n.J.K.H.J.K.`.b.`.V.b.n.n.n.N.n.E.n.E.n.J.H.H.H._.].1X=XW.-XeXG.d.v.N.N.n.v.v.A.n.",
"e.Q.rXuX&Xj.h.N.N.].n.b.J.J.b.`.b.].>X].p.h.n.R.K.K.J.K.].J.b.n.V.C.V.n.n.N.N.E.E.J.J.J.b.b.b.b.}.1X=XJ.%XeXW.J.v.E.N.E.C.b.n.`.",
"e.t.T.Q.T.k.B.E.R.J.`.n.J.n.H.`.b.A.<X>Xm.m.n.G.J.G.G.K.V.b.b.n.b.V.V.n.J.N.N.|.OXE.J.J._.b.H.H.J.W.K.F.G.G.R.W.n.N.]..X.Xn.n.n.",
"e.e.t.e.g.T.Q.R.v.n.`.].`.J.`.H.n.V.>X>X{.[.N.N.G.J.K.J.b.b.V.V.V.b.V.n.J.v.n.*X4XE.b.J.`.H.'.H.F.d.f.G.c.s.G.n.R.n.].4X<XE.b.n."
};
