/* XPM */
static char *result[] = {
/* columns rows colors chars-per-pixel */
"24 47 124 2 ",
"   c #040101",
".  c #0C0201",
"X  c #0C0906",
"o  c #090708",
"O  c #0F0B09",
"+  c #130402",
"@  c #180401",
"#  c #140A06",
"$  c #190906",
"%  c #140D0A",
"&  c #1B0D0B",
"*  c #1D110D",
"=  c #1C1511",
"-  c #240C06",
";  c #220E0C",
":  c #25130C",
">  c #2A130D",
",  c #241412",
"<  c #2A1513",
"1  c #231915",
"2  c #2D1816",
"3  c #261718",
"4  c #251C19",
"5  c #2B1E1C",
"6  c #341612",
"7  c #321A14",
"8  c #3C1B14",
"9  c #331C19",
"0  c #3A1C1A",
"q  c #342116",
"w  c #3A231D",
"e  c #3B291F",
"r  c #302221",
"t  c #3B2421",
"y  c #3D2A26",
"u  c #3B2A29",
"i  c #411D16",
"p  c #471F19",
"a  c #41241D",
"s  c #4A261D",
"d  c #442523",
"f  c #442B25",
"g  c #4A2C25",
"h  c #432A28",
"j  c #4D2D28",
"k  c #532D27",
"l  c #512D2B",
"z  c #4C322B",
"x  c #54332C",
"c  c #5B352D",
"v  c #59392F",
"b  c #443032",
"n  c #4B3532",
"m  c #4E3E33",
"M  c #4F3C39",
"N  c #533430",
"B  c #573C34",
"V  c #5B3B34",
"C  c #533C38",
"Z  c #60392E",
"A  c #643E34",
"S  c #693E33",
"D  c #6C3F3A",
"F  c #55453F",
"G  c #5D423A",
"H  c #664037",
"J  c #6C4136",
"K  c #65433A",
"L  c #6D443B",
"P  c #6D493C",
"I  c #73453C",
"U  c #7C463E",
"Y  c #7B493F",
"T  c #5C4744",
"R  c #634C45",
"E  c #6B4943",
"W  c #674C4C",
"Q  c #734742",
"!  c #734A43",
"~  c #794C45",
"^  c #744C49",
"/  c #7A4E4B",
"(  c #6F5147",
")  c #6E514E",
"_  c #74544A",
"`  c #7A5148",
"'  c #7B594F",
"]  c #735553",
"[  c #775854",
"{  c #7C5C53",
"}  c #7F5E5A",
"|  c #7C615D",
" . c #824845",
".. c #844F4C",
"X. c #835045",
"o. c #83534A",
"O. c #89524C",
"+. c #8B5652",
"@. c #835B54",
"#. c #8B5B55",
"$. c #885C58",
"%. c #905F55",
"&. c #935D59",
"*. c #846055",
"=. c #82655D",
"-. c #8A695D",
";. c #92645C",
":. c #8C6761",
">. c #846E67",
",. c #8B6964",
"<. c #986765",
"1. c #946B60",
"2. c #90696A",
"3. c #996F6B",
"4. c #8E746B",
"5. c #917A6E",
"6. c #A57F73",
"7. c #AB7F78",
"8. c #9F8076",
"9. c #A7827D",
"0. c #9D8384",
"q. c #AE8E81",
"w. c #B18A83",
"e. c None",
/* pixels */
"e.e.e.e.e.e.e.e.e.e.e.e.e.e.e.e.e.e.e.e.e.e.e.e.",
"e.e.e.e.e.e.e.e.e.e.e.e.e.e.e.e.e.e.e.e.e.e.e.e.",
"e.e.e.e.e.e.e.e.e.e.e.e.e.e.e.e.e.e.e.e.e.e.e.e.",
"e.e.e.e.e.e.e.e.e.e.e.e.e.e.e.e.e.e.e.e.e.e.e.e.",
"e.e.e.e.e.e.e.e.e.e.e.e.e.e.e.e.e.e.e.e.e.e.e.e.",
"e.e.e.e.e.e.e.e.e.e.e.e.e.e.e.e.e.e.e.e.e.e.e.e.",
"e.e.e.e.e.e.e.e.e.e.e.e.e.e.e.e.e.e.e.e.e.e.e.e.",
"e.e.e.e.e.e.e.e.e.e.e.e.e.e.e.e.e.e.e.e.e.e.e.e.",
"e.e.e.e.e.e.e.e.e.e.e.e.e.e.e.e.e.e.e.e.e.e.e.e.",
"e.e.e.e.e.e.e.e.e.e.e.e.e.e.e.e.e.e.e.e.e.e.e.e.",
"e.e.e.e.e.e.e.e.e.e.e.e.e.e.e.e.e.e.e.e.e.e.e.e.",
"e.e.e.e.e.e.e.e.e.e.e.3 & r e.e.e.e.e.e.e.e.e.e.",
"e.e.e.e.e.e.e.e.e.  u b 9 C e.e.e.e.e.e.e.e.e.e.",
"e.e.e.e.e.e.e.e.e.4 < y t y : e.e.e.e.e.e.e.e.e.",
"e.e.e.e.e.e.e.e.O 5 2 w 9 e * e.e.e.e.e.e.e.e.e.",
"e.e.e.e.e.e.e.  % y n > @ 9 n u e.e.e.e.e.e.e.e.",
"e.e.e.e.e.e.e.o * w G a > z C 2 ; e.e.e.e.e.e.e.",
"e.e.e.e.e.e.. # : K L A c H E N ; $ e.e.e.e.e.e.",
"e.e.e.e.e.e., | [ ! I J I S I ! $.T . e.e.e.e.e.",
"e.e.e.e.e.. 9 h d D ~ U Y U X.c h t * e.e.e.e.e.",
"e.e.e.e.e.% W 2./ ~ +...X.X.;.J @.,.M . e.e.e.e.",
"e.e.e.e.  % n $.^ Q I #.o.o.I Y ^ } t # e.e.e.e.",
"e.e.e.e.. & ; d l L L ' ^ ` I A j 0 : & e.e.e.e.",
"e.e.e.e.e.5 $ w l p A H H L x i N 7 $ ; e.e.e.e.",
"e.e.e.e.< W > f Q k s V L x a v E 8 0 r e.e.e.e.",
"e.e.e.e.h w.q g ~ L k A $.c v K ^ i l ] & e.e.e.",
"e.e.e.e.u ) : f ^ ! A ! ;.I A ! ! 6 N 0.3 e.e.e.",
"e.e.e.e.e.e.+ < V ! L ! ` L L ! x - < b e.e.e.e.",
"e.e.e.e.e.e.. $ a ! L S I S P H 6 +   e.e.e.e.e.",
"e.e.e.e.e.e.. + a I L S I H P H 7 . e.e.e.e.e.e.",
"e.e.e.e.e.e.. > v P J J I H J P z %   e.e.e.e.e.",
"e.e.e.e.e.  & _ -.J J J Y J H ~ -.F X e.e.e.e.e.",
"e.e.e.e.e.. t _ 1.P Z ~ O.I c ..<.E 4 . e.e.e.e.",
"e.e.e.e.  $ x ! ;._ d L +.A s &.+.Q u X e.e.e.e.",
"e.e.e.e.e.2 N I o.( > g Q v 6 +. .L z = e.e.e.e.",
"e.e.e.e.. < j Q ~ g @ 0 ~ V - Z ^ P e % e.e.e.e.",
"e.e.e.e.e.+ 9 N h * @ j / j # < z z : . e.e.e.e.",
"e.e.e.e.e.+ h n O   ; Q $.t e.o * F q e.e.e.e.e.",
"e.e.e.e.e.$ ] T O e.u ,.V @ e.e., [ V + e.e.e.e.",
"e.e.e.e.. 2 3.0 . e.# R C + e.e.@ ( *.; . e.e.e.",
"e.e.e.e.+ _ 9.x + e.. , m % e.e.$ ' 6.V X e.e.e.",
"e.e.e.e.5 9.w.[ & e.e.. = = e.e., -.9.5.& e.e.e.",
"e.e.e.e.1 >.=.< . e.e.e.O o e.e.+ e 5.T e.e.e.e.",
"e.e.e.e.e.% $ . e.e.e.e.e.  e.e.e.. X e.e.e.e.e.",
"e.e.e.e.e.e.e.e.e.e.e.e.e.e.e.e.e.e.e.e.e.e.e.e.",
"e.e.e.e.e.e.e.e.e.e.e.e.e.e.e.e.e.e.e.e.e.e.e.e.",
"e.e.e.e.e.e.e.e.e.e.e.e.e.e.e.e.e.e.e.e.e.e.e.e."
};
