/* XPM */
static char *result[] = {
/* columns rows colors chars-per-pixel */
"64 64 229 2 ",
"   c #040100",
".  c #0B0200",
"X  c #0B0B04",
"o  c #060903",
"O  c #130201",
"+  c #1B0201",
"@  c #130A05",
"#  c #1B0B05",
"$  c #170C0A",
"%  c #0E1507",
"&  c #181608",
"*  c #1F1714",
"=  c #220501",
"-  c #2B0D05",
";  c #230C0A",
":  c #2B0F0B",
">  c #280A04",
",  c #330A03",
"<  c #23140D",
"1  c #2C130D",
"2  c #2B1205",
"3  c #34130D",
"4  c #381E0F",
"5  c #251311",
"6  c #2C1813",
"7  c #2D1C1B",
"8  c #281714",
"9  c #321411",
"0  c #3C1E1A",
"q  c #381C15",
"w  c #14240C",
"e  c #252516",
"r  c #362215",
"t  c #35221B",
"y  c #3B231C",
"u  c #362A18",
"i  c #2D210C",
"p  c #3B1E20",
"a  c #342322",
"s  c #3B2725",
"d  c #313925",
"f  c #481D17",
"g  c #43231C",
"h  c #49241C",
"j  c #482014",
"k  c #432321",
"l  c #462B25",
"z  c #493228",
"x  c #5D392E",
"c  c #56372E",
"v  c #5C3C34",
"b  c #5C3E3A",
"n  c #583933",
"m  c #643B2E",
"M  c #65362C",
"N  c #643C34",
"B  c #6B3C35",
"V  c #623D3B",
"C  c #6C3D39",
"Z  c #683631",
"A  c #395532",
"S  c #37462C",
"D  c #307B2A",
"F  c #45452B",
"G  c #5C4234",
"H  c #5D423B",
"J  c #55403C",
"K  c #54583C",
"L  c #654135",
"P  c #64423B",
"I  c #6B443B",
"U  c #684739",
"Y  c #73443C",
"T  c #744A3E",
"R  c #79493F",
"E  c #55663D",
"W  c #6C3E40",
"Q  c #5E4442",
"!  c #5D4944",
"~  c #535F41",
"^  c #624641",
"/  c #654B44",
"(  c #6E4B43",
")  c #694A45",
"_  c #754641",
"`  c #7C4643",
"'  c #744B43",
"]  c #7B4C44",
"[  c #7B4D4A",
"{  c #704F48",
"}  c #69544D",
"|  c #7A5144",
" . c #74514B",
".. c #7A544C",
"X. c #745245",
"o. c #665450",
"O. c #6C5853",
"+. c #795853",
"@. c #556542",
"#. c #506E43",
"$. c #824A47",
"%. c #81524A",
"&. c #946E66",
"*. c #9B6C64",
"=. c #9B6E69",
"-. c #986869",
";. c #8D736A",
":. c #9C726B",
">. c #94736C",
",. c #887874",
"<. c #947471",
"1. c #9B7472",
"2. c #8F6E69",
"3. c #A36E6C",
"4. c #A76B6A",
"5. c #A3716C",
"6. c #A77873",
"7. c #A36F73",
"8. c #229C26",
"9. c #2B9D2E",
"0. c #299F27",
"q. c #2B9432",
"w. c #2F9F31",
"e. c #349D3A",
"r. c #2C8D33",
"t. c #26A52A",
"y. c #2BA42D",
"u. c #2AA92E",
"i. c #20A123",
"p. c #2DA431",
"a. c #2DAC32",
"s. c #26A230",
"d. c #31A535",
"f. c #33AC34",
"g. c #34AB3A",
"h. c #3AAD3B",
"j. c #3CAA37",
"k. c #32B235",
"l. c #3BBC37",
"z. c #35B53A",
"x. c #3AB53C",
"c. c #36BC3D",
"v. c #3ABC3E",
"b. c #36BA36",
"n. c #2FB133",
"m. c #41BD3C",
"M. c #41B93A",
"N. c #36C13E",
"B. c #3CC13D",
"V. c #39C136",
"C. c #43C23E",
"Z. c #49C33D",
"A. c #44C83E",
"S. c #37B740",
"D. c #3AB542",
"F. c #36BD42",
"G. c #3CBD42",
"H. c #3EBD49",
"J. c #3FB749",
"K. c #3FAE45",
"L. c #419445",
"P. c #708F58",
"I. c #53A54E",
"U. c #42B644",
"Y. c #41BD43",
"T. c #42BD4A",
"R. c #49B949",
"E. c #52AE52",
"W. c #6DB15D",
"Q. c #728D65",
"!. c #7AB56F",
"~. c #36C141",
"^. c #3CC142",
"/. c #3DC149",
"(. c #42C244",
"). c #49C546",
"_. c #4BCA44",
"`. c #44C34A",
"'. c #4BC54B",
"]. c #46CA4B",
"[. c #4BCB4D",
"{. c #42C841",
"}. c #52CE4C",
"|. c #53C94B",
" X c #4DD14D",
".X c #54D24C",
"XX c #58D14E",
"oX c #4DCC52",
"OX c #49C953",
"+X c #55C653",
"@X c #52CD53",
"#X c #5BCE5B",
"$X c #54CC57",
"%X c #4ED153",
"&X c #4FD359",
"*X c #53D355",
"=X c #5BD453",
"-X c #5CD955",
";X c #55D35A",
":X c #5AD45A",
">X c #55DA5B",
",X c #5CDA5C",
"<X c #55DB54",
"1X c #62DA56",
"2X c #63DC5B",
"3X c #69DE5D",
"4X c #61D556",
"5X c #60CE5B",
"6X c #67E25D",
"7X c #5DDC61",
"8X c #5CD763",
"9X c #5ECB60",
"0X c #64D562",
"qX c #64DD63",
"wX c #6BDD67",
"eX c #66E367",
"rX c #838661",
"tX c #96886E",
"yX c #9B8573",
"uX c #A7867B",
"iX c #84B679",
"pX c #94AC7E",
"aX c #A0A57E",
"sX c #AE8B84",
"dX c #BD9F95",
"fX c #B7A497",
"gX c #B6A8A2",
"hX c #C6A29C",
"jX c #CFB2B0",
/* pixels */
"c.v.Y.v.v.(.B.l.v.G.(.(.^.v.v.v.^.G.F.^.^.F.G.c.v.^.S.'.7X;XY.x.D.H.H.`.>X&Xc.F.c.^.N.~.c.^.B.z.l.C.l.v.m.x.Y.x.`.Y.G.D.H.H.G.F.",
"v.v.G.v.v.Y.G.v.v.G.^.(.].(.v.v.c.^.^.^.c.F.F.F.F.G.G.H.Y.'.@X`.G.H.S.G.OXOXG.F./.c.N.v.v.c.B.{.).(.l.m.m.l.v.D.Y.Y.Y.Y.H.G.G.G.",
"(.G.v.m.(.v.v.v.G.v.v.].;X].c.v.F.c.^.^.c.c.^.F.G.(.H.z.p.H.;X'.(.C.m.v.v.C.B.B.C.l.l.V.A.C.m.}.1XZ.m.m.C.Z.m.l.l.m.Y.G.B.v.S.^.",
";X].v.v.v.v.v.Y.v.v.v.%X,X].c.G.F.c.c.F.F.G.^.c.G.v.S.c.x.oX8XoX(.[.).v.c.v.B.B.v.l.l.C.[._.m._.6X=X_.m._..XZ.m.v.m.v.C.v.v.v.^.",
"eX*XY.c.v.l.v.G.v.^.^.(.[.(.v.^.^.F.c.G.c.^./.c.v.c.v.G.Y.`.oX`.).,X.Xm.l.m.l.m.l.l.M.).XX4X|.|.1X6X4X).XX1X_.v.v.v.c.N.v.v.v.B.",
"7X*X(.l.G.(.G.v.v.(.B.k.n.c.v.v.^.^.F.F.^.G.v.G.v.H.v.G.G.k.a.k.[.2X[.v.m.l.m.v.M.M.m.C.|.1X2X2X1X6X1XXX1X=X).v.B.B.B.c.v.B.v.v.",
"B.(.^.v.(.[.].l.Y.^.v.k.u.c.G.c.c.^.~./.]./.v.G.v.(.G.G.G.k.X X w oX`.H.G.G.Y.Y.G.Y.Y.R.Y.'.qXwX3XE.XX0X$XY.v.G./.].OX/.S.G.H.S.",
"i.n.c.v.].*XoXv.l.c.v.Y.v.^.m.c.c.~.^.].&XoXv.c.S.^.c.S.(.. S . A % D.G.G.S.`.Y.U.Y.Y.m.w.w.$X0X5XM.M.+XR.u.k.S.G.&X8X/.S.G.`.H.",
"b.k.x.v.(.(.(.(.v.v.v.v.G.v.v.v.G.^.oX/.z.v.^./.G.G.G.^.o #.. $ . L.r.G./.H.F.H.F.D.F.J.J.h.g.g.h.w.0.d.g.x.G.H././././.H.F.T.H.",
"Y.Y.Y.v.c.^.(.(.v.v.v.m.Y.v.v.v.H.].,X].u.z.G.H.v.v.G.G.  W.5 5 5 /.% F.~.~.F.`.T.H.F.J.U.M.a.w.w.w.w.d.g.G.T.G.F.F.F.G.H.F.H.H.",
"x.l.G.).m.c.v.z.v.v.v.v.Y.^.v.G.v.`.7X*Xz.G./.v.c.v.G.v.  !.8 8 7 iX@ c.~.N.N. X&X].F.D.G.G.v.c.M.h.x.x.x.v.v.v.c.v.v.v.v.G.F.S.",
"Y.v.x.).m.x.).[.).G.v.G.v.m.v.(.v.c.Y./.c.G.v.v.v.G.G.@ . ! s p s o.. % ~.N.N./.].^.F.c.G.G.Y./.R.Y.U.Y.Y.v.v.B.v.v.(.].]./.D.G.",
").m.v.x.v.Y.[.*X(.(.m.v.v.G.C.^.G.k.y.a.x.Y.v.Y.m.Y.v.. # Q s 1 y Q # . N.c.N.N.~.N.N.N.N.c.c.c.v.D.Y.m.v.Y.C.v.B.C._..X].A.c.v.",
"x.v.v.v.).@X].f.c.v.G.v.v.v.v.v.v.G.z.z.Y.Y.v.x.G.v.. Q.O O q Q r + O I.X N.N.N.^.~.N.N.F.N.N.G.Y.G.Y.(.(.m.B.l.l.]. XV.k.B.C.v.",
"Y.Y.'.Y.].,X`.y.c.l.v.^.v.v.v.G.G.Y.Y.Y.v.Y.Y.m.v.. . . . O.: + 9 { O . % w N.N.~.N.~.~.~.~.~.F.G.c.v.H.G.v.).].C.;X:Xk.t.v.^.v.",
"m.].2X].).:X[.m.v.v.G.(.m.v.G.(.Y.x.v.Y.v.G.`.x.m.. 7 o.O.q + > = k / o.d o b.N.~.~.~.~.c.c.F./.F.H.S.c.z.).@X=X{. X-X).l.c.c.B.",
"v.x.c.S.v.x.S.(.G.(.[.%X].^.v.(./.v.v.G.m.v.).[.. a 7 b b s + + + k ! n 7 A % c.v.B.^.~.^.c.v.F.S.G.G.G.G.D.Y.Y.D.G.x.G.G.x.v.G.",
"Y.f.u.k.z.a.n.S.v.].,XeX>X].v.G.H.S.x.v.Y.G.).  . # + : H J - - 1 H n 9 = ; . % c.B.^.^.^.^.c.G./.G.G.H.G.x.g.a.x.f.u.x.v.v.(.].",
"(.z.k.x.v.z.c.v.v.].7XeX>X].N.c.v.(.v.c.v.x.).  ,.jX<.1.b H P 3 x P L 2.<.jXI.. c.v.G.G.v.c.G.F.v.v.v.G.G.v.c.x.G.x.k.v.^.v.].,X",
"v./.`.G.S.(.H.v.^.^. X*X%X^.N.c.v.(.v.v.Y.v.v.  + ^ V x ( U x Y N V ( ) n K & . v.v.F.c.c.G.G.H.G.v.v.S.G.v.Y.Y.v.Y.(./.v.B._.;X",
"z.G.(.G.v.G.G.G.^.c.c.^.^.^.c.c.v.l.v.(.(.(.x.u.O + + C T m B ] C M ' c + O . `.G.G.G.G.G.H.H.H.v.v.v.v.^.v.v.v.c.v.^.c.c.v.^.^.",
"x.G.G.G.G.G.G.G.c.c.c.c.B.c.c.v.l.c.(.(.c.m.Y.. Q  ., B B B Y 4.Y Y Z L , ( K . G.G.G.H.H.H.F.F.c.v.].OX].^.v.(.v.v.v.v.B.(.B.v.",
"v.G.^.Y.^.G.^.c.B.c.c.c.c.G.c.^.G.v.(.v.k.c.. . { ' R $.R R $.R Y %.R ] _ '  .O   F.F.F.G.F.F.c.v./.oX*X[.G.c.H./.v.^.^.B.N.c.v.",
"Y.G.G.G.S.c.c.`.^.^.c.c.^.c.N.G.G.m.v.v.v.(.  O. .*.Y M *.R R $.$.Y 4.B C :.' O.. F.G.F.F.G.F.G.v.v.G.`.(.G.v.c.G.v.c.z.c.^.c.^.",
"G.Y.G.G.v.c.c.^.^.~.^.N.c.^.^.v.v.Y.v.v.^.  @ o.>.&._ B :.Y *.` 5.B 5.Z $.5.-.} @ . ^.~.^.^.^.^.G.S.G.v.D.F.G.F.G.F.F.F.F.v.G.F.",
"G.Y.G.G.H.G.G.F.N.c.c.c.B.^.v.v.v.v.v.v.v.  8 < <.( _ [ C N *.Z 3.M C %.I ..2.: 8 . F.G.c.F.^.c.G.G.F.H.G.G.F.F.G.G.G.F.F.F.F.G.",
"Y.G.v.v.G.^.^.G.^.^.B.c.^.v.c.v.G.G.G.Y.G.  * < 1 h B ' I P :.B 3.C ' I P g ; 6 8 . c.F.c.c.(.v.x.H.H.S.F.F.H.G.G.H.F./.G.F.v.G.",
"Y.Y.x.G.c.G.c.F.N.N.^.G.v.(.(.v.Y.v.v.Y.].  $ @ > I , g ( I ) V ( L ( h - H 6 O e   ~.B.c.c.^./.`.(.H.G.G.J.H.S.H.F.F.F.H.G.G.^.",
"Y.v.x.Y./.G.c.c.c.c.B.c.G.%X*Xv.x.v.v.'.;X. $ @ + V B 3 h c P I P b h > n H O O @   /.c.Y.S.k.[.;X`.G.Y.Y.G.G.(.G.c.v.v.v.v.v.G.",
"Y.x.x.v.G.G.^.^.N.c.c.c.(.,X,X^.x.m.Y.}.7X%X  < 9 { ( B 4 g P N G r 4 L  .( 1 6   S.G.^.oX@XG.oXqX:X'.Y.G.Y.G.H.S.G.G.v.c.c.G.m.",
"Y.Y.Y.Y.v.v././.c.N.c.v.(.%X].(.m.m.Y.].[.].. < : _ ] V L f B &.b g P V I ' 3 # . z.G.Y.@X@X'.$XeX2X[.m.c.l.v.c.v.v.v.v.v.(.C.v.",
"x.[.;X[.G.c.c.v.c.~.c.c.G.k.k.^.Y.Y.G.x.k.b.  < = ..I ] L M  .=.] m B ' ' ..+ 6 . D.G.G.x.U.+XqX,X).k.x.v.Y.v.(.v.v.v.B.].%X_.v.",
"`.OXOX`.G.G.G.c.F.c.G./.c.u.a.S.G.Y.S.f.n.. s # = ) | R m L T 5.Y Y B T X. .O # z . /.v.u.f.).@X'.f.f.x.).S.c.^.N.^.A.B._.1X.XZ.",
"qX`.a.a.F.H.^./.F.G.H.G.F.G.S.v.x.G.H.G.G.. ^ + # 1 L | T m ] R ] C R | c 6 # O @.. ^.G.Y.k.t.8.w.j.U.G.v.^.v.c.N. X<XA.C.-X6X1X",
"eXOXa.k.G.`.^.F.F.G.^.c.S././.v.G.G.H.G.  z <.O . # j U R L m | N m Y T z # . . ,.F . v.Y.x.f.f.y.x.m.v.v.(.v.c.B..X7X*XXX3X3X1X",
";XoX(.v.c./.^.c.c.G.^.^.S.v.G.G.Y.H.S.F.  o.fX. . @ j U T L m R B V | L y O .   gX~ . H.G.Y.Y.Y.m.m.Y.m.G.m.B.v.B.).<X2X3X6X4X4X",
"a.z.F.G.G.G.G.F.G.F.G.^.G.c.v.G.H.G.G.v.  ,.gX.   . k C L L Y R B m T x k O .   pXQ.  G.G.G.G.c.v.B.(.v.c.v.Y.Y.v.f.x.$XwX0XR.M.",
"t.a.v./.^.G.v.c.~.^.^.F.G.^.G.v.G.v.G.^.c.o X   . + Z [ T m L R P v ..' n O . . # . c.c.G.G.v.v.c.^.Y.G.v.v.v.U.Y.f.d.J.+X|.M.w.",
"c.G.^.v.c.c.v.^.c.G.^.c.c.^.^.c.^.~.c.^.v.c.    O p W N | G L ` N v ' L ^ t ; . . G.^.G.G.G.v.^.H.F.F.F.G.G.J.Y.U.U.K.d.9.9.g.U.",
"^.^.G.v.v.v.v.v.c.N.v.^.c.c.c.^.G.G.c.^.^.^.  O Q 7.-.Z G G Y ] ] L m N &.>.Q O . c.F.G.v.`.&XOXG.G.G.H.G.U.J.U.U.Y.J.D.d.d.K.U.",
"v.v.G.v.c.Y.v.v.v.v.G.v.^.B.B.c.N.c.c.N.G.c.  O Z 7.7.$.V b T R ' N B ' :.&.G + O ^.^.F.c./.%X*XG.G.G.Y.).R.x.M.Y.Y.m.Y.v.c.F.^.",
"c.c.c.v.v.c.v.v.^.G.(.c.v.c.c.^.B.~.^.N.c.o . J $.$.4.$.4 G R *.] N f T 5.] I ^ O . G.^.c.^.(./.F.G.G.m.[.:X'.M.M.R.C.m.x.^.^.F.",
"v.G.v.v.v.v.G.v.c.m.^.v.v.c.v.^.F.~.v.v.~.  # k W $.4.*.l r | R T h f 6.*.R ..9 #   c.G.G.G.v.z.Y.`.{.Y.|.2X.XZ.m.Z.Z.V.V.V.N.V.",
"m.(.v.).).v.v.v.v.(.G.v.^.G.v.v.N.v.N.~.v.. a V C ` $.*.r u j R ' h f *.R R I P t   c.G.G.G.G.G.v.@X*X).}.2X2X=XZ._.=XA.V.V.V.B.",
"`.x.G.oXoXY.x.Y.*X@XG.c.G.G.G.G.N.F.v.N.c.  s W f ` $.:.r . _ %.g = 0 1.] ` f V s   v.v.v.G.(.Y.).:X2X=X=X3X3X1XXX1X2X_.^. X^.V.",
"Y.v.G.`.[.].(.(.7X:XH.z.c.G.G.v.c.B.~.F.^.  a s V ' _ V # . ` ` g O k b ' | x h a o /.S.v.H.Y.v.Y.).$X2X4X+X4X3X6X1X_.v.{.<X XN.",
"S.G.v.a.x.;XoXY.;X:X(.S.G.G.c.G.^.N.F.B.F.. O p {  .) > . O $.` +   < ; .._ X.0 O o G.S.G.Y.Y.U.D.d.Y.5X|.M.|.wX:XR.f.h.T.'./.H.",
"G.v.G.a.v.7X*XY.*X,X`.G.c.v.G.^.^.c.N.G.~.F.O s H n g q . O.6.W .   @ 7 9 L L g   J.G.D.Y.v.v.Y.Y.f.j.Y.d.0.M.R.m.x.f.K.G.H.H.J.",
"S.(.H.v.].#X@XG.}.@X].Y.l.v.Y.v.~.F.~.F.F.F.. a y u 6 O . ,.3.[ . F.  @ 9 g h y   c.F.F.F.c.v.^.G.G.x.t.8.8.9.t.t.f.x.Y.Y.Y.D.Y.",
"H.Y.Y.G.D.x.x.x.k.x.v.v.v.v.B.v.H.~.F.H.F.G.  u u 1 @     s -._ . v.F.  O 3 g s   F.^.^.G.c.G.G.Y.H.S.z.z.k.z.g.x.x.U.Y.D.Y.J.Y.",
"G.v.G.G.z.u.f.Y.u.u.x.Y.G.G.H.G.F.~.^.~.F.c.. G P 4 . H.  .  .{ O   /.v.O 0 H P   G.G.^.^.F.G.^.v.v.v.G.H.Y.Y.G.G.Y.v.m.v.G.H.H.",
"S.G.v.D.x.x.G.Y.x.x.(.Y.v.v.G.G.F.~.c.B.B.G.@ Q.fX!.. G.H.  + { a   G.D.+ iXhX;.. c.F.~.^.^.F.F.v.c.G.G.G.J.G.Y.Y.G.x.v.G.G.G.H.",
"v.v.v.v.v.v.G.m.Y.x.Y.J.D.G.G.D.~.c.N.N.B.B.@ rXaX2 @ Y.@X].. < a   F.^.. : fX>.. v.c.~.v.N.~.B.B.c.^.F.v.c.G.^.^.v.c.G.^.F.F.F.",
"c.B.B.B.l.c.l.Y.Y.G.G.T.H.H.F.H.B.^.v.c.B.@ + tXW.O H.`.*X@X(.  s   ^.^.%XO aXuXO . N.c.N.~.^.c.^.v.c.B.G.G.G.G.v.v.c.B.G.G.F.^.",
"l.V.B.V.v.l.v.(.v.Y.G.OX&XH.J.H.^.v.B.v.o O F :.P.@ B.k.k.m.}.    G.v.G._.O tX*.z .   v.N.^.~.N.c.v.l.v.G.G.v.v.c.v.c.c.N.^.~.F.",
"{.^.A.b.l.C.B.l.v.v.D.&X8XOXH.T.v.G.B.v.o < 5.6.P.i . c.u.).2X  (._.(.c.  > rXuX>.<   c.N.~.~.N.b.v.B.v.G.v.v.v.v.B.^.v.N.^.~.c.",
"-X.Xm.l.m.V.C.m.m.x.v.@X7XOXD.J.G.v.G.(.. @.sXsXuXE   D.T.$X  [.(.>X].v.. #.yXuXyX#.  /.c.N.~.~.m.m.Y.m.Y.Y.v.G.(.v.Y.v.v.^.c.F.",
"6X-X_.m.C._.).l.v.m.m.v.v.G.G.H.v.G.(.G.  I.sXfX#.& . H.H.Y.l.x.].,X*Xv.X e E hXuXI.  G.N.c.N.c.v.[.'.Y.x.G.|.[.Y.l.v.v.B.^.F.c.",
"2XqXqX|.|.-X}.m.v.m.B.k.t.g./.G.G.(.G.S.^.. G.u & X J.J.G.k.a.k.].<XOXB.l.. 2 u v.@ v.v.~.~.~.c.Y.;X:X`.G.'.@X@Xm.x.m.m.v.^.v.v.",
"qXqX2X:X,X2X.Xm.m.m.v.l.k.F./.G.G.G.G.[.>X].X .   /.F.F.G.D.k.c.(.{.^.B.v.l.r.w @ Y.v.v.G.^.~.~.m.@X*XT.OX@XY.h.v.v.Y.m.m.v.v.c.",
"+X9X0XwX0X'.R.Y.m.m.c.v.^.^.v.^.v.v.].[.].^.m.D.G.(.G.G./.H.v.B.B.c.N.v.v.m.Y.Y.v.m.G.G.F.c.F.~.`.:X#XT.$X8XD.a.x.m.m.m.v.l.G.v.",
"w.R.9XwX+Xj.j.m.m.Y.v.v.^.v.c.^.v.G.*X{.u.f.x.G././.D.G./.G.c.v.N.c.N.v.v.m.v.m.Y.v.G.Y.F.c.c.F.`.;X#XG.OX8XH.G.x.v.Y.Y.v.c.G.Y.",
"q.e.U.E.U.e.U.Y.Y.Y.^.v.v.G.F.^.b.A.,X.Xb.b.x.m.G.J.G.H.B.c.c.N.N.c.B.v.v.Y.Y.).@XY.v.G.F.c.F.c.F.H.F.D.D.D.T.Y.v.m.v.[.[.v.v.v.",
"q.q.q.r.e.U.U.Y.x.x.^.(.G.G.^.F.v.B.*X;X).).m.G.D.G.G.G.c.c.c.N.N.c.v.B.v.x.v.@X,XY.c.G.^.~./.~.D.g.s.D.z.9.D.G.U.m.).,X,XC.c.c."
};
