/* XPM */
static char *result[] = {
/* columns rows colors chars-per-pixel */
"64 64 231 2 ",
"   c #050100",
".  c #0B0100",
"X  c #060A03",
"o  c #0C0C04",
"O  c #060B08",
"+  c #130101",
"@  c #1C0200",
"#  c #140904",
"$  c #1A0B04",
"%  c #1C0B09",
"&  c #1A070A",
"*  c #0B1108",
"=  c #1D100D",
"-  c #171509",
";  c #1C1412",
":  c #1D1815",
">  c #220400",
",  c #240B04",
"<  c #2B0C03",
"1  c #240F09",
"2  c #280F08",
"3  c #340D07",
"4  c #24120B",
"5  c #2B130D",
"6  c #2F1207",
"7  c #321005",
"8  c #36150B",
"9  c #2B1412",
"0  c #281815",
"q  c #381A17",
"w  c #15240D",
"e  c #142E0F",
"r  c #1C3412",
"t  c #1E3916",
"y  c #142712",
"u  c #2F271A",
"i  c #35231D",
"p  c #3B231D",
"a  c #3D2419",
"s  c #213D1A",
"d  c #363914",
"f  c #3C1E22",
"g  c #352524",
"h  c #3A2523",
"j  c #3C2923",
"k  c #362A29",
"l  c #312E29",
"z  c #421D16",
"x  c #431E1C",
"c  c #4B1E1A",
"v  c #43231C",
"b  c #45291D",
"n  c #482518",
"m  c #52391A",
"M  c #452522",
"N  c #462827",
"B  c #5E3D2C",
"V  c #5B362C",
"C  c #4E3936",
"Z  c #5D3B33",
"A  c #5B3D3A",
"S  c #583A37",
"D  c #63342A",
"F  c #633B2D",
"G  c #683A2F",
"H  c #643C34",
"J  c #6A3C33",
"K  c #633D3A",
"L  c #6B3E3A",
"P  c #673733",
"I  c #783E3C",
"U  c #244619",
"Y  c #25591D",
"T  c #305729",
"R  c #2F6C27",
"E  c #594239",
"W  c #68422F",
"Q  c #644332",
"!  c #63423B",
"~  c #6A433C",
"^  c #6C4A3D",
"/  c #6B4636",
"(  c #73443C",
")  c #7E453C",
"_  c #734B3D",
"`  c #7B4B3E",
"'  c #71503D",
"]  c #746A3F",
"[  c #656534",
"{  c #5D4442",
"}  c #554545",
"|  c #4B4341",
" . c #634441",
".. c #6C4340",
"X. c #6D4B42",
"o. c #654F4B",
"O. c #674B49",
"+. c #744542",
"@. c #744B43",
"#. c #7B4C44",
"$. c #754A4A",
"%. c #7C4C4A",
"&. c #7B4645",
"*. c #6B514D",
"=. c #66514C",
"-. c #75514A",
";. c #79534B",
":. c #775244",
">. c #744E50",
",. c #6D5652",
"<. c #785752",
"1. c #6F4F54",
"2. c #83473C",
"3. c #824E49",
"4. c #804041",
"5. c #82514C",
"6. c #8B7650",
"7. c #A5715B",
"8. c #9C6D6B",
"9. c #976B66",
"0. c #9C746C",
"q. c #977268",
"w. c #997974",
"e. c #8A7370",
"r. c #A26E6B",
"t. c #AB6E6D",
"y. c #A4756A",
"u. c #A47373",
"i. c #A97171",
"p. c #2B9D2E",
"a. c #249D26",
"s. c #338F31",
"d. c #2C9432",
"f. c #2F9F31",
"g. c #339A38",
"h. c #308B2E",
"j. c #26A52A",
"k. c #2BA42D",
"l. c #2BAA2E",
"z. c #20A123",
"x. c #2DA431",
"c. c #2DAC32",
"v. c #26A230",
"b. c #31A535",
"n. c #33AC34",
"m. c #34AB3A",
"M. c #3AAD3B",
"N. c #3CAA37",
"B. c #33B235",
"V. c #3BBC37",
"C. c #35B53A",
"Z. c #3AB53C",
"A. c #36BB3D",
"S. c #3ABC3E",
"D. c #36BA36",
"F. c #2FB133",
"G. c #41BD3C",
"H. c #41B93A",
"J. c #37C13E",
"K. c #3CC13D",
"L. c #39C136",
"P. c #43C23D",
"I. c #48C53D",
"U. c #3AB542",
"Y. c #36BD42",
"T. c #3CBD42",
"R. c #3EBD49",
"E. c #3BB745",
"W. c #3FAE45",
"Q. c #42B644",
"!. c #41BD43",
"~. c #42BD4A",
"^. c #49B949",
"/. c #42AC47",
"(. c #36C142",
"). c #3CC143",
"_. c #3DC149",
"`. c #42C244",
"'. c #49C546",
"]. c #4BCA44",
"[. c #44C349",
"{. c #4BC54B",
"}. c #46CA4B",
"|. c #4BCB4D",
" X c #42C841",
".X c #52CE4C",
"XX c #53C94B",
"oX c #4DD14D",
"OX c #54D24C",
"+X c #58D14E",
"@X c #4CCC52",
"#X c #49C953",
"$X c #55C653",
"%X c #52CD53",
"&X c #5BCE5B",
"*X c #54CC57",
"=X c #4ED153",
"-X c #4FD359",
";X c #53D355",
":X c #5BD453",
">X c #5CD955",
",X c #55D45A",
"<X c #5AD45A",
"1X c #55DA5B",
"2X c #5BDA5D",
"3X c #55DB54",
"4X c #62DA56",
"5X c #63DC5B",
"6X c #69DE5D",
"7X c #61D556",
"8X c #60CE5B",
"9X c #67E25D",
"0X c #5DDD61",
"qX c #5CD763",
"wX c #5ECB60",
"eX c #64D562",
"rX c #64DD63",
"tX c #6BDD67",
"yX c #66E367",
"uX c #929260",
"iX c #A78578",
"pX c #AD896F",
"aX c #9C8986",
"sX c #A28B87",
"dX c #BBA39F",
"fX c #BAA9A5",
"gX c #C99C85",
"hX c #CBA288",
"jX c #CAA296",
"kX c #C3B5B3",
"lX c #CEB5B5",
/* pixels */
"A.S.!.S.S.`.`.A.A.S.).`.`.S.S.S.).Y.Y.).).Y.S.Y.S.).U.}.qX,X!.Z.U._.T.[.1X-XY.Y.Y.).J.J.A.Y.K.A.V.`.S.G.G.S.H.Z.!.!.T.E.T.R.R.U.",
"S.S.T.S.S.).S.S.S.!.T.`.}.).S.S.Y.).).).Y.A.Y.Y.S.T.R.T.Q.#X@X[.T.R.U.R.#X#XT.Y.).J.A.).S.S.J.`.'.G.V.G.H.S.T.E.~.!.R.!.T.T.T.T.",
"`.T.S.P.!.S.S.S.S.S.S.}.;X}.S.S.S.A.).T.A.A.T.Y.T.).R.C.c.T.  . . `.S.V.S.P.K.K.P.V.V.S.I.K.G.OX4XI.G.H.P.I.G.V.S.G.P.K.J.S.Y.T.",
";X}.S.S.G.S.S.`.S.S.S.;X2X}.A.).Y.A.S.).A.).).Y.T.S.U.A.U.  #   . . '.S.A.S.K.K.V.V.V.P.oX].G.].9X>XI.P.].OXI.G.S.H.S.P.K.S.S.).",
"yX;X).A.S.S.A.S.S.).K.[.|.`.S.).).Y.A.Y.Y.).).A.S.S.S.T.. |   # + s X G.S.G.V.S.S.V.H.I.:X:XXXXX4X9X7XI.:X4X].G.K.S.S.S.S.S.S.K.",
"0X;X`.S.S.!.T.S.S.`.).F.B.A.S.S.).Y.Y.Y.Y.).Y.).S.R.T.Y.# T ; 0 1 s   S.H.V.G.G.H.G.G.P..X4X6X4X4X9X7X:X4X7X`.G.K.K.J.(.S.S.S.K.",
").`.K.S.`.|.}.S.S.`.S.B.l.A.T.A.Y.).(.).}._.S.U.A.).S.. . fX0 4 0 kX    U.U.`.!.T.Q.G.^.H.{.tXtX6X^.$X8X%X!.U.Y.T.}.#X(.C.Y.!.R.",
"z.F.Z.S.}.;X.XS.S.A.S.!.S.K.!.A.S.Y.Y.}.1X=XY.S.S.R.A.. & } k 0 k C = . Y.S.[.!.!.!.!.Q.x.f.*XeX8XH.H.8X^.k.B.Y.T.,XqX_.U.R.R.R.",
"B.B.S.G.).'.`.'.S.S.A.S.G.S.S.S.T.).@X[.C.A.T.`.T.T.. g . $ j E f , . g . T.R.E.R.R.E.R.E.M.m.m.N.f.p.b.m.U.T.T._._._._.R.E._.R.",
"!.!.!.S.A.S.`.`.S.A.S.T.T.T.S.S.Y.{.0X}.l.B.).!.U.. . + o.*.4 @ 9 O.o.+ . . Y.[._.E.U.T.~.Z.n.p.f.f.f.b.m.T.~.T.Y.Y.T.T.R.Y.R.R.",
"S.H.!.!.S.S.A.C.G.S.S.G.S.`.S.!.S.}.0X;XC.U.`.S.S.. h  .,.p @ @ + M ,.=.g . (.}.1X}.Y.C.T.T.Y.U.Z.Z.Z.Z.Z.S.).S.A.A.Y.S.T.T.R.Y.",
"G.S.S.`.G.Z.}.|.`.!.S.S.`.S.S.`.Y.A.R.!.Y.T.T.Y.. h 9  .S v 2 @ , a A A 9 i X }.}.).Y.A.T.T.!.).^.Q.!.!.!.Z.S.G.S.S.`.}.}.T.Y.C.",
"`.!.Z.S.S.!..X;X`.`.!.S.S.S.S.`.T.B.c.c.Z.!.S.  . $ @ , X.A > 6 < E ! 8 > + . o (.J.J.J.J.A.A.S.S.S.!.!.S.!.P.S.S.L.].|.}.K.A.K.",
"S.G.S.Z.'.;X[.n.S.S.S.S.S.S.S.S.S.S.B.C.!.!.S.. e.kXw.w.Z K H 6 Z Q A 9.w.lXY X ).J.J.A.Y.J.Y.).!.S.G.`.P.!.S.L.S.oXOXS.B.I.K.S.",
"!.`.{.!.}.2X'.k.D.S.S.S.S.S.S.S.T.!.!.S.U.T.!.. & A A K @.Z ^ X.! B -.K  .A &   (.J.(.(.(.(.(.Y.Y.U.U.).S.S.'.}.P.:X>XB.j.S.`.A.",
"G.|.2X'.'.<X}.S.S.S.`.`.S.S.!.`.!.Z.T.`.S.!.`.Z.. + A ..<.Z Q ^ E Q X.~ S + . Y.(.(.(.(.A.A.Y.(.Y.T.T.S.A.`.;X:X`.oX>X'.V.S.A.K.",
"S.S.Y.U.S.C.U.).S.`.oX=X}.).S.`.).U.S.T.S.T.`..X+ 3 q V +.~ F @.H F #.K 3 q . D.S.S.).`.J.A.S.Y.T.T.T.T.!.E.T.Q.U.T.A.!.T.C.S.`.",
"!.n.l.B.C.c.F.T.S.}.2XyX1X}.S.S.R.T.Z.S.!.G.'.. &.r.3 J #.( 3.) ) ` &.L 3 0.d . A.J.).).).).S.S.T.T.T.R.T.Z.n.c.Z.n.l.Z.S.Z.T.}.",
"R.C.B.Z.U.Z.C.S.S.}.0XyX1X}.A.A.K.`.S.A.S.Z.. 1 &.t.G F 9.3.) ) 2.2.u.P L 0._ - X S.Y.Y.Y.S.R.Y.S.S.U.).T.S.Z.Z.T.Z.B.T.`.S.}.2X",
"S.`.`.T.S.).`.Y.J._.oX;X=X_.J.A.S.`.S.S.!.T.  ,.r.r.#.H q.F y.) y.D 8.Z +.0.q.- X S.S.Y.A.S.T.R.S.U.S.Y.T.T.T.!.S.`.`.).S.S.|.3X",
"Z.T.!.S.A.Y.T.).).A.A.).).).A.A.S.A.S.`.`.  : 1 8.%.@.:.F H y.V 9.J H ;.;.^ w.4 - O (.).R.T.R.R.).S.A.S.).S.S.T.A.S.K.S.A.K.).).",
"S.T.T.R.T.T.T.T.S.A.A.A.J.A.A.S.S.A.`.`.A.  ; 0 3 c H X.:.B q./ q.W -.X.H z 7 5 * * T.).T.R.Y.Y.A.S.}.|.}.).S.`.S.S.T.Y.S.`.J.S.",
"A.T.T.!.).Y.).S.J.S.S.S.S.A.S.).S.S.`.S.B.  ; $ 3 H < n X.Q :.V X.! X.q 8 H 2 % * O Y.Y.T.Y.Y.A.A.).@X,X|.T.S.T.!.S.).S.J.S.S.S.",
"!.S.T.T.S.A.A.[.).J.A.S.Y.J.J.).G.G.S.S.Y.  . i 9 -.Q , n n F / Q v M P F #.q q     T.Y.Y.Y.R.(.S.S.R.`.[.Y.S.A.T.S.A.A.A.).S.J.",
"T.!.T.T.S.A.S.).).J.).A.A.).).S.S.`.S.S.`.  # j 5 X.X.~ F z J q.K z H ~ #._ < p #   ).).(.).).).Y.T.Y.U.Y.A.T.Y.T.Y.Y.Y.Y.Y.).Y.",
"!.T.!.T.T.T.Y.Y.J.S.A.J.S.).S.S.S.S.S.S.S.).. 4 9 X.-.P G / ( 0.@.L H #.` ^ 8 5 + (.Y.Y.A.Y.).S.T.T.Y.T.U.R.Y.Y.T.T.Y.Y.U.A.A.).",
"T.G.S.S.T.`.).Y.J.).).A.).S.A.A.!.Z.S.T.S.S.+ j 4 <.$.@.5.J ` _ &.J ` ( &.-.7 6 . ).S.J.A.A.`.S.Z.Q.R.Y.R.T.R.U.Y.R.Y._.).U.S.).",
"!.T.U.T.Y.Y.S.Y.J.).).A.S.`.`.A.T.T.S.!.`.`.. C 9  .$.+.4.J ` #.#.F #.#.:.^ 8 M + ).).).A.A.)._.[.[.).U.R.Y.R.T._.Y.Y.R.).T.T.Y.",
"!.!.Z.!.).T.A.A.A.A.S.A.).=X;XS.S.S.S.'.1X. { 4 + 5 ..&.3.I D ` G G ( #.Z q @ 5 ^ + ).S.T.T.Z.|.<X[.S.!.!.!.S.).T.T.S.S.Y.S.S.T.",
"!.Z.Z.S.T.T.).).J.A.A.A.`.2X2X`.Z.G.`.%X2X. O.4 $ 4 x +.+.P F ` G ( #.^ M 9 @ 2 Q > Y.T.@X@XZ.@XrX1X{.!.T.S.R.).S.Y.Y.S.S.S.T.S.",
"T.!.!.T.Y.S.)._.J.A.A.J.`.|.|.`.G.!.!.'.|.. O.5 o 4 p %.%.J Q _ F F &.E f 0 . 4 / @ T.!.%X%X{.*XrX5X.XT.Z.S.S.A.S.S.S.S.K.'.I.S.",
"Z.{.<X@XT.S.U.J.A.).A.A.J.C.B.).!.!.S.Z.. fX .$   + N ~ ( P B _ W F X.{ g & . 4 / gX> T.Z.Q.$XrX2X'.B.Z.S.!.S.`.S.S.S.S.}.@X].A.",
"[.#X#X[.Y.R.Y.A.Y.A.Y._.A.l.c.Y.T.Q.U.B.  fX$ 0   + q K @.J W _ W W @.E h . . 4 < hX@ S.l.n.`.$X{.N.b.S.`.T.A.J.).K. XK.].9XOXP.",
"rX[.c.c.T.).R._.U.R.).T.Y.Y.U.U.U.S.R.T.  aX; .   . -.@.:.F W _ Q Q @.@.-.. #   2 iX> T.!.B.k.a.f.B.H.T.!.).S.A.J.oX3XP.I.:X9X>X",
"yX#XB.B.T.'.).Y.Y.).).A.U.).`.S.T.T.R.T.  : ;   . @ ~ ` _ W ` ` ' B #.~ ..>   . 4 8 + T.!.S.n.n.k.Z.!.G.S.K.S.A.L.=X2X;X+X6X6X4X",
",X@X).S.U.).).A.A.).).T.S.Y.T.T.`.R.Y.U.Y..   . + v H H H H &.&./ W J L P N #     . T.).S.!.!.!.G.G.G.T.!.S.G.Y.).].>X5X9X6X7X7X",
"c.C.Y.).T.T.Y.Y.Y.).Y.).T.S.S.T.Y.T.T.S.S.Y.. + E q.0.H n K #.r.&.I P L u.9.}     A.S.U.T.T.T.S.S.!.`.S.A.S.!.!.E.n.M.&XtX8X^.H.",
"j.c.U.).`.S.S.A.Y.).).Y.T.Y.Y.S.T.S.).T.Y.Y.  $ A u.8.+.z v ..%.+.c c $.8.8.A &   T.A.A.T.T.S.T.S.K.).S.S.S.!.G.G.n.c.Q.$XXXH.b.",
"S.S.).S.A.A.T.J.S.).J.S.J.).J.A.).Y.S.).S.. . E ;.( r.#.> p c $.%.x c +.8.$.<.C .   ).Y.T.T.Y.T.R.Y.Y.R.R.E.E.!.Q.Q.U.b.p.p.M./.",
").).).S.S.S.S.S.A.S.Y.).S.A.A.).).Y.S.).).+ # i $.( t.r.@ + q $.p > > 9.r.5.X.h & + Y.T.S.[.=X@XY.Y.E.R.T.!.Q.Q.Q.^.E.U.b.m.W.Q.",
"S.S.T.S.A.).S.S.S.S.T.S.).J.).A.A.J.J.A.).@ i E Z 5.4.8.$   N >.h + > 9.5.+.K  .f + R.Y.S._.;X,XR.T.R.!.`.~.H.G.!.!.G.!.S.A.Y.).",
"A.A.A.S.S.S.A.S.K.!.`.A.S.S.A.).J.J.).A.A.+ k E c +.4.u.. + f >.*.. $ 9.#.#.z K f + ).).S.Y.).).T.T.Y.T.%X<X^.H.H.!.!.G.S.T.).Y.",
"S.T.S.S.S.S.!.S.A.S.`.T.S.S.A.).Y.).J.J.A.+ u j Z 5.&.L .   & *.*.> @ ! #.( +.q N . U.).T.T.S.S.).'.`.G.XX5XOXI.G.I.I.L.L.L.L.K.",
"S.`.S.'.`.G.S.A.S.`.).S.).S.S.S.J.S.A.).).+ # p $.+.$.M . . + 1.9.$.+ b ..$.$.N X   S.Y.T.Y.T.Y.S..X:X'..X5X4X7X].].+XI.L.L.L.J.",
"`.S.).@X%XR.A.!.;X;XY.C.T.T.T.T.).S.J.J.A.S.. j  .K q + + T.T.+ K r.w.. v ..Z $   Y.T.S.S.T.!.!.`.:X5X&X:X6X6X4X+X4X5X].).oX XL.",
"~.S.T.[.|.{.`.`.qX<XT.Z.S.T.T.T.J.J.Y.(.J.Y.. g q  .i + @ S.T.+ K u.h . f { f ;   ).T.U.S.R.!.S.`.'.:X6X7X$X7X6X9X>X].P. X3X}.J.",
"U.S.U.c.Z.;X|.!.,X<X!.S.S.T.Y.S.S.J.J.A.).A.  0 j u 0 . Y.A.. & +...+   & g k o * T.T.S.T.!.!.Q.E.b.Q.<X{.H.XXtX7X^.n.M.~.~.[.R.",
"Y.S.T.l.T.rX;X!.;X2X[.T.Y.S.Y.).A.).).A.J.Y.  # g j # + Y.Y.. q *.@ .   * g k O X T.T.S.G.T.S.!.Q.n.n.Q.n.a.H.^.!.Z.b.W.~.T.R.R.",
"T.[.T.E.[.<X%XT.%X%X'.!.S.S.P.S.Y._.Y.Y.Y.R.X 1 i i # X R.Y.. k 4 . A.  O y k o * A.Y.Y.Y.A.S.T.!.T.C.k.a.a.j.j.j.c.Z.!.!.!.Q.T.",
"T.!.!.T.T.Z.Z.Z.B.Z.S.S.S.S.K.S.(.(.(.Y.Y.T.. b Q a   U.A.R.  l   Y.Y.Y.  r } w * Y.Y.).T.S.Y.).`.T.Y.C.M.C.m.B.M.E.Q.!.Q.S.T.Q.",
"Y.U.!.T.C.l.n.!.k.n.S.!.T.!.R.Y.Y.T.J.).Y.S.+ m y.n   ).S.S.    T.`.).T.. s e.y - A.).).).).T.).S.S.S.U.).`.T.T.!.T.S.S.S.R.R.R.",
"S.S.S.U.Z.Z.T.!.Z.B.!.!.S.S.T.Y.(.(.A.J.Y.J.@ [ hXb X Y.U.S.A.X T.R.Y.R.  t fXs o A.Y.).).Y.Y.Y.S.S.T.Y.R.U.Q.!.`.T.Z.G.S.Y.R.R.",
"J.S.S.S.S.S.S.G.!.E.!.R.U.R.U.R.J.S.J.S.J.K.> ] pX7 . `.%X|.G.S.X S.S.T.X : U R + S.A.(.J.(.J.J.J.S.J.).S.S.T.!.).S.S.J.).).Y.Y.",
"A.S.T.K.S.A.S.G.!.T.T.~.R.R.R.T.).J.S.J.J.+ @ 6.uX@ T.[.%X@X`.S.S.T.S.`.;X. S.U o o J.A.J.).).A.J.S.A.).T.Y.T.T.S.S.S.J.T.Y.Y.Y.",
"L.L.K.L.V.V.S.`.S.G.T.{.-X_.R.E.S.).J.A.. + n 7.6.> T.Z.B.!.XX{.A.P.).S.}.o s.e.Y * X S.J.(.(.J.S.S.D.S.T.T.S.S.A.S.S.S.A.(.).).",
" X XP.V.V.P.K.V.S.T.U.-XqX#XE.R.S.).).A.. + y.pX] 7 . Z.l.`.5X{.`.}.`.C.e r M.iXe.r X A.J.(.J.J.V.S.K.S.T.S.S.S.S.K.T.J.J.).(.A.",
">XOXG.V.G.V.P.S.G.Z.S.%X0X#XR.T.Y.S.T.`.. u iXpXW d + U.[.%X;X|.`.3X}.S.P.S.- sXsXb.o ).A.A.(.(.S.!.G.S.!.T.S.S.`.S.!.S.S.).A.Y.",
"9X>X].G.P.].].P.G.S.G.T.S.U.R.E.S.T.`.).X s.iXjXd - # R.R.Q.H.Z.}.0X;XS.S.S.h.dXaXS.d.`.J.J.J.A.G.|.|.!.Z.!..X@XG.S.S.S.S.).A.S.",
"5XrXrXXX.X>X].G.V.G.P.B.j.C.R.Y.T.`.T.Y._.r (.R s Y E.R.R.B.c.B.}.;XoXS.V.S.!.S.G.T.S.S.Y.(.Y.A.!.;X<X[.T.{.%X%XG.S.G.G.).).S.A.",
"yXrX5X<X<X5XOXG.G.S.S.D.B.U.).R.!.T.T.}.;X|.Y.g.Z.Q.Y.U.T.U.B.A.`.}.K.J.S.S.!.`.S.G.T.S.).).(.(.!.%X*X[.{.*X!.M.Z.G.!.S.S.S.S.S.",
"$X&XeXtX8X$X'.^.!.G.S.A.K.).S.).S.S.}.|.'.`.G.E.R.).R.U.R.).S.).J.A.J.S.S.G.!.!.Z.!.S.T.Y.A.(.(.`.<X,X~.*XqXU.c.Z.T.!.S.S.S.S.S.",
"d.^.wXtX$Xn.n.G.G.G.S.A.).S.A.).S.T.:X`.l.c.Z.T.R.R.T.T.`.Y.A.S.J.S.J.S.S.G.T.G.!.G.T.T.Y.A.A.Y.[.<X,XQ.#X,X~.T.Z.G.G.G.S.S.T.G.",
"d.g././.W.M.H.Q.Q.!.).S.Y.T.Y.).A.P.2X.XD.C.S.G.!.T.T.R.J.S.A.(.J.S.K.S.T.G.G.[.%X!.S.T.Y.A.(.A.E.~.E.U.E.E.~.!.G.Z.`..X|.S.S.S.",
"d.d.g.g.g./.^.!.Z.A.).'.!.Y.).Y.K.K.;X3X].`.H.E.Z.T.R.Y.A.A.A.L.J.A.J.S.T.S.S.$X2X`.S.T.Y.(._.(.U.c.v.U.M.k.E.E.!.G.`.2X2XG.A.A."
};
