/* XPM */
static char *result[] = {
/* columns rows colors chars-per-pixel */
"39 32 97 2 ",
"   c #22211F",
".  c #211F20",
"X  c #252422",
"o  c #292827",
"O  c #2D2C2A",
"+  c #302E2F",
"@  c #32302F",
"#  c #353332",
"$  c #393736",
"%  c #3C3836",
"&  c #393738",
"*  c #3C3A39",
"=  c #423E3D",
"-  c #43413E",
";  c #454442",
":  c #494642",
">  c #4C4947",
",  c #4B4748",
"<  c #4D4B4A",
"1  c #514E4E",
"2  c #54514E",
"3  c #545251",
"4  c #595552",
"5  c #5C5854",
"6  c #5D5A5A",
"7  c #625D5C",
"8  c #64615E",
"9  c #625F61",
"0  c #666362",
"q  c #696564",
"w  c #6C6966",
"e  c #6B6768",
"r  c #6E6B6B",
"t  c #716967",
"y  c #736F6D",
"u  c #746F72",
"i  c #747071",
"p  c #7A7674",
"a  c #7C7877",
"s  c #7E7A79",
"d  c #817D7C",
"f  c #85817E",
"g  c #88847F",
"h  c #868281",
"j  c #8A8583",
"k  c #8C8886",
"l  c #8D8988",
"z  c #918D8B",
"x  c #97938F",
"c  c #979393",
"v  c #9A9694",
"b  c #9C9996",
"n  c #9E9A99",
"m  c #A09A97",
"M  c #A39E9B",
"N  c #A7A29F",
"B  c #A59FA1",
"V  c #A6A2A0",
"C  c #AAA5A2",
"Z  c #ACA9A5",
"A  c #ACA6A8",
"S  c #ADABA9",
"D  c #B1ABA6",
"F  c #B3ADAB",
"G  c #B6B1AE",
"H  c #B9B2AD",
"J  c #B7B3B1",
"K  c #BBB5B2",
"L  c #BEB8B6",
"P  c #BEBCBB",
"I  c #C2BBB6",
"U  c #C3BDB9",
"Y  c #C3C0BD",
"T  c #C9C3BE",
"R  c #CCC6C2",
"E  c #CDC9C5",
"W  c #D2CBC6",
"Q  c #D2CDC9",
"!  c #D6D1CC",
"~  c #DAD3CD",
"^  c #D7D3D2",
"/  c #DCD6D2",
"(  c #DED9D5",
")  c #DEDBD9",
"_  c #E2DAD5",
"`  c #E4DEDA",
"'  c #E6E1DD",
"]  c #EAE4DE",
"[  c #E5E2E0",
"{  c #ECE6E2",
"}  c #EEE9E5",
"|  c #EFEAE8",
" . c #F1EAE6",
".. c #F0E7E9",
"X. c #F2EBE9",
"o. c #F6F2EF",
"O. c None",
/* pixels */
"O.O.O.O.O.O.O.O.O.O.O.O.O.O.O.O.O.O.O.O.O.O.O.O.O.O.O.O.O.O.O.O.O.O.O.O.O.O.O.",
"O.O.O.O.O.O.O.O.O.O.O.O.O.O.O.O.O.O.O.O.O.O.O.O.O.O.O.O.O.O.O.O.O.O.O.O.O.O.O.",
"O.O.O.O.O.O.O.O.O.O.O.O.O.O.O.O.O.O.O.O.O.O.O.O.O.O.O.O.O.O.O.O.O.O.O.O.O.O.O.",
"O.O.O.O.O.O.O.O.O.O.O.O.O.O.O.O.O.O.O.O.O.O.O.O.O.O.O.O.O.O.O.O.O.O.O.O.O.O.O.",
"O.O.O.O.O.O.O.O.O.O.O.O.O.O.O.O.O.O.O.O.O.O.O.O.O.O.O.O.O.O.O.O.O.O.O.O.O.O.O.",
"O.O.O.O.O.O.> p g a : - O.O.O.O.O.O.O.O.O.O.O.O.O.O.O.O.O.O.O.O.O.O.O.O.O.O.O.",
"O.O.O.O.O.0 c x | ^ R Y x : - 2 6 5 > - 2 2 6 5 4 5 6 8 4 O.O.O.O.O.O.O.O.O.O.",
"O.O.O.O.w Z G h [ ' ] ~ N g x I Q ~ Z b Y T ! ! ! ! ! ! E Q O.O.O.O.O.O.O.O.O.",
"O.O.O.Z h k l s G Y ! I D D T ~ ( ' / _ ] } ' ( ! ( ' { o.' / { { O.O.O.O.O.O.",
"O.O.z 0 h G N k g Z K H H K Q ( } ' ( } } }  .} ' ' o.X.{ { [ ` } ] ( O.O.O.O.",
"O.< 8 E { ' / R d y M z F T _  . .}  . . .} X. .| { .. .} X.} { X. .] / O.O.O.",
"O.O.b }  .} { _ U d t g I _ ]  . . ... . . . ...| ..X...} X.| }  ...] ~ E O.O.",
"O.O.S } { (  .` _ C 7 M U _  .} X.} } }  . . .....X.} } | X.| } X. . ._ ^ h O.",
"O.O.N o.Z D  .] ~ m p H / _ ]  .}  .X. .X.X. ...X...X.o.| } | } ] _ ] _ Y d O.",
"O.O.8 ' Y ~  .' I t m W ~ ~ _ ] ]  . .] { ..X.....{  .] { ] } } ' ~ / ~ L j 1 ",
"O.O.1 ( X.} ( F d 7 I ! ~ ~ ] ~ '  . .' _ {  ..._ _ o.] / _ ] } _ ! ~ Q F b < ",
"O.O.- R ` Q D 8 2 f D Y T W ! ~ ' ] _ _ / { .._ W ~ ] _ ~ ~ ~ ~ ~ / W H 7 p ; ",
"O.O.* b v g j 4 - f z Z ~ I U ! ' ' T ~ ~ _ ] R I ~ _ R I U U U R ^ I m 9 1 * ",
"O.O.O.6 6 O.O.O.- p d N T I K T _ ~ T ~ ! R W K H T ~ R I I U U Q E B h r O.O.",
"O.O.O.O.& O.O.O.O.4 p N I D F I ~ T I T U I U C c I R I N A I I F A d h 9 O.O.",
"O.O.O.O.O.O.O.O.O.O.7 m K b v U W K V K J D m j h C J F l d M A k c u 6 O.O.O.",
"O.O.O.O.O.O.O.O.O.O.O.g V k d J K v z J n z d d s j c M d d d h h i , O.O.O.O.",
"O.O.O.O.O.O.O.O.O.O.O.y h u r h b d p m l d a t , ; 9 d 7 , 1 9 r ; O.O.O.O.O.",
"O.O.O.O.O.O.O.O.O.O.O.4 6 , r a u e < 9 a p 3 % O.O.O.= q = j m 3 O.O.O.O.O.O.",
"O.O.O.O.O.O.O.O.O.O.O.O q 4 V ` 6 = O.O.3 1 O.O.O.O.O.% b , z ) b O.O.O.O.O.O.",
"O.O.O.O.O.O.O.O.O.O.O.O d > N o.; O.O.O.O.O.O.O.O.O.O.# 7 * m [ O.O.O.O.O.O.O.",
"O.O.O.O.O.O.O.O.O.O.O.O.% % M ` ; O.O.O.O.O.O.O.O.O.O.O O p ^ ( p O.O.O.O.O.O.",
"O.O.O.O.O.O.O.O.O.O.O.O.O.= 5 s ; O.O.O.O.O.O.O.O.O.O.  X 9 P S ; O.O.O.O.O.O.",
"O.O.O.O.O.O.O.O.O.O.O.O.O.O # # O O.O.O.O.O.O.O.O.O.O.O.X # 3 < o O.O.O.O.O.O.",
"O.O.O.O.O.O.O.O.O.O.O.O.O.O @ X O.O.O.O.O.O.O.O.O.O.O.O.. O + O o O.O.O.O.O.O.",
"O.O.O.O.O.O.O.O.O.O.O.O.O.O.O.O.O.O.O.O.O.O.O.O.O.O.O.O.O.O.O.O.O.O.O.O.O.O.O.",
"O.O.O.O.O.O.O.O.O.O.O.O.O.O.O.O.O.O.O.O.O.O.O.O.O.O.O.O.O.O.O.O.O.O.O.O.O.O.O."
};
