/* XPM */
static char *result[] = {
/* columns rows colors chars-per-pixel */
"39 32 100 2 ",
"   c #211D1E",
".  c #22211F",
"X  c #211F20",
"o  c #252324",
"O  c #292627",
"+  c #2A2826",
"@  c #2E2B2B",
"#  c #302D2E",
"$  c #343232",
"%  c #383736",
"&  c #3A3937",
"*  c #3B3739",
"=  c #3C3A39",
"-  c #423E3C",
";  c #44403E",
":  c #464243",
">  c #494542",
",  c #4D4B4A",
"<  c #524E4D",
"1  c #54514F",
"2  c #514F50",
"3  c #565354",
"4  c #5A5655",
"5  c #5B5956",
"6  c #5D5B5B",
"7  c #615D5C",
"8  c #64605D",
"9  c #656464",
"0  c #6A6664",
"q  c #6B6866",
"w  c #6A6768",
"e  c #6D6A69",
"r  c #716D6B",
"t  c #76716D",
"y  c #757272",
"u  c #7A7675",
"i  c #7D7977",
"p  c #7B7679",
"a  c #7E7C7A",
"s  c #827D7C",
"d  c #85817E",
"f  c #88837F",
"g  c #848281",
"h  c #8A8583",
"j  c #8C8885",
"k  c #8D8788",
"l  c #928C8A",
"z  c #94908D",
"x  c #9A938E",
"c  c #958F90",
"v  c #969391",
"b  c #9A9694",
"n  c #9F9995",
"m  c #A39C97",
"M  c #A29D9C",
"N  c #A5A09D",
"B  c #ABA49F",
"V  c #A6A2A3",
"C  c #ABA5A3",
"Z  c #ADA9A7",
"A  c #A9A7A8",
"S  c #AEA8A8",
"D  c #B1AAA6",
"F  c #B3ADAB",
"G  c #B6B1AE",
"H  c #BAB3AE",
"J  c #B7B3B0",
"K  c #BBB5B2",
"L  c #BEB9B5",
"P  c #BEB9B9",
"I  c #C2BBB6",
"U  c #C4BEBA",
"Y  c #C5C0BB",
"T  c #CAC3BE",
"R  c #C3C2C0",
"E  c #CBC5C2",
"W  c #CEC9C5",
"Q  c #CDCACA",
"!  c #D1CAC5",
"~  c #D4CDCA",
"^  c #D7D0C7",
"/  c #D6D1CC",
"(  c #DAD3CC",
")  c #D6D3D1",
"_  c #DBD5D1",
"`  c #DED8D4",
"'  c #DEDBD9",
"]  c #E2DBD5",
"[  c #E4DDDA",
"{  c #E6E1DD",
"}  c #EAE3DD",
"|  c #E6E2E1",
" . c #ECE6E3",
".. c #EEE9E6",
"X. c #EFEBE8",
"o. c #F1EAE6",
"O. c #F1EBE8",
"+. c #F6F2EF",
"@. c #F5F2F2",
"#. c None",
/* pixels */
"#.#.#.#.#.#.#.#.#.#.#.#.#.#.#.#.#.#.#.#.#.#.#.#.#.#.#.#.#.#.#.#.#.#.#.#.#.#.#.",
"#.#.#.#.#.#.#.#.#.#.#.#.#.#.#.#.#.#.#.#.#.#.#.#.#.#.#.#.#.#.#.#.#.#.#.#.#.#.#.",
"#.#.#.#.#.#.#.#.#.#.#.#.#.#.#.#.#.#.#.#.#.#.#.#.#.#.#.#.#.#.#.#.#.#.#.#.#.#.#.",
"#.#.#.#.#.#.#.#.#.#.#.#.#.#.#.#.#.#.#.#.#.#.#.#.#.#.#.#.#.#.#.#.#.#.#.#.#.#.#.",
"#.#.#.#.#.#.#.#.#.#.#.#.#.#.#.#.#.#.#.#.#.#.#.#.#.#.#.#.#.#.#.#.#.#.#.#.#.#.#.",
"#.#.#.#.#.#.#.#.#.#.#.#.#.#.#.#.#.#.- ; - ; ; ; ; ; ; ; - - #.#.#.#.#.#.#.#.#.",
"#.#.#.#.#.#.#.#.#.#.#.#.#.#.1 5 5 8 C F B F K L L L L K C A v 7 6 #.#.#.#.#.#.",
"#.#.#.#.#.#.#.#.#.#.#.#.#.y Z ^ ) { _ ' '  .' ` ( ' { ..X.{ _ { ' d #.#.#.#.#.",
"#.#.#.#.#.#.#.#.#.#.#.#.N ^ { _  .[ `  .X.O.O.[ [ [ X.O.....[ { o.} W #.#.#.#.",
"#.#.#.#.#.#.#.#.#.#.L / } } { } X. . .O.O...O.X.....O...O.X... ... . .' #.#.#.",
"#.#.#.#.#.#.#.#.#._ _  .} o.o.} ....o...X.O.X...........O..... .o.o.} ( R 9 #.",
"#.#.#.#.#.#.#.Y W } } ( ^ } o.o.o.......X...O.X.....X.X.X.o.o.o.o.o.o.] ) g #.",
"#.#.#.#.#.L T ^ ( ( ] ^ ] ] } o.o.o.o.o.o.o.O. .o.+.O.X.X.X.X...X.' o.` E g #.",
"#.#.#.#.C Y ] } ! ( T ] ] ] ] }  .o.o.o.o.o.o.O. .} O.O. ...X...} ( { ^ K g ; ",
"#.#.#.N s d [ _ I T ] } ] ^ } } [ o.o.[ ] o.o.o.] { o.} ` ' ....` ( ( / L b , ",
"#.#.#.u ~ t L ! D B { ( T ^ ( ^ [ o.[ [ ( o.o.[ ^ _ } { ) ( ) { ` / ( L r g , ",
"#.#.s w I t B ! x f I U ! I T ( [ } ( ` / [  .~ I ( [ ! U ! I E ! ( U m 7 4 = ",
"#.h 0 l x s h C l s l G ! H I E ] ( I ( ( ~ ( I I ! _ ! I F U T Q ~ C k e * #.",
"q s G _ ! U l r s s s V I H H I ( ~ I T U U U F m I W U G G K I P J h d w #.#.",
"1 K +.O.o.[ ! s 0 r 7 M H m m U ~ I D I K H D l h F G F b h S S c b p w : #.#.",
"8 [ ....}  ._ Q 0 7 7 s S l g J U m l L N b s s a l V V s s k l d p 3 * #.#.#.",
"e [ } F _ O.[ / r < < t k p i b M f s M l s a u 4 < y j w < 1 w y 1 #.#.#.#.#.",
"2 _ [ l  ...] C > #.#.9 w , 4 w s r 4 y s a 7 : #.#.; : 7 - s s , + #.#.#.#.#.",
"#.M O...o.[ T 5 #.#.#.$ 6 3 A Q 2 , #.* 6 6 #.#.#.#.#.= l > l _ j + #.#.#.#.#.",
"#.b ..| / z 9 #.#.#.#.+ g < M @.: #.#.#.#.#.#.#.#.#.#.= p = x [ M @ #.#.#.#.#.",
"#.w Q M R w , #.#.#.#.o : = V | : #.#.#.#.#.#.#.#.#.#.# % w Q ' V # #.#.#.#.#.",
"#.#.v , , 3 #.#.#.#.#.o O : r M : #.#.#.#.#.#.#.#.#.#.o o y Q P , #.#.#.#.#.#.",
"#.#.#.= #.#.#.#.#.#.#.#.X @ * * $ #.#.#.#.#.#.#.#.#.#.#.X % e 9 $ #.#.#.#.#.#.",
"#.#.#.#.#.#.#.#.#.#.#.#.#.@ % O #.#.#.#.#.#.#.#.#.#.#.#.#.# $ $ + #.#.#.#.#.#.",
"#.#.#.#.#.#.#.#.#.#.#.#.#.o o X #.#.#.#.#.#.#.#.#.#.#.#.#.O X O #.#.#.#.#.#.#.",
"#.#.#.#.#.#.#.#.#.#.#.#.#.#.#.#.#.#.#.#.#.#.#.#.#.#.#.#.#.#.#.#.#.#.#.#.#.#.#.",
"#.#.#.#.#.#.#.#.#.#.#.#.#.#.#.#.#.#.#.#.#.#.#.#.#.#.#.#.#.#.#.#.#.#.#.#.#.#.#."
};
