/* XPM */
static char *result[] = {
/* columns rows colors chars-per-pixel */
"64 64 227 2 ",
"   c #211E1F",
".  c #231F21",
"X  c #252323",
"o  c #2C2A2A",
"O  c #282825",
"+  c #312E2D",
"@  c #273927",
"#  c #363334",
"$  c #3E3C3B",
"%  c #3A3737",
"&  c #31352F",
"*  c #403E3F",
"=  c #284727",
"-  c #2A562B",
";  c #3A4638",
":  c #385738",
">  c #30552D",
",  c #396A38",
"<  c #2D7A32",
"1  c #3A723A",
"2  c #367836",
"3  c #2A732C",
"4  c #174A19",
"5  c #42453C",
"6  c #44493E",
"7  c #405B3E",
"8  c #41703D",
"9  c #3E7C43",
"0  c #4A4846",
"q  c #524D4C",
"w  c #495A47",
"e  c #52534D",
"r  c #5E5A5A",
"t  c #585754",
"y  c #615C59",
"u  c #496848",
"i  c #5A7558",
"p  c #506F4F",
"a  c #64635D",
"s  c #6A6664",
"d  c #6D6B69",
"f  c #676664",
"g  c #716D6B",
"h  c #726966",
"j  c #74716E",
"k  c #79736E",
"l  c #726F71",
"z  c #767272",
"x  c #7B7674",
"c  c #7E7976",
"v  c #7E7B7A",
"b  c #777875",
"n  c #6B7869",
"m  c #827D7C",
"M  c #817A76",
"N  c #299D2D",
"B  c #3C883E",
"V  c #2D9831",
"C  c #37973A",
"Z  c #2D8230",
"A  c #2BA42D",
"S  c #27A72B",
"D  c #2DAC32",
"F  c #2BA331",
"G  c #31A535",
"H  c #34AC35",
"J  c #35AB3B",
"K  c #3AAC3C",
"L  c #3AA33B",
"P  c #32B235",
"I  c #3BBC37",
"U  c #35B43B",
"Y  c #3BB53D",
"T  c #36BC3D",
"R  c #3BBC3D",
"E  c #38BB35",
"W  c #2FB133",
"Q  c #448C3E",
"!  c #41BD3C",
"~  c #41B83A",
"^  c #40A039",
"/  c #37C13E",
"(  c #3BC13D",
")  c #39C136",
"_  c #43C13E",
"`  c #48C53D",
"'  c #3E9641",
"]  c #3BA942",
"[  c #3AB542",
"{  c #36BD41",
"}  c #3CBD42",
"|  c #3EBD49",
" . c #3BB745",
".. c #468746",
"X. c #479949",
"o. c #558854",
"O. c #589C57",
"+. c #51854F",
"@. c #43AB45",
"#. c #42B644",
"$. c #41BD43",
"%. c #41BE4A",
"&. c #48BA4A",
"*. c #58B558",
"=. c #61A55F",
"-. c #669866",
";. c #7A8978",
":. c #799079",
">. c #6B8469",
",. c #6BAC6D",
"<. c #69B86A",
"1. c #77B575",
"2. c #36C141",
"3. c #3CC143",
"4. c #3EC14A",
"5. c #42C244",
"6. c #49C646",
"7. c #4BCA44",
"8. c #44C44A",
"9. c #4BC54B",
"0. c #46CA4B",
"q. c #4BCB4D",
"w. c #42C841",
"e. c #52CE4B",
"r. c #52C74B",
"t. c #4ED04D",
"y. c #53D24D",
"u. c #58D14E",
"i. c #4CCC52",
"p. c #4AC953",
"a. c #53CD53",
"s. c #56C858",
"d. c #4ED255",
"f. c #53D355",
"g. c #5BD552",
"h. c #5BD955",
"j. c #55D35B",
"k. c #5CDA5C",
"l. c #58D75B",
"z. c #62DA57",
"x. c #63DC5A",
"c. c #69DE5D",
"v. c #61D656",
"b. c #60CE5B",
"n. c #66E25D",
"m. c #5DDC61",
"M. c #5CD763",
"N. c #5ECB60",
"B. c #64D562",
"V. c #64DD63",
"C. c #6BDD67",
"Z. c #75C675",
"A. c #66E467",
"S. c #86817E",
"D. c #89827F",
"F. c #82B97F",
"G. c #867F82",
"H. c #868282",
"J. c #8A8583",
"K. c #8D8988",
"L. c #928D8B",
"P. c #918B86",
"I. c #95918D",
"U. c #969393",
"Y. c #9A9593",
"T. c #9D9A96",
"R. c #9C9A99",
"E. c #969994",
"W. c #A39D9C",
"Q. c #A19A95",
"!. c #89B987",
"~. c #96AD93",
"^. c #A4A19E",
"/. c #A8A69E",
"(. c #A3BA9E",
"). c #ABA5A2",
"_. c #ACA9A6",
"`. c #ACA9A7",
"'. c #B1AAA7",
"]. c #B3ADAB",
"[. c #B5B1AE",
"{. c #BAB3AD",
"}. c #BCB6B2",
"|. c #BEB9B5",
" X c #B9B6B6",
".X c #AFB1AA",
"XX c #C2BBB5",
"oX c #C3BDBA",
"OX c #C8BFBE",
"+X c #95C593",
"@X c #A2C09D",
"#X c #B1CEAE",
"$X c #B2E4B4",
"%X c #C6C1BC",
"&X c #CAC3BD",
"*X c #C4C0B7",
"=X c #C4D4BE",
"-X c #CBC5C1",
";X c #CDCAC5",
":X c #CECAC8",
">X c #D2CBC5",
",X c #D4CECA",
"<X c #D8CFCA",
"1X c #D6D1CC",
"2X c #DAD3CD",
"3X c #DAD3C9",
"4X c #DCD6D2",
"5X c #DDD9D4",
"6X c #D7D6D4",
"7X c #CCD6C6",
"8X c #E3DCD6",
"9X c #E3DDDA",
"0X c #E0D7D3",
"qX c #E5E1DC",
"wX c #EAE3DD",
"eX c #E3EDDC",
"rX c #ECE6E2",
"tX c #EEE9E6",
"yX c #EFEAE9",
"uX c #E9E7E8",
"iX c #F1EAE5",
"pX c #F2ECE9",
"aX c #F3EAE6",
"sX c #F5F0ED",
"dX c #F9F3EE",
"fX c #FCF8F6",
"gX c #EBF2E9",
/* pixels */
"T } $.T R 5.} R T R 5.5.3.R R R 3.{ } 3.3.{ { { R 3.} 9.M.j.$.Y [ | } 8.M.d.{ { T / 2.2.R 3.3.I R ! R ! ! Y $.} $.#.} [ } | } } ",
"R R ! R R 5.R R R $.} 5.0.5.R R { { 3.3.{ R R { R } } } $.p.a.8.} } } } p.0.{ { 4.{ / R T R 2.w.6.! T ! ! R ~ [ $.$.$.$.| } { | ",
"5.$.R } 3.R } ! R T R 0.f.0.T R R T 3.2.T R { { } } | U F $.j.9.5.5.R I R _ 3.3._ I I ( ` _ I y.z.` ! ! _ ` ! I R ! _ } R R } { ",
"f.0.R R R R R } 3.T R f.k.q.T } { R { } { { 3.{ } T } [ Y i.M.i.5.e.6.R R R ( R I E ) _ t.7.~ 7.n.g.` ` 7.y.` ~ R R ( _ ( R R 3.",
"A.f.$.T R T R } R 5.3.5.q.5.R 3.} { R { { 3.3.} { R Y } 5.8.i.5.0.k.y.R I R ~ I ~ I ~ ` u.v.r.r.z.n.g.7.u.x.6.I / R R { R R R ( ",
"m.f.5.R R 5.! T R 5.} P W T R } 3.3.{ { } { { { } } R } } U D P 7.k.e.} R ! ) ~ R ~ ~ _ e.x.x.x.z.c.x.g.h.g.6.T _ ( R T R R R / ",
"3.( ( R 5.q.0.T R 5.R P D T } T { 2.3.4.0.8.T } } 3.{ } } H D Y 8.a.5.} } [ 5.$.} $.$.&.~ r.C.C.c.u.s.b.a.$.} } { 0.p.2. .} %.} ",
"S D T R 6.f.a.R T T R ( R R $.T T 2.2.0.d.i.} } R } R } } } R { } |  .} } } 9.$.#.$.$.#.F A s.B.b.^ ^ g.&.S U } 3.j.M.4.{ | | } ",
"E P Y $.5.5.5.8.R R R R ! R R R } 5.i.8.U T 5.} } R R } } } { R } { { | 2.4.} | {  . .| [ K H J ^ G N G J [ } } | 4.4.4.|  .4.| ",
"$.$.$.R I R 5.5.R I R R } } R R { p.k.8.S U } } } { } 3.} } R } } | { { 4.2.{ 8.%.|  .| &.[ D F F V A G J } %.} { { | { { | | | ",
"I Y ! 5.} Y T E } R R } 5.R R $.T 8.m.f.T } $.R R R } R R R R } T 2.{ T 2./ / t.l.4.T U } } } } ~ Y Y Y U R $.R T R R R { } {  .",
"$.R R $.$.R 0.q.5.$.R R R R 5.3.} R 3.} T { } } R } R } R R R R R 2.T T 2./ / 4.t.3.T  .} } } } &.#.$.$.$.R R ( { R 3.q.0.} T T ",
"5.! R R R 5.a.f.5.3._ R R R } 5.} U S D R $.Y $.! ! R R R R } 3.( / ( / I / / / 2./ 2./ 2.R T R R Y $.$.R $._ I ( ( 7.e.q._ R ( ",
"R Y ! Y 5.f.5.H R R } } R R R R R R U U $.$.R R $.R R } T R } R / ) ) / E / / / 2./ T { R / 2.} ! } ! 5.$.! ( R I q.t.T P ( ( R ",
"$.5.9.$.9.x.8.A I R R R R R R R } $.$.} R $.$.! Y R 8.0.Y T { T R T / / T / / / 2.2./ 2.2.2.2.3.2. .} } } } 6.q._ g.h.P S R 5.R ",
"R q.k.6.5.l.9.R R R } 5.R R 5.5.$.Y $.$.Y } $.~ Y #.a.a.#., 0 6 5 5 ; 6 6 6 6 6 6 6 6 : 5 5 5 ; 6 ' [ U I 5.f.f.5.q.h.6.I T T ( ",
"} Y } R U R } } R 5.q.d.0.4.} 5.} } R } R R 5.@.B 2 Q 8 Q a H.v j j j m S.S.S.S.S.S.S.S.j d j z d 9 , 2 L } } $.} [ R $.} U R } ",
"$.H S U U D D } R 0.k.A.l.w.R 2.} } Y R $.Y ^ i f d s s j ].5X1X%X-X>X5X5X8X9X8X9X5X5XwX4X:X:X-X#XG.d z p C V H Y D S U } R $.0.",
"3.U U U } U U } R q.m.A.l.0./ T } $.R T L B e Y.6X6X6X5XaX5X6X5X6X9XtX5X4X4X1X6X1X5X5XrXsXsXrX4X6XuXyXgX/.u ..K } Y U R 5.R q.k.",
"R 5.5.} } 5.} R / 4.t.f.d.3./ T R 5.} *.w R.[.:X6X1X9XsXaX5X5XwXrXtXdXtXuX5X4X1X5XyXtXrXtXtXgXrX4X5XyXsX9X#X<.@.Y $.5.5.R / q.f.",
"I } } } U { } } 2.R T 3.3.3.R R R R s.(.).,XtXtX5X5XtXtX5X1XqXyXpXtXtXpXsXeXwXqX5XrXsXpXyXwXtXyXqX4XqXaXsXrX=X@X&.} { T T R 3.3.",
"Y { $.$.} } } 3.R T T T / T T / *.1.(.2XqXrXpX9XqXpXpXtXqXqXrXpXpXpXrXtXsXpXyXtXqXyXsXyXyXyXaXpXtXrXtXpXtXyXrXsX$X*.@.' ( 5./ R ",
"} } $.} } { 3.{ R R T / R R / Z.(.|.0XiXsXsXpX8XwXaXwXtXpXsXyXtXpXpXyXrXtXpXyXpXyXpXyXtXtXyXyXrXtXtXtXrXtXaXrX9X0X.X,.X.C } R / ",
"} } } } } T T 8.3.2.T / 3.*.Z.7X>X5XaXrX9XwXpXpXiXwXtXtXyXpXtXtXtXpXyXtXtXtXtXyXtXrXtXtXtXaXyXrXtXtXrXpXtXiXiX0X4X:X(.-., R R R ",
"} $.} } { R } 3.2.{ 3.s.Z.~.1XwXiXaXqX3X3X3XwXdXaXaXaXaXtXrXtXrXuXtXiXpXtXtXtXtXtXtXyXpXtXtXyXpXiXiXaXaXiXaXaXrX4X6X6XH.: [ { { ",
"$.} $.} 3.} { R { 5.<.#X&XXX>X0XwXqX3X3X3X3XwXaXaXaXwXaXaXaXyXaXpXpXtXtXyXyXyXtXpXtXyXtXtXtXtXtXtXsXiXrXaXaXaXaX4X6X9XR.: [ { { ",
"! } R Y } } } 3./ +X[.&X3X3X3X3X0X0X3X3X3XwX8XwXaXiXaXaXtXiXaXaXpXtXrXiXpXtXrXtXsXrXaXyXuXpXyXyXtXtXtXsXqX3XaXaX8X%X1XR.: [ { { ",
"#.} } } { { { 3.+X1X-X2XwX0X3X3X=X&X3X3X3XwX3X3XwXaXaXaXiXtXaXaXpXpXiXiXaXtXtXpXaXyXaXaXyXtXyXpXpXtXtXpXwX3X8XrX4X|.oXK.: } { } ",
"$.} R $.} } T 1.c [.wXaXiX>X*X3X0X3X3XwXwX3X8X0XwXwXqXaXaXwXaXiXrXaXyXaXaXyXyXwXqXaXrXiXpXrXqXtXtXyXyXwX4X1X2XqX5X|. XU.t 2 { } ",
"$.Y Y R 3.&.+Xx s k -XdXqX>XXX&X3X8XwXaXwX3X&XwXaX8X8XwXaXaXaX8X<X9XaXyXaXyXaX0X8XaXaXaXeX5X6XqXyXyXsX5X1X2X3X3X5X:X X).d $ R } ",
"$.$.$.$.} <.L.b >Xa P.wX3X&X{./.&XaXaXwX&X3X3XwX8X3X4XwXaXwXaXqX<X0XaXyXyXaX9X4X3XwXiXpXqX1X1X4XrXeXtXqX2X2X1X3X,X/.^.).d 5 _ R ",
"Y q.j.q.&.-.t 5XsXa k <X>XXX/.D.XXaX8X&X*X3X3X3X3X3X4XiXsX8XqXqX4X0XaXaXaX9X>X>X4X4XwXtX5X1X4X1X1X3XqX5X3X3X4X4X|.r t K.d ; w.R ",
"9.i.i.9.<.r q |.2Xy k >X2X&XD.M W.>X&XXX&X&XXX&X0X4X8XwXaX0X0X8X,X,X0XyXaX9XOXoX2X8XwX8XXX*X2X,X|.;X%X&X4X<X<XXX].t q d * ; u.` ",
"m.8.D <.E.j d K.L.k M ).&XXXM M J.'.XXOX8XXX{.XX&X2X8XiX8XOX-X2X4X<X0XrX9X-XXXoX>X2X8X0XXX{.oX{.|.>X*X&X0X:XoX{.Y.x r , C *.n.g.",
"A.p.*.S.6 f ^.T.Y.D.k m ).'.m m M J./.oX3XXX].{.{.-X4X8X<XXX-X4X4X,XOX0X-X{.'.XXOX2X4X0X&X].{.].}.1XOX%X0X6X[.R.M G.y u u.c.c.c.",
"d.<.>.j j T.>X%X-X'.Q.h h Q.J.m m x P.XXXXXXXXXX].OX4X<X<XXXoX<X<XOXXX-XOXXX).W.}.-X4X,XXX[.{.|.{.-X|.OX,XOXR.l m G.r u c.c.v.v.",
"D i * W.fXsXrX9X9X8X,XP.q s M G.g g Y.XX{.{.).].XXOX2X2X>XXX].oXXXXXXXOXOXXXG.L. X X-X X X].W._. X{. X].].).G.v H.b w ..C.b.&.~ ",
"S ; d >XfXpXtXpXaX9X4X2XI.q h m 0 y Y.].|.{.J.Y.].&X4X>X|._.'.{.XXXX'.XX'.G.m G.]. X[.].{.Q.M J.].[.[.L.L.R.G.v z 0 2 #.s.r.~ G ",
"T 5 `.pXpXpXpXtXiXiX0X6X>XY.q g 0 r G.U.|.].J.M T.-X,XoX`.P._.*X'.'.XXG.m m M m L.].[. XR.m M M K.`.U.v G.G.z q $ ' ] J N N J #.",
"3.0 ].sXiXpXpX9X9XpX9X,X9X|.5 i e r v L.].L.m x Y.oXoX].P.z ).|.).G.G.m M M G.m G.K.U.].U.x J.m G.J.G.v G.l q ' ' @. .J J J ] #.",
"R w _.pXdX2X'.XXwXpXtX9X7X1.o.p ' u f H.L.G.G.v K._.`.L.m G.K.).).M M m S.J.d t q 0 v U.P.d q q 0 0 z P.g w B ~ $.$.! ! R T { 3.",
"R 7 (.eXfX_.r OXpXpXrX9X@X=.+...[ < r :.b r r e 0 l U.v G.f d Y.Y.G.m G.f r w 2 9 9 t r r y 5 + q d r t 0 : 7.~ ! &.5.( R } 3.{ ",
"/ 2 -.=XfXXXm rXdXtXuX=X1...2 }  .C u o.f 0 $ r l f d v f : w d z H.m s 7 : ' 0.d.4., & % s y + m %XS.e % > u.` ! ` ` ) ) ) / ( ",
"( $.1 /.fXpXaXpXrXsX1X!.=., R R T { C ; e l * `.fX`.p f w L 2 ; w b d w ] 2.} 5.3.{ { = r Q.a o c >XqX`.q > z.g.` r.y.` ) ) ) ( ",
"} [ , _.fXyXdXuX5X,X~.O.o.1 } } 2.{ < $ ;.b # H.uX$X,.= C } } [ C 6 , ] { { 2.{ { { } = n @Xx o c 5XyX[.e > c.v.u.v.x.7.( t.3./ ",
"| { 1 E.yXsXuX-X1Xb +.+.2 ] } R T { < 9 !.v o L.uX$XZ.@ U R } { 2.] [ { T T { { { 2.} = f ;.* X c 9XuX:Xd = v.n.n.g.e.R w.h.w./ ",
"{ Y 9 n :X6X`.9X5Xt ..o.2 } { { 2./ Z ; i q . R.uX$X1.= J  .{ { 2.2.2.{ { { T { { $.} = * % O d  XuXqX7Xm @ r.C.v.6.J K %.9.8.| ",
"} Y , 9 (.`.r J.;.-.o...C R { } / { Z X # o q U.6X#X,.@ J T { } 2.{ T { 4.3.T { } } R > + . 0 [.9XuX6XE.w 3 ~ &.$.K H K | | %.| ",
"[ | B ..,.:.; u ..O...C ! R 5.R 4.{ Z X o X r f v ~.-.@ L } } } } R T { 3.{ R { { {  .= O X $ Y.,X6X Xr 4 N S S S D Y $.$.} $.[ ",
"} $.%.C ...., O.X...C ! R R ( R { 2.' = @ . + % # e p - J } 3.} { { R 3.3.2.T R T  .{ 3 @ O . 0 U.^.G.* - T D H K Y #.$.} #.$.#.",
"{ } } } C , , 1 2 V Y $.} } 3.{ { { { R G O # * # o @  .R } R $.} 5.3.{ 3.} { { { { { } { < o # * * * o > 4.#.} $.} R R } } | 4.",
"} Y } R Y K K @.L P $.5.R } } } 2.{ R 2.] @ + % + . =  .} R R } } } {  .3.3.{ { { T { 3.3.3 X % # + # o - } } $.5.} Y ! } } | } ",
"R R R R R R R ! $.Y $. .[ }  .| R / R / J O O o X = C 5.f.q.! Y $.R R 3.0.0.{ R / R / / 2.< X o X X o > J { { $.3.R R 2.3.} { { ",
"T T ( ( R T R $.$.} } | | | } | 3./ / T / ( 3.R {  .} 8.a.i.$.$.R 3.R 5.f.t.3.R { { R R R 2./ / 2.2.R ( } { } } R R R / { { { { ",
") ) ( ) I I R 5.} } } p.d.|  .| R 3./ R R / 2./ { { } U P $.a.7.T 5.R } w.8.R } 2.R T 2./ 2./ 2.{ T R R $.} R R R R R T R 2.3.2.",
"w.5._ E I _ ( I R R  .j.M.p.| | R 5.2.T T R { { {  .4.U S 6.k.7.! 6.5.T R $.3.5.R R T R / 2.2./  .T / R } R R R R R 3.R / 3.2.{ ",
"h.y.~ I ~ I _ R ! Y $.a.m.p. .} { R } 5.T U 3.T { { } [ 5.f.f.q.5.l.q.R 3.R R 5.$.R 2.3.T / 2.2.! $.! R $.} R R 5.R 5.R R 3.R R ",
"n.h.7.R _ 7.7.! R ! ! R R }  .| R } 5.3.R T { { | | } | | #.~ Y q.m.f./ R R R T R Y R 3.T / 2.T R q.q.$.Y $.r.i.! R R R R 2.T { ",
"x.V.V.e.y.h.e.~ ~ _ ( P S W | } } $.R { 4.3.{ 5. .{  .| } U D H 0.h.t.( T ! ! R R ! R R 2.} 2.T $.f.j.9.} 9.a.a.! Y ! R } 3.R R ",
"A.V.B.h.k.x.y.! R ! R E P  .4.} } } 5.q.f.0.} }  .| {  .} [ P R 3.3.3./ R R $.5.R $.} R 2.3.2.2.$.a.a.8.p.a.$.K R R ! $._ R R T ",
"s.N.B.C.B.r.&.$.! ! T R 2.3.{ 3.R R 0.q.w.3.R } { 8.| { 3.3.{ 2./ T R / R ! $.$.R ! } } { { { 2.5.j.j.&.s.M.} D Y } ! R T R R R ",
"V #.N.C.s.H P ~ $.$.R R 3.R T } R 3.f.5.D H Y #.| | { | 4.} R R / / / R R ! R $.$.R } } { T T T 8.j.j.#.p.j.%.} Y ! $.$.R T R $.",
"V ' @.&.#.L K $.! #.} R R } { 3.T _ h.f.E E Y R }  . .} R T T R R / / R R ! ! 9.a.$.} } { T T { } | | [  . .%.5.~ R $.e.q.R R R ",
"Z V V C V #.&.&.Y R 5.5.3.} 3.{ R ( f.f.6.6.! $.[ } | } T T / / / T R R } R Y a.k.$.R } { { 4.{ { D F [ J A [ [ $.! 5.k.k.! T T "
};
