/* XPM */
static char *result[] = {
/* columns rows colors chars-per-pixel */
"64 64 230 2 ",
"   c #191B16",
".  c #120C0B",
"X  c #172817",
"o  c #173418",
"O  c #0F250E",
"+  c #193722",
"@  c #282725",
"#  c #362B2D",
"$  c #273624",
"%  c #38312E",
"&  c #3A3736",
"*  c #3A2B37",
"=  c #22201D",
"-  c #433B3C",
";  c #402B3F",
":  c #19451B",
">  c #1C581E",
",  c #1E5A21",
"<  c #1E4220",
"1  c #294929",
"2  c #245923",
"3  c #384A36",
"4  c #355739",
"5  c #2D4D33",
"6  c #1F6121",
"7  c #256528",
"8  c #267529",
"9  c #35683A",
"0  c #2E7A34",
"q  c #377B3D",
"w  c #30732E",
"e  c #41423D",
"r  c #43633E",
"t  c #453D40",
"y  c #3B4A47",
"u  c #3E7541",
"i  c #4A4646",
"p  c #534D4C",
"a  c #514748",
"s  c #485848",
"d  c #54544D",
"f  c #574D53",
"g  c #4D5956",
"h  c #5D545C",
"j  c #585755",
"k  c #635B5C",
"l  c #596854",
"z  c #49724C",
"x  c #64615E",
"c  c #637059",
"v  c #685A62",
"b  c #735F6F",
"n  c #6D6469",
"m  c #6B6A6A",
"M  c #666766",
"N  c #736C6D",
"B  c #687168",
"V  c #736B70",
"C  c #7B7574",
"Z  c #7C7B7A",
"A  c #7B7777",
"S  c #6B7373",
"D  c #827D7D",
"F  c #847A7A",
"G  c #2A852D",
"H  c #289D2B",
"J  c #2D8A31",
"K  c #358938",
"L  c #2D9432",
"P  c #2F9F31",
"I  c #319235",
"U  c #349D3A",
"Y  c #389438",
"T  c #358B2F",
"R  c #26A42A",
"E  c #2BA42D",
"W  c #29A92C",
"Q  c #2DAC32",
"!  c #2CA232",
"~  c #31A435",
"^  c #33AC35",
"/  c #34A33A",
"(  c #34AC3B",
")  c #3AAC3C",
"_  c #3AA53B",
"`  c #33B235",
"'  c #3BBC37",
"]  c #35B43B",
"[  c #3AB53C",
"{  c #36BC3D",
"}  c #3BBC3D",
"|  c #36BA36",
" . c #2FB133",
".. c #45953D",
"X. c #41BD3C",
"o. c #42B939",
"O. c #36C13D",
"+. c #3BC13D",
"@. c #39C136",
"#. c #43C23E",
"$. c #48C43D",
"%. c #3B9941",
"&. c #3CAA43",
"*. c #3AB542",
"=. c #36BD41",
"-. c #3CBD42",
";. c #3EBD49",
":. c #3BB745",
">. c #499245",
",. c #48A547",
"<. c #42B645",
"1. c #41BD43",
"2. c #42BD49",
"3. c #49B949",
"4. c #55AC54",
"5. c #6A9768",
"6. c #798977",
"7. c #6C956E",
"8. c #629A64",
"9. c #36C141",
"0. c #3DC143",
"q. c #3EC149",
"w. c #42C244",
"e. c #49C646",
"r. c #4BCA44",
"t. c #44C34A",
"y. c #4BC54B",
"u. c #46CA4B",
"i. c #4BCB4C",
"p. c #42C841",
"a. c #52CE4C",
"s. c #54C94A",
"d. c #4ED04D",
"f. c #54D24C",
"g. c #59D14D",
"h. c #4CCC52",
"j. c #49C953",
"k. c #52CD53",
"l. c #57CA57",
"z. c #4FD256",
"x. c #53D355",
"c. c #5CD552",
"v. c #5CD955",
"b. c #55D35A",
"n. c #5CDA5C",
"m. c #58D65A",
"M. c #62DA56",
"N. c #63DC5A",
"B. c #67DB5B",
"V. c #60CE5B",
"C. c #67E25D",
"Z. c #5DDB62",
"A. c #5ECB60",
"S. c #64D562",
"D. c #64DD63",
"F. c #6BDD67",
"G. c #63C063",
"H. c #68E468",
"J. c #82817E",
"K. c #89807E",
"L. c #7D7E80",
"P. c #867C82",
"I. c #927E90",
"U. c #868281",
"Y. c #8C8788",
"T. c #928D8C",
"R. c #908A87",
"E. c #96938E",
"W. c #9B9594",
"Q. c #9A9896",
"!. c #8E8E8E",
"~. c #A29D9C",
"^. c #94A891",
"/. c #A7A59E",
"(. c #AAA3A3",
"). c #AEAAA6",
"_. c #A8A7A6",
"`. c #B3ADAB",
"'. c #B2AAA7",
"]. c #B6B1AC",
"[. c #BAB3AE",
"{. c #B6B4B2",
"}. c #BAB4B2",
"|. c #BEB9B5",
" X c #BDBBBA",
".X c #BEB5B8",
"XX c #B2B0B0",
"oX c #A59EA2",
"OX c #C1BAB5",
"+X c #C4BDBB",
"@X c #C3B7BA",
"#X c #9FCB9B",
"$X c #CAC3BD",
"%X c #C6C2BD",
"&X c #CBC6C3",
"*X c #CDCAC4",
"=X c #CDCBCB",
"-X c #C6C3C2",
";X c #D2CBC5",
":X c #D3CEC9",
">X c #D6CBCA",
",X c #D6D2CC",
"<X c #DAD3CD",
"1X c #DAD5CB",
"2X c #DCD6D1",
"3X c #DED9D3",
"4X c #DBD9D9",
"5X c #CECECE",
"6X c #E2DBD5",
"7X c #E4DEDA",
"8X c #E2D9D6",
"9X c #DBE4D9",
"0X c #E5E1DC",
"qX c #EAE3DD",
"wX c #E3E0D6",
"eX c #EDE6E3",
"rX c #EEE9E5",
"tX c #EEEBE8",
"yX c #E8E5E4",
"uX c #F1E6E6",
"iX c #F1EAE6",
"pX c #F3ECEA",
"aX c #F5E7EC",
"sX c #EDF3EC",
"dX c #F5F0ED",
"fX c #FBF5F3",
"gX c #FFFCFD",
"hX c #F8F7F4",
"jX c #FAEEF7",
"kX c #EFDFE1",
/* pixels */
"{ -.1.} } w.-.} { } 0.w.0.0.} } 0.=.=.0.0.=.-.{ -.-.*.u.Z.b.1.] *.;.-.t.Z.z.=.=.=.9.0.9.{ -.0.| } #.} X.X.[ 1.-.3.1.-.*.-.-.;.:.",
"} } } } } w.} } } 0.0.w.u.w.{ } =.0.0.0.=.{ =.=.{ 0.-.-.2.y.h.y.-.;.:.-.j.j.=.=.0.0.{ +.} { -.p.e.X.} } X.} } [ 1.1.1.-.;.;.-.-.",
"w.0.} 0.w.} } } } } } e.b.e.{ } { =.0.=.{ { -.=.-.0.1.] ! 1.b.y.w.#.X.} X.+.0.+.+.' ' #.#.#.@.f.M.$.o.o.#.$.X.} { } #.X.} } -.} ",
"x.e.} } } } } 0.-.} } z.n.i.{ -.-.{ =.0.{ 0.0.=.-.-.:.=.[ h.Z.h.w.i.e.' { } +.+.' | ' #.d.r.X.r.C.v.$.#.r.f.$.X.} o.+.w.0.{ +.0.",
"H.x.1.{ } } } } } 0.0.p.i.0.0.0.0.{ =.{ =.0.0.{ } { } -.w.u.h.w.e.n.f.X.' ' X.} ' } o.#.c.c.s.s.C.C.V.$.c.M.e.' +.} { { +.} } +.",
"Z.z.w.} } w.-.} } w.-. . .{ } } 0.9.=.-.9.0.=.0.-.-.} *.-.Q Q ` i.N.i.} X.} ' X.X.X.o.#.s.M.N.N.M.B.M.g.v.c.p.' +.+.+.{ { } +.} ",
"0.+.+.} w.i.u.} -.w.} ` Q ] 0.{ =.0.9.q.u.q.} -.*.0.-.-.-.` Q [ t.z.t.-.-.-.1.1.-.<.X.3.1.y.F.F.B.3.l.V.l.1.*.-.-.j.j.q.:.-.;.:.",
"R  .{ } e.x.h.} } { } 0.} #.-.{ { 0.0.u.z.h.-.*.} 0.{ -.t.*.{ -.-.-.-.-.*.*.t.2.-.<.1.<.E P l.S.V.o.o.V.e.E ] *.0.z.Z.q.=.-.q.:.",
"] ` [ X.-.t.p.p.} } { } X.} } } =.;.j.;.*.:.-.0.0.} } -.0.-.-.} -.=.=.;.q.q.=.q.:.:.:.;.*.) ( ^ ) P H ^ ( ] ;.-.;.q.q.q.;.;.;.q.",
"X.w.1.} [ -.w.w.} { { } 1.[ G 8 8 0 ;.;.R ] 0.-.-.-.-.-.-.} -.-.;.;.=.=.9.9.:.q.q.;.:.-.2.[ ^ P P P P P ( -.2.-.=.=.;.-.;.=.;.;.",
"} } 1.1.} } { [ X.} } [ *.( > o 7 0 %.%.L =.:.=.{ } 0.} { } } -.O.9.=.{ 9.O.O.d.z.u.=.{ -.-.*.} o.[ } [ [ } 0.} { { } } -.-.=.=.",
"X.} } w.X.} u.i.w.1.[ G 8 >.h l u u u y 7 %.:.=.} } } -.} } } } { 9.{ { 9.9.O.q.h.0.=.{ -.-.0.0.3.<.<.<.1.} } 1.-.{ w.u.u.-.=.] ",
"1.1.[ } } 1.i.x.q.-.~ 7 l _.-X X!._._.8.y : L &.-.X.} } } } -.0.+.+.+.O.{ @.O.O.O.O.O.O.9.{ { } { } 1.1.} 1.+.' @.+.r.f.u.#.} +.",
"X.} X.[ w.x.e.^ } L I 7. X!.!.{.XX X_.S y + + 5 K <.} -.{ } 0.} +.@.@.+.| O.O.{ 0.9.{ O.=.O.=.9.1.} 1.1.w.X.' +.' d.d.' ` +.+.} ",
"1.1.i.1.y.D.e.W ( I 7.9XtX5X=X{. XoXg S _.y g S g q t.e.} } #.' { { { { { O.9.O.9.O.9.9.9.9.9.=.=.*.} -.-.X.e.y.#.x.m.` W ' 0.} ",
"} i.n.e.w.m.i.+.I 5.tXhXtXhXsX5XXXXX_.5X9Xg !.Q.g 9 x.m.w.} -.$.{ +.O.O.9.O.{ O.9.9.9.9.{ { =.q.=.;.-.{ { t.k.x.p.f.m.e.| } { 0.",
"-.} *.} } ] *./ 5.0XgXhXdXpXrXyX-X-X7XgX5Xi L.!.m s >.M.g.$.$.$.r.o.' X.r.i.+.| } +.0.w.-.} } +.-.-.:.-.;.-.*.1.*.-.[ -.-.] } 1.",
"1.^ W ` ] Q E z 0XgX%X/.,XdXrXpX0X X{.{.T.j M Y.W.J.l ,.4.......,.Y T Y ,.,.Y K K K Y Y Y Y / +.0.-.-.-.-.[ ^ Q [ ^ W [ -.} w.u.",
"-.] ] { {  .>.:XfXdXK.k ).dXpXtX0X-X~.M i F Y.).@X@X~.i % e p a p d d d d d j d d p p a i d 9 _ U &.*.0.-.} *.] -.[ ` 0.0.-.e.n.",
"} 1.t.-.{ #X4XdXpXiX6X8XyXeXtXpX4X+XQ.Z F P.(.>X<X8X<X~.d E.[.'.|.$X5X*X&X*X;X$X&X=X}.].].].!.y y y Y *.*.-.-.-.} 1.w.0.} O.d.x.",
"[ -.-.*.4.sXsXyXiXiXdXfXdXqXiXpX&X{.W.Y.(.'.>X>X1XqXeX<XOX*X3XwXwXwX9X3X4X6X8X8XkXjXaXyX8X*X,X=X5X5Xc 5 u -.=.] { } -.{ { +.w.0.",
"[ } -.8 & Z XXsXiXuXiXuXqXpXdX0X|.].`.(.OX;X8X<X6XiXiX2X6XqXqXeXeXqX6X,X,X2X6XeXuXaXdXaXtX9X1XsXjXgX|.(.Z 4 u :.} } -.} +.0.} { ",
"} *.( > . f +XhXfXaXiXiXiXqX7X$X}.{.].{.OX>X<X8XeXqX6X1X7XiXiXpXiXrXeXqX7X,X0XaXuXiXtXtXdXtX3X>XrXpXpXeX XR.m u -.} -.0.O.0.{ } ",
"0.-.] G o N gXuXOX<XiXqXqX1X;X[.].{.].[.%X>X6XuXpX0X1XqXiXqXiXpXrXrXiXdXaX8X0XaXrXrXtXyXeXpXqX7XuXuXpXeX0XqX XM u ) =.| { +.{ 0.",
"1.1.-._ > 3 _.W.a E.1X1X8X&XW.~.].].{.-X,X3XyXsXtXtXrXiXiXiXrXuXiXiXuXiXuXpXpXtXsXyXeXrXiXuXaXaXiXqXiXfXqXwX3X|.m q &.=.=.=.=.=.",
"-.-.-.~ I L G 7 9 5./.$X>XT.a C ].]. X,X3XrXtXrXtXiXtXrXrXrXpXiXiXiXuXiXuXiXtXtXtXtXrXrXiXaXaXpXiXiXiXiXqX3X;X+X`.x q :.=.{ =.9.",
"-.X.} [ *.0.*.] _ u c J.F a V oX[.].%X9XrXpXeXiXiXrXrXtXiXrXpXpXtXrXrXtXpXpXtXsXtXyXpXeXuXpXaXiXiXiXiXiXiXqX1X1X%XM q :.0.*.} 0.",
"1.-.*.-.} -.9.=.' _ 9 3 f v P.'.OX].OX3XtXiXpXpXeXrXpXrXrXrXtXrXrXpXpXtXaXtXyXtXtXtXtXpXiXeXuXuXiXiXiXiXiXwX1XwX,XM 0 *.0.=.-.-.",
"1.1.} 1.-.-.{ =.+.{ U 1 i Y.oX`.].OX1XqXwXiXiXiXtXeXpXpXiXiXiXuXrXpXiXeXrXtXtXrXtXtXeXtXiXuXiXiXiXiXqXqXdXqX;X$X,XS 0 ] -.} } -.",
"1.[ [ } -.-.0.0.{ | ] K f oX.X.XOX$X6X6X2X7XuXiXdXiXqXiXiXpXpXiXeXiXuXuXpXpXtXiXtXiXrXtXiXiXiXiXiXiX6X1XrXrX;X[.%XM 0 { { } } -.",
"-.1.1.1.-.*.0.0.9.{ ) u b '..X'.;X1X1X1X1X6XuXqXqXdXiXiXiXqXuXiXiXuXuXpXpXyXyXuXtXrXiXyXiXpXuXkXqXiX6X;X3X0X,X|.{.B 9 U +.w.w.} ",
"[ y.m.i.-.{ { 0.{ 0.9 v L.Y.XX.X;X6X1X1X2XqXiX6XwXpXpXiXuX3X7XiXpXuXuXpXeX8X7XpXiXiXyX3X7XiXdXpXiX8X1X1X,X,X,X X X!.g 4 e.z.e.' ",
"t.j.j.t.-.-.=.{ :.=.u h A I.}.:X1X1X1X;X6XiXqX1XwXiXiXiXiX1X1XeXiXuXiXiX7X<X6XiXiXiX6X<X<X7XiXpXuX<X>X<X3X3X=X].].^.B z p.M.f.$.",
"D.t.Q  .:.0.;.q.=.;.&.u h T.XX@X1X$X$X1X1X6X1X;XwXiXqX6XqX2X<X7XyXiXiXwX>X1X1X7XiXiX1X1X2X<X2X7XiX6X,X2X3X,X_.x Z U.5.<.$.v.C.M.",
"H.j.^  .0.q.0.=.=.=.0.K t !.}..XOX+X1X1X$X;X;X1XwXpXqX3X8X1X<X8XqXpXiX3XOX;X<X6XiX3X$X>X2X;X$X;X*X2X,X2X,X%XQ.3 M 6.G.x.g.B.C.M.",
"z.h.0.} -.0.0.{ =.=.=.u i P.oX}.OX$X$XOXOX$X1X1XqXiX8X$X>X1X<X1X7XpXqX$X[.;X<X6X7X;XOXOX$X+X+X;X}.=X2X=X%X}.E.j M 4.l.Z.F.B.M.M.",
"Q ] =.-.0.-.-.-.-.-.9.K i P.L.Q.OX>X$XOX[.].$X1XwXqX$XOX1X2X1X;X1XqX;X[.[.+X<X2X1X1XOX].].].+X>X|.:X4X-X`.Q.6.6.>.U [ l.H.B.3.o.",
"R  .-.q.0.} { { 9.0.-.L 5 C P.D ~.+XOXOX[.[.[.$XwX1X$XOX>X1X<X@XOX;X[.|.'.'.+X<X8X;X[.[.OX{.+X>X}.*X2X%XE.6.!.3.3.^ ^ <.l.3.o.~ ",
"{ 0.0.} { { } 0.{ 0.=.{ G y A I.~.OXOXOX[.[.[.$X1X1X>XOX}.,X&X`.&X;X`.`.R.~.[.+X>X}.'.`.OX`.`.}.}.}.|.Q.A J.^.3.<.<.&.( P ! / <.",
"} -.-.} -.} } { } { -.-.] K d A oX@XOX~.T.).}.;X2X$XOXOX[.}.{.{.}.%X].E.F ~.OX@XOX[.OX~.F ~.}.}.].T._.W.6.8.2.<.<.2.:.*.~ / &.:.",
"} } 0.{ } 1.} } } } 0.{ 0.) 3 n T.'.@X(.F R.`.:X;X X).W.].].{. X(.T.T.J.Z Y./.}.}.].W.D C F ~.{.E.D D F 7.3.o.o.<.1.X.} -.{ -.-.",
"{ { { } } { } } } w.w.{ } ~ $ l F oX}.T.A U.).-X%X).R.J.].|.(.Q.T.A Z Z D D T.~.(.`.U.F Y.F R.Q.D D M 8.l.b.y.[ o.1.w.} } 0.0.=.",
"} } } } } +.-.} { -.0.} } ^ 7 y n E.Q.P.D Y.~.}.].!.C K.(.{.T.C D U.K.J.N M m m Y._.T.n n M k v D J.l >.g.B.g.$.$.$.$.@.@.@.@.O.",
"1.w.0.w.w.} } } } w.0.-.0.-.] < p Z F m N x M Q./.J.F C U._.W.L.U.Z C N s 3 3 s m A V p & & i p m j 3 Y s.B.B.c.$.s.g.$.@.O.@.O.",
"w.*.-.h.k.-.} <.k.x.-.[ -.-.-., 5 M v t - i i n F P.N e b P.P.P.P.V y & %.:.*.Y 1 @ t V t ; W.~.p $ X ..g.B.H.M.f.M.C.e.$.d.0.@.",
"w.} -.t.i.y.w.w.Z.m.-.] -.-.-.( , @ f h p +X>Xv f v e ..& ; b I.h 3 &.&.{ =.=.=.K + v Y.t & /.3X[.C $ ..V.g.M.B.C.M.r.' p.x.d.O.",
"*.} -.Q } b.h.1.m.m.0.*.-.-.-.-., X g v t =XgX+Xk 1 / 0.Y K 3 t 5 %.9.9.=.{ =.-.( $ T.@Xh ; /.qXwXE.# K y.o.s.F.V.e.( ) 2.t.q.0.",
"} *.-.W } Z.x.1.x.n.t.-.{ { =.0.6 1 c b & `.jX9XB 6 =.=.:.=.I 8 U =.{ =.q.9.{ =./ o !.W.& % ~.pX8X/.- w ~ H o.e.<.) ^ ) 2.;.;.;.",
"-.t.;.[ t.b.k.1.a.k.e.1.' } 0.} 7 , g f & -XiXOXc 6 $.1.-.-.-.-.-.} { =.0.0.=.=.%.+ h t @ k |.tX6X*Xd > H H R R H ^ [ 1.1.-.1.*.",
"-.0.1.;.[ [ [ [ ` [ } } } } +.} 7 o @ @ f @XqX].z 2 -.} *.-.0.-.-.-.=.-.=.0.{ { U X * = h  XyXyX:X/.4 8 ( ] ] Q ] [ <.1.-.<.<.<.",
"-.-.-.-.] Q ^ } Q Q [ 1.-.-.0.-.7 o X & V F +X^.s 2 1.2.} -.} w.-.0.0.-.0.=.0.=.U O @ @ m *X4X4X].& G } 2.0.-.*.1.-.} } -.-.0.q.",
"} } *.} } [ } 3.[ ] 1.1.*.-.-.-.L , X = t t a c e 2 -.-.-.} { -.-.0.-.{ 0.0.=.} &.o     % U.-X{.J.@ T -.-.-.1.1.w.-.[ X.-.-.-.;.",
"} O.} } } } X.} 1.X.-.;.*.;.:.;.{ ~ 6   # - # # 7 o.*.w.k.i.o.[ -.} } 0.u.u.+.{  .L L + @ y x g i @ J 0.-.{ -.0.0.} { +.0.=.=.=.",
"{ { +.+.} } } w.1.} -.;.q.-.:.-.+.+.G X % - % . 8 ' -.u.x.h.w.X.} 0.} w.z.h.0.{ 9.=.=., @ & # % %   J +.-.-.-.-.} } =.0.-.-.=.0.",
"+.@.+.+.' ' ' w.-.-.*.j.j.j.:.;.+.X.T O   =   o T } -.] ` 1.a.y.{ 0.-.} u.w.0.} 9.=.{ :   @ @ @ X > ~ } -.*.} } { } { { { 0.9.9.",
"#.#.+.@.' +.+.{ } [ :.b.Z.j.:.q.o.o.H : X X X G } { -.[ W e.n.y.w.e.w.{ } 0.} w.} { O.> O O O O o P } *.-.} } +.} +.+.} 9.9.0.=.",
"v.f.X.' ' ' #.#.X.} } x.Z.j.:.q.0.{ -.0.{ | 0.{ =.;.:.=.2.x.x.y.p.m.u.+.w.' } w.1.} } 0.{ { 9.9.X.1.X.} 1.-.} } w.} X.} } 0.{ { ",
"C.c.r.' #.r.e.' } X.X.} } *.-.:.*.0.w.w.} { =.=.;.-.-.;.-.<.X.[ i.n.z.} { } } } } } 0.+.O.O.9.{ } i.i.1.[ ;.s.i.X.} } { 0.0.{ -.",
"D.H.B.k.f.n.s.X.o.X.0.` R ] q.-.-.-.*.-.0.0.-.q.;.=.:.;.-.] Q ` u.m.d.} } } 1.} } } } } =.9.9.{ 1.x.b.t.-.y.x.k.X.} } 1.} w.} { ",
"D.N.S.m.v.N.f.X.' X.} [  .*.q.-.0.} 0.i.b.u.-.-.=.;.-.:.:.*.` { 0.p.0.O.' } 1.1.} 1.-.} 0.0.9.9.1.k.x.3.h.k.<.] [ X.1.X.} -.} { ",
"l.A.S.F.B.3.y.3.X.X.{ } 0.0.} -.} } e.h.p.w.} -.:.q.-.:.-.0.-.0.O.{ O.} } } X.1.} X.-.-.=.=.=.9.w.b.b.3.b.Z.*.Q [ 1.1.' } ' -.} ",
"L <.A.F.l.~ ^ X.-.1.} } 0.+.{ 0.{ w.x.p.W ^ } <.;.;.=.;.q.0.{ } O.{ +.} } w.X.1.1.} -.1.{ { { =.t.b.b.<.j.A.-.<.} X.} 1.} { } w.",
"L %.,.3.<._ o.<.<.1.0.} { -.=.0.| 0.n.f.] ' } [ -.*.-.-.} { { =.{ O.+.} *.X.1.e.h.1.*.-.=.{ =.{ :.;.;.*.:.:.2.1.} o.w.i.i.} } } ",
"L L U L U <.<.<.[ { w.w.-.0.0.=.+.+.x.x.e.e.X.-.-.:.;.-.{ { O.+.O.{ O.} 0.} [ k.n.w.} -.0.9.q.=.=.Q W :.( E *.*.1.} w.n.n.#.[ { "
};
