/* XPM */
static char *_5e3d10302114c2f813bc8e91d6e0731NHte14u0D6RfP0Cy[] = {
/* columns rows colors chars-per-pixel */
"32 32 246 2 ",
"   c None",
".  c #030204",
"X  c #110D0E",
"o  c #28241F",
"O  c #1A1823",
"+  c #201F20",
"@  c #2A1F28",
"#  c #212020",
"$  c #262323",
"%  c #282127",
"&  c #2B2924",
"*  c #34252F",
"=  c #352A2E",
"-  c #342F31",
";  c #3B2F37",
":  c #353131",
">  c #383536",
",  c #3A3F3F",
"<  c #413C48",
"1  c #513D49",
"2  c #4E4747",
"3  c #4E4B47",
"4  c #534F48",
"5  c #514C4B",
"6  c #5B4953",
"7  c #5B4B53",
"8  c #5C5153",
"9  c #585755",
"0  c #5A5755",
"q  c #595158",
"w  c #5E595B",
"e  c #5F585F",
"r  c #635C5D",
"t  c #655E5F",
"y  c #695360",
"u  c #605860",
"i  c #685F63",
"p  c #6F5E6C",
"a  c #656260",
"s  c #686363",
"d  c #6B6864",
"f  c #61626A",
"g  c #6A666B",
"h  c #6B656C",
"j  c #6A6D6A",
"k  c #6A6D6E",
"l  c #72666B",
"z  c #77626E",
"x  c #756E6F",
"c  c #766C74",
"v  c #757175",
"b  c #7A7473",
"n  c #7C7776",
"m  c #7D7677",
"M  c #797876",
"N  c #7D7877",
"B  c #7B7E77",
"V  c #727579",
"C  c #7B7A78",
"Z  c #7E7A78",
"A  c #7F7B7A",
"S  c #7C7D7D",
"D  c #80777A",
"F  c #84797C",
"G  c #828379",
"H  c #84807D",
"J  c #84807F",
"K  c #85807F",
"L  c #86837F",
"P  c #7E7F81",
"I  c #887880",
"U  c #887E85",
"Y  c #838181",
"T  c #878581",
"R  c #8C8085",
"E  c #8A8587",
"W  c #8B8986",
"Q  c #8B8A87",
"!  c #8D8C8C",
"~  c #908A89",
"^  c #928E8A",
"/  c #908C8C",
"(  c #948D8C",
")  c #978890",
"_  c #988D93",
"`  c #9B8E94",
"'  c #979090",
"]  c #9A9393",
"[  c #9C9693",
"{  c #9A9894",
"}  c #999897",
"|  c #9B9B9A",
" . c #A29E9A",
".. c #A09E9C",
"X. c #A39E9C",
"o. c #A29F9C",
"O. c #A19F9E",
"+. c #A79E9F",
"@. c #A1A19D",
"#. c #A6A19C",
"$. c #A6A3A1",
"%. c #A9A4A1",
"&. c #A9A5A1",
"*. c #ABA4A1",
"=. c #AAA5A2",
"-. c #A9A6A7",
";. c #A8A8A3",
":. c #ACA6A9",
">. c #AFAAA8",
",. c #ADAAAA",
"<. c #AEADA8",
"1. c #B1ABA8",
"2. c #B2AFAC",
"3. c #B2B0AD",
"4. c #B6B4AE",
"5. c #B4B6B1",
"6. c #B8B5B0",
"7. c #BAB6B0",
"8. c #BEB7B4",
"9. c #BFB4B6",
"0. c #B9B8B2",
"q. c #BDB8B4",
"w. c #BEB8B4",
"e. c #BEB9B4",
"r. c #BEB9B6",
"t. c #BBB9B8",
"y. c #BCB8B8",
"u. c #BCBABA",
"i. c #BDBDB9",
"p. c #C3B7B6",
"a. c #C3BDB8",
"s. c #C4BEB9",
"d. c #C5BCBA",
"f. c #C4BEBB",
"g. c #C4C2BA",
"h. c #C2C3BD",
"j. c #C5C3BD",
"k. c #C7C1BE",
"l. c #C7C5BE",
"z. c #C8C1BC",
"x. c #C8C2BC",
"c. c #CAC1BF",
"v. c #C8C4BD",
"b. c #C6C6C1",
"n. c #C8C2C1",
"m. c #C9C3C1",
"M. c #C8C4C1",
"N. c #CFC7C4",
"B. c #C9CAC2",
"V. c #CFC8C5",
"C. c #CECBC5",
"Z. c #D2C9C4",
"A. c #D5C8C4",
"S. c #D3CCC7",
"D. c #D0CBC9",
"F. c #D2CDCB",
"G. c #D7CEC9",
"H. c #D0CECD",
"J. c #D5D0CA",
"K. c #D6D1CD",
"L. c #D8D3CB",
"P. c #D9D4C9",
"I. c #DBD1CC",
"U. c #D8D2CC",
"Y. c #D9D3CC",
"T. c #DAD2CC",
"R. c #DFD3CE",
"E. c #DBD4CE",
"W. c #DDD7CF",
"Q. c #DCD8CF",
"!. c #DED9CF",
"~. c #D6D4D0",
"^. c #D7D4D2",
"/. c #DBD2D0",
"(. c #DCD6D1",
"). c #DFD7D0",
"_. c #DDD6D2",
"`. c #D9D9D6",
"'. c #DFDBD4",
"]. c #E0D5D2",
"[. c #E0D9D0",
"{. c #E1DAD4",
"}. c #E1DBD4",
"|. c #E2D9D6",
" X c #E5DAD4",
".X c #E5DED5",
"XX c #E4DBD8",
"oX c #E4DBD9",
"OX c #E5DFD8",
"+X c #E1DFDD",
"@X c #E6E0D8",
"#X c #E3E2DF",
"$X c #E4E1DD",
"%X c #EAE0DB",
"&X c #E9E2DB",
"*X c #E8E3DB",
"=X c #E9E0DD",
"-X c #E9E7DC",
";X c #E8E7DF",
":X c #EBE6DE",
">X c #EBE3E1",
",X c #EBE3E2",
"<X c #EAE5E1",
"1X c #EBE5E1",
"2X c #EAE6E3",
"3X c #EDE5E1",
"4X c #EEE7E0",
"5X c #EEE6E1",
"6X c #EDE7E3",
"7X c #EEE7E3",
"8X c #ECE7E4",
"9X c #EEE7E4",
"0X c #E9E8E2",
"qX c #EFE9E1",
"wX c #EDE8E3",
"eX c #EFEBE2",
"rX c #EFEAE3",
"tX c #ECE8E4",
"yX c #EEE8E5",
"uX c #EFEBE4",
"iX c #EFEAE5",
"pX c #ECEBE6",
"aX c #EFEAE6",
"sX c #EFEAE7",
"dX c #EEEBE7",
"fX c #EEE7E8",
"gX c #EFE9E8",
"hX c #EEE9E9",
"jX c #ECEBE8",
"kX c #EFEBE8",
"lX c #EFE9EA",
"zX c #EFE9EC",
"xX c #F1E6E5",
"cX c #F0E8E4",
"vX c #F1EAE5",
"bX c #F0E9E6",
"nX c #F0E9E7",
"mX c #F2E9E7",
"MX c #F0EAE6",
"NX c #F1E9E8",
"BX c #F1E9E9",
"VX c #F3E9E9",
"CX c #F0E9EA",
"ZX c #F1EDEB",
"AX c #F1EAEC",
"SX c #F1E8EE",
/* pixels */
"                                                                ",
"                                                                ",
"                                                                ",
"                                                                ",
"                                                                ",
"                                                                ",
"                                                                ",
"                                                                ",
"                                                                ",
"              ;.<.@.j ,                                         ",
"            i.2X>Xn.t.S k                                       ",
"          } +Xf.yXK.^ L 3.W a N L Y G B V f                     ",
"        # u.ZXyX0Xj.#.a.{.T.Z.{.[.P.'.#X`.B.0.C                 ",
"        + >.D.$Xb.4.e.(.5X%XxXVXwX%XfXAXlX;XyX~.|               ",
"          : b X.L >.F.8XlXyXVXlXnXVXwXzXAXVXnXyXH.P             ",
"              5 ( p.].wXyXlXlXnXyXyXwXnXyXlX5X;X~.!             ",
"              s %.A.R.@X;XyX>XnXnX2X8X5X2XnX.XQ.V.W             ",
"              i +.V.J.Q.OX5X{.%X5XE.=XoX/.oX(.L.%.M             ",
"                ) u.h.v. XT.T.W.T.z.(.N.f.z.S.f.L 0             ",
"                z :.5.6.G.z.l.g.6.%.M.e.1.e.9.[ A               ",
"                1 _ X.X.j.%.2.$./ E -.X.T } ~ x                 ",
"                  l m m ] F ` U c u h v 0 d t                   ",
"                  = 8 ' D 6 y p       q w  .r                   ",
"                  X 2 9.I             < e n.A                   ",
"                  . - R 6             O g e.3                   ",
"                    % ; *               > 5 &                   ",
"                      @                 $ o                     ",
"                                                                ",
"                                                                ",
"                                                                ",
"                                                                ",
"                                                                "
};
