/* XPM */
static char *result[] = {
/* columns rows colors chars-per-pixel */
"39 32 95 2 ",
"   c #22211E",
".  c #242323",
"X  c #282627",
"o  c #2A2927",
"O  c #2D2B2B",
"+  c #302F2E",
"@  c #32312F",
"#  c #312F30",
"$  c #343232",
"%  c #3A3737",
"&  c #3A3937",
"*  c #3E3D3B",
"=  c #423E3C",
"-  c #44413D",
";  c #454343",
":  c #494544",
">  c #4F4D4B",
",  c #534E4D",
"<  c #54504D",
"1  c #514F50",
"2  c #545252",
"3  c #5A5654",
"4  c #5B5956",
"5  c #5D5B5A",
"6  c #635E5D",
"7  c #64615D",
"8  c #656463",
"9  c #6A6665",
"0  c #6B6866",
"q  c #6F6B6A",
"w  c #716D6C",
"e  c #73706E",
"r  c #716F70",
"t  c #757270",
"y  c #7A7674",
"u  c #7D7977",
"i  c #797778",
"p  c #7E7B7A",
"a  c #807A77",
"s  c #817D7C",
"d  c #85817E",
"f  c #858380",
"g  c #898482",
"h  c #8F8B87",
"j  c #8B8788",
"k  c #8D8A88",
"l  c #918D8B",
"z  c #94918E",
"x  c #98918E",
"c  c #959292",
"v  c #9A9593",
"b  c #9C9894",
"n  c #9C999A",
"m  c #A29D9A",
"M  c #A89F9B",
"N  c #A7A29F",
"B  c #A8A39F",
"V  c #A4A3A1",
"C  c #AAA5A2",
"Z  c #ADA9A5",
"A  c #AEA9A8",
"S  c #B2ADAA",
"D  c #B6B2AE",
"F  c #B9B4AF",
"G  c #B7B4B1",
"H  c #BAB6B3",
"J  c #BDB9B5",
"K  c #C0B7B2",
"L  c #C2BCB6",
"P  c #C2BDBA",
"I  c #C7C2BE",
"U  c #C9C4BE",
"Y  c #C6C3C2",
"T  c #CAC5C1",
"R  c #CDC9C5",
"E  c #D2CBC6",
"W  c #D1CDCA",
"Q  c #D6D1CC",
"!  c #DAD3CD",
"~  c #D7D6D4",
"^  c #DBD5D1",
"/  c #DED9D4",
"(  c #DEDBDA",
")  c #E2DBD5",
"_  c #E3DEDA",
"`  c #E8DFDC",
"'  c #E6E2DC",
"]  c #EAE3DE",
"[  c #ECE6E2",
"{  c #EEE9E5",
"}  c #EEE9E9",
"|  c #F0E7E7",
" . c #F1EAE6",
".. c #F1EBE9",
"X. c None",
/* pixels */
"X.X.X.X.X.X.X.X.X.X.X.X.X.X.X.X.X.X.X.X.X.X.X.X.X.X.X.X.X.X.X.X.X.X.X.X.X.X.X.",
"X.X.X.X.X.X.X.X.X.X.X.X.X.X.X.X.X.X.X.X.X.X.X.X.X.X.X.X.X.X.X.X.X.X.X.X.X.X.X.",
"X.X.X.X.X.X.X.X.X.X.X.X.X.X.X.X.X.X.X.X.X.X.X.X.X.X.X.X.X.X.X.X.X.X.X.X.X.X.X.",
"X.X.X.X.X.X.X.X.X.X.X.X.X.X.X.X.X.X.X.X.X.X.X.X.X.X.X.X.X.X.X.X.X.X.X.X.X.X.X.",
"X.X.X.X.X.X.X.X.X.X.X.X.X.X.X.X.X.X.X.X.X.X.X.X.X.X.X.X.X.X.X.X.X.X.X.X.X.X.X.",
"X.X.X.X.X.X.X.X.X.X.X.X.X.X.X.X.X.X.X.- = ; = - - - - - = = * X.X.X.X.X.X.X.X.",
"X.X.X.X.X.X.X.X.X.X.X.X.X.X.X.5 3 3 w S Z C D J J J L J F Z C d 4 4 X.X.X.X.X.",
"X.X.X.X.X.X.X.X.X.X.X.X.X.X.y K W / ' ^ / ` ] / ! ! / ' { { / / ] R y < X.X.X.",
"X.X.X.X.X.X.X.X.X.X.X.X.s S ) ) _ ] ( ( { { ....' / ] { [ { { / ]  .) C y X.X.",
"X.X.X.X.X.X.X.X.X.2 s A ) | ] ` { ..[ { { ..[ { { { { { ..{ { {  . . .] Y y X.",
"X.X.X.X.X.X.X.X.y P W ' ` `  . .{ { { [ ..{ ......{ } } { ......|  .| _ Q F 5 ",
"X.X.X.X.X.X.X.J G ! [ ` ! ! ]  .{ ....{ { { ..{ ..{ ..........[  . .| | ~ R 7 ",
"X.X.X.X.X.X.J R ! Q ! ! ! ) ) [ {  ...{  ...{ { {  .{ ..} } } .. .[ ` | W Y 8 ",
"X.X.X.X.X.C R ` ) E ! ! ) ) ! ` ]  . . .] ]  .{  .{ { { ..[ } { [ ` ^ ` W G w ",
"X.X.X.X.c s v [ ! K E ` ] ) ) ] / ]  . .' '  .{ ] ) ] ..] ^ ' {  .! ! ! W G l ",
"X.X.X.X.k R 0 E T C S ] ! U ! ! ! ] ] ' ! / {  ./ ! / [ ) Q ~ / _ ) Q ! M r d ",
"X.X.X.w u S w K T g l Y I W P W Q ] ' Q / ! ] ] U U ! ' U U U U I Q W L l 3 2 ",
"X.X.p w b v s l S d s v J U D H E _ U U ! E ! U K I W ^ U F F U P ^ U M f 5 X.",
"X.7 z L ^ W K a u s p d D H D G U Q E L E L U L B B L E J D G J G P V f p 5 X.",
"X.8 !  .|  .) P q y 6 w Z H x C U Q F S F F S C d x F H A k k D C z n t 8 X.X.",
"X.z [ } [ [ ] ! H 4 6 9 l A g k P J v b F N l s s s v C n s s z j p r ; X.X.X.",
"X.z { ! S ]  .) P 6 : 1 s g a a n b p j B d p p r 2 2 s f 5 , 1 t r ; X.X.X.X.",
"X.u _ T M  .[ ! b : X.* r 6 : 6 q s 8 5 y p p 2 ; X.X.- : 7 = l y - X.X.X.X.X.",
"X.w ~ .. .[ ) U X.X.X.X.% 9 1 R Z < X.X.= 8 1 X.X.X.X.X.3 k - S Q 8 X.X.X.X.X.",
"X.k [ ( _ W g l X.X.X.X.; k ; Y } O X.X.X.X.X.X.X.X.X.X.5 q = G ( y   X.X.X.X.",
"X.9 H u Y r : X.X.X.X.X.O ; ; Y ( O X.X.X.X.X.X.X.X.X.X.$ $ f ~ ~ e X.X.X.X.X.",
"X.> ; & ; > * X.X.X.X.X.X X 2 i n % X.X.X.X.X.X.X.X.X.X.o O c W V @ X.X.X.X.X.",
"X.X.; X.X.X.X.X.X.X.X.X.X.. # % * # X.X.X.X.X.X.X.X.X.X.X.. ; r 3 X X.X.X.X.X.",
"X.X.X.X.X.X.X.X.X.X.X.X.X.. $ $ . X.X.X.X.X.X.X.X.X.X.X.X.. $ $ @ . X.X.X.X.X.",
"X.X.X.X.X.X.X.X.X.X.X.X.X.X.. X X.X.X.X.X.X.X.X.X.X.X.X.X.X.. o X.X.X.X.X.X.X.",
"X.X.X.X.X.X.X.X.X.X.X.X.X.X.X.X.X.X.X.X.X.X.X.X.X.X.X.X.X.X.X.X.X.X.X.X.X.X.X.",
"X.X.X.X.X.X.X.X.X.X.X.X.X.X.X.X.X.X.X.X.X.X.X.X.X.X.X.X.X.X.X.X.X.X.X.X.X.X.X."
};
