/* XPM */
static char *result[] = {
/* columns rows colors chars-per-pixel */
"64 64 223 2 ",
"   c #1F1E1C",
".  c #201E1F",
"X  c #211E20",
"o  c #2E2C2B",
"O  c #282825",
"+  c #293927",
"@  c #322F30",
"#  c #353332",
"$  c #3A3A37",
"%  c #33352C",
"&  c #173516",
"*  c #413E3D",
"=  c #29472A",
"-  c #295929",
";  c #384536",
":  c #3B583B",
">  c #2D622D",
",  c #3B6C3A",
"<  c #386837",
"1  c #3B7C3C",
"2  c #377636",
"3  c #32672E",
"4  c #42463C",
"5  c #444A3E",
"6  c #425F3F",
"7  c #406B3E",
"8  c #3E7741",
"9  c #3D6341",
"0  c #4D4C4A",
"q  c #484743",
"w  c #514C4A",
"e  c #485647",
"r  c #555352",
"t  c #5A5553",
"y  c #5D5B5A",
"u  c #585B55",
"i  c #54504E",
"p  c #625D5B",
"a  c #487947",
"s  c #5A6856",
"d  c #506D4D",
"f  c #64635E",
"g  c #616A5F",
"h  c #62775D",
"j  c #6A6665",
"k  c #6C6A66",
"l  c #6D6B69",
"z  c #666762",
"x  c #726E6C",
"c  c #74716D",
"v  c #717F6E",
"b  c #757273",
"n  c #7B7673",
"m  c #7C7976",
"M  c #7E7B7B",
"N  c #7B7778",
"B  c #6E7A6E",
"V  c #827E7C",
"C  c #2B9D2E",
"Z  c #388B39",
"A  c #2D9732",
"S  c #369D3C",
"D  c #349639",
"F  c #2C822D",
"G  c #26A429",
"H  c #2BA42D",
"J  c #2AAA2E",
"K  c #20A123",
"L  c #2DAC32",
"P  c #2BA331",
"I  c #31A535",
"U  c #33AC35",
"Y  c #35A23B",
"T  c #35AC3B",
"R  c #3AAC3C",
"E  c #3BA63B",
"W  c #33B235",
"Q  c #3BBC37",
"!  c #35B43A",
"~  c #3BB43D",
"^  c #36BC3D",
"/  c #3BBC3E",
"(  c #38BB35",
")  c #2FB133",
"_  c #43823C",
"`  c #41BD3C",
"'  c #43B939",
"]  c #37C13E",
"[  c #3BC13D",
"{  c #39C136",
"}  c #43C13E",
"|  c #47C53D",
" . c #3E8A41",
".. c #3F9140",
"X. c #3BAD42",
"o. c #3AB642",
"O. c #36BD41",
"+. c #3CBD42",
"@. c #3EBD49",
"#. c #3BB745",
"$. c #4B8649",
"%. c #4C944D",
"&. c #60825E",
"*. c #46A949",
"=. c #43B443",
"-. c #41BD43",
";. c #41BE49",
":. c #49B848",
">. c #54AE55",
",. c #749271",
"<. c #68BA6A",
"1. c #74BB76",
"2. c #6FA370",
"3. c #5FB763",
"4. c #36C141",
"5. c #3CC143",
"6. c #3EC14A",
"7. c #42C244",
"8. c #49C646",
"9. c #4BCA44",
"0. c #44C44A",
"q. c #4AC54B",
"w. c #46CA4B",
"e. c #4BCB4D",
"r. c #42C841",
"t. c #51CE4B",
"y. c #53C74A",
"u. c #4ED04D",
"i. c #53D24D",
"p. c #58D14E",
"a. c #4CCC52",
"s. c #4AC852",
"d. c #53CC53",
"f. c #57C956",
"g. c #4ED255",
"h. c #53D355",
"j. c #5BD552",
"k. c #5BD955",
"l. c #55D35B",
"z. c #5CDA5C",
"x. c #58D75B",
"c. c #60CC5B",
"v. c #63DC5A",
"b. c #65DA59",
"n. c #66E25D",
"m. c #5DDC61",
"M. c #5CD763",
"N. c #5ECB60",
"B. c #64DD63",
"V. c #67D865",
"C. c #73C577",
"Z. c #64E568",
"A. c #85817E",
"S. c #86877F",
"D. c #80A37C",
"F. c #807E80",
"G. c #868282",
"H. c #898584",
"J. c #8C8986",
"K. c #8D8A89",
"L. c #888B86",
"P. c #928E8B",
"I. c #908885",
"U. c #94918D",
"Y. c #9A9593",
"T. c #9D9A96",
"R. c #9C9896",
"E. c #879C85",
"W. c #A29D9B",
"Q. c #A09895",
"!. c #98A595",
"~. c #8EAF8A",
"^. c #A5A29F",
"/. c #AAA19D",
"(. c #ACA8A6",
"). c #AFABAA",
"_. c #A9A5A4",
"`. c #B3AEAB",
"'. c #B2ABA5",
"]. c #B5B1AD",
"[. c #BAB3AD",
"{. c #B0BEA9",
"}. c #B7B3B1",
"|. c #BAB6B3",
" X c #BDBAB5",
".X c #BCB9B7",
"XX c #ABB8A4",
"oX c #C1BBB5",
"OX c #C2BDBA",
"+X c #85C485",
"@X c #B9D1B6",
"#X c #C6C2BD",
"$X c #CAC3BD",
"%X c #C4D2BF",
"&X c #C7C3C2",
"*X c #CAC6C2",
"=X c #CCC9C4",
"-X c #CECCCA",
";X c #D3CCC6",
":X c #D4CECA",
">X c #D6D1CC",
",X c #DAD3CD",
"<X c #D7D0C7",
"1X c #DBD5D1",
"2X c #DED9D4",
"3X c #DBD8D6",
"4X c #CBD6C5",
"5X c #E2DBD5",
"6X c #E3DDDA",
"7X c #E2D9D5",
"8X c #C9E6C9",
"9X c #E6E1DC",
"0X c #EAE3DE",
"qX c #ECE6E2",
"wX c #EEE9E5",
"eX c #EEE9E9",
"rX c #E5E4E2",
"tX c #F1EAE6",
"yX c #F2ECE9",
"uX c #F0E6E5",
"iX c #F6F1ED",
"pX c #F9F1ED",
"aX c #FCF9F6",
/* pixels */
"^ +.-.^ / 7.5./ ^ / 5.7.5./ / / 5.O.+.5.5.O./ O./ +.+.0.M.l.-.~ +.@.+.0.M.g.O.O.^ 4.] ] / +.5.! / } / ` ` ~ ` ~ ;.-.+.#.+.6.@.@.",
"/ / ` / / -./ / / +.5.7.w.7./ / O.+.5.5.^ ^ O.O.O.+.5.#.-.s.d.0.@.+.+.+.w.w.O.@.6./ ] +./ ^ [ r.9.` / / ` / ` #.-.-.-.+.#.+.@.+.",
"7.` / +.7./ / / +./ / w.h.w.^ / ^ O.5.5.^ ^ +.O.+.+.-.! P +.l.q.-.} } ` / } 5.] [ Q Q } | [ ` t.v.| ' } | } ` Q / ` ` ` ] / ( +.",
"l.w./ / / / / -./ / / h.z.e.^ +.O.^ O.+.O.+.5.O.+.O.+.+.~ a.M.s.7.e.7./ / / [ / / ( Q } u.9.` 9.n.k.| ' 9.i.| ` / ` / 7.[ / / 5.",
"Z.h.-.^ ^ / / +./ 7.5.7.e.7./ 5.5.^ O.^ O.5.5.^ / ^ ~ +.7.0.a.8.q.z.t./ / / Q ` ~ Q ' | p.b.y.y.v.n.j.| j.b.8./ [ / ^ ^ / / / ] ",
"m.h.7./ / -.` ^ / 7.5.) ) ^ / +.5.4.+.O.O.+.+.+.+.+.+.+.+.W L W 8.v.t./ Q ` Q ` ` ` ` ` t.b.b.b.b.n.b.p.v.j.| / [ [ ] ] / / [ / ",
"5.7.[ / 7.e.w.^ / 7./ W J ^ +.^ +.5.4.6.w.6.O.+.+.+.+.+.+.U L ! w.a.w.+.+.+.-.-.+.-.` :.` q.V.Z.b.:.c.c.d.-.+.+.+.s.s.6.o.+.@.@.",
"K ) ^ / w.j.a./ / ! / 7./ / -.^ ] ] 5.6.x.a.+.+./ +.^ +.+.+.+.+.+.;.+.#.o.+.0.-.-.-.-.=.C I f.V.c.' ' f.-.H T +.5.g.x.6.o.@.@.+.",
"! W / / 7.7.7.7./ / / / +./ / / +.5.a.0.! O.+.5.+.+.+.+.+.+.+./ +.O.@.@.4.6.O.@.#.#.#.+.#.R U T R I C I ! ! #.+.6.6.6.6.6.@.@.@.",
"` -.-.~ ^ 5.7.7./ ^ / ` +./ / / +.w.m.0.J W -.+./ / +.5.+.+.+.+.O.@.O.O.6.4.#.0.6.@.#.@.:.o.L C C C C I T #.0.#.O.O.#.+.@.O.@.@.",
"/ / -.8.` / / ! / / / / -.[ +.` ^ 0.m.h.^ +.+./ ^ / / / ^ / / / ^ 4.^ ! 4.4.] u.x.w.^ ^ +.+.+./ ' ' ~ ~ ~ / [ / ^ / / +.+.+.#.^ ",
"` ~ / 7.` ~ 7.e.7.7./ / +.+.+.7.+.+.-.+.^ +.+.+./ +.5./ / / / / ] 4.] ^ 4.] ] 6.w.5.^ O.+.+.+.+.:.=.-.=.-./ -./ / / 5.w.w.+.^ ^ ",
"8.-.^ / / -.e.h.7.7.-./ / / 7./ +.W J L / -.~ -.-.` / / +./ +.+.[ ] [ ] { ^ ] ] 4.] ] 4.] ^ ^ / / +.-.` / ` } Q [ [ r.u.e.r.^ [ ",
"/ ~ ` ~ 8.h.w.U / / / / / / / / / +.! ! -.-./ ` / / / +.^ / +.+.[ { { [ ^ { 4.{ 5.4.^ ] O.] 4.+.+.+.-.-.7.` / [ / 9.h.Q ) [ [ / ",
"/ 8.q.-.q.z.8.H ( / / 5./ / +./ +.-.-.+./ +.-./ ` / w.q./ ( +./ ^ ^ ^ / ] ] 4.] ] ^ O.4.4.O.O.5.6.@.+.+./ +.7.e.} j.k.! G / 7.^ ",
"/ e.z.8.8.x.q./ ^ +./ 7./ / 7.7.-.~ +.-.~ ` 8.~ / =.s.d.-.~ 7 5 ; 5 5 5 ; q 5 5 : q 5 5 5 5 5 ; ; ; Z T T 8.h.j.7.e.j.8.Q ^ ^ -.",
"+.~ +.^ ~ ^ +.+./ 7.a.g.w.5./ 7.+.+.~ +.+./ 8.e.-.Z $._ _ 7 d G.V c c c m S.S.S.A.S.S.S.A.V k x c c , 2 2 Z / -.+.+.^ -.+.! / -.",
"+.U P W ! L L +./ w.z.Z.x.r./ ] +.#./ / -./ *.*.$.z j j f k (.2X,X#X&X;X2X5X1X5X,X7X9X1X9X5X4X=X=X&XJ.k m s F F ~ U J ! / / 5.q.",
"7.! ! ^ +.^ ! +./ e.m.Z.z.w.] ^ 5.7./ ~ R E $.e G.-X>X1X9X0X0X>X>X2X2X0X9X2X,X,X,X<X,X5X9XtXtXwX2X>X9XyXaX%Xu q Z S U 5.7./ e.z.",
"/ -.7.+.+.-.5./ ] 6.e.h.g.6.^ ^ / 7.~ E 7 6 E.[.*X3X3X6XtXpX2X>X9XtXwXtXwXwX9X4X,X<X0XtXtXtXtXtXqX2X2X9XtX9X,X%Xs $ 7 r./ ] e.h.",
"! +.+.+.! +.+.+.5.^ ] 5.5.+./ ^ Q D , $.~.^.%X0XyX6X1XrXwX5X4X6XyXwXwXtXwXyXyXrX9X,XwXtXrX0XtXyXyX0X3X9XyXtXtX5X@X(.s 2 ( 5.5.5.",
"/ +.-.-.+.+.+.+./ ^ ( O./ ^ ^ Z 3 h J.T.%XtX0XwXqX5XrXiXtXrXrXwXwXrXyXwXrXyXyXyXwX0XtXtXwXeXtXwXtXyX0X0XyXtXtXwXuX9X}.g 2 5.[ ] ",
"/ +.+.+.5.+.5.O.^ ^ ^ / ^ ] Z h J.^.*X6X0XpXpXtX0X0XyXyXwXtXyXwXqXeXiXeXwXwXwXyXyXyXwX0XeXtXeXuXwXyXyX0XwXtXtXyX6X6X-X^.z 1 / / ",
"+.+.+.+.+.( ^ 6.5.5.^ +.0.%.h .XqX<X2XpX0X6X9XtXyXtXqXwXwXwXwX0XwXiXwXwXyXeXwXyXwXyXwXwXeXeXuXuXyXwXyXyXtXtXyX0X6X3X=X&XT.4 ^ 5.",
"-.-.+.+.^ ^ +.5.^ O.] 5.1.Y.].>X9XyXpX6X,X,X<X0XuXtXtXuXyXtXtXwXyXeX9XwXiXwXwXeXqXuXyXiXeXeXuXiXyXqXuXiXuXuXuXyXuX7X1X1XR.q +.O.",
"+.+.+.-.5.+.O.+.5.] 7.<.=X*XoX:X2X0X0X,X,X,X,X0XuXuXuXtXtXtXtXwXwXwXiXwXwXwXeXeXyXyXeXeXeXeXeXeXuXyXyXuXpXuXuXpXeX7X>X6X`.; O.5.",
"+.-.+.~ +.+.+.O.5.5.+XXXOX7X<X,X<X7X1X,X<X,XuX7X7XpXtXuXtXyXtXtXwXyXiXeXwXwXwXeXtXtXtXtXyXeXeXeXuXeXuXuXyXuX7XuXeX6X&X:X}.; +.+.",
"-.+./ +.+.+.^ +.4.+X-X*X,X0X7X7X<X,X,X<X,X<X7X7X,X7XtXtXyXtXtXtXwXwXwXwXwXwXtXwXtXtXqXqXuXyXeXeXyXeXqXuXuXuX>X7XuXqXOX.X^.q +.+.",
"-.~ +.-.5.+.O.O.1.A.^.6XtXtX,XOX<X7X,X,X0X7X,X<X7X0XqX5XtXtXtXtX0X9X0XyXeXyXtXtXqX0XqXtXqXtXtX6XyXeXuXuX0X7X1X1X7X1X&X.XT.z / 5.",
"-./ ~ ~ +.+.0.C.S.z c [.yXqX:X[.OX,X,X0XuXuX7X<X0XtX7X<XqXtXtXtX0X1X9XtXeXwXtX0X5X7XtXtXeXqX6X1XrXuXiXeX6X,X,X,X:X1X-XOX).L.+.[ ",
"-.-.-.-./ +.f.T.x &Xn b qX1X;XoX/.oX0XuX0X$X,X7X7X0X,X7XqXtX0XqX9X,X7X0XtXtXtX9X,X,X9XwXiXrX:X:X>XrXrXyXtX<X<X<X7X2X).Y.^.S.7.^ ",
"~ q.x.e.+.#.2.0 &XaXx p ;X:XOX`.I.'.0XuX<XoX$X,X,X,X<X7XqXtX9X5X5X>X,X0XtXpX0X<X<X<X,X9XwX5X:X>X1X1X:X7X6X,X,X:X<X*Xl 0 A.n 8.Q ",
"0.a.s.0./ <.k q '.6Xc p OX7X*XP.V R.=X:XOX-X,X X&X2X>X,XwXtX2X,X5X,X<X5X0XtX9X$XoX<X,X0X0XOXoX1X:X|.;X*X#X1X,X,XoXoXl 0 x e p.| ",
"Z.7.P J <.!.m l V P.V c W.*XOXG.c A./..X X>X&X].|.&X>X1XtX9X$X$X1X,X,X<X0XtX%X[.oX:X:X7X6X$X}.OX X].;XOXoX1X,XOX}.W.N y e >.b.b.",
"Z.s.L <.E.q t T.W.Y.I.n V W.}.I.m V G.R..X,X X].].{.*X1X5X1X[.$X2X,X,X$X,X<XoX'.|.$X-X1X2X=X`.].`.}.;X$XOX7X>XoXQ.V G.j 6 b.b.b.",
"d.s.-.2.B x P.>X:X$X'.Q.V p W.I.V V M G. X#X X|.}.]. X>X,X1XoX X<X,X$X[.<XoX[.'.W.}.&X1X,X.X`.oX X XOX XOX:XOX^.V b H.l 4 b.b.b.",
"L T *.e J.iXiXtX6X7X6X,XQ.i p V V x x P. X}.].(.`.]. X,X1X:XOX[.oX$X[.[.$X$X'.U.P.}.|.&XOX}.].W._.|.|.}.).).`.F.F.F.N u $.N.:.' ",
"G L , s OXaXwXwXyXtX6X7X7XW.w j V i w P.}.}.}.J.U.]. X2X:X.X`.`.`.[.oX[.'.[.Q.V F.)..X.X}.}.W.V F./.}..XY.K.`.F.N b u 8 y.y.' I ",
"/ ~ < T.yXwXyXpXuX0XuX7X7X,XQ.w x r 0 V J.}. XJ.m Y. X>XOX].I.Y.|.|.[.'.P.V V V M F.)..X.XW.V V N F.`.^.M F.F.N e $ 8 Y P C X.X.",
"-./ < !.tXwXtXuX6XuXpX6X1X6X*Xq p y r V G.`.Y.A.b U..X X}.Y.m Y.OX'.I.S.A.m N M F.F.K.K._.W.V V V V K.F.N F.N i 8 X.X.X.I Y X.#.",
"/ ~ , T.tXpX5X(.oX7XpXuX6X7X{.,.0 8 8 s F.P.F.H.F.K.W.`.Y.F.m J.(.(.V n N G.K.b r r 0 l Y.U.x w i 0 * z P.N e 7 ;.-.` +./ ^ O.5.",
"/ ! , U.rXaXOXu oXtXuX0X0X$XD.h < X.D q H.V p p y q p R.F.F.k k P.R.V F.F.x f e 8 8 8 r f u t w o w z y y 0 ; ' ' -.} / ~ 5.5.O.",
"/ +., c *XaX,XV ,XpXtX0X<XXX2.6 S O.D e k f w @ r b j y F.b 6 e z l A.H.b : :  .g.4.O.1 % % f j o x #XR.t $ + ' ` | | } { [ { ] ",
"+.+., z oXtXyXpXuXuXpX0X@X1.%.2 S O.5.Y ; * V * H.aX&Xs j 0 D _ ; e B B 5 D 4.5.5.O.O.O.> w Q.m o f *X9X Xy + y.8.9.p.| { { { [ ",
"5.o.2 G.7XiXuXuXyX6X>XOX~.>.$.R +.] 5.A ; ,.S.* l 3X8X1.; D +.+.+.S : 9 X.O.+.O.O.^ +.^ - p OXP.o f <XyX Xf + p.p.j.v.9.[ u.5.{ ",
"0.! < Y.eXiX6X*XwX9XV p 2.>.1 ~ ^ / 4.D ; ~.P.o b rX8XC.; D ^ +.O.+.X.T ! ^ O.O.O.+.+./ - r F.4 O j <XyX@X,.+ c.n.b.9.} r.k.w.] ",
"+.~ , c rX&Xb 3XwXJ.# 0 ,.*.7 o.4.] O.A = s t X F.eX%XC.; A O.O.4.5.4.O.O.O.^ 4.5.+.+./ > % $ O y (.rX9X@X2.% c.b.;.U R ;.0.6.5.",
"+.~ , s ,.y ; L.L.&.; d >.%.S +.4./ +.D + % O q L.%X@X1.$ D O.5.4.O.^ O.6.5.^ O.O.+.+.+.> o O $ _.3XwX3X!.a 1 :.' ~ I X.;.;.@.@.",
"o.#.$.$.$.e 9 2 _ >.a %.=.Z 5./ O.O.4.Z O = & r l b !.2.# D +.+.+.^ ^ +.5.5.^ O.O.^ O.O.> O O @ L.-X3X&Xj & C G G U ~ -.+.-.-.#.",
"@.+.+.Z a $.1 / R Z Z =.~ E +.[ 6.O.O.X.- = O @ $ @ e g = Y 5.+.+.+.O.+.O.+.O.^ O.O.5.5.F = + X $ L.^.L.0 = U W ! o.=.-.-.#.=.-.",
"+.+.+. .< 2 U -.H A ~ +.+.+.+.+.O.4.5.O.O.X.= o $ # @ + Y o.} 5.+.5.5.+.5.+.+.4.O.^ 5.5.+.+.F O # $ * * # - #.+.-.-./ ` +.+.+.@.",
"/ / / #.R R ~ -.~ W -.8./ +.+.+.4.O.] / @.O.+ @ $ @ . O ~ / / / +.5.+.^ 4.5.5.^ O.O.O.O.5.+.A O $ # @ ; + - -.-.-.+.~ / +.+.+.@.",
"^ / / / / / / -.-.~ +.+.o.@.o.@.+.] / ] ] / + O @ O + D s.e.~ ~ +.+./ [ w.w./ ^ / / ] ] ^ 5.D = + + + + > Y +.+.5./ ^ ] 5.4.O.O.",
"^ ^ ] } / ^ / ` -.+.+.@.@.@.@.+.] 5.^ ] ] ] +./ O.O.5.6.d.d.8.` / +.+.7.h.a.5./ 5.^ O.^ ] 5.] 4.5.4./ ] +.+.+.+.+./ / 5.+.+.O.O.",
"/ [ [ { Q Q / 7./ -.@.s.g.@.@.@.+.[ [ ^ ] 5.4.] O.#.@.! W -.t.q.^ 5./ +.w.7.] +./ 5./ ^ ] 4.4.4.^ / / / +.+./ / ^ / ^ / ] 5.5.O.",
"| [ [ { Q } [ Q / / o.l.M.s.o.@./ 5.] / ^ / 4.^ O.O.@.! J 8.z.q.7.q.7.( / 5.+.7./ / / ^ ] 4.] ] ^ / [ / +./ / / / / ] / O.5.4.O.",
"k.i.` Q Q Q } ` ` ~ / f.m.s.#.@.+.^ +.7.! ( 5.^ O.@.@.o.;.d.j.e.7.k.q.[ 7./ / 7.-./ [ 5.^ ^ 4.4./ } -.+.-.-./ / 7./ 5./ / +./ / ",
"n.j.| ` | 9.9./ / ` ` / / +.@.+./ 5.7.5.+.O.O.O.O.@.O.+.+.-.~ ~ e.z.h.[ ^ / / ^ / / +.5.] ] ] ^ / q.q.` ^ +.d.e.` / / / ] 5.^ O.",
"n.B.V.d.t.k.t.` / } ` W G W +.O.+.-./ +.5.5.+.6.@.#.O.@.@.! L W w.x.u.] ^ / ` ` / / / / O.4.O.^ -.j.l.w.-.q.f.d.` ~ ` -./ 5./ / ",
"B.B.b.l.z.v.p.' ` / / ( W +.5.@.+.+.5.e.h.s.+.+.O.@.#.o.@.o.W ^ 6.5.] [ / / -.-./ -.+.~ 5.5.4.4.-.h.f.0.q.d.-.T / / ` ` } +./ ^ ",
"f.N.V.V.V.q.:.-.` ` ^ / 5.5.O.5./ / w.e.7.-./ #.#.6.+.@.5.+.+.5.5.^ ] / / -.` -./ ` +.+.O.^ O.4.-.l.l.;.f.M.o.L ~ / ` / ^ / / / ",
"A :.N.V.f.U U ` ` -./ / +.+.^ +./ +.h.7.J L / -.6.+.O.@.6.+.^ / ] / ] / / ` ` -.-./ +.-.O.^ ^ O.0.l.f.;.s.l.;.+./ -.` -./ ^ / -.",
"A ..*.:.X.E =.-.-.-.+./ +.+.O.5.^ } x.i.Q Q / ~ +.#.o.+.+.^ ^ ] ] ^ [ / +./ ` q.a.-.+.+.O.^ O.O.@.@.@.o.o.#.;.7.' / -.e.e./ / / ",
"A A S A S =.=.-.~ ~ 5.7.5.+.5.O.[ [ h.h.8.9.` -.~ +.+.@.^ ( ] ] ] ^ ] / / ~ / d.x.8.^ +.+.O.5.4.! L P #.X.G o.=.#.` 8.z.z.` ^ ^ "
};
