/* XPM */
static char *result[] = {
/* columns rows colors chars-per-pixel */
"39 32 150 2 ",
"   c #050202",
".  c #0D040D",
"X  c #0A0B09",
"o  c #11090B",
"O  c #170C15",
"+  c #1F0E11",
"@  c #190B18",
"#  c #131014",
"$  c #1B1316",
"%  c #1D1D1C",
"&  c #230D13",
"*  c #211616",
"=  c #271F27",
"-  c #371E2A",
";  c #331C31",
":  c #212120",
">  c #2D232B",
",  c #2D292A",
"<  c #362E2E",
"1  c #36322F",
"2  c #3B302F",
"3  c #382A37",
"4  c #2D3234",
"5  c #323131",
"6  c #3A3737",
"7  c #39343A",
"8  c #313C3E",
"9  c #3C3D3D",
"0  c #423A3E",
"q  c #41413F",
"w  c #4B403F",
"e  c #453F42",
"r  c #4D3945",
"t  c #4F3A49",
"y  c #3E4344",
"u  c #474244",
"i  c #4A4644",
"p  c #4B4C47",
"a  c #434C4A",
"s  c #4E4A4A",
"d  c #504748",
"f  c #554C4B",
"g  c #5C4C4D",
"h  c #54524C",
"j  c #514A51",
"k  c #5A4B59",
"l  c #4B5457",
"z  c #5A5256",
"x  c #5C545B",
"c  c #5F595D",
"v  c #644F5F",
"b  c #615B5B",
"n  c #685F5F",
"m  c #66625F",
"M  c #635E61",
"N  c #6B5B68",
"B  c #705B66",
"V  c #656363",
"C  c #6A6365",
"Z  c #616A67",
"A  c #6B6964",
"S  c #6F666C",
"D  c #636B6D",
"F  c #6E6969",
"G  c #72646B",
"H  c #736D6D",
"J  c #74716E",
"K  c #696E70",
"L  c #756D71",
"P  c #786E72",
"I  c #767573",
"U  c #797374",
"Y  c #7B7B77",
"T  c #7D777B",
"R  c #7A7C7B",
"E  c #81767B",
"W  c #827C7C",
"Q  c #84807F",
"!  c #7E7F81",
"~  c #827080",
"^  c #837B81",
"/  c #7F8486",
"(  c #858582",
")  c #8B8583",
"_  c #878884",
"`  c #8E878A",
"'  c #8C8A8A",
"]  c #938D8D",
"[  c #96908D",
"{  c #9A928F",
"}  c #8E8B90",
"|  c #968E92",
" . c #979092",
".. c #9A9595",
"X. c #9E9A97",
"o. c #9D9C9B",
"O. c #A29896",
"+. c #A69E9B",
"@. c #A4A09E",
"#. c #A9A49F",
"$. c #B09DA1",
"%. c #ABA5A4",
"&. c #ACA9A5",
"*. c #A5A6A8",
"=. c #ADA6A9",
"-. c #ADACAA",
";. c #B2ACAB",
":. c #ABB0AB",
">. c #B5B2AE",
",. c #BAB3AE",
"<. c #B6B4B1",
"1. c #BBB4B2",
"2. c #BFB8B2",
"3. c #B3B7B8",
"4. c #BBB9B9",
"5. c #C0B7B7",
"6. c #C1BAB5",
"7. c #C6B1BB",
"8. c #CBB7BE",
"9. c #C3BDBA",
"0. c #C6C2BD",
"q. c #CAC4BD",
"w. c #C7C5C3",
"e. c #CCC5C2",
"r. c #CDCAC4",
"t. c #D1C7C4",
"y. c #D2CBC5",
"u. c #D4CECA",
"i. c #D8CECC",
"p. c #D6D2CD",
"a. c #DAD3CD",
"s. c #DBD6D1",
"d. c #DED9D2",
"f. c #DEDBD8",
"g. c #E1D4D7",
"h. c #E1DAD4",
"j. c #E5DDDB",
"k. c #E5E0DB",
"l. c #EBE4DE",
"z. c #E7DDE0",
"x. c #E5E2E0",
"c. c #ECE6E2",
"v. c #EEEAE6",
"b. c #EEE7E8",
"n. c #EEEBE9",
"m. c #F1E7E4",
"M. c #F1E9E5",
"N. c #F3E7E8",
"B. c #F2EBE9",
"V. c None",
/* pixels */
"V.V.V.V.V.V.V.V.V.V.V.V.V.V.V.V.V.V.V.V.V.V.V.V.V.V.V.V.V.V.V.V.V.V.V.V.V.V.V.",
"V.V.V.V.V.V.V.V.V.V.V.V.V.V.V.V.V.V.V.V.V.V.V.V.V.V.V.V.V.V.V.V.V.V.V.V.V.V.V.",
"V.V.V.V.V.V.V.V.4 5 V.V.V.V.V.V.V.V.V.V.V.V.V.V.V.V.V.V.V.V.V.V.V.V.V.V.V.V.V.",
"V.V.V.V.V.V.V.R *.o.o.} 4 V.V.V.V.V.V.V.V.V.V.V.V.V.V.V.V.V.V.V.V.V.V.V.V.V.V.",
"V.V.V.V.V.V.w.w.-.3.=.I D 8 l V.V.V.V.V.V.V.V.V.V.V.V.V.V.V.V.V.V.V.V.V.V.V.V.",
"V.V.V.V.V.9.n.n.n.w.<.3.3.K / y V.V.V.V.V.V.V.V.V.V.V.V.V.V.V.V.V.V.V.V.V.V.V.",
"V.V.V.V.<.c.u.x.n.x.w.r.o.V _ I s V.V.V.V.V.V.V.V.V.V.V.V.V.V.V.V.V.V.V.V.V.V.",
"V.V.V.w.x.k. .r.B.c.w.) N ) 1.9. .i m A J I I Y U U H A A p V.V.V.V.V.V.V.V.V.",
"V.V.V.b.N.M.B.M.M.k.1.[ O.1.p.h.a.&.q.p.s.d.p.s.d.j.j.p.w.:.*./ 9 V.V.V.V.V.V.",
"V.V.s <.B.N.N.m.v.y.<.-.2.p.h.l.k.d.l.v.c.k.d.d.c.N.B.v.k.f.B.p.;.b V.V.V.V.V.",
"V.V.5 u.t.i.l.j.y.1.>.<.0.d.c.l.h.l.M.M.v.v.M.j.b.b.v.v.M.j.n.N.k.p.' V.V.V.V.",
"V.V.V.) b { t.t.) X.>.0.s.c.v.M.M.M.M.M.M.v.M.n.v.n.v.M.N.N.M.M.v.k.r.) V.V.V.",
"V.V.V.V.V.d T P A &.,.r.l.v.v.v.v.M.M.B.v.n.N.N.n.b.n.M.N.N.M.M.v.k.p.,.a V.V.",
"V.V.V.V.V.V.> x ] ;.2.a.l.n.M.v.n.M.M.n.N.N.n.n.v.n.v.n.v.M.M.c.v.l.y.0.a V.V.",
"V.V.V.V.V.V.V.S ;.2.t.h.d.c.M.M.M.M.B.M.M.c.n.v.n.n.v.v.M.N.M.j.h.l.0.>.a V.V.",
"V.V.V.V.V.V.j ^ ;.8.a.a.d.l.k.M.M.v.k.M.M.N.b.j.v.v.c.j.M.M.c.h.p.d.q.:.Z V.V.",
"V.V.V.V.V.V.j T ,.q.q.a.d.k.d.l.l.l.d.l.M.m.h.a.c.M.h.a.h.c.l.p.s.s.:.o.R V.V.",
"V.V.V.V.V.V.V.c &.q.q.q.q.a.a.m.k.h.a.d.m.l.t.u.h.l.y.a.y.p.p.s.p.w.I A R V.V.",
"V.V.V.V.V.V.V.x [ ;.q.q.6.q.a.l.y.y.a.a.l.a.2.t.d.a.6.6.5.e.9.s.0.&.R V V.V.V.",
"V.V.V.V.V.V.V.j E | 6.6.,.6.y.d.q.q.a.0.t.6.;.,.y.a.6.,.,.e.4.u.;._ _ V.V.V.V.",
"V.V.V.V.V.V.V.V.b ` 1.,.#.,.r.u.6.,.9.1.0.;.] #.6.9.>.+.&.,.;.&.] ( V.V.V.V.V.",
"V.V.V.V.V.V.V.V.7 P $.;.Q @.r.0.#.&.<.<...' R ] ;.,...W ) %.] W ( V.V.V.V.V.V.",
"V.V.V.V.V.V.V.V.V.x | | W ..1.+.W +.&.) Q W I I R X.' P H P W F V.V.V.V.V.V.V.",
"V.V.V.V.V.V.V.V.V.= L S m c | ) H W ..^ W C x 6 u b V s u C b < V.V.V.V.V.V.V.",
"V.V.V.V.V.V.V.V.V.V.3 x x #.G B r t v ! k V.V.V.V.$ k N f 4.] 1 V.V.V.V.V.V.V.",
"V.V.V.V.V.V.V.V.V.V.@ N x j.7.- V.V.V.3 V.V.V.V.V.V.^ T f r.e.h V.V.V.V.V.V.V.",
"V.V.V.V.V.V.V.V.V.V.O k x g.8.& V.V.V.V.V.V.V.V.V.V.j e F d.s.A V.V.V.V.V.V.V.",
"V.V.V.V.V.V.V.V.V.V.. > B 6.$.& V.V.V.V.V.V.V.V.V.V.> e 4.f.&.p V.V.V.V.V.V.V.",
"V.V.V.V.V.V.V.V.V.V.V.O w f g + V.V.V.V.V.V.V.V.V.V.# , ( -.A V.V.V.V.V.V.V.V.",
"V.V.V.V.V.V.V.V.V.V.V.o < 3 * V.V.V.V.V.V.V.V.V.V.V.V.* 9 q 1 V.V.V.V.V.V.V.V.",
"V.V.V.V.V.V.V.V.V.V.V.  * * V.V.V.V.V.V.V.V.V.V.V.V.V.X % : % V.V.V.V.V.V.V.V.",
"V.V.V.V.V.V.V.V.V.V.V.V.V.V.V.V.V.V.V.V.V.V.V.V.V.V.V.V.V.V.V.V.V.V.V.V.V.V.V."
};
