/* XPM */
static char *result[] = {
/* columns rows colors chars-per-pixel */
"64 64 230 2 ",
"   c #221E1B",
".  c #21231F",
"X  c #2D2B2B",
"o  c #262824",
"O  c #312E2C",
"+  c #293827",
"@  c #353332",
"#  c #3A3A36",
"$  c #31362F",
"%  c #423E3B",
"&  c #1D641F",
"*  c #2A4B2A",
"=  c #274626",
"-  c #394636",
";  c #365534",
":  c #2A592A",
">  c #2A672A",
",  c #396639",
"<  c #2E7731",
"1  c #3B7A33",
"2  c #3B753B",
"3  c #3B7D3A",
"4  c #357736",
"5  c #2E722F",
"6  c #224B1F",
"7  c #43493E",
"8  c #42523F",
"9  c #41663F",
"0  c #3E7441",
"q  c #454341",
"w  c #494544",
"e  c #4E4B4A",
"r  c #484944",
"t  c #4A5747",
"y  c #55524E",
"u  c #5A5654",
"i  c #5E5C5B",
"p  c #585753",
"a  c #524D4A",
"s  c #625C5A",
"d  c #605856",
"f  c #486548",
"g  c #497A47",
"h  c #596756",
"j  c #567955",
"k  c #53784E",
"l  c #64615E",
"z  c #63765E",
"x  c #6A6663",
"c  c #6D6A66",
"v  c #6E6B6A",
"b  c #666462",
"n  c #726E6C",
"m  c #75716F",
"M  c #76766E",
"N  c #7B7675",
"B  c #7C7B76",
"V  c #7E7A79",
"C  c #747472",
"Z  c #6A7564",
"A  c #827D7C",
"S  c #2B9D2E",
"D  c #3B863A",
"F  c #2D9831",
"G  c #36943B",
"H  c #3B933C",
"J  c #379B3B",
"K  c #2F8A33",
"L  c #26A429",
"P  c #2BA42D",
"I  c #2AAA2E",
"U  c #20A123",
"Y  c #2DAC32",
"T  c #2BA331",
"R  c #31A535",
"E  c #33AD35",
"W  c #35AB3C",
"Q  c #3AAC3C",
"!  c #37A53B",
"~  c #32B235",
"^  c #3BBC37",
"/  c #35B43B",
"(  c #3AB53D",
")  c #36BC3D",
"_  c #3BBC3D",
"`  c #38BB35",
"'  c #2FB133",
"]  c #43813C",
"[  c #41BD3C",
"{  c #41B83A",
"}  c #36C13D",
"|  c #3CC13D",
" . c #39C136",
".. c #43C13E",
"X. c #48C53D",
"o. c #3D9D41",
"O. c #3EAE43",
"+. c #3BB542",
"@. c #36BD41",
"#. c #3CBD42",
"$. c #3EBD49",
"%. c #3BB745",
"&. c #468944",
"*. c #479747",
"=. c #569955",
"-. c #578D53",
";. c #41BD43",
":. c #42BE4A",
">. c #46B847",
",. c #4FAE51",
"<. c #678764",
"1. c #7A8476",
"2. c #799977",
"3. c #6B966B",
"4. c #66A567",
"5. c #6FB270",
"6. c #36C141",
"7. c #3CC143",
"8. c #3EC14A",
"9. c #42C244",
"0. c #49C646",
"q. c #4BCA44",
"w. c #44C34A",
"e. c #4AC54B",
"r. c #46CA4B",
"t. c #4BCB4C",
"y. c #42C841",
"u. c #51CE4B",
"i. c #52C74A",
"p. c #4ED04D",
"a. c #54D24C",
"s. c #58D14E",
"d. c #4CCC52",
"f. c #49C953",
"g. c #52CD53",
"h. c #55C857",
"j. c #4FD257",
"k. c #53D355",
"l. c #5BD552",
"z. c #5BD955",
"x. c #55D35A",
"c. c #5CDA5C",
"v. c #58D75A",
"b. c #62DA57",
"n. c #63DC5A",
"m. c #66DB5A",
"M. c #60CE5B",
"N. c #67E25D",
"B. c #5DDC62",
"V. c #5CD763",
"C. c #5ECB60",
"Z. c #64C366",
"A. c #64D562",
"S. c #64DD63",
"D. c #6BDD67",
"F. c #75C079",
"G. c #68E468",
"H. c #83817D",
"J. c #88857F",
"K. c #80937D",
"L. c #82A87F",
"P. c #837F80",
"I. c #868381",
"U. c #898583",
"Y. c #8D8B87",
"T. c #8F8A89",
"R. c #868E81",
"E. c #938E8B",
"W. c #918A86",
"Q. c #95918E",
"!. c #969291",
"~. c #999593",
"^. c #9D9996",
"/. c #9B9996",
"(. c #8E908C",
"). c #A29D9B",
"_. c #8EB18D",
"`. c #A5A09D",
"'. c #A9A49F",
"]. c #A2BC9E",
"[. c #ABA5A4",
"{. c #AEA9A4",
"}. c #A6A3A3",
"|. c #B3ADAB",
" X c #B2ACA6",
".X c #B6B1AD",
"XX c #BAB3AF",
"oX c #B6BCAF",
"OX c #BBB5B2",
"+X c #BEB9B5",
"@X c #B9B6B5",
"#X c #C2BBB6",
"$X c #C3BDBA",
"%X c #C0B7B5",
"&X c #9CCA9A",
"*X c #93CF92",
"=X c #B0D1AE",
"-X c #ACDAAB",
";X c #CAC2BD",
":X c #C5C2BD",
">X c #C3D3BD",
",X c #CBC5C1",
"<X c #CDCAC5",
"1X c #C9C6C4",
"2X c #D2CBC6",
"3X c #D4CECA",
"4X c #D8CFC9",
"5X c #D6D1CD",
"6X c #DAD4CD",
"7X c #D3D9CB",
"8X c #DBD5D2",
"9X c #DED9D4",
"0X c #DDDDD8",
"qX c #C8D5C4",
"wX c #E2DBD5",
"eX c #E3DDDA",
"rX c #D3E6D0",
"tX c #E6E2DD",
"yX c #EAE3DD",
"uX c #E7E6DA",
"iX c #ECE6E3",
"pX c #EEE9E5",
"aX c #EEEBEA",
"sX c #EDE5E6",
"dX c #F1EAE6",
"fX c #F3ECEA",
"gX c #F0E7E7",
"hX c #F5F1ED",
"jX c #F8F2EB",
"kX c #FAF6F4",
/* pixels */
") #.;.) _ 9.9.) ) _ 9.7.9._ _ _ 7.@.7.7.@.7.@.#.) $.) e.V.x.;.( +.8.#.8.V.j.@.@.6.#.} } ) #.7.` ^ #.^ [ [ _ _ #.:.;.#.+.$.$.#.@.",
"_ _ [ _ _ #._ _ _ ;.7.9.r.7._ _ ) #.7.7.@.) ) #._ #.#.$.:.e.g.w.#.$.#.$.f.r.@.@.7.) } #.) _ _ y.e..._ [ { [ { +.;.>.;.;.#.#.$.%.",
"9.;._ #.9._ _ _ _ _ _ r.k.e.) _ ) @.7.#.) ) @.@.#.$.$.~ T ;.x.e...9.[ ^ | 9.7.7..._ ^ | y...^ u.N.X.[ [ ..X.[ ^ ) [ 9._ } _ #.} ",
"k.r._ _ _ _ _ 9._ _ _ j.c.t.) 7.@.) @.7.@.#.7.@._ @.#.) ( d.V.d.9.t.0.^ ) _ ^ | ^ ` ^ ..a.0...q.N.l.X...q.u.0.^ ^ [ _ .._ _ _ 7.",
"G.k.7._ _ _ _ _ #.7.7.9.t.7.#.7.7.) @.) @.7.#.) _ _ ( #.9.e.d.9.t.c.a._ { ^ ^ [ ^ [ { X.s.b.i.i.b.N.l.0.s.b.0.[ | _ _ } | _ _ | ",
"B.k.9._ _ #.#._ _ 9.| ~ ' ) 7._ 7.@.#.@.#.7.#.$._ $._ #.#.E Y ~ q.c.u._ ^ [ ^ [ ^ [ { ..u.b.m.m.b.m.b.b.b.l.0.^ | | _ ) _ _ | _ ",
"| 9.7._ 9.d.r._ _ 9._ ~ I ) _ ) 7.7.7.8.r.8.) @._ 7.#.#.#.E Y ( w.d.w.#.$.@.w.;.#.>.;.>.;.i.D.G.m.,.s.M.h.;.@.#.$.r.f.6.@.%.$.#.",
"U ' ` _ r.k.t._ _ ) _ ;._ | ;.) } 6.6.8.v.r._ _ @.#.) @.7.#.@.#.#.:._ $.( +.w.;.$.;.{ >.P S h.A.M.{ { h.0.P W @.8.k.V.8.%.$.$.#.",
"~ ~ ( ;.9.9.9.9._ _ _ _ #._ _ _ _ 7.d.w./ ) 7.9.#.#.#.7.#.#.#.) #.@.@.@.6.$.@.$.%.%.@.%.+.Q W W Q F S R W / @.$.$.8.8.8.$.@.$.8.",
"9.;.9._ ` | 9.9.) ( _ _ 7._ _ _ $.r.B.w.I ~ #.$.) _ #.#.#.#.#.#.#.$.@.@.8.6.@.w.w.$.%.$.>.+.Y S P F P R E $.:.#.@.@.@.#.$.$.$.$.",
"( ^ [ ;.#._ ) ( [ _ _ #.;.#._ ;._ w.B.j.) @.;._ _ _ _ _ _ _ _ _ ) 7.@.@.6.} } p.k.r.@./ #.#.@._ { { ( ( ( _ #._ / _ _ #.#.#.#.@.",
"[ _ _ 9.;.( r.t.9.9._ _ _ | _ 9.@._ 7.$.) #.#.#._ #.7._ _ _ _ _ ) #.) ) 6.} } 8.r.7.@.@.#.#.;.7.>.>.;.;.;.{ _ 9.} _ 7.r.r.#.) +.",
"9.;.^ ( _ ;.u.k.9.9.#._ _ 7.[ 7.#.~ T Y _ ;.) ;.#.[ #._ _ _ _ 9.} | } }  .) } } 6.6.} } 6.) ) ) ( _ ;.;.{ 9.| ^ |  .0.p.r...) | ",
"{ #._ _ 9.k.w.E _ _ _ #._ _ _ _ _ _ / ` ;.9.( { _ _ #._ ) _ 7._ }  . . .) } } } 7.} ) } 6.} } #.;.#.[ 9.9.[ ^ _ ^ p.a.^ ~ | | _ ",
";.9.t.;.e.n.0.P ( ( ( H r - t 7 ] ;.( ( ( ;.;._ ^ _ 0.r._ ) .. ._ ) ) ) } } 6.} 6.6.} 6.6.@.6.@.#.) @.$.#._ 0.t.9.k.z.~ L _ 9._ ",
"{ e.c.e.9.v.t._ ) H > -.2.K.L.R.9 : , , , _ 0.( #.;.k.v.9._ |  .} _ } } } ) ) } 6.6.6.6.) ) @.8.@.$.#./ _ 9.g.k.y.u.z.0.) ) _ | ",
"#._ @._ ( ) @.;.o.; h 2._.=X=XqX~.U.Y.H.c 2 3 ] D 1 ] &.] 9 1 9 D 1 1 1 D ] < 5 4 < D H G G +.6.@.#.#.#.+.#.;.;.+.+._ ;.#./ _ #.",
"#.E I ~ / Y E @.0 h 1XT.u tXfXiXuXhXhX0X{.p w r y l c n l z % 7 s l p x c c c c c x c Z h g =.9.$.+.( $.#.( E Y ( E L ( _ _ 9.r.",
"9./ ~ / _ / / Z.t {.kXT.s sXgXaXpXpXiX<X{.A H.J.`.;X5X8XwX;XM J.#X+X#X5X6X6X0X0X5X7X8X8X,XoX_.F.h.=.O.#.9.#.( ( #.( ~ 7.9._ r.c.",
"( 9.w.+.( $.Z.>Xu T.eXI.u $X8X8X7XiX5X@X'.W.{.XX<X9X5X9XdXwX;X2X6XuXfXeXwX8X8X8X8XeX9XyXjXkXtX<X<XqXZ.:.:.;._ ;.#.;.9.7._ | t.k.",
"( #.J 4 *.4.].T.N A T.V m W.|.OX+X4X2X XXX{..X2X6X6X9XyXpX9X8XyXpXyXpXyXiX0X5X5X8XsXpXiXaXfXfXtX5XeXuXrX>X*X) _ ` _ $.` ` 7.7.7.",
"( @.2 =.5.R.t q !.}.).T.A A ~. X.X%X$XXXoXXX.X<X6X5XpXhX9X4XeXdXpXfXfXhXfXyXyXeX8XaXfXfXpXaXaXfXiX5XtXpXuX7X-X&Xe._ _ _ 7.7.} _ ",
"_ @.f 4.5.v 1.~.<X3X,X%X[.P.u E.OX%X{.)..X.X:X5X0XtXfXpXeXeXyXdXfXfXpXpXfXpXaXiXtXpXaXfXgXaXsXgXaXtXtXfXhXpXuXtX&Xh.6.7.7.) ` #.",
";.#.3 g t N aXkXhXtXwXwXwX.Xs d E.{.Y.W..X#X5XwXyXfXfXpXfXfXiXdXhXdXuXpXhXaXpXpXiXfXpXpXaXgXgXgXpXfXpXfXaXpXpXtX8X&Xh.) / 7.) 7.",
";.;.+.4 i +XfXaXpXdXhXuX8X8XOXs d A A A %X4XwXyXiXdXfXdXdXfXfXfXdXpXfXdXdXfXfXgXgXgXfXkXgXgXhXfXdXiXdXiXdXyXyXwX8X1XL.%.%.@.@.@.",
"#.#.#.2 1.tXpXhXaXaXpXhXyX8X8XOXu d A W.%X6XyXjXfXdXfXdXdXdXdXiXdXfXfXpXiXgXgXgXfXgXgXgXgXgXfXaXdXgXgXjXjXdXdXdX8X5X=X4.4 %.@.@.",
";.#.( 2 I.tXpXfXiXwXuXfXiX4XwXwXd a ). X#X4XyXjXdXiXdXfXiXdXdXgXfXpXiXpXgXfXgXgXfXfXsXgXgXgXgXaXdXiXdXdXdXgXdXdX8X5X0X!.; +.+.@.",
";._ ( , 1.rXhXtX X{.9XjXiXwXwX,XA x ).#X4XuXwXyXdXdXiXdXfXdXiXgXfXaXpXaXgXgXgXfXfXfXgXgXfXaXsXaXdXfXdXgXyXwXdXdX0X$X8X`.- +.#.#.",
";._ ( , 3.&XjX8Xd `.iXjXiXeX6X).x A .X<X6XtX6XwXyXjXdXyXdXdXjXgXgXjXfXfXgXgXgXfXjXgXgXjXpXpXfXpXdXfXpXdXwX4XyXdX6X@X1XT.; ( @.;.",
";.( ( D =._.fX0XW.2XkXfXfXeX$Xn d W.,X8X5X5X6X6XyXiXyXdXdXyXjXyXeXfXfXfXgXgXfXgXeXgXgXgXpXpXpXdXdXpXpXuXuX6X6XwX6X:X@X!.t o._ #.",
";.;.;.;.< m hXhXjXfXiXdXeX$X).7 J.$X2X8X9X6X6XuXiXwXwXdXdXdXjXyX8XyXdXdXfXgXgXeX9XdXfXpXuXtX9XuXdXdXdXwX4X6X6X6XwX<X@X[.m 7 .._ ",
"( t.x.t.4 N hXhXdXiXwX4X XA M a J.2X8X8X2X4X6XyXuX6X6XdXjXyXdXeX4XwXiXgXfXgXeXwX9XuXjXfXwX5X4XwXyXuXjXuX4X6X6X6X2X.X[.`.m # 0.) ",
"w.d.j.8.4 v 7XfXsX<X6XQ.u n 7 b '.#X;X>X;X;X6X6X6X6XwXyXgXeXeXwX8XwXsXgXgXyX4X4X4X6XyXdXwX6X4X>XwX4XuXwX8X8X4X4X;Xx s E.v # k.X.",
"S.8.T ' 3 p _.0X|.<XfXI.7 c % n .X`.).;X4X6X;X;XwX4XwXdXgXwX8XwX4X4XeXgXgXeX,X$X6X6XyXeX;X;XwX4X;X4X;X;X8XwX2X$X%Xu e N e # b.b.",
"G.f.Y ' 3 t 5.=Xs c H.<.j y 7 n Q.J.J.;X6X;X X%X2X6XwXfXwX;X,X8X8X6X8XsXeX2X%X%XwX6XwX8X#X%X;X#X%X;X;X#X8X3X$X@X^.m d f *.=.N.m.",
"j.j.@.@.o.0 <.2.t 9 3 ] &.1 7 M A N Q.;X4X%X XXX$X;X6XyX4X%X;X8X8X4X2XeX4X%X%X%X$XwX8X8X;X%X X X#X4X;X;XwX3X@X).A P.s f N.m.m.b.",
"Y / @.#.$.! 0 j 9 >.@.o.J +.D j 1.B Q.:X,X%XXXXX%X$X6XwX8X%X%X8XwX$X%X2X%X|. X'.OX3X8X3X%XXX%XOX%X;X%X;X5X;X).P.V I.i 9 D.A.>.{ ",
"L Y _ 8.7.#.W , 2 %.#.@.#.7.+.2 z B ~.XXXXXX|..X X#XwX6X3X%X.X1X2XOX%X2X%X%XE.W.@XOX<X$XXX|.[..X%X%XOX|.@X[.P.P.I.1.f 0 h.i.{ ! ",
"` 7.7._ ` ) _ +./ #.6.#.) 7.7./ 9 l ~.oX+X|.E.[.XX$XwX2X@X|..X@XXX|.XX%X%X~.A W.|.@X.XOX%X).V T. X%XOX!.~.|.P.V 3.f 3 R S S ! >.",
"$.#._ #.#._ _ _ @._ @.7._ ) ) _ 4 h 2.^.%X.XA A ).,X3X%X@X!.}.@XXXOX XW.J.A A A E.@X@X@X).P.V A W.|.).V V P.V y t o.O.+.R R +.O.",
"_ _ ;._ ) 9._ _ _ _ 7.@.7.#.7.) J *.<.E.XX~.P.m /.1X@X|.!.P.}.$X[.!.E.A N V A P.U.~.!.|.!.V U.P.P.T.U.P.H.M 9 ] o.O.[ ;._ ` @.7.",
") ` ) _ _ ) ) _ _ 9.9.` _ ) } 7.) *.-.2.~.U.P.U.!.|.@X!.V V !.|.}.N A P.I.I.n i i i V /.~.n u s u e C Q.1.-.] { #.>.9.^ _ $.7.@.",
"#.7._ _ _ [ ;._ ) _ 7.#._ ) _ 7.) D g 4.P.x x l y C }.P.P.v C /.).V V P.m c t , , ; i v x i % O w i i i t g a.X.[ X.X. . . .} | ",
"#.7.#.9.9._ _ ) _ 9.#.#.7.#._ ) } H g <.x w # e y i C P.C q p C V A A N r # o.7.8.@.2 $ # x s X V $XN 7 - &.N.l.0.q.s.X. . . .| ",
";._ ;.d.g.$.) ;.k.g.$.` #.#.#.#._ ) G - e n q ).aX}.t v t o.2 # y I.C 8 o.+.@.@.@.@.+.= h 2.s X V <X8X/.k ] N.m.s.b.n.0.| p.7.} ",
"w.@.#.9.t.e.9.;.V.v.#./ ) #.7._ 6.) K - Z V @ U.hXrXL.- G ) +.! 3 q 7 G ' @.@.@.@.7._ = <.].A X V 8XaX].-.] m.N.N.z.q.[ y.z.r.} ",
"#._ #.Y _ k.t.;.v.v.;._ #.#._ #.} _ < f _.H.@ U.iX-XF.+ +.) @.7.%.G o.6.@.@.@.@.@.#.#.= z 2.e o C 0XaX&X=.> i.D.m.:.E Q :.w.w.#.",
"@.( #.T _ B.x.;.g.c.w.#.@.) _ $.} 6.K , <.u   ^.aX-XZ.+ ! @.) #.@.@./ @.8.@.@.@.#.#.@.= 7 7 o u {.tXaX5.D = { >.;.Q E Q :.$.$.$.",
"#.;.$.( e.x.g.#.g.g.e.9._ ) _ _ 6.@.O.4 ; X % ~.8X-X5.+ W @.#.#.#.@.) @.7.7.@.@.@.@.6.* O . q [.0XsX0X-.& > L L L E ( ;.;.;.+.>.",
"$.;.;.#._ ( ( ( ~ ( _ { _ _ 7._ @.6.@.@.4 + b n (.].2.+ ! $.$._ _ _ @.#.6.#.) ) @.@.6.= X . q }.0X0X@Xi : / ~ W ( ( ;.;.+.;.+.$.",
"#.@.$.#./ I E ;.P I ( ;.#.#.7.#.@.#.7.} W = @ % # h j * Q _ 9._ #.7.7.#.#.7.6.#.@.) @.: o . . y }.@X(.q : 9.#.#.;.#._ _ _ #.$.$.",
"@._ _ _ ( ( #.;.^ ( ;.9._ #.#.#.6.@.} _ +.= X @ @ @ = O.( _ ) 9.#.9.#.@.@.7.#.) #.@.@.W O.5 o @ r e q o : +.#.;.;.#._ { #.#.#.$.",
"_ _ _ _ _ _ _ [ ;.( ;.%.+.#.%.#.} #.) } ( * - # $ . = 7.k.t.{ ( #.#._ 7.t.w.7.) ) ) } 6.} < o # $ @ $ o : @._ $.7.#.) #.7.@.@.@.",
"` _ | | ^ ) _ ;.;._ $.;.$.$.%.$.7.} } ) W : $ + . + G 8.g.d.;._ _ #._ 9.k.p.7.) 7._ _ ) @.5 o X X X X * G @.#.#._ _ _ } 7.#.@.#.",
"_ |  . .^ ` ^ 7.;._ $.f.j.8.%.$._ 7.#.} / > * + o 5 %./ ~ ;.u.e.) [ _ _ r.9.#._ 7.#.) } 6.K o o o o o < +.#.@._ ) _ _ _ ) } 6.6.",
"y.7... .^ 9..._ ^ #.%.j.V.f.$.$.#.| 7.) ) _ @.} 6.@.#.+.I 0.n.t.9.r.9.) _ #.} 9._ _ ) _ } 6.6.} @.@.@.@.#.+._ #._ } } _ 6.7.7.@.",
"z.a.{ ^ ^ ^ ..[ [ ( { k.B.f.%.%.#.) #.9.` ) 7.) @.%.#.#.8.h.l.t.9.c.r._ ..#._ 9.#._ 7.7.) } 6.6.{ ;.[ ;.;.;._ _ 9.^ ;._ _ 7.) #.",
"N.z.q.^ ..q.q.[ ^ [ [ _ _ #.$.%._ #.9.7.) @._ ) 6.$.%.$.$.;.( ( t.c.k.| _ ^ _ ) #._ _ 7.} ) 6.) _ t.t.[ ( ;.t.g.;._ _ _ } 7.@.) ",
"n.S.S.g.u.b.u.[ _ ;.| ~ L ~ 8.#.#.7.#._ 7.7.@.$.$.$.%.%.$.~ I ~ r.v.p.} _ [ ;._ _ { _ _ 6.6.6.) ;.l.x.:.#.e.g.g.[ _ ;.[ [ #._ _ ",
"S.S.m.v.c.n.u...[ [ _ ) ~ @.8.#.#.#.7.t.x.r.$.$.@.$.#.%.#.) / _ 7.7.7.} _ ^ ;.9._ ;._ _ #.7.6.6.;.g.x.;.f.g.;.E ^ { ;._ #.#.@.` ",
"h.Z.A.D.M.i.:.>.[ [ ) _ 7.#._ 7._ _ e.t.9.9._ +.@.$.$.#.7.7.#.) } ) ) } _ _ { 9.^ ;.#.#.@.@.@.6.w.x.x.:.h.V.+.Y _ { [ _ _ ^ #._ ",
"F >.C.D.h.E E [ { ;._ ) 7.#.) 7._ 7.k.9.I E ( ;.$.$.#.%.7.$.) #.} _ } _ _ ;._ ;.;._ #.#.) ) ) @.w.x.h.;.f.V.7.$.( _ ;.;._ ) _ ;.",
"K o.>.,.O.Q Q ;.;.;.7._ #.#.@.7.` 9.c.p.` ` _ #.$.#.#.%.#.) ) } } } 7._ #.{ { e.g.;.@.#.@.) @.@.@.$.$.%.%.%.:.;._ { ;.u.t.^ _ _ ",
"F F F F J >.>.>.( _ 7.9.#.#.7.@.7. .k.l.t.9.{ #.( #.$.#.) ` } _ } ) ) | #._ _ g.c.9.( #.7.@.7.@.+.Y T %.W S +.;._ ;.9.c.c.9.) ) "
};
