/* XPM */
static char *result[] = {
/* columns rows colors chars-per-pixel */
"32 32 88 1 ",
"  c #2C2B2F",
". c #2E2C34",
"X c #2F2D38",
"o c #302D34",
"O c #312F39",
"+ c #323036",
"@ c #35333B",
"# c #39363E",
"$ c #343340",
"% c #3C3A42",
"& c #3D3B48",
"* c #423F46",
"= c #45434C",
"- c #48464D",
"; c #46494E",
": c #4A494F",
"> c #474551",
", c #484651",
"< c #4C4A55",
"1 c #4E4D5A",
"2 c #514E55",
"3 c #514F5C",
"4 c #4F505D",
"5 c #515057",
"6 c #51515D",
"7 c #58575E",
"8 c #59585E",
"9 c #4D5262",
"0 c #505463",
"q c #595761",
"w c #5A5A62",
"e c #5A5C6B",
"r c #5F636F",
"t c #5C6373",
"y c #63666D",
"u c #66696F",
"i c #6A686F",
"p c #646774",
"a c #666876",
"s c #696873",
"d c #646A7A",
"f c #686D7B",
"g c #68707F",
"h c #76757B",
"j c #667081",
"k c #6D7383",
"l c #6F7987",
"z c #6E798A",
"x c #707686",
"c c #717986",
"v c #7C7B83",
"b c #717789",
"n c #727A8A",
"m c #7E8491",
"M c #83838A",
"N c #87898D",
"B c #838B94",
"V c #8C8C93",
"C c #838B9A",
"Z c #8E9196",
"A c #8A939D",
"S c #909196",
"D c #92949E",
"F c #8A8FA1",
"G c #8C93A4",
"H c #8F98A0",
"J c #9294A0",
"K c #959CA6",
"L c #9C9EA4",
"P c #959DAA",
"I c #999EAA",
"U c #9EA0A5",
"Y c #A2A3A7",
"T c #A5A6AB",
"R c #A8A7AD",
"E c #A8A7B0",
"W c #ABACB3",
"Q c #AFB0B5",
"! c #B4B5BA",
"~ c #BCBCC2",
"^ c #BFC0C5",
"/ c #C5C6CC",
"( c #C7C8CF",
") c #C9C9CF",
"_ c #CCCCD2",
"` c #CFD0D5",
"' c #D0D1D6",
"] c None",
/* pixels */
"]]]]]]]]]]]]]]]]]]]]]]]]]]]]]]]]",
"]]]]]]]]]]RRTLYYYLLLUU]]]]]]]]]]",
"]]]]]]]]!^'___'''`_`_'/!N]]]]]]]",
"]]]]]]]_)!hq88887888qh!/`T]]]]]]",
"]]]]]]_Es*@.....o....#*iR`~]]]]]",
"]]]]]~M<oXo...ooo o.oo.O:M^!]]]]",
"]]]]/v@XXXo.o...o.ooooX..@h)R]]]",
"]]]]V&.Oo.X.o....o........#V/]]]",
"]]]W,XX.....O.....oooo o.+ ;QT]]",
"]]^B$.....*<;.O.. oooooo. +#NQh]",
"]])e.X. ..%;=...%#*@ oo .. .w)Z]",
"]]_w..++ ....o.+222-o oo....8)S]",
"]]_q... + oo o o@@@+ oo ....7)S]",
"]S)q....oo .  ooo.o oo o....8)S]",
"]S)q....ooo.%#o. oooooo.o...w)S]",
"]S)q...++.o.@+oooo+ oo.O,,;Oq_S]",
"]Z/w..:<2#.oo.oo.@*@oo.o=<-Xq(Z]",
"]Z(w.+%%*O.oX.ooo..o ....o..q_Z]",
"]Z/w....oo. ..o o...o.......q(Z]",
"]BW4 ...X.oo .oOoo oo.o.....4WN]",
"]uD6XX..oX..oX.%%oo.........5Du]",
"]sD4X...XX..XXoX.oXoXXOo.X..4Du]",
"]yD4$$><XX&2<1<<OXX><<<&.&$$0Dy]",
"]yAr4131&&>33331&&&<303*&133eDy]",
"]yDe04tadppdppspappdaagtpp03eJp]",
"]yDepkccnnd0exkkxktkclkzkxjdeJp]",
"]uAdllddkndttbj9txckct09tznxdJp]",
"]uJdlt90kzknbbkdfbccnjttjzzkpJy]",
"]pDdcknCGFFFGGGGGGGFGGGGPmmldJy]",
"]iJfGKPUPmcmIKCGIICcGPPPGHHFfJs]",
"]:wyKKKKIABZPPKKKPABPUUmmmUPyw;]",
"]]]]]]]]]]]]]]]]]]]]]]]]]]]]]]]]"
};
