/* XPM */
static char *result[] = {
/* columns rows colors chars-per-pixel */
"64 64 234 2 ",
"   c #231D28",
".  c #29272B",
"X  c #2C2A34",
"o  c #292A36",
"O  c #322D38",
"+  c #2D313A",
"@  c #34333B",
"#  c #343237",
"$  c #302A2F",
"%  c #4B3A36",
"&  c #55443A",
"*  c #574639",
"=  c #79563E",
"-  c #333442",
";  c #393945",
":  c #423F4A",
">  c #3D534C",
",  c #49444B",
"<  c #564948",
"1  c #5B524E",
"2  c #454955",
"3  c #4A4C55",
"4  c #4B4E5A",
"5  c #454956",
"6  c #5A4C52",
"7  c #534D57",
"8  c #4E525C",
"9  c #4C5B54",
"0  c #52535D",
"q  c #5A5458",
"w  c #46534C",
"e  c #69564A",
"r  c #735A4C",
"t  c #765647",
"y  c #685957",
"u  c #755C55",
"i  c #624D4A",
"p  c #497A54",
"a  c #486C52",
"s  c #6C615A",
"d  c #796558",
"f  c #78624E",
"g  c #4D5462",
"h  c #535562",
"j  c #555A64",
"k  c #5B5B64",
"l  c #5A5D6A",
"z  c #575766",
"x  c #675C65",
"c  c #5E626D",
"v  c #5C6D6C",
"b  c #65656C",
"n  c #786764",
"m  c #647A6B",
"M  c #6A6E7A",
"N  c #696B75",
"B  c #6D727C",
"V  c #6F7675",
"C  c #72747B",
"Z  c #74767B",
"A  c #7A706F",
"S  c #815C43",
"D  c #856A5A",
"F  c #8C755B",
"G  c #897257",
"H  c #92765A",
"J  c #937A5C",
"K  c #96775A",
"L  c #876653",
"P  c #846E67",
"I  c #8C7564",
"U  c #8D7963",
"Y  c #8B756B",
"T  c #8D796B",
"R  c #85746A",
"E  c #917664",
"W  c #947B63",
"Q  c #9A7C62",
"!  c #947B6B",
"~  c #997B6C",
"^  c #8A7A75",
"/  c #937D73",
"(  c #937C76",
")  c #906F60",
"_  c #A07B60",
"`  c #2F9834",
"'  c #2CAA31",
"]  c #36BC3D",
"[  c #3BBC3D",
"{  c #38B639",
"}  c #2EA730",
"|  c #41BE3C",
" . c #41BD37",
".. c #40A63E",
"X. c #3DC03E",
"o. c #43C23E",
"O. c #3CBD42",
"+. c #3ABB44",
"@. c #3DAB45",
"#. c #4A8455",
"$. c #4E9154",
"%. c #44A64B",
"&. c #41BD43",
"*. c #43BF49",
"=. c #47B74A",
"-. c #59A65E",
";. c #56B75A",
":. c #4DB356",
">. c #5D9763",
",. c #66976B",
"<. c #73897A",
"1. c #6A8C70",
"2. c #5AB662",
"3. c #5AA960",
"4. c #65B66A",
"5. c #6CAB74",
"6. c #73AC79",
"7. c #6EB176",
"8. c #75B678",
"9. c #62A765",
"0. c #3DC043",
"q. c #3CC048",
"w. c #42C244",
"e. c #44C34A",
"r. c #4BCB4D",
"t. c #4AC748",
"y. c #51CB4B",
"u. c #4BC752",
"i. c #55CA57",
"p. c #58D657",
"a. c #51D14F",
"s. c #64DA5A",
"d. c #64E25C",
"f. c #5DD862",
"g. c #5EC763",
"h. c #66DA65",
"j. c #6CC870",
"k. c #66E66A",
"l. c #97826B",
"z. c #948173",
"x. c #988478",
"c. c #8F807B",
"v. c #A48C78",
"b. c #6D7584",
"n. c #6D7986",
"m. c #737682",
"M. c #747A84",
"N. c #7A7B83",
"B. c #737B8A",
"V. c #7A7D89",
"C. c #767789",
"Z. c #867C85",
"A. c #7D818D",
"S. c #7E8582",
"D. c #7CA882",
"F. c #86868C",
"G. c #958885",
"H. c #8A8D94",
"J. c #878B96",
"K. c #948C94",
"L. c #8D929D",
"P. c #8B9A94",
"I. c #949495",
"U. c #93959D",
"Y. c #949A9E",
"T. c #9B9A9B",
"R. c #9C9698",
"E. c #92968C",
"W. c #A6948A",
"Q. c #A49A98",
"!. c #A59187",
"~. c #86A78A",
"^. c #8CA693",
"/. c #8EB195",
"(. c #ABA39E",
"). c #8E96A2",
"_. c #9396A2",
"`. c #959AA4",
"'. c #9A9CA4",
"]. c #969DA9",
"[. c #9A9EAA",
"{. c #9997A2",
"}. c #9C9FB0",
"|. c #A29CA5",
" X c #9DA1A4",
".X c #9CA1AC",
"XX c #97A6A4",
"oX c #9DA4B1",
"OX c #A3A4A5",
"+X c #A2A4AC",
"@X c #A8A7AA",
"#X c #A2A5B1",
"$X c #A7ABB3",
"%X c #B2ABAE",
"&X c #82C688",
"*X c #8BC892",
"=X c #90CE97",
"-X c #AECEB4",
";X c #D7C6BC",
":X c #B6B9C2",
">X c #BEC3C8",
",X c #BED1C1",
"<X c #C4C5CB",
"1X c #CACCCD",
"2X c #C5C9C9",
"3X c #CBD1CD",
"4X c #C6CAD3",
"5X c #CBCDD3",
"6X c #CCCEDA",
"7X c #C5C6D3",
"8X c #CED1D5",
"9X c #CED2DB",
"0X c #D2D3D5",
"qX c #D5D9D6",
"wX c #D3D4DB",
"eX c #D5D9DC",
"rX c #D9DADC",
"tX c #D9D6DC",
"yX c #D6CCD1",
"uX c #DDE1DE",
"iX c #D4D6E1",
"pX c #D6DAE3",
"aX c #DADCE3",
"sX c #DCDEE9",
"dX c #D9D5E1",
"fX c #CFD8E1",
"gX c #E0DDE5",
"hX c #DDE1E5",
"jX c #DEE2EC",
"kX c #E1E3EB",
"lX c #E3E5E8",
"zX c #E6E9F5",
"xX c #E7D5CD",
"cX c #CDBFB4",
/* pixels */
"{ [ 0.[ [ 0.w.[ { O.0.0.0.0.[ O.0.] 0.0.0.+.] +.] 0.] q.f.i.e.{ +.O.O.e.f.p.+.+.X.X.X.X.] X.X.X.X.o.[ X. .[ | { =.&.O.+.+.*.O.+.",
"[ O.O.[ [ w.[ [ [ 0.0.q.t.0.] [ X.+.0.0.] ] ] q.] q.q.+.&.u.u.u.+.O.[ O.u.q.0.q.X.X.X.] ] ] X.o.t.X.{ [ o.{ | +.&.&.&.&.+.+.O.+.",
"w.O.[ 0.&.[ O.[ O.[ [ r.p.r.] [ ] +.0.X.] ] 0.] 0.q.q.' ' O.i.u.w.w.[ [ X.X.X.X.X.{ X.X.X.X.X.y.d.o.o.o.o.o.o.{ [ | | [ [ X.O.O.",
"p.t.[ [ [ [ [ O.[ ] [ a.p.r.{ 0.X.] +.+.+.0.0.] +.] 0.+.[ r.f.u.e.y.t.[ ] ] X.X.X.{ X.o.r.t.o.o.d.s.o. .y.a.o. .[ [ [ w.X.[ [ 0.",
"k.a.0.] ] [ [ O.O.O.O.e.r.q.[ 0.q.] +.+.+.0.0.] ] ] ] O.w.e.r.e.r.p.a.[ { X.{ X.{ [ [ o.a.p.y.y.s.s.s.o.p.s.t. .[ ] ] [ [ ] [ 0.",
"f.a.w.] [ w.&.O.[ w.<.Z.S.N Z.V V V V S.v eXwXaXqX9XeXaX4XwXpX9X9XpX9X4XeXeX9XqXhXqXeXb c.V V Z m z.N N.c.<.t.&.t.X.X.O.] X.X.[ ",
"0.X.X.[ w.r.-.,.1.<.=XyXwXeXaX0XeX8XeX8XlX2X8X8X9XhXwXwXjX5XwXwXwXwX5XhXwXwXhX0X8X8X2XzX8XqX1XeX0XrXqXqX3X-XV ,.>.>.u.+.+.+.O.+.",
"' ' ] [ t.9.h.j.,XqX0X0X0XeX1XrX3XlX8X0XeX+X+X|.'.Y.L.'.$X+X X_.Y..X+X$X XH.Y. X.X XOXeX8X8XlX8XrX1XrXyX3X0XuX3X=X&X5.q.+.+.*.+.",
"{ { { | $.g.rXuXqXrXR. XOXR.OXE.Y.I.T.@XI.eX0X0XT.Z T.|.H.8X5Xq q 5X8XH.OXU.Z |.0X0XtXI.OXQ.I.Y.I.XXP.(.OXI.uXuXuXuX*X1.O.+.O.e.",
"| *.=.$.=.qXF.Y.OXI.qXqXqX3X2X@X(.OX1X2XqX8XtX0XaXH.'.tXtXrXqXZ Z 0XaXtXtX'.H.rX0XtX0XeX1X1X@X X@X;X3XuXqXqXE.XXT.F.hX=Xm q.+.+.",
"{ &.1.g.8XY.eXqX3XlX2XqXqXuX3XuXR.rXyXrXlX3XtX3X8XgXtX<XgX1XlXN A gX<XgX<XtXgX1X3XqX1XlXqXyXrXI.uX2XuXqXqX2XlX3X3XuXY.eX*X1.u.*.",
"| S.j.1X X8XhX3X0X8XqXqXqX3XuX3XuX2XrXqX1XtX0XtXtX0X9X0XyXk <XZ.N.<Xk 8XwXyXtXtXtX0XtX1XrXrX1XuX3XuX3XqXqXqX3X8XuX3XqXY.eX=XN.C.",
"e.Z -XY.eXeX8XhXqX8XuX8XqX3XqX3X0X0XtXtX0XtXtX5XtX0X0XyX7 tXtXN C wXtXq 6X0XwXtXyXwX8X3X0XtX0XrX3XqX3XqX8XuX8X9XqXlX8X>X$X>XZ Z ",
"[ &X{.0XjX9XhX>XhXqX3X8XqXuXeXqX0XtXrX0X0XtXtXrX8XtX0Xz C wX7 N.Z.3 wXC q wXtX5XgXtXtX8XyXtXqX0XqXuXuXqX8X3XqXuX8X2XhXhX1X X=X=X",
"[ =XY.aX>X4XjXhX4XqX8XhX8XeX3X8XOX<XtXtXtX0X5X5XtX9XgXC N.9XN.M N N.wXN.C sX9XtX5X1X0XtXtXtX<X{.8X3XqX8XhX9X9X3XhX8X8X9XeX#X=X*X",
"[ XX9XaXjXjX,X8X9XeX9XeX4X9XpXlX+X0XaX8X0X0XwXgXiXwX0XdX{.gXiX_._.wXgX{.dXwXwXtXlX0X9XwXqXaX0XOXjXeX8X2XeX9XeX9X4XpX9XhX9X>XN.M.",
"O.P.XXZ.oXL._.'.#X[.'.`.+X'.`.J.M @X5XwXhXaX8XdXwXwX[.6XdX7XC.sXpXB.7XdX6X.X9XpXwX5XeXaX9X3XoXN P._.]..X_.[.'.#X].`.U..XH.$XY.Y.",
"&.^.D.XX[.).[.`.U.J.`.).oX_.L.V.m.U.'.`.`.U.L.'.#X`.[.[.`.sXsX7X7XsXsX_.[.'._.#X[.U.U.Y.Y..X`.S.A.L._.+X).`.J.U.'. X.X].XXH.Y.Y.",
"&.2 k 2 2 h 8 h j g 4 4 j c b.b.N M.J.`.'..X.X.X.X`.V.J.[._._.#X#X`._.[.H.V._..X[..X.X.X XL.A.M b.b.c j 5 8 8 j 2 8 j 3 4 z 9 0 ",
"+.u.u.3 XX`.M.C m.M c B M C.z 4 z 8 3 8 4 4 8 8 2 8 h z h l ; l z : l h z h 8 5 4 4 4 4 8 8 2 8 4 l m.b.B c M m.V.B '.^.8 *.h.k.",
"{ *.e.m ^.Y..X`._.F.2 C.M C.C.C.S.0 4 7XkX9XdX9XdX6X9XaXyXdXdXyXdXdXdXdX9X9X9XaX5XsX6X5XjXb.2 A.C.M A.M B 3 A.U.`.OXU.^.m 0.0.0.",
"+.i.u.<.*X#X.XI.'.{.z V.V.{.[.5 2 4XpXkX9XdX|.z h 7 5 k : x 6 6 q 6 : : k q 7 w k K.dXsXwXsX4X8 5 ).].B.m.j `..X'.#X$X*X,.X.X.X.",
"{ +.e.<.&X5X8XwXU.z M _._._.z iXfX9XdX|.7 : 7 O {.|.|.|.q 6 : y 6 i x n F.R.|.|.$ 0 q , {.iXjXfXiXg ).).A.N j `.5X8X9Xg.-.X.] ] ",
"*.*.e.m *X8XeXwXsX5 B $X#X0 6X6XfX`.0 7 $ 6 |.R.q < < x 6 n n y L x y y 1 < 6 < Q.(.$ @ 0 l J.6X9X9Xg .XoXN 2 hXeXwX9X4.%.0.] X.",
"O.e.e.m *XwXiX6X4X0 [..X4 6XzX_.j 8 M # R.K.: 6 x < 1 y R Y ! u u Z.Z.( P n y < 6 < |.K.$ b b h ].zX>X4 .X].j 5X9XeX9Xg.%.+.+.X.",
"O.=.;.1.=XdXdXdXwXh '.4 jX9X_.h m.C . %X6 n D u P d z.T ~ G ! L t ) ) ~ ( ) R i ^ n < 6 %XO B _.5 ].>XpX8 [.8 8X9XpXpXg.-.+.] 0.",
"| u.O.<.=XwXeX4X+X8 2 dX6X#X5 C.M N.: G.i x n ( T d G I _ K K = L ~ ) _ ! U / f Y R ( 6 Z.@ N.'.].c .X4XpX2 8 .X5XaX8Xj.-.O.+.0.",
"&.&.e.w <.H.$X'._.8 z 9X[.4 0 + Z.O K.q x P !.D ! G U W K K K S = ) _ ) J G U r / P ( Z.y |.O C.n.L.g `.wXj 8 U.'.$XH.,.$.q.] +.",
"&.=.a ~.-XeX<X#X0 3 iX6Xl h 0 4 O : K.< u ( D ~ W F G l.K K K = = K K H Q G H W E / Y ( 6 @X# M .X)..Xv >XpXh 8 +X4XaXg.:.@.O.&.",
"&.&.,.&XqX0XwX8X2 B 6XL.h 4 h h X F.x x ( D v.G W F G l.K K _ S S _ K K l.H H J ! ) Y P ( , Q.@ M oXA.g oX6Xj g 8X0X9X-X*.=.&.&.",
"O.=.,.&XwX9XwXeX0 :XhXl 4 4 4 5 X @X6 y ( Y E ) J H H K G K l.= = _ K H J H H J W D u G.R 7 OXX A.).].).l 6X>X8 eX9X8XeXt.=.w.{ ",
"{ i.1.=X9XqX9X9X0 aXpX5 z h h 0 O I.y i Y x.L Q J l.H l.G K K = = _ K G l.J J J Q D D R R y F.@ M..X.X.X5 fXhXk eX9X9XwXt.a.t.] ",
"u.i.1.*X8X8XwXwXN sXdX4 h h 4 z X T.i y ! E Q J l.l.F J F W ! t = K W F W J l.J H ~ r d x.6 E.# b oXXXA.g 9X8XN eX9X8X9Xt.s.y.o.",
"h.u.1.*XeXdXpX5XC.dX6Xz 4 4 4 7 # T.y y T G l.L G G G l.F E ! r t W E F W G G H J l.t x.n 1 T.$ S.L.oXoX8 pXjXB 4XpXaXeXy.p.d.s.",
"k.i.m ^.8XeX4X$XC.7XdXh h 4 z z # I.y e T E K H l.G F l.I I T r r E I U l.F G l.Q D W Y T 1 R.$ n.].`.XXz 9XwXm.$X5XwX1Xi.s.d.s.",
"a.p.9 V '.+XY.Z C.7XzX: z 5 z 5 . (.< y x.E ~ K v.l.! v.z.T T u d I I x.v.l.l.v.U ! T I c.1 E.# m..XJ.oX8 4XpXC V `.$XY.s.s.s.s.",
"' 9 m .X5XaX8X'.7 }.{.l h 7 h z $ Q.< s P ^ / !.;Xd n ;Xt r / f e l.z.W.;Xs d yXi r ! R R s G.# M m.].).g `.[.0 U.dXwX0Xj.j. ...",
"' a ~.-X5XdXpX8X4 |.U.z 5 7 z 7 X Q.1 s d ( (.xXf F A R W.* ! r e l.W.xXd c.A R W.i T c.A < (.$ M.A.].].4 '.Y.8 aXaX5X0XyX;.....",
"+.m /.eX5XwX6XwXh {.|.h 5 7 l : # R.1 s e T !.xXd c.c.x.Q.i R t f l.!.;Xs z.T x.!.& R x.R * |.. b.A.)..X8 .X_.g 8X5XaXaXrX-...%.",
"0.m &XeX8XaXiXwXh [.|.h z 7 5 - # T.1 y y Y d v.yXW.E.x.e e R P r d d W.;X(.E.W.s e T R c.q Q.$ z c A.L.z .X`.0 sX9XyX1XgXyX%.=.",
"] <.j.uX8X8XpX9X5 [.{.4 z 5 - - o Y.q s n z.f d * * f * s d T r d T / d e & e e f U z.d ^ 6 K.- 8 g b.b.z `.`.8 4XpXaX8X1X5X-.-.",
"{ <.&X9XfX9XaX4X0 }._.7 4 7 - 7 X  Xq s n l.U U l.f e f A f ~ r r G ! I U d d * l.F U c.^ y {.O N c m.c g L.].8 9XpX4XpXpXeXA.F.",
"] N ^.4X9XpX6X#Xh '.[.z - z : h + |.6 x A f U l.l.d d v.l.F ! t L ~ ! D ! D F W l.D F z.( 6 |.X B.m.M.l 8 '..X8 .X6XpXhX4XY.c c ",
"O.j N oX].XXZ 8 4 _.[.l   z g h @ T., u l.= G G l.F v.d G x.! r t ~ ) l.G v.J G J J l.d ~ : |.O m.m.B j 5 oX].4 7 S.L.`. XN.9 c ",
"w.A.`..X].`.`.N.4 _.}.4 z h : o : K.y y U f G F J J F F E ~ D L t ) ~ ~ Q E J J H H W x.P y Q.O 0 M.V.M 8 ].].4 n.].`.XX].`.M.M.",
"0.L.`.].].]..XL.h }.[.z ; - ; h X K.< d z.f v.l.G U l.T ~ ~ ) L S D E E ) H F F J = F x.P < {.O [.2 4 m.g .XJ.j ).oX`.).].`.H.H.",
"O..X.X).].].oX].8 {.J.g : g g h   x % b l.F l.f d G T I T Y D r D ) ~ ~ Y T U U = f U d ( % , O {.].[.c 5 .X.X5 .X].].)..X].XX.X",
"+.XX].L.].`.]._.4 }.#X5 g 4 : - O O   % & * * * & & & < & < * * % % : * % * & & & % * & < . O X z [.`.L.c L.oXg ].L.).].oX).XX.X",
"+.`.].L.].].}.].4 ).].5 5 - - + - C.C.Z.A n %X|.Q.Q.Q.Q.R.Q.Q.Q.W.R.T.R.R.R.R.Q.%XQ.Q.Q.|.|.B.m.o 4 g ].5 ).oX5 oX).].].oX).).].",
"+.].oX).].].[.).5 oXoX8 o - ; g g - o N Z.Z.Z.}.|.{.{.{.{.Y.T.T.T.Q. XXX'.[.[.[.Z.|.K.N.C.B.; g z o - 4 g oX].g ).].].).].].oXXX",
"+.).oX.X].].].B.+ ).].g - 5 g c 5 g g ; - C.C.Z.C.C.C.C.B.M.m.B V V B b.n.b.b.b.F.m.V.M.2 c b.B.n.m.n.o 5 $X_.o A.).XX].].}.A.oX",
"] B.).].].].`.b.o o o - )..XB.5 g z g b.C.C.C.x C.C.b.C.n.m.b.b.n.S.n.n.n.B.n.B.C.b.m.M.n.n.n.n.b.[.fXpXo o + o M ].oXoX].D.A.A.",
"X.3 #X_.|.[.Z.4 o V.`._.oX}.}.].#X6X7X|.{._.F.M b.C.b.C.C.b.B.b.n.m.M n.n.V.b.B M A.L.'.$X6XdXiX5XsXiXiX9XgX{.@ 0 F.H.@X).P.g 8 ",
"] o F.C m.C.N o 5 V.C.V.[.`.}.7X7XgXgXdXaXaXiXwXiXiXsXiX>X}.}.]..XY..X.X4XiXpXaX0XdXdX9X9XwXwX9XgX6XdXiXK.{.{.2 O b V F.n.B.X X ",
"X.4.@ X . . @ $X+X5 N m.N `.}.}.iXwX9XwXwX4X5X9XiX:XiXiXjXpXpX6X9X9XhX4XpX9X7XiXpXpXtXdXtXtXtXqX|.K.}.{.}.U.k /.^.@ @ . . # F.H.",
"o.0.w.*.;.4.6.~.+X+Xl c L.[._.[.@X{.{.+X|.'..X+X}.}.iXfX7X7XfXpXpX9X6X9XpXaX.X'.Y.U.U.{.'.{.'.'.{.#X|.{.k 7 E.^.P././.~././.XXXX",
"d.a. .{ {  .| =.;.9.4.8.8 c 0 9 5.,.~.P.P.T..XXX].A.}.].oX$X}.).).oX}.$X).$XJ.#X+X'.{. X XU.U.Y.3 x ; q D.8.~.~.~.~.~.~.~.~.~.~.",
"d.p.t. .o.y.t.| | &.[ [ =.:.:.:.%.%.#.p a 9 9 2 > v D.4.D.D.A.).].]._.$XL.J.b 5 0 5 7 0 0 0 0 z 6.6.j.8.5.7.8.a.o.3.;.[ X.X.+.O.",
"s.s.d.a.y.s.y.| | | [ { } { q.0.O.0.] 0.t.q.O.2.2.:.#.p p p a ` p #.p p a #.-.;.4.4.4.7.7.6.6.7.8.8.~.8.&.e.i.u.o.[ | | [ 0.[ ] ",
"h.d.s.p.p.s.y.| [ | [ { ' +.q.O.0.[ q.r.p.r.O.:.2.2.#.a p #.a #.#.p p p a p 2.2.2.4.4.7.7.6.7.7.8.8.6.8.r.i.=.{ {  .&.[ X.X.[ ] ",
"i.g.h.h.g.y.=.| | | ] [ 0.0.] 0.[ [ t.r.t.&.| +.+.q.+.+.0.0.X.] X.] X.[ O.[ | &.{ O.O.[ q.+.] 0.t.p.f.+.i.f.+.' { &.w.[ { [ [ [ ",
"` =.g.h.i.{ {  .[ w.[ { 0.[ ] 0.X.X.a.e.' ' { &.q.q.+.+.q.q.] X.X.] X.[ [ &.| &.0.0.O.O.] ] ] X.e.p.i.+.u.i.+.+.{ | [ w.X.[ O.O.",
"` @.%.=.=.} { | &.&.0.[ ] ] +.0.X.X.p.a.{ { O.+.+.+.+.q.0.X.] X.X.X.0.] O.| &.&.r.q.] 0.X.' X.+.+.+.*.+.+.+.&.=.| { w.r.r.[ [ [ ",
"` ` ` ` ` %.=.=.+.{ 0.w.q.0.q.X.X.X.a.p.t.w.O.+.+.+.q.+.' ] X.] X.] [ [ [ [ [ i.p.0.] 0.q.q.q.q.@.' } +.{ ` +.+.&.&.t.p.p.0.{ [ "
};
