/* XPM */
static char *d566b486ec304665c2e98835295a3d7fvqZfV05dysqqjS3h[] = {
/* columns rows colors chars-per-pixel */
"32 32 230 2 ",
"   c #583F4F",
".  c #3E4B66",
"X  c #5A545E",
"o  c #65565E",
"O  c #7D5F5C",
"+  c #44536E",
"@  c #4B556B",
"#  c #5A5A67",
"$  c #555C6D",
"%  c #415471",
"&  c #475B76",
"*  c #4B5B74",
"=  c #4B5E7A",
"-  c #525D74",
";  c #635A63",
":  c #685D65",
">  c #735D61",
",  c #5D606D",
"<  c #4C6076",
"1  c #4D627C",
"2  c #556276",
"3  c #5B6474",
"4  c #53657B",
"5  c #59657A",
"6  c #556A7F",
"7  c #5D6B7C",
"8  c #696067",
"9  c #64636C",
"0  c #6A656C",
"q  c #6E696D",
"w  c #766465",
"e  c #75676A",
"r  c #756C6D",
"t  c #7C6C6B",
"y  c #7D726F",
"u  c #626571",
"i  c #666B76",
"p  c #696A76",
"a  c #6B6C74",
"s  c #636D7C",
"d  c #756D73",
"f  c #697179",
"g  c #6B737D",
"h  c #747175",
"j  c #7C7373",
"k  c #73767C",
"l  c #79777C",
"z  c #79787A",
"x  c #7D7A7B",
"c  c #88655C",
"v  c #946354",
"b  c #966A57",
"n  c #926759",
"m  c #956D5D",
"M  c #996E5E",
"N  c #9E705C",
"B  c #A46C56",
"V  c #A3735C",
"C  c #AB795E",
"Z  c #8B6B64",
"A  c #856C68",
"S  c #936E62",
"D  c #8D7264",
"F  c #84736D",
"G  c #8E726D",
"H  c #997765",
"J  c #9C7A6A",
"K  c #857B75",
"L  c #897976",
"P  c #8C7D74",
"I  c #847C7C",
"U  c #917B74",
"Y  c #A37561",
"T  c #A87761",
"R  c #A57C64",
"E  c #AA7D62",
"W  c #A37E6A",
"Q  c #B07F60",
"!  c #9C826F",
"~  c #87817D",
"^  c #9C8776",
"/  c #948379",
"(  c #AB8166",
")  c #A5846C",
"_  c #AD856B",
"`  c #AF896F",
"'  c #B38264",
"]  c #B98764",
"[  c #B38A6C",
"{  c #BC8D6D",
"}  c #B9906F",
"|  c #A38472",
" . c #A98B75",
".. c #B58E71",
"X. c #A9937F",
"o. c #B39176",
"O. c #BC9272",
"+. c #B3957A",
"@. c #BA987B",
"#. c #BD9A7A",
"$. c #C3906E",
"%. c #C69674",
"&. c #C39976",
"*. c #C39E7D",
"=. c #C5A27F",
"-. c #CBA37C",
";. c #D3A87C",
":. c #4A6483",
">. c #4B6887",
",. c #546B83",
"<. c #5A6D83",
"1. c #526D89",
"2. c #5C7184",
"3. c #54728C",
"4. c #5B758A",
"5. c #597994",
"6. c #616F81",
"7. c #657483",
"8. c #6A7582",
"9. c #667986",
"0. c #6C7A86",
"q. c #607288",
"w. c #637A8B",
"e. c #6D7D8B",
"r. c #717A86",
"t. c #737C84",
"y. c #7B7D82",
"u. c #637D92",
"i. c #827E82",
"p. c #5D809C",
"a. c #6C808F",
"s. c #768087",
"d. c #7C8286",
"f. c #75838D",
"g. c #7A838A",
"h. c #7D898D",
"j. c #6C8494",
"k. c #68869A",
"l. c #738592",
"z. c #738A97",
"x. c #798A94",
"c. c #7A8C94",
"v. c #768D99",
"b. c #76909C",
"n. c #7E949D",
"m. c #7693A0",
"M. c #838687",
"N. c #8B8582",
"B. c #838B8E",
"V. c #8B8D8C",
"C. c #958B85",
"Z. c #948C86",
"A. c #988E8A",
"S. c #95928F",
"D. c #9D958A",
"F. c #838E93",
"G. c #898E91",
"H. c #859094",
"J. c #8B9393",
"K. c #8F9A97",
"L. c #83949A",
"P. c #8A9599",
"I. c #8D9A9B",
"U. c #939493",
"Y. c #9B9C96",
"T. c #949C9C",
"R. c #A28E82",
"E. c #A89587",
"W. c #AA9B8D",
"Q. c #B49C83",
"!. c #B99E87",
"~. c #A09B94",
"^. c #A19E98",
"/. c #95A09D",
"(. c #9CA29E",
"). c #AFA18D",
"_. c #BAA588",
"`. c #BBA48C",
"'. c #ABA499",
"]. c #B6A894",
"[. c #839BA1",
"{. c #8C9DA2",
"}. c #8DA2A3",
"|. c #85A2A8",
" X c #93A3A3",
".X c #9BA3A1",
"XX c #97A9A8",
"oX c #9DB0AB",
"OX c #A4ABA5",
"+X c #A8ACA4",
"@X c #A3AEAA",
"#X c #A4B2AC",
"$X c #ACB4AB",
"%X c #ABB4AC",
"&X c #B7B8AA",
"*X c #A7B8B4",
"=X c #ADBBB2",
"-X c #B2BCB2",
";X c #C29E81",
":X c #C4A482",
">X c #CBA683",
",X c #CCA983",
"<X c #C6AA8A",
"1X c #D4AD85",
"2X c #CBB18F",
"3X c #D5B18A",
"4X c #DBB68C",
"5X c #DAB98E",
"6X c #C3AE93",
"7X c #CEB593",
"8X c #C8B99D",
"9X c #D3B592",
"0X c #DBBB95",
"qX c #D6BF9E",
"wX c #E1B98E",
"eX c #CABBA1",
"rX c #BBC6B7",
"tX c #DBC19B",
"yX c #E4C395",
"uX c #E8C999",
"iX c #CDC3AC",
"pX c #D7C7A8",
"aX c #DECDAA",
"sX c #CCC9B4",
"dX c #E3CCA5",
"fX c #EACFA6",
"gX c #F0D6A7",
"hX c #E8DAB6",
"jX c #F3DEB2",
"kX c #F7E5B9",
/* pixels */
"7 @ @ 4 5 2 4 A R H 0 & * & . 5 s 6 7 3 3 $ ,.9 H m M 3 = < . $ ",
"+.k t.z 7X+.S.-XB.J.-Xs.# 3 K tXaX) <X@.X.<XK OXJ.h 2XaXP 3 h _.",
"] D i r O.[ V.I.c.c.[.2.e.s K 4X;.C } E C } j z.v.g #.*.D 2 p *.",
"> P i q `.| x I.s r.{.3 0.e.q / U w `.J t Z.u s J.t W.E.; 0.3 P ",
"f.e.g K 2X+.^.rXL..XrXK.g.y.d.T.e.h <Xo.f t.h K 2X .%XrXB.y.a M.",
"2 4 J ..<X_ i u.= s.x.s ) [ e ,.4 h >X` h ^ R [ *.D t.l.0 ( V &.",
"6X).K T.k x c.7 B.t.s t.y.l I iX_.:X>Xt K.V.z '.S.N.iX_.J [ b o.",
"_ o.x s g M.0.7 l.2 8.8.s 7 I +.Y &.O.o 7.6 - e.e.U ;XW J ) m H ",
"x aXpX+.hXdX| +X%Xg .XP.t.OXsXV.`.dX7XD.J.B.8.l pXhX#.A.%Xt.s g.",
"j yX0XE 1X1Xn c.n.% u.m.,.I.#X9._.uX-.M.j.4.,.a -.4XC g.b.2.7 ,.",
"/ ` G L A S | d.u l g 2 e.s 5 r.U S | x 9 - s x Z Z A - @ z 8 i ",
"jX@.Y.rXL.].kXyX_ 9X#.D.@X{.0.=XXX~ jXkX*.y.P.#XT.f.{. Xx ;Xo.:X",
"%.v 7 4.1 D ;.' v [ _ $ j.1.+ j.:.0 3X;.Y 2 4.2 8.% u.5.# ' R _ ",
"A !.).r J.x N.F '.'.r N.&XW.j 7.g V.A.N.q T.P.H.g y..Xe.# A.y W.",
"x 0XyX^ }. XL.f.@XXXq.`.jX1XF 0.I.L.I.h.8.L.P.oXz.H.XXz.6.XXx.P.",
"8 @.v   4.1.% + ,.= * S E Y r 2 - 2.<.4 + = ,.<.+ @ 1.:.* w.* & ",
"B.U.k j 8X`.Z.#XL.I sXqXW S.+Xd.U.#Xf.P eX6Xj k iXpX| U.$Xt.a X.",
"{.[.9.y -.#.d.[.k.K yXwXR c.|.w.z.XXa.! 3X-.j a 3XwXE J.XX7.s #.",
"7 - 3 x D S h g 3 j S n G 2 * 6.7 4 7 A c J d i c m G 7 2 p ; | ",
"I.g..X-Xf.].hX0XC.-XT.B.%XF.g.rX$Xd.OXJ.g (.I.=Xl.H.-XF.j 9X ..X",
"w.1 4.k.=  .>X{ j b.,.4 j.k.< L.w.+ e.w.4 7.7.n.:.4 j.p.8 O.n 7 ",
"$ N.~ 9 N.| c / i.3 V.Z.q s B.i k Z.q k S.Z.9 3 M.Z.j s i.t e K ",
"r tXuXO.fXdXD.oXL.N.jXfX[ (.=XF.7XkX5X9XkX4XK k dXjX&.Y.*Xe.j :X",
"y 3X{ M ,X%.; 4.>.X Q ' n 9.u.*  .;.T V ] V r 9 ( O.V g 3.q R =.",
"J.I A.'.I R.8X].t ].o.P U.h.3 T.~.y ^.Y.r !.6X/ a N.^.g.p ].| Q.",
"{.<.I.rXn.Q.gX4X( :XO.y.}.9.8.=X}.9.oX|.8.>X1XW <.l. X#Xx &.{ *.",
"2.* 8.7.= Z ( M m H J @ 2.4 2 e.* + :.1 3 ` Y O 3 * 2.,.; W c m ",
"x pXpXF $X(.g G.@Xd.T./.J.(.%Xg.G.OXt.'.hX9Xt XXh.J..Xg.@XT.h Q.",
"r =.&.t l.v.4 7.v.4 x.f.0.f.v.4.7.j.<. .5X$.y |.4 9.v.7 z.e.i ( ",
"l F F : B.f $ 8.2 0 # # X h # k x $ 7 e O G l 2 k y.u 3 0.5 , J ",
"XXa.9.x 7X#.V.#Xt.o.O.,X[ &.) tXyX^ {.{.e.g.x.h 0X0X| XXoXe.k <X",
"p.>.4 I 3XO.- 1.7.E B C N %...3X%.: 5.k.:.2.4 9 { %.c z.4.< g 9X"
};
