/* XPM */
static char *_ca6b60e415b499eb2ac8a7824187718lxjYqJlIXweHjZxw[] = {
/* columns rows colors chars-per-pixel */
"32 35 172 2 ",
"   c #0D510F",
".  c #105F17",
"X  c #0E780D",
"o  c #0C6216",
"O  c #0E641A",
"+  c #126A1F",
"@  c #196D20",
"#  c #22772C",
"$  c #207B30",
"%  c #2A7D36",
"&  c #1F8627",
"*  c #238F26",
"=  c #21812A",
"-  c #259A22",
";  c #299828",
":  c #258236",
">  c #268F32",
",  c #2B8C35",
"<  c #2C8E38",
"1  c #328D3D",
"2  c #249135",
"3  c #2B9436",
"4  c #2E9837",
"5  c #2D923A",
"6  c #30953C",
"7  c #319A3C",
"8  c #26A125",
"9  c #2DA529",
"0  c #2BA92E",
"q  c #32A92F",
"w  c #2EAC32",
"e  c #2EA03C",
"r  c #33AC32",
"t  c #39AE36",
"y  c #33A339",
"u  c #3BAC3D",
"i  c #2FB235",
"p  c #2FB538",
"a  c #32B335",
"s  c #3AB137",
"d  c #36B937",
"f  c #38B837",
"g  c #35B63A",
"h  c #3AB53A",
"j  c #36BA3C",
"k  c #3ABB3E",
"l  c #41BC3E",
"z  c #35C13E",
"x  c #3BC13F",
"c  c #338E43",
"v  c #369343",
"b  c #369B44",
"n  c #3C9C45",
"m  c #3A9E48",
"M  c #36A442",
"N  c #3BA744",
"B  c #36AB43",
"V  c #3BAC43",
"C  c #3EA24C",
"Z  c #3CAD49",
"A  c #3DB645",
"S  c #37BD41",
"D  c #3CBD42",
"F  c #3FB949",
"G  c #41A54F",
"H  c #44AC49",
"J  c #44B542",
"K  c #42BD43",
"L  c #48BF47",
"P  c #44B34D",
"I  c #48B74C",
"U  c #43BB4B",
"Y  c #4ABD4B",
"T  c #43A852",
"R  c #46B752",
"E  c #46BC51",
"W  c #4ABB56",
"Q  c #36C041",
"!  c #3DC144",
"~  c #3DC448",
"^  c #3FCC48",
"/  c #41C146",
"(  c #40C246",
")  c #41C347",
"_  c #40C347",
"`  c #42C247",
"'  c #43C346",
"]  c #41C045",
"[  c #44C145",
"{  c #45C345",
"}  c #44C147",
"|  c #47C347",
" . c #43C646",
".. c #44C747",
"X. c #42C244",
"o. c #49C145",
"O. c #43C348",
"+. c #46C348",
"@. c #40C548",
"#. c #42C448",
"$. c #43C549",
"%. c #47C748",
"&. c #44C64A",
"*. c #45C74B",
"=. c #46C64B",
"-. c #47C74C",
";. c #43C449",
":. c #4CC74A",
">. c #4BC44B",
",. c #45C948",
"<. c #44C84C",
"1. c #47C84D",
"2. c #47CA4E",
"3. c #48CB4B",
"4. c #49C84B",
"5. c #48C84D",
"6. c #4ACA4C",
"7. c #49C94E",
"8. c #48CA4E",
"9. c #49CB4F",
"0. c #4ACA4F",
"q. c #4CCA4C",
"w. c #4CCB4F",
"e. c #4ACB4D",
"r. c #50CC4E",
"t. c #52CB4D",
"y. c #4CC354",
"u. c #4BCB50",
"i. c #4ECD52",
"p. c #4FCF54",
"a. c #4DCD52",
"s. c #54CB53",
"d. c #52CF51",
"f. c #51CE54",
"g. c #53CD53",
"h. c #57C65B",
"j. c #4FD151",
"k. c #4FD252",
"l. c #4ED054",
"z. c #4ED054",
"x. c #50D055",
"c. c #52D056",
"v. c #50D256",
"b. c #54D254",
"n. c #55D556",
"m. c #56D55B",
"M. c #54D65A",
"N. c #56D65B",
"B. c #57D75C",
"V. c #57D559",
"C. c #59D55B",
"Z. c #5CD558",
"A. c #5BD45B",
"S. c #57D95D",
"D. c #5DDB5E",
"F. c #62DB5D",
"G. c #5ED760",
"H. c #5DDD62",
"J. c #5FDE62",
"K. c #5FDF64",
"L. c #5DDF61",
"P. c #60D460",
"I. c #60DA61",
"U. c #63DE61",
"Y. c #67DE66",
"T. c #63DC62",
"R. c #66E063",
"E. c #66E067",
"W. c #6AE265",
"Q. c #65E368",
"!. c #6AE26A",
"~. c #6BE16D",
/* pixels */
"D k k D k D k a O.k D k h } } h k ..k ! d K ] a ] D D ! D D k D ",
"D ] D g ] D 5.D D D D k k h q.=.a ..3.h D h k r.a ! D j D D =.#.",
"-.=.D k ] k B.D g D g ] D h =.j.j.d k ! a b.:.U.q.#.! k ! j 5.l.",
"H.5.D D D D 0 D k k u.k k D a d j.k d ! h d.R.Z.Q.x.D D D ! i w ",
"g a D u.D D D D ] -.] k k k ! ! j ! k k ] 8 o.r 0 j k 5.] D j D ",
"a D D g ] k D k D x.g k ] D k k ! j ! 5.h ..r s r k D j ! D D D ",
"O.k k ] -.k ] D k g g D D ] k k k D k D D K K K K D k ] #.D ! D ",
"g 5.5.p.g D g ] D g D D ] } D k D ! g D k k K l D D 5.5.k D j D ",
"D g g D D a.x.k k D D 5.L E.K x.j 1.=.k D D D D D j g D ! k D D ",
"D k D k g N.K.D k D k a.I.Y.!.C.D #.1.j D D D D D D D a a u.5.k ",
"5.] g D D D g D D D D a L - s.r D a a ! D D D D ] ] D D D k D D ",
"5.D g D D D D D D D D ] q t r s +.k D D D D D D #.] k D D D D D ",
"g ! ! D D g k j ! j ! D D K } k D D S S j ] D k ! a ! k j ! j j ",
"! ! a D g ! ] ! k ] ] D D D D D D D j ~ #.i k K D k k ! j k ] k ",
"D j =.k ] D ! S.k ] N.D D D D D D S ! g ~ 1.u.H.! ! j j D k ] D ",
"D k =.k ! g D a D D g D D D D D D D D j D a N.3.d i ,.k k f.h K ",
"5.l.a 5.a D D a #.j j ] D D D D D D j D #.g w a k k d n.N.G.A.u ",
"D k ! k ! D D =.k D ] D D D k D D S ! S D D D K d ! k h T.A.J ; ",
"j k D k D D D D k D k k D h a.1.j ! j D j ! D K k k k h r r u X ",
"D D g ] D D D D D D D D +.B.=.D D D j #.D D a.D k ] ] K r Y Y u ",
"D k #.g D k D D D D D D h 4.w k D S ~ #.D D D } k T.k } o.h >.>.",
"D D 5.D =.1.k D D D D D D w D #.j S ! j D #.s a.D.F.U.C.s.L A.L ",
"! g g l.a.u.j D D D D D =.k =.g ! Q j ~ j D D r >.r Z.h h >.r s ",
"! D j ! D D D D D D D D k D D k ! ! j S j j ] k r 9 q s h K K ] ",
"k O.k g a a ! p ~ Q Q S g +.D D D O.D ~ S D D K L K K D +.D D j ",
"D k k ] j ! D j ~ j Q j ! K a.K h s.-.D S D O.A D ] D D k #.D ! ",
"} K K h ] k H.D d ~ j ! j g >.f.K D D ! Q S D A k k ' k ! k ] n.",
"o.W.k t.l k a k k d ! k Q ! k D D.d j z j Q a 3.>.d 3.k ] d k d ",
"F.F.W.t.l l a ] k ..w.d j z g k k ! j j z Q d n.b.e.h ] a ..k f ",
"l 9 s.r l k ] k ] x.a k Q j ~ k D j k ^ Q z x k l k h k ] ] h k ",
"r r q K 0.h K k k K K k S ~ g D K k D ~ ! d k h h h %.} C.>.>.:.",
"U E y.y.A F A U U B F F D U A U U U A D D D K L K K s.T.I.~.P.>.",
"W P P M B Z R R P Z P R B Z P H H P V E F U Y V I u u I y h.P * ",
"b T 6 m b 5 C C b < 5 G 6 v n , 1 n 3 Z e B N 7 4 3 4 M > & 6 3 ",
"c : . O   % v c $ o + v 1 1 # o @ v , 7 2 3 5 , 6 6 > 5 5 b < = "
};
