/* XPM */
static char *cde1ca2638f84021c0b619afc59f15cazpHJyaLB26pGqk52[] = {
/* columns rows colors chars-per-pixel */
"64 64 157 2 ",
"   c #1F9B23",
".  c #239C25",
"X  c #289F27",
"o  c #2B9F2D",
"O  c #2B9330",
"+  c #2D9931",
"@  c #309A36",
"#  c #20A123",
"$  c #26A42A",
"%  c #2AA32C",
"&  c #2AAA2E",
"*  c #2CA531",
"=  c #2DAC32",
"-  c #31A633",
";  c #33AC34",
":  c #38AE36",
">  c #35A13A",
",  c #35AC3A",
"<  c #3AAD3B",
"1  c #2FB134",
"2  c #33B135",
"3  c #39B737",
"4  c #36BD37",
"5  c #3BBB36",
"6  c #35B53A",
"7  c #3AB53C",
"8  c #36BB3D",
"9  c #3ABC3E",
"0  c #41BD3C",
"q  c #36C037",
"w  c #37C03F",
"e  c #3BC13D",
"r  c #43C23E",
"t  c #4AC33F",
"y  c #3FAF43",
"u  c #3BB541",
"i  c #37BD41",
"p  c #3BBD42",
"a  c #3EBE49",
"s  c #42AC47",
"d  c #42B646",
"f  c #41BD43",
"g  c #4ABE47",
"h  c #46B348",
"j  c #48B54A",
"k  c #43BE49",
"l  c #36C141",
"z  c #3CC143",
"x  c #3EC24A",
"c  c #42C244",
"v  c #49C546",
"b  c #46C844",
"n  c #4CC945",
"m  c #44C449",
"M  c #4AC54A",
"N  c #46CB4E",
"B  c #45CA4D",
"V  c #46C94B",
"C  c #4AC84B",
"Z  c #48CA4C",
"A  c #49CB4D",
"S  c #4DC94F",
"D  c #4BCC4E",
"F  c #4ECD4C",
"G  c #4BCB4D",
"H  c #51C644",
"J  c #51CA47",
"K  c #53C74E",
"L  c #51CF4A",
"P  c #56C84F",
"I  c #54CD4E",
"U  c #53CD4D",
"Y  c #4DD14E",
"T  c #51D04F",
"R  c #54D24D",
"E  c #53D24E",
"W  c #59D14F",
"Q  c #46C550",
"!  c #4BC652",
"~  c #47CB51",
"^  c #47CD50",
"/  c #4DCB50",
"(  c #4DCA52",
")  c #4FCB53",
"_  c #4ACC50",
"`  c #4ECE53",
"'  c #4DCD52",
"]  c #4FCE59",
"[  c #53C555",
"{  c #55C851",
"}  c #50CE50",
"|  c #56CD55",
" . c #52CD53",
".. c #58CF54",
"X. c #55CD59",
"o. c #5CCE5B",
"O. c #4FD153",
"+. c #4DD154",
"@. c #4FD359",
"#. c #4FD359",
"$. c #51D254",
"%. c #53D557",
"&. c #54D557",
"*. c #53D255",
"=. c #5AD352",
"-. c #58D450",
";. c #5DD751",
":. c #5CD552",
">. c #5AD757",
",. c #5AD454",
"<. c #57DA56",
"1. c #5CD854",
"2. c #5CDA55",
"3. c #5BD956",
"4. c #55D159",
"5. c #55D45A",
"6. c #5BD55A",
"7. c #55D95F",
"8. c #57DA5A",
"9. c #5ED95A",
"0. c #5DDA5A",
"q. c #5FDD58",
"w. c #5ADC5E",
"e. c #5EDC5E",
"r. c #5CDB5D",
"t. c #60D656",
"y. c #62D957",
"u. c #62DB57",
"i. c #60D65C",
"p. c #62D65C",
"a. c #62D95B",
"s. c #62DB5A",
"d. c #65D95B",
"f. c #67DE5C",
"g. c #66DD5F",
"h. c #63DC5C",
"j. c #69DD5E",
"k. c #68DF5E",
"l. c #66E05A",
"z. c #5CD762",
"x. c #5BD860",
"c. c #5EDA62",
"v. c #5EDF61",
"b. c #5DDD62",
"n. c #61CE63",
"m. c #65D660",
"M. c #63D663",
"N. c #64DD63",
"B. c #69DC65",
"V. c #6ADF65",
"C. c #6BDC6A",
"Z. c #64E567",
"A. c #64E164",
"S. c #6DE067",
"D. c #6AE162",
"F. c #66E76A",
"G. c #6BE169",
/* pixels */
"8 p p 9 9 z p 9 3 p z c z p 9 9 z i i z z i i i 9 p p m x.4.k 6 u c i c 7.@.i i i i z 9 8 i p 3 9 r 9 9 0 5 9 9 m k p p a a a p ",
"9 9 p 9 p p p 9 9 p p c V c 9 9 i i z z 8 8 i i 9 p a p k C ) m p a 9 p _ B i i z 9 9 9 9 9 9 m v r 5 9 0 9 9 5 f f f p p i i i ",
"c p 9 p p 9 9 p p 9 9 C %.V 9 9 8 8 z i 8 8 z i p z a 6 = k 4.M f c 9 9 p z e e e 5 5 e b e 9 L 3.n 0 0 r c 0 5 8 9 c z 9 9 9 p ",
"&.V 9 9 9 9 9 p 9 9 9 O.w.C 9 z i 8 i i 8 z z 8 i 9 p 9 7 ) c.C c D v 9 8 5 e 9 5 3 5 r L n 0 n l.:.n 0 n R c 9 5 5 9 e 9 9 9 z ",
"Z.$.z 9 9 9 9 9 9 p z V C c 9 c z 8 8 i i z z 8 9 9 9 p c m ) c M 0.U 9 8 9 9 9 5 5 5 c =.3.J J y.g.:.n =.h.v 0 9 5 5 9 9 9 9 z ",
"v.$.c 9 9 c p 9 9 c p 2 1 8 9 9 z i i i i i i i p z p p p 2 = 2 C r.} 9 9 9 9 9 9 0 0 f U a.g.d.d.k.a.=.0.>.m 9 z z 9 9 9 9 9 9 ",
"z c p 9 c D V 9 9 p 9 2 & 3 p 8 i i i x B c 9 p 9 z i i p 2 = 6 c ' V p p 9 c f p f f f f M V.S.m.P { p.| f 9 9 p B ~ z 8 i a p ",
"# = 3 9 V &.' 9 9 3 9 p 9 p z 8 9 i i B %._ 9 9 9 p 8 i c p 9 p p z p a p p c k p k d f * & X.M.o., < o.k % 2 i a @.7.m i a k p ",
"6 2 9 9 p c c m 9 9 9 9 p 9 9 9 i z ' m 6 9 p a p i i p p p i 9 p i p p a a p a p u p p u 6 , , , o o - , 7 p p a x x x a p a k ",
"f f f 9 6 9 c c 9 8 9 9 p 9 9 9 p B w.V & 2 p a i i p i p p p p i p i i p i i m m p p a k u ; % % % * * ; p k p 8 i p p p p a p ",
"8 9 f c p 9 9 6 p 9 9 9 p p 9 p 9 V v.$.6 9 k 9 9 9 9 9 9 9 9 p 8 z 8 4 z 8 i ^ %.B p 8 p a p p u 7 7 7 7 p f 9 3 9 i i i p i 8 ",
"p 9 9 c p 9 m D c z 9 9 p p p z i 8 a p 9 p p p 9 p p 9 9 9 9 9 8 z 8 8 z 8 8 V N x 8 8 i p p a k f f f f 9 9 9 9 9 c V V z 3 9 ",
"c 9 8 9 9 f D *.c z p 9 9 9 p p p 2 & = 9 f 9 f p p 9 9 9 9 9 z e e e e 4 4 w w e 8 8 i 9 8 8 9 9 9 f f 9 f e 9 9 9 C D F c 8 z ",
"9 9 9 9 c *.M ; 9 9 9 9 9 9 9 9 9 p 6 6 k c 9 9 9 9 9 9 9 9 p 9 e 4 e e 4 w l w z e 8 8 9 9 9 i p p p c f 9 9 9 9 F E 5 2 e e 5 ",
"f c C f C e.V % 3 9 9 p 9 9 9 9 p f p p 9 p f 9 9 9 V V 9 9 9 9 9 4 8 8 8 w l w w 8 i l z i i i p 8 p p p 9 c F r &.3.2 $ 9 z 5 ",
"9 C r.M c >.C 9 9 9 p p 9 9 p c f 7 p c 9 9 c 9 9 c $.&.c 9 0 8 5 9 5 e e 8 4 w w z z i 8 8 i z i p i 6 9 m $.*.c D >.M 3 9 9 z ",
"9 9 9 9 9 9 p a p c D $.D z p z p p 9 p 9 9 c C v 0 *.h.R t 0 L F 9 8 9 n Y e 8 8 e z z z 8 9 i 8 p p p p 9 p p 9 9 8 f p 6 9 z ",
"f = & 2 6 = = p 9 V w.A.&.c 9 p p p 9 9 f f v >.*.c 1.g.t.W H :.=.r 5 c 3.&.5 9 3 9 z z z i 9 i p i p a p 7 ; = 7 = % 7 p 8 z V ",
"c 6 2 9 9 6 6 9 9 B v.Z.w.V 8 9 p c 9 8 9 9 c r.N.*.9.N.N.h.p.h.=.c 3 c 0.8.9 9 8 9 i i i 9 i i 9 9 p p p 9 7 7 p 7 2 p z 9 C 8.",
"9 c c p p c z 9 9 c D %.O.c 9 8 9 z p 9 f 9 9 m *.A.{ { a.V.V.K f f 9 9 c V 9 9 i i i 8 9 p i a p 9 9 p p p p k 9 c c z 9 9 D <.",
"6 p a p 8 9 p p i 8 9 z z z 9 8 9 9 p c c c 9 & 7 6.7 : | N.m.< - 7 c 7 = ; 9 z i i p a a a a z p 9 9 p z 9 9 9 6 9 p 9 3 z c z ",
"9 p p p p p p z 9 8 3 8 9 8 9 9 9 8 c c 9 p p = ; 7 % . < d 7 7 7 7 k p ; 2 p a i i p a a a p p 6 9 V D V p 9 c 9 9 p p z z 9 8 ",
"9 p p p z i i i 9 8 8 9 9 9 9 i 9 9 z 9 6 8 f p , % $ X % % o u d p u a p p p i i i i i i i 8 6 9 c ' $.C i 9 p z i z z i i 8 9 ",
"k p p p 9 6 8 m z 9 8 9 9 9 z p p 9 9 9 p p p p p 6 7 7 6 7 u 7 u a p a a i p i p i i i p p p p i 9 p m m p 9 9 p 9 i 3 3 i 9 i ",
"p p p p 9 9 i z z 9 z 8 8 z z 9 9 p 9 9 z z 9 9 p f f f f f f p p p z z i i i i z 8 i i z z i z i i i p p p i i p i 8 8 i i i i ",
"p p p p p p i i z 8 8 8 i i 9 9 9 9 9 9 9 p p 9 9 p p 9 9 0 0 9 p i i i 9 i i i z i i i 8 8 z i i i p i p i i i p i p p i i i z ",
"p p p 9 p p i i z z 9 9 p i 9 9 p 9 p p 9 9 p 9 9 9 9 9 9 9 9 9 p 8 8 8 8 9 z e w z 8 z 8 9 c 9 6 p a p p a a p p p p z a p p p ",
"f p p p i i i i 9 z z 9 9 c z 9 p 9 9 c m z 9 p 9 9 9 9 9 9 9 9 i 8 8 8 8 9 z e 8 z z i 9 9 p c c c k p p i p i p i i p a i i p ",
"k p 9 p z i 8 9 8 8 9 8 p $.$.9 9 9 9 C &.C 3 p 9 9 9 9 9 9 9 9 9 8 i z 9 8 9 9 i z z 9 p p 6 C &.M 9 p c p i a a i 9 i i 9 9 p ",
"f 9 7 9 p p i z 9 8 8 8 c w.w.c 8 9 f } v.' 9 z 9 8 8 i i i i i 9 9 z z z 8 8 9 z 9 i p ' ' 9 C N.>.S f p p p p 9 i i 9 9 9 9 9 ",
"p f k p 9 i z z 9 8 8 9 c D D c 9 f c M D V z z i i i i i i i p i 8 z z i 8 8 i p 6 p k )  .C | A.e.} 9 7 9 9 8 9 9 9 9 p m c 5 ",
"7 C 4.C p 9 9 i 8 z i 8 i 6 2 p c 9 p 8 2 6 z i z i i i i i p z i 8 i z i 8 9 i p 9 k p 7 p { N.a.v 2 7 9 p p z 9 9 9 9 v E n 5 ",
"m ) ) c i i i i i 8 i z 6 & = 9 k f 7 2 = 2 i z z i z i i i p z i i 8 i i i i p k 9 f p & ; M { M : & 7 c p 3 z z z b e n q.R r ",
"N.c = = p z z x i p a i p p p p 7 p a p p i i i i i z z z i 8 i i i 8 i i i i p p p f f p 2 % . & : 9 p p p 9 3 e Y <.b r 3.s.u.",
"F.C = 2 p m z 8 8 z z i i z z 9 p p a a z z p i i i z z p 9 6 i z i 8 i i i i i p z p p k 9 ; ; & 7 f p 9 p 9 8 5 D e.R U s.k.s.",
"$.' c 9 9 z z 8 8 i i i i i i p c a p i i p z z z z i 9 i 9 9 p i i i i i i i i i 9 p p p p k f f 9 9 9 9 9 9 9 c m &.N.D.D.p.t.",
"= 6 i p p p i 8 i i i z i 9 9 p p i i i i i i z i 9 9 p p f f 9 i i p p i i i p i 8 9 i p p p 9 9 p c 9 9 p f f 9 ; 6 ..G.p.g 7 ",
"$ = 9 z z i 8 8 i z i i i p p 9 i i p p i i i i i 9 9 9 9 V C f 9 i p i 9 9 i p 9 p 9 8 p p 9 9 9 p z 9 9 p f p f : ; d [ M < - ",
"9 p z 9 3 9 p p 9 i i 9 9 z i 9 i i 9 i 9 9 9 p p 9 f f 9 C 9.M 9 p p p 9 p p p 8 i z i p p 9 i z i p p p p p d d d u ; o o , d ",
"z p 9 9 9 9 9 9 9 9 i z 9 8 9 i i i 9 z z i 9 9 9 p M C f } N.M p p p p i p p p z 8 i z 9 m $.D i p a a d p u p d k d , * = u p ",
"9 9 z 9 9 z 9 9 9 9 p 9 z i i 9 e e e e i 9 9 9 9 c &.>.c M *.f p p p p p i i m x i z i 8 m +.%.a p a a m c 7 f f f f f p 6 i z ",
"9 3 9 9 9 9 9 9 p z z 9 9 8 9 z e 9 e e 9 9 9 9 8 c >.w.c 2 2 7 p p p p i 8 i V +.x i i 8 i c p p p p 9 C >.M 7 0 f f 8 8 z z w ",
"9 p 9 9 9 9 p 9 8 p z 9 9 9 9 z i i 9 9 9 9 i i 9 p z m c = & 9 a 9 i z p 8 z B +.z 9 p i i 9 6 z V c f U a.U t r r n e 4 e e e ",
"p z p c c 9 9 9 9 c z 9 z 9 9 9 9 9 e 8 9 9 i i p 9 & & p p 7 k z 8 9 z z i z z z i 9 i p p p 9 9 } *.M U a.s.W t n R r q e q e ",
"c 9 p ' ' f 9 p $.` p 9 i p p i w w 8 i 9 9 9 9 i i 2 1 9 p p p i 8 8 i i i i 8 8 8 i 9 9 p c f f >.a.=.=.g.D.y.W 3.h.n r Y b 4 ",
"c 9 p c C C c c r.6.p 6 9 p p i 9 e i 8 9 9 9 9 i i i i 9 9 i i i i z i 8 8 i i i z p 9 9 a k p c v =.N.9...a.k.D.1.U 0 m %.C 9 ",
"p 9 p = 9 *.C f &.w.a 9 i i i i 9 e e e 9 9 i i i 8 i z i 8 i i i z z i i 8 8 i i p p 9 p k f f 7 - f 6.M 7 K N.9.g : 2 k m k a ",
"p 9 p & 9 v.$.k $.r.m p 9 9 i z i i i e e 9 i p p i i i i i 8 i i i 8 i x z 8 i i i i p p p 9 f p = : k - X 7 g f 6 - 7 d d k p ",
"p c a p m 4.} p U $.M z 9 8 z 9 i i i i i p i i p p a z a i i i z 8 8 i z i i i i 8 i i i 9 9 p f k 6 %   . % % % ; 7 d p p d p ",
"a a k p 7 7 7 7 2 7 9 9 9 9 p 9 i i i i i i p i k p p p p p a i 9 i i i i i 8 8 i i i z i i i p c p p 2 2 6 6 ; 6 9 f f 9 9 p a ",
"i i p p 6 = ; p & & 7 f p p p i i i i 9 9 9 9 9 p p c a p p p p i z z i i i i i i i i z z i i i p 9 9 p a k a p k p 9 9 9 p a a ",
"i 9 9 9 9 7 9 k 7 6 k k p p i i i i 9 9 9 9 p 9 p p p p p 9 9 p p z i 9 i z i 9 i i i z z i i 9 9 9 i p a p p p k p 9 9 p i a p ",
"9 9 9 9 9 9 9 9 k 9 k p p p p p i 8 8 8 z e z 9 9 p 9 c  .C 9 7 p p 9 p C V i 8 9 9 8 e 8 w e e 9 9 9 i i 9 i z p 9 9 p p i i i ",
"4 5 9 e 8 8 9 f f p p k a a p a z z 8 8 e e z 9 9 p p V } } c 9 9 p 9 c $.' z 9 z 9 9 8 w z z e 9 9 9 i p i i p 9 9 9 9 i i i i ",
"5 e e 9 5 8 9 c p p p C ] m a a p i 9 9 8 e z z i i p 6 2 c } C 8 z 9 9 V m 9 9 i 9 8 8 8 z z 9 8 5 9 9 p p 9 9 9 9 9 9 9 i p i ",
"b b e 3 5 e 9 3 9 9 9  .b.Q p a p z z 9 8 8 e z i 8 a 6 & c r.C c C c 6 9 z p c 9 9 8 8 8 l l 8 8 5 9 p p 9 9 9 9 9 e 9 z z i i ",
"q.E 9 5 5 5 r 9 0 8 9 $.x.~ p a i 3 z x 3 3 z 8 i p p 9 k  .*.C m 8.C 9 p 9 9 z p 9 z z 8 8 z z 9 z p 9 f p 9 9 c 9 p 9 9 z 8 i ",
"A.3.n 9 r F n 9 9 9 9 9 9 p a a p z c z 9 9 i i a a p a k p 9 7 C e.$.9 9 9 9 9 9 9 p z 8 8 w 8 9 C C f 7 p ) D f 9 9 9 p z 8 i ",
"h.N.h.U U 3.F 0 9 0 p 2 $ 2 z i p a i i c z i z p p p a a 2 = 2 V %.D 9 8 9 f 9 9 9 9 9 i z l 3 p *.4.m p M  .) 0 8 9 9 p z 9 9 ",
"N.N.N.9.9.h.U 0 0 9 9 6 2 9 z p p p p C $.C i p i a p p a 6 2 8 z c c 9 9 9 f c 9 p 9 9 i z z i p *.*.m !  .k 6 9 9 f 9 9 9 9 9 ",
"[ o.M.C.p.S v f 0 9 9 9 z p i p p 9 V D V c p p p c p p a a i i e 8 9 9 9 9 9 f 9 p p p i i i i c 4.4.k X.z.u = 7 0 f 9 8 9 9 9 ",
"+ j n.C.[ : : 0 0 c 9 8 p 9 8 i 9 z $.m & = 9 p a a p p z i 8 9 9 8 e 9 9 z 9 f f 9 p p i 8 8 8 m 5.4.p ! 5.k k 7 0 0 f 9 8 p p ",
"O > s h y , 7 f f f f 9 9 9 i z 3 c 8.Y 3 7 9 9 p p p a p 8 8 9 8 8 e 8 9 p 9 M C f 9 p i 8 8 i p k p u u p k m 9 9 f D C 9 9 9 ",
"O O @ + > d d d u 9 f m p p z 9 z e *.&.n m 9 9 u p a i 8 8 9 9 e 4 9 9 p 9 9 } r.c 9 p p i z z 6 = * p 6 $ u p f 9 c r.8.c 3 3 "
};
