/* XPM */
static char *_b55929d21b245e9e26453453a92a19eqeG8QgKhpgRBDIoH[] = {
/* columns rows colors chars-per-pixel */
"66 64 242 2 ",
"   c None",
".  c #0F1E39",
"X  c #19253C",
"o  c #1A3A3C",
"O  c #0E213A",
"+  c #232A3E",
"@  c #33363D",
"#  c #1C453C",
"$  c #1A5D3D",
"%  c #274D3B",
"&  c #326B3D",
"*  c #61433B",
"=  c #4C6F3C",
"-  c #67613E",
";  c #1D3349",
":  c #183A55",
">  c #112E48",
",  c #252D42",
"<  c #273647",
"1  c #363949",
"2  c #263C54",
"3  c #373B50",
"4  c #433B46",
"5  c #174159",
"6  c #2A4A48",
"7  c #355848",
"8  c #284559",
"9  c #394758",
"0  c #33514D",
"q  c #36674C",
"w  c #194665",
"e  c #264C66",
"r  c #285269",
"t  c #385669",
"y  c #285775",
"u  c #375C75",
"i  c #314C65",
"p  c #396379",
"a  c #2E617B",
"s  c #49424C",
"d  c #444A54",
"f  c #474956",
"g  c #564C57",
"h  c #48575A",
"j  c #54525D",
"k  c #5B535B",
"l  c #595859",
"z  c #57514B",
"x  c #675959",
"c  c #745E55",
"v  c #6F554A",
"b  c #576A59",
"n  c #4B6A4F",
"m  c #7A6359",
"M  c #726E5B",
"N  c #445B6C",
"B  c #4C5C6B",
"V  c #485664",
"C  c #5C5B63",
"Z  c #565865",
"A  c #455E73",
"S  c #434F63",
"D  c #635C65",
"F  c #685D66",
"G  c #7B5F61",
"H  c #49636B",
"J  c #59656B",
"K  c #4C6A7D",
"L  c #496575",
"P  c #576875",
"I  c #5B737B",
"U  c #58706E",
"Y  c #65636B",
"T  c #6B656D",
"R  c #6D6B6E",
"E  c #686566",
"W  c #746B6C",
"Q  c #776767",
"!  c #78736B",
"~  c #6B6C74",
"^  c #636975",
"/  c #746C72",
"(  c #786B74",
")  c #65747C",
"_  c #697678",
"`  c #7B7375",
"'  c #7B757A",
"]  c #777878",
"[  c #687965",
"{  c #866A5B",
"}  c #917159",
"|  c #876C66",
" . c #897569",
".. c #987A6A",
"X. c #8B7C75",
"o. c #837C7B",
"O. c #867778",
"+. c #927D7A",
"@. c #957D74",
"#. c #866F6E",
"$. c #956E5F",
"%. c #738A50",
"&. c #7B847B",
"*. c #718C71",
"=. c #88827A",
"-. c #93847B",
";. c #998678",
":. c #988971",
">. c #A3856C",
",. c #A48776",
"<. c #AA947A",
"1. c #B5937B",
"2. c #BFA279",
"3. c #98AD72",
"4. c #366785",
"5. c #357093",
"6. c #436D86",
"7. c #497489",
"8. c #577788",
"9. c #4D7A94",
"0. c #567C93",
"q. c #576B83",
"w. c #687885",
"e. c #787B85",
"r. c #6B798D",
"t. c #887D81",
"y. c #5A8498",
"u. c #528293",
"i. c #67828C",
"p. c #788389",
"a. c #638A9C",
"s. c #6A8997",
"d. c #768B96",
"f. c #79939C",
"g. c #6C9297",
"h. c #5A8AA4",
"j. c #5B91AB",
"k. c #638DA2",
"l. c #6B8EA3",
"z. c #6A94A8",
"x. c #739CAC",
"c. c #7898A5",
"v. c #689AB3",
"b. c #749DB2",
"n. c #7AA6B9",
"m. c #70A3B6",
"M. c #7DB1C7",
"N. c #858384",
"B. c #8A8887",
"V. c #938483",
"C. c #948B84",
"Z. c #998B84",
"A. c #948C8A",
"S. c #9B8D8A",
"D. c #978586",
"F. c #99948A",
"G. c #878B93",
"H. c #899598",
"J. c #969796",
"K. c #908F90",
"L. c #A28E86",
"P. c #A7968A",
"I. c #B99985",
"U. c #A79995",
"Y. c #B39D97",
"T. c #98A19A",
"R. c #B9A38C",
"E. c #A8A398",
"W. c #B8A798",
"Q. c #B0AA91",
"!. c #869BA5",
"~. c #899BAC",
"^. c #88A3AB",
"/. c #98A6A9",
"(. c #88A8B5",
"). c #96ACB4",
"_. c #99B2BB",
"`. c #89B1BC",
"'. c #A9AAA7",
"]. c #B8ACA5",
"[. c #B9B4AA",
"{. c #A7B5B9",
"}. c #BABBB8",
"|. c #AAB1AD",
" X c #B59FA2",
".X c #C8A98B",
"XX c #C4AB97",
"oX c #C9B59A",
"OX c #D3B497",
"+X c #D3B48E",
"@X c #C8B7A7",
"#X c #D2BEAA",
"$X c #C5BDB4",
"%X c #D2BEB2",
"&X c #C4AEA3",
"*X c #C19F80",
"=X c #BAC1BB",
"-X c #D7C5AD",
";X c #C9C4B9",
":X c #D4C4B4",
">X c #D7CAB9",
",X c #D8CFB6",
"<X c #E4D2BC",
"1X c #E7D3BA",
"2X c #E1C7A9",
"3X c #98B7C4",
"4X c #89B2C3",
"5X c #A4BCC5",
"6X c #A8BCC6",
"7X c #B3BDC4",
"8X c #9DC2D2",
"9X c #A7C2CA",
"0X c #B6C6CC",
"qX c #A9C7D3",
"wX c #B8CDD4",
"eX c #BBD2D9",
"rX c #C8CBC7",
"tX c #D5CCC4",
"yX c #DAD3C8",
"uX c #C4D5DC",
"iX c #C9D6DA",
"pX c #D8DAD7",
"aX c #C2CFD4",
"sX c #E4D4C3",
"dX c #E4DACD",
"fX c #E9DAC8",
"gX c #E3DDD4",
"hX c #E2CFC2",
"jX c #EDE1CD",
"kX c #E4E2DB",
"lX c #ECE4D9",
"zX c #F3E9D8",
"xX c #F2E6CD",
"cX c #CDDCE2",
"vX c #C6D9E0",
"bX c #D3DEE2",
"nX c #D5E2E6",
"mX c #DAE6E9",
"MX c #DAE4E7",
"NX c #F3EEE3",
"BX c #F7F3E9",
"VX c #F2F1EA",
/* pixels */
"                                                                                                                                    ",
"                                                                                                                                    ",
"                                                            /.7X_.s.                                                                ",
"                                                          rXnXnXqXM.m.                                                              ",
"                                                  -.} Q  .}.iXcX3XM.3XV.#.v Q                                                       ",
"                        * v                       ;XdXd.4XwX_.eX8Xz.wXbX{.U.H.                      m *                             ",
"                      _ X.H.                    |.pXkXg.j.9.u d.c.u (.cX0X/.b.l.                    sX-.                            ",
"                  {.9X9X).z.9.              wX;XW.{.5X!.y.5 8 8.g.u y.9X)._.0XA.r.v.              7XpX|.b.6X).                      ",
"                6XcXnXiX0XqX4Xj.    *   J.0XcXMXpXH.5.7.6.: 8 f.!.N 7.c.d.5X'.^.4XeX0Xp.  *     0XiXcXiXcXMXcX3X                    ",
"            p.0X(.9XuXiXmXmXvX8X).] l z ! 7XiX6X_.8.: : i R ;.;.;.P.'.d.8.v.^._.qXnXrXL.m X.V.{.eXvXMXMXcXeX4X`.5XA                 ",
"            c.d.A 5XwXwXmXnXeX0XG.m Q K.!.~.a.u u e 2 Z ( W.W.E Y ].fXW.K.s.0.i.^.9X0XyXsXW. .W !.3XcXMXeXwX(.t f.N                 ",
"            (.d.t /.s.).uXuXaXB.{ A.!.x.y.6.u > 8 J S.X.h %.R 9 t e.&X;.W.<XJ.i.u.H.|.rXpXlX>X>.m c.qXwXz.b.9Xt K y                 ",
"            0X).0.p.u !.9Xc.{.].|.x.v.v.h.d v g h ] ].R o # < 8 9 8 N ^ E.NXoX:.! { c |.bXpXkXNXW.t 6.9Xg.2 r.t 4.4.:               ",
"          w.B.) ).{.y.f.) 8.).}._.3X8XqXH.#.J.8.q q f O O d W V.Z.X.] N L H.%.= J.yX1.N.qXcXnXiX}.N : K p.: 8.y e r.2               ",
"          i.J H T.H.x.3Xs.g./.|._.eXnXnX}.^.m.n.c.i O + k / +.R D ;.R.W.J t H /.iXbXpXf.m.qXqXh.c.I i i 8.w 5.4.2 w., <             ",
"          [.E.d.w.H c.iXc.).!.d.c.wX5XiXaX0XvXcXuX5Xx v z = b h h - %.F...m |.pXnXnXiX5Xn.k.n.9.6.8.N r 5.w N e.; ; X 9             ",
"          [.XX#XT.I f.G.8./.s.8.c.^.y.wX0XnXmXnXcX'. .J.) & $ 6 = = n d.gXXX=.9XeXnXuX5Xm.y 8.s.u u N e 9.A d S . 1 F               ",
"        S I G.yX,X].T.P i.^.{.`.c.I 8.^.f.wXiXiXnX{./.b.n.c.t o % q ^.iXMXkXH.v.M.5X4Xp 0.K t 0.y 4.N 9 ~ Z . , j W D.9             ",
"        ^ L t H.E.}.sXU./.H.[.f.(.^.s.s.g.7Xc.0XiXuXaXuXnXnX0XR E 0XnXmXMXnX9Xm.y.u ^.K t p r y r d.B V < > 1 W S.' C ,             ",
"          ;.] L u /.:X].<X_ _ L ).0X^.c.c.) w.aX).wXcXMXMXnXuXL.-.3XcXMXMXuX4Xz.n.u 8.8.w r 4.7.8 ~ 2 d , C O.o.K.3 X 3             ",
"          -.;.;._ H I '.>XJ t t H.p.k.5X5Xd.s.K.6._.aX0XbXbXeXrX/.j.3XuX3X`.4.r d.t u 7.y 5 t G.; ; X k O.O.B.n < , g k             ",
"        B H J 1.>.=.P H K.@.] i L H a.[.{.b.(.~ 6.).{.i.5XuXaXaXwX3X(.9.u !.w.: B r w 4.s.w e N . 1 k ' U.b 7 % d x E 3             ",
"          -._ ].N.A.>.] o.;.oXQ.) 8 7.p.I l.wX).x.c.w.7._.wX`.!./.s.y.y : B K w a 5.w i K.: O < C T T ^ Z o 6 k Q C , 1             ",
"          <.>.-X_ p.;.X.,.M F.<XW.e.L u u c.}.f.`._.s.a.c.!.l.N J 7.0.K : u p w r d.e : i X s W P.Y 7 9 , f Y F +.j f k             ",
"        < N.F.fXW.N.P =...b 0 e.&.Z.W.w.i K p.L b.aX(.(.g.w.u.8 9 p p u w y u.w : w.2 . 9 F O.~ ~ < o f T ' ~ , O.o.#.f             ",
"        d t P <XQ.E.A.~ *X| T A i p.sX1.C.L t i c.'.8.(.0X).^.K.K.w.y 5.y w G.t > : , j E =.` 7 ; s 9 x o.9 f f P.o.d +             ",
"           ._ #XB.|..XP.+X....@.~ t p. .OXXX] i p 8.K f.}.s.H.R..X_ r g.I : B 6 o 9 ( O.H q o < k x j O.W 1 ( ( Y.f < d             ",
"        l <.>.-Xe.e.C.Q.+XI.<X.X,.o.H n T.-X>.L.U t n n w.K i.U d.w.w s.K > ; 9 C E =.[ 7 # d T O.D.+.+.V.` D.V V./ x Z             ",
"        8 ) ;.1XR.V.P p.+XI.xX#X=.=.I.` t I M +X.Xo.n 6 t u 6.p k.8.: u : X j ( o.U 7 # 6 x ( I ' Y.V.+.L.w.Z , V.+.( 3             ",
"        E J N -XQ.E.U.] .XI.jXoXP e.1X,.-.J = *.<.Z.I.R t 8 8 8 t i > ; 3 W ` ] [ 7 6 f F P.t.; j P.V.-.` ; k T Y.( , <             ",
"          m ] @Xp.|.oXI.+XR.zX-XZ.p.>X! R.I.! n 7 &.-XI.-.-.@.X.+.-.#.W W -.U 0 # 9 F #.^ J.o.s O.Y.Z.-.#.l t.) U.j 1 f             ",
"          m { I.~ w.C.W.OXI.zX-XS.U.W.b Q.:XX.;.b q p.p.J.1X-XJ.^.:XW.` b n # < g / K.A.8 J t.~ U. XD.+.L.p.e.< E Q s               ",
"          [.N.X.{ o.H ) .XI.jXoX_ B.-X;.W.}._ XXI.! B t &.-X3.*.3X;X:.b & # d T O.w.p.A.h ` B.L / U.V.+.C.S d 3 C D D               ",
"          [.e.J } { | ! .XI.jXOX^ ) dXC.oXP.H |.@XV.,.R 7 7 % < A H % o 1 k R G.S.6 h t.w.U.t.; F P.V.+.E , g g Z 9 ~ i             ",
"      W.W.$XP.=.G.' $....XI.jX-XP.F.=XU @XOX=.].H.d.-X,.O.W W W ] ` Y C Y ;.e.K B.V ' A.P _ =.C D.Y.V.+.@.g k Z V < ` p e           ",
"    @X<XkX;XE -.K.P F.X.1.<.1X-XB.Z.W.J E.>XN.XXN.P yXJ.=...;.W ' ,.m ^ w.W.d 3 ' p./.C., C O.w.A.U.` #.Q k Z 2 ( E o.y.7.r         ",
"    #XkXBX;XH 9 -.Z.K._ =._ oX2.P p.sXP.@X'.q.;X.X-.:XI d.I.;.L w.Y.#.~ 6 -./ ' S.I P S.Y S.B.i Z O.T 4 D S Z f | >.o.a.a.p 8       ",
"  E.:XyXkXjXN. ./ 9 ] -.-.H U ,.=.^ tXN.XXP.H |.[.K.OX=.U sX$X9 t [.W.d 9 #.t.H.P.1 Z O.r.J.` 1 W Y , 1 d f Z 1 Q Q ) a.a.6.e       ",
"  C.#X>XrXBXkX[.=.z 8 Y >.c B B ;.Q.;XL ].-X;.@Xd.r.<XP.P.jX<XP.P.:X&X` ~ Y.~ 9 A.Y N.D.8 ^ C.C Z < 1 s F F g l J K k.z.7.a w       ",
"    U.%X;XNXBXkXW. .z l W.{ v Z t ] ,X] E.rXe.XXZ.J >XH.'.zXsX/.{.sX@XJ.w.E.f f O.d.T.V.3 O.] < + 4 4 g { { | F q.z.n.k.4.w         ",
"      P.#XlXBX;XlXtX=.Q -X;.c { l t H.-.-X'.L $XXXS.:XI d.dXyX`.8XgX@X) 2 t.' N.U.L B L.C Y < , f s 4 ( | G B 0.0.z.x.7.r           ",
"        Z.@XdXrXpXBXpXU.-Xl ! R.c E N 0 P.oXJ [.|.H.OX;.J >X$XN K $XW.3 f O.N.d.S.1 F ! 6 X 1 4 x / Z O.#.^ y.z.8.y.6.w             ",
"            W.>XNXkXgXVX>Xd > Z.] l m h H A.=.>Xd.q.<XR.X.P.P.Q W F.C.T e.W.Z 9 S.E ` 9 < 4 1 @ ( B 8 ] I k.y.x.a.u w               ",
"              Y.>XgX;XNXdXJ 5 p.=.V ;.v J u B [.W.R >XG.N...| k D  .c w.q.U.j Y D.j , , 1 g x c W t e P z.x.0.h.u w                 ",
"                U.:XdXVX}.E.s.H.l h #XE x E t p.U.F.<XP ) XXL.V U Y.-.Z < S.=.' Z X 1 s + Q .. .` u p L x.x.9.y :                   ",
"                  P.%XzXpXtXkX;XJ : W.] d { l B t p.2XP.&.fX;Xd d ].&Xk D S.~ < + 1 s @ X ( ..<.` 7.y.K z.9.y :                     ",
"                    Z.@X>X;XpX[.G.p |.X.C.-Xx Q C N K.C.'.xX1XQ.Y.:X&XN.^ ^ , 1 s @ Q E x #.Q ] 0.x.x.8.6.r :                       ",
"                      =.&XsXNX}.kX=X}.9 l &XJ k { l N t K.xX<Xe.^.dX&X] 2 X 1 s 1 X / M @ Q B 0.0.b.z.4.w                           ",
"                          W.hX;XrXNXdXP t J.E ] E.z m H V >X>XA y.tXW.9 < s @ g Z d / 3 > P k.0.8.k.4.w                             ",
"                            Y.:XlXNXBXiXi.J...:.[.S x v ! -X@XZ B ].W.j 4 4 O Z @. .` 2 u k.b.z.9.u 5                               ",
"                              U.>XVXBXBXyX[.! R.E.J F.-.v ..@.! ! X.Q 4 s T 3 T W m ~ 7.z.x.b.y.u w                                 ",
"                                S.%XlXkXtXNX).d.P.} P.J.V  .| B J Q z , 9 O.>.>.Z J a.k.a.h.9.y 5                                   ",
"                                  Z.%XtX;XVXBXrXU.2.2.V.J $X].9 t J.+.3 j :..XX.q.k.b.a.0.7.r                                       ",
"                                    V.&XsXBXBXgX'.J.F.:.{ &XXX#.( A.` c $.#.V 8.l.x.x.k.4.w                                         ",
"                                      +.&XdXBX#X}.jX].N.:.W.W.Q x +.X.1...^ y.k.s.b.y.4.w                                           ",
"                                          W.sXsX$XzXzX}.0.!.'.4 4 @./ C K k.x.y.a.h.u w                                             ",
"                                            W.tXlXlXtXzXrX/.oX< ; U.J K z.y.z.z.7.y :                                               ",
"                                              Y.>XkX}.yXBXdX@Xp.d.U.J._._.f.0.9.r :                                                 ",
"                                                P.%XdXlXdX'.jXNXBXzXdXgXBXgX'.L :                                                   ",
"                                                  S.%XlXzX$XNXBXBXBXpXtXNXhXU.                                                      ",
"                                                    S.@XsX[.kXBXVXBXgX;X:XP.                                                        ",
"                                                        &XsXxXzXNXzXlX@XA.                                                          ",
"                                                          W.-XsXfX1X@X                                                              ",
"                                                            <.R.R.P.                                                                "
};
