/* XPM */
static char *result[] = {
/* columns rows colors chars-per-pixel */
"64 64 241 2 ",
"   c #1C0D1A",
".  c #1F161E",
"X  c #210E17",
"o  c #23131C",
"O  c #2B161B",
"+  c #2C1A1C",
"@  c #241518",
"#  c #331B1C",
"$  c #351A18",
"%  c #3C231E",
"&  c #33301E",
"*  c #1E1324",
"=  c #1D0F22",
"-  c #231523",
";  c #251B23",
":  c #2A1B23",
">  c #221729",
",  c #23192B",
"<  c #291A27",
"1  c #341D21",
"2  c #351F28",
"3  c #291E30",
"4  c #2B2427",
"5  c #342325",
"6  c #3A2323",
"7  c #34242B",
"8  c #3A252B",
"9  c #3D292D",
"0  c #362C2B",
"q  c #332633",
"w  c #3C2B33",
"e  c #382A39",
"r  c #3B363A",
"t  c #2E302C",
"y  c #442B2B",
"u  c #462A28",
"i  c #48322D",
"p  c #442E33",
"a  c #492F32",
"s  c #412F3D",
"d  c #463135",
"f  c #4B3334",
"g  c #45313A",
"h  c #4B343A",
"j  c #4A3A3E",
"k  c #543B3C",
"l  c #5C3D3C",
"z  c #563834",
"x  c #55392D",
"c  c #623E3C",
"v  c #28492A",
"b  c #39443B",
"n  c #2D512D",
"m  c #296529",
"M  c #317534",
"N  c #3B743A",
"B  c #356F35",
"V  c #44443C",
"C  c #5E4236",
"Z  c #5D433C",
"A  c #56443B",
"S  c #48573A",
"D  c #63423C",
"F  c #65473A",
"G  c #48663B",
"H  c #45733E",
"J  c #4D3B42",
"K  c #453946",
"L  c #543D42",
"P  c #5B3E41",
"I  c #503E4A",
"U  c #503F50",
"Y  c #4A4345",
"T  c #524443",
"R  c #5C4344",
"E  c #5B464A",
"W  c #5D4B4D",
"Q  c #584947",
"!  c #4A5645",
"~  c #565549",
"^  c #4F4353",
"/  c #5A4852",
"(  c #5E5454",
")  c #634443",
"_  c #694642",
"`  c #654A44",
"'  c #6B4C45",
"]  c #634649",
"[  c #634A4C",
"{  c #6B4D4B",
"}  c #6B514C",
"|  c #675447",
" . c #71514D",
".. c #77594B",
"X. c #644E52",
"o. c #6A4E52",
"O. c #655354",
"+. c #6C5353",
"@. c #6B5459",
"#. c #6B5A5B",
"$. c #695757",
"%. c #745554",
"&. c #795753",
"*. c #765A55",
"=. c #7A5A55",
"-. c #725658",
";. c #745A5B",
":. c #7A5C5B",
">. c #714F4E",
",. c #4A6845",
"<. c #53664B",
"1. c #457841",
"2. c #536B51",
"3. c #597554",
"4. c #51714E",
"5. c #7B624E",
"6. c #7B625D",
"7. c #786658",
"8. c #775D61",
"9. c #7B6362",
"0. c #776565",
"q. c #6D7664",
"w. c #826449",
"e. c #846B5C",
"r. c #866858",
"t. c #8C715A",
"y. c #94755D",
"u. c #99795D",
"i. c #916F5E",
"p. c #866A63",
"a. c #8D7466",
"s. c #937663",
"d. c #967963",
"f. c #9A7A63",
"g. c #957A6B",
"h. c #997868",
"j. c #997F71",
"k. c #825F5A",
"l. c #279D2B",
"z. c #39893A",
"x. c #2D9831",
"c. c #37983A",
"v. c #2BA42D",
"b. c #2AAA2E",
"n. c #25A428",
"m. c #2DAC32",
"M. c #2AA430",
"N. c #31A535",
"B. c #33AC34",
"V. c #34AB3B",
"C. c #3AAC3C",
"Z. c #3BA93A",
"A. c #33B235",
"S. c #3BBC37",
"D. c #35B53B",
"F. c #3AB43D",
"G. c #36BB3D",
"H. c #3BBC3D",
"J. c #38BB35",
"K. c #2FB133",
"L. c #42843D",
"P. c #408A3C",
"I. c #41923F",
"U. c #41BD3C",
"Y. c #41B93A",
"T. c #3CC13D",
"R. c #38C237",
"E. c #43C23E",
"W. c #48C53D",
"Q. c #3F8A42",
"!. c #3EAA43",
"~. c #3BB542",
"^. c #37BC41",
"/. c #3CBD42",
"(. c #3EBC49",
"). c #3CB746",
"_. c #478844",
"`. c #429442",
"'. c #5F8A5A",
"]. c #4D9553",
"[. c #63955F",
"{. c #42B545",
"}. c #41BD43",
"|. c #42BD49",
" X c #4AB94B",
".X c #55AA57",
"XX c #56B55C",
"oX c #5AB95B",
"OX c #49AF4E",
"+X c #659463",
"@X c #78806F",
"#X c #5EB162",
"$X c #6BAB6B",
"%X c #65A868",
"&X c #64B266",
"*X c #65B469",
"=X c #6AB56D",
"-X c #68B96B",
";X c #73B775",
":X c #6EB371",
">X c #3DC143",
",X c #3CC148",
"<X c #42C244",
"1X c #49C545",
"2X c #4BCA44",
"3X c #44C34A",
"4X c #4BC54B",
"5X c #46C94B",
"6X c #4BCB4D",
"7X c #42C841",
"8X c #52CE4C",
"9X c #53C94B",
"0X c #4DD14D",
"qX c #54D24C",
"wX c #58D14E",
"eX c #4CCC52",
"rX c #4AC853",
"tX c #52CC53",
"yX c #56CA56",
"uX c #4ED255",
"iX c #53D355",
"pX c #5CD552",
"aX c #5CD955",
"sX c #55D35B",
"dX c #5BD45B",
"fX c #5BDA5C",
"gX c #55DA5A",
"hX c #62DA56",
"jX c #63DC5B",
"kX c #66DB5B",
"lX c #60CE5B",
"zX c #67E25D",
"xX c #5DDC62",
"cX c #5DD762",
"vX c #5ECB60",
"bX c #64D562",
"nX c #65DD63",
"mX c #6CDB68",
"MX c #77C678",
"NX c #6CC46C",
"BX c #67E368",
/* pixels */
"G./.}.H.H.<XT.H.G.H.<X>X<XH.H.H.>XG.>X>X>X^.^.G.^.>X^.,XcXiX|.F.^.|.(.<XfXuX^.^.^.>XR.R.^.^.>XA.H.<XH.H.U.H.U.H.|.}.H.~.(.(./.).",
"H.H.H.H.}.H.H.H.H./.>X<X5X>XH.H.>X^.>X>X^.G.G.>XG.>X^.^.|.4XeX3X^.(.^./.rX5X(.^.>X>X^.>XG.^.T.1X2XT.S.U.U.F.~.~.}.|.|./././././.",
"1XH.H.>X<XH.H.H./.H.H.5XgX5XG.H.G.^.>X^.K.G.>X^./.,X,XD.m.(.sX3XU.<XU.H.T.T.>XT.E.S.S.T.7XU.S.8XhXW.Y.Y.W.W.U.S.S.U.U.>X^.T./.>X",
"iX5XH.H.>XH.H./.H.H.H.uXfX5XH.>X>XG.^.>X,X,X>XG./.H.).^.F.rXcX5X1X6X1XH.G.H.T.T.S.J.S.E.0X2XE.2XzXaXW.W.2XqXW.H.H.H.U.E.>XJ.H.>X",
"BXiXU.H.H.H.H./.H.>X>X3X5X<XH.>X>XG.G.G.^.>X>X^.H.D.H./.<X X4.Y 3.bX8XY.H.S.U.S.S.H.Y.W.pXpX9X9XhXzXhXW.wXkX1XT.H.G.G.T.H.J.T.>X",
"xXuX<XG.H.<XU.H.H.<XH.K.A.G./.H.>X>X^.>X>X>X^.>XH.,X/./.~.z.~ Q q.mX8XH.H.Y.H.U.Y.Y.Y.E.8XhXjXkXhXzXhXwXhXpXW.H.T.T.T.G.H.H.T.H.",
">XT.>XH.<X6X5XG.>X<XH.A.b.G./.G.>X>X>X,X5X,XD./.H.,XH.F._.T $.#.@XMXrX}.^.~.<X}./.}.U. XY.4XmXBXkXoX9XlXyX}.H./.>X5XrX,X).^.(.).",
"n.K.G.H.5XiXeXH.H.J.H.E.H.>XH.G.G.>X>X,XgXeXH.H././.G._.Q k O.#.q.$X&XOX~.H.3X}.}.{.}.{.v.N.yXbXlXY.Y.yX|.v.A.).,XuXxX,X^./.,X).",
"A.A.F.}.>X<X<X<X/.H.H.H./.H.H.H./.>XuX,XG.H.>X<X/./.L.( ] P o.8.O.! q.2.Q.).).(.).).)./.~.C.B.V.Z.N.l.N.V.G.^./.^.,X,X,X(.^.(.,X",
"U.<X}.H.G./.<X<XH.D.H.H.<XH.H.H.(.5XfX3Xb.A.>X,XH.L.~ o.] P o.8.T + J X.~ Q.^.,X,X(.^.(.|.~.m.x.x.x.v.N.V.).3X(.^.(.^.>X(.(.(.(.",
"H.H.U.<XU.H.H.G.H.H.H.H.H.<XH./.D.5XxXtXD.^.{.z.P.Q o.] a l >.8.R $ 5 W $.~ z.OXrX5XD.^././.^.G.Y.F.F.F.D.U.H.H.G.H./.H.H.H./.^.",
"U.H.H.}.}.H.<X6X1X>XH./.>XH.H.<XH.H.,X}.C.~.1.L Q $.) % $ z o.p.[ X X p W O.Q T _.).~.D./././.>X X{.U.|.}.F./.E.^.G.,X5X5X(.G.^.",
"|.U.F.H.H.}.tXiX<X<X<XH.H.H.}.>X/.A.v.N.! S ~ $.$.Q % u c l >.p.R 1 y 6 8 R #.;.W S ,.C.T.G.G.G.H.H.}.}.H.U.E.S.H.R.2X0X5X7XG.T.",
"U.H.H.H.<XiX1XB.G.H.H.H.H.H.H.H.H.`.G ,.( O.} Q y $ u ..p.D { 8.R 1 h h 1 # y E O.@.[ G 1.Q.>XT.}.H.U.<X<XU.H.H.S.0X0XH.A.E.T.H.",
"U.<X4X}.5XjX5Xv.J.H.H.H.T.T.H.I.P.<.[ O.O.R i % % y } g.t.C ' 6.R # f R k a y 6 y R O.O.( <.z.M ).^.^.(.H./.1X5XW.iXaXA.n.H.>XG.",
"U.6XfX4X<XdX4XH.H.H.<X/.~.I.`.~ W X.X.` i % $ i 7.6.p.g.p.C ` 6.R # p k [ 9.;.a $ 6 f E O.O.j 4 M c.C.D.G.<XiXiX1X8XaX1XS.H.G.}.",
"/.F.^.^.F.G.~.(.>X<XeXtX_.Y ~ #.$.R i % $ % F 5.a.g.a.g.p.Z ' 6.) O a P ) ;.8.-.) u # $ f T T K t ; m ~././.~.|.H.~.H.}./.J././.",
"/.B.M.A.J.m.m.H.G.5XgXcX4.W #.A y $ % F D x | s.a.a.j.j.e.C ` e.P 1 a P ] %.%.k.{ z P ) 9 + 0 Y K t v !.).F.B.m.F.m.v.D.H.H./.4X",
"<XJ.A.G.H.G.D./.G.5XxXBXOX! f % y i F p.t.F 5.g.s.s.g.g.7.C | 6.P # a P ] :.&.:._ ) 8.9.k 1 8 w e n z.~.}.H.H.D./.D.A./.<XH.6XgX",
"H.|.|./.^.<X,XG.T.>X0XiXuXz.% 0 | r.i.g.d.r.w.u.d.s.s.h.e.F ' 6.P O a z ) 8.k.>.) _ =.;.] L g : - M ^.^.H./.}.<X/.<X<X<XH.H.5XgX",
"D./.(./.F.H././.>XG.G.>X/._.k O.7.e.d.d.d.w.w.t.y.d.s.g.t.F F 6.] # f l ] k.&.&._ c &.8.] L h O - M G.>X>XH.H.H.G./.>XJ.G.H.7X>X",
"H.H././././.>X/.^.G.G.G.H.z.Q 7.a.a.d.u.y.w.w.u.y.u.y.h.r.F ' :.R 1 y k ] :.&.&._ c &.:.] L J o   m 5X6X5X>XH.>XH.H./.^.T.<XH.G.",
"H././.<X/.>X/.^.T.G.H.H.G.z.A 7.a.g.y.u.u.5.w.u.u.y.f.f.r.D ' :.R # d k ) %.&.k._ c k.%.) L h + . M uXuX5X/.D.,X>XH.>XT.G.>XG.T.",
"|./././.G.G.G.3X>X>XD.H.^.L.A $.a.g.y.u.u.w.w.u.u.y.f.f.r.D { 9.R # f Z ) &.&.k.c c k.%.) k g : 4 M H.3X1X/.^.H./.H.G.G.G.>XG./.",
"H.}././.H.D.>X>X>X^.>X>XJ.L.A %.a.h.y.y.t.w.w.u.u.u.u.f.r.l ) ;.R 5 u k ' *.=.&.F c &.&._ P h o o M ^.^./.^.^.^./.^.).^.^.^.^.>X",
"}.H.}./././.>XG.>XR.G.G.T.L.k ..h.h.s.y.w.t.u.u.u.u.y.y...) P L L f 2 u ) =.=.&.k._ c k.=.] f o . M ^.>X/./.^.)./.^.^./.>XG.^.>X",
"}./.H.H.>X>X^.>XR.>XR.^.H.L.A 5.s.y.y.y.F t.d.y.u.u.i. .D o.@.-.;.X.a 1 f ;.=.&.=.' c >.8.{ L g < M >X).).^.,X/.(.^.^.,X/.^.G.>X",
"}./.H./.^.H.^.>X^.>X>X^.c.H | t.i.u.f.t.5.t.d.t.f.y...D ) o.P h I X.o.a k =.=.&.&.{ c >.=.] L T 7 v z.).^.(.)./.,X^.^.,X>X/.^./.",
"}.F./.}.}./.G.G.^.G.^.D.B E 7.d.y.d.f.t...t.d.s.i...D ` { h 2 - : h @.X.R %.*.*.:.>.c >.=.[ L h 4 . v ~.<X/./././.^.G././.H./.>X",
"|.F.D.H././.>X>XR.G.D.~.G ` 7.y.y.y.d.a.5.r.g.a...z ` { h 2 s U g 2 h X.[ R -.%.:.>.c >.p.-.L h 4 * v ~.H.}./.<XH././.H.D.H.T.H.",
"U.|.}.}.H.>X>X,X^.R.^.^.G A 5.d.h.f.y.t.5.e.d...C F } f 1 s U U I g 2 g X.o.] { &.>.P o.8.[ L J 7 - n Y.D.H.H.G.D.T./.G.>X1X<XH.",
"F.6XiX6X/.D.G.^.G.>X^.K.G C 7.f.f.h.h.w.F | | Z ' | f 8 w e e q q s w 5 h +.[ ] ) P c -.k.] j J 4 o v Z./.U.H.,XH./.J./.2X0X1XG.",
"3XrXeX3X/./.^.^.^.^./.{.G ` 7.g.h.s.r.F A C Z ` %.f # y s > = * o - p 8 1 a o.o.] P l { k.o.L J 2 = t C.<X^.D.>X>X>XT.T.2XzXqXW.",
"nX3Xm.m.^.,X>X,X^./.(.~.G ` 7.a.s.r.F l z } #.) i # p h : = - > - o - h g 2 a ) >.>.) P o.] L J 2 = n C.U.>X>XJ.R.0XgXW.W.aXhXaX",
"BXeXm.A.(.<X>X^.^.>X>XG.H ~ 7.5.' c D { } [ a O $ p @.I o - - - - o o I 8.] 1 $ u ] %.o.] a 2 J 7 o n F./.>XH.G.T.uXxXwXwXkXzXkX",
"uXeX,XH.H.,X>XG.^.^.>XT.1.Q A F _ ' } [ y % 2 y y ] 9.P X o e K 8 o O P 0.;.] P u $ a ] ] J 8 2 ; o n U.U./.T.H.>X7XaXfXzXkXhXhX",
"m.D.^./././.H././.>X>XQ.,.! ~ ..} ) f u 1 : h ] k R ;.R O 2 I / I 9 + h X.] +.:.] u a u u f J p q < v M K.>X|.U.H.N.F.yXmXmX XY.",
"n.K./.,X,XH.G.G.^.>X^.,.! 4.3.<.A u $ O L / o.@.R R %.R 1 w s p p d 1 p E L R +.:.8.>.u 1 p g g J r 4 , G.>X}.H.}.B.B.|.wX XY.N.",
"G.>X>XH.G.G.G.>XG.>X>X,.2.4.G & & i u 1 X.8.#.8.=.+.*.+.k 2 1 1 O 1 f [ @.;.%.=.:.&.o.k ] L + 7 r K e , ^.).^.{.{.{.~.N.M.l.Z.~.",
">X/.H.H.>XH.G.G.G.^.>X!.B t n z.B [ P 2 X.8.8.;.:.=.=.*.%.] P E R ] +.:.6.*.%.*.&.>.P P -.h j +XY - v Q.^.(.~.|.|. X).!.N.N.!.{.",
"H.H.>XH.H.>XH.H.H.H.>XH.c.m c.D.G 9.[ # R 0.;.;.&._ _ F _ { &.9.p.:.:.:.' ] *.:.=.*.] R o.f ! ;X+X3.].|.3X<XY.Y.U.}.U./.H.G.^.>X",
"G.G.D.H.H.H.D.H.}.>X>XG.H.H.H.~.S p.$.+ h [ +.[ ' c D c c c { %.] ' %.*.' _ } ' ' { ' l o.h j $X-X=XXX{.6XyX4XY.Y.}.W.H.F.,X>XG.",
"H.H.H.H./.U.>X>XG.H.<XH./.H.G.~.S 9.*.+ p R R k l &.&.&.k.&.) l D D } ..=. .l l l c l k +.h V %X-X;XoX1XwXhXwXW.U.W.W.R.R.R.R.T.",
"/.<X}.7X<XH.H.G.H.<X>XH.>XH.T.F.S 6.$.$ f [ %.} >.w.&.&.k.&.-.o.+.@.) l l F '  . .%.{ P o.a V $X-X;XNX4X9XkXkXpXW.9XwXW.R.R.R.R.",
"<XH.(.eXeX}.H.}.iXeX(.D./././.~.S 7.} % R *.:.:.&.:.:.-.E g e s d g k E } } ..=.k.&.) P o.g V %X-XMXMXdXwXkXzXkXwXhXhX2X>X0X7XR.",
"<XH./.<X5X6X<X|.fXdX/.G.G././.F.S 0.+.% ' :.=..._ ] @.E 8   * * * o q Q ;.=.=.' F _ P P o.g Y $X-X;XNXnXlXwXhXkXzXpX8XT.7XgX5XG.",
"^.~./.m.F.sX6X}.gXdX,XH./././.F.S 0.} $ { r.&.{ P ] L y - * > , * * - 8 R *.=._ c _ %.] @.g K $X&X%X#XdX9XF.9XmXdX XV.C.|.4X3X(.",
"/.H./.b.H.xXiX}.iXcX<X/./.D./.~.G 0.} 6 ' =...=.:.-.p X < > , , , * o @ f 6... .&.=.&.P @.K V %X*X%X.X XN.l.Y.1XY.F.B.C.(.).(.(.",
"^.(./.H.3XsXtX}.6XtX4X}.H.S.T.H.!.,.$.} i F 6.=.=.;.a @ : - > > * - < @ y ;.=._ >.;.] ] g <.+X=X=X=X.Xb.l.n.l.n.n.B.F.}.|.{.).).",
"}.|.|.}.~.F.F.F.F.H.H.H.H.H.>XH.,XN $.9.% i ' ) ] ;.h o - > - * * - < O d %.{ z c c P @.2 2.-X=X=X$X.X~.C.A.K.V.A.~.U.{.Y./.}.|.",
"/./.H./.J.m.A.}.v.v.H.}././././.^.H #.7.% i D l ] >.p X > > * * * > : X p -.` ) P l E @.w 2.*X*X=X=XXX^.(.}.|.H.<X}.H.H.H./.(.(.",
"H.^.F.H.F.F.H.{.F.J.}.}.H./././.^.1.#.0.% Z :.%.;.) 2 o * , 3 3 3 3 o   d ;.;.;.:.o.P X.8 2.*X*X&X*XXX(.}.^./.(.|.H.H.H.T././.(.",
"H.H.H.H.H.H.H.U.|.H.>X(.^.).).).R.1.#.0.6 A 6.*.8.-.p X : s K K K s < . g ;.;.;.8.o.P @.q 4.*X*X*X*XoX/./.^./.>X>XG.^.>X>X>X^.^.",
"G.G.H.E.H.H.H.<X}.H./.(.(.(./.(.>XN O.0.6 k 6.*.;.8.d : r ^ ^ ^ ^ I K : 9 [ E R o.o.E X.q 2.-X*X*X:XXX/././././.G.^.G.R./.^.^.>X",
"T.R.T.R.S.S.H.E.U.H.).rXuX,X(.(.>X1.( 0.8 R 9.0.0.#.g ; q e q q q q q O w / X.] #.$./ X.q 2.*X*X*X#X X/././.H.H.G.G.G.G.^.R.>X^.",
"T.7XT.R.S.T.T.G.H.H.).uXcXrX).(.>X1.#.0.5 i [ E X.E 7 ; r r b b b b r ; 7 E X.X./ J ^ O.t ,.*X-X%X X>X/./.H.H.H.G.T.>XG.>X>X>X>X",
"aXqXY.S.S.S.E.H.U.F./.yXfXrX^.(.H.N / ( 4 + % & 4 4 * ! $X:X;X:X$X;X:X! ; 4 7 5 5 : 8 ( e 4.*X*X*X X}.U.}.}.H.U.<XH./.H.H.>XG.^.",
"zXaX2XH.W.2X2XE.H.U.U.H.H.).(./.H.!.N 4 + 3.[.'.'.+X+X%X=X*X*X#XMXMXMX%X+X[.'.'.+X3.@ t 3.%X*XXXOX9X6X}.D.}.6X6XU.H./.H.T.>X^.G.",
"jXBXnX9X8XfX2XU.U.U.T.A.M.A.(./././.Z.m m %X-X=X=X=X:X:X:X%X%X%X-XMX;X*X=X-X=X-XoX.Xm m OXXX|.(.}.dXgX<X}.4XtXtX}.H.U.U.T.<XH.H.",
"nXnXnXpXdXjX8XE.H.U.H.S.K.^.>X/.(.H./.|.tXXX&X-X*X-X*X#X*X*X#X#X-X-X-X*X&X&X-X-X X{.C.F.(./.,X>XU.iXyX3XrXtX|.B.G.Y.U./.H.H.H.G.",
"yXyXmXmXlX9X|. X}.U.G.H.,X>XG.>XH.H.5X6X1X<XU.~.^.3X).^.,X,X^.R.>XG.G.>XH.U.H.}.H./././.>X^.G.>X|.sXsX|.sXcX^.m.F.U.U.H.H.H.H.H.",
"x.{.vXmXyXV.B.Y.U.U.H.G.T./.G./.H.>XiX1Xb.K.F./.|.(.)./.,X^.D.>XR.T.T.G.S.E.U.}.<XH.H./.^.G.G.>X3XsXsX|.rXsX|.).F.U.}.}.H.G.T.}.",
"x.Q.OXOX{.Z.Y.}.}.}.>XH.H.^.>X>XG.E.gXqXJ.J.F.}./././.(.,XR.G.>X^.R.>XJ.H.}.U.4XrX/.G.^.>XK.>XG.).(.).~.~.).|.|.H.U.<X6X5XH.H.H.",
"x.x.x.x.c.{.{.{.F.F.,X<X>X/.>X^.T.T.iXiX4X<XU.H.~./././.K.G.R.G.>XG.T.H.H.F.H.tXgX>X^.>X>X,X>X>XD.m.M.~.C.M.F.~.}.H.<XjXgX|.J.G."
};
