/* XPM */
static char *_6f99bb8995141caa778807dea8199f23DbTn7U81nG0oeug[] = {
/* columns rows colors chars-per-pixel */
"32 32 172 2 ",
"   c None",
".  c #1F131D",
"X  c #1D181E",
"o  c #24141E",
"O  c #2A151D",
"+  c #21191B",
"@  c #2B1A1F",
"#  c #361B1F",
"$  c #1F1525",
"%  c #241623",
"&  c #291523",
"*  c #241923",
"=  c #2A1B23",
"-  c #201728",
";  c #241A2A",
":  c #281D2C",
">  c #351D21",
",  c #391E24",
"<  c #371B28",
"1  c #2B232A",
"2  c #332326",
"3  c #3C2425",
"4  c #34232B",
"5  c #3D272D",
"6  c #36282D",
"7  c #3C282E",
"8  c #362533",
"9  c #392531",
"0  c #362A33",
"q  c #3B2B34",
"w  c #372B39",
"e  c #3C2D3A",
"r  c #3E3436",
"t  c #3F313A",
"y  c #452725",
"u  c #442B25",
"i  c #40262C",
"p  c #432B2C",
"a  c #492E2B",
"s  c #46302C",
"d  c #4A312E",
"f  c #452632",
"g  c #422C35",
"h  c #492B32",
"j  c #402D3A",
"k  c #433335",
"l  c #4A3334",
"z  c #44323B",
"x  c #4B343C",
"c  c #42383F",
"v  c #4C3B3B",
"b  c #513531",
"n  c #553935",
"m  c #5A3D33",
"M  c #52363B",
"N  c #533B3C",
"B  c #5C3D3B",
"V  c #4C423E",
"C  c #5E4135",
"Z  c #5B413D",
"A  c #654737",
"S  c #66473C",
"D  c #443441",
"F  c #4A3540",
"G  c #453A46",
"H  c #4B3B43",
"J  c #463A49",
"K  c #483C4A",
"L  c #543744",
"P  c #533B42",
"I  c #593C42",
"U  c #4B4242",
"Y  c #544445",
"T  c #5B4344",
"R  c #55454A",
"E  c #5C454A",
"W  c #5C4A4C",
"Q  c #5A4751",
"!  c #5D4D53",
"~  c #634542",
"^  c #684743",
"/  c #654944",
"(  c #6A4B45",
")  c #62464A",
"_  c #634A4C",
"`  c #6B4D4B",
"'  c #714E47",
"]  c #724F48",
"[  c #6E5346",
"{  c #6D524E",
"}  c #73544C",
"|  c #75584C",
" . c #7A5A4E",
".. c #634D52",
"X. c #6A4E51",
"o. c #655254",
"O. c #6D5153",
"+. c #6F5954",
"@. c #6C5559",
"#. c #6E5A5D",
"$. c #745552",
"%. c #795652",
"&. c #765955",
"*. c #7A5B55",
"=. c #73555A",
"-. c #755A5A",
";. c #7A5B59",
":. c #7B6050",
">. c #7B6358",
",. c #746463",
"<. c #796560",
"1. c #7B6965",
"2. c #756A69",
"3. c #7B6A6A",
"4. c #766B76",
"5. c #786D74",
"6. c #776D79",
"7. c #82654C",
"8. c #86694D",
"9. c #886B4C",
"0. c #836651",
"q. c #876850",
"w. c #85675A",
"e. c #876D5D",
"r. c #85695B",
"t. c #896D5B",
"y. c #88695E",
"u. c #896A58",
"i. c #89715E",
"p. c #8E705E",
"a. c #8E745E",
"s. c #927457",
"d. c #93775A",
"f. c #947758",
"g. c #96775A",
"h. c #91755C",
"j. c #91755F",
"k. c #90765F",
"l. c #91765D",
"z. c #92785F",
"x. c #957A5C",
"c. c #957A5D",
"v. c #94785E",
"b. c #96785F",
"n. c #95785F",
"m. c #856960",
"M. c #896D63",
"N. c #896F62",
"B. c #886F66",
"V. c #8E7662",
"C. c #8A7365",
"Z. c #897167",
"A. c #8F7567",
"S. c #8E7260",
"D. c #8E7668",
"F. c #8E776A",
"G. c #927463",
"H. c #927762",
"J. c #947761",
"K. c #927567",
"L. c #947565",
"P. c #927460",
"I. c #937961",
"U. c #927862",
"Y. c #947960",
"T. c #947A60",
"R. c #967962",
"E. c #917965",
"W. c #937A67",
"Q. c #957967",
"!. c #957962",
"~. c #967E6B",
/* pixels */
"                                                                ",
"                            v o.o.                              ",
"                          Y T -.-.,.                            ",
"                      N W _ B $.&.2 R ! R                       ",
"                  Y E _ N y B %.$.> 2 H ! W Y                   ",
"            R W W W N p n $.B *.$.# z 7 g v W _ E Y             ",
"      Y _ W W N p s N ( B.N.C | $.# x P P N d p N W ..! z *     ",
"v E ..T N d u u Z >.D.C.D.N.C } $.> x P O.-.{ Z p p l v c c 1 X ",
"  v p l b } y.} :.W.V.W.~.e.m | $., x P O.&.*.~ ~ &._ 5 0 0 0 * ",
"  k T &.m.K.Q.0.0.T.z.I.H.t.C | $.# x N @.&.$.~ ( ;.O.P x % ;   ",
"  N +.C.A.Q.J.7.8.x.x.x.j.p.m } $., x N O.&.%.S ^ ;.X.P F % *   ",
"  N { C.W.j.j.8.9.f.d.T.L.y.C | } # l N { &.;.^ ~ *.O.I z o *   ",
"  N { i.I.T.8.8.s.f.x.H.y.$.~ ~ / Z 3 p { &.$.%.( ^ $.` x = *   ",
"B ~ w.a.j.T.7.q.x.T.H.*.( ) _ N N W ..l _ &.*.*.^ ~ ;.O.N x % * ",
"n | H.j.x.J.0.u.Q.u.[ / _ P 5 g k 7 x ..) ` &.*.( ~ &.X.P H % % ",
"m | a.T.H.P. .| | ( / T g 9 e z z j 9 g E _ _ } ~ ~ ;.O.P x = % ",
"m | S.S.w.} B ~ ` ~ N 5 g 8 % o % % 4 g 5 N ~ ( ~ B ` O.P F % % ",
"B ` { ( / ` ) I h 3 p E Q & & = 4 & & ..@.N a d n ~ _ N 5 g % % ",
"P _ _ _ P h f f N ~ B X...& q H H g O T _ _ O.~ n b p i x q 8 % ",
"Q H g > x < L =.=.$.{ O.@.l i i 5 i M _ O.` $.*.&./ N P 2 z D e ",
"= =   v #.g x =.&.%.| ( ( _ X.O.=.O.&.;.{ $.*.;.{ T _ W 2   c G ",
"      Y 3.l i T ~ A A ( } ` ` ` ( ( } $.` ~ ~ ~ / T E E 2       ",
"      v 3.l a ` } }  .*.&.X._ E T T Z / ~ ( | $.` T E E 4       ",
"      V 1.l n *.%.} ( _ T 9 % ; % * 6 T =.%.] ^ ( ~ ) E 4       ",
"      v ,.N n $.;.$.$.) @ o ; - - ; . @ _ ;.} ' } ` E R 0       ",
"        v <.n a ` ` X._ O % % ; $ % * o _ O.Z ~ ~ _ T 7         ",
"        v 1.N d { O.X.N O = % % : : % o W =.O.` ~ _ T 6         ",
"        v ,.N v -.-.-.T O 8 J K J G 8 = R o.X.=._ _ Y 6         ",
"        U 2.v x #.@.#.R = 0 0 w 0 w q % H .._ o.W W Y 6         ",
"        U W q 2 k k k 0 6 5.4.4.4.6.4.q t t q z 6 k U r         ",
"            +                                     =             ",
"                                                                "
};
