/* XPM */
static char *_2520159a9f241068ef67d2451286ac1lX15uQMaVAbiRmUU[] = {
/* columns rows colors chars-per-pixel */
"32 32 138 2 ",
"   c None",
".  c #1E1514",
"X  c #1D141C",
"o  c #231516",
"O  c #2A1513",
"+  c #291C17",
"@  c #23151B",
"#  c #29141B",
"$  c #25191D",
"%  c #2C1A1B",
"&  c #331C1C",
"*  c #35231E",
"=  c #38201F",
"-  c #1F1820",
";  c #241C25",
":  c #2A1D24",
">  c #321E23",
",  c #2B2024",
"<  c #2F252F",
"1  c #352326",
"2  c #3A2125",
"3  c #35252C",
"4  c #3A252C",
"5  c #37282F",
"6  c #3B292D",
"7  c #342734",
"8  c #382632",
"9  c #362A33",
"0  c #3D2C31",
"q  c #3F3137",
"w  c #37303F",
"e  c #442C2D",
"r  c #422D33",
"t  c #453333",
"y  c #4B3334",
"u  c #4D3A35",
"i  c #43353C",
"p  c #4C363B",
"a  c #463A3C",
"s  c #4D3B3D",
"d  c #533E36",
"f  c #50353A",
"g  c #533C3D",
"h  c #5A3E3D",
"j  c #4E423B",
"k  c #554036",
"l  c #55433C",
"z  c #59443E",
"x  c #443E46",
"c  c #4D3C42",
"v  c #543D42",
"b  c #5B3E43",
"n  c #4C4343",
"m  c #554244",
"M  c #5B4443",
"N  c #564844",
"B  c #5C4944",
"V  c #52424B",
"C  c #5A454A",
"Z  c #5E4B4E",
"A  c #5F514A",
"S  c #5F4D54",
"D  c #644544",
"F  c #634945",
"G  c #694947",
"H  c #634B4D",
"J  c #6B4E4A",
"K  c #65514C",
"L  c #6B534C",
"P  c #72574E",
"I  c #76584D",
"U  c #785A4F",
"Y  c #634D52",
"T  c #684D53",
"R  c #645155",
"E  c #6C5454",
"W  c #6C5954",
"Q  c #6B5659",
"!  c #6B5F5F",
"~  c #735554",
"^  c #785654",
"/  c #795754",
"(  c #745951",
")  c #745A52",
"_  c #705C53",
"`  c #725A54",
"'  c #745D56",
"]  c #755C54",
"[  c #795954",
"{  c #795956",
"}  c #7A5957",
"|  c #7A5B52",
" . c #705459",
".. c #765F58",
"X. c #725C5F",
"o. c #735C5C",
"O. c #7E5B59",
"+. c #795D59",
"@. c #7A5D58",
"#. c #785E58",
"$. c #7A5F58",
"%. c #7B5E5A",
"&. c #796056",
"*. c #746159",
"=. c #77655E",
"-. c #796059",
";. c #7C605A",
":. c #7A605C",
">. c #7D635B",
",. c #7E685B",
"<. c #655A64",
"1. c #646061",
"2. c #7F6662",
"3. c #81665F",
"4. c #82655A",
"5. c #80695D",
"6. c #826B65",
"7. c #866E67",
"8. c #856B64",
"9. c #8B6F67",
"0. c #857062",
"q. c #847069",
"w. c #84716A",
"e. c #85716B",
"r. c #86716A",
"t. c #88716C",
"y. c #8D746F",
"u. c #8D756F",
"i. c #8D776F",
"p. c #8B736A",
"a. c #93776E",
"s. c #937A6B",
"d. c #8A7570",
"f. c #917770",
"g. c #907872",
"h. c #917972",
"j. c #967C75",
"k. c #927871",
/* pixels */
"            d l z                                   d z         ",
"          M 6.r.W l                               N r.r.K       ",
"        B 2.f.j.y.W +                           A r.k.k.d.N .   ",
"        M y.3.$.7.=.+                         u K y.>.$.t.N .   ",
"        l ..) ) -.K O                         u B $.{ ~ :.g .   ",
"        l _ P ) $.H & t s c c p p p f g v p g l F ~ ^ { $.u o   ",
"        j *.' ` L h & M R R Y Y Y T T T T Y H M D { O.^ J t o   ",
"        j B F F d = % C R S S Y Y T T Y Y Y H m h G G D y > @   ",
"        g g M M e O % 5 9 9 9 9 5 5 5 5 5 5 0 p g h D h 2 o @   ",
"        g h E H e # $ X X - X X @ . . @ @ @ $ t g M  .M 2 o @   ",
"        g g  .H e # @                         n s m Q m 2 $ ;   ",
"        v v R H r # @                         n a m X.v > @ ;   ",
"        m m R Y r $ 3                         1.n m Q m 4 : x   ",
"          s Q Z 0 5                             ! m Q v > i     ",
"          m Q Z 0 1                               M X.m 1 c     ",
"          m R Z 0 3                               m E v > i     ",
"          g E H 6 1                               M W z 1 p     ",
"          u h z e *                               l d k * t     ",
"          d >.7.K l                               z >.0.B H     ",
"        M 8.9.a.k.' 6                           H 5.s.s.p.M q   ",
"        F a.4.$.9.:.%                         t K a.| 4.p.B 3   ",
"        z &.| P ) L O                         y F >.U U >.h 1   ",
"        z L ) ) ] J & e s c v s p v g g v p g g G | U I ) g 4   ",
"          ' ' ' W h & m Y Y Y Y Y H H H H Y Y b D | | | L t 4   ",
"          ' K W K e % m Y S Y Y Y H Y Y Y R Y b D ~ J ) F 4 3   ",
"          W h B H p & t s c c p p 0 0 r r 6 r p H ~ z D M 4 8   ",
"          X.C g g m                 @ $ o o # r Y R h g g 5 7   ",
"          Y p s v                             c C Z t g m 9 7   ",
"          i : 0 V                             V c 0 $ t a < 7   ",
"                                              <.i : , : , ; w   ",
"                                                                ",
"                                                                "
};
