/* XPM */
static char *result[] = {
/* columns rows colors chars-per-pixel */
"64 64 245 2 ",
"   c #1C0C15",
".  c #1A0C16",
"X  c #1C121A",
"o  c #14030C",
"O  c #23141B",
"+  c #2A151B",
"@  c #241C1C",
"#  c #2C1A1D",
"$  c #281415",
"%  c #321B1D",
"&  c #250F14",
"*  c #1F321D",
"=  c #25231D",
"-  c #21331C",
";  c #27391C",
":  c #34271E",
">  c #2B1C23",
",  c #271A22",
"<  c #331D23",
"1  c #2B2426",
"2  c #342124",
"3  c #3B2424",
"4  c #34242B",
"5  c #3B292C",
"6  c #382929",
"7  c #283924",
"8  c #3B352A",
"9  c #3A2A32",
"0  c #3C3835",
"q  c #432A2C",
"w  c #422928",
"e  c #42372E",
"r  c #432D33",
"t  c #442A32",
"y  c #443134",
"u  c #4B3332",
"i  c #4C353C",
"p  c #4D3A3C",
"a  c #453739",
"s  c #533C3C",
"d  c #5A3D3D",
"f  c #533835",
"g  c #603F3F",
"h  c #264B1F",
"j  c #264423",
"k  c #285925",
"l  c #3A473A",
"z  c #3B5537",
"x  c #364E2A",
"c  c #2B792B",
"v  c #387C34",
"b  c #336F31",
"n  c #1E511D",
"m  c #4D4A3E",
"M  c #454739",
"N  c #55433D",
"B  c #5A433E",
"V  c #524B3D",
"C  c #58483F",
"Z  c #4B533D",
"A  c #4A5C3D",
"S  c #45593B",
"D  c #53553E",
"F  c #40412E",
"G  c #62413F",
"H  c #456C3B",
"J  c #49663B",
"K  c #447D3D",
"L  c #49783C",
"P  c #526C3F",
"I  c #4D3B42",
"U  c #473A40",
"Y  c #543E43",
"T  c #5A3E42",
"R  c #523B45",
"E  c #3F5045",
"W  c #4C4D42",
"Q  c #464943",
"!  c #544344",
"~  c #5C4344",
"^  c #544B43",
"/  c #5B4B43",
"(  c #5B444A",
")  c #5B4B4C",
"_  c #55444B",
"`  c #4B5343",
"'  c #4A5B42",
"]  c #485845",
"[  c #585948",
"{  c #5D5252",
"}  c #634B46",
"|  c #634B4C",
" . c #6A4D4B",
".. c #624546",
"X. c #65534D",
"o. c #6B534D",
"O. c #635B4B",
"+. c #72544D",
"@. c #77594E",
"#. c #644D52",
"$. c #6A4E53",
"%. c #655253",
"&. c #6B5355",
"*. c #6C555A",
"=. c #6C5A5B",
"-. c #675856",
";. c #735653",
":. c #755B54",
">. c #7A5A54",
",. c #72565B",
"<. c #745B5B",
"1. c #7C5D59",
"2. c #714E4D",
"3. c #4B6842",
"4. c #586747",
"5. c #477A42",
"6. c #547345",
"7. c #576A52",
"8. c #67664E",
"9. c #676754",
"0. c #7B625B",
"q. c #756557",
"w. c #667755",
"e. c #77765C",
"r. c #735C62",
"t. c #6E5B61",
"y. c #7B6F61",
"u. c #83675E",
"i. c #836A64",
"p. c #876C66",
"a. c #8C736B",
"s. c #89796B",
"d. c #92766D",
"f. c #937C73",
"g. c #967A75",
"h. c #8F7872",
"j. c #338333",
"k. c #3A8A39",
"l. c #2C9832",
"z. c #3E9B3E",
"x. c #379738",
"c. c #2D8B2D",
"v. c #28A52C",
"b. c #2DAC32",
"n. c #27A430",
"m. c #33AD35",
"M. c #3BAC3C",
"N. c #38A43A",
"B. c #33B235",
"V. c #3ABC36",
"C. c #36B53B",
"Z. c #3BB43D",
"A. c #36BB3D",
"S. c #3BBC3D",
"D. c #3BB536",
"F. c #2EB034",
"G. c #43833D",
"H. c #46883D",
"J. c #42953D",
"K. c #41BD3C",
"L. c #42A839",
"P. c #3DC13C",
"I. c #36C337",
"U. c #43C23D",
"Y. c #3F9B41",
"T. c #3E8A40",
"R. c #3DA941",
"E. c #3CB442",
"W. c #37BC41",
"Q. c #3BBD42",
"!. c #3EBC49",
"~. c #3CB546",
"^. c #488643",
"/. c #57884C",
"(. c #439C42",
"). c #489647",
"_. c #588756",
"`. c #599C5A",
"'. c #519C4C",
"]. c #66875A",
"[. c #66945B",
"{. c #758A5E",
"}. c #45A846",
"|. c #41BD44",
" X c #44BC4B",
".X c #4BBA4C",
"XX c #46B548",
"oX c #58A558",
"OX c #4BBA53",
"+X c #4BB753",
"@X c #5DB55D",
"#X c #54B95A",
"$X c #55B759",
"%X c #56B14D",
"&X c #5D9562",
"*X c #5C8761",
"=X c #628A62",
"-X c #798863",
";X c #639464",
":X c #689867",
">X c #779365",
",X c #5DB564",
"<X c #5CB961",
"1X c #5EAB60",
"2X c #65AC6B",
"3X c #6AAE6D",
"4X c #65A866",
"5X c #62B365",
"6X c #65B36B",
"7X c #6AB26D",
"8X c #64B96A",
"9X c #68BA69",
"0X c #6BB373",
"qX c #6CBA71",
"wX c #71B073",
"eX c #6AA05E",
"rX c #3DC143",
"tX c #3DC149",
"yX c #42C245",
"uX c #44C34A",
"iX c #4BC64B",
"pX c #4BCA4C",
"aX c #48C847",
"sX c #52CB4E",
"dX c #53D14D",
"fX c #4DCC52",
"gX c #47CA51",
"hX c #52CD53",
"jX c #57C558",
"kX c #53D355",
"lX c #56D359",
"zX c #5CDA5C",
"xX c #5AD858",
"cX c #4DD152",
"vX c #64DB5A",
"bX c #5EDA62",
"nX c #5ECB60",
"mX c #67DA65",
"MX c #72C575",
"NX c #6BC768",
"BX c #67E467",
"VX c #64E35E",
"CX c #8D8972",
"ZX c #988278",
"AX c #868B6B",
/* pixels */
"A.Q.|.S.S.yXS.A.A.K.yXrXyXS.S.Q.P.rXW.rXQ.rXP.W.A.rXW.uXbXlX XZ.E.tXQ.|.bXlXW.W.W.Q.P.I.W.W.P.A.S.U.V.K.U.S.S.S. X|.Q.E.Q.!.Q.Q.",
"S.S.P.S.S.rXyXA.S.S.P.|.XXL V D [ L L.Q.W.W.W.W.W.Q.Q.Q.|.iXfXuXQ.Q.W.|.gXgXW.W.rXA.rXA.rXA.K.L.L V C D P J.K.Z.|.|.|.Q.Q.!.!.Q.",
"yXQ.S.Q.yXS.S.S.rXS.S..X%X6.O.O.O.P J.N.C.A.rXW.Q.Q.|.C.n.|.lXiX|.yXS.V.P.P.rXP.U.V.V.K.U.K.L.J.P } o.X.P H.L.D.V.K.K.rXS.P.Q.S.",
"xXaXS.S.Q.S.S.yXS.S.Z.'./.8.e.{.w.w.3.v N.W.rXA.Q.W.Q.W.Z.fXbXfXyXdXaXS.A.S.P.S.V.V.V.K.dX|.G.A O.e.s.u.@.P H N.S.K.S.U.rXA.S.rX",
"BXcXrXA.S.A.S.S.P.L.J.5.4.e.AX>X>X].8.J j.N.R.S.Q.S.Z.Q.yXiXfXuXiXzXdXS.S.K.V.S.V.K.K.K.%X'.P ) 0.ZXZXZXi.-.S b N.m.A.A.S.A.S.P.",
"bXkXyXS.S.yXS.A.rX/.H.4.0.s.ZXCXAX-X].4.z k l.S.W.Q.Q.Q.Q.F.b.B.aXvXdXK.K.V.K.K.Z.K.K.L.H.P O.0.s.ZXZXg.f.i.X.x k l.P.rXA.P.S.P.",
"rXP.P.S.yXpXaXS.S.L 6.9.a.f.f.h.d.AX{.w.F ; c S.Q.|.Q.S.Q.m.b.C.uXfXuXQ.E.Q.|.|.|.|.K.J.A C q.h.f.a.p.a.ZXh.q.8 ; k.tXtX~.Q.!.Q.",
"v.b.A.S.aXxXfXS.S.L 4.e.h.a.i.0.u.AX[.].e - c A.S.Q.A.W.yXQ.A.Q.Q.Q.Q.Q.W.W.yX|.K.|.|.J.S C e.CXCXu.0.u.s.h.=.0 - k.bXtXW.!.!.Q.",
"D.B.Z.K.yXyXyXyX|.K 6.e.a.p.:.+.:.e.>X].e ; c U.Q.W.Q.Q.Q.Q.W.A.!.W.W.!.!.!.W.!.W.~.W.Y.A C q.{.y.>.+.@.i.p.o.e ; j.tXtX!.!.!.tX",
"|.K.yXS.A.S.yXyXS.H.L 8.0.0.+.+.+.e.{.4.8 ; k.U.Q.S.Q.W.Q.W.W.W.Q.!.W.W.!.W.W.uXuX!.~.(.J C O.q.q.@.+.;.1.0.X.8 ; j.W.!.!.W.!.!.",
"A.S.|.yXS.S.S.A.S.H.G.4.o.q.+.@.>.e.e.[ : ; H.m.M.K.Z.Z.Z.Z.E.E.E.~.E.C.Q.C.C.iXfXuXE.k.J B } 8.q.@.>.>.1.:.} 6 ; c.S.S.Q.Q.W.W.",
"K.S.S.|.K.S.yXpXyXH.G.8.+.+.+.:.q.q.8.C : 8 S K K 5.^.G.^.K K 5.K v 5.v K 5.5.^.^.5.K 5.D G } +.@.>.@.>.u.<.C 6 ; c.|.aXaXQ.W.C.",
"yX|.Z.S.S.|.hXxXyX^.G.4.q.q.&.:.:.0.q...5 3 e W ^ ` ` ` _ Q Q Q W m N N ! ^ ! ^ m m ` ^ C C  .+.>.@.>.>.1.:.~ 6 ; j.aXdXpXyXV.P.",
"S.K.S.Z.yXkXyXB.S.H.K 8.q.0.:.:.:.:.o.s 3 < u ) %.{ #.#.{ _ { #.| | | | | | #.#.( | | ~ C G  .@.>.u.u.>.>.+.N 6 ; x.dXV.B.P.P.S.",
"|.yXiXK.iXvXaXv.A.H.K 4.q.0.:.=.:.o.G q % % I -.t.t.*.-.*.*.*.t.,.,.,.,.,.,.*.*.*.*.*...B B } @.u.u.;.2. .G u : ; J.xXB.v.S.rXA.",
"S.pXzXaXyXlXiXK.S.x.G.4.o.o.X.X.} G u % $ : I t.t.t.*.*.{ *.*.t.*.r.,.,.,.&.*.*.=.=.-.) s s .. ...2.2.2.g u 3 # ; J.kXaXV.S.S.rX",
"S.S.W.W.Z.S.S.Q.Q.(.).4.N N B ..B u 3 $ & % f ( _ _ _ R _ _ _ _ ( ..| ~ ( ) _ _ / ) ) / V N B G g g g g u 3 % + ; v A.|.K.C.S.Q.",
"|.m.v.B.C.b.b.Q.Z.}.oX4.N s d ~ s w % & $ % 9 a U U U U U U U 9 r y y y r y y 0 a y a M M m N d g g g f q % $ $ 7 c v.Z.Q.S.yXaX",
"|.C.C.A.W.C.C.Q.S.%X%X4.s ..} } d q % & $ > > < , 1 1 1 1 , 1 , > 1 = < 1 2 1 1 1 1 6 e M Z V C ..2.2.f q % O O 7 j.B.S.rXrXpXxX",
"S.|.yXQ.Q.yXrXS.Q.}.}.4.B  .,.$.T q % + + @ X 7 7 7 7 * 7 7 7 7 - - - - ; j j j j h ; j S S ` / $.,.2.g t % + O 7 j.yXyXS.P.gXkX",
"C.Q.rXQ.Z.S.Q.rXP.N.Y.3...$.<.$.T q < O O 1 k c c ).v c k.).).c c c j.v c c j.k.c.j.j.j.b ] ^ ^ #.,.$...t < O O * j.S.S.A.P.rXrX",
"S.Q.|.|.Q.Q.Q.Q.A.z.k.A T $.<.,.T t + & O 7 j.v.b.Z.n.l.M.|.}.M.Z.Z.|.Q.F.m.W.Q.Q.Q.!.R.5.] W ^ #.$.&.T t < O O 7 j.rXQ.P.rXP.S.",
"S.W.Q.Q.rXrXrXQ.W.z.G.S T $.,.&.T t + & X x (.Q.m.v.v.v.n.v.l.Z.!.E.E.Q.Q.Q.Q.W.W.E.Q.~.^.] M ^ $.,.*.T t + & X x Y.Q.Q.Q.rXA.A.",
"|.Q.S.Q.S.A.A.tXrXH.K ` T | *.$.T t <   . l oX X|.M.Z.E.Z.}.XXK.E. X!.|.!.Q.Q.Q.Q.W.W.+X^.S 0 ^ $.r.*.R 5 >   . l '.Q.A.A.rXA.P.",
"|.Q.Q.|.S.A.W.tXP.5.5.W ~ #.*.&.T i > o o 0 &X#X#X#X#X#X#X#X#X.X.X X X XQ.Q.!.Q.!.Q.!.+X6.E 0 W -.=.*.R t < . . l &X+X+X+X+XtXW.",
"S.|.Q.S.Q.Q.Q.A.rXv 3.W ! #.*.&.T r > . O Q &X5X9X8X7X9X6X5X@X@X#X+X+X X XQ.!.!.uX|. X$X/.] Q W { =.-.R r 1 X , E &X0X8X,X,XW.tX",
"|.S.Q.S.rXrXrXW.Q.Y.T.' ! { *.*.R t > 4 ] =X4X7X6X7X7X7X6X7X,X,X#X+X X|.W.rXrXrXQ.tX X+XoX_.3.` [ 9.-.R 9 < 4 E w.2X0X0X6X6XW.W.",
"|.|.S.Q.A.Q.A.Q.W.R.Y.H ! #.=.%.Y < > W =X3X3X7X7X7X7X7X6X5X,X<X#X+X XQ.A.A.rXrXQ.rXyX X XoX6.3.[ 9.-.R < , Q &X0X0X0X0X6X6XW.W.",
"|.S.S.|.Q.Q.A.W.P.A.M.v _ #.=.%.I 4 > [ wXqX5X7X6X2X0X6X,X#X+XOX.X|.rXrXP.A.I.rXS.rXuXQ.!.+X_.4.7.9.-.! < > ` :X8X8X0X0X,X2XW.!.",
"|.Z.Z.S.Q.Q.rXrXW.C.M.3.^ %.=.-.! 2 , ] wXMX8X7X6X6X6X6X#X!.!.W.Q.S.tXtXrXA.I.W.rXA.W.Q.fXjX/.4.9.w.9.! < > ] :X6X,X2X2X,X2XW.W.",
"K.|.|.Q.S.Q.rXrXA.Z.N.H _ %.-.%.! 1 , ` :XwXqX6X,X,X,X#X+X!.W.tXW.W.rXrXQ.A.W.W.Q.Z.Q.|.fX#X'.7.9.w.9._ < < ] &X,X6X1X,X<XjXtXW.",
"Z.pXlXfXQ.S.A.W.A.W.R.3.^ #.-.#.! 4 > ` ;X3X9X,X<X!.!.!.!.W.W.tXrXA.W.Q.W.W.W.Q.Q.W.|.Q.Z.}./.7.7.9.O.Y < , ` :X6X8X,X<XgXnXtXW.",
"uXfXfXuXQ.Q.W.A.W.E.}.3.( X.&.%.! 4 > ` &X4X9X,XOXW.rXrXA.rXA.rXW.A.A.rXrXW.rXrXrXS.|.S.b.x.G.4.4.8.[ ! < % W ;X8X9X9XiXU.vXdXU.",
"bX Xb.F.Q.rXtXtXW.~.R.J ! %.=.%.s 2 # ` ;X7X6X,XOXW.rXrXrXQ.A.Q.rXrXA.W.rXA.A.rXQ.|.|.S.K.x.b J 4.8.O.! < # ` ;X8XMXMX.XU.vXvXvX",
"BXfXb.F.Q.uXrXW.A.E.N.H N / %. .p 2 @ Z ;X7X8X,XOXW.rXrXrXA.C.S.rXP.W.W.rXrXW.W.Q.rXQ.S.yXR.G.J 4.4.{ N < % ` [.6XMXMXNXdXvXVXvX",
"lXfXyXS.W.rXrXA.A.E.M.H s B B ~ f : $ Z ;X6XqX8XOXtXW.A.Q.A.Z.S.A.W.W.A.A.rXW.A.Q.Z.Q.Q.S.L.H.4.D D D f : # Z :X7XqXMXmXmXvXvXvX",
"b.B.W.rXQ.Q.rXA.rXW.M.H f N C } B w % A [.9X9X5XOXW.W.Q.S.|.|.S.S.Q.Q.Q.W.Q.Q.A.Q.A.A.W.S.}.H.P P P P B w % D :X7X1X1XNXmXmX%XL.",
"n.b.W.rXyXS.A.A.W.rXM.H f } :.q.&.f w 4.:X9X9X5XOXW.S.Z.S.iXsX|.S.Q.Q.S.A.A.Q.Q.S.Q.W.S.Q.K.H.P P 6.w.@.B e 4.:X7X2XoX<XvX%XL.m.",
"A.rXrXS.A.A.rXS.S.M.z.J ..>.d.d.p.%.~ 8.:X4X7X@XOXQ.|.|.S.pXvXiXQ.Q.Q.W.S.Q.rXQ.A.W.Q.W.Q.R.H.P /.[.{.AX@.G 7.:X3X0X2X}.n.l.D.|.",
"P.rXS.Q.S.S.A.S.P.K H 4.1.p.d.g.g.a.0.8.w.].4X@X.X|.aXaX|.hXvXiXQ.Q.Q.S.Q.Q.rXQ.rXA.Q.E.J.)././.[.eXAXCXp.q.8.w.w.3X6X}.m.N.R.|.",
"S.S.rXS.S.rXS.S.S.D ^ q.a.d.d.d.g.ZXh.&.a S ].@X.XyXxXxX|.iXkX|.Q.Q.S.Q.rXQ.Q.tXtXrXrXR.G.6.[.eX[.AXAXZXf.s.-.e ` =X1X.XK.A.Q.rX",
"S.A.A.S.S.S.A.S.Q.B } i.g.d.i.u.d.g.g.%.: 8 _.@X XyXxXlXyXB.m.D.Q.Q.S.|.A.A.Q.aXcXtXQ.N.H 4./.eX{.u.u.p.f.f.X.3 9 =X5X%XS.|.rXW.",
"S.Q.S.S.S.Q.rXS.A.N } i.d.p.u.@.1.a.a. .3 8 ].@XXXP.rXyXyXm.v.A.Q.S.Q.|.W.A.Q.gXfXrXQ.z.H P ].[.{.@.@.0.a.a.} 5 0 ].9X.XI.I.I.P.",
"Q.rXK.yXyXS.S.S.S.V / :.p.i.@.2.+.u.i...3 M [.@X|.A.b.b.K.Q.Z.|.rXA.Q.rXrXQ.rXrXtXS.W.M.H D w.{.e.@.+.@.u.u.} 5 M :XNXsXI.P.I.I.",
"|.S.Q.fXhX|.S.Q.kXm N  .:.1.>.+.+.>.:.d 3 M ].@XXXW.F.F.A.rX!.!.Q.W.Q.rXA.rXW.S.A.Q.Q.J.H ^ 8.q.q.@.@.@.0.0.B 2 m eXNXiXaXdXrXI.",
"uXQ.Q.yXaXpXyXyXzXV N } o.:.>.:.;.>.:.d 3 F w.[.'.(.Y.Y.Y.T.Y.Y.Y.(.(.(.z.x.Y.Y.z.Y.(.G.A / } 8.@.u.@.@.>.:.d 3 Z eXjXK.aXdXaXI.",
"Q.S.S.b.C.kXfX|.lX^ C ) ;.:.:.:.:.1.1.~ w w V 4.' S S 3.3.] [ ] ' 3.[ ' A ' 3.3.J A ' Z / ..X.@.@.@.@.@.>.+.f 3 Z oXM.M.!.OXuX!.",
"W.Z.Q.b.W.mXkX|.hXD V X.:.q.1.:.<.1.;.B w 3 q s ( _ ( _ ( ( R R ( ~ ~ ~ ~ ~ ! ! ! ! ( ! T ~ o.q.u.u.G u.@.+.d 3 M ).b.E.|.!.!.!.",
"Q.|.Q.Q.uXlXhXQ.sXm m | <.0.0.<.,.;.} u % < u | *.*.#.%.*.*.*.#.&.$.$.$.&.%.%.%.*.,.,...T T  .;.u.u.@.u.:.} u 3 7 j.Z.|.|.|.|.E.",
"Q.|. X|.S.Z.Z.Z.D.M m X.<.q.:.:.:.o.d w % < i ,.r.t.t.*.t.t.t.t.,.$.$.,.,.=.&.=.t.r.,.#.T T ..;.G u.u.G @.G u % ; v |.K.E.E.Q.|.",
"Q.Q.Q.Q.C.b.m.|.v.m N X.;.X.| &.:.&.d w % % f #.*.#.#.#.#.#.#.#.#.#.| $. .#.X.#.#.#.#...T T  .;.@.@.G u.o.~ y # ; v A.K.Q.Q.!.!.",
"Q.S.Z.W.Z.Z.S.|.Z.^ ^ %.X.~ N } *.&.~ t % % 5 a U I I I I I I I i R i R s s s p I I i i R ..$.,.+.G G G  .B u < ; v S.S.Q.Q.!.Q.",
"S.A.S.S.S.S.S.K.|.[ | %.%.~ f T } | T r 4 + , , < 9 9 1 9 1 9 4 5 4 5 4 6 5 5 6 < 2 4 t I ( *.,. .B B G / s r 1 7 j.A.rXrXQ.W.W.",
"A.S.P.U.S.A.S.K.|.) ) &.*./ s i R ( R a 4 , , , 1 1 = @ = , 1 1 > 1 1 , = : = # O $ @ 4 0 ) *.,. .B s s B s r 4 7 c.A.W.Q.rXW.rX",
"I.I.P.P.V.V.S.yXS./ ( *.*.#.T i s R R r < 6 E 3.b k k n n n b k k k k k k k k h k n k x E ` =.t.X.~ s s s p y 4 7 j.W.A.W.rXrXA.",
"yXU.P.I.V.P.P.V.A.! ( #.*.#.T p R _ R 9 > l *X&XR.R.R.Y.l.~.#X~.M.XXM.b.M.M.M.K.N.M.N.l.H ] -.t.| ! i p ! p 0 > * c I.A.rXI.rXrX",
"vXdXK.V.V.K.U.K.U.! R { #.R U U R R R 9 1 E :X,X~.W.W.W.|.hXxXiXaXkXpXQ.Q.S.S.yXrXS.P.E.5.3.{ 7._ y 9 U _ _ U 4 * c K.S.S.P.W.A.",
"VXxXaXK.U.dXU.K.A.m I _ R U < 9 U R U 9 , Q &X,X X!.!.!.Q.|.S.Z.gXVXhXQ.S.S.S.A.S.S.rXXX_.] Q E 0 > 4 0 U _ U 4 * j.S.S.rXrXA.W.",
"vXvXvXsXdXxXsXK.S.Q i 9 4 O O , 4 9 9 X X 0 *X0X<XOX+XOXOXXXM.}.fXnXlXgXXX.X.X.X.X.XOX$X_.E l 0 > X X 1 9 9 1 X 7 j.W.S.|.yXS.S.",
"VXmXvXxXxXvXdXK.K.S M 9 , . . X , 1 , X X l *X0X,X,X,X,X,X,X@X,X<XNX,X,X<X<X<X9X@X<X@X1X7.E 9 1 , O X , 1 , X X l Y.|.|. X|.S.A.",
"jXjXmXmXmX.X X|.Q.5.H ' E l l Q Q Q E Q l 7.;X3XqX0X0X0X0X0X7X0X7X7X7X7X7X7X3XwX6X9X5X4X&X7.z j l 3.] ] Q Q 0 l 7.oX.X|.XXXXS.S.",
"l.XXNXmXsXm.m.K.S.}.R.).`.&X&X&X;X;X:X;X*X;X4X3X0X0X0X0X0X0X7X7X6X7X7X3X7XwX7X7X7X,X,X,X#XR.T.l.(.5XwX:X:X:X=X;X:X3X@X#X|.|.S.rX",
"l.Y.XXXXR.M.L.XXQ.|.Q.XX+X$X,X2X4X7XMXqX4X5X5X2X7X2X6X6X5X5X,X5X5X,X5X5X4X3X5X9XqX,X+X#XOX!.W.R.~.OX,X2X4X2X3X3X2X5X5XjXfX|.S.S.",
"c.l.x.l.N.|.XX|.Z.Z.rXuXQ.Q.tXQ.U.K.kXkXaXyXS.W.~.W.!.W.A.A.W.A.rXA.S.K.K.K.K.dXbX!.W.W.!.W.tXW.W.n.n.W.C.n.E.S.|.S.yXzXlXyXA.S."
};
