/* XPM */
static char *_551d8ab78294d7edb9123d6b2131114bN3nCNwYnqynv9XB[] = {
/* columns rows colors chars-per-pixel */
"32 32 220 2 ",
"   c #36363F",
".  c #532D28",
"X  c #52332D",
"o  c #502B3B",
"O  c #553A32",
"+  c #5C3D34",
"@  c #5D3E3C",
"#  c #4D3833",
"$  c #613D2A",
"%  c #653B38",
"&  c #5D423C",
"*  c #5D4C3C",
"=  c #64433D",
"-  c #6B443C",
";  c #63493D",
":  c #6B4D3D",
">  c #694435",
",  c #72453C",
"<  c #744C3E",
"1  c #052F52",
"2  c #083B5D",
"3  c #133D5F",
"4  c #043B64",
"5  c #133E65",
"6  c #4B3C44",
"7  c #4C3F4B",
"8  c #543B46",
"9  c #3D4B5E",
"0  c #0C436A",
"q  c #034469",
"w  c #114669",
"e  c #164A6F",
"r  c #184666",
"t  c #0D4C76",
"y  c #084D79",
"u  c #134B74",
"i  c #1C4C72",
"p  c #0C557F",
"a  c #0D5A7B",
"s  c #095276",
"d  c #14537B",
"f  c #1B557D",
"g  c #13587E",
"h  c #1C597E",
"j  c #165476",
"k  c #20486E",
"l  c #3E4962",
"z  c #3B546C",
"x  c #204C70",
"c  c #265678",
"v  c #355E7F",
"b  c #4B4348",
"n  c #5B4344",
"m  c #5D4B44",
"M  c #58474A",
"N  c #5D5142",
"B  c #4A4D5C",
"V  c #464851",
"C  c #554C53",
"Z  c #5C4C52",
"A  c #544E5B",
"S  c #5B4F59",
"D  c #5A525C",
"F  c #585358",
"G  c #634443",
"H  c #6B4542",
"J  c #644B44",
"K  c #6B4C44",
"L  c #63444B",
"P  c #644A4A",
"I  c #6C4C4A",
"U  c #6D4748",
"Y  c #734C44",
"T  c #734B4A",
"R  c #7B4D4C",
"E  c #784A46",
"W  c #65514B",
"Q  c #6D534C",
"!  c #6C564A",
"~  c #72534B",
"^  c #7A534B",
"/  c #74584E",
"(  c #795648",
")  c #654B53",
"_  c #6B4E51",
"`  c #634C5F",
"'  c #734D51",
"]  c #734751",
"[  c #655253",
"{  c #6D5554",
"}  c #6C5B51",
"|  c #63545B",
" . c #6B5C5C",
".. c #67565C",
"X. c #745452",
"o. c #7C5653",
"O. c #745A54",
"+. c #7B5B54",
"@. c #755C5B",
"#. c #7C5B5A",
"$. c #785559",
"%. c #636056",
"&. c #7C615A",
"*. c #72645A",
"=. c #4B546C",
"-. c #4D556A",
";. c #5A5B65",
":. c #585665",
">. c #475B73",
",. c #5A5D72",
"<. c #6C5D61",
"1. c #675D69",
"2. c #765763",
"3. c #7B5D63",
"4. c #735962",
"5. c #5F636C",
"6. c #4D6271",
"7. c #55647C",
"8. c #5C6477",
"9. c #6A666B",
"0. c #7B6264",
"q. c #7D6A65",
"w. c #7D6B6A",
"e. c #746469",
"r. c #6A6773",
"t. c #646C74",
"y. c #686B75",
"u. c #7D6F74",
"i. c #746875",
"p. c #7C757C",
"a. c #73737B",
"s. c #814D49",
"d. c #845654",
"f. c #845C5B",
"g. c #815A55",
"h. c #82615B",
"j. c #836254",
"k. c #826C66",
"l. c #866967",
"z. c #87706F",
"x. c #826B76",
"c. c #817071",
"v. c #0C5B85",
"b. c #0E5B8A",
"n. c #095582",
"m. c #145584",
"M. c #1B5683",
"N. c #145B85",
"B. c #1B5B84",
"V. c #12578A",
"C. c #155C89",
"Z. c #1A5C8B",
"A. c #0D5D94",
"S. c #125D91",
"D. c #195C90",
"F. c #245E89",
"G. c #215982",
"H. c #0F618D",
"J. c #146085",
"K. c #1E6186",
"L. c #15618B",
"P. c #1B618A",
"I. c #096196",
"U. c #156392",
"Y. c #1A6391",
"T. c #216383",
"R. c #2A688E",
"E. c #356689",
"W. c #266995",
"Q. c #346A93",
"!. c #3E7D93",
"~. c #3476A2",
"^. c #466987",
"/. c #576B86",
"(. c #5C7185",
"). c #4A7395",
"_. c #55799A",
"`. c #636B80",
"'. c #7C6F89",
"]. c #64738A",
"[. c #687787",
"{. c #7A7B85",
"}. c #677C97",
"|. c #727F97",
" X c #487DA4",
".X c #5F879D",
"XX c #7B858F",
"oX c #6B879B",
"OX c #74849A",
"+X c #5A84A3",
"@X c #5D89A3",
"#X c #5286A7",
"$X c #5388B1",
"%X c #6385A3",
"&X c #6C89A5",
"*X c #6289A9",
"=X c #6D8CAA",
"-X c #6587A4",
";X c #798EA8",
":X c #6B91AE",
">X c #7893A7",
",X c #638CB1",
"<X c #6692B3",
"1X c #6B95B4",
"2X c #6696BB",
"3X c #7A96B7",
"4X c #709CBD",
"5X c #7998BA",
"6X c #6193C0",
"7X c #898894",
"8X c #908D9F",
"9X c #88929C",
"0X c #8795AB",
"qX c #9398A8",
"wX c #839CB8",
"eX c #89ACBE",
"rX c #99A2B2",
"tX c #9EABC2",
"yX c #A1ABC1",
"uX c #A9B4CA",
/* pixels */
"I #.& } Q G ' #.X.+ > < ( H #._ L X.h.> $ > ^ Y , E , , o.o.@ X.",
"o.X.O.; Q P L $.X.J ~ H O.{ M Z 7 Z [ Q Q J I ~ I = I @ X.X.Q X.",
"H - ~ O W @.) 6 M *. .<.b ;.5.9 OXrX:.F 9.e.Z 7 i.p.S 6 Z n I I ",
"^ ^ + Q W S :.7X{.1.a.,.7.>X=X1X_.z >X].8.5.t.qX7.>./.`.r.u.{ +.",
"+.= &.w.i.B tX0X}.OX].}.3Xv w h q 2 x 5X}.}.;X^.*X1X_.=XuX7Xn K ",
"I { P | B OX_.r 3 ^._._.k 0 t s s g 0 x ).).c 4 u 4 u +X/.V [ I ",
"& P n 7 yX_.u t t 4 5 5 i f N.N.N.N.j w 2 e f m.W.p ~.<Xz {.0.K ",
"n @.0.1.OXE.t n.n.d G.i c B.N.J.N.g K.j u F.C.C.N.Z.f _.;XA ) . ",
"K h.0.C ].*Xq U.p B.M.B.B.B.N.N.N.N.B.B.M.Z.P.C.C.B.e %X[.7 I R ",
": > H ..,.:XR.v.P.h f N.N.N.C.m.C.Z.N.L.J.N.V.N.Z.j @XoXB | G R ",
"> ^ z.9.7.1Xd p P.j K.N.C.Z.Z.C.C.C.C.C.N.C.C.Z.g Q.<Xz r.@.~ T ",
"s.G A >.4XF.m.B.N.J.J.C.C.N.N.C.C.C.C.C.C.v.H.N.M.Z.6X}...l.+.{ ",
"R L   >X).0 B.Z.N.N.J.N.C.C.C.C.C.C.C.C.C.b.v.K.K.m.B.=Xp.K = { ",
"- 0.7XoXr 0 m.Z.C.N.C.C.C.C.C.C.C.C.C.C.N.L.N.M.N.C.m.%X{.Q P ) ",
"+.{ ;.>Xr u m.Z.Z.N.C.C.C.C.C.C.C.C.C.C.C.C.B.B.N.v.~.1XV q.l.L ",
"Q m V (.1Xf m.Z.D.C.C.C.C.C.C.C.C.C.C.C.C.Z.B.M.N.H.v.#XXX{ G 8 ",
"J w.p.=._.$Xt Z.C.D.Z.C.C.C.C.C.C.C.C.C.C.C.F.M.N.H.y v 9X# $.2.",
"/ @.| -.&XE.N.C.C.Z.Z.C.C.C.C.C.C.C.C.C.C.C.B.T.N.U.y <Xt.{ I ) ",
"+.G | 8X&Xi B.N.C.V.Z.C.C.C.C.C.C.C.C.C.N.L.N.g g Y.m.%Xa.@.P n ",
"^ = ) A |.+Xd N.L.C.Z.C.C.C.C.C.C.C.C.C.C.b.L.N.B.m.F.&X9.X ~ @.",
"< ^ 3.1.l 1XR.N.C.Z.Z.C.C.C.C.C.C.C.C.C.C.v.H.g B.B.6X/.Z / ; { ",
": Y l.x.-.@XT.a L.C.Z.Z.C.C.S.A.S.S.b.C.Z.Z.B.L.v.W.2X>.i.0.K : ",
"~ +.G 8 7XeX!.a N.C.Z.B.N.C.C.C.b.C.C.C.B.B.B.v.H.v.#X;X:.0.+.( ",
"~ & I [ a.`..X#Xg C.N.B.B.B.B.B.B.B.B.M.M.P.N.N.C.d 1 }.qXZ & Y ",
"K ~ P q.b D -.=X Xv.H.S.C.B.M.h j d B.Z.C.b.U.Z.R.,X/.[.5.M O.X.",
"#.Q J J k.x.i.=.4Xa I.A.A.V.Z.M.R.Q.d N.U.H.N.Q.5X/.qXt.9. ._ ' ",
"' P ! ! K T o '.%Xj n.A.S.m.f  X4X2X$Xm.V.y E.3X=.:.C b %.q.~ T ",
"G #.J Q Y E ] ` OX*X2X XE.*XwX}.9 z &X-X<X@X>X-.e.3.&.! * / g.d.",
"@ #.&.~ - R #.4.A [.6.[.qXa.C <.c.w.F a.:.{.;.| { f.j.j.+.( ^ % ",
"J K o.. ^ K l.z. .M u.m m & X h.~ ~ O X k.[ Z @.O + Y ( ^ ^ K K ",
"&.= H T H O.m m O.f.o.+.+ X.G H U % = &./ f.T + ! & / Y % Y X.O.",
"W I d.f.I J *.N ~ R d.K Q @.3.L 2.3.P I @.o.- / *.! & f.R U O.} "
};
