/* XPM */
static char *result[] = {
/* columns rows colors chars-per-pixel */
"47 24 133 2 ",
"   c #050201",
".  c #0C0202",
"X  c #0C0907",
"o  c #060508",
"O  c #07090C",
"+  c #0C0D0D",
"@  c #130503",
"#  c #1C0706",
"$  c #140906",
"%  c #1A0A06",
"&  c #150C0A",
"*  c #1B0D0B",
"=  c #16110E",
"-  c #1C100E",
";  c #1C1312",
":  c #240F0D",
">  c #25120D",
",  c #2A140E",
"<  c #241512",
"1  c #2C1513",
"2  c #261916",
"3  c #2D1A16",
"4  c #241C1A",
"5  c #2B1D19",
"6  c #351611",
"7  c #341914",
"8  c #3A1D17",
"9  c #341E1B",
"0  c #3C1D19",
"q  c #27201F",
"w  c #2D211D",
"e  c #33221D",
"r  c #3C231C",
"t  c #2E2321",
"y  c #342422",
"u  c #3A2420",
"i  c #352824",
"p  c #3D2C25",
"a  c #3A2D2C",
"s  c #3D312E",
"d  c #3A3432",
"f  c #451B13",
"g  c #4A211A",
"h  c #402420",
"j  c #432A24",
"k  c #4B2C24",
"l  c #432D29",
"z  c #4D2E29",
"x  c #552821",
"c  c #552F29",
"v  c #42322C",
"b  c #4B342D",
"n  c #583027",
"m  c #54342D",
"M  c #5B3229",
"N  c #5C392E",
"B  c #443330",
"V  c #4D3632",
"C  c #4C3933",
"Z  c #473F3A",
"A  c #4E3F39",
"S  c #5C3732",
"D  c #523B34",
"F  c #5C3A34",
"G  c #543D3C",
"H  c #5C3E39",
"J  c #67342A",
"K  c #643C33",
"L  c #6A3E35",
"P  c #613C3A",
"I  c #6E3E3B",
"U  c #713F33",
"Y  c #5C4036",
"T  c #54403B",
"R  c #5D423B",
"E  c #654035",
"W  c #6D4236",
"Q  c #65423A",
"!  c #6C433C",
"~  c #64483F",
"^  c #754237",
"/  c #74453A",
"(  c #7B463C",
")  c #76493D",
"_  c #7B493D",
"`  c #5B4541",
"'  c #5A4C46",
"]  c #5C4F4B",
"[  c #6B4640",
"{  c #6C4942",
"}  c #654E49",
"|  c #6B4D4A",
" . c #724641",
".. c #7B4741",
"X. c #744B43",
"o. c #7B4B42",
"O. c #734E48",
"+. c #7E4F49",
"@. c #6D544E",
"#. c #73514C",
"$. c #7E534E",
"%. c #6A5552",
"&. c #6E5D55",
"*. c #786461",
"=. c #796965",
"-. c #80473E",
";. c #814A3E",
":. c #824E42",
">. c #874F48",
",. c #855347",
"<. c #84524A",
"1. c #88574A",
"2. c #87594F",
"3. c #825553",
"4. c #835A53",
"5. c #885C56",
"6. c #835C5A",
"7. c #8D5B5A",
"8. c #905C53",
"9. c #8F6056",
"0. c #84615A",
"q. c #8D625D",
"w. c #936356",
"e. c #94625C",
"r. c #9E655D",
"t. c #9C6A5D",
"y. c #826F6C",
"u. c #886C6F",
"i. c #9B6962",
"p. c #8D7169",
"a. c #A16E66",
"s. c #978177",
"d. c None",
/* pixels */
"d.d.d.d.d.d.d.d.d.d.d.d.d.d.d.d.d.d.d.d.d.d.d.d.d.d.d.d.d.d.d.d.d.d.d.d.d.d.d.d.d.d.d.d.d.d.d.",
"d.d.d.d.d.d.d.      y B * d.d.d.d.d.d.d.d.d.d.d.d.d.d.d.d.d.d.d.d.d.d.d.d.d.d.d.d.d.d.d.d.d.d.",
"d.d.d.d.d.d.  . @ @ 1 u.%.@ d.d.d.d.d.d.d.d.d.d.d.d.d.d.d.d.d.d.d.d.d.d.d.d.d.d.d.d.d.d.d.d.d.",
"d.d.d.d.d.d.  . . @ < e %.: @ 2 w & d.d.d.d.d.d.d.d.d.d.d.d.d.d.d.d.d.d.d.d.d.d.d.d.d.d.d.d.d.",
"d.d.d.d.d.d.. = $ $ e , R m e { @.u B a . d.d.d.d.d.d.  . $ & . . d.d.d.d.d.d.d.d.d.d.d.d.d.d.",
"d.d.d.d.d.  = q i l r 0 n N N X.!  .4.H 9 : $ .     X 2 v V D V k 1 % $ d.d.d.d.d.d.d.d.d.d.d.",
"d.d.d.d.  . < v G b z k Q K ! o./ ( ..x K { R r , 3 v Y R Q { 5.q.#.~ k % d.d.d.d.d.d.d.d.d.d.",
"d.d.d.    - e &.b e b Q ! K K ..../ ) U / ) ) X.Q Y R Y F K / ) o.o.) X.j @   d.d.d.d.d.d.d.d.",
"d.d.. . @ 9 1 u @.0.Q [ 3.L M ..) / ) _ _ ;._ ^ W E E K W ^ ^ _ -.;.( _ E > . d.d.d.d.d.d.d.d.",
"d.d.. @ G ` z P 6.7.I 7.3.f c L E / ) _ 1.t.1._ ) ) ) / ) ) _ ;.-.-.-._ Q p % X d.d.d.d.d.d.d.",
"d.d.* s *.} z b S [ O.I 8 k P E W ) o.^ U 2.2.X...-...o._ / ( _ ;._ ( ) Q D 3 w X d.d.d.d.d.d.",
"d.d.= d i > 2 @ > 9 z 7 e D E n ) _ o.L f g M W ( :.....) / / _ _ ) o.o.! j e R >   d.d.      ",
"d.d.  o =   o . @ , r m C D L J ,.-...c 6 M / o.;.) E D b z K _ <.e.8. .H 2 * v p 3 2 ; X   d.",
"d.d.d.o   o     X v G V p D ! 7.r.,.! , l R ) ,.:.X.b * = 3 6 K 7.a.<.! 9 . d.% T ' B 5 *   d.",
"d.d.d.d.d.d.d.d.@ a l p 2 > N e.i.+.[ > 5 D H ! K r % . $ 2 r g +.e.O.f . d.d.d.< ; $   d.d.d.",
"d.d.d.d.d.d.d.d.d.$ * 2 X . 1 X.5.O.D # $ 5 C j % . .   o + w m  . .F 1   d.d.d.d.d.d.d.d.d.d.",
"d.d.d.d.d.d.d.d.d.. . . .   . 8 S R * @ d.d.d.d.d.d.d.d.O + = 9 P 6.H 1 $   d.d.d.d.d.d.d.d.d.",
"d.d.d.d.d.d.d.d.d.d.  X .   . z S 3 d.d.d.d.d.d.d.d.d.d.d.. ; @ : O.| V d 4 d.d.d.d.d.d.d.d.d.",
"d.d.d.d.d.d.d.d.d.d.d.@ * . @ } H $ d.d.d.d.d.d.d.d.d.d.d.d.. : > % 2 R y.] . d.d.d.d.d.d.d.d.",
"d.d.d.d.d.d.d.d.d.d.d.; i $ 2 %.v @ d.d.d.d.d.d.d.d.d.d.d.d.@ V l @ @ b %.< d.d.d.d.d.d.d.d.d.",
"d.d.d.d.d.d.d.d.d.d.d.4 < $ e e & d.d.d.d.d.d.d.d.d.d.d.@ 4 u 3 - $ i l @ d.d.d.d.d.d.d.d.d.d.",
"d.d.d.d.d.d.d.d.d.d.d.4 C &.C & d.d.d.d.d.d.d.d.d.d.; a B R 2 % e A B % d.d.d.d.d.d.d.d.d.d.d.",
"d.d.d.d.d.d.d.d.d.d.d.Z p.p.C . d.d.d.d.d.d.d.d.d.d.q C } u * ] ' =.3 . d.d.d.d.d.d.d.d.d.d.d.",
"d.d.d.d.d.d.d.d.d.d.d.* 9 9 : d.d.d.d.d.d.d.d.d.d.d.$ # 3 @ . t 2 a d.d.d.d.d.d.d.d.d.d.d.d.d."
};
