/* XPM */
static char *result[] = {
/* columns rows colors chars-per-pixel */
"64 64 225 2 ",
"   c #040100",
".  c #0B0100",
"X  c #0B0903",
"o  c #0C0D0A",
"O  c #08070B",
"+  c #130200",
"@  c #1A0402",
"#  c #140A04",
"$  c #1A0A03",
"%  c #190D0A",
"&  c #1C130B",
"*  c #161407",
"=  c #1B1A17",
"-  c #0C160A",
";  c #220403",
":  c #250C04",
">  c #240E0A",
",  c #2B0602",
"<  c #350D07",
"1  c #24120C",
"2  c #2A120C",
"3  c #2C1005",
"4  c #37130E",
"5  c #241412",
"6  c #291814",
"7  c #3C1C14",
"8  c #3C1E1A",
"9  c #321710",
"0  c #35241D",
"q  c #3C221C",
"w  c #37271A",
"e  c #262615",
"r  c #3B2522",
"t  c #352A22",
"y  c #3B2924",
"u  c #392926",
"i  c #3B3827",
"p  c #451C14",
"a  c #431E1A",
"s  c #4A1D18",
"d  c #561D16",
"f  c #442017",
"g  c #42231C",
"h  c #4A241D",
"j  c #432622",
"k  c #422C24",
"l  c #472A27",
"z  c #4A342C",
"x  c #5D382D",
"c  c #4A3532",
"v  c #553C35",
"b  c #5D3C34",
"n  c #5C3E3C",
"m  c #513F3B",
"M  c #4B2E30",
"N  c #68382D",
"B  c #633D33",
"V  c #6B3C34",
"C  c #6A3E3A",
"Z  c #643B36",
"A  c #763E34",
"S  c #3A4B32",
"D  c #5D4136",
"F  c #554239",
"G  c #5C433C",
"H  c #544639",
"J  c #56543E",
"K  c #644237",
"L  c #6B4035",
"P  c #62433B",
"I  c #6C443B",
"U  c #6E493F",
"Y  c #60483E",
"T  c #744336",
"R  c #74453C",
"E  c #7B453B",
"W  c #74493D",
"Q  c #7B493D",
"!  c #794035",
"~  c #5C4541",
"^  c #5B4A44",
"/  c #5A4C47",
"(  c #575945",
")  c #6C4742",
"_  c #604C44",
"`  c #6D4C45",
"'  c #654C49",
"]  c #684A47",
"[  c #7A4640",
"{  c #754B43",
"}  c #7B4B43",
"|  c #7A4E49",
" . c #724C48",
".. c #6B524C",
"X. c #655249",
"o. c #73524B",
"O. c #7A524A",
"+. c #785146",
"@. c #596444",
"#. c #57784A",
"$. c #4C7346",
"%. c #617450",
"&. c #7D7B6C",
"*. c #81453C",
"=. c #814A3E",
"-. c #824B42",
";. c #834641",
":. c #81554A",
">. c #9A645D",
",. c #A3695E",
"<. c #9C6B64",
"1. c #936D6B",
"2. c #9C6E6A",
"3. c #936B64",
"4. c #8C736C",
"5. c #9A746D",
"6. c #8B7A73",
"7. c #947A76",
"8. c #9B7A77",
"9. c #8D6766",
"0. c #A26D64",
"q. c #A86962",
"w. c #A6736B",
"e. c #A47470",
"r. c #2A9E2E",
"t. c #239D27",
"y. c #2B9432",
"u. c #2F9F31",
"i. c #349D3A",
"p. c #26A52A",
"a. c #2BA42D",
"s. c #2AAA2E",
"d. c #20A123",
"f. c #2CA331",
"g. c #2DAC32",
"h. c #26A230",
"j. c #31A535",
"k. c #33AC34",
"l. c #34AB3A",
"z. c #3BAD3C",
"x. c #3CAA37",
"c. c #2FB134",
"v. c #33B235",
"b. c #3BBB36",
"n. c #35B53A",
"m. c #3BB53C",
"M. c #36BC3D",
"N. c #3BBC3E",
"B. c #36BA36",
"V. c #41BD3C",
"C. c #42B939",
"Z. c #37C13E",
"A. c #3BC13D",
"S. c #39C136",
"D. c #43C13E",
"F. c #49C33D",
"G. c #44C83E",
"H. c #37B740",
"J. c #3BB542",
"K. c #36BD41",
"L. c #3CBD42",
"P. c #3FB749",
"I. c #3EBD49",
"U. c #3FAE45",
"Y. c #42B645",
"T. c #41BD43",
"R. c #42BD4A",
"E. c #49B949",
"W. c #42AC47",
"Q. c #7FAD73",
"!. c #36C141",
"~. c #3CC143",
"^. c #3EC149",
"/. c #42C244",
"(. c #49C546",
"). c #4BCA45",
"_. c #44C44A",
"`. c #4BC54B",
"'. c #46C94B",
"]. c #4BCB4D",
"[. c #42C841",
"{. c #53C947",
"}. c #52CD4C",
"|. c #53C84B",
" X c #4ED04D",
".X c #53D24D",
"XX c #5AD24E",
"oX c #4CCC52",
"OX c #49C953",
"+X c #55C653",
"@X c #53CD53",
"#X c #5BCE5B",
"$X c #54CC57",
"%X c #4ED256",
"&X c #53D355",
"*X c #5BD453",
"=X c #5BD955",
"-X c #56D35A",
";X c #5BD55B",
":X c #54D95B",
">X c #5CDA5C",
",X c #57D955",
"<X c #60CE5B",
"1X c #62D956",
"2X c #64DC5B",
"3X c #69DE5D",
"4X c #61D558",
"5X c #67E25D",
"6X c #5DDC62",
"7X c #5CD763",
"8X c #5ECB60",
"9X c #63D562",
"0X c #64DD63",
"qX c #69DD62",
"wX c #6CDC6B",
"eX c #69E268",
"rX c #97887C",
"tX c #A4887D",
"yX c #9B8B82",
"uX c #B19F9B",
"iX c #A6A78C",
"pX c #BDAAA9",
"aX c #CEB0B2",
"sX c #CDABAA",
"dX c #ECD5CF",
/* pixels */
"M.L.T.M.N./.~.N.M.N.~./.~.N.N.N.~.~.K.~.!.L.K.L.M.^.n.'.7X-XT.n.J.I.L.R.7X%XK.K.N.Z.~.Z.N.~.~.n.N.D.N.V.V.N.N.J._.T.L.L.L.I.I.H.",
"N.N.V.N.V.L.N.N.N.L.~./.'./.N.N.M.L.~.~.K.M.M.K.N.L.L.L.T.].oX`.I.I.L.L.OXOXK.K.^.Z.Z.M.M.M.N.[.).V.N.N.V.N.C.J.T.T.T.T.L.P.K.I.",
"/.V.N.L./.N.L.N.L.N.N.'.&X'.M.N.M.K.~.~.M.M.~.K.L.L.R.n.f.T.#X'.A./.N.b.N.D.~.A.A.b.b.A.[.D.b..X1XG.C.D.D.F.V.b.N.C.D.N.A.N.N.Z.",
":X'.N.N.N.N.N./.N.N.N.&X>X'.M.~.K.M.K.L.H.~.~.K.L.L.L.H.m.oX7XoX/.}.).N.M.N.A.A.N.b.b.D.}.).V.).5XXXF.D.)..XF.V.N.N.N./.N.N.N.~.",
"eX&XV.M.N.N.N.N.N.~.~./.]./.N.~.~.M.K.M.K.~.~.K.N.N.m.L./.'.]._.'.>X@XN.C.V.b.N.N.b.C.F.XX4X{.{.5X5X4XF.*X1X(.b.A.N.M.M.A.N.N.A.",
"6X%X/.N.N.T.V.M.N./.~.c.v.M.L.N.~.!.L.K.L.~.K.~.L.L.L.L.L.g.g.n.).2X}.V.N.b.V.V.C.V.V.V.{.2X2X2X1X3X4XXX=X*X(.M.A.A.A.Z.N.N.A.N.",
"A./.~.N./.].'.N.N./.N.v.s.M.N.N.K.~.!.^.'.^.n.L.L.^.N.N.L.k.g.n._.oX_.L.L.H./.T.L.Y.V.E.T.`.qXwX3XE.+X<X$XT.L.L.L.'.OX^.H.I.I.L.",
"d.c.M.N.'.&XoXN.N.M.N.D.N.~.L.M.Z.~.~.^.:X].N.N.n.^.M.N./.L.H.L.L.R.H.L.L.N._.T.L.T.Y.T.u.u.$X9X<XC.C.<XE.s.k.L.I.-X7X^.H.I.^.J.",
"n.v.m.V.~./././.N.N.M.V.L.N.N.N.L.~.oX^.B.M.L./.L.L.L.L.L.L.L.M.I.K.K.I.!.^.I.I.K.H.K.P.J.z.l.l.x.u.r.j.l.H.L.L.!.^.^.^.I.I.I.I.",
"T./.T.N.M.N././.N.m.N.L.T.N.N.N.L.OX6X_.s.n.^.L.N.N.L.~.L.L.L.L.K.I.K.K.^.!.K._._.P.K.P.T.J.j.f.u.u.a.j.l.P.R.L.K.K.K.~.I.K.I.I.",
"N.N.T./.V.N.N.M.N.N.N.N.~.L.N.A.n.'.6X&Xn.N.^.N.n.~.N.N.N.N.N.N.M.~.M.M.!.Z.Z.'.:X'.H.n.L.L.N.N.m.z.m.m.m.N.V.N.n.N.N.N.A.~.K.H.",
"V.m.N.T.V.N._.].(.~.N.N.L.V.L./.L.L.L.L.n.^.L.N.N.A.~.N.N.N.N.N.Z.!.M.M.!.Z.Z.^.'.^.M.K.L.L.L.^.E.T.T.T.T.N.N.A.L.N.^.'.'.^.n.H.",
"/.L.N.N.N.T.@X&X/./.N.N.N.V.L./.L.v.s.g.N.T.m.T.T.V.N.L.N.N.N./.A.S.Z.A.M.S.Z.Z.Z.Z.Z.Z.Z.M.M.N.N.m.T.T.N.T.D.N.S.A.)..X].G.M.N.",
"N.C.V.m./.&X(.k.N.N.N.N.N.N.N.N.N.L.n.n.T.T.N.L.N.N.N.N.M.N.~.N.A.M.Z.S.B.Z.Z.Z.!.Z.Z.Z.Z.!.!.L.T.L.V./.T.V.A.b.N.]. XN.v.A.A.N.",
"L.(.`.T.'.>X(.p.M.N.N./.N.N.N.N.L.T.T.L.m.T.T.V.N.N.(.'.N.M.N.m.S.B.M.Z.M.Z.!.Z.!.!.Z.!.~.K.!.K.!.n.L.L.T.N./.(.D.*X=Xv.p.N./.M.",
"N.`.>X(.(.;X`.V.N.N.N./.L.N.~./.T.m.V.T.N.L./.m.V.T.&X:X/.N.T.B.M.~.M.!.!.Z.M.Z.!.!.!.!.M.K.K.!.K.I.I.H.M._.&X=X[.].,X(.b.M.M.D.",
"L.N.N.H.N.n.L.L.L./.].%X].~.L.^.L.N.N.L.N.N.(.`.(.C.XX2XXXF.C.{.).b.b.b.). XZ.B.N.~.~.~.~.N.N.Z.L.M.L.I.L.J.T.T.H.J.M.T.N.m.N.N.",
"T.k.a.n.n.g.g.L.N.'.O   :X  . L.L.L.m.N.T.N.(.;X*XT.*X3X*XXX{.*XXXF.b.F.,X,XN.N.M.Z.A.~.~.Z.L.M.I.L.L.L.L.m.l.g.m.k.s.m.L.M.T.'.",
"L.n.n.n.N.n.n.L.N.].    . + pX. L./.N.M.N.m./.>X0X&X4X0X3X0X4XqX&X(.m./.>X,XL.N.N.N.~.K.M.M.L.L.N.n.N.L.L.N.M.m.L.m.n.N./.A.].>X",
"N././.L.L./.^.N.Z._.    . . 7.aX+ T.L.N.T.N.L.(.&XqX@X@X2XqXqX|.V.T.N.N./.(.N.L.N.N.L.K.n.L.K.I.L.N.N.L.L.N.T./.L.T./.~.N.N.'.,X",
"m.L.T.L.n.L.L.L.!.Z.  X   > ~ aXn . N.T.. + . . . ;XJ.l.+X0X9Xz.k.m.R.J.g.g.H.L.L.L.L.I.H.~.I.^.L.N.M.N.~.N.N.N.M.N.~.N.M.A.~.~.",
"n.L.L.L.~.L.L.L.Z.  - X . y 4 9.8.j . + 2 ' 7.~ @ + . . z.T.W.z.m.m.T.T.k.n.    .       I.I.I.H.M.N.'.oX'.~.N.^.N.N.N.N.N./.Z.N.",
"N.L.L.T.L.L.~.M.      t + 8 < C 2.g q Y j `  .j q 4.7.$ . . a.J.R.J.J.T.    + % 5 6 + + . . . n.N./.oX%X].L.N.~.^.N.N.~.Z.L.M.N.",
"/.L.L.L.N.M.K.    & 5 r j P s C 2.h v a {  .[ C 1.{ b j q + . + .   . . + t H ~ F G G n j > $ .   N.I././.L.n.L.L.N.N.M.M.Z.M.~.",
"L.L.L.T.N.n.K.. t X.6...D K C V Z { b K W Q } N Q | p p { ` ..q @ @ $ 0 F H G Y D +.3.5.3.O.` D $ . L.H.K.K.K.K.L.H.K.K.H.L.K.L.",
"L.T.L.L.^.L.. . y 0 + : g K x I B U K N +.Q E ! E Q V } { { U O.` D F D G D v K D T } } +.U W +.v 5     P.L.K.K.~.L.K.I.K.M.K.~.",
"L.L.N.N.  . + $ + dX+ ..D P B B K W U x Q Q =.=.E =.N ! E | [ [ { P K D D x B B T T T ! =.=.R -.W 0 %     I.I.P.K.K.I.^.^.H.M.~.",
"T.L.    X 5 0 2 Y 4.j b b b P B +.K K L R Q =.A ! *.=.-.R R } R L B B B B L L L T Q =.E =.=.Q =.{ v 1 + . K.L.L.^.K.K.K.L.L.L.L.",
"T.  . + $ _ j l 7 x ` 5.5.B Z | 5.g D K B V V N =.! -.Q <.w.W } E } } Q E W R Q Q Q =.=.E *.Q =.} P 0 $ &   N./.L.L.M.N.N.N.N.~.",
"T.. + . ..y g `  .P { +.U W { 3.h 7 K b B V N R =.+.T T :.>.w.} } } Q } W Q Q Q Q Q Q Q =.-.E T R D P + 9 * L.L.M.L.L.N.M.N.N.N.",
"N.T.. %.X.~ ~ q 4 3 7 q P O.{ | f h G D K Z { { W W :.f +.+.} } ) ;.*.-.+.Q Q W N Q E E E Q Q Q } b G 3 F i . . n.N.N.N.~././.N.",
"m.].-X. u + $ + t 0 y G v P b a h D D P B p } W +.} W f < < h N A ;.*.=.+.U +.W L W Q =.Q E Q } { P r 2 J X.S * . . . Z.'.    b.",
"_.OXoX_.      .     X # w ~ j b 8 b ) Z { d *.R } [ { , 9 B } E E ;.E V b H H F G } [ =.*.0.0.{ Z n 6 + w @.' ..i : : .       F.",
"0X/.g.g.~.^.~.^.L.L.^.~.X . ~ l ..9 n a } ;.q.;.[ } , g v Z R } 0.;.Q ) F X X # @ s [ >.,.0.[ { ) r   P.@ i @.F G D _ ( /   o 1X",
"eXoXg.c.~.^.~.Z.H.~.~.n.L.. #.+ ' > > ~ | >.w.q.} | , , G Z ) ) { [ O.n . . & y l ; h ;.q.e.:.] r X   T.N..   #.#.%.i e . . 3X2X",
"%X%X/.N.N.^.^.n.K.K.!.~.N.X & + u 6 $ 8 ) e.<.2.{  .> @ y G v b P n 1 $   + X + r 8 h R } 0. .8 .   V.L.N.L.N.  .   X . . 3X4X4X",
"g.n.K.I.L.L.L.!.L.L.!.~.N.n.X X + . . > _ 2.3.|  ...2 @ % t m ^ 0 #   . .     O # n a |  .C n l . L./.M.M.V.T.T.N.j.n.#XeX9XE.C.",
"p.g.n.^./.N.K.n.!.~.L.L.L.~.~.X O O   @ 8 { 8.R | ' + . . . . . .   L.L.L.  o 6   + _ Z ) C n @ . . T.N.N.N.T.T.T.k.k.P.+X`.C.u.",
"N.N.~.N.M.M.L.L.M.N.Z.M.N.~.~.N.K.O   % > + @ 4 ) y . T.N.`.;X(.N.L.L.N.K.L.O O = = . 2 8.1.b j r + . L.L.J.T.Y.Y.Y.U.j.r.r.U.U.",
"~.~.~.N.N.N.N.N.Z.Z.L.~.M.M.M.Z.I.L.  5 + @ + o.` 0   ]./.$X0X|.L.L.L.L.N.L.K.O o = . . + 7. .] 4 rXM . P.L.J.T.Y.T.J.H.j.j.U.P.",
"N.N.~.N.N.~.N.N.N.N.~.N.~.N.~.M.M.Z.  & 5 + + ` o.5   &X/.`.&XV.L.L.N.L.~.L.L._.    . & . + @  .3.pXrX+ /.R.C.V.T.T.V.V.L.B.K.~.",
"M.M.n.N.N.N.M.N.L.~./.M.M.N.M.~.Z.K.  c @ . 9 tXD * X >X(.v.k.m.L.L.L.T.L.M.L._.%X  & w   + + ; rXiX* @ oX;XE.m.C.E.T.N.m.^.~.K.",
"N.N.N.N.N.L.~.N.M.N./.N.N.N.N.~.L.. % ~ $ . w ` k . ~._.T.k.a.M.L.L.N.T.L.n.L.'.. ; X.^ # + . g l 3 . V.}.2XXXF.F.F.G.S.S.S.Z.S.",
"L./.N.(./.N.N.N.N./.~.~.~.N.Z.N.o $./ . # Y z 2 .   s.s.L.N.m./.L.N.L.L.^.L.  . c l ; . . * i @.+ . &X).|.2X2XXXF.).XXG.S.S.S.A.",
"T.N.L.oX@XL.L.T.&X@XL.n.L.L.L.- S ( . 1 F X.k . ~.M.v.c.M.^.L.L.I.M.K.!.  i k ' Z + + $ u / /   /.*X2X$XXX2XqX1XXX1X1X).~. X~.S.",
"/.L.L./.].(.T./.7X;XL.n.N.L.L.L.$.. 6.yXrX4.k . K.L.~.L.N.n.L.L.K.!.~.  $./ ~ ~ c . m / ^ ' 1 . /.(.*X3X4XXX4X3X5X=X}.A.[.,X XZ.",
"L.L.L.g.N.-XoXT.:X;XL.N.N.L.L.L.( . ~ yXX.rX+ ~.K.M.K.~.L.M.M.!.~.!.~.X P.& rX& . . uX@ pX&.e . m.k.Y.;X|.m.|.qX;XE.k.z.R._.^.I.",
"L.m.L.f.N.6X&XT.&X7X/.L.L.M.L.L.. . + . . + . ~.~.K.M.L.!.K.M.I.!.M.M.- # .       . . . + . . T.Y.j.l.T.j.r.C.(.T.x.j.U.R.L.I.I.",
"L.R.L.J.`.-X@XL.@X@X(.T.N.M.D.N.!.K.!.K.K.I.L.N.L.L.R.R.L.L.L.L.~.N.M.K.~.~.K.K.K.M.K.K.K.M.N.L.T.L.n.s.t.t.t.p.p.k.m.T.T.L.T.J.",
"L.L.R.L.m.m.m.m.v.m.N.N.N.N.~.N.K.!.K.I.K.K.L.L.T.L.L.L.L.L.L.L.N.L.M.L.!.L.M.M.K.K.L.~.~.M.L.~.T.L.L.n.n.z.n.l.m.J.Y.T.N.Y.Y.T.",
"L.L.L.T.n.s.k.T.a.s.N.T.L.L.L.L.!.K.Z.~.M.N.L.N.L.L.I.I.N.L.L.L.L.^.^.N.L.~.L.Z.K.M.~.~.~.K.L.~.L.Z.n.I.R.L.T.N.T.L.N.L.N.L.I.I.",
"n.N.N.L.N.m.N.T.m.m.T.T.N.L.L.L.I.!.N.Z.~.Z.N.N.J.L.L.L.N.N.N.T.L.L.L.K.K.~.L.K.K.!.K.!.~.L.K.K.N.n.N.L.L.L.L.T.T.N.m.V.L.L.I.I.",
"L.N.N.N.N.N.N.T.T.N./.P.H.L.J.P.~.M.Z.Z.A.A.~.N.N.L.N./.@X].V.m.~.L.N.~.'.'.Z.M.N.M.Z.Z.N.Z.~.~.Z.N.N.~.M.M.L.^.~.N.M.~.~.L.K.K.",
"M.M.A.~.N.M.N.V.T.L.L.P.R.I.I.I.Z.~.M.M.Z.~.Z.N.N.L.L._.oX@XT.N.N.N.N.(.&X].~.N.~.N.~.M.Z.!.Z.M.Z.N.N.Z.L.L.L.L.N.N.N.Z.~.K.K.K.",
"S.A.A.S.b.b.N./.N.T.L.OX%X^.K.I.A.L.N.Z.Z.A.~.Z.L.L.L.n.v.T.}.].M.~.N.N.'./.~.N.~.N.M.M.!.!.!.Z.N.b.N.N.L.L.N.N.M.N.N.N.M.Z.~.!.",
"[.[.S.b.b.D.A.b.N.N.J.%X7XOXP.I.N.~.~.M.M.Z.M.!.M.N.^.n.s.(.2X(.D.(./.M.N.~.L./.N.N.N.M.Z.Z.!.Z.N.N.A.N.L.N.N.N.N.Z.Z.M.~.~.!.K.",
"=X.XV.b.b.V.F.N.V.m.N.&X6XOXJ.I.L.n.~./.B.B.!.M.K.I.I.H.^.#X&X|./.:X'.N.D.V.N./.T.N.L.~.M.Z.!.!.V./.V.N./.T.V.N./.N.T.N.N.~.N.K.",
"5X=X(.N.F.).[.V.V.N.V.N.N.L.I.P.N.L./.^.M.K.M.K.!.I.H.I.L.T.m.m.].6X&XA.M.N.N.M.N.N.N.~.Z.M.!.M.N.].`.T.n.T.].`.V.N.N.N.Z.~.L.M.",
"2X0X0X|.}.;X}.V.N.V.D.v.p.n.~.I.L.T.N.L.^.~.L.^.I.K.K.P.L.n.s.v.'.:X XZ.M.V.T.N.L.V.N.N.!.~.!.M.T.*X;X_.L.`.$X@XV.m.V.V.N./.M.N.",
"eX0X2X=X>X2X}.V.V.b.N.n.v.H.~.L.L.L.~.oX&X].L.I.K.I.P.J.L.H.n.N.~.~.~.A.N.N.T.T.N.V.L.N.K.~.!.!.T.@X$X/.OX$XT.l.N.V.T.N.N.N.N.M.",
"+X<X9XwX2X+XT.T.V.V.M.N.~.~.M.~.N.N.'.`.(./.T.J.L.^.L.L.~.L.N.Z.Z.M.S.N.N.N.V.T.N.T.N.L.K.K.K.!./.7X$XR.$X7XH.g.m.V.V.N.N.N.N.N.",
"y.Y.8XwX+Xk.x.V.V.T.N.M.~.N.M.L.N.L.&X[.s.g.m.L.P.I.I.P.^.~.M.L.Z.M.!.N.N.D.V.T.T.V.L.L.M.M.M.K./.-X-XP.OX7XR.T.m.L.V./.N.N.L.D.",
"y.i.W.W.W.x.W.T.T.T.~.N.L.L.K.~.M.D.>X.XB.n.m.V.L.L.H.I.~.M.M.Z.Z.N.~.N.N.T.V._.oXT.L.L.K.M.!.K.P.R.L.J.J.J.R.T.N.V.T.].].N.N.N.",
"y.y.i.i.i.Y.Y.T.m.m.~./.L.~.~.K.A.A.&X&X).[.V.L.J.L.L.L.M.n.Z.Z.Z.M.N.A.N.m.N.@X;X/.N.L.K.~.!.!.H.g.h.J.z.h.J.L.T.m.(.>X,X/.n.M."
};
