/* XPM */
static char *result[] = {
/* columns rows colors chars-per-pixel */
"47 24 136 2 ",
"   c #050201",
".  c #0C0302",
"X  c #0D0906",
"o  c #0E0A09",
"O  c #130403",
"+  c #180706",
"@  c #120906",
"#  c #1A0A06",
"$  c #10070B",
"%  c #140B0A",
"&  c #1B0D0B",
"*  c #1D110E",
"=  c #141211",
"-  c #1D1413",
";  c #210B05",
":  c #280E06",
">  c #230F0D",
",  c #280F0A",
"<  c #24120F",
"1  c #2E100B",
"2  c #3C160E",
"3  c #241312",
"4  c #2A1512",
"5  c #251915",
"6  c #2B1B16",
"7  c #261E1B",
"8  c #2C1C19",
"9  c #361613",
"0  c #311914",
"q  c #3B1B14",
"w  c #331C1A",
"e  c #3C1C19",
"r  c #33221D",
"t  c #3C221C",
"y  c #3F281E",
"u  c #352522",
"i  c #3B2624",
"p  c #362A25",
"a  c #3C2925",
"s  c #431B18",
"d  c #45261C",
"f  c #4A221D",
"g  c #442621",
"h  c #442B25",
"j  c #4A2B24",
"k  c #442C28",
"l  c #4C2C2C",
"z  c #542723",
"x  c #522C24",
"c  c #592F26",
"v  c #502E28",
"b  c #42352E",
"n  c #4C322B",
"m  c #4C3A2D",
"M  c #5D3026",
"N  c #51342E",
"B  c #5B352D",
"V  c #58382F",
"C  c #443234",
"Z  c #4A3632",
"A  c #453834",
"S  c #4F3930",
"D  c #4E3F3A",
"F  c #533632",
"G  c #533A34",
"H  c #5C3B33",
"J  c #533E3A",
"K  c #5A3E3A",
"L  c #60332C",
"P  c #643D35",
"I  c #6B3C35",
"U  c #613E3A",
"Y  c #6B3A39",
"T  c #733E3B",
"R  c #5B4035",
"E  c #53413C",
"W  c #5C423B",
"Q  c #624034",
"!  c #6A4135",
"~  c #64423B",
"^  c #6D433C",
"/  c #6D483B",
"(  c #714437",
")  c #74453C",
"_  c #7C463B",
"`  c #754A3C",
"'  c #7B4A3C",
"]  c #5F4440",
"[  c #5D4A42",
"{  c #654744",
"}  c #6D4642",
"|  c #654944",
" . c #6D4A42",
".. c #6C4C49",
"X. c #714742",
"o. c #7C4642",
"O. c #744B42",
"+. c #7B4B42",
"@. c #714F48",
"#. c #7C4D49",
"$. c #7D504C",
"%. c #6B4F50",
"&. c #765754",
"*. c #7C5855",
"=. c #7A565A",
"-. c #7C5D5A",
";. c #73615C",
":. c #7A625B",
">. c #7F6A64",
",. c #80453D",
"<. c #804B3C",
"1. c #894747",
"2. c #834C45",
"3. c #825246",
"4. c #83524C",
"5. c #89544B",
"6. c #8F5351",
"7. c #845952",
"8. c #935750",
"9. c #925B55",
"0. c #955D5B",
"q. c #94625D",
"w. c #9F615E",
"e. c #856465",
"r. c #8D6C66",
"t. c #846F6A",
"y. c #896B6B",
"u. c #9C6663",
"i. c #9E6B62",
"p. c #8C716A",
"a. c #9C716D",
"s. c #917573",
"d. c #A16565",
"f. c #A36A63",
"g. c #A86967",
"h. c None",
/* pixels */
"h.h.h.h.h.h.h.h.h.h.h.h.h.h.h.h.h.h.h.h.h.h.h.h.h.h.h.h.h.h.h.h.h.h.h.h.h.h.h.h.h.h.h.h.h.h.h.",
"h.h.h.h.h.h.      3 C 4 h.h.h.h.h.h.h.h.h.h.h.h.h.h.h.h.  h.  h.h.h.h.h.h.h.h.h.h.h.h.h.h.h.h.",
"h.h.h.h.h.. . . . & =.e.3 h.h.% & . %   h.h.h.h.h.h.h.. - * # + O . h.h.h.h.h.h.h.h.h.h.h.h.h.",
"h.h.h.h.h.. $ $ . 4 9 ..u . > W ..r E 3 . . < + O . < b J K } ^ v 0 *   h.h.h.h.h.h.h.h.h.h.h.",
"h.h.h.h.h.  % & @ 6 1 B J w B O.^ P N h n j ^ l y a m R H ^ 5.9.5.@.W 8 . h.h.h.h.h.h.h.h.h.h.",
"h.h.h.h.  % 5 u a d t d H B o.2.) ` ! ( #.#.+.+.! ~ Q Q P I _ <._ +.@.R =   h.. 3 < w & % h.h.",
"h.h.h.h.X 7 u A G G j H P Y +.<._ ( ( ' ,.,.,.) ! ! ! ! ( ' <._ <._ o.X.t @ < 1 W | | R u . h.",
"h.h.  $ 5 a >.5 j H P ` ^ L +.' ( ` ` 3.8.8.5.' ' +._ ` ' ' ' ' ' _ +.) B 4 J W { F w 3 3 - $ ",
"    & r w 4 E :.@.I T #.#.f / Q Q / O.` q.w.3.` ` ' O.O.` ( ' ' _ ' _ ) Y 9 F W 6 & h.. X $ . ",
"  & %.U l F | r.#.T 0.0.z j U P / O.( c P I c +.3.` ` ` / / +.+.<.5.' ) j < & @ h.h.h.h.h.h.h.",
"7 D y.=.F h N U } #.#.f e U U B ` +.) 2 q x X.9.5.` B d j U o.6.w.f.+.V 6 @ h.h.h.h.h.h.h.h.h.",
"5 i i 3 & 3 & 6 g N e 6 F ~ Q x o.+.x 2 V ! O.2.#.O.R 1 ; q Y d.f.q.O.m %   h.h.h.h.h.h.h.h.h.",
"h.. $ - $ X X & 4 h J N H V R / 2.1.Y , n U ! / { R r & 6 0 s 2.u.7.H 3   h.h.h.h.h.h.h.h.h.h.",
"h.. = o     h.h.> p D n j h m O.0.u.X.: r K W G 8 @ .   @ r j ^ 4.X.t . h.h.h.h.h.h.h.h.h.h.h.",
"h.h.h.h.h.h.h.h.h.h.& > > < 5 W a.q.} : # r 3 > . h.h.o % & j ~ } P e # . h.h.h.h.h.h.h.h.h.h.",
"h.h.h.h.h.h.h.h.h.h.h.  . . . 6 ..*.{ + . . h.h.h.h.h.  o & > e @.-.H w # h.h.h.h.h.h.h.h.h.h.",
"h.h.h.h.h.h.h.h.h.h.h.h.    . . & k ] > . h.h.h.h.h.h.h.  X < O w -...l S u h.h.h.h.h.h.h.h.h.",
"h.h.h.h.h.h.h.h.h.h.h.h.h.  . .   6 [ e O h.h.h.h.h.h.h.h.  X @ . 3 k K s.t.@ h.h.h.h.h.h.h.h.",
"h.h.h.h.h.h.h.h.h.h.h.h.h.  $ . . O G G & h.h.h.h.h.h.h.h.h.    @ O O w e.k . h.h.h.h.h.h.h.h.",
"h.h.h.h.h.h.h.h.h.h.h.h.h.% $ *   . 8 F j @ h.h.h.h.h.h.h.h.h.. * # O < j > O h.h.h.h.h.h.h.h.",
"h.h.h.h.h.h.h.h.h.h.h.h.  @ 3 * . h.O e N 3 . h.h.h.h.h.h.h.h.X 3 p & O k j u h.h.h.h.h.h.h.h.",
"h.h.h.h.h.h.h.h.h.h.h.h.& 5 > . h.h.O n &.b O h.h.h.h.h.h.h.. p D E & & b [ a h.h.h.h.h.h.h.h.",
"h.h.h.h.h.h.h.h.h.h.h.. r w 4 X h.h.X >.r.E . h.h.h.h.h.h.h.X ] K Z # [ | ;.] h.h.h.h.h.h.h.h.",
"h.h.h.h.h.h.h.h.h.h.h.  $ + % h.h.h.h.h.w h.h.h.h.h.h.h.h.h.. = > > . 8 5 a 8 h.h.h.h.h.h.h.h."
};
