/* XPM */
static char *result[] = {
/* columns rows colors chars-per-pixel */
"47 24 148 2 ",
"   c #040201",
".  c #0B0302",
"X  c #040805",
"o  c #0B0905",
"O  c #0C0A08",
"+  c #140503",
"@  c #1A0503",
"#  c #130906",
"$  c #190A05",
"%  c #130A09",
"&  c #1C0D0B",
"*  c #1B110C",
"=  c #1C1211",
"-  c #1F1916",
";  c #240705",
":  c #210B06",
">  c #210D08",
",  c #2D0F0F",
"<  c #23120D",
"1  c #2B110A",
"2  c #33130F",
"3  c #39170B",
"4  c #241412",
"5  c #2E1711",
"6  c #251A15",
"7  c #2C1A15",
"8  c #251C1B",
"9  c #2C1C1B",
"0  c #341511",
"q  c #341D17",
"w  c #3B1C17",
"e  c #331D1A",
"r  c #3A1C1A",
"t  c #2D211C",
"y  c #3F2116",
"u  c #33211F",
"i  c #3C231D",
"p  c #2F2120",
"a  c #322322",
"s  c #3B2522",
"d  c #372B24",
"f  c #3D2924",
"g  c #3D2D2A",
"h  c #3F322D",
"j  c #392E30",
"k  c #402114",
"l  c #44251E",
"z  c #442623",
"x  c #442A24",
"c  c #4D2D23",
"v  c #422C29",
"b  c #4E2C29",
"n  c #522620",
"m  c #552C26",
"M  c #5B2E23",
"N  c #453026",
"B  c #4A3127",
"V  c #43312D",
"C  c #4C332C",
"Z  c #4F392D",
"A  c #553026",
"S  c #54342C",
"D  c #5C332A",
"F  c #52382F",
"G  c #5E392E",
"H  c #433432",
"J  c #4A3532",
"K  c #413A33",
"L  c #4B3C36",
"P  c #473839",
"I  c #543531",
"U  c #5D3531",
"Y  c #533A34",
"T  c #5A3C35",
"R  c #523C3E",
"E  c #5B3D3B",
"W  c #63362E",
"Q  c #63392F",
"!  c #643C33",
"~  c #6A3D33",
"^  c #633E3B",
"/  c #693B38",
"(  c #713E36",
")  c #524135",
"_  c #5C4035",
"`  c #5C423C",
"'  c #644236",
"]  c #6D4035",
"[  c #62433A",
"{  c #6C433B",
"}  c #6F4A3F",
"|  c #74443C",
" . c #7B463C",
".. c #734C3F",
"X. c #7C493E",
"o. c #553F40",
"O. c #524444",
"+. c #5B4541",
"@. c #644342",
"#. c #6A4341",
"$. c #624A42",
"%. c #6B4942",
"&. c #654C49",
"*. c #724542",
"=. c #7F4741",
"-. c #744B42",
";. c #7B4A42",
":. c #734F48",
">. c #61504C",
",. c #6B534A",
"<. c #755046",
"1. c #785347",
"2. c #74514B",
"3. c #7C524C",
"4. c #685652",
"5. c #665A53",
"6. c #755357",
"7. c #795352",
"8. c #755D57",
"9. c #715859",
"0. c #7B5A59",
"q. c #756157",
"w. c #7E6862",
"e. c #834D3E",
"r. c #834C44",
"t. c #894F47",
"y. c #804F4B",
"u. c #835147",
"i. c #80524C",
"p. c #8A534D",
"a. c #8C5652",
"s. c #825B55",
"d. c #8A5A54",
"f. c #935954",
"g. c #985D5B",
"h. c #89655D",
"j. c #936151",
"k. c #91615E",
"l. c #9C655C",
"z. c #826F6E",
"x. c #9D6761",
"c. c #9B6B62",
"v. c #9D7167",
"b. c #A06562",
"n. c #A26866",
"m. c #A76C6A",
"M. c #96867A",
"N. c None",
/* pixels */
"N.N.N.N.N.N.N.    . 7 9 N.N.N.N.N.N.N.N.N.N.N.N.N.N.N.N.N.N.N.N.N.N.N.N.N.N.N.N.N.N.N.N.N.N.N.",
"N.N.N.N.N.N.N.  . + e z.O.N.N.N.N.N.N.N.N.N.N.N.N.N.N.N.N.. N.. N.N.N.N.N.N.N.N.N.N.N.N.N.N.N.",
"N.N.N.N.N.N.  . + + , J 9.& N.. & & + % N.N.N.N.N.N.N.  # = < & + + . N.N.N.N.N.N.N.N.N.N.N.N.",
"N.N.N.N.N.  o 6 = + e , #.v + 7 &.@.r ` $ . # 4 . . o < L E ^ *.^ z 7 $   N.N.N.N.N.N.N.N.N.N.",
"N.N.N.N.N.  & d a e r w D D y ` :./ { ' B N b #.c x f ) ` T ..d.d.u.-.T 4 . N.N.N.N.N.N.N.N.N.",
"N.N.N.    = L V V ` C l ! W G <.;.| r. .{ <.-.;.;.*.' _ T ' ' ;.X.X.X.;.C #   N..   N.N.N.N.N.",
"N.    X 4 9 d 5.7 l T _ %.~ { ..X. . .X.X.X.X.e.| / { ~ ~ |  . .X. .X.X.[ 7 + < d 6 . N.N.N.N.",
". 4 g V i r r &.h.{ ' ] <...Q X.| |  . .t.f.f.p.=.=.X.=.r. .X.X.X. .X.X.[ c : C $.+.f & N.N.N.",
"9 R 6.6.E I / y.k.%.*.a.s.l M { ] ]  .X.r.x.x.r.X. .X.;.;. .| X. .=. .;.{ F 0 T E E &.o.a N.N.",
"# % 8 H z v i s #.3.s.S l c D ' ' | X.~ M / W W ( u.X.| ..{ | r.e.r.u.| [ i 5 4 @ + 9 o.P % N.",
"N.N.N.% % a & @ z T z 1 m ` _ T Q X.;.Q 3 k A ;.a.l.| S i m { r.f.b.x.| Y * # N.N.N.. & 8 - o ",
"N.N.N.O . # H $ > s C I E ^ ` T A X.X.W y T @.*.g.a.*.Z $ > w ;.n.m.a.%.v o N.N.N.N.N.N.N.X X ",
"N.N.% j = % % . o 9 J [ F T U /  .e.e.W 2 U o.#.;.*.Y 6 * t 2 l p.c.2.F = X N.N.N.N.N.N.N.N.N.",
"N.N.N.% % . N.N.  < v Y N c z ! 3.l.j.W ; v o.@.I z # . o * l M =.y.' 5   N.N.N.N.N.N.N.N.N.N.",
"N.N.N.N.N.N.N.N.N.N.u s J 7 < e 2.v.p._ ; = a 4 & @ N.N.O O < S *.#.U 0 + . N.N.N.N.N.N.N.N.N.",
"N.N.N.N.N.N.N.N.N.N.N.# # o   % d %.1._ =   . N.N.N.N.N.X % 4 4 l 0.7.b q # N.N.N.N.N.N.N.N.N.",
"N.N.N.N.N.N.N.N.N.N.N.N.N.  X   o + q C 9   N.N.N.N.N.N.N.  O & $ d ` &.Y e 7 # N.N.N.N.N.N.N.",
"N.N.N.N.N.N.N.N.N.N.N.N.N.N.  X     # H 6 .   N.N.N.N.N.N.N.  X # . # e Y $.w.a N.N.N.N.N.N.N.",
"N.N.N.N.N.N.N.N.N.N.N.N.N.N.X o X N.N.e H 7 o N.N.N.N.N.N.N.N.  X o * + : :.8.& N.N.N.N.N.N.N.",
"N.N.N.N.N.N.N.N.N.N.N.N.N.N.% * % N.N.= f I 5   N.N.N.N.N.N.N.N.N.. * > @ @ x 7 . N.N.N.N.N.N.",
"N.N.N.N.N.N.N.N.N.N.N.N.N.. $ < O N.N.N.: C x + N.N.N.N.N.N.N.N.N.o & l , + e J g # N.N.N.N.N.",
"N.N.N.N.N.N.N.N.N.N.N.N.N.$ < < . N.N.N.7 ,.$.4 N.N.N.N.N.N.N.N.N.p I ` 5 # f +.P = N.N.N.N.N.",
"N.N.N.N.N.N.N.N.N.N.N.N.N.N.9 & + N.N.N.K M.q.6 N.N.N.N.N.N.N.N.N.K L ` $ V 5.4.&.g N.N.N.N.N.",
"N.N.N.N.N.N.N.N.N.N.N.N.N.. + # N.N.N.N.o t 6 N.N.N.N.N.N.N.N.N.N.= & 5 o = p 9 a % N.N.N.N.N."
};
