/* XPM */
static char *result[] = {
/* columns rows colors chars-per-pixel */
"64 64 230 2 ",
"   c #040100",
".  c #0B0100",
"X  c #0D0A05",
"o  c #070C07",
"O  c #130201",
"+  c #1A0401",
"@  c #120B03",
"#  c #1C0B03",
"$  c #150B0A",
"%  c #1B0C0A",
"&  c #12060A",
"*  c #1C130C",
"=  c #151309",
"-  c #191412",
";  c #0E1907",
":  c #220401",
">  c #240B02",
",  c #2C0B03",
"<  c #230E0B",
"1  c #2B0E0B",
"2  c #2B0500",
"3  c #24130D",
"4  c #2A120B",
"5  c #26160B",
"6  c #341409",
"7  c #251411",
"8  c #2A1513",
"9  c #241916",
"0  c #2C1913",
"q  c #2A1B1A",
"w  c #3B1F1C",
"e  c #371914",
"r  c #320C01",
"t  c #282817",
"y  c #33221B",
"u  c #3D241C",
"i  c #362423",
"p  c #3D2623",
"a  c #3C2B24",
"s  c #342825",
"d  c #383A26",
"f  c #2F2121",
"g  c #431E19",
"h  c #481C15",
"j  c #44231B",
"k  c #44271C",
"l  c #51241B",
"z  c #492421",
"x  c #432B25",
"c  c #452924",
"v  c #4C332E",
"b  c #47312A",
"n  c #59392D",
"m  c #4B3734",
"M  c #543934",
"N  c #5C3C34",
"B  c #5C3E3A",
"V  c #563833",
"C  c #653A2F",
"Z  c #69362B",
"A  c #643C34",
"S  c #6B3C34",
"D  c #643D3A",
"F  c #673A37",
"G  c #733C36",
"H  c #39522E",
"J  c #276924",
"K  c #5C4236",
"L  c #54423B",
"P  c #5C433B",
"I  c #564738",
"U  c #56493D",
"Y  c #644135",
"T  c #63433B",
"R  c #6B423A",
"E  c #6A483C",
"W  c #744236",
"Q  c #75453C",
"!  c #7C453C",
"~  c #75493D",
"^  c #7B4A3D",
"/  c #7A4637",
"(  c #47683F",
")  c #5C3F41",
"_  c #5B4542",
"`  c #5B4A45",
"'  c #56594A",
"]  c #644442",
"[  c #6B4543",
"{  c #664B44",
"}  c #6B4D44",
"|  c #644E49",
" . c #6B4E4C",
".. c #744542",
"X. c #7B4642",
"o. c #744B42",
"O. c #7C4B43",
"+. c #744D49",
"@. c #7C4C49",
"#. c #6B534D",
"$. c #685249",
"%. c #765046",
"&. c #7A5146",
"*. c #74524C",
"=. c #7A524C",
"-. c #665352",
";. c #6A5854",
":. c #795652",
">. c #4C6742",
",. c #597349",
"<. c #556F46",
"1. c #60644C",
"2. c #81493D",
"3. c #80473E",
"4. c #83503F",
"5. c #814C43",
"6. c #834A47",
"7. c #825043",
"8. c #84514C",
"9. c #83594D",
"0. c #9D6B5D",
"q. c #A66E5D",
"w. c #9D6663",
"e. c #986D68",
"r. c #8A776C",
"t. c #98716A",
"y. c #8B7673",
"u. c #8C7874",
"i. c #947674",
"p. c #816B60",
"a. c #A36B65",
"s. c #A76A68",
"d. c #A4726D",
"f. c #A27067",
"g. c #A97872",
"h. c #2B9D2E",
"j. c #219C27",
"k. c #2B9432",
"l. c #2F9F31",
"z. c #349D3A",
"x. c #26A52A",
"c. c #2BA42D",
"v. c #2AAA2E",
"b. c #20A123",
"n. c #2CA331",
"m. c #2DAC32",
"M. c #26A230",
"N. c #31A535",
"B. c #33AC34",
"V. c #34AB3A",
"C. c #3AAD3B",
"Z. c #3CAA37",
"A. c #32B235",
"S. c #3BBB36",
"D. c #35B43A",
"F. c #3BB53C",
"G. c #36BC3D",
"H. c #3BBC3E",
"J. c #36BA36",
"K. c #2FB133",
"L. c #41BD3C",
"P. c #43BC37",
"I. c #37C13E",
"U. c #3BC13D",
"Y. c #39C136",
"T. c #43C23E",
"R. c #49C33D",
"E. c #44C83E",
"W. c #3AB542",
"Q. c #36BD41",
"!. c #3CBD42",
"~. c #3EBD49",
"^. c #3BB745",
"/. c #3FAE45",
"(. c #42B644",
"). c #41BD43",
"_. c #42BD4A",
"`. c #49B84A",
"'. c #42AC47",
"]. c #788A70",
"[. c #6CB766",
"{. c #36C141",
"}. c #3CC143",
"|. c #3EC14A",
" X c #42C244",
".X c #49C645",
"XX c #4BCA44",
"oX c #44C44A",
"OX c #4AC54B",
"+X c #46C94B",
"@X c #4BCB4D",
"#X c #42C841",
"$X c #52CE4C",
"%X c #52C848",
"&X c #4DD04D",
"*X c #53D24D",
"=X c #5AD24E",
"-X c #4CCC52",
";X c #4AC853",
":X c #52CD53",
">X c #5BCE5B",
",X c #55C856",
"<X c #4ED256",
"1X c #53D355",
"2X c #5BD553",
"3X c #5CD955",
"4X c #55D35A",
"5X c #5BD65A",
"6X c #54D95B",
"7X c #5CDA5C",
"8X c #56DA55",
"9X c #62DA56",
"0X c #64DC5B",
"qX c #69DE5D",
"wX c #61D558",
"eX c #60CE5B",
"rX c #66E25D",
"tX c #5DDC62",
"yX c #5CD763",
"uX c #5ECB60",
"iX c #64D562",
"pX c #65DD63",
"aX c #6BDD67",
"sX c #69E367",
"dX c #9B897D",
"fX c #9D8F83",
"gX c #BDA49D",
"hX c #B7A6A2",
"jX c #C7B3B2",
"kX c #D8D0C3",
/* pixels */
"G.!.).G.H. XH.G.G.L.}. X}.H.H.H.}.!.Q.}.!.{.Q.G.!.~.H.+XyX4X).F.W.~.^.oX6X<XQ.Q.Q.Q.}.}.G.I.}.G.H.L.H.L.L.F.L.F.oX(.!.!.~.|.!.^.",
"H.H.L.H.H. X!.H.H.!.}. X+X XH.H.Q.!.}.}.Q.G.!.Q.G.!.^.!.).;X-XOX!.~.!.!.-X;X!.Q.}.{.I.G.G.H.I. X.XT.S.H.L.H.!.W.).).).).^.^.!.!.",
" XL.H.!. XH.H.!.!.H.H.+X1X+XG.H.G.Q.}.}.G.Q.!.Q.!.~.~.D.n.).4XOX}.T.H.H.U.T.}.U.T.S.S.T. XT.S.*X9XR.P.P.T.R.L.S.H.L.T.H.I.H.!.}.",
"6X+XH.H.H.H.H.).H.H.H.1X7X@XG.!.Q.G.Q.!.G.!.}.G.H.H.Q.H.F.-XyX-X X$X.XH.G.H.U.H.S.J.S.T.*XXXP.XXrX3XXXT.XX*XT.P.H.L.H.T.U.G.H.}.",
"sX1XT.G.H.H.H.H.H. X}. X@X XH.}.}.G.Q.G.Q.}.}.Q.H.H.F.~. X+X-X X.X7X*XL.H.H.P.S.S.S.P.).2X3X%X%X9XrXwX.X=X9XXXH.U.S.G.H.H.S.H.}.",
"tX<X XH.H.).L.G.H. XU.A.K.G.H.!.}.{.!.Q.!.!.Q.!.H.~.H.!.Q.B.m.A.XX7X*XH.P.H.P.H.L.L.P.).%X9XqX0X9XqXwX=X9X2X.XH. XU.I.Q.H.H.H.I.",
"}. XH.H. X@X+XH.!.!.H.A.v.G.!.G.Q.}.{.|.+X|.H.!.H.}.!.Q.!.B.m.F.oX<XoX^.!.Q. X).!.).L.`.).`.aXaXqX`.,XuX,X).!.!.!.+X;X{.^.!._.^.",
"b.K.G.H.+X1X-XH.H.G.H.!.H.T.!.G.G.}.}.|.6X&XH.H.G.~.G.H.).!.H.!.Q._.W.).Q.W.oX).(.).).).c.N.,XiXeXP.P.>X_.c.B.!.|.<XyX|.Q.!.oX^.",
"D.A.F.L. X X X XH.H.H.H.L.H.H.H.!.~.-X|.J.G.!.}.!.!.!.!.!.!.!.H.^.Q.Q.~.{.|.{.~.^.^.^.^.^.C.V.V.Z.l.h.N.D.F.^.~.~.|.|.|.~.~.~.~.",
" X).).H.G.H. X XH.H.G.!.!.!.H.H.!.@XtXoXv.D.}.~.!.H.!.!.!.!.!.!.!.~.^.Q.|.{.Q.+XoX~.^.~.(.W.B.c.l.l.c.N.V.^.|.!.Q.Q.Q.~.Q.~.~.~.",
"D.H.L. XL.H.H.G.H.H.H.L.}.).H.).H.oXtX<XD.Q.).H.G.H.H.U.H.H.G.H.I.{.G.G.}.I.I.|.6X+XG.G.!.!.H.H.F.F.F.F.D.H.).S.G.G.H.H.!.}.^.G.",
"L.L.H. X).F. X-X X XH.H.H.H.H. XQ.H.}.!.G.!.~.H.H.H.!.H.H.H.H.H.G.{.G.I.{.I.I.|.+X{.G.Q.!.!.!.~.`.(.).(.).L.H.U.H.H. X+X+X}.D.Q.",
" X).H.H.H.).-X1X X X}.H.H.L.}.).!.A.v.m.H.).F.).).L.H.!.H.H.!. XU.U.U.I.G.Y.I.I.{.I.I.I.I.G.G.H.H.H.).).H.).T.S.U.U..X&X+XT.G.U.",
"H.F.L.F. X1X.XB.H.H.H.H.H.H.H.H.H.H.F.D.).).H.F.H.H.H.H.G.H.!.H.U.Y.Y.U.J.I.I.I.}.{.I.G.G.{.{.!.).!.L.).).L.U.H.S.&X*XS.A.U.}.S.",
"). XOX).+X0X.Xc.D.H.H.!.H.H.H.}.).).).!.!.).).L.H.H..X@XH.H.L.H.G.G.G.G.G.I.I.I.{.I.{.{.{.{.Q.Q.Q.Q.Q.). XH.oXXXT.1X3XA.x.H. XS.",
"H.@X7X.X X5X@XL.G.H.T.}.).H.H. X).D.).).F.!.).L.H. X:X6X XH.!.L.G.I.U.I.{.I.G.I.{.{.{.{.Q.G.{.}.Q.~.!.F.H. X:X8X X@X3X.XG.H.G.}.",
"H.F.Q.H.F.F.!.~.!. X@X  . . ^.O . Q.H.!.!.H.).$X.XL.=X0X=XR.P.%XXXS.S.L.XX&XI.D.H.I.}.}.}.H.G.H.^.!.^.!.!.W.).).W.!.H.).!.D.H.).",
").B.c.A.D.m.m.H.H.+X      O O u.-.. F.Q.).L..X4X=X).2XqX9X=XR.wX=XT.S.R.8X8XU.S.G.H.}.}.}.I.!.{.}.!.!.!.^.F.B.m.F.B.c.D.!.G.L.+X",
" XD.D.G.Q.F.D.!.H.+X  X . O . x jXu.. G.Q.H. X7XpX4XwXpX0X0XeXpX8X_.D.).7X6X  X     X . G.H.!.!.H.H.!.~.!.H.H.D.!.F.A.!. XH.@X7X",
"H.~. X!.Q. X}.G.!.    & % O 7 8 1 u.O ^.).. O O O . .   0XpXaX%XL.L.L.L. X  . * 8 1 + O O . . !.!.H.G.H.!.!.). X!.). X}.S.H.+X6X",
"D.!.).!.H.H.!.!.    $ s O . p 1 8 +.] O O . #.r.] : i.O     . O O .     X X P P T [ F F z 1 O .   G.H.H.!.!.H.H.G.!.!.H.G.U.}.}.",
"H.!.!.!.!.!.!.  X $ 9 i O % w 1 e ..n + 6 | ] =.h g :.p u # + *.z + O % y I P M D [ d.w.d.+.#.P #   +X@X+X}.!. XH.H.H.I.}. X}.S.",
"H.!.).!.!.!.!.    9 3 ;.w B p u z h Q N k } =...S d.R k $.} T +.o.+.=.n P I I K Y +.=...O.O.O.o.N t   4X@X!.H.}. XH.I.}.}.H.G.G.",
").!.!.!.!.      9 -.L O -.| P u g X.A h %.o.~ O.G ! O.~ ~ %.O.O.@.O.Q T Y n K Y N A X.@.^ / 2.^ %.a      X      !.H.G.G.D.}.G.}.",
").!.          s s X kXX O 1 N K B %.A C ~ ~ ^ &.S 2./ ^ O.O.! 5.6.S A S A C S W / ! ! ^ 2.! ^ ^ ~ K 3 O   t H *   . G.Q.Q.Q.!.!.",
"!.. =   @ - y a > O O p.} N Y Y D o.~ C &.^ ~ ^ 4./ ! 2.2.2.2.3.! X.O.Q O.O.5.W 5.5.! 5.! / 2./ ~ N u + 4 I | -.H = . ^.Q.H.Q.!.",
"!.O O 1.[.-.x e z F 8.d.d.R F S Q E g.r W ~ ~ ^ Z 7.2.! s.a.a.s.5.! ! 5.! ^ O.X.Q ^ ! 3.2.2./ ~ ~ R Y + > *.P T V ` % . !.!.G.!.",
" XH ,.1.] r.] ] B ..@...e.F S ..d.e.j , 7.Y Y C W W 2.5./ s.f.2.! 6.W ! O.5.Q 5.S ^ 5.! ^ 7./ 7.^ N Y > U ,.,.,.,.-.-.>.. !.!.!.",
").X H.. OXM p z 1 p u K *.o.e.t.k e n 6 Y n Y Z / &.W l W &.O.h A Z o.8.^ ~ ~ O.S G 6.6.! 5.~ ^ %.P k 1 b O O O # >.( ' O   !.!.",
").H.  !.  o ;XO y.O . # { +.*.4 : e [ B N E n &.7.^ ^ h 6 r 2 =.! 5.a.^ A Y E n S 8.G 6.X.a.f...n I 7 7 . ).}.!.. . H ( >.  H.!.",
"!.).).!.^.Q.. . O . + 4 x y k : j D B N P v c ~ Q O.E 6 e n K *.X.s.s.^ Y y O # P n 6.s.s.g.w.5.T s o   D.H.H.G.H.H.  X o H   U.",
"F.OX4X@X  .   . . y.O + O a P B T D D P P K l ~ 7.^ O., K K K E O.s.6.~ o.I # # + g =.w.s.s.O.X.N s   D.H.).H. XH.H.S.I.  o   H.",
"oX;X-XoX  ].X _.$ . . @ O 3 c B N K A N D F ! 3.2./ ^ 2 j ) B B +.X.@.[ ] . 3 a y 2 h O.a.e.%.} a X   W. XH.G.}.U.}.E.U.XX9X*XR.",
"pXoXm.m.. & i &           a m P E 4 P w z G O.2.q.5.W : 1 ) ) ] D D D 4 % . @   a u l X.^ e.E k .   W.!.).!.G.G.I.&X8X XE.9XrX9X",
"sX;Xm.A.!.  .   Q.!.}.G.  X * M y | 4 _ w T [ f.0.0.9.1 : i _ _ V p p .       X O B g X.8.F A e + . ).L.H. XH.G.U.&X7X1X=XqXqX9X",
"<X-X~.F.Q.oX}.G.G.!.Q.!.H.H.. ;.O #.3 7 O 7 { e.f.~ [ 1 % % f O O . . Q.Q.{.o - . + [ D o.F T e 1 .   L.!.L.U.H.U.XX8X0XqXqX9X2X",
"K.D.Q.!.!.!.!.Q.!.Q.}.}.!.G.H.. . . O X   $ y $.t.=.#.O       H.!.!.!.!.!.Q.  = 9 q O w ] t.[ N w 0 . H.H.!.).).H.N./.>XaXiX`.P.",
"x.m.!.|.).Q.G.G.!.}.}.Q.!.!.!.Q.!.!..       - . : P  .;.O   :X).H.H.!.!.Q.H.Q.    - q . < i.t.v v w 3 . . H.!.(.!.B.n.(.,X%XP.l.",
"H.!.}.H.G.H.I.!.G.}.Q.G.I.}.H.G.}.Q.G.  o     . . + < i .   7XOXQ.!.!.H.!.!.!.!.    X % O X # y.{ #.4 | 3 . !.).(.(.W.N.h.h././.",
"}.}.H.H.H.H.H.H.H.H.I.}.H.G.G.}.!.!.{.    o o   H.. -.i %   . OXH.).!.Q.Q.!.~.!.}.  X & X .   O 1 | P i.u.. (.(.(._.^.W.N.N.W./.",
"H.H.).H.G.).H.H.H.H.}.H.}.H.}.G.{.G.}.    X     H. XO -.7 +   ).!.).H.!.~.!.H.oX}.}.      = * # O > i.gXO . L.L.).`.L.).H.G.Q.!.",
"G.G.G.H.H.H.S.H.!.}. XG.H.H.I.}.}.I.G.  - X =   G. X. ` c | 3 . !.W.!.!.Q.G.!.+X<X|.}.{.  . = > + O O c v 1 . F.L.L.T.H.H.}.}.Q.",
"H.H.H.G.H.H.}.!.G.L.}.!.H.H.G.}.G.H.}.. % 9 -   H.!.).. v c c . ~.H.!.).Q.G.}.+X<X}.G.!.!.  0 4 > + + u b % . .XP.T.R.Y.Y.Y.I.U.",
"!. X!. X XH.H.H.H. X!.H.}.H.H.G.{.I.; . % 3 $   H.G.v.O 1 P M %   F.Q.}.}.Q.}.}.}.Q.H.!.!.. . b k > O + _ b ` . XX%X=XE.Y.Y.Y.Y.",
").H.).-X:X!.H.!.:X:X~.G.!.!.!.!.{.I.; 5 3 0 . G.}.Q.A.. > } P a O G.Q.Q.Q.Q.!.Q.Q.Q.!.H.. m b T { . O # _ L ` X =X9X9XXX}.&X#XI.",
"oXQ.!. X@XOX_. X7X6X!.D.H.!.!.Q.I.U.I.H 4 % . H.G.!.}.  fXdXu.b . }.}.Q.G.G.Q.!.Q.!.!.H.  ) _ { x O a _ ` | 0 ,.rX3X$XU.#X8X+XI.",
"!.F.Q.m.H.1X@X).4X5X~.H.!.!.!.H.I.}.I.* H t O }.Q.G.{.  <.fXT `.. {.}.{.Q.G.G.{.}.!.!.H.  ].# r.5 . a hX% hXr.y 5X_.B.C._.oXoX^.",
"!.Q.!.n.H.pX4X).4X7X X!.H.G.!.}.H.I.X   . . !.Q.}.{.I.  o   . J }.G.G.Q.|.}.G.{.!.!.H.Q.    . O . . . X . . . @ (.P.N./._.).~.~.",
"W.oX!.W.oX4X:X!.:X:X.X).H.G.T.H.|.Q.{.Q.Q.~.H.Q.!.!._.~.!.!.!.!.!.G.G.!.}.!.Q.Q.Q.G.Q.Q.Q.G.Q.}.~.}.F.x.j.j.x.c.x.N.F.).).).W.).",
"!.).).).F.F.F.F.D.D.H.L.H.H.U.H.Q.{.Q.Q.Q.!.!.!.(.).^.Q.Q.^.~.H.Q.!.Q.!.{.}.G.G.Q.Q.}.}.!.H.Q.}.!.).Q.D.C.D.D.B.D.H.(.).W.).^.).",
"!.H.!.!.D.m.B.).c.N.H.).!.!.~.!.Q.Q.}.I.Q.G.H.H.!.!.oX).H.!.!.L.!. X).!.!.}.}.G.Q.G.!.}.}.!.}.!.!.H.G.Q.).|.^.!.).).H.H.H.!._.~.",
"Q.!.H.Q.F.F.!.).F.J.).).H.Q.!.!.{.{.G.H.!.}.}.H.!.!.!.Q.!.H.H.).H.~.Q.Q.{.}.Q.!.Q.Q.Q.{.}.!.G.Q.H.H.!.!.^.!.).).).!.F.L.H.~.!.~.",
"H.H.H.H.H.H.L.L.).H. X^.W.^.^.~.}.I.H.I.U.U.}.I.H.!.H.).:X@XL.D.!.!.H.!.@X+XH.G.H.G.I.I.I.G.}.!.H.H.}.I.!.H.!.).}.H.H.}.}.Q.Q.Q.",
"G.H.U.T.H.G.H.).).!.!._.~.~.Q.~.I.}.G.I.U.I.}.H.G.).~.oX1X-X XL.H.U.H. X1X@X}.G.}.H.}.G.I.}.I.I.H.G.G.H.!.!.!.!.H.H.G.I.!.!.!.{.",
"S.I.Y.Y.S.J.H.T.L.!.^.;X<XoX^.~.}.H.I.G.I.}.{.I.!.Q.!.D.A.).$XOXH. X}.H.+X XH.H.I.!.G.G.{.{.{.I.S.S.G.H.!.Q.H.H.S.G.G.G.G.}.{.Q.",
" XE.U.S.S.T.U.G.F.!.^.<XyX;X^._.H.).I.U.G.G.G.Q.H.G.).F.v. X0XOX!..X XJ.H.}.}. X!.H.H.G.I.I.{.I.G.H.U.}.H.H.H.!.H.}.}.H.I.}.{.Q.",
"3X*XL.S.S.U.T.L.L.H.H.,XtX;XQ.~.!.G.!. XD.D.}.G.Q.!.^.Q.).4X1X%X X6X+XH.T.H.H. X).H.H.}.G.G.{.{.H.).).H.).).H.!. XH.!.H.H.!.H.!.",
"rX2XXXS.T.XX.XL.H.L.L.L.H.^.~.^.H.!.}. XI.I.{.^.Q.~.!.!.~.).F.F.&XtX1XH.G.H.H.G.!.H.}.}.I.I.I.G.H.XX@X XD.).@X$XL.H.!.H.I.}.G.G.",
"pXpXqX:X$X0X%XL.S.L.H.A.x.A.}.!.!. X!.!.}.}.!.|.~.~.^.~.~.A.m.A.+X6X+XU.H.!.L.L.L.F.!.H.Q.}.Q.G.).4X5X X).OX,X:XL.F.L.L.H.}.H.H.",
"pXpX0X4X5X0X$XL.L.L.H.G.A.Q.}.~.!.!.!.@X4X+X!.!.Q.~.^.^.!.W.A.G.}.#X XI.H.H.).).H.).H.H.}.{.{.{.).=X,XoX;X:X).B.H.H.).L.T.!.H.G.",
",X>XiXaXiX%X`.).L.L.G.H.}.}.!.!.H.H..X@X X XH.!.^.|.~.Q.~.}.H.}.I.G.I.H.H.L.).).H.L.!.!.Q.Q.Q.{.).4X4X_.,XyXW.v.F.).L.L.H.H.H.H.",
"h.`.uXaX,XB.A.L.L.).H.H.!.!.G.}.G. X1X Xv.m.F.(.~.~.!.^.|.!.G.G.I.H.I.H.H.L.H.L.).H.!.!.G.G.G.Q.oX4X>X_.;XyX_.~.F.!.L.).H.G.H.).",
"k.z.'.'.'.Z.L.).!.).).H.G.!.!.}.G.T.7X*XJ.S.F.).^.!.^.!.I.H.G.I.I.H.U.H.H.).)..X:X).Q.!.{.G.Q.G.^._.^.W.W.^.(.oXH.L. X@X@XH.H.H.",
"k.k.z.z.z.(.'.(.W.F.}. X}.!.}.Q.U.I.1X1X.X.XL.H.!.!.~.!.G.G.H.I.I.G.I.H.H.F.H.:X7X XF.!.}.Q.}.Q.Q.m.M.^.D.n.W.W.L.F. X7X7XL.G.G."
};
