/* XPM */
static char *result[] = {
/* columns rows colors chars-per-pixel */
"64 64 235 2 ",
"   c #040100",
".  c #0C0101",
"X  c #0C0A05",
"o  c #0D0A0A",
"O  c #090706",
"+  c #130201",
"@  c #1B0401",
"#  c #140A05",
"$  c #1C0B04",
"%  c #140C0A",
"&  c #1C0C0A",
"*  c #0A1306",
"=  c #1C120C",
"-  c #171308",
";  c #1D1311",
":  c #1C1B12",
">  c #180F10",
",  c #210500",
"<  c #260A04",
"1  c #250E0A",
"2  c #2B0B04",
"3  c #350C07",
"4  c #25130D",
"5  c #2A120C",
"6  c #24160A",
"7  c #33120B",
"8  c #361007",
"9  c #231413",
"0  c #251B14",
"q  c #291A17",
"w  c #351815",
"e  c #380E10",
"r  c #35231C",
"t  c #3C241C",
"y  c #3A271B",
"u  c #2B2717",
"i  c #3A2B23",
"p  c #382925",
"a  c #393726",
"s  c #2B2726",
"d  c #431C14",
"f  c #461D1B",
"g  c #44180D",
"h  c #43241D",
"j  c #48251D",
"k  c #50251C",
"l  c #421E22",
"z  c #422422",
"x  c #442A25",
"c  c #4B2B26",
"v  c #432C2A",
"b  c #4A2A27",
"n  c #43322C",
"m  c #483227",
"M  c #58362D",
"N  c #493935",
"B  c #553D36",
"V  c #5C3C34",
"C  c #563F39",
"Z  c #5B3D3A",
"A  c #5D3631",
"S  c #502924",
"D  c #633C2E",
"F  c #65372B",
"G  c #623C34",
"H  c #6A3C34",
"J  c #643E3A",
"K  c #6B3D38",
"L  c #6B3533",
"P  c #773E36",
"I  c #364C28",
"U  c #56433C",
"Y  c #5C423C",
"T  c #58463A",
"R  c #475433",
"E  c #634136",
"W  c #6A4136",
"Q  c #63433C",
"!  c #6B483C",
"~  c #74453C",
"^  c #7B453B",
"/  c #74493D",
"(  c #7B4A3D",
")  c #764436",
"_  c #51663F",
"`  c #5A4A45",
"'  c #564641",
"]  c #555844",
"[  c #634542",
"{  c #6C4541",
"}  c #654B45",
"|  c #6C4B44",
" . c #6C4C4B",
".. c #6B474B",
"X. c #7B4541",
"o. c #754B43",
"O. c #7B4B43",
"+. c #714E49",
"@. c #7B4D48",
"#. c #714640",
"$. c #6C514C",
"%. c #655348",
"&. c #7B5145",
"*. c #72524C",
"=. c #7B514A",
"-. c #765047",
";. c #6C5151",
":. c #675854",
">. c #755652",
",. c #577B49",
"<. c #536C44",
"1. c #66624A",
"2. c #82443E",
"3. c #824C3D",
"4. c #834544",
"5. c #824C43",
"6. c #854C47",
"7. c #84524B",
"8. c #825145",
"9. c #99625B",
"0. c #A0675E",
"q. c #9D6964",
"w. c #996C6A",
"e. c #8C726B",
"r. c #96726D",
"t. c #897771",
"y. c #977775",
"u. c #A36C64",
"i. c #A46C6A",
"p. c #AA6C6A",
"a. c #A66766",
"s. c #A8736C",
"d. c #AA7473",
"f. c #2B9D2E",
"g. c #239D27",
"h. c #2B9432",
"j. c #2F9F31",
"k. c #349D3A",
"l. c #26A52A",
"z. c #2BA42D",
"x. c #2AAA2E",
"c. c #20A123",
"v. c #2DA431",
"b. c #2EAC32",
"n. c #26A230",
"m. c #31A535",
"M. c #33AC34",
"N. c #34AB3A",
"B. c #3AAD3B",
"V. c #3CAA37",
"C. c #33B235",
"Z. c #3BBB36",
"A. c #35B53A",
"S. c #3BB53C",
"D. c #36BC3D",
"F. c #3BBC3E",
"G. c #36BA36",
"H. c #2FB133",
"J. c #449D3C",
"K. c #41BD3C",
"L. c #42B939",
"P. c #37C13E",
"I. c #3BC13D",
"U. c #39C136",
"Y. c #43C23E",
"T. c #49C33D",
"R. c #44C83E",
"E. c #3AB542",
"W. c #36BD41",
"Q. c #3CBD42",
"!. c #3EBD49",
"~. c #3BB745",
"^. c #3FAE45",
"/. c #528347",
"(. c #4B8243",
"). c #42B645",
"_. c #41BD43",
"`. c #42BD4A",
"'. c #49B949",
"]. c #42AC47",
"[. c #64AB5D",
"{. c #75916A",
"}. c #36C141",
"|. c #3CC143",
" X c #3EC14A",
".X c #42C244",
"XX c #49C645",
"oX c #4BCA44",
"OX c #44C44A",
"+X c #4AC54B",
"@X c #46C94B",
"#X c #4BCB4D",
"$X c #42C841",
"%X c #52CE4C",
"&X c #52C848",
"*X c #4DD04D",
"=X c #54D24C",
"-X c #5AD24E",
";X c #4CCC52",
":X c #49C953",
">X c #55C653",
",X c #52CD53",
"<X c #5BCE5B",
"1X c #54CC57",
"2X c #4ED153",
"3X c #4FD359",
"4X c #53D355",
"5X c #5BD553",
"6X c #5CD955",
"7X c #55D35B",
"8X c #5CD55B",
"9X c #54D95B",
"0X c #5CDA5C",
"qX c #56DA55",
"wX c #62DA56",
"eX c #64DC5B",
"rX c #69DE5D",
"tX c #61D558",
"yX c #60CE5B",
"uX c #67E25D",
"iX c #5DDC62",
"pX c #5CD763",
"aX c #5ECB60",
"sX c #64D562",
"dX c #64DD62",
"fX c #69DD62",
"gX c #6CDC6B",
"hX c #69E367",
"jX c #A28984",
"kX c #BDA39E",
"lX c #B3A29A",
"zX c #BDA9A2",
"xX c #CEAEAF",
"cX c #D5A6AC",
"vX c #E0D1CA",
/* pixels */
"D.Q._.D.F..XF.D.D.K.|..X|.F.F.F.|.Q.W.|.|.W.Q.D.F.!.F.OXpX7X_.A.E.`.~. X9X3XW.W.W.W.I.P.D.Q.|.D.Z..XF.K.K.S.K.L.`._.Q.~.!.!.Q.~.",
"F.F.K.F.F..XQ.F.F.Q.|..X@X.XF.F.W.Q.|.|.W.D.W.W.W.Q.!.Q.`.+X;X+X~.!.Q.!.;X:XQ.W.|.}.P.Q.D.D.I..XXXK.F.Z.F.F.F.~._._._._.Q.~.Q.Q.",
".XK.F.Q..XF.F.F.Q.F.F.@X4X@XD.F.W.D.|.|.D.W.Q.W.Q.~.Q.A.b._.1X+XY.$XK.F.I..X|.I.Y.Z.Z.I.$XK.Z.%XuXT.L.L.T.T.K.Z.F.L..XI.I.F.Q.|.",
"9X@XF.F.F.F.F.|.F.F.F.4X0X#XF.Q.W.D.D.Q.D.|.|.D.Q.Q.Q.F.S.;XpX;X.X#XXXZ.D.F.I.Z.F.Z.Z.Y.=XoXY.oXuX6XT.Y.oX=X.XL.F.F.F.Y.F.D.F.|.",
"hX2X_.D.F.F.F.F.F.|.|..X#X|.Q.|.W.D.W.W.W.|.|.W.F.D.S.Q.OXOX;XOXXX0X=XF.L.K.Z.F.Z.L.Z.T.-X6X&X&XwXuX5XoX-XwXXXK.F.F.F.F.I.D.F.I.",
"iX4X.XF.F._._.F.F..XF.C.H.D.Q.F.|.|.Q.W.Q.Q.W.Q.F.!.F.Q.Q.H.b.C.#X0X%XF.Z.Z.K.K.K.K.K.Y.%XwXrXwXwXuXtX5X6X6XY.F.I.I.I.P.F.F.I.F.",
"|..XI.F..X#X@XF.|..XF.C.x.D.F.F.|.|.}. X@X XF.Q.F.|.Q.Q.Q.b.b.A.OX;XOXQ.~.Q._._._.).K.).).+XgXgXrX&X>XtX1X_.Q.W.|.@X:X}.W.Q.!.~.",
"c.H.D.F.@X4X#XF.F.G.F..XF.F.|.D.D.I.}. X9X;XF.F.D.!.D.F..XQ.Q.Q.!._.Q.~.Q.Q.OX_._._.).).v.v.>XsXyXJ.L.1X'.z.A.Q.|.3XpX XE.!. X~.",
"A.C.F.K.|..X.X.XF.F.F.F.Q.F.F.F.Q.|.;XOXA.D.Q.|.Q.F.F.Q.|.Q.Q.F.Q.W.W.!. X}.!.!.~.W.~.!.~.B.N.N.V.j.f.m.N.A.Q.!.!. X X X!.!.!.!.",
"_._._.F.D.|..X.XF.S.F.F..XF.F.F.!.@X0X@Xx.C.|.!.Q.Q.Q.|.F.Q.Q.Q.W.!.~.W.}.}.~. X X!.E.!.).E.M.z.j.j.v.m.N.!.!.Q.W.W.W.Q.!.!.!.!.",
"F.F._._.K.F.F.D.Q.F.F.F..XQ.F.F.D.OXiX4XA.Q.!.F.D.F.F.F.F.F.F.F.P.|.D.D.}.P.P.*X9X@XD.D.Q.Q.Q.F.S.S.F.S.S.F._.F.D.D.F.F.Q.|.W.A.",
"K.S.F..XK.S..X#X.X.XF.F.F.K.Q..XQ.F.|.!.W.Q.Q.F.F.Q.Q.Q.F.F.F.F.D.}.P.D.}.P.P. X#X|.W.D.F.Q.!.|.'.).).).K.F.Q.|.Q.F..X@X@X|.A.W.",
".X_.S.F.F._.%X4X.X.X|.F.F.F.|._.Q.C.b.b.F._.S._.K._.F.F.F.Q.F.Q.P.U.I.P.D.U.P.P.P.P.P.P.D.D.D.D.F.F._._.F.K.Y.Z.Z.P.oX#X@X$XD.F.",
"K.F.F.S..X4X+XM.F.F.F.F.F.F.F.F.F.F.C.A._._.F.Q.Q.F.F.F.D.F.|.Q.I.U.P.U.G.P.P.P.}.}.P.D.P.}.W.|._.F.K._._.K.I.Z.I.*X=XZ.C.I.I.F.",
"_._.#XK.+XiXXXz.S.F.F.Q.F.F.F.|.Q._._.Q.F.Q._.K.F.F.+X@XF.F.K.F.D.D.D.D.P.P.}.P.}.P.W.}.}.W.}.W.Q.D.Q.!.Q.Q.XX#XY.4X6XC.l.F..XD.",
"F.#X0X+X.X6X#XF.D.F.Y.|._.F.F..X_.S.Q._.S._._.L.F..X4X4X.XF.|.Z.D.|.U.}.}.D.D.P.}.}.}.}.W.D.W.|.W.!.Q.A.F..X,X4X$X%X6XXXZ.D.D..X",
"F.F.Q.Q.A.A.Q.!.Q. X;X2X#X|.Q.|.!.Q.F.Q.F.Q._.#XXXL.5XwX-XT.L.&XoXL.Z.K.oX*XI.G.D.|.|.|.|.D.W.D.~.W.Q.Q.~.Q.~.Q.~.F.S._.Q.A.F.Q.",
"_.M.l.A.A.b.b.F.~.      9X@X  . ~.Q.S.F._.K.OX6X4X_.5XrXwX-XT.tX-XY.Z.Y.qXqXD.D.D.F.I.|.|.|.F.|.|.Q.Q.!._.S.M.M.A.M.x.S.Q.F..X@X",
"_.A.A.A.F.A.D.Q.Q.. . .   . y...+ _.F.D.F.F..X0XiX5X0XfXrXsXtXsX5X$XS._.0X          . Q.D.D.W.Q.F.D.Q.Q.Q.F.F.S._.S.C.Q.|.F.@X0X",
"F..X.XQ.F..X!.F.. +   o X . z cXy.. Q.F.  . + . . .   %XeXfXhX&X_.K.K.F.    0 9 4 @ + . + . Q.Q.Q.F.S.Q.Q.Q.Q._.F._..X|.F.I.#X4X",
"S.Q._.F.D.Q.Q.Q.. . > O . 4 w e r.  Q.. + $.e.C @ t.#   . . . . + . . . $ U U V Q J A b 5 @ .   F.F.D.Q.|.F.F.I.D.F.I.F.D.F.$X|.",
"D.F.!.Q.Q.Q.Q.Q.  o . % . p < 8 ..U . w +.! @.j t T r y . ,  .t , $ $ r B T U T +.s.i.q.#.$.Y # X F.@X*X@X|.I.|.F.F.Q.|.I..XF.D.",
"F.Q.!.Q.|.Q.Q.O   % p . + r 2 w } Y V j o.X.O.D r.d j +.=.o.o.+.! V Y Y T E A W ( ^ 5.^ 5.o.$.U :   2X4X@XQ.O X X X   I.|.F.D.F.",
"_.Q.Q.Q.D.A.    0 ; p r T h y y h V j o.4.^ 6.L O.J #.O.X.O.6.P &.G E G E W W F H 2.3.^ ( O.#.*.p      X. . I - a a # X   |.D.|.",
"Q._.Q.Q.Q.A.  . ; ; :.%. .Y w j | G H O.3.2.3.F ( W ( 2.2.2.3.( D H D W G G W ) 3.3.( 3.) 3.o.@.E 4 + # $ u %.$.$.Q ;.] O   Q.W.",
"Q._.Q.Q.!.  % = :.U . + 7 E E E o.E K ~ ( ( ( ( ( / 5.^ 5.2.^ 3.( ( 8./ ~ ( ) 8.( 3.( 3.( ( ^ O.G x + T y Y Q Y ,./.y q u   o |.",
"Q.Q.F.. O . p r r vX. $.J M K K =.O.8 O.( ( ! W ! ( ~ s.u.0.u.~ ( ( 8.~ ( O.( ( ) ) ) ~ 3.3.( 6.K A @ Y $.1.,./.+ + # u : s O !.",
"!.    . 9 p l 5 + . y.e.G #.L X.X.w.2 o.E E D D &./ ( ^ s.u.5.o.! ( ( / O./ o.F O.8.( ^ 3.^ ^ ^ K { < T <./.+ . |.Q.    o     Q.",
"_.# . @ ;.l l b V  .r.y.K L 4.d.i.k e V V E E &.! o.k o./ o.g F 7.( / ( =.( -.E @.~ 5.^ 3.2.( O.G t 4 0 + + Q.|.Q.W.F.F.F.F.F.|.",
"_.  . ;.xXy. .J B $.*.{ @.X.i.q.f 3 J V E V | o.o./ d 8 2 8 O.7.q.( ( W E V M ! #.@.X.2.p.u.~ G J 4 & # F.Q.|.|.F.Q.Q.D.F.F.F.Q.",
"Q.p :.;.Z [ p p 4 r i E { >.{ 7 , l J J V k o.~ 7.@.3 7 G E O.P u.8.( M h < 2 M K X.a.p.p.9.&.E y     Q.S.D.F.D.D.F.F.F.|..X.XZ.",
"F.+ 8X+ '.. + . _.+ 5 1 t h h + p J A } E d @.6.^ 3 8 V Y G @.O.( / -./ T + @ $ f O.p.a.u.7.! T y     S.K._.F.|.Q.F.F.Q.oX2XoXF.",
"OX;X  . . OXo !.. # # 9 5 r Y Y V G E Q M O.6.2.4.o., t Y G J o.o.|  .Y . 0 p r @ d 6.q.i.+.$.y     x.F..XF.D.|.I.}.$XI.oXwX=XT.",
"dXOXX o s > o     .   # p ] U B 7 E t y ! #.X.p.4.~ < 5 Y V Q Y B v & & . . X y h b K 4.i.{ h . O M.).Q.Q.Q.F.D.I.*XqXT.Y.6XuXwX",
"hX:Xb.  o       D.Q.|.D.  - <.a %.5 Y r U | q.i.i.@.< @ y [ Z B x . +       X + C f @.@.J Q h +   S.K._.F..XF.D.I.*X0X4X&XrXuXwX",
"3X;X.XE.W.|.|.D.W.W.|.|.F.F.. . + + 1 X 0 T y.i.@...1 $ X r . . . . W.W.}.- ; . @ [ J | J G 5 5 . . K.F.Q.K.I.Q.|.oXqXeXhXrXwXwX",
"b.A.W.Q.Q.Q.F.W.Q.W.|.|.Q.D.F.X   X X   . r *.w.+.>.+ . . . _.K.F.Q.Q.Q.Q.  o 0 & + x J y.J J p 5 . Q.F.F.F._._.~.M.B.<XgXtX'.L.",
"l.b.Q.|.!.F.D.D.W.|.Q.W.Q.Q.Q.D.        % + + '  . .+ . F..X#X_.W.Q.Q.F.W.F.    q 4 . 2 r.e.[ z p 1 . Q.F.F.Q.).F.M.b._.>X&XJ.m.",
"D.Q.Q.F.D.D.I.Q.D.|.|.D.F.|.|.D.|.W.  o     . . 5 >.a + . #XwX+XS.Q.Q.Q.W.|.O   X = . @ + y.[  .e jXn . !.~.~._.).).^.m.f.j.A.`.",
".X|.F.Q.Q.F.F.F.D.F.P.|.D.D.D.|.W.}.    . X . . ,.%.y &   1XdXXXQ.Q.Q.F.W.|.|.  . X % # . . w ..C kXkX+ !.Q.L.).).'.~.E.m.m.^.~.",
"D.F.Q.F.F.Q.F.F.F.F..XF.|.F.I.D.}.Q.  . . .   Q.. 1. .1 . +X4X_.Q.Q.Q.S.Q.Q.Q. X      - # + . @ [ kX@ + .X).S.L._.).K._.F.D.Q.|.",
"D.D.F.F.F.F.F.F.F.|.|.D.F.F.D.|.W.P.X > . ;   Q.. T c 1.5   M.S.Q.Q.Q._.Q.A.Q.@X2X    - = = + + v c 5 + ,X8X+XS.L._..XF.S.|.|.W.",
"F.Q.F.F.F.Q.|.F.F.Q.|.F.F.F.D.|.I.I.  & > q   Q.X @ M x x . x.F.!.F.Q..XW.W.|.@X2X|.O = = # . . v c @ + %XwX=XT.T.T.R.U.U.U.P.U.",
"K..XF..X.XF.F.F.F..XQ.F.|.F.|.D.W.  . 9 9 % O F.|.. < ! m 4   .X|.D.F.!.|.}.|.|.|.W.    p n & . @ } z U + eXrX5XT.oX-XR.U.I.U.U.",
"_.F.!.;X;X_.F.Q.4X1XQ.D.Q.Q.Q.Q.F.. 9 9 9 . Q.W.Q.. 5 $.` y X Q.Q.D.D.}.W.W.|.D.W.. i N ` ` . + + Y %.U . rXuXwX-XwXwXoX|.*X|.P.",
"OXF.Q.|.#X+X_..XiX7XQ.A.D.|.Q.F.* i n 1 9 . W.F.D.. [.y.y.R . W.|.W.|.W.D.D.Q.W.Q.  ` ` ` n + p %.} Y q U J.wXrXhX6XoXK.$XqX*XU.",
"Q.S.Q.b.S.7X;X_.7X8X!.F.Q.Q.F.Q.* R @ n 9   Q.W.W.  (.jXQ _.. |.}.}.|.}.W.D.W.W.|.  {.@ t.1 + v lX@ zXt.0 S.>XfX8X'.M.B.`.`. X!.",
"Q.F.Q.b.F.dX4X_.4X0X.XQ.Q.D.W.|.  . . . . F.}.Q.Q.Q.D.+ + |.D.Q.W.W.D.W. X|.D.W.W.. . + + + + . . + . . # f.L.'.L.A.M.^._.!.!.!.",
"W._.!.S.+X1X1XQ.%X,X+X_.D.F.Y.F. XW.}.W.W.W.Q.F.Q.~.!._.Q.!.F.Q.Q.D.D.Q.|.|.W.}.W.W.W.W.W.D.F.|.Q._.A.l.g.g.l.l.l.M.S._._._.).~.",
"!.Q._.!.Q.S.S.F.C.S.F.Q.Z.F.|.F.W.}.W.!.W.Q.Q.Q._.!.~.Q.F.!.Q.Q.Q.Q.W.Q.W.Q.D.D.D.W.Q.|.Q.D.Q.|..XQ.Q.A.B.C.A.N.C.S.)._.Q.~._._.",
"Q.Q.Q.Q.A.x.M._.z.x.F._.Q.Q.Q.Q.W.W.|.P.W.D.F.F.Q.Q.|.`.F.F.Q._.Q.!.|.Q.|.Q.Q.D.W.Q.}.|.|.Q.W.Q.Q.F.W.Q._.!._.Q._._.F.K.F.~.!.!.",
"Q.S.Q.F.S.S.F._.S.S._._.F.Q.Q.Q.}.}.D.W.Q.|.|.F.Q.Q.Q.Q.Q.F.D.K.Q.|.Q.W.}.|.Q.W.W.D.W.|.|.W.W.|.F.A.Q.Q.!.Q.~._.`.Q.S.F.Q.Q.Q.!.",
"D.F.F.F.F.F.F._._.S._.!.E.~.~.Q.Q.P.D.I.I.I.|.I.F.Q.S..X;X#XF.S.F.F.F.|.@X@XI.D.F.P.D.|.W.I.W.D.F.D.Q.}.F.D.Q.Q.|.F.D.Q.|.W.W.W.",
"D.D.Q.Y.Z.D.F.K._.F.Q.!.!.!.~.!.I.}.D.P.P.P.|.F.F.Q.Q.@X,X,X.XK.F.|.F..X4X;X|.D.|.D.P.D.P.P.|.P.|.F.F.I.Q.Q.Q.Q.F.F.D.|.|.Q.W.W.",
"U.P.U.U.F.Z.Z..XQ.Q.Q.:X3X!.!.!.I.Q.Q.D.P.|.|.P.F.Q.Q.S.C._.,X+XD.Q.F.Q.@X.X|.F.|.F.D.F.}.|.}.P.D.F.Z.F.Q.Q.F.F.F.F.D.D.D.I.|.}.",
"$X$XY.G.Z.I.Y.D.K.F.E.3XpX:X!.!.F.|.|.U.D.D.D.W.W.D.!.A.x..XwX#X.X@X.XZ.F.|.F..XF.Q.D.D.P.P.}.P.G.P.I.F.Q.F.F.Q.F.I.I.F.}.|.}.W.",
"6X=XL.Z.Z.Z.Y.K.K.S.K.1XiX:X~.!.Q.D.Q.|.D.G.|.D.W.!.~.F. X1X5X+X$X8X#XF.|.F.F..X_.F.|.|.D.P.}.}.K.K._.F._.Q.K.F..XF..XF.F.|.D.D.",
"uX5XoXZ..XoXoXZ.L.F.K.F.D.Q.Q.~.F.|..X!.F.D.D.W.W.Q.Q.!.!._.S.F.#X0X2XF.F.Z.F.F.F.S.F.|.D.P.}.D.F.#X#X_.S._.;X#XK.F.F.F.F.|.D.Q.",
"dXdXdX,X%XwX%XK.Z.Y.Q.C.l.N. XQ.Q._.F.Q.|.!.Q. X!.W.~.!.Q.A.x.M.@X9X*XI.D.K.Q.F.K.F.Q.F.}.Q.}.D._.5X8X.XQ.+X1X,XF.S.K.K.F..XD.F.",
"hXdXeX8X0XeX%XK.F.K.F.D.H.Q. XQ.Q.Q.|.#X9X@XQ.Q.!.!.~.W.~.E.A.F.|.$X|.F.F.F._..XF._.F.F.|.}.}.}._.1X1X.X:X1X_.N.F.K._.F.F.Q.F.D.",
">XaXsXgXeX>X_._.K.K.F.F.|.|.F.|.F.F.@X#X.X.XF.~.~. XQ.~.|.|.Q.|.I.D.D.I.F.K._._.F._.F.Q.W.W.W.}..X7X7X`.1XpX~.b.S._._.Z.F.F.F.Z.",
"h.).aXgX>XM.V.K.K._.F.D.|.F.D.|.F._.4X.Xx.M.S._.!.!.Q.W. XQ.D.D.D.P.}.F.F.K.Q.K._.F.Q.Q.W.D.D.D.OX7X1X!.:X<X`._.F.K.F._.F.F.Q..X",
"h.k.].].].V.^.)._._.|.F.Q.Q.W.|.D.I.0X=XZ.Z.S.F.!.Q.~.Q.F.D.D.D.P.P.I.F.F._.K.+X,X_.F.Q.W.D.W.W.~.!.!.E.E.~.).`.S.K.Y.#X#XF.F.F.",
"h.h.j.k.k.).)._.S.S.|..XQ.Q.|.W.I.I.4X4XoX.XK.Q.F.~.!.Q.D.D.I.P.P.D.F.F.F.F.S.,X0X_.D.Q.|.W.|.}.E.b.z.~.A.z.~.~.K.F..X0X0X.XA.D."
};
