/* XPM */
static char *result[] = {
/* columns rows colors chars-per-pixel */
"47 24 147 2 ",
"   c #050201",
".  c #0B0302",
"X  c #0E0805",
"o  c #0E0709",
"O  c #120503",
"+  c #1A0403",
"@  c #130907",
"#  c #1A0A06",
"$  c #150C0B",
"%  c #1C0D0C",
"&  c #17100F",
"*  c #1B100D",
"=  c #1D1312",
"-  c #230B05",
";  c #220E0B",
":  c #22140E",
">  c #2C120D",
",  c #221513",
"<  c #2B1513",
"1  c #251916",
"2  c #2D1B16",
"3  c #241A19",
"4  c #2C1E1A",
"5  c #311512",
"6  c #381713",
"7  c #341C15",
"8  c #3A1C16",
"9  c #321E1B",
"0  c #2A201E",
"q  c #392015",
"w  c #32211D",
"e  c #3B231C",
"r  c #2D2222",
"t  c #362422",
"y  c #3A2521",
"u  c #372921",
"i  c #3D2A25",
"p  c #352B2A",
"a  c #3A2D2A",
"s  c #3E302C",
"d  c #472117",
"f  c #44221B",
"g  c #49251B",
"h  c #402622",
"j  c #492624",
"k  c #442B24",
"l  c #4A2B23",
"z  c #452E2A",
"x  c #4B2D2A",
"c  c #532624",
"v  c #532C23",
"b  c #562F29",
"n  c #5B2F29",
"m  c #473025",
"M  c #44332D",
"N  c #4C342C",
"B  c #56362A",
"V  c #5C372C",
"C  c #503929",
"Z  c #433334",
"A  c #4C3532",
"S  c #433836",
"D  c #4C3935",
"F  c #4C3C3A",
"G  c #543633",
"H  c #5E3532",
"J  c #553A34",
"K  c #5C3C34",
"L  c #563D39",
"P  c #5D3D39",
"I  c #66302F",
"U  c #643533",
"Y  c #633D33",
"T  c #6A3D33",
"R  c #633F3A",
"E  c #6F3E38",
"W  c #703F36",
"Q  c #4B413B",
"!  c #5C4237",
"~  c #55433D",
"^  c #5D423B",
"/  c #634236",
"(  c #6B4237",
")  c #634139",
"_  c #6C433B",
"`  c #6E483F",
"'  c #734436",
"]  c #74443B",
"[  c #7D463C",
"{  c #75493D",
"}  c #7B493D",
"|  c #544744",
" . c #5C4A45",
".. c #5E4D48",
"X. c #5C5248",
"o. c #634643",
"O. c #6D4643",
"+. c #624A47",
"@. c #6B4B43",
"#. c #644F4D",
"$. c #6F494A",
"%. c #734640",
"&. c #7B4641",
"*. c #764C43",
"=. c #7C4B42",
"-. c #754F49",
";. c #7C4E4A",
":. c #685547",
">. c #6A554E",
",. c #775048",
"<. c #7C524B",
"1. c #77584E",
"2. c #755552",
"3. c #795B50",
"4. c #79575A",
"5. c #7B6864",
"6. c #81463C",
"7. c #81483D",
"8. c #814A44",
"9. c #855046",
"0. c #83534C",
"q. c #8C544A",
"w. c #89584F",
"e. c #875555",
"r. c #8D5553",
"t. c #845954",
"y. c #8D5C53",
"u. c #905650",
"i. c #905856",
"p. c #915D5B",
"a. c #85635D",
"s. c #8A635C",
"d. c #956159",
"f. c #9C665C",
"g. c #8A6562",
"h. c #896468",
"j. c #906662",
"k. c #9E6761",
"l. c #9F6A67",
"z. c #8D776C",
"x. c #8F7270",
"c. c #A16664",
"v. c #A06A67",
"b. c #A0726D",
"n. c #948077",
"m. c #AC958C",
"M. c None",
/* pixels */
"M.M.M.M.M.M.M.M.M.M.M.M.M.M.M.M.M.M.M.M.M.M.M.M.M.M.M.M.M.M.M.M.M.M.M.M.M.M.M.M.M.M.M.M.M.M.M.",
"M.M.M.M.M.  . M.M.= Z 2 M.M.M.M.M.M.M.M.M.M.M.M.M.M.M.M.M.M.M.M.M.M.M.M.M.M.M.M.M.M.M.M.M.M.M.",
"M.M.M.M.M.. o o   % 4.h., M.M.M.M.M.M.M.M.M.M.M.M.M.M.M.M.M.M.M.M.M.M.M.M.M.M.M.M.M.M.M.M.M.M.",
"M.M.M.M.M.. o   . < 5 $.4 o = 0 % . M.M.M.M.M.M.M.M.M.M.M.M.M.M.M.M.M.M.M.M.M.M.M.M.M.M.M.M.M.",
"M.M.M.M.M.. $ o . 7 > B L z o.2.k k D O M.M.M.M.M.M.M.M.. O @ @ O .   M.M.M.M.M.M.M.M.M.M.M.M.",
"M.M.M.M.  $ , p k h 8 k Y H *.{ E t.@.9 , @         . # 9 M A G J y < # . M.M.M.M.M.M.M.M.M.M.",
"M.M.M.M.  & a ~ A C k K ) / *.{ ] =.n H @.^ 9 < : = 0 N P R R -.s.a.,.) e @ M.M.M.M.M.M.M.M.M.",
"M.M.M.. @ 3  .#.5 l Y ` ( V { } ] } ] &.-.*.&.O.! ! ! ) P Y T ] =.=.} *.@.4 . M.M.M.M.M.M.M.M.",
"M.  . : 9 9 2 +.a._ E 0.-.g *.' ' } } 8.8.&.W W / / / T T T ' } 7.} 7.7.*.C % . . M.M.M.M.M.M.",
"  . < 2.J x J 2.j.&.i.p.l j / T ' } } 9.k.u.6.6.} } %.} } { } } [ } 7.6.*.! 8 # % X M.M.M.M.M.",
"X 4 o.x.+.N z G R ;.;.f 8 P R _ { } { T 0.y.=.} } 7.} } } } ] } } } } } } ( j 7 ~ 1 X . M.    ",
"M., Z r w 4 + - 8 x 8 2 G U c ] } { ( d d v ] } 7.6.7.} { _ ( { =.=.8.8.*.K 8 h  .L F a r @   ",
"M.M.o p r 3 . . < w J J K U I 8.} { q e K ] f.q.7.} { B 8 - q Y e.v.c.r.o.i @ O , S p = @   M.",
"M.M.M.$ o . . . 3 D M k f O.e.c.q.} 2 e P ` w.} } *.` i @ * > 6 _ v.c.8.P , . M.M.  M.. M.M.M.",
"M.M.M.M.M.M.M.M.. & : 9 - A g.b.d.=.8 : G P ^ ( P k 0 O . $ w e b 0.d.E < . M.M.M.M.M.M.M.M.M.",
"M.M.M.M.M.M.M.M.M.  . . . 4 #.g.q.&.j + , i 4 : # .     X   % e x @.] V > M.M.M.M.M.M.M.M.M.M.",
"M.M.M.M.M.M.M.M.M.M.M.    o % k <.&.o.@ M..   .   M.M.M.M.  & # < K 1.P e % . M.M.M.M.M.M.M.M.",
"M.M.M.M.M.M.M.M.M.M.M.M.. $ O O f =.x O M.M.M.M.M.M.M.M.M.M.X @ ; ; k >.^ m ..1 M.M.M.M.M.M.M.",
"M.M.M.M.M.M.M.M.M.M.M.M.o , @ O e <.9 . M.M.M.M.M.M.M.M.M.M.M.. O 1 @ # i 3.m.s M.M.M.M.M.M.M.",
"M.M.M.M.M.M.M.M.M.M.M.M.% p # O C @.: M.M.M.M.M.M.M.M.M.M.M.M.. 4 | = . > ` L . M.M.M.M.M.M.M.",
"M.M.M.M.M.M.M.M.M.M.M.M.% D 2 . 7 k $ M.M.M.M.M.M.M.M.M.M.M.. O = S = . e j + M.M.M.M.M.M.M.M.",
"M.M.M.M.M.M.M.M.M.M.M.M.D ~ y M :.e M.M.M.M.M.M.M.M.M.M.M.& p S | 4 % 9 L m O M.M.M.M.M.M.M.M.",
"M.M.M.M.M.M.M.M.M.M.M.M. .a D n.z.F M.M.M.M.M.M.M.M.M.M.M.p Q X.e %  ...5.4 . M.M.M.M.M.M.M.M.",
"M.M.M.M.M.M.M.M.M.M.M.M.1 % % w 0 : M.M.M.M.M.M.M.M.M.M.M.& $ 1 . O t < p $ M.M.M.M.M.M.M.M.M."
};
