/* XPM */
static char *result[] = {
/* columns rows colors chars-per-pixel */
"64 64 226 2 ",
"   c #050100",
".  c #0B0100",
"X  c #0C0906",
"o  c #09090A",
"O  c #130201",
"+  c #1A0300",
"@  c #140A04",
"#  c #1C0A04",
"$  c #150B09",
"%  c #1D0C0B",
"&  c #19130A",
"*  c #1F1411",
"=  c #171817",
"-  c #0E1006",
";  c #200200",
":  c #240C06",
">  c #230F08",
",  c #2C0E07",
"<  c #360C05",
"1  c #360C08",
"2  c #23120D",
"3  c #2B120C",
"4  c #35160E",
"5  c #241512",
"6  c #2A1612",
"7  c #2A1A13",
"8  c #261917",
"9  c #3A1B19",
"0  c #2B2119",
"q  c #242415",
"w  c #34241D",
"e  c #3B231D",
"r  c #3C281F",
"t  c #362622",
"y  c #3B2622",
"u  c #352924",
"i  c #392C27",
"p  c #3E322B",
"a  c #383526",
"s  c #362F2B",
"d  c #421D19",
"f  c #481C14",
"g  c #4A160B",
"h  c #42241C",
"j  c #482319",
"k  c #422420",
"l  c #432925",
"z  c #462D29",
"x  c #44332C",
"c  c #4B342F",
"v  c #5E3A2F",
"b  c #543D35",
"n  c #5C3C34",
"m  c #543C37",
"M  c #413735",
"N  c #68382D",
"B  c #643D33",
"V  c #6A3D31",
"C  c #623E3A",
"Z  c #673836",
"A  c #723E37",
"S  c #1E481A",
"D  c #25581F",
"F  c #38452A",
"G  c #32782F",
"H  c #5C4036",
"J  c #54413B",
"K  c #5A433C",
"L  c #574A3E",
"P  c #50523C",
"I  c #6C4134",
"U  c #63423B",
"Y  c #6C443C",
"T  c #68463C",
"R  c #744336",
"E  c #794336",
"W  c #74463C",
"Q  c #7B453B",
"!  c #75493C",
"~  c #7B4A3D",
"^  c #4B6C3F",
"/  c #5C4641",
"(  c #5A4A44",
")  c #5C4E49",
"_  c #554540",
"`  c #5B564D",
"'  c #5F5452",
"]  c #6C4743",
"[  c #644B45",
"{  c #6D4C44",
"}  c #6A4E4A",
"|  c #614A45",
" . c #754B44",
".. c #7B4B42",
"X. c #734F4A",
"o. c #7C4D49",
"O. c #784542",
"+. c #64524C",
"@. c #6D534D",
"#. c #6B5147",
"$. c #7C5145",
"%. c #72534D",
"&. c #7B524A",
"*. c #725046",
"=. c #6B5554",
"-. c #755551",
";. c #586649",
":. c #814A3E",
">. c #81473E",
",. c #824B42",
"<. c #804740",
"1. c #855348",
"2. c #845251",
"3. c #9A685D",
"4. c #A2685D",
"5. c #946B64",
"6. c #9E6D63",
"7. c #9B6E6A",
"8. c #946E6D",
"9. c #8E726F",
"0. c #94746D",
"q. c #8A7774",
"w. c #947875",
"e. c #A26D68",
"r. c #A67369",
"t. c #A27572",
"y. c #2A9E2E",
"u. c #239D27",
"i. c #2C9432",
"p. c #2F9F31",
"a. c #349D3A",
"s. c #26A52A",
"d. c #2BA42D",
"f. c #2AAA2E",
"g. c #20A123",
"h. c #2CA331",
"j. c #2DAC32",
"k. c #26A230",
"l. c #31A535",
"z. c #33AC34",
"x. c #34AB3A",
"c. c #3BAD3C",
"v. c #3CAA37",
"b. c #2FB134",
"n. c #33B235",
"m. c #3BBB36",
"M. c #35B53A",
"N. c #3BB53C",
"B. c #36BC3D",
"V. c #3BBC3E",
"C. c #36BA36",
"Z. c #41BD3C",
"A. c #42B939",
"S. c #37C13E",
"D. c #3BC13D",
"F. c #39C136",
"G. c #43C13E",
"H. c #49C33D",
"J. c #44C83E",
"K. c #37B740",
"L. c #3BB542",
"P. c #36BD41",
"I. c #3CBD42",
"U. c #3FB749",
"Y. c #3EBD49",
"T. c #3FAE45",
"R. c #48AA4B",
"E. c #42B645",
"W. c #41BD43",
"Q. c #42BD4A",
"!. c #49B949",
"~. c #36C141",
"^. c #3CC143",
"/. c #3EC14A",
"(. c #42C244",
"). c #49C546",
"_. c #4BCA45",
"`. c #44C44A",
"'. c #4AC54B",
"]. c #46C94B",
"[. c #4BCB4D",
"{. c #42C841",
"}. c #53C947",
"|. c #52CD4C",
" X c #53C84B",
".X c #4ED04D",
"XX c #54D24C",
"oX c #5AD24E",
"OX c #4CCC52",
"+X c #49C953",
"@X c #55C653",
"#X c #53CD53",
"$X c #5BCE5B",
"%X c #54CC57",
"&X c #4ED256",
"*X c #53D355",
"=X c #5BD453",
"-X c #5BD955",
";X c #56D35A",
":X c #5BD55B",
">X c #54D95B",
",X c #5BDA5C",
"<X c #57D955",
"1X c #60CE5B",
"2X c #62D956",
"3X c #64DC5B",
"4X c #69DE5D",
"5X c #61D558",
"6X c #67E25D",
"7X c #5DDC62",
"8X c #5CD763",
"9X c #5ECB60",
"0X c #63D562",
"qX c #64DD63",
"wX c #69DD62",
"eX c #6CDC6B",
"rX c #6AE164",
"tX c #68E46A",
"yX c #8D837C",
"uX c #9A887D",
"iX c #A48B83",
"pX c #B1A29F",
"aX c #AAA195",
"sX c #BAACA3",
"dX c #D0B3B5",
"fX c #DECBC4",
/* pixels */
"B.I.W.V.V.(.D.B.B.Z.^.(.^.V.V.V.^.I.~.^.^.P.P.B.I.^.P.`.8X;XW.N.K.Y.I.Y.>X&XP.P.~.I.S.S.B.^.^.C.V.G.B.Z.Z.V.W.V.!.W.I.L.Y.Y.Y.I.",
"V.V.V.V.V.W.I.V.V.I.^.(.].(.V.V.P.I.^.^.P.B.V.P.V.I.Y.I.Q.'.OX'.I.Y.I.Y.+X+XP.P.^.V.S.I.V.B.S.(.).G.m.V.A.V.N.L.W.W.W.W.I.P.I.I.",
"(.I.V.G.(.V.V.V.I.V.V.].*X].B.V.P.B.^.^.B.B.I.P.I.I.W.M.j.I.%X'.W.G.Z.V.D.G.(.D.D.m.m.D.J.D.A.|.6XH.A.Z.G.H.A.m.V.Z.G.^.S.V.I.I.",
"*X].V.V.V.V.V.(.V.V.V.*X,X[.V.I.P.B.B.P.P.I.^.P.I.I.I.K.N.+XqXOX(.[._.V.m.V.D.V.V.m.m.G.|._.G._.6X-XH.H._.XXJ.V.V.V.D.Z.D.V.V.I.",
"tX*X^.B.V.V.B.V.V.W.^.{.].(.V.^.~.B.B.I.P.^.^.B.V.B.M.I.W.[.OX`.].,XXXV.V.V.m.A.m.A.V.H.oX5X}.}.2X6X5XH.oX3X).Z.V.V.B.S.V.V.V.D.",
"7X&X(.V.V.(.^.V.I.{.I.b.b.B.V.I.^.^.I.P.I.^.P.I.V.Y.V.I.I.b.j.n.).3X|.V.V.A.G.V.V.A.A.G.|.2X3X3X2X2X5X=X-X-X{.V.G.D.S.B.V.V.V.S.",
"D.(.D.V.(.[.].V.V.W.V.n.f.B.^.B.^.^.~./.]./.V.I.V.^.I.I.I.j.j.M.`.#X`.I.I.I.(.W.W.W.W.!.E.'.wXeX4X!.@X9X%X(.V.I.^.].+X/.K.I.Q.I.",
"g.n.M.V.).;X[.V.V.M.V.(.V.V.W.B.V.~.~./.>XOXV.V.I.I.B.I.Q.I.V.I.I.Y.L.I.I.N.`.I.L.W.W.Z.p.h.%X0X1XA.A.1X!.d.z.I./.&X8X/.K.Y.Y.I.",
"n.n.N.V.Z.`.`.{.D.V.V.V.I.V.V.V.I.^.OX`.M.B.Y.^.I.I.I.I.I.I.I.V.P.P.Y.Y./.~.Y./.I.K.P.U.I.c.x.x.v.h.y.l.x.K.I.Y.P./././.Y.Y.Y.Y.",
"G.(.W.V.M.V.(.(.V.B.V.Z.W.V.V.V.Y.].,X].f.n.^.I.V.V.I.I.V.I.I.I.P.Y.P.P.~.~.K./.`.U.K.U.E.L.l.h.p.p.p.l.x.I.Y.I.K.P.P.^.Y.P.Y.Y.",
"N.A.A.`.W.V.B.M.V.I.V.V.^.Z.V.I.B.`.7X*XM.I.Y.V.V.V.I.V.V.V.B.V.S.^.B.B.~.S.S..X>X].P.P.I.I.V.V.N.N.N.N.N.V.W.V.V.B.I.V.V.Y.K.P.",
"W.V.V.`.Z.B.].[.{.W.V.I.I.^.V.(.I.V.^.Y.P.I.I.V.V.I.D.I.V.V.V.V.B.~.B.B.~.S.S./.].^.B.P.I.I.I.Y.!.E.W.W.W.N.V.D.I.V.(.].].^.M.P.",
"`.A.V.V.V.W.[.*X(.(.^.V.V.V.(.V.I.n.j.j.V.W.B.W.Z.Z.V.I.A.I.V.^.D.F.S.D.B.F.S.S.~.S.S.S.P.B.B.B.V.V.A.W.V.Z.G.m.D.D._.XX[.J.B.D.",
"V.V.V.N.`.*X).z.B.V.V.V.V.V.V.V.V.V.n.M.W.W.V.Z.I.V.V.V.B.B.^.I.S.F.S.F.C.S.S.S.~.^.S.B.~.S.S.I.W.V.W.`.W.W.D.V.m..X.Xm.n.D.D.V.",
"W.W.[.W.'.3X{.d.B.V.V.W.V.V.W.V.I.W.W.W.V.W.W.V.V.V.].].V.B.Z.V.B.B.B.V.S.S.~.S.S.~.~.~.~.~.P.P.P.P.V.Y.V.Z.).[.G.*X<Xn.s.V.(.M.",
"V.[.,X).`.:X[.A.V.V.D.(.V.V.^.(.W.N.I.W.N.V.!.V.V.W.*X=X`.V.V.V.V.S.S.S.~.B.B.S.~.~.~.S.B.B.~./.Y.P.I.M.B.`.#X*X{..X<X).m.V.V.^.",
"V.V.I.I.M.B.I.I.I.(.[.&X[.^.I.Y.I.V.V.I.I.V.`.[.).A.oX3XoXH.A.}.}.m.m.A._.[.S.C.B.^.^.^.^.B.B.V.I.I.I.I.U.I.L.I.I.L.B.W.I.M.V.(.",
"W.z.s.M.M.j.j.I.V.].,X    `.I.    I.M.V.W.Z.`.=X=XW.=X4X=XoXH.5XXXG.m.G.<X<XD.V.B.V.D.^.S.~.^.P.I.I.I.I.I.N.z.z.N.z.f.N.V.N.I.].",
"W.M.M.M.V.M.M.I.I.[.  X   . O w.=.. I.N.A.N.`.,XqX*X5XqX4XqX5XqX<X).V.W.,X<XV.V.V.V.I.P.I.V.I.I.B.B.I.I.I.V.B.N.I.N.n.^.(.V.[.,X",
"V.(.(.I.I.(.Y.V.I.    @ O O + 9 dXq.. V.W.V.V.).*XwX#X#X3XwXwX XW.Z.A.V.(.].B.V.V.V.I.P.B.V.I.Y.I.I.N.I.I.V.W.W.V.W.(.^.V.V.].<X",
"N.I.^.I.M.I.I.I.^.    X X . 5 8 6 0.O O . O     @ :XL.x.%X0X0Xc.z.N.Q.N.j.x.P.Y.I.^.I.P.I.Y.Y./.V.V.B.I.^.V.V.I.B.Z.I.B.M.D.^.^.",
"V.I.I.W.I.I.I.^.S.  X   .   y % > [ U O 4 [ q.+.. .   . T.E.A.N.N.N.E.W.j.z.    .   .   Y.P.I.K.M.V.].[.).^.V.(.V.V.V.S.D.(.S.S.",
"N.I.I.I.I.I.^.B.P.  & u . O y 4 3 #.H U j #.{ d z 9.w.+ . . d.L.E.I.I.E.  . @ % 5 6 O O . . . M.V.`.OX&X[.I.B.I.(.I.^.^.S.I.V.V.",
"Y.I.I.I.I.B.V.    8 * w i m y k h j v h ! .. .B 8.X.n k y O . . .   .   X u m ( m K / n l 2 + . . B.I.`.`.^.B.P.I.B.V.B.M.S.B.^.",
"V.W.I.I.V.M.P.. . * 2 +.@.[ U h h *.B B  .o...N ....f f *.#.%.e + @ # w J L H U n #.5.0.5.-.{ H + . I.I.P.K.K.I.P.I.P.P.I.P.I.P.",
"W.V.I.W.Y.I.    . 7 ` J O O : T I { B B ! ....A >.~ A ..~  .Y &.{ K J J K H H H I ! ....$.! ! $.H 2     P.Y.P.I.P.I.P.P.I.B.P.I.",
"I.A.V.V.Y.. . O t w r fX. @.n m C o...< o.E ~ ! R ~ N E Q ~ E W ! U n H H v B B I R E E ,.:.E o.! t . .   Y.Y.P.Y.P.Y./.P.I.V.P.",
"W.I.I.I.  O . : y 3 O O 0.9.C ] ]  .5.< &. .$.I ~ ~ ~ ~ ! E :.E E N I B N I I I R E :.>.:.:.~ ,.! K 2 . . Y.Y.P.Y.P.P.P.Y.I.I.I.",
"W.I.V.  . O % =.e h n -.7.7.N A e.t.d < Z B v V ! R $.~ 3.r.! :.O.......! ! ! ! ~ ~ :.>.Q :.~ :. .H r + . . V.^.I.V.B.I.V.V.V.I.",
"W.L.N.  . . +.sX%.C C  .] o.2.O.7.d 4 U B Y I Y ~ ~ W R 1.3.r.....Q ~ ~ ! ~ ~ ~ ~ ~ ~ ~ :.:.Q R ! n K + 7 -   ^.B.I.I.V.V.V.D.V.",
"W.W.W.  s ' =._ w y 3 h d C ] ] 4 + h n U N Y ..$.! 1.g ~ $.! *.W O.>.,...~ ~ ~ N ~ ~ Q Q Q ! ~ $.v | 3 J a   M.V.V.S.V.D.(.(.V.",
"N.[.;X[.  Q.  '.. '.. . 7 3 k e ; y J U n j o.Q $.~  .j < 4 j N A ,.>.....! *.*.I ~ ~ :.Q ! $.! ! U e 2 L +.O .   I.V.        B.",
"`.OX+X`.    u       . . # 2 3 h K K m U >.g ,.<.<... ., , V Q $.E :.Q I v L K n U ..O.,.:.e.e...n K 5 . y L w > & .     X   XXG.",
"qX`.j.b.P.    o =       O t ( b K 2 K d O.1.e.>.<. .; l m U ! E r.:.! { J @ @ + ; d O.3.3.6.W  .] t   I.. t ( / [ P ;.F X   6X2X",
"tX+Xn.j.I./.X       ^.  $ ( w @.3 _ y -.W e.e.r.Q X.3 3 m n Y o.R W &.H . . & i l ; j o.e.r.1.{ e . . W.. . ;.` t 0 .     4X4X2X",
";X+X^.V.I.^.^.B.B.P.I.I.  ` O =.% 5 . > Z 6.r. . .} 2 O i / m n T C , + . $ X . y y h ] ..e. .d O . V.W.I.D.. .   . . 6X6X4X2X5X",
"j.M.P.^.Y.I.S.P.P.P.^.^.  $ . y 5 @   # l  .6.o.X.[ O O $ y m +.w + . . .     o o _ d o.o.C Z z O W.^.V.B.Z.W.W.N.z.L.%XeX0X!.A.",
"s.j.I.^.(.S.V.B.I.^.^.P.I.. . O . . . . + C o.U -.O $   . S G D . . I.P.V.  o =   O | Z ] ] n + .   (.V.V.V.W.W.W.z.l.E.@X XA.p.",
"V.V.I.V.M.B.V.^.B.^.B.B.S.^.  O .     . . ; 1 %.e . W.W.V.[.,X'.V.I.I.I.I.P.o o = 5 O 1 w.7.n l y     Y.I.L.I.E.E.E.L.l.y.y.T.T.",
"^.^.I.V.I.V.V.V.B.B.^.^.V.B.  . $ X     . ] } r . G.'.[.(.#X4X'.I.I.I.I.I.Y.P.  o 8 O O ; w.@.[ 5 +.*   Y.U.L.E.E.Q.T.K.l.l.L.U.",
"V.V.I.V.V.I.V.I.V.V.I.V.^.S.^.  $ $ . . . } @.> . (.;X*X`.).*XZ.I.I.I.V.I.I.I.(.  . O 6 O O O -._ w.q.. W.W.N.A.W.Z.Z.W.V.B.B.^.",
"V.M.V.V.V.V.M.V.D.W.(.V.V.B.B.^.. i 5   0 uX/ 6 . {.:X,X).z.z.N.W.V.I.W.I.B.I.`.&XO z K + # . : 9.aX$ . #X:X'.N.Z.W.W.Z.V.Y.^.P.",
"V.^.V.V.V.V.^.D.B.V.(.V.V.B.V.  M x . . p ( c . V.S.^.(.(.z.d.V.^.V.I.Y.P.B.I.].. + K +.# . . b z 8 . Z.|.3XoXH.A.H.H.F.F.F.F.S.",
"^.^.V.{.(.I.V.V.V.(.^.V.^.I.V.  p . O > z 6 .   ^.V.f.f.I.V.N.W.^.M.V.(.^.I.  . c c # . . @ x | O O <X'. X3X6XoX_.}.XXJ.F.F.F.D.",
"W.V.Y.+X#XW.N.I.*XOXY.B.I.^.^.  . 3 #.K x . I.B.P.B.M.b.M.Y.I.I.I.B.P.~.  p p | m O . @ p ) [ . `.=X3X=X=X4X4X2XoX3X3X).^..X^.F.",
"(.V.I.(.[.].W.`.8X:XI.M.V.I.I.  yXiXuXq.2 . B.I.P.^.I.I.V.B.V.I.^.P.^.  ` ) / | c . p ) ) / 2 . W.).=XqX5X X5X4X6X=X_.Z.{.<X.XS.",
"I.I.I.j.N.;X[.W.;X:XY.V.I.I.I.  ^ uXn uXO B.^.P.B.B.P.^.^.B.P.~.~.^.~.  R.2 w.> . . sX+ pXyXq   L.z.E.$X XN. XwX:X).x.c.Q.`./.P.",
"I.N.I.f.V.qX*X(.*X,X(.I.V.B.D.~.& O + O O S.P.^.^.I.P.P.~.P.P.I.P.P.B.i.& O O . . . . . . - V.W.E.z.z.E.z.y.A.!.W.v.z.L.E.Y.Q.Y.",
"I.Y.I.N.'.;X#XI.#X#X].W.V.m.Z.V.P.~.P.P.P.Y.I.I.I.I.Q.Y.P.I.I.I.I.B.B.I.^.I.P.B.P.B.P.I.I.B.I.^.I.Y.M.s.u.u.s.s.s.z.N.W.I.E.I.U.",
"I.Y.W.Y.N.N.N.N.n.N.V.V.V.V.^.V.~.P.~.Y.P.P.I.V.E.I.I.I.I.P.W.I.V.I.P.I.^.^.B.B.P.P.^.~.I.P.V.I.W.W.I.M.c.n.M.x.N.N.W.W.E.I.U.W.",
"I.I.I.I.n.j.z.W.f.f.N.W.I.I.I.Y.P.^.^.S.P.B.V.V.I.I.Y.Y.N.I.G.I.I.^.^.I.~.P.I.~.B.P.^.^.^.P.^.~.I.V.B.I.Y.^.I.V.I.W.V.A.V.I.Y.Y.",
"V.V.I.V.V.N.V.W.N.N.W.(.V.V.I.I.~.P.S.V.I.^.^.V.V.I.I.I.I.V.V.^.I.Y.I.P.^.^.P.I.B.P.P.^.^.P.B.I.V.B.I.I.Y.I.E.W.W.I.N.V.V.I.Y.I.",
"V.B.V.V.V.V.V.W.W.V.W.L.K.I.L.Y.^.S.V.S.D.^.^.S.V.I.V.W.#X[.A.N.I.I.V.^.].].V.B.^.B.B.^.^.B.S.P.V.B.^.S.I.B.I.Y.^.V.B.^.^.P.P.P.",
"B.V.D.G.V.B.V.Z.W.I.Y.Y.Y.Y.I.Y.S.^.B.S.S.D.S.V.V.I.I.].OX#X(.V.V.D.I.{.*X[.^.B.V.~.B.S.S.S.^.S.S.V.V.V.I.I.I.I.V.V.V.S.^.I.P.I.",
"V.D.F.D.m.m.V.(.V.I.Y.+X&XY.U.U.^.V.V.S.S.S.S.^.I.I.I.M.n.W.|.'.V.V.V.V.).].I.I.S.^.V.B.~.~.~.~.V.V.m.V.I.I.V.V.B.V.V.V.V.S.~.~.",
"J.D.F.D.m.D.G.C.V.V.L.;X8X+XP./.V.^.S.V.B.V.P.P.V.B.Y.M.f.).3X'.(.].(.N.B.W.I.{.V.V.B.B.S.~.S.S.C.V.D.S.I.V.V.V.V.S.S.V.~.~.^.P.",
"-XXXZ.m.m.m.G.V.A.V.V.%X,X+XL.Y.I.B.I.(.M.B.^.B.P.P.I.L.Q.%X*X[.{.;X[.V.^.V.V.(.I.V.I.^.B.B.~.~.V.W.Z.W.Y.W.I.A.(.V.Z.V.V.^.B.B.",
"6X-X_.m.G._._.Z.V.A.Z.I.V.I.I.Y.V.Y.(.^.V.B.~.K./.Y.K.Y.Y.I.A.N.[.7X*XV.V.V.V.B.I.V.D.^.S.S.S.B.V.[.[.W.N.W.[.[.Z.V.V.B.^.^.B.I.",
"3XqX3X#X|.3X|.Z.V.Z.G.n.s.M.Y.P.I.^.I.I.^.^.I.`.Y.P.L.Y.Y.n.j.n._.<X.XD.B.V.Z.V.A.V.I.V.I.^.P.B.Z.:X;XW.I.].%X#XA.V.I.W.V.(.B.V.",
"wXqXqX=X:X3XXXA.Z.V.V.C.b.I.^.Y.I.V.^.[.*X].^.P.K.Y.Y.K.I.K.n.V.~.`.~.S.V.Z.W.(.V.W.V.V.~.^.~.~.W.#X:XW.[.%XW.x.V.A.W.Z.V.I.V.B.",
"@X9X0XeX0X@X!.W.Z.A.B.V.I.^.I.I.V.V.).[.{.(.V.L.Y./.P.I.Y.^.B.^.S.B.S.V.V.Z.W.W.V.Z.I.I.P.P.P.~.(.:X%XQ.%X8XL.j.N.V.Z.V.V.V.V.V.",
"i.!.9XeX@Xl.n.Z.W.W.V.B.^.V.B.^.B.(.*X(.f.z.N.W.Y.Y.I.Y.(.I.B.V.S.V.S.V.V.Z.W.Z.W.V.I.I.B.B.B.P.`.;X%XY.+X;XQ.I.N.W.Z.(.V.V.V.G.",
"i.a.R.E.E.v.N.E.A.W.^.I.V.I.P.^.m.^.,X|.C.N.V.I.I.E.L.Y.S.B.B.S.V.S.D.V.V.W.V.).|.W.V.Y.P.B.P.B.L.Q.Y.L.L.U.Q.Q.A.V.W.[.[.V.V.V.",
"i.i.a.i.a.E.E.E.N.I.^.(.^.I.^.P.D.D.*X<X'.{.A.I.L.I.P.I.B.B.V.S.S.B.S.V.I.N.V.#X:X`.V.P.I.~./.~.K.j.k.I.M.y.L.I.I.A.{.,X,X(.M.B."
};
