/* XPM */
static char *result[] = {
/* columns rows colors chars-per-pixel */
"64 64 226 2 ",
"   c #050100",
".  c #0B0101",
"X  c #0D0807",
"o  c #130200",
"O  c #1B0401",
"+  c #130904",
"@  c #1B0B04",
"#  c #130A0A",
"$  c #1B0D09",
"%  c #1C140D",
"&  c #111009",
"*  c #1D1412",
"=  c #1E1818",
"-  c #14170E",
";  c #210300",
":  c #210902",
">  c #240D0A",
",  c #2B0F09",
"<  c #2E0804",
"1  c #330F04",
"2  c #2A1105",
"3  c #23120B",
"4  c #2B130C",
"5  c #32140D",
"6  c #331509",
"7  c #221513",
"8  c #2A1612",
"9  c #251814",
"0  c #341F1A",
"q  c #371A15",
"w  c #240E10",
"e  c #262313",
"r  c #34231D",
"t  c #3C231B",
"y  c #3C271A",
"u  c #3D1F21",
"i  c #352521",
"p  c #3B2622",
"a  c #3B2A24",
"s  c #3D2E2A",
"d  c #342A26",
"f  c #333929",
"g  c #441D18",
"h  c #4A1D1A",
"j  c #461A14",
"k  c #43190D",
"l  c #43231C",
"z  c #48251C",
"x  c #472925",
"c  c #483327",
"v  c #423331",
"b  c #5C3D34",
"n  c #5C3E3A",
"m  c #553B35",
"M  c #553329",
"N  c #6B392D",
"B  c #633C33",
"V  c #6C3C33",
"C  c #633D3A",
"Z  c #6C3C38",
"A  c #673532",
"S  c #733D35",
"D  c #205320",
"F  c #355330",
"G  c #5E4236",
"H  c #55423C",
"J  c #5C433C",
"K  c #56473A",
"L  c #634134",
"P  c #64433B",
"I  c #6B423A",
"U  c #6B4437",
"Y  c #734436",
"T  c #74453A",
"R  c #7B453C",
"E  c #734A3E",
"W  c #7C4A3E",
"Q  c #7B4336",
"!  c #5B4543",
"~  c #574B45",
"^  c #5C4A44",
"/  c #5B4E4B",
"(  c #544540",
")  c #5D504B",
"_  c #555440",
"`  c #545949",
"'  c #644542",
"]  c #644A44",
"[  c #6C4C44",
"{  c #624E4A",
"}  c #6C4D4B",
"|  c #6B4646",
" . c #734640",
".. c #744B43",
"X. c #7B4C43",
"o. c #744E49",
"O. c #7C4D49",
"+. c #7C4544",
"@. c #6D514B",
"#. c #685348",
"$. c #7C5146",
"%. c #75534B",
"&. c #7B514B",
"*. c #695651",
"=. c #785253",
"-. c #6F4C50",
";. c #5A674F",
":. c #4B6744",
">. c #80463D",
",. c #82493D",
"<. c #824741",
"1. c #824A43",
"2. c #814C48",
"3. c #835145",
"4. c #9F695D",
"5. c #9D6A64",
"6. c #986C68",
"7. c #94756D",
"8. c #9B736D",
"9. c #8C7774",
"0. c #957673",
"q. c #8E6F6C",
"w. c #A46D65",
"e. c #A46D6A",
"r. c #A36766",
"t. c #A7746D",
"y. c #AB7372",
"u. c #2A9E2E",
"i. c #249C27",
"p. c #2B9432",
"a. c #2F9F31",
"s. c #349D3A",
"d. c #26A52A",
"f. c #2BA42D",
"g. c #2AAA2E",
"h. c #20A123",
"j. c #2CA331",
"k. c #2DAC32",
"l. c #26A230",
"z. c #31A535",
"x. c #33AC34",
"c. c #34AB3A",
"v. c #3BAD3C",
"b. c #3CAA37",
"n. c #2FB134",
"m. c #33B235",
"M. c #3BBB36",
"N. c #35B53A",
"B. c #3BB53C",
"V. c #36BC3D",
"C. c #3BBC3E",
"Z. c #36BA36",
"A. c #41BD3C",
"S. c #42B939",
"D. c #37C13E",
"F. c #3BC13D",
"G. c #39C136",
"H. c #43C23E",
"J. c #49C33D",
"K. c #44C83E",
"L. c #3BB542",
"P. c #36BD41",
"I. c #3CBD42",
"U. c #3EBD49",
"Y. c #3BB745",
"T. c #3FAE45",
"R. c #42B645",
"E. c #41BD43",
"W. c #42BE4A",
"Q. c #49B949",
"!. c #42AC47",
"~. c #6D8B66",
"^. c #36C141",
"/. c #3CC143",
"(. c #3EC14A",
"). c #42C244",
"_. c #49C645",
"`. c #4BCA45",
"'. c #44C34A",
"]. c #4BC54B",
"[. c #46C94B",
"{. c #4BCB4D",
"}. c #42C841",
"|. c #52CE4C",
" X c #53C949",
".X c #4ED04D",
"XX c #54D24C",
"oX c #5AD24E",
"OX c #4CCC52",
"+X c #49C953",
"@X c #55C653",
"#X c #53CD53",
"$X c #5BCE5B",
"%X c #54CC57",
"&X c #4ED256",
"*X c #53D355",
"=X c #5BD553",
"-X c #5CD955",
";X c #56D35A",
":X c #5BD65B",
">X c #54D95B",
",X c #5CDA5C",
"<X c #57D955",
"1X c #62D956",
"2X c #64DC5B",
"3X c #69DE5D",
"4X c #61D558",
"5X c #60CE5B",
"6X c #67E25D",
"7X c #5DDC62",
"8X c #5CD763",
"9X c #5ECB60",
"0X c #63D562",
"qX c #64DD63",
"wX c #69DD62",
"eX c #6CDC6B",
"rX c #6AE164",
"tX c #66E468",
"yX c #9C897E",
"uX c #8B8177",
"iX c #AD8C7D",
"pX c #A59087",
"aX c #B9A39D",
"sX c #C2A59D",
"dX c #DBB3B6",
"fX c #E1CEC7",
/* pixels */
"V.I.E.V.C.)./.C.V.C.)./.).C.C.C./.P.P././.P.C.P.C.I.P.].8X;XE.N.P.W.I.(.8X&XP.P.P.^./.^.V.C.F.Z.C.H.C.A.A.C.C.L.).E.I.L.I.U.I.Y.",
"C.C.A.C.C.E.C.C.I.A./.).[./.C.C.I.P././.P.V.P.P.P.I.I.I.E.+X@X].Y.U.I.I.[.+XU.P./.F.V.F.V.C.F.).).).M.C.A.C.A.L.E.E.E.E.I.U.U.I.",
").A.C.I./.C.A.C.I.C.C.[.*X[.V.C.P.V././.V.V.I.P.I./.E.N.j.I.;X].H.).H.M.C.H.F.F.F.M.M.H.}.C.S.XX6XK.S.S.H.J.C.M.C.A.E./.F.C.V./.",
">X[.C.C.I.C.C./.C.C.C.&X,X{.V./.I.V.V.P.V././.P.I.I.Y.L.B.OX8XOX).{._.C.V.C.F.F.C.Z.M.H.XX`.H.`.6X-XJ.H.`.XXJ.S.C.S.F.A.C.C.C./.",
"tX*XI.C.C.C.C.I.C.E./.).{.).I././.P.V.P.P./.I.V.V.C.B.I.).].OX).`.,X|.A.C.C.M.S.M.C.S.H.oX-X X X1X6X=X XoX-X_.A.G.C.C.F.F.C.C.F.",
",X*X).C.C.E.A.V.I.).F.n.n.Z.C.I././.P.I.I./.I.I.C.(.C.I.P.n.k.m.`.,X#XC.C.S.A.G.A.S.S.H. X1X2X1X1X3X4XoX1X=X_.C./.F.C.P.V.C.F.C.",
"/.)./.C.).{.[.C.C.).C.m.k.Z.I.V.P.I.^.(.[.(.P.I.V.(.C.I.I.x.k.B.'.OX'.I.I.P.).E.I.R.E.A.E.].eXeX3XQ.@X5X%XE.I.P.I.+X+X^.P.I.U.Y.",
"h.n.Z.C.[.*XOXC.C.Z.C./.I.I.A.V.V.^./.[.>X[.C.V.C.I.V.P.W.I.C.I.I.W.I.Y.I.L.'.E.E.E.R.Q.j.a.%X0X5XS.S.5XE.f.c.I./.&X8X(.Y.I.(.Y.",
"N.m.B.A./.).).'.I.C.V.A.I.C.C.C.I.(.OX(.N.C./.).I.I.I.I.I.I.I.C.I.P.P.U.(.^.U.U.Y.Y.P.Y.L.v.c.c.b.a.u.z.c.B.I.Y.(.(.(.(.U.P.U.(.",
"_.E.E.C.Z./.).).V.V.C.I.E.C.C.C.I.[.,X[.g.m.I.(.C.C.I./.I.I.I.I.I.U.P.P.^.^.P.'.(.U.Y.U.E.R.j.j.u.a.a.z.c.Y.'.P.P.P.P.I.U.Y.U.U.",
"N.C.E.).I.C.C.Z.A.C.C.C./.E.C.F.C.'.7X*XV.I.E.B.C.C.C.C.C.V.C.C.V./.P.V.^.D.D..X&X[.P.N.I.I.C.C.B.S.B.B.B.C.E.C.V.V.I.C.I.I.U.P.",
"A.C.C.).A.B.).{.).E.I.C.C.C.I.).C.V.(.E.V.P.I.I.C.I./.C.C.C.C.C.D.^.V.V.^.D.D.(..X(.P.P.I.I.I.(.Q.R.E.E.E.C.I.F.C.C.).[.[.I.P.N.",
"E.A.B.C.C.E.|.*X).).I.C.C.A./.).I.m.g.k.C.E.B.E.C.E.C.C.I.C.I./.F.D.G.G.V.D.D.D.D.D.D.D.D.V.V.V.C.I.A.E.C.E.F.G.F.F.`.|.[.K.V.C.",
"C.A.C.B.).*X].x.C.C.C.C.C.C.C.C.P.C.N.N.E.E.C.A.C.C.A.C.Z.C./.C.F.Z.D.D.Z.D.D.D.^.D.V.D.D.^.^.I.I.I.E.E.).A.C.S.C.[.XXM.m.F.H.C.",
"C._.{.E.].,X_.f.V.C.C.E.C.C.C.C.E.E.E.I.C.I.E.A.C.C.[.].C.C.C.C.D.Z.V.D.D.D.^.D.^.^.D.^.^.P.P.P.P.P.P.I.E.A.).[.H.=X;XZ.d.C./.C.",
"C.{.,X]._.;X{.A.V.C.F.).I.C.I.).E.B.C.E.B.E.E.C.C.E.*X>X).C.A.N.V.F.V./.D.D.V.V.^.^.^.P.P.V.^./.P.U.I.B.V.).*X=X}.{.<X_.M.C.V.F.",
"B.C.P.C.B.V.P.E.I.(.OX&X{./.P.E.I.P.C.I.I.C.E.|._.S.oX2XoXJ.S. X`.S.M.M.`..XF.Z.V.C./././.V.V.P.P.I.I.I.I.I.I.E.L.I.B.I.I.N.C.I.",
"E.x.f.m.N.k.k.I.    >XtX>X'.  . E.I.B.C.E.A.).;X*XE.=X3X1XoX X=XoXA.M.H.<X<XV.V.V.F././.F.P./.I.I.Y.I.I.Y.B.c.k.B.x.g.B.I.C.).[.",
").N.N.V.P.N.N.P.X X   tX  . 9.-.o E.C.C.I.B._.,XqX*X4XqX3X2X5XwX*X}.B._.,X>XI.C.C.C.I.I.I.V.I.I.C.V.I.E.E.C.B.B.I.B.m.I./.C.[.-X",
"B.(.).I.I.E.).. X   #     + u dX0.. I.C.E.C.A.'.*XrX@X|.2XwXrX XA.E.A.C._.).C.C.C.C.P.V.C.P.I.I.I.I.B.I.C.I.I.).C.E.)./.C.I.{.<X",
"B.I.(.I.B.I.I.    # X X   8 8 < 0..     .   . . Y.8XL.c.%X0X0Xv.x.L.Q.C.k.c.P.E./.I.I.I.Y.(.U.W.C.C.V.I./.C.C.C.Z.C./.V.V.C.)./.",
"C.C.I.E.I.I.I.  # #     + 0 , 5 | H . ! H 9.H @ o . . i.v.E.T.v.B.B.E.E.k.x.P..     .     I.I.P.Z.C.[.OX[./.C.(.I.C.C.C.F.).F.V.",
"C.P.I.I.I.I./.  . X i + . x 2 6 %.n ' b &.| g q 7.0.o .   f.f.L.W.Y.L.E.Y.  . o 7 8 > $ o . . . P.).OX&X{.I.C.I.(.C.I././.P.V.C.",
"E.I.I.I.V.V.    * * i r H t l t l C h ..X.O.Z t.} C t p +               . @ i H ! H n J H t 8 O . . I.'.).I.V.C.I.C.V.Z.V./.V.F.",
"I.E.I.I.P.P.  . * 9 { *.P J l y [ G B ..E E L 3.E z z [ } } O > o +   @ r H J G P C %.6.8.q.%.[ K o X I.P.Y.U.P.I.P.P.P.P.V.I.P.",
"E.I.E.I.I.I.  . 7 ) ^ o O 5 b b %.L L $.E W Q Q 1.Z +.X...&.%.I L K K G K L b B B B I O.X.X.T X.%.K %   Y.P.P.P.P.I.I.P.P.P.P.I.",
"I.I.C.B.  . o d r i fXo @.B B Z ....1 U $.W Q W 1.N T X.O.T ..2.B L J G L b B B V N Y R W W R >.$.%.r .   . /.I.U.P.P.(.I.I.C.I.",
"E.I.    . w p u 8 o o 7.8.A Z 2.T 8.2 ..W Y N ,.R ,.2.R R +.V S N B L L B B V V N W W W >.,.,.,.W @.K 8 . . X ^.U.P.P.U.I.I.I.I.",
"E.  # . > | x x 0 n %.8.6.Z +.r.t.x , n B B U W Y W R w.e.,.1.S 1.X.W X.W X.W E E W W W R Q ,.,.W ..G t o 9 . X /.I.V.P.I.C.I./.",
"C.X   O { dX7.] ! P ' O...O.e.6.j , m ' B B U E 3.W W W 4.w.R 1.,.R X.,.W W W W W Y W W W R ,.,.Y $.b P O 4 K e     I.V.V.    C.",
"C.. d { } ! n a r @ c q C o.[ 5 ; x C C U ..O.E ....z E ..3.$.Y W >.>.>.W W W E W Y W W W Q W W W T L B O ] { p + *       X   C.",
"C.].. o '.. W.. ).o o > 5 l t O t n C h j +.X.X.E E z 1 1 k V $.W ,.>.R W W $.....L E E 3.E ,.W X...B z 4 K #.~ ( *.:.K F X   C.",
"'.OXOX'.X ~.. ~.. . . . > 4 J H J C Z h A 1.,.R E 2 4 m U R 4.w.,.,.Q W V l y : ; b U o.5.r.r.r.2.n p . . . 7 ;.;.f % .     XXJ.",
"qXW.k.n.  F # -   . + . { p { 8 n g  .O.2.w.R ,.E o a P C X.y.R R ,.X...@.J o o o O l  .8.y.r.+.O.! d . E.I..       +   H.-X6X1X",
"tX+Xk.n.D.D -   .   +   . *.+ ] 4 , ' =.5.r.w.R $.@ > J m I E X.O. ...%.M . + 3 i p ; g +.e.e.1.o.0 X . C.).C.V.C.XX,XXXoX3X3X1X",
"&XOX).C.^./.(.V.V.I.^.P.+   + r 8 @ u | 8.8.e.1.O.5 . x J b G P b ' 0 4 * .     $ p x g  .X.5.O.j o . I.I.A.F.C.H.).;X6X3X3X1X4X",
"k.N.P.I.I.I.I.P.I.I././.I..   . . . 7 ! 0.7.X.S +., O O i H r i > o . .     X   + . H x [ E I N z O /.C.C.F.E.E.C.z.N.$XeX0XQ.S.",
"f.n.C.(.E.P.P.V.P./.P.P.I././.        # p ] t.2.X.=.. . . .   .   .   C.I.V.^.  X 9 o O b P o.m b o . C.C.C.I.E.E.x.z.R.@X].S.z.",
"V.I./.C.Z.V.F.I.V././.V.V./.F.V.    X # . ; b +.+.} . E.B.{.,X].I.I.I.I.V.I././.. * $ o t b 7.G J y 8 .   I.R.R.E.R.T.z.u.a.c.T.",
"/./.C.C.I.C.C.C.V.V.F./.V.V.V././.  = . + . O X.+.x . {._.%X2X].I.I.I.P.I.I./.I.(.  o 8 @ . O 9.#.[ 5 yXs . I.R.R.Q.Y.L.z.z.Y.T.",
"C.C./.V.C.I.C.C.C.C./.C./.C./.V.P.  * * . o o ....9   <X).].*XA.C.E.C.I.I.I.I.).(./.  + . 7 . . . E P aXaX. B.R.E.E.A.A.I.Z.P./.",
"C.Z.C.C.C.C.C.C.I./.).V.C.V.V./.I.. v $ $ . 2 iXP $ . ,X).m.x.B.I.I.I.I.I.N.I.[.&X/.I.  s / # o . 2 6.sXO . ].S.S.E.H.C.B.(./.P.",
"P.I.C.C.I.A.I.C.V.A.(.C.C.C.C./.D.. ! $ $ . c G c + /.).).x.d.C.I.C.I.E.P.V./.[.&X(.  $ / / # . . c M 1 o 1XXXJ.A.J.K.G.G.G.D.G.",
"I.).C.).).C.C.C.C.).C.I./.C.D.C.P.o a { O . o c y   g.g.I.E.B.E.I.V.I.I./.^./.(./.. . . $ ! # . o x x O . 2X2X=X_. XoXK.G.G.G.F.",
").C.I.OXOXE.C.I.*XOXI.C.I.I.I.I.^.x #.! . 3 K G o P.m.n.V.I.I.I.(.V.P.P.V.^./.V.  v f ~ / . # o v ^ ' o oX3X3X1XoX1X2X_./..X/.G.",
"E.I.I.).{.].).).8X:XI.N.V./.I.I.^.( ^ o q.pXyXuX. I.I.I.P.C.C.P.^.I./.I.V.V.^.  ) ~ K ) c . x ! ] ] 3 . 5XoX1X3X6X-X`.A.}.<X[.D.",
"P.I.I.k.B.*XOXE.;X:XE.C.I.I.I.V.P.~ ^ . { yXG pX. V.P./.I.V.P././.^.^.^.P.V.P.  ~.+ 9.@ o o aX, aX9.*   ].S.@XwX4XQ.c.B.W.'.'.U.",
"B.P.I.j.P.qX*XE.*X,X'.P.C.V.I./.F.. . . o o + o . P.P.P.I.P.V.I.P.P.V.P.(./.V.. . .   . . . o o o .   E.x.i.S.Q.E.B.z.L.R.W.U.I.",
"I.W.E.P.'.$X#XI.#X#X].).V.V.A.C.P.(.P.P.P.U.C.P.I.Y.E.W.I.I.I.I.I.V.V.I./.P.P.V.V.P.P.P.P.V.C.I.I.E.P.f.i.i.d.f.d.k.B.E.R.E.E.Y.",
"E.I.R.E.P.B.B.B.m.B.B.A.C.C.F.C.^.P.^.P.P.I.I.I.E.E.I.Y.P.Y.E.I.I.I.V.P././.V.V.P.P.I././.V.I./.I.I.P.N.c.N.N.c.B.B.A.R.I.L.R.E.",
"I.I.I.I.B.g.x.E.g.k.B.C.I.I.I.I.P.^./.^.P.F.I.C.I.I.'.I.C.I.).I.I.(.(.C./.P./.P.P.P.^././.I.P./.I.C.N.I.).W.E.I.E.E.C.A.I.I.U.U.",
"C.C.P.I.B.B.C.E.B.N.E._.I.I.I.I.^.^.V.V.I.C.I.V.I.I.Y.I.C.C.V.A.C./.I.P./././.V.I.V.P././.P.P.I.C.C.I.I.Y.I.L.E.I.I.C.C.I.I.U.I.",
"C.C.C.C.C.C.C.C.E.C.(.U.L.Y.Y.I./.D.V.F.F.^./.F.I.C.P.E.#X{.C.N.I.).V.C.[.[.C.V.D.V.D.P.V./.D.D.V.V./.F.P.V.P.E./.C.V././.I.P.P.",
"V.V.F.H.C.C.C.H.E.C.I.R.U.U.I.U.D./.V.D.F.F.F.V.C.I.I.[.#X#X_.S.C.C.I.).*XOX/.V./.C.D.V.D.^./.V./.C.V.C.I.P.I.E.C.C.V./.I.P.P.^.",
"C.F.F.G.M.M.C.).A.I.Y.+X&XU.U.U./.C.C.V.D./.^./.I.C.I.N.m.E.|.].V.F.C.H.[.).F.C.C./.C.V.D./.^.^.V.C.M.I.E.I.C.C.V.C.V.V.^.D./.P.",
"K.F.F.M.M.F.F.M.B.I.P.%X8X+XU.U.C./.F.D.V.V.V.P.^.V.I.L.g._.,X].).[.).N.C./.I.).I.C.C.V.D.^.D.D.Z.C.G./.C.P.C.C.C.F.F.C.C./.^.P.",
"-XXXS.M.M.H.H.F.A.C.I.%X,X+XY.I.I.V.I.).V.V./.V.P.I.Y.P.E.%X:X{.).-X[.C.H.C.C.).E.C.I./.V.D.^.^.C.E.E.A.E.I.A.C.).C.I.C.C.F.V.I.",
"6X-X`.M.H.`._.S.C.A.A.C.C.Y.I.U.C./.).I.P.Z.C.P.U.U.I.I.I.C.B.B.{.7X*XF.C.C.C.V.C.C.C./.V.D.D.V.C.{.{.E.B.E.OX{.A.C.C.C././.V.P.",
"2XtXqX@X|.-X{.A.C.A.H.m.d.N.(.I.I.E.P.I.(.(.C.(.U.P.Y.U.U.N.k.m.[.*X.XC.C.C.E.C.A.C.C.C.^.^.^.V.A.:X;X).I.].%X#XA.B.A.A.I./.C.V.",
"qXqX2X:X-X2XXXA.S.C.C.Z.m.P.(.I.E.P./.{.*X[.I.I.P.U.Y.L.Y.P.m.C.^.[.^.F.C.C.E.E.C.E.I.C.I./.^.^.A.#X%X'.{.%XE.c.C.C.E.A.C.C.C.C.",
"@X9X0XeX0X@XE.Q.A.A.C.C.I./.C./.C.C.[.{.).).C.I.U.U.I.P.(.I.V.I.F.V.D.C.C.C.A.E.C.A.I.I.P.P.P.^.'.;X$XW.%X8XL.k.B.C.A.C.C.C.C.C.",
"u.Q.9XeX@Xx.m.S.A.E.C.V.I.C.V.I.C.).XX).g.x.B.E.U.U.Y.U.(.I.V.F.D.V.D.C.C.H.E.A.E.C.I.I.V.V.V.P.'.;X;XY.+X8XE.E.B.E.A.).C.C.I.A.",
"p.s.!.!.T.b.v.R.R.E./.C.I.P.P./.M./.,X.XM.N.C.B.E.Y.P.Y.F.V.V.F.D.V./.C.I.A.A.'.@X).P.I.^.V.P.V.Y.U.Y.Y.Y.Y.E.W.A.C.E.{.{.C.C.C.",
"p.p.s.p.s.R.Q.E.B.C./.).I././.I.F.F.*X*X`._.A.I.L.E.I.I.V.V.V.D.D.V.F.C.C.C.C.@X,X).B.I.^.I./.P.P.k.j.Y.c.l.L.L.E.S.'.,X-XH.V.V."
};
