/* XPM */
static char *result[] = {
/* columns rows colors chars-per-pixel */
"47 24 142 2 ",
"   c #050101",
".  c #0B0202",
"X  c #060903",
"o  c #0A070B",
"O  c #0E0D0D",
"+  c #130403",
"@  c #140A06",
"#  c #1D0B06",
"$  c #150C09",
"%  c #1C0C0A",
"&  c #12120C",
"*  c #1D140D",
"=  c #161410",
"-  c #1C1312",
";  c #220E0B",
":  c #2A0E0B",
">  c #310C08",
",  c #24110E",
"<  c #2A140F",
"1  c #261513",
"2  c #2B1613",
"3  c #261A16",
"4  c #2B1A14",
"5  c #261B19",
"6  c #2C1D1B",
"7  c #361410",
"8  c #321A16",
"9  c #391910",
"0  c #331D1B",
"q  c #3A1E1C",
"w  c #2E231E",
"e  c #33221D",
"r  c #3A211D",
"t  c #292220",
"y  c #352522",
"u  c #3A2624",
"i  c #362A24",
"p  c #3C2A24",
"a  c #372E2C",
"s  c #3D2D2A",
"d  c #38302B",
"f  c #441D14",
"g  c #45231D",
"h  c #4C221A",
"j  c #422624",
"k  c #4E2621",
"l  c #432A24",
"z  c #492C26",
"x  c #452D2B",
"c  c #4D2D29",
"v  c #552725",
"b  c #552B24",
"n  c #592E27",
"m  c #43342B",
"M  c #4B332E",
"N  c #4E3A2E",
"B  c #52332C",
"V  c #5B332C",
"C  c #403432",
"Z  c #4C3632",
"A  c #473934",
"S  c #4D3F3B",
"D  c #543531",
"F  c #5D3731",
"G  c #523A34",
"H  c #5C3C35",
"J  c #563E3C",
"K  c #5C3C3A",
"L  c #67362F",
"P  c #6B332D",
"I  c #603631",
"U  c #633D35",
"Y  c #6A3E33",
"T  c #613E3B",
"R  c #6C3F38",
"E  c #723F35",
"W  c #5C4036",
"Q  c #54423A",
"!  c #5D413A",
"~  c #654135",
"^  c #6E4235",
"/  c #64433B",
"(  c #6B453B",
")  c #66483E",
"_  c #6D4A3E",
"`  c #704337",
"'  c #7A4136",
"]  c #74443B",
"[  c #7C463B",
"{  c #76493E",
"}  c #7C493D",
"|  c #534643",
" . c #5B4540",
".. c #5F4D4A",
"X. c #634542",
"o. c #6D4440",
"O. c #644B45",
"+. c #6C4944",
"@. c #6D4C4A",
"#. c #724742",
"$. c #7D4640",
"%. c #744B42",
"&. c #7B4A42",
"*. c #754C48",
"=. c #784E48",
"-. c #61504A",
";. c #6C524D",
":. c #76554C",
">. c #7D534C",
",. c #695551",
"<. c #735554",
"1. c #7E5A54",
"2. c #7E5C59",
"3. c #7A6764",
"4. c #7D6C65",
"5. c #80463E",
"6. c #814A3E",
"7. c #844C43",
"8. c #8A5146",
"9. c #83534B",
"0. c #88574B",
"q. c #825651",
"w. c #8F5752",
"e. c #875952",
"r. c #885953",
"t. c #985F57",
"y. c #876059",
"u. c #8B645D",
"i. c #936157",
"p. c #95615C",
"a. c #A0665F",
"s. c #816562",
"d. c #8F6665",
"f. c #846A63",
"g. c #886A68",
"h. c #926660",
"j. c #9A6A63",
"k. c #8B7B71",
"l. c #A26D66",
"z. c #9B8383",
"x. c #B28D8D",
"c. c None",
/* pixels */
"c.c.c.c.c.c.c.c.c.c.c.c.c.c.c.c.c.c.c.c.c.c.c.c.c.c.c.c.c.c.c.c.c.c.c.c.c.c.c.c.c.c.c.c.c.c.c.",
"c.c.c.c.c.c.c.    1 S c.c.c.c.c.c.c.c.c.c.c.c.c.c.c.c.c.c.c.c.c.c.c.c.c.c.c.c.c.c.c.c.c.c.c.c.",
"c.c.c.c.c.c.c.    6 z.J c.c.c.c.c.c.c.c.c.c.c.c.c.c.c.c.c.c.c.c.c.c.c.c.c.c.c.c.c.c.c.c.c.c.c.",
"c.c.c.c.c.c.c.X   3 s.g.3 c.+ 1 6 % c.c.c.c.c.c.c.c.c.c.c.c.c.c.c.c.c.c.c.c.c.c.c.c.c.c.c.c.c.",
"c.c.c.c.c.c.X & % 8 c h.M 2 q O.<.r M s . c.c.c.c.c.c.  . @ $ . . c.c.c.c.c.c.c.c.c.c.c.c.c.c.",
"c.c.c.c.c.. * w r c v q.V M F %.( #.1.H 8 ; + + .   . 4 m Z Z D z 2 # + c.c.c.c.c.c.c.c.c.c.c.",
"c.c.c.c.  3 Q  .B U Y Y ( ~ ( &.] [ { v U +.! r < 4 m Q ! / +.y.u.:.) z % c.c.c.c.c.c.c.c.c.c.",
"c.c.c.  + 3 ,.4 M U U ~ _ ~ ^ } [ [ [ E { %.%.%.) W ! W H U ` } &.} { #.l @   c.c.c.c.c.c.c.c.",
"c.  . 1 < p u.N ) ~ ~ _ _ ~ ^ } } ' [ } } &.$.] ~ ~ U ~ Y ^ ' } 5.6.} } H < + c.c.c.c.c.c.c.c.",
"  + 3 M z B ! >.u.( +.>.B ~ U Y Y ' } } 0.j.q.&.} &.{ { { } } } 5.5.6.} ) p # $ c.c.c.c.c.c.c.",
"  * Q G N B z F / %.>.I g H U U ` } &.` R e.q.$.$.$.7.&.} { [ } [ 6.[ { ( B 2 e $ c.c.c.c.c.c.",
"c.- i 6 ; < e r G ) F k D K U n %.&.%.Y f h L R [ $.$.#.{ ` ] } } } &.} ( l r  .y # .   c.c.  ",
"c.c.      . @ % 4 x M c D H R L 7.} &.b 9 V ] &.7.[ / N Q m ~ } 8.p.t.#.J 8 ; x X.J q 2 3 $   ",
"c.c.c.c.c.c.c.c.c.% x D q z R w.a.9.( > z / _ 9.7.&.M $ X 4 7 L t.l.>./ 0 . c.% 6  .O.G s - X ",
"c.c.c.c.c.c.c.c.c.@ % 0 3 1 T j.j.r.o.: 8 G ! / H r % . @ 4 r h &.p.*.q . c.c.c.c.- - @ + . c.",
"c.c.c.c.c.c.c.c.c.c.  . . + j d.h.=.o.; @ 5 s p %       . @ e B #.o.K 1   c.c.c.c.c.c.c.c.c.c.",
"c.c.c.c.c.c.c.c.c.c.c.    . : j F T D @ c.. . . c.c.c.c.o O & e K r.J 2 @ . c.c.c.c.c.c.c.c.c.",
"c.c.c.c.c.c.c.c.c.c.c.c.c.@ # + 1 ( u   c.c.c.c.c.c.c.c.c.o * . ; ;.@.D X.x c.c.c.c.c.c.c.c.c.",
"c.c.c.c.c.c.c.c.c.c.c.c.c.$ , + r :.6   c.c.c.c.c.c.c.c.c.c.  @ $ + : @.x.<.+ c.c.c.c.c.c.c.c.",
"c.c.c.c.c.c.c.c.c.c.c.c.c.5 6 + Q O., c.c.c.c.c.c.c.c.c.c.c.+ s w . + z @.1 c.c.c.c.c.c.c.c.c.",
"c.c.c.c.c.c.c.c.c.c.c.c.a u % s r 4 . c.c.c.c.c.c.c.c.c.@ 5 q 8 % & i p @ c.c.c.c.c.c.c.c.c.c.",
"c.c.c.c.c.c.c.c.c.c.c.t d s  .;.e c.c.c.c.c.c.c.c.c.= a Z ! 8 % e S m @ c.c.c.c.c.c.c.c.c.c.c.",
"c.c.c.c.c.c.c.c.c.c.c.| 5 4.k.4.4 c.c.c.c.c.c.c.c.c.- A -.y % ..O.3.4   c.c.c.c.c.c.c.c.c.c.c.",
"c.c.c.c.c.c.c.c.c.c.c.5 @ 6 6 e . c.c.c.c.c.c.c.c.c.+ + 5 . . t 5 u @ c.c.c.c.c.c.c.c.c.c.c.c."
};
